<svg xmlns="http://www.w3.org/2000/svg" version="1.1" style="font-family:Lato, &#x27;Helvetica Neue&#x27;, Helvetica, Arial, &#x27;Liberation Sans&#x27;, sans-serif;font-size:18px;background-color:white;text-rendering:geometricPrecision;-webkit-font-smoothing:antialiased" width="850" height="743.95" viewBox="0 0 850 743.95"><defs><style>@import url(https://ourworldindata.org/fonts.css)</style></defs><defs><pattern id="noDataPattern" patternUnits="userSpaceOnUse" width="4" height="4" patternTransform="rotate(-45 2 2)"><path d="M -1,2 l 6,0" stroke="#ccc" stroke-width="0.7"></path></pattern></defs><rect class="background-fill" fill="white" width="850" height="743.95"></rect><g id="header" class="HeaderView"><g id="logo" transform="translate(769, 16) scale(1)"><svg className="owidLogo" xmlns="http://www.w3.org/2000/svg" width="65" height="36" viewBox="0 0 65 36"  fill="none"><path fill="#002147" d="M0 0h64.8v36H0z"/><path fill="#CE261E" d="M0 33.3h64.8V36H0z"/><path fill="#fff" d="M13.796 10.575c0 .636-.106 1.226-.318 1.77a4.193 4.193 0 0 1-.894 1.404 4.084 4.084 0 0 1-1.386.93c-.54.22-1.138.33-1.794.33-.656 0-1.256-.11-1.8-.33a4.149 4.149 0 0 1-1.392-.93 4.193 4.193 0 0 1-.894-1.404A4.833 4.833 0 0 1 5 10.575c0-.636.106-1.224.318-1.764a4.18 4.18 0 0 1 .894-1.41 4.076 4.076 0 0 1 1.392-.924 4.684 4.684 0 0 1 1.8-.336c.656 0 1.254.112 1.794.336.54.224 1.002.534 1.386.93.384.392.682.86.894 1.404.212.54.318 1.128.318 1.764Zm-1.656 0c0-.476-.064-.902-.192-1.278a2.671 2.671 0 0 0-.54-.966 2.332 2.332 0 0 0-.864-.606 2.94 2.94 0 0 0-1.14-.21c-.424 0-.806.07-1.146.21-.34.14-.63.342-.87.606a2.742 2.742 0 0 0-.546.966 3.955 3.955 0 0 0-.192 1.278c0 .476.064.904.192 1.284.128.376.31.696.546.96.24.26.53.46.87.6.34.14.722.21 1.146.21.424 0 .804-.07 1.14-.21.34-.14.628-.34.864-.6.236-.264.416-.584.54-.96a4.01 4.01 0 0 0 .192-1.284ZM16.104 8.757v3.912c0 .376.086.668.258.876.176.204.438.306.786.306.256 0 .496-.056.72-.168a2.58 2.58 0 0 0 .636-.474V8.757h1.482v6.156h-.906c-.192 0-.318-.09-.378-.27l-.102-.492a4.65 4.65 0 0 1-.396.354 2.577 2.577 0 0 1-.438.27 2.35 2.35 0 0 1-.498.168 2.345 2.345 0 0 1-.57.066c-.336 0-.634-.056-.894-.168a1.821 1.821 0 0 1-.648-.486 2.157 2.157 0 0 1-.402-.738 3.233 3.233 0 0 1-.132-.948V8.757h1.482ZM21.328 14.913V8.757h.87c.152 0 .258.028.318.084.06.056.1.152.12.288l.09.744c.22-.38.478-.68.774-.9.296-.22.628-.33.996-.33.304 0 .556.07.756.21l-.192 1.11c-.012.072-.038.124-.078.156a.278.278 0 0 1-.162.042 1.01 1.01 0 0 1-.246-.042 1.646 1.646 0 0 0-.414-.042c-.308 0-.572.086-.792.258-.22.168-.406.416-.558.744v3.834h-1.482ZM27.347 6.237h1.356a.57.57 0 0 1 .348.102c.096.064.16.152.192.264l1.476 5.19c.036.128.068.268.096.42.032.148.062.306.09.474a5.968 5.968 0 0 1 .228-.894l1.704-5.19a.575.575 0 0 1 .186-.252.543.543 0 0 1 .348-.114h.474a.57.57 0 0 1 .348.102.497.497 0 0 1 .192.264l1.692 5.19c.088.256.164.54.228.852.028-.156.056-.306.084-.45.032-.144.064-.278.096-.402l1.476-5.19c.028-.1.09-.186.186-.258a.563.563 0 0 1 .348-.108h1.266l-2.694 8.676h-1.458l-1.896-5.928-.078-.246a9.504 9.504 0 0 1-.072-.282c-.024.1-.05.194-.078.282-.024.088-.048.17-.072.246l-1.914 5.928H30.04l-2.694-8.676ZM42.771 8.661c.46 0 .876.074 1.248.222.376.148.696.358.96.63s.468.604.612.996c.144.392.216.83.216 1.314 0 .488-.072.928-.216 1.32a2.85 2.85 0 0 1-.612 1.002 2.653 2.653 0 0 1-.96.636 3.35 3.35 0 0 1-1.248.222c-.46 0-.878-.074-1.254-.222a2.712 2.712 0 0 1-.966-.636 2.922 2.922 0 0 1-.618-1.002 3.807 3.807 0 0 1-.216-1.32c0-.484.072-.922.216-1.314.148-.392.354-.724.618-.996.268-.272.59-.482.966-.63a3.397 3.397 0 0 1 1.254-.222Zm0 5.202c.512 0 .89-.172 1.134-.516.248-.344.372-.848.372-1.512s-.124-1.17-.372-1.518c-.244-.348-.622-.522-1.134-.522-.52 0-.904.176-1.152.528-.248.348-.372.852-.372 1.512s.124 1.164.372 1.512c.248.344.632.516 1.152.516ZM46.723 14.913V8.757h.87c.152 0 .258.028.318.084.06.056.1.152.12.288l.09.744c.22-.38.478-.68.774-.9.296-.22.628-.33.996-.33.304 0 .556.07.756.21l-.192 1.11c-.012.072-.038.124-.078.156a.278.278 0 0 1-.162.042 1.01 1.01 0 0 1-.246-.042 1.646 1.646 0 0 0-.414-.042c-.308 0-.572.086-.792.258-.22.168-.406.416-.558.744v3.834h-1.482ZM52.96 5.997v8.916h-1.482V5.997h1.482ZM58.732 14.913c-.192 0-.318-.09-.378-.27l-.12-.594a3.68 3.68 0 0 1-.402.39c-.14.116-.292.216-.456.3-.16.084-.334.148-.522.192a2.372 2.372 0 0 1-.6.072c-.336 0-.644-.07-.924-.21a2.098 2.098 0 0 1-.726-.606 3.033 3.033 0 0 1-.468-.99 5.072 5.072 0 0 1-.162-1.344c0-.456.062-.88.186-1.272s.302-.732.534-1.02c.232-.288.51-.512.834-.672a2.384 2.384 0 0 1 1.092-.246 2.103 2.103 0 0 1 1.536.606V5.997h1.482v8.916h-.906Zm-1.974-1.086c.308 0 .57-.064.786-.192.216-.128.42-.31.612-.546v-2.76a1.452 1.452 0 0 0-.552-.432 1.597 1.597 0 0 0-.636-.126c-.224 0-.428.042-.612.126a1.21 1.21 0 0 0-.462.384c-.124.168-.22.384-.288.648-.068.26-.102.568-.102.924 0 .36.028.666.084.918.06.248.144.452.252.612.108.156.24.27.396.342.156.068.33.102.522.102ZM16.331 20.757v6.156H14.85v-6.156h1.481Zm.223-1.794a.844.844 0 0 1-.078.36.963.963 0 0 1-.21.294.995.995 0 0 1-.3.204.963.963 0 0 1-.372.072.948.948 0 0 1-.367-.072 1.018 1.018 0 0 1-.498-.498.963.963 0 0 1 0-.732.995.995 0 0 1 .205-.3.929.929 0 0 1 .293-.198.899.899 0 0 1 .738 0 .912.912 0 0 1 .3.198.943.943 0 0 1 .288.672ZM17.771 26.913v-6.156h.906c.192 0 .318.09.378.27l.102.486a2.934 2.934 0 0 1 .828-.618c.156-.076.322-.134.498-.174.176-.04.368-.06.576-.06.336 0 .634.058.894.174.26.112.476.272.648.48.176.204.308.45.396.738.092.284.138.598.138.942v3.918h-1.482v-3.918c0-.376-.088-.666-.264-.87-.172-.208-.432-.312-.78-.312-.256 0-.496.058-.72.174a2.58 2.58 0 0 0-.636.474v4.452h-1.482ZM34.22 22.575c0 .636-.106 1.22-.318 1.752-.212.532-.51.99-.894 1.374a4 4 0 0 1-1.386.894 4.87 4.87 0 0 1-1.794.318h-3.312v-8.676h3.312a4.79 4.79 0 0 1 1.794.324 4 4 0 0 1 1.386.894c.384.38.682.836.894 1.368.212.532.318 1.116.318 1.752Zm-1.65 0c0-.476-.064-.902-.192-1.278a2.68 2.68 0 0 0-.546-.96 2.332 2.332 0 0 0-.864-.606 2.94 2.94 0 0 0-1.14-.21h-1.686v6.108h1.686c.424 0 .804-.07 1.14-.21.34-.14.628-.34.864-.6a2.75 2.75 0 0 0 .546-.96 4.01 4.01 0 0 0 .192-1.284ZM39.98 26.913h-.665c-.14 0-.25-.02-.33-.06-.08-.044-.14-.13-.18-.258l-.132-.438c-.156.14-.31.264-.462.372a2.804 2.804 0 0 1-.462.264c-.16.072-.33.126-.51.162-.18.036-.38.054-.6.054-.26 0-.5-.034-.72-.102a1.618 1.618 0 0 1-.57-.318 1.448 1.448 0 0 1-.366-.522 1.852 1.852 0 0 1-.132-.726c0-.232.06-.46.18-.684.124-.228.328-.432.612-.612.284-.184.662-.336 1.134-.456.472-.12 1.058-.188 1.758-.204v-.36c0-.412-.088-.716-.264-.912-.172-.2-.424-.3-.756-.3a1.837 1.837 0 0 0-1.02.276c-.116.068-.224.13-.324.186a.664.664 0 0 1-.33.084.429.429 0 0 1-.258-.078.614.614 0 0 1-.174-.192l-.27-.474c.708-.648 1.562-.972 2.562-.972.36 0 .68.06.96.18.284.116.524.28.72.492.196.208.344.458.444.75.104.292.156.612.156.96v3.888Zm-2.88-.924c.153 0 .293-.014.42-.042.129-.028.249-.07.36-.126.117-.056.227-.124.33-.204.109-.084.217-.182.325-.294v-1.038c-.432.02-.794.058-1.086.114-.288.052-.52.12-.696.204a.923.923 0 0 0-.378.294.664.664 0 0 0-.108.366c0 .26.076.446.228.558.156.112.358.168.606.168ZM43.22 27.01c-.532 0-.942-.15-1.23-.45-.288-.305-.432-.723-.432-1.255v-3.438h-.624a.31.31 0 0 1-.21-.078c-.056-.052-.084-.13-.084-.234v-.588l.99-.162.312-1.68a.302.302 0 0 1 .108-.186.365.365 0 0 1 .222-.066h.768v1.938h1.62v1.056h-1.62v3.336c0 .192.048.342.144.45a.488.488 0 0 0 .384.162c.092 0 .168-.01.228-.03.064-.024.118-.048.162-.072.048-.024.09-.046.126-.066a.194.194 0 0 1 .108-.036.16.16 0 0 1 .108.036c.028.02.058.052.09.096l.444.72c-.216.18-.464.316-.744.408a2.77 2.77 0 0 1-.87.138ZM50.423 26.913h-.666c-.14 0-.25-.02-.33-.06-.08-.044-.14-.13-.18-.258l-.132-.438c-.156.14-.31.264-.462.372a2.804 2.804 0 0 1-.462.264c-.16.072-.33.126-.51.162-.18.036-.38.054-.6.054-.26 0-.5-.034-.72-.102a1.618 1.618 0 0 1-.57-.318 1.448 1.448 0 0 1-.366-.522 1.852 1.852 0 0 1-.132-.726c0-.232.06-.46.18-.684.124-.228.328-.432.612-.612.284-.184.662-.336 1.134-.456.472-.12 1.058-.188 1.758-.204v-.36c0-.412-.088-.716-.264-.912-.172-.2-.424-.3-.756-.3a1.837 1.837 0 0 0-1.02.276c-.116.068-.224.13-.324.186a.664.664 0 0 1-.33.084.429.429 0 0 1-.258-.078.614.614 0 0 1-.174-.192l-.27-.474c.708-.648 1.562-.972 2.562-.972.36 0 .68.06.96.18.284.116.524.28.72.492.196.208.344.458.444.75.104.292.156.612.156.96v3.888Zm-2.88-.924c.152 0 .292-.014.42-.042.128-.028.248-.07.36-.126.116-.056.226-.124.33-.204.108-.084.216-.182.324-.294v-1.038c-.432.02-.794.058-1.086.114-.288.052-.52.12-.696.204a.923.923 0 0 0-.378.294.664.664 0 0 0-.108.366c0 .26.076.446.228.558.156.112.358.168.606.168Z"/></svg></g><a id="title" href="https://ourworldindata.org/explorers/minerals?country=AUS~CHL~CHN~USA~CAN~ALB~DZA~ARG~ARM~AUT~AZE~BOL~OWID_WRL~BWA~BRA~BGR~COL~COG~CUB~CYP~OWID_CZS~COD~DOM~OWID_GDR~ZWE~ZMB~OWID_YGS~OWID_GFR~VNM~UZB~GBR~UGA~OWID_USS~TUR~TZA~TJK~TWN~SWE~ESP~KOR~ZAF~SVK~OWID_SRM~SRB~SAU~RUS~ROU~PRT~POL~PHL~PER~PNG~PAN~PAK~OMN~NOR~MKD~PRK~NIC~NZL~NAM~MMR~MOZ~MAR~MNG~MEX~MRT~MYS~LAO~KGZ~KEN~KAZ~JPN~ITA~ISR~IRL~IRN~IDN~IND~HUN~HND~HTI~GTM~GRC~DEU~GEO~FRA~FIN~ERI~ECU~VEN~ARE~UKR~CHE~SUR~LKA~SVN~QAT~NGA~NLD~MNE~ISL~GHA~EGY~HRV~CMR~BIH~BHR~AFG~OWID_KOS~MDG~NCL~SDN~Other~CZE~THA~TUN~CIV~GAB~RWA~NER&amp;Mineral=Niobium&amp;Metric=Production&amp;Type=Mine&amp;Share+of+global=false" style="font-family:&#x27;Playfair Display&#x27;, Georgia, &#x27;Times New Roman&#x27;, &#x27;Liberation Serif&#x27;, serif" target="_blank" rel="noopener"><text font-size="24.75" font-weight="600" x="16.0" y="40.0" fill="#5b5b5b"><tspan x="16" y="40.0075">Niobium production, 1964 to 2023</tspan></text></a><g id="subtitle" class="markdown-text-wrap"><text x="16.0" y="63.9" style="font-size:14.625px;line-height:1.2" fill="#5b5b5b"><tspan x="16" y="63.9">Production of <tspan class="dod-span" data-id="niobium">niobium<tspan style="font-feature-settings:&quot;sups&quot;">¹</tspan></tspan>, in tonnes. Based on mined, rather than <tspan class="dod-span" data-id="refined-production">refined<tspan style="font-feature-settings:&quot;sups&quot;">²</tspan></tspan>, production.</tspan></text></g></g><g id="chart-area" style="pointer-events:none"><g id="line-chart" class="LineChart"><defs><clipPath id="boundsClip-76"><rect x="67.7" y="73.25" width="838" height="470.35"></rect></clipPath></defs><rect x="16" y="83.25" width="818" height="450.35" fill="none"></rect><g id="dual-axis" class="DualAxisView"><g id="horizontal-axis" class="HorizontalAxis"><g id="tick__1964"><line x1="77.7" y1="512.6" x2="77.7" y2="518.1" stroke="#999" stroke-width="1"></line><text x="77.7" y="531.6" fill="#5b5b5b" text-anchor="start" font-size="13.5">1964</text></g><g id="tick__2023"><line x1="615.4" y1="512.6" x2="615.4" y2="518.1" stroke="#999" stroke-width="1"></line><text x="615.4" y="531.6" fill="#5b5b5b" text-anchor="end" font-size="13.5">2023</text></g><g id="tick__1970"><line x1="132.4" y1="512.6" x2="132.4" y2="518.1" stroke="#999" stroke-width="1"></line><text x="132.4" y="531.6" fill="#5b5b5b" text-anchor="middle" font-size="13.5">1970</text></g><g id="tick__1980"><line x1="223.5" y1="512.6" x2="223.5" y2="518.1" stroke="#999" stroke-width="1"></line><text x="223.5" y="531.6" fill="#5b5b5b" text-anchor="middle" font-size="13.5">1980</text></g><g id="tick__1990"><line x1="314.7" y1="512.6" x2="314.7" y2="518.1" stroke="#999" stroke-width="1"></line><text x="314.7" y="531.6" fill="#5b5b5b" text-anchor="middle" font-size="13.5">1990</text></g><g id="tick__2000"><line x1="405.8" y1="512.6" x2="405.8" y2="518.1" stroke="#999" stroke-width="1"></line><text x="405.8" y="531.6" fill="#5b5b5b" text-anchor="middle" font-size="13.5">2000</text></g><g id="tick__2010"><line x1="496.9" y1="512.6" x2="496.9" y2="518.1" stroke="#999" stroke-width="1"></line><text x="496.9" y="531.6" fill="#5b5b5b" text-anchor="middle" font-size="13.5">2010</text></g></g><g id="vertical-axis" class="VerticalAxis"><g id="tick-labels"><text id="tick-label__0-t" x="72.70" y="513.1" dy=".32em" text-anchor="end" fill="#5b5b5b" font-size="13.5">0 t</text><text id="tick-label__20__002c000-t" x="72.70" y="433.1" dy=".32em" text-anchor="end" fill="#5b5b5b" font-size="13.5">20,000 t</text><text id="tick-label__40__002c000-t" x="72.70" y="353.2" dy=".32em" text-anchor="end" fill="#5b5b5b" font-size="13.5">40,000 t</text><text id="tick-label__60__002c000-t" x="72.70" y="273.2" dy=".32em" text-anchor="end" fill="#5b5b5b" font-size="13.5">60,000 t</text><text id="tick-label__80__002c000-t" x="72.70" y="193.2" dy=".32em" text-anchor="end" fill="#5b5b5b" font-size="13.5">80,000 t</text><text id="tick-label__100__002c000-t" x="72.70" y="113.2" dy=".32em" text-anchor="end" fill="#5b5b5b" font-size="13.5">100,000 t</text></g></g><g id="horizontal-grid-lines" class="AxisGridLines horizontalLines"><line id="grid-line__0" x1="77.70" y1="513.1" x2="615.40" y2="513.1" stroke="#999" stroke-width="1"></line><line id="grid-line__20000" x1="77.70" y1="433.1" x2="615.40" y2="433.1" stroke="#ddd" stroke-width="1" stroke-dasharray="3,2"></line><line id="grid-line__40000" x1="77.70" y1="353.2" x2="615.40" y2="353.2" stroke="#ddd" stroke-width="1" stroke-dasharray="3,2"></line><line id="grid-line__60000" x1="77.70" y1="273.2" x2="615.40" y2="273.2" stroke="#ddd" stroke-width="1" stroke-dasharray="3,2"></line><line id="grid-line__80000" x1="77.70" y1="193.2" x2="615.40" y2="193.2" stroke="#ddd" stroke-width="1" stroke-dasharray="3,2"></line><line id="grid-line__100000" x1="77.70" y1="113.2" x2="615.40" y2="113.2" stroke="#ddd" stroke-width="1" stroke-dasharray="3,2"></line></g></g><g clip-path="url(#boundsClip-76)"><g id="line-labels" class="LineLabels"><g id="mark__World" class="legendMark" style="cursor:default"><g id="connector" class="indicator"><path d="M619.4,181.2 H632.9 V181.2 H646.4" stroke="#999" stroke-width="0.5" fill="none"></path></g><rect id="background" x="615.4" y="174.45" width="70.235" height="13.5" fill="#fff" opacity="0"></rect><text id="label" font-size="13.50" font-weight="400" x="650.4" y="186.2" fill="#c15065"><tspan x="650.4" y="186.195">World</tspan></text></g><g id="mark__Brazil" class="legendMark" style="cursor:default"><g id="connector" class="indicator"><path d="M619.4,213.2 H632.9 V213.2 H646.4" stroke="#999" stroke-width="0.5" fill="none"></path></g><rect id="background" x="615.4" y="206.45" width="68.75" height="13.5" fill="#fff" opacity="0"></rect><text id="label" font-size="13.50" font-weight="400" x="650.4" y="218.2" fill="#578145"><tspan x="650.4" y="218.195">Brazil</tspan></text></g><g id="mark__Canada" class="legendMark" style="cursor:default"><g id="connector" class="indicator"><path d="M619.4,485.1 H623.9 V449.35 H646.4" stroke="#999" stroke-width="0.5" fill="none"></path></g><rect id="background" x="615.4" y="442.6" width="82.52000000000001" height="13.5" fill="#fff" opacity="0"></rect><text id="label" font-size="13.50" font-weight="400" x="650.4" y="454.3" fill="#18470f"><tspan x="650.4" y="454.345">Canada</tspan></text></g><g id="mark__Democratic-Republic-of-Congo" class="legendMark" style="cursor:default"><g id="connector" class="indicator"><path d="M619.4,510.9 H628.4 V464.85 H646.4" stroke="#999" stroke-width="0.5" fill="none"></path></g><rect id="background" x="615.4" y="458.1" width="218.60000000000002" height="13.5" fill="#fff" opacity="0"></rect><text id="label" font-size="13.50" font-weight="400" x="650.4" y="469.8" fill="#8c4569"><tspan x="650.4" y="469.845">Democratic Republic of Congo</tspan></text></g><g id="mark__Russia" class="legendMark" style="cursor:default"><g id="connector" class="indicator"><path d="M619.4,511.3 H632.9 V480.35 H646.4" stroke="#999" stroke-width="0.5" fill="none"></path></g><rect id="background" x="615.4" y="473.6" width="76.31" height="13.5" fill="#fff" opacity="0"></rect><text id="label" font-size="13.50" font-weight="400" x="650.4" y="485.3" fill="#8c4569"><tspan x="650.4" y="485.345">Russia</tspan></text></g><g id="mark__Rwanda" class="legendMark" style="cursor:default"><g id="connector" class="indicator"><path d="M619.4,512.3 H637.4 V495.85 H646.4" stroke="#999" stroke-width="0.5" fill="none"></path></g><rect id="background" x="615.4" y="489.1" width="84.68" height="13.5" fill="#fff" opacity="0"></rect><text id="label" font-size="13.50" font-weight="400" x="650.4" y="500.8" fill="#8c4569"><tspan x="650.4" y="500.845">Rwanda</tspan></text></g><g id="mark__Other" class="legendMark" style="cursor:default"><g id="connector" class="indicator"><path d="M619.4,512.5 H641.9 V511.35 H646.4" stroke="#999" stroke-width="0.5" fill="none"></path></g><rect id="background" x="615.4" y="504.6" width="68.885" height="13.5" fill="#fff" opacity="0"></rect><text id="label" font-size="13.50" font-weight="400" x="650.4" y="516.3" fill="#b16214"><tspan x="650.4" y="516.345">Other</tspan></text></g><g id="mark__United-States" class="legendMark" style="cursor:default"><g id="connector" class="indicator"><path d="M619.4,513.1 H641.9 V526.85 H646.4" stroke="#999" stroke-width="0.5" fill="none"></path></g><rect id="background" x="615.4" y="520.1" width="116.405" height="13.5" fill="#fff" opacity="0"></rect><text id="label" font-size="13.50" font-weight="400" x="650.4" y="531.8" fill="#6d3e91"><tspan x="650.4" y="531.845">United States</tspan></text></g></g><g id="lines" class="Lines"><rect x="78" y="89" width="538" height="424" fill="rgba(255,255,255,0)" opacity="0"></rect><g id="line__Rwanda"><path stroke-linecap="round" stroke-linejoin="round" stroke="#ddd" d="M597.2 512.5L606.3 512.3L615.4 512.3" fill="none" stroke-width="1"></path></g><g id="line__Russia"><path stroke-linecap="round" stroke-linejoin="round" stroke="#ddd" d="M597.2 511.3L606.3 511.6L615.4 511.3" fill="none" stroke-width="1"></path></g><g id="line__Democratic-Republic-of-Congo"><path stroke-linecap="round" stroke-linejoin="round" stroke="#ddd" d="M597.2 510.8L606.3 510.3L615.4 510.9" fill="none" stroke-width="1"></path></g><g id="line__United-States"><path stroke-linecap="round" stroke-linejoin="round" stroke="#ddd" d="M588.1 513.1L597.2 513.1L606.3 513.1L615.4 513.1" fill="none" stroke-width="1"></path></g><g id="line__Other"><path stroke-linecap="round" stroke-linejoin="round" stroke="#ddd" d="M588.1 507.7L597.2 512.4L606.3 512.6L615.4 512.5" fill="none" stroke-width="1"></path></g><g id="line__Canada"><path stroke-linecap="round" stroke-linejoin="round" stroke="#ddd" d="M588.1 487.1L597.2 483.1L606.3 486.3L615.4 485.1" fill="none" stroke-width="1"></path></g><g id="line__Brazil"><path stroke-linecap="round" stroke-linejoin="round" stroke="#ddd" d="M588.1 274L597.2 198.4L606.3 210.8L615.4 213.2" fill="none" stroke-width="1"></path></g><g id="line__World"><path stroke-linecap="round" stroke-linejoin="round" stroke="#ddd" d="M77.7 503.2L86.8 500.6L95.9 492.9L105 492.5L114.2 493.3L123.3 486.7L132.4 479.3L141.5 498.1L150.6 489.3L159.7 454.3L168.8 475.8L177.9 481.7L187.1 475.2L196.2 477.9L205.3 474.4L214.4 455.5L223.5 452.7L232.6 453.9L241.7 470.7L250.9 478.8L260 457.5L269.1 453.9L278.2 454.7L287.3 475.7L296.4 445.5L305.5 456.7L314.7 451.9L323.8 450.3L332.9 451.9L342 463.5L351.1 450.3L360.2 450.7L369.3 448.3L378.4 431.1L387.6 408.3L396.7 414.7L405.8 413.9L414.9 388.7L424 379.9L433.1 351.6L442.2 402.7L451.4 340.8L460.5 302L469.6 264.4L478.7 89.3L487.8 244.8L496.9 316.8L506 312.4L515.2 262.4L524.3 274.4L533.4 236.4L542.5 250.4L551.6 279.6L560.7 246L569.8 198.4L578.9 125.6L588.1 242.4L597.2 162.8L606.3 178.4L615.4 181.2" fill="none" stroke-width="1"></path></g><g id="line__Rwanda"><path id="outline" fill="none" stroke-linecap="butt" stroke-linejoin="round" stroke="#fff" stroke-width="2.5" d="M597.2 512.5L606.3 512.3L615.4 512.3"></path><g id="polyline"><polyline id="polyline" points="597.20,512.50 606.30,512.30 615.40,512.30" stroke-linejoin="round" stroke-width="1.5" stroke="#8C4569" fill="none" stroke-linecap="butt"></polyline></g><g id="markers"><circle cx="597.2" cy="512.5" r="1.8" fill="#8C4569"></circle><circle cx="606.3" cy="512.3" r="1.8" fill="#8C4569"></circle><circle cx="615.4" cy="512.3" r="1.8" fill="#8C4569"></circle></g></g><g id="line__Russia"><path id="outline" fill="none" stroke-linecap="butt" stroke-linejoin="round" stroke="#fff" stroke-width="2.5" d="M597.2 511.3L606.3 511.6L615.4 511.3"></path><g id="polyline"><polyline id="polyline" points="597.20,511.30 606.30,511.60 615.40,511.30" stroke-linejoin="round" stroke-width="1.5" stroke="#8C4569" fill="none" stroke-linecap="butt"></polyline></g><g id="markers"><circle cx="597.2" cy="511.3" r="1.8" fill="#8C4569"></circle><circle cx="606.3" cy="511.6" r="1.8" fill="#8C4569"></circle><circle cx="615.4" cy="511.3" r="1.8" fill="#8C4569"></circle></g></g><g id="line__Democratic-Republic-of-Congo"><path id="outline" fill="none" stroke-linecap="butt" stroke-linejoin="round" stroke="#fff" stroke-width="2.5" d="M597.2 510.8L606.3 510.3L615.4 510.9"></path><g id="polyline"><polyline id="polyline" points="597.20,510.80 606.30,510.30 615.40,510.90" stroke-linejoin="round" stroke-width="1.5" stroke="#8C4569" fill="none" stroke-linecap="butt"></polyline></g><g id="markers"><circle cx="597.2" cy="510.8" r="1.8" fill="#8C4569"></circle><circle cx="606.3" cy="510.3" r="1.8" fill="#8C4569"></circle><circle cx="615.4" cy="510.9" r="1.8" fill="#8C4569"></circle></g></g><g id="line__United-States"><path id="outline" fill="none" stroke-linecap="butt" stroke-linejoin="round" stroke="#fff" stroke-width="2.5" d="M588.1 513.1L597.2 513.1L606.3 513.1L615.4 513.1"></path><g id="polyline"><polyline id="polyline" points="588.10,513.10 597.20,513.10 606.30,513.10 615.40,513.10" stroke-linejoin="round" stroke-width="1.5" stroke="#6D3E91" fill="none" stroke-linecap="butt"></polyline></g><g id="markers"><circle cx="588.1" cy="513.1" r="1.8" fill="#6D3E91"></circle><circle cx="597.2" cy="513.1" r="1.8" fill="#6D3E91"></circle><circle cx="606.3" cy="513.1" r="1.8" fill="#6D3E91"></circle><circle cx="615.4" cy="513.1" r="1.8" fill="#6D3E91"></circle></g></g><g id="line__Other"><path id="outline" fill="none" stroke-linecap="butt" stroke-linejoin="round" stroke="#fff" stroke-width="2.5" d="M588.1 507.7L597.2 512.4L606.3 512.6L615.4 512.5"></path><g id="polyline"><polyline id="polyline" points="588.10,507.70 597.20,512.40 606.30,512.60 615.40,512.50" stroke-linejoin="round" stroke-width="1.5" stroke="#B16214" fill="none" stroke-linecap="butt"></polyline></g><g id="markers"><circle cx="588.1" cy="507.7" r="1.8" fill="#B16214"></circle><circle cx="597.2" cy="512.4" r="1.8" fill="#B16214"></circle><circle cx="606.3" cy="512.6" r="1.8" fill="#B16214"></circle><circle cx="615.4" cy="512.5" r="1.8" fill="#B16214"></circle></g></g><g id="line__Canada"><path id="outline" fill="none" stroke-linecap="butt" stroke-linejoin="round" stroke="#fff" stroke-width="2.5" d="M588.1 487.1L597.2 483.1L606.3 486.3L615.4 485.1"></path><g id="polyline"><polyline id="polyline" points="588.10,487.10 597.20,483.10 606.30,486.30 615.40,485.10" stroke-linejoin="round" stroke-width="1.5" stroke="#18470F" fill="none" stroke-linecap="butt"></polyline></g><g id="markers"><circle cx="588.1" cy="487.1" r="1.8" fill="#18470F"></circle><circle cx="597.2" cy="483.1" r="1.8" fill="#18470F"></circle><circle cx="606.3" cy="486.3" r="1.8" fill="#18470F"></circle><circle cx="615.4" cy="485.1" r="1.8" fill="#18470F"></circle></g></g><g id="line__Brazil"><path id="outline" fill="none" stroke-linecap="butt" stroke-linejoin="round" stroke="#fff" stroke-width="2.5" d="M588.1 274L597.2 198.4L606.3 210.8L615.4 213.2"></path><g id="polyline"><polyline id="polyline" points="588.10,274.00 597.20,198.40 606.30,210.80 615.40,213.20" stroke-linejoin="round" stroke-width="1.5" stroke="#578145" fill="none" stroke-linecap="butt"></polyline></g><g id="markers"><circle cx="588.1" cy="274" r="1.8" fill="#578145"></circle><circle cx="597.2" cy="198.4" r="1.8" fill="#578145"></circle><circle cx="606.3" cy="210.8" r="1.8" fill="#578145"></circle><circle cx="615.4" cy="213.2" r="1.8" fill="#578145"></circle></g></g><g id="line__World"><path id="outline" fill="none" stroke-linecap="butt" stroke-linejoin="round" stroke="#fff" stroke-width="2.5" d="M77.7 503.2L86.8 500.6L95.9 492.9L105 492.5L114.2 493.3L123.3 486.7L132.4 479.3L141.5 498.1L150.6 489.3L159.7 454.3L168.8 475.8L177.9 481.7L187.1 475.2L196.2 477.9L205.3 474.4L214.4 455.5L223.5 452.7L232.6 453.9L241.7 470.7L250.9 478.8L260 457.5L269.1 453.9L278.2 454.7L287.3 475.7L296.4 445.5L305.5 456.7L314.7 451.9L323.8 450.3L332.9 451.9L342 463.5L351.1 450.3L360.2 450.7L369.3 448.3L378.4 431.1L387.6 408.3L396.7 414.7L405.8 413.9L414.9 388.7L424 379.9L433.1 351.6L442.2 402.7L451.4 340.8L460.5 302L469.6 264.4L478.7 89.3L487.8 244.8L496.9 316.8L506 312.4L515.2 262.4L524.3 274.4L533.4 236.4L542.5 250.4L551.6 279.6L560.7 246L569.8 198.4L578.9 125.6L588.1 242.4L597.2 162.8L606.3 178.4L615.4 181.2"></path><g id="polyline"><polyline id="polyline" points="77.70,503.20 86.80,500.60 95.90,492.90 105.00,492.50 114.20,493.30 123.30,486.70 132.40,479.30 141.50,498.10 150.60,489.30 159.70,454.30 168.80,475.80 177.90,481.70 187.10,475.20 196.20,477.90 205.30,474.40 214.40,455.50 223.50,452.70 232.60,453.90 241.70,470.70 250.90,478.80 260.00,457.50 269.10,453.90 278.20,454.70 287.30,475.70 296.40,445.50 305.50,456.70 314.70,451.90 323.80,450.30 332.90,451.90 342.00,463.50 351.10,450.30 360.20,450.70 369.30,448.30 378.40,431.10 387.60,408.30 396.70,414.70 405.80,413.90 414.90,388.70 424.00,379.90 433.10,351.60 442.20,402.70 451.40,340.80 460.50,302.00 469.60,264.40 478.70,89.30 487.80,244.80 496.90,316.80 506.00,312.40 515.20,262.40 524.30,274.40 533.40,236.40 542.50,250.40 551.60,279.60 560.70,246.00 569.80,198.40 578.90,125.60 588.10,242.40 597.20,162.80 606.30,178.40 615.40,181.20" stroke-linejoin="round" stroke-width="1.5" stroke="#C15065" fill="none" stroke-linecap="butt"></polyline></g><g id="markers"><circle cx="77.7" cy="503.2" r="1.8" fill="#C15065"></circle><circle cx="86.8" cy="500.6" r="1.8" fill="#C15065"></circle><circle cx="95.9" cy="492.9" r="1.8" fill="#C15065"></circle><circle cx="105" cy="492.5" r="1.8" fill="#C15065"></circle><circle cx="114.2" cy="493.3" r="1.8" fill="#C15065"></circle><circle cx="123.3" cy="486.7" r="1.8" fill="#C15065"></circle><circle cx="132.4" cy="479.3" r="1.8" fill="#C15065"></circle><circle cx="141.5" cy="498.1" r="1.8" fill="#C15065"></circle><circle cx="150.6" cy="489.3" r="1.8" fill="#C15065"></circle><circle cx="159.7" cy="454.3" r="1.8" fill="#C15065"></circle><circle cx="168.8" cy="475.8" r="1.8" fill="#C15065"></circle><circle cx="177.9" cy="481.7" r="1.8" fill="#C15065"></circle><circle cx="187.1" cy="475.2" r="1.8" fill="#C15065"></circle><circle cx="196.2" cy="477.9" r="1.8" fill="#C15065"></circle><circle cx="205.3" cy="474.4" r="1.8" fill="#C15065"></circle><circle cx="214.4" cy="455.5" r="1.8" fill="#C15065"></circle><circle cx="223.5" cy="452.7" r="1.8" fill="#C15065"></circle><circle cx="232.6" cy="453.9" r="1.8" fill="#C15065"></circle><circle cx="241.7" cy="470.7" r="1.8" fill="#C15065"></circle><circle cx="250.9" cy="478.8" r="1.8" fill="#C15065"></circle><circle cx="260" cy="457.5" r="1.8" fill="#C15065"></circle><circle cx="269.1" cy="453.9" r="1.8" fill="#C15065"></circle><circle cx="278.2" cy="454.7" r="1.8" fill="#C15065"></circle><circle cx="287.3" cy="475.7" r="1.8" fill="#C15065"></circle><circle cx="296.4" cy="445.5" r="1.8" fill="#C15065"></circle><circle cx="305.5" cy="456.7" r="1.8" fill="#C15065"></circle><circle cx="314.7" cy="451.9" r="1.8" fill="#C15065"></circle><circle cx="323.8" cy="450.3" r="1.8" fill="#C15065"></circle><circle cx="332.9" cy="451.9" r="1.8" fill="#C15065"></circle><circle cx="342" cy="463.5" r="1.8" fill="#C15065"></circle><circle cx="351.1" cy="450.3" r="1.8" fill="#C15065"></circle><circle cx="360.2" cy="450.7" r="1.8" fill="#C15065"></circle><circle cx="369.3" cy="448.3" r="1.8" fill="#C15065"></circle><circle cx="378.4" cy="431.1" r="1.8" fill="#C15065"></circle><circle cx="387.6" cy="408.3" r="1.8" fill="#C15065"></circle><circle cx="396.7" cy="414.7" r="1.8" fill="#C15065"></circle><circle cx="405.8" cy="413.9" r="1.8" fill="#C15065"></circle><circle cx="414.9" cy="388.7" r="1.8" fill="#C15065"></circle><circle cx="424" cy="379.9" r="1.8" fill="#C15065"></circle><circle cx="433.1" cy="351.6" r="1.8" fill="#C15065"></circle><circle cx="442.2" cy="402.7" r="1.8" fill="#C15065"></circle><circle cx="451.4" cy="340.8" r="1.8" fill="#C15065"></circle><circle cx="460.5" cy="302" r="1.8" fill="#C15065"></circle><circle cx="469.6" cy="264.4" r="1.8" fill="#C15065"></circle><circle cx="478.7" cy="89.3" r="1.8" fill="#C15065"></circle><circle cx="487.8" cy="244.8" r="1.8" fill="#C15065"></circle><circle cx="496.9" cy="316.8" r="1.8" fill="#C15065"></circle><circle cx="506" cy="312.4" r="1.8" fill="#C15065"></circle><circle cx="515.2" cy="262.4" r="1.8" fill="#C15065"></circle><circle cx="524.3" cy="274.4" r="1.8" fill="#C15065"></circle><circle cx="533.4" cy="236.4" r="1.8" fill="#C15065"></circle><circle cx="542.5" cy="250.4" r="1.8" fill="#C15065"></circle><circle cx="551.6" cy="279.6" r="1.8" fill="#C15065"></circle><circle cx="560.7" cy="246" r="1.8" fill="#C15065"></circle><circle cx="569.8" cy="198.4" r="1.8" fill="#C15065"></circle><circle cx="578.9" cy="125.6" r="1.8" fill="#C15065"></circle><circle cx="588.1" cy="242.4" r="1.8" fill="#C15065"></circle><circle cx="597.2" cy="162.8" r="1.8" fill="#C15065"></circle><circle cx="606.3" cy="178.4" r="1.8" fill="#C15065"></circle><circle cx="615.4" cy="181.2" r="1.8" fill="#C15065"></circle></g></g></g></g></g></g><g id="footer" class="SourcesFooter" style="fill:#5b5b5b"><g id="sources" class="markdown-text-wrap"><text x="16.0" y="562.7" style="font-size:13.5px;line-height:1.2"><tspan x="16" y="562.7"><tspan style="font-weight:700">Data source:</tspan> USGS - Mineral Commodity Summaries (2024); USGS - Historical Statistics for Mineral and Material Commodities (2023)</tspan></text></g><text id="origin-url" font-size="13.50" x="16.0" y="580.9"><tspan x="16" y="580.8950000000001"><a target="_blank" style="fill: #5b5b5b;" href="https://creativecommons.org/licenses/by/4.0/">CC BY</a></tspan></text></g><line id="separator-line" x1="16" y1="600" x2="834" y2="600" stroke="#e7e7e7"></line><g id="details" transform="translate(15, 616)"><g class="markdown-text-wrap"><text x="0.0" y="12.0" style="font-size:12.375px;fill:#5b5b5b;line-height:1.2"><tspan x="0" y="12.0"><tspan style="font-weight:700">1.</tspan> <tspan style="font-weight:700">Niobium</tspan>: Niobium is used in alloys, such as stainless steel. That means it’s used in many products that rely on steel, as well as being used in</tspan><tspan x="0" y="26.9">superconducting magnets, medical technologies, and aerospace engines.</tspan></text></g><g class="markdown-text-wrap"><text x="0.0" y="49.7" style="font-size:12.375px;fill:#5b5b5b;line-height:1.2"><tspan x="0" y="49.7"><tspan style="font-weight:700">2.</tspan> <tspan style="font-weight:700">Refined production</tspan>: Refined production is the process of taking raw materials, such as metals extracted from ores, and purifying them to achieve</tspan><tspan x="0" y="64.6">a higher quality or more usable form. After metals are initially extracted from ore through processes like smelting, they often contain impurities or are</tspan><tspan x="0" y="79.4">not in the ideal form for manufacturing. Refining involves further processing these metals to remove impurities and adjust their composition to meet</tspan><tspan x="0" y="94.3">specific standards. Refined production is essential for transforming raw materials into high-quality metals that are crucial for industries and</tspan><tspan x="0" y="109.1">consumers, from manufacturing electronics to constructing buildings.</tspan></text></g></g></svg>