<svg xmlns="http://www.w3.org/2000/svg" version="1.1" style="font-family:Lato, &#x27;Helvetica Neue&#x27;, Helvetica, Arial, &#x27;Liberation Sans&#x27;, sans-serif;font-size:18px;background-color:white;text-rendering:geometricPrecision;-webkit-font-smoothing:antialiased" width="850" height="676.55" viewBox="0 0 850 676.55"><defs><style>@import url(https://ourworldindata.org/fonts.css)</style></defs><defs><pattern id="noDataPattern" patternUnits="userSpaceOnUse" width="4" height="4" patternTransform="rotate(-45 2 2)"><path d="M -1,2 l 6,0" stroke="#ccc" stroke-width="0.7"></path></pattern></defs><rect class="background-fill" fill="white" width="850" height="676.55"></rect><g id="header" class="HeaderView"><g id="logo" transform="translate(769, 16) scale(1)"><svg className="owidLogo" xmlns="http://www.w3.org/2000/svg" width="65" height="36" viewBox="0 0 65 36"  fill="none"><path fill="#002147" d="M0 0h64.8v36H0z"/><path fill="#CE261E" d="M0 33.3h64.8V36H0z"/><path fill="#fff" d="M13.796 10.575c0 .636-.106 1.226-.318 1.77a4.193 4.193 0 0 1-.894 1.404 4.084 4.084 0 0 1-1.386.93c-.54.22-1.138.33-1.794.33-.656 0-1.256-.11-1.8-.33a4.149 4.149 0 0 1-1.392-.93 4.193 4.193 0 0 1-.894-1.404A4.833 4.833 0 0 1 5 10.575c0-.636.106-1.224.318-1.764a4.18 4.18 0 0 1 .894-1.41 4.076 4.076 0 0 1 1.392-.924 4.684 4.684 0 0 1 1.8-.336c.656 0 1.254.112 1.794.336.54.224 1.002.534 1.386.93.384.392.682.86.894 1.404.212.54.318 1.128.318 1.764Zm-1.656 0c0-.476-.064-.902-.192-1.278a2.671 2.671 0 0 0-.54-.966 2.332 2.332 0 0 0-.864-.606 2.94 2.94 0 0 0-1.14-.21c-.424 0-.806.07-1.146.21-.34.14-.63.342-.87.606a2.742 2.742 0 0 0-.546.966 3.955 3.955 0 0 0-.192 1.278c0 .476.064.904.192 1.284.128.376.31.696.546.96.24.26.53.46.87.6.34.14.722.21 1.146.21.424 0 .804-.07 1.14-.21.34-.14.628-.34.864-.6.236-.264.416-.584.54-.96a4.01 4.01 0 0 0 .192-1.284ZM16.104 8.757v3.912c0 .376.086.668.258.876.176.204.438.306.786.306.256 0 .496-.056.72-.168a2.58 2.58 0 0 0 .636-.474V8.757h1.482v6.156h-.906c-.192 0-.318-.09-.378-.27l-.102-.492a4.65 4.65 0 0 1-.396.354 2.577 2.577 0 0 1-.438.27 2.35 2.35 0 0 1-.498.168 2.345 2.345 0 0 1-.57.066c-.336 0-.634-.056-.894-.168a1.821 1.821 0 0 1-.648-.486 2.157 2.157 0 0 1-.402-.738 3.233 3.233 0 0 1-.132-.948V8.757h1.482ZM21.328 14.913V8.757h.87c.152 0 .258.028.318.084.06.056.1.152.12.288l.09.744c.22-.38.478-.68.774-.9.296-.22.628-.33.996-.33.304 0 .556.07.756.21l-.192 1.11c-.012.072-.038.124-.078.156a.278.278 0 0 1-.162.042 1.01 1.01 0 0 1-.246-.042 1.646 1.646 0 0 0-.414-.042c-.308 0-.572.086-.792.258-.22.168-.406.416-.558.744v3.834h-1.482ZM27.347 6.237h1.356a.57.57 0 0 1 .348.102c.096.064.16.152.192.264l1.476 5.19c.036.128.068.268.096.42.032.148.062.306.09.474a5.968 5.968 0 0 1 .228-.894l1.704-5.19a.575.575 0 0 1 .186-.252.543.543 0 0 1 .348-.114h.474a.57.57 0 0 1 .348.102.497.497 0 0 1 .192.264l1.692 5.19c.088.256.164.54.228.852.028-.156.056-.306.084-.45.032-.144.064-.278.096-.402l1.476-5.19c.028-.1.09-.186.186-.258a.563.563 0 0 1 .348-.108h1.266l-2.694 8.676h-1.458l-1.896-5.928-.078-.246a9.504 9.504 0 0 1-.072-.282c-.024.1-.05.194-.078.282-.024.088-.048.17-.072.246l-1.914 5.928H30.04l-2.694-8.676ZM42.771 8.661c.46 0 .876.074 1.248.222.376.148.696.358.96.63s.468.604.612.996c.144.392.216.83.216 1.314 0 .488-.072.928-.216 1.32a2.85 2.85 0 0 1-.612 1.002 2.653 2.653 0 0 1-.96.636 3.35 3.35 0 0 1-1.248.222c-.46 0-.878-.074-1.254-.222a2.712 2.712 0 0 1-.966-.636 2.922 2.922 0 0 1-.618-1.002 3.807 3.807 0 0 1-.216-1.32c0-.484.072-.922.216-1.314.148-.392.354-.724.618-.996.268-.272.59-.482.966-.63a3.397 3.397 0 0 1 1.254-.222Zm0 5.202c.512 0 .89-.172 1.134-.516.248-.344.372-.848.372-1.512s-.124-1.17-.372-1.518c-.244-.348-.622-.522-1.134-.522-.52 0-.904.176-1.152.528-.248.348-.372.852-.372 1.512s.124 1.164.372 1.512c.248.344.632.516 1.152.516ZM46.723 14.913V8.757h.87c.152 0 .258.028.318.084.06.056.1.152.12.288l.09.744c.22-.38.478-.68.774-.9.296-.22.628-.33.996-.33.304 0 .556.07.756.21l-.192 1.11c-.012.072-.038.124-.078.156a.278.278 0 0 1-.162.042 1.01 1.01 0 0 1-.246-.042 1.646 1.646 0 0 0-.414-.042c-.308 0-.572.086-.792.258-.22.168-.406.416-.558.744v3.834h-1.482ZM52.96 5.997v8.916h-1.482V5.997h1.482ZM58.732 14.913c-.192 0-.318-.09-.378-.27l-.12-.594a3.68 3.68 0 0 1-.402.39c-.14.116-.292.216-.456.3-.16.084-.334.148-.522.192a2.372 2.372 0 0 1-.6.072c-.336 0-.644-.07-.924-.21a2.098 2.098 0 0 1-.726-.606 3.033 3.033 0 0 1-.468-.99 5.072 5.072 0 0 1-.162-1.344c0-.456.062-.88.186-1.272s.302-.732.534-1.02c.232-.288.51-.512.834-.672a2.384 2.384 0 0 1 1.092-.246 2.103 2.103 0 0 1 1.536.606V5.997h1.482v8.916h-.906Zm-1.974-1.086c.308 0 .57-.064.786-.192.216-.128.42-.31.612-.546v-2.76a1.452 1.452 0 0 0-.552-.432 1.597 1.597 0 0 0-.636-.126c-.224 0-.428.042-.612.126a1.21 1.21 0 0 0-.462.384c-.124.168-.22.384-.288.648-.068.26-.102.568-.102.924 0 .36.028.666.084.918.06.248.144.452.252.612.108.156.24.27.396.342.156.068.33.102.522.102ZM16.331 20.757v6.156H14.85v-6.156h1.481Zm.223-1.794a.844.844 0 0 1-.078.36.963.963 0 0 1-.21.294.995.995 0 0 1-.3.204.963.963 0 0 1-.372.072.948.948 0 0 1-.367-.072 1.018 1.018 0 0 1-.498-.498.963.963 0 0 1 0-.732.995.995 0 0 1 .205-.3.929.929 0 0 1 .293-.198.899.899 0 0 1 .738 0 .912.912 0 0 1 .3.198.943.943 0 0 1 .288.672ZM17.771 26.913v-6.156h.906c.192 0 .318.09.378.27l.102.486a2.934 2.934 0 0 1 .828-.618c.156-.076.322-.134.498-.174.176-.04.368-.06.576-.06.336 0 .634.058.894.174.26.112.476.272.648.48.176.204.308.45.396.738.092.284.138.598.138.942v3.918h-1.482v-3.918c0-.376-.088-.666-.264-.87-.172-.208-.432-.312-.78-.312-.256 0-.496.058-.72.174a2.58 2.58 0 0 0-.636.474v4.452h-1.482ZM34.22 22.575c0 .636-.106 1.22-.318 1.752-.212.532-.51.99-.894 1.374a4 4 0 0 1-1.386.894 4.87 4.87 0 0 1-1.794.318h-3.312v-8.676h3.312a4.79 4.79 0 0 1 1.794.324 4 4 0 0 1 1.386.894c.384.38.682.836.894 1.368.212.532.318 1.116.318 1.752Zm-1.65 0c0-.476-.064-.902-.192-1.278a2.68 2.68 0 0 0-.546-.96 2.332 2.332 0 0 0-.864-.606 2.94 2.94 0 0 0-1.14-.21h-1.686v6.108h1.686c.424 0 .804-.07 1.14-.21.34-.14.628-.34.864-.6a2.75 2.75 0 0 0 .546-.96 4.01 4.01 0 0 0 .192-1.284ZM39.98 26.913h-.665c-.14 0-.25-.02-.33-.06-.08-.044-.14-.13-.18-.258l-.132-.438c-.156.14-.31.264-.462.372a2.804 2.804 0 0 1-.462.264c-.16.072-.33.126-.51.162-.18.036-.38.054-.6.054-.26 0-.5-.034-.72-.102a1.618 1.618 0 0 1-.57-.318 1.448 1.448 0 0 1-.366-.522 1.852 1.852 0 0 1-.132-.726c0-.232.06-.46.18-.684.124-.228.328-.432.612-.612.284-.184.662-.336 1.134-.456.472-.12 1.058-.188 1.758-.204v-.36c0-.412-.088-.716-.264-.912-.172-.2-.424-.3-.756-.3a1.837 1.837 0 0 0-1.02.276c-.116.068-.224.13-.324.186a.664.664 0 0 1-.33.084.429.429 0 0 1-.258-.078.614.614 0 0 1-.174-.192l-.27-.474c.708-.648 1.562-.972 2.562-.972.36 0 .68.06.96.18.284.116.524.28.72.492.196.208.344.458.444.75.104.292.156.612.156.96v3.888Zm-2.88-.924c.153 0 .293-.014.42-.042.129-.028.249-.07.36-.126.117-.056.227-.124.33-.204.109-.084.217-.182.325-.294v-1.038c-.432.02-.794.058-1.086.114-.288.052-.52.12-.696.204a.923.923 0 0 0-.378.294.664.664 0 0 0-.108.366c0 .26.076.446.228.558.156.112.358.168.606.168ZM43.22 27.01c-.532 0-.942-.15-1.23-.45-.288-.305-.432-.723-.432-1.255v-3.438h-.624a.31.31 0 0 1-.21-.078c-.056-.052-.084-.13-.084-.234v-.588l.99-.162.312-1.68a.302.302 0 0 1 .108-.186.365.365 0 0 1 .222-.066h.768v1.938h1.62v1.056h-1.62v3.336c0 .192.048.342.144.45a.488.488 0 0 0 .384.162c.092 0 .168-.01.228-.03.064-.024.118-.048.162-.072.048-.024.09-.046.126-.066a.194.194 0 0 1 .108-.036.16.16 0 0 1 .108.036c.028.02.058.052.09.096l.444.72c-.216.18-.464.316-.744.408a2.77 2.77 0 0 1-.87.138ZM50.423 26.913h-.666c-.14 0-.25-.02-.33-.06-.08-.044-.14-.13-.18-.258l-.132-.438c-.156.14-.31.264-.462.372a2.804 2.804 0 0 1-.462.264c-.16.072-.33.126-.51.162-.18.036-.38.054-.6.054-.26 0-.5-.034-.72-.102a1.618 1.618 0 0 1-.57-.318 1.448 1.448 0 0 1-.366-.522 1.852 1.852 0 0 1-.132-.726c0-.232.06-.46.18-.684.124-.228.328-.432.612-.612.284-.184.662-.336 1.134-.456.472-.12 1.058-.188 1.758-.204v-.36c0-.412-.088-.716-.264-.912-.172-.2-.424-.3-.756-.3a1.837 1.837 0 0 0-1.02.276c-.116.068-.224.13-.324.186a.664.664 0 0 1-.33.084.429.429 0 0 1-.258-.078.614.614 0 0 1-.174-.192l-.27-.474c.708-.648 1.562-.972 2.562-.972.36 0 .68.06.96.18.284.116.524.28.72.492.196.208.344.458.444.75.104.292.156.612.156.96v3.888Zm-2.88-.924c.152 0 .292-.014.42-.042.128-.028.248-.07.36-.126.116-.056.226-.124.33-.204.108-.084.216-.182.324-.294v-1.038c-.432.02-.794.058-1.086.114-.288.052-.52.12-.696.204a.923.923 0 0 0-.378.294.664.664 0 0 0-.108.366c0 .26.076.446.228.558.156.112.358.168.606.168Z"/></svg></g><a id="title" href="https://ourworldindata.org/explorers/minerals?Mineral=Graphite&amp;Metric=Unit+value&amp;Type=Processing&amp;Share+of+global=false&amp;country=OWID_WRL~AUS~CHL~CHN~USA~ZWE~CAN~ALB~DZA~ARG~ARM~AUT~AZE~BOL~BWA~BRA~BGR~COL~COG~CUB~CYP~OWID_CZS~COD~DOM~OWID_GDR~ECU~ERI~FIN~FRA~GEO~DEU~GRC~GTM~HTI~HND~HUN~IND~IDN~IRN~IRL~ZMB~OWID_GFR~OWID_YGS~VNM~GBR~UGA~UZB~OWID_USS~TUR~TZA~TJK~TWN~SWE~ESP~KOR~ZAF~SVK~OWID_SRM~SRB~SAU~RUS~ROU~PRT~POL~PHL~PER~PNG~PAN~PAK~OMN~NOR~MKD~PRK~NIC~NZL~NAM~MMR~MOZ~MAR~MNG~MEX~MRT~MYS~LAO~KGZ~KEN~KAZ~JPN~ITA~ISR~BEL~THA~EGY~UKR~Other~MDG~NCL~OWID_KOS~VEN~LKA" style="font-family:&#x27;Playfair Display&#x27;, Georgia, &#x27;Times New Roman&#x27;, &#x27;Liberation Serif&#x27;, serif" target="_blank" rel="noopener"><text font-size="24.75" font-weight="600" x="16.0" y="40.0" fill="#5b5b5b"><tspan x="16" y="40.0075">Graphite unit value, 1900 to 2022</tspan></text></a><g id="subtitle" class="markdown-text-wrap"><text x="16.0" y="63.9" style="font-size:14.625px;line-height:1.2" fill="#5b5b5b"><tspan x="16" y="63.9">Value of 1 tonne of <tspan class="dod-span" data-id="graphite">graphite<tspan style="font-feature-settings:&quot;sups&quot;">¹</tspan></tspan>, in constant 1998 US$ per tonne.</tspan></text></g></g><g id="chart-area" style="pointer-events:none"><g id="line-chart" class="LineChart"><defs><clipPath id="boundsClip-126"><rect x="63.92" y="73.25" width="838" height="470.35"></rect></clipPath></defs><rect x="16" y="83.25" width="818" height="450.35" fill="none"></rect><g id="dual-axis" class="DualAxisView"><g id="horizontal-axis" class="HorizontalAxis"><g id="tick__1900"><line x1="73.9" y1="512.6" x2="73.9" y2="518.1" stroke="#999" stroke-width="1"></line><text x="73.92" y="531.6" fill="#5b5b5b" text-anchor="start" font-size="13.5">1900</text></g><g id="tick__2022"><line x1="763.8" y1="512.6" x2="763.8" y2="518.1" stroke="#999" stroke-width="1"></line><text x="763.765" y="531.6" fill="#5b5b5b" text-anchor="end" font-size="13.5">2022</text></g><g id="tick__1920"><line x1="187" y1="512.6" x2="187" y2="518.1" stroke="#999" stroke-width="1"></line><text x="187" y="531.6" fill="#5b5b5b" text-anchor="middle" font-size="13.5">1920</text></g><g id="tick__1940"><line x1="300.1" y1="512.6" x2="300.1" y2="518.1" stroke="#999" stroke-width="1"></line><text x="300.1" y="531.6" fill="#5b5b5b" text-anchor="middle" font-size="13.5">1940</text></g><g id="tick__1960"><line x1="413.2" y1="512.6" x2="413.2" y2="518.1" stroke="#999" stroke-width="1"></line><text x="413.2" y="531.6" fill="#5b5b5b" text-anchor="middle" font-size="13.5">1960</text></g><g id="tick__1980"><line x1="526.3" y1="512.6" x2="526.3" y2="518.1" stroke="#999" stroke-width="1"></line><text x="526.3" y="531.6" fill="#5b5b5b" text-anchor="middle" font-size="13.5">1980</text></g><g id="tick__2000"><line x1="639.4" y1="512.6" x2="639.4" y2="518.1" stroke="#999" stroke-width="1"></line><text x="639.4" y="531.6" fill="#5b5b5b" text-anchor="middle" font-size="13.5">2000</text></g></g><g id="vertical-axis" class="VerticalAxis"><g id="tick-labels"><text id="tick-label__0-__0024__002ft" x="68.92" y="513.1" dy=".32em" text-anchor="end" fill="#5b5b5b" font-size="13.5">0 $/t</text><text id="tick-label__500-__0024__002ft" x="68.92" y="441.3" dy=".32em" text-anchor="end" fill="#5b5b5b" font-size="13.5">500 $/t</text><text id="tick-label__1__002c000-__0024__002ft" x="68.92" y="369.4" dy=".32em" text-anchor="end" fill="#5b5b5b" font-size="13.5">1,000 $/t</text><text id="tick-label__1__002c500-__0024__002ft" x="68.92" y="297.6" dy=".32em" text-anchor="end" fill="#5b5b5b" font-size="13.5">1,500 $/t</text><text id="tick-label__2__002c000-__0024__002ft" x="68.92" y="225.7" dy=".32em" text-anchor="end" fill="#5b5b5b" font-size="13.5">2,000 $/t</text><text id="tick-label__2__002c500-__0024__002ft" x="68.92" y="153.9" dy=".32em" text-anchor="end" fill="#5b5b5b" font-size="13.5">2,500 $/t</text></g></g><g id="horizontal-grid-lines" class="AxisGridLines horizontalLines"><line id="grid-line__0" x1="73.92" y1="513.1" x2="763.76" y2="513.1" stroke="#999" stroke-width="1"></line><line id="grid-line__500" x1="73.92" y1="441.3" x2="763.76" y2="441.3" stroke="#ddd" stroke-width="1" stroke-dasharray="3,2"></line><line id="grid-line__1000" x1="73.92" y1="369.4" x2="763.76" y2="369.4" stroke="#ddd" stroke-width="1" stroke-dasharray="3,2"></line><line id="grid-line__1500" x1="73.92" y1="297.6" x2="763.76" y2="297.6" stroke="#ddd" stroke-width="1" stroke-dasharray="3,2"></line><line id="grid-line__2000" x1="73.92" y1="225.7" x2="763.76" y2="225.7" stroke="#ddd" stroke-width="1" stroke-dasharray="3,2"></line><line id="grid-line__2500" x1="73.92" y1="153.9" x2="763.76" y2="153.9" stroke="#ddd" stroke-width="1" stroke-dasharray="3,2"></line></g></g><g clip-path="url(#boundsClip-126)"><g id="line-labels" class="LineLabels"><g id="mark__World" class="legendMark" style="cursor:default"><rect id="background" x="763.765" y="339.65" width="70.235" height="13.5" fill="#fff" opacity="0"></rect><text id="label" font-size="13.50" font-weight="400" x="767.8" y="351.4" fill="#c15065"><tspan x="767.765" y="351.395">World</tspan></text></g></g><g id="lines" class="Lines"><rect x="74" y="89" width="690" height="424" fill="rgba(255,255,255,0)" opacity="0"></rect><g id="line__World"><path stroke-linecap="round" stroke-linejoin="round" stroke="#ddd" d="M73.9 240.1L79.6 340.7L85.2 340.7L90.9 326.3L96.5 326.3L102.2 355.1L107.8 340.7L113.5 297.6L119.2 326.3L124.8 268.8L130.5 312L136.1 312L141.8 340.7L147.4 323.4L153.1 349.3L158.7 266L164.4 112.2L170 89.3L175.7 241.5L181.4 346.4L187 408.5L192.7 433.4L198.3 454.8L204 465.3L209.6 476.3L215.3 444.6L220.9 429.9L226.6 451.5L232.2 444.3L237.9 446.3L243.6 455.3L249.2 459.8L254.9 468.3L260.5 455.8L266.2 443.4L271.8 452.9L277.5 466.3L283.1 466.1L288.8 471.7L294.4 476.3L300.1 460.2L305.8 426.9L311.4 422.6L317.1 465L322.7 441.5L328.4 456.6L334 460.1L339.7 473L345.3 471L351 470.1L356.6 461.8L362.3 458.1L368 447.6L373.6 459.9L379.3 459.2L384.9 465.7L390.6 461.5L396.2 466.5L401.9 473.4L407.5 476.6L413.2 481.3L418.8 474.3L424.5 469.4L430.2 480.6L435.8 478.8L441.5 479.5L447.1 477.3L452.8 480.9L458.4 485.8L464.1 483.9L469.7 482.8L475.4 482.8L481 479.1L486.7 481.9L492.4 478.2L498 472.7L503.7 475.5L509.3 474.2L515 466.8L520.6 458.6L526.3 429.4L531.9 430.5L537.6 434.2L543.2 442.2L548.9 450.9L554.5 439.4L560.2 426.4L565.9 429.1L571.5 427.7L577.2 410.9L582.8 387.4L588.5 401.7L594.1 427.5L599.8 420.2L605.4 433.1L611.1 436.9L616.7 433.1L622.4 431.7L628.1 431.9L633.7 425.7L639.4 440.4L645 454L650.7 448.7L656.3 453.8L662 454.9L667.6 448.7L673.3 448.9L678.9 441.3L684.6 423.3L690.3 415.2L695.9 427.5L701.6 395.2L707.2 389.7L712.9 397.4L718.5 410.2L724.2 389.5L729.8 393.8L735.5 405.3L741.1 427.9L746.8 410.5L752.5 401L758.1 397.3L763.8 346.4" fill="none" stroke-width="1"></path></g><g id="line__World"><path id="outline" fill="none" stroke-linecap="butt" stroke-linejoin="round" stroke="#fff" stroke-width="2.5" d="M73.9 240.1L79.6 340.7L85.2 340.7L90.9 326.3L96.5 326.3L102.2 355.1L107.8 340.7L113.5 297.6L119.2 326.3L124.8 268.8L130.5 312L136.1 312L141.8 340.7L147.4 323.4L153.1 349.3L158.7 266L164.4 112.2L170 89.3L175.7 241.5L181.4 346.4L187 408.5L192.7 433.4L198.3 454.8L204 465.3L209.6 476.3L215.3 444.6L220.9 429.9L226.6 451.5L232.2 444.3L237.9 446.3L243.6 455.3L249.2 459.8L254.9 468.3L260.5 455.8L266.2 443.4L271.8 452.9L277.5 466.3L283.1 466.1L288.8 471.7L294.4 476.3L300.1 460.2L305.8 426.9L311.4 422.6L317.1 465L322.7 441.5L328.4 456.6L334 460.1L339.7 473L345.3 471L351 470.1L356.6 461.8L362.3 458.1L368 447.6L373.6 459.9L379.3 459.2L384.9 465.7L390.6 461.5L396.2 466.5L401.9 473.4L407.5 476.6L413.2 481.3L418.8 474.3L424.5 469.4L430.2 480.6L435.8 478.8L441.5 479.5L447.1 477.3L452.8 480.9L458.4 485.8L464.1 483.9L469.7 482.8L475.4 482.8L481 479.1L486.7 481.9L492.4 478.2L498 472.7L503.7 475.5L509.3 474.2L515 466.8L520.6 458.6L526.3 429.4L531.9 430.5L537.6 434.2L543.2 442.2L548.9 450.9L554.5 439.4L560.2 426.4L565.9 429.1L571.5 427.7L577.2 410.9L582.8 387.4L588.5 401.7L594.1 427.5L599.8 420.2L605.4 433.1L611.1 436.9L616.7 433.1L622.4 431.7L628.1 431.9L633.7 425.7L639.4 440.4L645 454L650.7 448.7L656.3 453.8L662 454.9L667.6 448.7L673.3 448.9L678.9 441.3L684.6 423.3L690.3 415.2L695.9 427.5L701.6 395.2L707.2 389.7L712.9 397.4L718.5 410.2L724.2 389.5L729.8 393.8L735.5 405.3L741.1 427.9L746.8 410.5L752.5 401L758.1 397.3L763.8 346.4"></path><g id="polyline"><polyline id="polyline" points="73.90,240.10 79.60,340.70 85.20,340.70 90.90,326.30 96.50,326.30 102.20,355.10 107.80,340.70 113.50,297.60 119.20,326.30 124.80,268.80 130.50,312.00 136.10,312.00 141.80,340.70 147.40,323.40 153.10,349.30 158.70,266.00 164.40,112.20 170.00,89.30 175.70,241.50 181.40,346.40 187.00,408.50 192.70,433.40 198.30,454.80 204.00,465.30 209.60,476.30 215.30,444.60 220.90,429.90 226.60,451.50 232.20,444.30 237.90,446.30 243.60,455.30 249.20,459.80 254.90,468.30 260.50,455.80 266.20,443.40 271.80,452.90 277.50,466.30 283.10,466.10 288.80,471.70 294.40,476.30 300.10,460.20 305.80,426.90 311.40,422.60 317.10,465.00 322.70,441.50 328.40,456.60 334.00,460.10 339.70,473.00 345.30,471.00 351.00,470.10 356.60,461.80 362.30,458.10 368.00,447.60 373.60,459.90 379.30,459.20 384.90,465.70 390.60,461.50 396.20,466.50 401.90,473.40 407.50,476.60 413.20,481.30 418.80,474.30 424.50,469.40 430.20,480.60 435.80,478.80 441.50,479.50 447.10,477.30 452.80,480.90 458.40,485.80 464.10,483.90 469.70,482.80 475.40,482.80 481.00,479.10 486.70,481.90 492.40,478.20 498.00,472.70 503.70,475.50 509.30,474.20 515.00,466.80 520.60,458.60 526.30,429.40 531.90,430.50 537.60,434.20 543.20,442.20 548.90,450.90 554.50,439.40 560.20,426.40 565.90,429.10 571.50,427.70 577.20,410.90 582.80,387.40 588.50,401.70 594.10,427.50 599.80,420.20 605.40,433.10 611.10,436.90 616.70,433.10 622.40,431.70 628.10,431.90 633.70,425.70 639.40,440.40 645.00,454.00 650.70,448.70 656.30,453.80 662.00,454.90 667.60,448.70 673.30,448.90 678.90,441.30 684.60,423.30 690.30,415.20 695.90,427.50 701.60,395.20 707.20,389.70 712.90,397.40 718.50,410.20 724.20,389.50 729.80,393.80 735.50,405.30 741.10,427.90 746.80,410.50 752.50,401.00 758.10,397.30 763.80,346.40" stroke-linejoin="round" stroke-width="1.5" stroke="#C15065" fill="none" stroke-linecap="butt"></polyline></g><g id="markers"><circle cx="73.9" cy="240.1" r="1.8" fill="#C15065"></circle><circle cx="79.6" cy="340.7" r="1.8" fill="#C15065"></circle><circle cx="85.2" cy="340.7" r="1.8" fill="#C15065"></circle><circle cx="90.9" cy="326.3" r="1.8" fill="#C15065"></circle><circle cx="96.5" cy="326.3" r="1.8" fill="#C15065"></circle><circle cx="102.2" cy="355.1" r="1.8" fill="#C15065"></circle><circle cx="107.8" cy="340.7" r="1.8" fill="#C15065"></circle><circle cx="113.5" cy="297.6" r="1.8" fill="#C15065"></circle><circle cx="119.2" cy="326.3" r="1.8" fill="#C15065"></circle><circle cx="124.8" cy="268.8" r="1.8" fill="#C15065"></circle><circle cx="130.5" cy="312" r="1.8" fill="#C15065"></circle><circle cx="136.1" cy="312" r="1.8" fill="#C15065"></circle><circle cx="141.8" cy="340.7" r="1.8" fill="#C15065"></circle><circle cx="147.4" cy="323.4" r="1.8" fill="#C15065"></circle><circle cx="153.1" cy="349.3" r="1.8" fill="#C15065"></circle><circle cx="158.7" cy="266" r="1.8" fill="#C15065"></circle><circle cx="164.4" cy="112.2" r="1.8" fill="#C15065"></circle><circle cx="170" cy="89.3" r="1.8" fill="#C15065"></circle><circle cx="175.7" cy="241.5" r="1.8" fill="#C15065"></circle><circle cx="181.4" cy="346.4" r="1.8" fill="#C15065"></circle><circle cx="187" cy="408.5" r="1.8" fill="#C15065"></circle><circle cx="192.7" cy="433.4" r="1.8" fill="#C15065"></circle><circle cx="198.3" cy="454.8" r="1.8" fill="#C15065"></circle><circle cx="204" cy="465.3" r="1.8" fill="#C15065"></circle><circle cx="209.6" cy="476.3" r="1.8" fill="#C15065"></circle><circle cx="215.3" cy="444.6" r="1.8" fill="#C15065"></circle><circle cx="220.9" cy="429.9" r="1.8" fill="#C15065"></circle><circle cx="226.6" cy="451.5" r="1.8" fill="#C15065"></circle><circle cx="232.2" cy="444.3" r="1.8" fill="#C15065"></circle><circle cx="237.9" cy="446.3" r="1.8" fill="#C15065"></circle><circle cx="243.6" cy="455.3" r="1.8" fill="#C15065"></circle><circle cx="249.2" cy="459.8" r="1.8" fill="#C15065"></circle><circle cx="254.9" cy="468.3" r="1.8" fill="#C15065"></circle><circle cx="260.5" cy="455.8" r="1.8" fill="#C15065"></circle><circle cx="266.2" cy="443.4" r="1.8" fill="#C15065"></circle><circle cx="271.8" cy="452.9" r="1.8" fill="#C15065"></circle><circle cx="277.5" cy="466.3" r="1.8" fill="#C15065"></circle><circle cx="283.1" cy="466.1" r="1.8" fill="#C15065"></circle><circle cx="288.8" cy="471.7" r="1.8" fill="#C15065"></circle><circle cx="294.4" cy="476.3" r="1.8" fill="#C15065"></circle><circle cx="300.1" cy="460.2" r="1.8" fill="#C15065"></circle><circle cx="305.8" cy="426.9" r="1.8" fill="#C15065"></circle><circle cx="311.4" cy="422.6" r="1.8" fill="#C15065"></circle><circle cx="317.1" cy="465" r="1.8" fill="#C15065"></circle><circle cx="322.7" cy="441.5" r="1.8" fill="#C15065"></circle><circle cx="328.4" cy="456.6" r="1.8" fill="#C15065"></circle><circle cx="334" cy="460.1" r="1.8" fill="#C15065"></circle><circle cx="339.7" cy="473" r="1.8" fill="#C15065"></circle><circle cx="345.3" cy="471" r="1.8" fill="#C15065"></circle><circle cx="351" cy="470.1" r="1.8" fill="#C15065"></circle><circle cx="356.6" cy="461.8" r="1.8" fill="#C15065"></circle><circle cx="362.3" cy="458.1" r="1.8" fill="#C15065"></circle><circle cx="368" cy="447.6" r="1.8" fill="#C15065"></circle><circle cx="373.6" cy="459.9" r="1.8" fill="#C15065"></circle><circle cx="379.3" cy="459.2" r="1.8" fill="#C15065"></circle><circle cx="384.9" cy="465.7" r="1.8" fill="#C15065"></circle><circle cx="390.6" cy="461.5" r="1.8" fill="#C15065"></circle><circle cx="396.2" cy="466.5" r="1.8" fill="#C15065"></circle><circle cx="401.9" cy="473.4" r="1.8" fill="#C15065"></circle><circle cx="407.5" cy="476.6" r="1.8" fill="#C15065"></circle><circle cx="413.2" cy="481.3" r="1.8" fill="#C15065"></circle><circle cx="418.8" cy="474.3" r="1.8" fill="#C15065"></circle><circle cx="424.5" cy="469.4" r="1.8" fill="#C15065"></circle><circle cx="430.2" cy="480.6" r="1.8" fill="#C15065"></circle><circle cx="435.8" cy="478.8" r="1.8" fill="#C15065"></circle><circle cx="441.5" cy="479.5" r="1.8" fill="#C15065"></circle><circle cx="447.1" cy="477.3" r="1.8" fill="#C15065"></circle><circle cx="452.8" cy="480.9" r="1.8" fill="#C15065"></circle><circle cx="458.4" cy="485.8" r="1.8" fill="#C15065"></circle><circle cx="464.1" cy="483.9" r="1.8" fill="#C15065"></circle><circle cx="469.7" cy="482.8" r="1.8" fill="#C15065"></circle><circle cx="475.4" cy="482.8" r="1.8" fill="#C15065"></circle><circle cx="481" cy="479.1" r="1.8" fill="#C15065"></circle><circle cx="486.7" cy="481.9" r="1.8" fill="#C15065"></circle><circle cx="492.4" cy="478.2" r="1.8" fill="#C15065"></circle><circle cx="498" cy="472.7" r="1.8" fill="#C15065"></circle><circle cx="503.7" cy="475.5" r="1.8" fill="#C15065"></circle><circle cx="509.3" cy="474.2" r="1.8" fill="#C15065"></circle><circle cx="515" cy="466.8" r="1.8" fill="#C15065"></circle><circle cx="520.6" cy="458.6" r="1.8" fill="#C15065"></circle><circle cx="526.3" cy="429.4" r="1.8" fill="#C15065"></circle><circle cx="531.9" cy="430.5" r="1.8" fill="#C15065"></circle><circle cx="537.6" cy="434.2" r="1.8" fill="#C15065"></circle><circle cx="543.2" cy="442.2" r="1.8" fill="#C15065"></circle><circle cx="548.9" cy="450.9" r="1.8" fill="#C15065"></circle><circle cx="554.5" cy="439.4" r="1.8" fill="#C15065"></circle><circle cx="560.2" cy="426.4" r="1.8" fill="#C15065"></circle><circle cx="565.9" cy="429.1" r="1.8" fill="#C15065"></circle><circle cx="571.5" cy="427.7" r="1.8" fill="#C15065"></circle><circle cx="577.2" cy="410.9" r="1.8" fill="#C15065"></circle><circle cx="582.8" cy="387.4" r="1.8" fill="#C15065"></circle><circle cx="588.5" cy="401.7" r="1.8" fill="#C15065"></circle><circle cx="594.1" cy="427.5" r="1.8" fill="#C15065"></circle><circle cx="599.8" cy="420.2" r="1.8" fill="#C15065"></circle><circle cx="605.4" cy="433.1" r="1.8" fill="#C15065"></circle><circle cx="611.1" cy="436.9" r="1.8" fill="#C15065"></circle><circle cx="616.7" cy="433.1" r="1.8" fill="#C15065"></circle><circle cx="622.4" cy="431.7" r="1.8" fill="#C15065"></circle><circle cx="628.1" cy="431.9" r="1.8" fill="#C15065"></circle><circle cx="633.7" cy="425.7" r="1.8" fill="#C15065"></circle><circle cx="639.4" cy="440.4" r="1.8" fill="#C15065"></circle><circle cx="645" cy="454" r="1.8" fill="#C15065"></circle><circle cx="650.7" cy="448.7" r="1.8" fill="#C15065"></circle><circle cx="656.3" cy="453.8" r="1.8" fill="#C15065"></circle><circle cx="662" cy="454.9" r="1.8" fill="#C15065"></circle><circle cx="667.6" cy="448.7" r="1.8" fill="#C15065"></circle><circle cx="673.3" cy="448.9" r="1.8" fill="#C15065"></circle><circle cx="678.9" cy="441.3" r="1.8" fill="#C15065"></circle><circle cx="684.6" cy="423.3" r="1.8" fill="#C15065"></circle><circle cx="690.3" cy="415.2" r="1.8" fill="#C15065"></circle><circle cx="695.9" cy="427.5" r="1.8" fill="#C15065"></circle><circle cx="701.6" cy="395.2" r="1.8" fill="#C15065"></circle><circle cx="707.2" cy="389.7" r="1.8" fill="#C15065"></circle><circle cx="712.9" cy="397.4" r="1.8" fill="#C15065"></circle><circle cx="718.5" cy="410.2" r="1.8" fill="#C15065"></circle><circle cx="724.2" cy="389.5" r="1.8" fill="#C15065"></circle><circle cx="729.8" cy="393.8" r="1.8" fill="#C15065"></circle><circle cx="735.5" cy="405.3" r="1.8" fill="#C15065"></circle><circle cx="741.1" cy="427.9" r="1.8" fill="#C15065"></circle><circle cx="746.8" cy="410.5" r="1.8" fill="#C15065"></circle><circle cx="752.5" cy="401" r="1.8" fill="#C15065"></circle><circle cx="758.1" cy="397.3" r="1.8" fill="#C15065"></circle><circle cx="763.8" cy="346.4" r="1.8" fill="#C15065"></circle></g></g></g></g></g></g><g id="footer" class="SourcesFooter" style="fill:#5b5b5b"><g id="sources" class="markdown-text-wrap"><text x="16.0" y="562.7" style="font-size:13.5px;line-height:1.2"><tspan x="16" y="562.7"><tspan style="font-weight:700">Data source:</tspan> USGS - Historical Statistics for Mineral and Material Commodities (2023)</tspan></text></g><g id="note" class="markdown-text-wrap"><text x="16.0" y="580.9" style="font-size:13.5px;line-height:1.2"><tspan x="16" y="580.9"><tspan style="font-weight:700">Note:</tspan> This data is adjusted for inflation.</tspan></text></g><text id="origin-url" font-size="13.50" x="792.7" y="562.7"><tspan x="792.69" y="562.695"><a target="_blank" style="fill: #5b5b5b;" href="https://creativecommons.org/licenses/by/4.0/">CC BY</a></tspan></text></g><line id="separator-line" x1="16" y1="600" x2="834" y2="600" stroke="#e7e7e7"></line><g id="details" transform="translate(15, 616)"><g class="markdown-text-wrap"><text x="0.0" y="12.0" style="font-size:12.375px;fill:#5b5b5b;line-height:1.2"><tspan x="0" y="12.0"><tspan style="font-weight:700">1.</tspan> <tspan style="font-weight:700">Graphite</tspan>: Graphite is a mineral that is used in batteries, steelmaking, lubricants, and pencils. Since it’s a key component of battery anodes, it’s</tspan><tspan x="0" y="26.9">important for the transition to electric vehicles, and stationary batteries for balancing electricity grids. Graphite can be mined, or manufactured</tspan><tspan x="0" y="41.7">synthetically.</tspan></text></g></g></svg>