<svg xmlns="http://www.w3.org/2000/svg" version="1.1" style="font-family:Lato, &#x27;Helvetica Neue&#x27;, Helvetica, Arial, &#x27;Liberation Sans&#x27;, sans-serif;font-size:18px;background-color:white;text-rendering:geometricPrecision;-webkit-font-smoothing:antialiased" width="850" height="600" viewBox="0 0 850 600"><defs><style>@import url(https://ourworldindata.org/fonts.css)</style></defs><defs><pattern id="noDataPattern" patternUnits="userSpaceOnUse" width="4" height="4" patternTransform="rotate(-45 2 2)"><path d="M -1,2 l 6,0" stroke="#ccc" stroke-width="0.7"></path></pattern></defs><rect class="background-fill" fill="white" width="850" height="600"></rect><g id="header" class="HeaderView"><g id="logo" transform="translate(769, 16) scale(1)"><svg className="owidLogo" xmlns="http://www.w3.org/2000/svg" width="65" height="36" viewBox="0 0 65 36"  fill="none"><path fill="#002147" d="M0 0h64.8v36H0z"/><path fill="#CE261E" d="M0 33.3h64.8V36H0z"/><path fill="#fff" d="M13.796 10.575c0 .636-.106 1.226-.318 1.77a4.193 4.193 0 0 1-.894 1.404 4.084 4.084 0 0 1-1.386.93c-.54.22-1.138.33-1.794.33-.656 0-1.256-.11-1.8-.33a4.149 4.149 0 0 1-1.392-.93 4.193 4.193 0 0 1-.894-1.404A4.833 4.833 0 0 1 5 10.575c0-.636.106-1.224.318-1.764a4.18 4.18 0 0 1 .894-1.41 4.076 4.076 0 0 1 1.392-.924 4.684 4.684 0 0 1 1.8-.336c.656 0 1.254.112 1.794.336.54.224 1.002.534 1.386.93.384.392.682.86.894 1.404.212.54.318 1.128.318 1.764Zm-1.656 0c0-.476-.064-.902-.192-1.278a2.671 2.671 0 0 0-.54-.966 2.332 2.332 0 0 0-.864-.606 2.94 2.94 0 0 0-1.14-.21c-.424 0-.806.07-1.146.21-.34.14-.63.342-.87.606a2.742 2.742 0 0 0-.546.966 3.955 3.955 0 0 0-.192 1.278c0 .476.064.904.192 1.284.128.376.31.696.546.96.24.26.53.46.87.6.34.14.722.21 1.146.21.424 0 .804-.07 1.14-.21.34-.14.628-.34.864-.6.236-.264.416-.584.54-.96a4.01 4.01 0 0 0 .192-1.284ZM16.104 8.757v3.912c0 .376.086.668.258.876.176.204.438.306.786.306.256 0 .496-.056.72-.168a2.58 2.58 0 0 0 .636-.474V8.757h1.482v6.156h-.906c-.192 0-.318-.09-.378-.27l-.102-.492a4.65 4.65 0 0 1-.396.354 2.577 2.577 0 0 1-.438.27 2.35 2.35 0 0 1-.498.168 2.345 2.345 0 0 1-.57.066c-.336 0-.634-.056-.894-.168a1.821 1.821 0 0 1-.648-.486 2.157 2.157 0 0 1-.402-.738 3.233 3.233 0 0 1-.132-.948V8.757h1.482ZM21.328 14.913V8.757h.87c.152 0 .258.028.318.084.06.056.1.152.12.288l.09.744c.22-.38.478-.68.774-.9.296-.22.628-.33.996-.33.304 0 .556.07.756.21l-.192 1.11c-.012.072-.038.124-.078.156a.278.278 0 0 1-.162.042 1.01 1.01 0 0 1-.246-.042 1.646 1.646 0 0 0-.414-.042c-.308 0-.572.086-.792.258-.22.168-.406.416-.558.744v3.834h-1.482ZM27.347 6.237h1.356a.57.57 0 0 1 .348.102c.096.064.16.152.192.264l1.476 5.19c.036.128.068.268.096.42.032.148.062.306.09.474a5.968 5.968 0 0 1 .228-.894l1.704-5.19a.575.575 0 0 1 .186-.252.543.543 0 0 1 .348-.114h.474a.57.57 0 0 1 .348.102.497.497 0 0 1 .192.264l1.692 5.19c.088.256.164.54.228.852.028-.156.056-.306.084-.45.032-.144.064-.278.096-.402l1.476-5.19c.028-.1.09-.186.186-.258a.563.563 0 0 1 .348-.108h1.266l-2.694 8.676h-1.458l-1.896-5.928-.078-.246a9.504 9.504 0 0 1-.072-.282c-.024.1-.05.194-.078.282-.024.088-.048.17-.072.246l-1.914 5.928H30.04l-2.694-8.676ZM42.771 8.661c.46 0 .876.074 1.248.222.376.148.696.358.96.63s.468.604.612.996c.144.392.216.83.216 1.314 0 .488-.072.928-.216 1.32a2.85 2.85 0 0 1-.612 1.002 2.653 2.653 0 0 1-.96.636 3.35 3.35 0 0 1-1.248.222c-.46 0-.878-.074-1.254-.222a2.712 2.712 0 0 1-.966-.636 2.922 2.922 0 0 1-.618-1.002 3.807 3.807 0 0 1-.216-1.32c0-.484.072-.922.216-1.314.148-.392.354-.724.618-.996.268-.272.59-.482.966-.63a3.397 3.397 0 0 1 1.254-.222Zm0 5.202c.512 0 .89-.172 1.134-.516.248-.344.372-.848.372-1.512s-.124-1.17-.372-1.518c-.244-.348-.622-.522-1.134-.522-.52 0-.904.176-1.152.528-.248.348-.372.852-.372 1.512s.124 1.164.372 1.512c.248.344.632.516 1.152.516ZM46.723 14.913V8.757h.87c.152 0 .258.028.318.084.06.056.1.152.12.288l.09.744c.22-.38.478-.68.774-.9.296-.22.628-.33.996-.33.304 0 .556.07.756.21l-.192 1.11c-.012.072-.038.124-.078.156a.278.278 0 0 1-.162.042 1.01 1.01 0 0 1-.246-.042 1.646 1.646 0 0 0-.414-.042c-.308 0-.572.086-.792.258-.22.168-.406.416-.558.744v3.834h-1.482ZM52.96 5.997v8.916h-1.482V5.997h1.482ZM58.732 14.913c-.192 0-.318-.09-.378-.27l-.12-.594a3.68 3.68 0 0 1-.402.39c-.14.116-.292.216-.456.3-.16.084-.334.148-.522.192a2.372 2.372 0 0 1-.6.072c-.336 0-.644-.07-.924-.21a2.098 2.098 0 0 1-.726-.606 3.033 3.033 0 0 1-.468-.99 5.072 5.072 0 0 1-.162-1.344c0-.456.062-.88.186-1.272s.302-.732.534-1.02c.232-.288.51-.512.834-.672a2.384 2.384 0 0 1 1.092-.246 2.103 2.103 0 0 1 1.536.606V5.997h1.482v8.916h-.906Zm-1.974-1.086c.308 0 .57-.064.786-.192.216-.128.42-.31.612-.546v-2.76a1.452 1.452 0 0 0-.552-.432 1.597 1.597 0 0 0-.636-.126c-.224 0-.428.042-.612.126a1.21 1.21 0 0 0-.462.384c-.124.168-.22.384-.288.648-.068.26-.102.568-.102.924 0 .36.028.666.084.918.06.248.144.452.252.612.108.156.24.27.396.342.156.068.33.102.522.102ZM16.331 20.757v6.156H14.85v-6.156h1.481Zm.223-1.794a.844.844 0 0 1-.078.36.963.963 0 0 1-.21.294.995.995 0 0 1-.3.204.963.963 0 0 1-.372.072.948.948 0 0 1-.367-.072 1.018 1.018 0 0 1-.498-.498.963.963 0 0 1 0-.732.995.995 0 0 1 .205-.3.929.929 0 0 1 .293-.198.899.899 0 0 1 .738 0 .912.912 0 0 1 .3.198.943.943 0 0 1 .288.672ZM17.771 26.913v-6.156h.906c.192 0 .318.09.378.27l.102.486a2.934 2.934 0 0 1 .828-.618c.156-.076.322-.134.498-.174.176-.04.368-.06.576-.06.336 0 .634.058.894.174.26.112.476.272.648.48.176.204.308.45.396.738.092.284.138.598.138.942v3.918h-1.482v-3.918c0-.376-.088-.666-.264-.87-.172-.208-.432-.312-.78-.312-.256 0-.496.058-.72.174a2.58 2.58 0 0 0-.636.474v4.452h-1.482ZM34.22 22.575c0 .636-.106 1.22-.318 1.752-.212.532-.51.99-.894 1.374a4 4 0 0 1-1.386.894 4.87 4.87 0 0 1-1.794.318h-3.312v-8.676h3.312a4.79 4.79 0 0 1 1.794.324 4 4 0 0 1 1.386.894c.384.38.682.836.894 1.368.212.532.318 1.116.318 1.752Zm-1.65 0c0-.476-.064-.902-.192-1.278a2.68 2.68 0 0 0-.546-.96 2.332 2.332 0 0 0-.864-.606 2.94 2.94 0 0 0-1.14-.21h-1.686v6.108h1.686c.424 0 .804-.07 1.14-.21.34-.14.628-.34.864-.6a2.75 2.75 0 0 0 .546-.96 4.01 4.01 0 0 0 .192-1.284ZM39.98 26.913h-.665c-.14 0-.25-.02-.33-.06-.08-.044-.14-.13-.18-.258l-.132-.438c-.156.14-.31.264-.462.372a2.804 2.804 0 0 1-.462.264c-.16.072-.33.126-.51.162-.18.036-.38.054-.6.054-.26 0-.5-.034-.72-.102a1.618 1.618 0 0 1-.57-.318 1.448 1.448 0 0 1-.366-.522 1.852 1.852 0 0 1-.132-.726c0-.232.06-.46.18-.684.124-.228.328-.432.612-.612.284-.184.662-.336 1.134-.456.472-.12 1.058-.188 1.758-.204v-.36c0-.412-.088-.716-.264-.912-.172-.2-.424-.3-.756-.3a1.837 1.837 0 0 0-1.02.276c-.116.068-.224.13-.324.186a.664.664 0 0 1-.33.084.429.429 0 0 1-.258-.078.614.614 0 0 1-.174-.192l-.27-.474c.708-.648 1.562-.972 2.562-.972.36 0 .68.06.96.18.284.116.524.28.72.492.196.208.344.458.444.75.104.292.156.612.156.96v3.888Zm-2.88-.924c.153 0 .293-.014.42-.042.129-.028.249-.07.36-.126.117-.056.227-.124.33-.204.109-.084.217-.182.325-.294v-1.038c-.432.02-.794.058-1.086.114-.288.052-.52.12-.696.204a.923.923 0 0 0-.378.294.664.664 0 0 0-.108.366c0 .26.076.446.228.558.156.112.358.168.606.168ZM43.22 27.01c-.532 0-.942-.15-1.23-.45-.288-.305-.432-.723-.432-1.255v-3.438h-.624a.31.31 0 0 1-.21-.078c-.056-.052-.084-.13-.084-.234v-.588l.99-.162.312-1.68a.302.302 0 0 1 .108-.186.365.365 0 0 1 .222-.066h.768v1.938h1.62v1.056h-1.62v3.336c0 .192.048.342.144.45a.488.488 0 0 0 .384.162c.092 0 .168-.01.228-.03.064-.024.118-.048.162-.072.048-.024.09-.046.126-.066a.194.194 0 0 1 .108-.036.16.16 0 0 1 .108.036c.028.02.058.052.09.096l.444.72c-.216.18-.464.316-.744.408a2.77 2.77 0 0 1-.87.138ZM50.423 26.913h-.666c-.14 0-.25-.02-.33-.06-.08-.044-.14-.13-.18-.258l-.132-.438c-.156.14-.31.264-.462.372a2.804 2.804 0 0 1-.462.264c-.16.072-.33.126-.51.162-.18.036-.38.054-.6.054-.26 0-.5-.034-.72-.102a1.618 1.618 0 0 1-.57-.318 1.448 1.448 0 0 1-.366-.522 1.852 1.852 0 0 1-.132-.726c0-.232.06-.46.18-.684.124-.228.328-.432.612-.612.284-.184.662-.336 1.134-.456.472-.12 1.058-.188 1.758-.204v-.36c0-.412-.088-.716-.264-.912-.172-.2-.424-.3-.756-.3a1.837 1.837 0 0 0-1.02.276c-.116.068-.224.13-.324.186a.664.664 0 0 1-.33.084.429.429 0 0 1-.258-.078.614.614 0 0 1-.174-.192l-.27-.474c.708-.648 1.562-.972 2.562-.972.36 0 .68.06.96.18.284.116.524.28.72.492.196.208.344.458.444.75.104.292.156.612.156.96v3.888Zm-2.88-.924c.152 0 .292-.014.42-.042.128-.028.248-.07.36-.126.116-.056.226-.124.33-.204.108-.084.216-.182.324-.294v-1.038c-.432.02-.794.058-1.086.114-.288.052-.52.12-.696.204a.923.923 0 0 0-.378.294.664.664 0 0 0-.108.366c0 .26.076.446.228.558.156.112.358.168.606.168Z"/></svg></g><a id="title" href="https://ourworldindata.org/explorers/minerals?Mineral=Copper&amp;Metric=Unit+value&amp;Type=Refinery&amp;Share+of+global=false&amp;country=OWID_WRL~AUS~CHL~CHN~USA~ZWE~CAN~ALB~DZA~ARG~ARM~AUT~AZE~BOL~BWA~BRA~BGR~COL~COG~CUB~CYP~OWID_CZS~COD~DOM~OWID_GDR~ECU~ERI~FIN~FRA~GEO~DEU~GRC~GTM~HTI~HND~HUN~IND~IDN~IRN~IRL~ZMB~OWID_GFR~OWID_YGS~VNM~GBR~UGA~UZB~OWID_USS~TUR~TZA~TJK~TWN~SWE~ESP~KOR~ZAF~SVK~OWID_SRM~SRB~SAU~RUS~ROU~PRT~POL~PHL~PER~PNG~PAN~PAK~OMN~NOR~MKD~PRK~NIC~NZL~NAM~MMR~MOZ~MAR~MNG~MEX~MRT~MYS~LAO~KGZ~KEN~KAZ~JPN~ITA~ISR~BEL~THA~EGY~UKR" style="font-family:&#x27;Playfair Display&#x27;, Georgia, &#x27;Times New Roman&#x27;, &#x27;Liberation Serif&#x27;, serif" target="_blank" rel="noopener"><text font-size="24.75" font-weight="600" x="16.0" y="40.0" fill="#5b5b5b"><tspan x="16" y="40.0075">Copper unit value, 1900 to 2020</tspan></text></a><g id="subtitle" class="markdown-text-wrap"><text x="16.0" y="63.9" style="font-size:14.625px;line-height:1.2" fill="#5b5b5b"><tspan x="16" y="63.9">Value of 1 tonne of copper, in constant 1998 US$ per tonne.</tspan></text></g></g><g id="chart-area" style="pointer-events:none"><g id="line-chart" class="LineChart"><defs><clipPath id="boundsClip-110"><rect x="63.92" y="73.25" width="838" height="470.35"></rect></clipPath></defs><rect x="16" y="83.25" width="818" height="450.35" fill="none"></rect><g id="dual-axis" class="DualAxisView"><g id="horizontal-axis" class="HorizontalAxis"><g id="tick__1900"><line x1="73.9" y1="512.6" x2="73.9" y2="518.1" stroke="#999" stroke-width="1"></line><text x="73.92" y="531.6" fill="#5b5b5b" text-anchor="start" font-size="13.5">1900</text></g><g id="tick__2020"><line x1="763.8" y1="512.6" x2="763.8" y2="518.1" stroke="#999" stroke-width="1"></line><text x="763.765" y="531.6" fill="#5b5b5b" text-anchor="end" font-size="13.5">2020</text></g><g id="tick__1920"><line x1="188.9" y1="512.6" x2="188.9" y2="518.1" stroke="#999" stroke-width="1"></line><text x="188.9" y="531.6" fill="#5b5b5b" text-anchor="middle" font-size="13.5">1920</text></g><g id="tick__1940"><line x1="303.9" y1="512.6" x2="303.9" y2="518.1" stroke="#999" stroke-width="1"></line><text x="303.9" y="531.6" fill="#5b5b5b" text-anchor="middle" font-size="13.5">1940</text></g><g id="tick__1960"><line x1="418.8" y1="512.6" x2="418.8" y2="518.1" stroke="#999" stroke-width="1"></line><text x="418.8" y="531.6" fill="#5b5b5b" text-anchor="middle" font-size="13.5">1960</text></g><g id="tick__1980"><line x1="533.8" y1="512.6" x2="533.8" y2="518.1" stroke="#999" stroke-width="1"></line><text x="533.8" y="531.6" fill="#5b5b5b" text-anchor="middle" font-size="13.5">1980</text></g><g id="tick__2000"><line x1="648.8" y1="512.6" x2="648.8" y2="518.1" stroke="#999" stroke-width="1"></line><text x="648.8" y="531.6" fill="#5b5b5b" text-anchor="middle" font-size="13.5">2000</text></g></g><g id="vertical-axis" class="VerticalAxis"><g id="tick-labels"><text id="tick-label__0-__0024__002ft" x="68.92" y="513.1" dy=".32em" text-anchor="end" fill="#5b5b5b" font-size="13.5">0 $/t</text><text id="tick-label__2__002c000-__0024__002ft" x="68.92" y="422.5" dy=".32em" text-anchor="end" fill="#5b5b5b" font-size="13.5">2,000 $/t</text><text id="tick-label__4__002c000-__0024__002ft" x="68.92" y="332" dy=".32em" text-anchor="end" fill="#5b5b5b" font-size="13.5">4,000 $/t</text><text id="tick-label__6__002c000-__0024__002ft" x="68.92" y="241.4" dy=".32em" text-anchor="end" fill="#5b5b5b" font-size="13.5">6,000 $/t</text><text id="tick-label__8__002c000-__0024__002ft" x="68.92" y="150.8" dy=".32em" text-anchor="end" fill="#5b5b5b" font-size="13.5">8,000 $/t</text></g></g><g id="horizontal-grid-lines" class="AxisGridLines horizontalLines"><line id="grid-line__0" x1="73.92" y1="513.1" x2="763.76" y2="513.1" stroke="#999" stroke-width="1"></line><line id="grid-line__2000" x1="73.92" y1="422.5" x2="763.76" y2="422.5" stroke="#ddd" stroke-width="1" stroke-dasharray="3,2"></line><line id="grid-line__4000" x1="73.92" y1="332" x2="763.76" y2="332" stroke="#ddd" stroke-width="1" stroke-dasharray="3,2"></line><line id="grid-line__6000" x1="73.92" y1="241.4" x2="763.76" y2="241.4" stroke="#ddd" stroke-width="1" stroke-dasharray="3,2"></line><line id="grid-line__8000" x1="73.92" y1="150.8" x2="763.76" y2="150.8" stroke="#ddd" stroke-width="1" stroke-dasharray="3,2"></line></g></g><g clip-path="url(#boundsClip-110)"><g id="line-labels" class="LineLabels"><g id="mark__World" class="legendMark" style="cursor:default"><rect id="background" x="763.765" y="326.15" width="70.235" height="13.5" fill="#fff" opacity="0"></rect><text id="label" font-size="13.50" font-weight="400" x="767.8" y="337.9" fill="#c15065"><tspan x="767.765" y="337.895">World</tspan></text></g></g><g id="lines" class="Lines"><rect x="74" y="89" width="690" height="424" fill="rgba(255,255,255,0)" opacity="0"></rect><g id="line__World"><path stroke-linecap="round" stroke-linejoin="round" stroke="#ddd" d="M73.9 196.1L79.7 196.1L85.4 295.7L91.2 273.1L96.9 282.2L102.7 227.8L108.4 164.4L114.2 164.4L119.9 273.1L125.7 273.1L131.4 286.7L137.2 291.2L142.9 232.3L148.7 258.2L154.4 297.6L160.2 233.3L165.9 89.3L171.6 142.2L177.4 246.4L183.1 341.9L188.9 370.9L194.6 398.1L200.4 381.8L206.1 372.7L211.9 386.8L217.6 380.9L223.4 384.5L229.1 391.3L234.9 372.3L240.6 338.8L246.4 383.6L252.1 423.4L257.9 444.3L263.6 421.6L269.4 407.6L275.1 407.6L280.9 399L286.6 361.4L292.4 394.9L298.1 381.8L303.9 379.1L309.6 380.4L315.4 393.1L321.1 399.9L326.9 402.2L332.6 404L338.4 396.3L344.1 358.2L349.9 362.8L355.6 380L361.4 367.7L367.1 359.1L372.9 363.2L378.6 336L384.4 332L390.1 284.9L395.8 262.2L401.6 339.2L407.3 364.6L413.1 340.1L418.8 335.6L424.6 348.7L430.3 346.9L436.1 348.3L441.8 343.3L447.6 331.1L453.3 332.4L459.1 327.4L464.8 320.2L470.6 302.5L476.3 269.5L482.1 303.9L487.8 312.9L493.6 295.3L499.3 258.2L505.1 318.8L510.8 314.3L516.6 333.8L522.3 348.7L528.1 306.2L533.8 312.9L539.6 362.3L545.3 390.4L551.1 388.1L556.8 408.5L562.6 411.7L568.3 414.8L574.1 394.9L579.8 347.4L585.6 341L591.3 360L597.1 382.2L602.8 388.6L608.5 409.9L614.3 391.3L620 365.5L625.8 399.9L631.5 404.4L637.3 434.8L643 438.8L648.8 429.8L654.5 442.5L660.3 444.7L666 437.9L671.8 397.6L677.5 368.6L683.3 259.1L689 255.4L694.8 271.7L700.5 330.2L706.3 253.2L712 219.7L717.8 252.7L723.5 275.8L729.3 294.4L735 337.4L740.8 360.5L746.5 323.8L752.3 319.3L758 335.1L763.8 332.9" fill="none" stroke-width="1"></path></g><g id="line__World"><path id="outline" fill="none" stroke-linecap="butt" stroke-linejoin="round" stroke="#fff" stroke-width="2.5" d="M73.9 196.1L79.7 196.1L85.4 295.7L91.2 273.1L96.9 282.2L102.7 227.8L108.4 164.4L114.2 164.4L119.9 273.1L125.7 273.1L131.4 286.7L137.2 291.2L142.9 232.3L148.7 258.2L154.4 297.6L160.2 233.3L165.9 89.3L171.6 142.2L177.4 246.4L183.1 341.9L188.9 370.9L194.6 398.1L200.4 381.8L206.1 372.7L211.9 386.8L217.6 380.9L223.4 384.5L229.1 391.3L234.9 372.3L240.6 338.8L246.4 383.6L252.1 423.4L257.9 444.3L263.6 421.6L269.4 407.6L275.1 407.6L280.9 399L286.6 361.4L292.4 394.9L298.1 381.8L303.9 379.1L309.6 380.4L315.4 393.1L321.1 399.9L326.9 402.2L332.6 404L338.4 396.3L344.1 358.2L349.9 362.8L355.6 380L361.4 367.7L367.1 359.1L372.9 363.2L378.6 336L384.4 332L390.1 284.9L395.8 262.2L401.6 339.2L407.3 364.6L413.1 340.1L418.8 335.6L424.6 348.7L430.3 346.9L436.1 348.3L441.8 343.3L447.6 331.1L453.3 332.4L459.1 327.4L464.8 320.2L470.6 302.5L476.3 269.5L482.1 303.9L487.8 312.9L493.6 295.3L499.3 258.2L505.1 318.8L510.8 314.3L516.6 333.8L522.3 348.7L528.1 306.2L533.8 312.9L539.6 362.3L545.3 390.4L551.1 388.1L556.8 408.5L562.6 411.7L568.3 414.8L574.1 394.9L579.8 347.4L585.6 341L591.3 360L597.1 382.2L602.8 388.6L608.5 409.9L614.3 391.3L620 365.5L625.8 399.9L631.5 404.4L637.3 434.8L643 438.8L648.8 429.8L654.5 442.5L660.3 444.7L666 437.9L671.8 397.6L677.5 368.6L683.3 259.1L689 255.4L694.8 271.7L700.5 330.2L706.3 253.2L712 219.7L717.8 252.7L723.5 275.8L729.3 294.4L735 337.4L740.8 360.5L746.5 323.8L752.3 319.3L758 335.1L763.8 332.9"></path><g id="polyline"><polyline id="polyline" points="73.90,196.10 79.70,196.10 85.40,295.70 91.20,273.10 96.90,282.20 102.70,227.80 108.40,164.40 114.20,164.40 119.90,273.10 125.70,273.10 131.40,286.70 137.20,291.20 142.90,232.30 148.70,258.20 154.40,297.60 160.20,233.30 165.90,89.30 171.60,142.20 177.40,246.40 183.10,341.90 188.90,370.90 194.60,398.10 200.40,381.80 206.10,372.70 211.90,386.80 217.60,380.90 223.40,384.50 229.10,391.30 234.90,372.30 240.60,338.80 246.40,383.60 252.10,423.40 257.90,444.30 263.60,421.60 269.40,407.60 275.10,407.60 280.90,399.00 286.60,361.40 292.40,394.90 298.10,381.80 303.90,379.10 309.60,380.40 315.40,393.10 321.10,399.90 326.90,402.20 332.60,404.00 338.40,396.30 344.10,358.20 349.90,362.80 355.60,380.00 361.40,367.70 367.10,359.10 372.90,363.20 378.60,336.00 384.40,332.00 390.10,284.90 395.80,262.20 401.60,339.20 407.30,364.60 413.10,340.10 418.80,335.60 424.60,348.70 430.30,346.90 436.10,348.30 441.80,343.30 447.60,331.10 453.30,332.40 459.10,327.40 464.80,320.20 470.60,302.50 476.30,269.50 482.10,303.90 487.80,312.90 493.60,295.30 499.30,258.20 505.10,318.80 510.80,314.30 516.60,333.80 522.30,348.70 528.10,306.20 533.80,312.90 539.60,362.30 545.30,390.40 551.10,388.10 556.80,408.50 562.60,411.70 568.30,414.80 574.10,394.90 579.80,347.40 585.60,341.00 591.30,360.00 597.10,382.20 602.80,388.60 608.50,409.90 614.30,391.30 620.00,365.50 625.80,399.90 631.50,404.40 637.30,434.80 643.00,438.80 648.80,429.80 654.50,442.50 660.30,444.70 666.00,437.90 671.80,397.60 677.50,368.60 683.30,259.10 689.00,255.40 694.80,271.70 700.50,330.20 706.30,253.20 712.00,219.70 717.80,252.70 723.50,275.80 729.30,294.40 735.00,337.40 740.80,360.50 746.50,323.80 752.30,319.30 758.00,335.10 763.80,332.90" stroke-linejoin="round" stroke-width="1.5" stroke="#C15065" fill="none" stroke-linecap="butt"></polyline></g><g id="markers"><circle cx="73.9" cy="196.1" r="1.8" fill="#C15065"></circle><circle cx="79.7" cy="196.1" r="1.8" fill="#C15065"></circle><circle cx="85.4" cy="295.7" r="1.8" fill="#C15065"></circle><circle cx="91.2" cy="273.1" r="1.8" fill="#C15065"></circle><circle cx="96.9" cy="282.2" r="1.8" fill="#C15065"></circle><circle cx="102.7" cy="227.8" r="1.8" fill="#C15065"></circle><circle cx="108.4" cy="164.4" r="1.8" fill="#C15065"></circle><circle cx="114.2" cy="164.4" r="1.8" fill="#C15065"></circle><circle cx="119.9" cy="273.1" r="1.8" fill="#C15065"></circle><circle cx="125.7" cy="273.1" r="1.8" fill="#C15065"></circle><circle cx="131.4" cy="286.7" r="1.8" fill="#C15065"></circle><circle cx="137.2" cy="291.2" r="1.8" fill="#C15065"></circle><circle cx="142.9" cy="232.3" r="1.8" fill="#C15065"></circle><circle cx="148.7" cy="258.2" r="1.8" fill="#C15065"></circle><circle cx="154.4" cy="297.6" r="1.8" fill="#C15065"></circle><circle cx="160.2" cy="233.3" r="1.8" fill="#C15065"></circle><circle cx="165.9" cy="89.3" r="1.8" fill="#C15065"></circle><circle cx="171.6" cy="142.2" r="1.8" fill="#C15065"></circle><circle cx="177.4" cy="246.4" r="1.8" fill="#C15065"></circle><circle cx="183.1" cy="341.9" r="1.8" fill="#C15065"></circle><circle cx="188.9" cy="370.9" r="1.8" fill="#C15065"></circle><circle cx="194.6" cy="398.1" r="1.8" fill="#C15065"></circle><circle cx="200.4" cy="381.8" r="1.8" fill="#C15065"></circle><circle cx="206.1" cy="372.7" r="1.8" fill="#C15065"></circle><circle cx="211.9" cy="386.8" r="1.8" fill="#C15065"></circle><circle cx="217.6" cy="380.9" r="1.8" fill="#C15065"></circle><circle cx="223.4" cy="384.5" r="1.8" fill="#C15065"></circle><circle cx="229.1" cy="391.3" r="1.8" fill="#C15065"></circle><circle cx="234.9" cy="372.3" r="1.8" fill="#C15065"></circle><circle cx="240.6" cy="338.8" r="1.8" fill="#C15065"></circle><circle cx="246.4" cy="383.6" r="1.8" fill="#C15065"></circle><circle cx="252.1" cy="423.4" r="1.8" fill="#C15065"></circle><circle cx="257.9" cy="444.3" r="1.8" fill="#C15065"></circle><circle cx="263.6" cy="421.6" r="1.8" fill="#C15065"></circle><circle cx="269.4" cy="407.6" r="1.8" fill="#C15065"></circle><circle cx="275.1" cy="407.6" r="1.8" fill="#C15065"></circle><circle cx="280.9" cy="399" r="1.8" fill="#C15065"></circle><circle cx="286.6" cy="361.4" r="1.8" fill="#C15065"></circle><circle cx="292.4" cy="394.9" r="1.8" fill="#C15065"></circle><circle cx="298.1" cy="381.8" r="1.8" fill="#C15065"></circle><circle cx="303.9" cy="379.1" r="1.8" fill="#C15065"></circle><circle cx="309.6" cy="380.4" r="1.8" fill="#C15065"></circle><circle cx="315.4" cy="393.1" r="1.8" fill="#C15065"></circle><circle cx="321.1" cy="399.9" r="1.8" fill="#C15065"></circle><circle cx="326.9" cy="402.2" r="1.8" fill="#C15065"></circle><circle cx="332.6" cy="404" r="1.8" fill="#C15065"></circle><circle cx="338.4" cy="396.3" r="1.8" fill="#C15065"></circle><circle cx="344.1" cy="358.2" r="1.8" fill="#C15065"></circle><circle cx="349.9" cy="362.8" r="1.8" fill="#C15065"></circle><circle cx="355.6" cy="380" r="1.8" fill="#C15065"></circle><circle cx="361.4" cy="367.7" r="1.8" fill="#C15065"></circle><circle cx="367.1" cy="359.1" r="1.8" fill="#C15065"></circle><circle cx="372.9" cy="363.2" r="1.8" fill="#C15065"></circle><circle cx="378.6" cy="336" r="1.8" fill="#C15065"></circle><circle cx="384.4" cy="332" r="1.8" fill="#C15065"></circle><circle cx="390.1" cy="284.9" r="1.8" fill="#C15065"></circle><circle cx="395.8" cy="262.2" r="1.8" fill="#C15065"></circle><circle cx="401.6" cy="339.2" r="1.8" fill="#C15065"></circle><circle cx="407.3" cy="364.6" r="1.8" fill="#C15065"></circle><circle cx="413.1" cy="340.1" r="1.8" fill="#C15065"></circle><circle cx="418.8" cy="335.6" r="1.8" fill="#C15065"></circle><circle cx="424.6" cy="348.7" r="1.8" fill="#C15065"></circle><circle cx="430.3" cy="346.9" r="1.8" fill="#C15065"></circle><circle cx="436.1" cy="348.3" r="1.8" fill="#C15065"></circle><circle cx="441.8" cy="343.3" r="1.8" fill="#C15065"></circle><circle cx="447.6" cy="331.1" r="1.8" fill="#C15065"></circle><circle cx="453.3" cy="332.4" r="1.8" fill="#C15065"></circle><circle cx="459.1" cy="327.4" r="1.8" fill="#C15065"></circle><circle cx="464.8" cy="320.2" r="1.8" fill="#C15065"></circle><circle cx="470.6" cy="302.5" r="1.8" fill="#C15065"></circle><circle cx="476.3" cy="269.5" r="1.8" fill="#C15065"></circle><circle cx="482.1" cy="303.9" r="1.8" fill="#C15065"></circle><circle cx="487.8" cy="312.9" r="1.8" fill="#C15065"></circle><circle cx="493.6" cy="295.3" r="1.8" fill="#C15065"></circle><circle cx="499.3" cy="258.2" r="1.8" fill="#C15065"></circle><circle cx="505.1" cy="318.8" r="1.8" fill="#C15065"></circle><circle cx="510.8" cy="314.3" r="1.8" fill="#C15065"></circle><circle cx="516.6" cy="333.8" r="1.8" fill="#C15065"></circle><circle cx="522.3" cy="348.7" r="1.8" fill="#C15065"></circle><circle cx="528.1" cy="306.2" r="1.8" fill="#C15065"></circle><circle cx="533.8" cy="312.9" r="1.8" fill="#C15065"></circle><circle cx="539.6" cy="362.3" r="1.8" fill="#C15065"></circle><circle cx="545.3" cy="390.4" r="1.8" fill="#C15065"></circle><circle cx="551.1" cy="388.1" r="1.8" fill="#C15065"></circle><circle cx="556.8" cy="408.5" r="1.8" fill="#C15065"></circle><circle cx="562.6" cy="411.7" r="1.8" fill="#C15065"></circle><circle cx="568.3" cy="414.8" r="1.8" fill="#C15065"></circle><circle cx="574.1" cy="394.9" r="1.8" fill="#C15065"></circle><circle cx="579.8" cy="347.4" r="1.8" fill="#C15065"></circle><circle cx="585.6" cy="341" r="1.8" fill="#C15065"></circle><circle cx="591.3" cy="360" r="1.8" fill="#C15065"></circle><circle cx="597.1" cy="382.2" r="1.8" fill="#C15065"></circle><circle cx="602.8" cy="388.6" r="1.8" fill="#C15065"></circle><circle cx="608.5" cy="409.9" r="1.8" fill="#C15065"></circle><circle cx="614.3" cy="391.3" r="1.8" fill="#C15065"></circle><circle cx="620" cy="365.5" r="1.8" fill="#C15065"></circle><circle cx="625.8" cy="399.9" r="1.8" fill="#C15065"></circle><circle cx="631.5" cy="404.4" r="1.8" fill="#C15065"></circle><circle cx="637.3" cy="434.8" r="1.8" fill="#C15065"></circle><circle cx="643" cy="438.8" r="1.8" fill="#C15065"></circle><circle cx="648.8" cy="429.8" r="1.8" fill="#C15065"></circle><circle cx="654.5" cy="442.5" r="1.8" fill="#C15065"></circle><circle cx="660.3" cy="444.7" r="1.8" fill="#C15065"></circle><circle cx="666" cy="437.9" r="1.8" fill="#C15065"></circle><circle cx="671.8" cy="397.6" r="1.8" fill="#C15065"></circle><circle cx="677.5" cy="368.6" r="1.8" fill="#C15065"></circle><circle cx="683.3" cy="259.1" r="1.8" fill="#C15065"></circle><circle cx="689" cy="255.4" r="1.8" fill="#C15065"></circle><circle cx="694.8" cy="271.7" r="1.8" fill="#C15065"></circle><circle cx="700.5" cy="330.2" r="1.8" fill="#C15065"></circle><circle cx="706.3" cy="253.2" r="1.8" fill="#C15065"></circle><circle cx="712" cy="219.7" r="1.8" fill="#C15065"></circle><circle cx="717.8" cy="252.7" r="1.8" fill="#C15065"></circle><circle cx="723.5" cy="275.8" r="1.8" fill="#C15065"></circle><circle cx="729.3" cy="294.4" r="1.8" fill="#C15065"></circle><circle cx="735" cy="337.4" r="1.8" fill="#C15065"></circle><circle cx="740.8" cy="360.5" r="1.8" fill="#C15065"></circle><circle cx="746.5" cy="323.8" r="1.8" fill="#C15065"></circle><circle cx="752.3" cy="319.3" r="1.8" fill="#C15065"></circle><circle cx="758" cy="335.1" r="1.8" fill="#C15065"></circle><circle cx="763.8" cy="332.9" r="1.8" fill="#C15065"></circle></g></g></g></g></g></g><g id="footer" class="SourcesFooter" style="fill:#5b5b5b"><g id="sources" class="markdown-text-wrap"><text x="16.0" y="562.7" style="font-size:13.5px;line-height:1.2"><tspan x="16" y="562.7"><tspan style="font-weight:700">Data source:</tspan> USGS - Historical Statistics for Mineral and Material Commodities (2023)</tspan></text></g><g id="note" class="markdown-text-wrap"><text x="16.0" y="580.9" style="font-size:13.5px;line-height:1.2"><tspan x="16" y="580.9"><tspan style="font-weight:700">Note:</tspan> This data is adjusted for inflation.</tspan></text></g><text id="origin-url" font-size="13.50" x="792.7" y="562.7"><tspan x="792.69" y="562.695"><a target="_blank" style="fill: #5b5b5b;" href="https://creativecommons.org/licenses/by/4.0/">CC BY</a></tspan></text></g></svg>