<svg xmlns="http://www.w3.org/2000/svg" version="1.1" style="font-family:Lato, &#x27;Helvetica Neue&#x27;, Helvetica, Arial, &#x27;Liberation Sans&#x27;, sans-serif;font-size:18px;background-color:white;text-rendering:geometricPrecision;-webkit-font-smoothing:antialiased" width="850" height="706.25" viewBox="0 0 850 706.25"><defs><style>@import url(https://ourworldindata.org/fonts.css)</style></defs><defs><pattern id="noDataPattern" patternUnits="userSpaceOnUse" width="4" height="4" patternTransform="rotate(-45 2 2)"><path d="M -1,2 l 6,0" stroke="#ccc" stroke-width="0.7"></path></pattern></defs><rect class="background-fill" fill="white" width="850" height="706.25"></rect><g id="header" class="HeaderView"><g id="logo" transform="translate(769, 16) scale(1)"><svg className="owidLogo" xmlns="http://www.w3.org/2000/svg" width="65" height="36" viewBox="0 0 65 36"  fill="none"><path fill="#002147" d="M0 0h64.8v36H0z"/><path fill="#CE261E" d="M0 33.3h64.8V36H0z"/><path fill="#fff" d="M13.796 10.575c0 .636-.106 1.226-.318 1.77a4.193 4.193 0 0 1-.894 1.404 4.084 4.084 0 0 1-1.386.93c-.54.22-1.138.33-1.794.33-.656 0-1.256-.11-1.8-.33a4.149 4.149 0 0 1-1.392-.93 4.193 4.193 0 0 1-.894-1.404A4.833 4.833 0 0 1 5 10.575c0-.636.106-1.224.318-1.764a4.18 4.18 0 0 1 .894-1.41 4.076 4.076 0 0 1 1.392-.924 4.684 4.684 0 0 1 1.8-.336c.656 0 1.254.112 1.794.336.54.224 1.002.534 1.386.93.384.392.682.86.894 1.404.212.54.318 1.128.318 1.764Zm-1.656 0c0-.476-.064-.902-.192-1.278a2.671 2.671 0 0 0-.54-.966 2.332 2.332 0 0 0-.864-.606 2.94 2.94 0 0 0-1.14-.21c-.424 0-.806.07-1.146.21-.34.14-.63.342-.87.606a2.742 2.742 0 0 0-.546.966 3.955 3.955 0 0 0-.192 1.278c0 .476.064.904.192 1.284.128.376.31.696.546.96.24.26.53.46.87.6.34.14.722.21 1.146.21.424 0 .804-.07 1.14-.21.34-.14.628-.34.864-.6.236-.264.416-.584.54-.96a4.01 4.01 0 0 0 .192-1.284ZM16.104 8.757v3.912c0 .376.086.668.258.876.176.204.438.306.786.306.256 0 .496-.056.72-.168a2.58 2.58 0 0 0 .636-.474V8.757h1.482v6.156h-.906c-.192 0-.318-.09-.378-.27l-.102-.492a4.65 4.65 0 0 1-.396.354 2.577 2.577 0 0 1-.438.27 2.35 2.35 0 0 1-.498.168 2.345 2.345 0 0 1-.57.066c-.336 0-.634-.056-.894-.168a1.821 1.821 0 0 1-.648-.486 2.157 2.157 0 0 1-.402-.738 3.233 3.233 0 0 1-.132-.948V8.757h1.482ZM21.328 14.913V8.757h.87c.152 0 .258.028.318.084.06.056.1.152.12.288l.09.744c.22-.38.478-.68.774-.9.296-.22.628-.33.996-.33.304 0 .556.07.756.21l-.192 1.11c-.012.072-.038.124-.078.156a.278.278 0 0 1-.162.042 1.01 1.01 0 0 1-.246-.042 1.646 1.646 0 0 0-.414-.042c-.308 0-.572.086-.792.258-.22.168-.406.416-.558.744v3.834h-1.482ZM27.347 6.237h1.356a.57.57 0 0 1 .348.102c.096.064.16.152.192.264l1.476 5.19c.036.128.068.268.096.42.032.148.062.306.09.474a5.968 5.968 0 0 1 .228-.894l1.704-5.19a.575.575 0 0 1 .186-.252.543.543 0 0 1 .348-.114h.474a.57.57 0 0 1 .348.102.497.497 0 0 1 .192.264l1.692 5.19c.088.256.164.54.228.852.028-.156.056-.306.084-.45.032-.144.064-.278.096-.402l1.476-5.19c.028-.1.09-.186.186-.258a.563.563 0 0 1 .348-.108h1.266l-2.694 8.676h-1.458l-1.896-5.928-.078-.246a9.504 9.504 0 0 1-.072-.282c-.024.1-.05.194-.078.282-.024.088-.048.17-.072.246l-1.914 5.928H30.04l-2.694-8.676ZM42.771 8.661c.46 0 .876.074 1.248.222.376.148.696.358.96.63s.468.604.612.996c.144.392.216.83.216 1.314 0 .488-.072.928-.216 1.32a2.85 2.85 0 0 1-.612 1.002 2.653 2.653 0 0 1-.96.636 3.35 3.35 0 0 1-1.248.222c-.46 0-.878-.074-1.254-.222a2.712 2.712 0 0 1-.966-.636 2.922 2.922 0 0 1-.618-1.002 3.807 3.807 0 0 1-.216-1.32c0-.484.072-.922.216-1.314.148-.392.354-.724.618-.996.268-.272.59-.482.966-.63a3.397 3.397 0 0 1 1.254-.222Zm0 5.202c.512 0 .89-.172 1.134-.516.248-.344.372-.848.372-1.512s-.124-1.17-.372-1.518c-.244-.348-.622-.522-1.134-.522-.52 0-.904.176-1.152.528-.248.348-.372.852-.372 1.512s.124 1.164.372 1.512c.248.344.632.516 1.152.516ZM46.723 14.913V8.757h.87c.152 0 .258.028.318.084.06.056.1.152.12.288l.09.744c.22-.38.478-.68.774-.9.296-.22.628-.33.996-.33.304 0 .556.07.756.21l-.192 1.11c-.012.072-.038.124-.078.156a.278.278 0 0 1-.162.042 1.01 1.01 0 0 1-.246-.042 1.646 1.646 0 0 0-.414-.042c-.308 0-.572.086-.792.258-.22.168-.406.416-.558.744v3.834h-1.482ZM52.96 5.997v8.916h-1.482V5.997h1.482ZM58.732 14.913c-.192 0-.318-.09-.378-.27l-.12-.594a3.68 3.68 0 0 1-.402.39c-.14.116-.292.216-.456.3-.16.084-.334.148-.522.192a2.372 2.372 0 0 1-.6.072c-.336 0-.644-.07-.924-.21a2.098 2.098 0 0 1-.726-.606 3.033 3.033 0 0 1-.468-.99 5.072 5.072 0 0 1-.162-1.344c0-.456.062-.88.186-1.272s.302-.732.534-1.02c.232-.288.51-.512.834-.672a2.384 2.384 0 0 1 1.092-.246 2.103 2.103 0 0 1 1.536.606V5.997h1.482v8.916h-.906Zm-1.974-1.086c.308 0 .57-.064.786-.192.216-.128.42-.31.612-.546v-2.76a1.452 1.452 0 0 0-.552-.432 1.597 1.597 0 0 0-.636-.126c-.224 0-.428.042-.612.126a1.21 1.21 0 0 0-.462.384c-.124.168-.22.384-.288.648-.068.26-.102.568-.102.924 0 .36.028.666.084.918.06.248.144.452.252.612.108.156.24.27.396.342.156.068.33.102.522.102ZM16.331 20.757v6.156H14.85v-6.156h1.481Zm.223-1.794a.844.844 0 0 1-.078.36.963.963 0 0 1-.21.294.995.995 0 0 1-.3.204.963.963 0 0 1-.372.072.948.948 0 0 1-.367-.072 1.018 1.018 0 0 1-.498-.498.963.963 0 0 1 0-.732.995.995 0 0 1 .205-.3.929.929 0 0 1 .293-.198.899.899 0 0 1 .738 0 .912.912 0 0 1 .3.198.943.943 0 0 1 .288.672ZM17.771 26.913v-6.156h.906c.192 0 .318.09.378.27l.102.486a2.934 2.934 0 0 1 .828-.618c.156-.076.322-.134.498-.174.176-.04.368-.06.576-.06.336 0 .634.058.894.174.26.112.476.272.648.48.176.204.308.45.396.738.092.284.138.598.138.942v3.918h-1.482v-3.918c0-.376-.088-.666-.264-.87-.172-.208-.432-.312-.78-.312-.256 0-.496.058-.72.174a2.58 2.58 0 0 0-.636.474v4.452h-1.482ZM34.22 22.575c0 .636-.106 1.22-.318 1.752-.212.532-.51.99-.894 1.374a4 4 0 0 1-1.386.894 4.87 4.87 0 0 1-1.794.318h-3.312v-8.676h3.312a4.79 4.79 0 0 1 1.794.324 4 4 0 0 1 1.386.894c.384.38.682.836.894 1.368.212.532.318 1.116.318 1.752Zm-1.65 0c0-.476-.064-.902-.192-1.278a2.68 2.68 0 0 0-.546-.96 2.332 2.332 0 0 0-.864-.606 2.94 2.94 0 0 0-1.14-.21h-1.686v6.108h1.686c.424 0 .804-.07 1.14-.21.34-.14.628-.34.864-.6a2.75 2.75 0 0 0 .546-.96 4.01 4.01 0 0 0 .192-1.284ZM39.98 26.913h-.665c-.14 0-.25-.02-.33-.06-.08-.044-.14-.13-.18-.258l-.132-.438c-.156.14-.31.264-.462.372a2.804 2.804 0 0 1-.462.264c-.16.072-.33.126-.51.162-.18.036-.38.054-.6.054-.26 0-.5-.034-.72-.102a1.618 1.618 0 0 1-.57-.318 1.448 1.448 0 0 1-.366-.522 1.852 1.852 0 0 1-.132-.726c0-.232.06-.46.18-.684.124-.228.328-.432.612-.612.284-.184.662-.336 1.134-.456.472-.12 1.058-.188 1.758-.204v-.36c0-.412-.088-.716-.264-.912-.172-.2-.424-.3-.756-.3a1.837 1.837 0 0 0-1.02.276c-.116.068-.224.13-.324.186a.664.664 0 0 1-.33.084.429.429 0 0 1-.258-.078.614.614 0 0 1-.174-.192l-.27-.474c.708-.648 1.562-.972 2.562-.972.36 0 .68.06.96.18.284.116.524.28.72.492.196.208.344.458.444.75.104.292.156.612.156.96v3.888Zm-2.88-.924c.153 0 .293-.014.42-.042.129-.028.249-.07.36-.126.117-.056.227-.124.33-.204.109-.084.217-.182.325-.294v-1.038c-.432.02-.794.058-1.086.114-.288.052-.52.12-.696.204a.923.923 0 0 0-.378.294.664.664 0 0 0-.108.366c0 .26.076.446.228.558.156.112.358.168.606.168ZM43.22 27.01c-.532 0-.942-.15-1.23-.45-.288-.305-.432-.723-.432-1.255v-3.438h-.624a.31.31 0 0 1-.21-.078c-.056-.052-.084-.13-.084-.234v-.588l.99-.162.312-1.68a.302.302 0 0 1 .108-.186.365.365 0 0 1 .222-.066h.768v1.938h1.62v1.056h-1.62v3.336c0 .192.048.342.144.45a.488.488 0 0 0 .384.162c.092 0 .168-.01.228-.03.064-.024.118-.048.162-.072.048-.024.09-.046.126-.066a.194.194 0 0 1 .108-.036.16.16 0 0 1 .108.036c.028.02.058.052.09.096l.444.72c-.216.18-.464.316-.744.408a2.77 2.77 0 0 1-.87.138ZM50.423 26.913h-.666c-.14 0-.25-.02-.33-.06-.08-.044-.14-.13-.18-.258l-.132-.438c-.156.14-.31.264-.462.372a2.804 2.804 0 0 1-.462.264c-.16.072-.33.126-.51.162-.18.036-.38.054-.6.054-.26 0-.5-.034-.72-.102a1.618 1.618 0 0 1-.57-.318 1.448 1.448 0 0 1-.366-.522 1.852 1.852 0 0 1-.132-.726c0-.232.06-.46.18-.684.124-.228.328-.432.612-.612.284-.184.662-.336 1.134-.456.472-.12 1.058-.188 1.758-.204v-.36c0-.412-.088-.716-.264-.912-.172-.2-.424-.3-.756-.3a1.837 1.837 0 0 0-1.02.276c-.116.068-.224.13-.324.186a.664.664 0 0 1-.33.084.429.429 0 0 1-.258-.078.614.614 0 0 1-.174-.192l-.27-.474c.708-.648 1.562-.972 2.562-.972.36 0 .68.06.96.18.284.116.524.28.72.492.196.208.344.458.444.75.104.292.156.612.156.96v3.888Zm-2.88-.924c.152 0 .292-.014.42-.042.128-.028.248-.07.36-.126.116-.056.226-.124.33-.204.108-.084.216-.182.324-.294v-1.038c-.432.02-.794.058-1.086.114-.288.052-.52.12-.696.204a.923.923 0 0 0-.378.294.664.664 0 0 0-.108.366c0 .26.076.446.228.558.156.112.358.168.606.168Z"/></svg></g><a id="title" href="https://ourworldindata.org/explorers/minerals?Mineral=Nickel&amp;Metric=Production&amp;Type=Mine&amp;Share+of+global=false&amp;country=OWID_WRL~AUS~CHL~CHN~USA~ZWE~CAN~ALB~DZA~ARG~ARM~AUT~AZE~BOL~BWA~BRA~BGR~COL~COG~CUB~CYP~OWID_CZS~COD~DOM~OWID_GDR~ECU~ERI~FIN~FRA~GEO~DEU~GRC~GTM~HTI~HND~HUN~IND~IDN~IRN~IRL~ZMB~OWID_GFR~OWID_YGS~VNM~GBR~UGA~UZB~OWID_USS~TUR~TZA~TJK~TWN~SWE~ESP~KOR~ZAF~SVK~OWID_SRM~SRB~SAU~RUS~ROU~PRT~POL~PHL~PER~PNG~PAN~PAK~OMN~NOR~MKD~PRK~NIC~NZL~NAM~MMR~MOZ~MAR~MNG~MEX~MRT~MYS~LAO~KGZ~KEN~KAZ~JPN~ITA~ISR~BEL~THA~EGY~UKR~Other~MDG~NCL" style="font-family:&#x27;Playfair Display&#x27;, Georgia, &#x27;Times New Roman&#x27;, &#x27;Liberation Serif&#x27;, serif" target="_blank" rel="noopener"><text font-size="24.75" font-weight="600" x="16.0" y="40.0" fill="#5b5b5b"><tspan x="16" y="40.0075">Nickel production, 1900 to 2023</tspan></text></a><g id="subtitle" class="markdown-text-wrap"><text x="16.0" y="63.9" style="font-size:14.625px;line-height:1.2" fill="#5b5b5b"><tspan x="16" y="63.9">Based on mined, rather than <tspan class="dod-span" data-id="refined-production">refined<tspan style="font-feature-settings:&quot;sups&quot;">ยน</tspan></tspan>, production. Measured in tonnes.</tspan></text></g></g><g id="chart-area" style="pointer-events:none"><g id="line-chart" class="LineChart"><defs><clipPath id="boundsClip-120"><rect x="79.44500000000001" y="73.25" width="838" height="470.35"></rect></clipPath></defs><rect x="16" y="83.25" width="818" height="450.35" fill="none"></rect><g id="dual-axis" class="DualAxisView"><g id="horizontal-axis" class="HorizontalAxis"><g id="tick__1900"><line x1="89.4" y1="512.6" x2="89.4" y2="518.1" stroke="#999" stroke-width="1"></line><text x="89.44500000000001" y="531.6" fill="#5b5b5b" text-anchor="start" font-size="13.5">1900</text></g><g id="tick__2023"><line x1="707.2" y1="512.6" x2="707.2" y2="518.1" stroke="#999" stroke-width="1"></line><text x="707.2" y="531.6" fill="#5b5b5b" text-anchor="end" font-size="13.5">2023</text></g><g id="tick__1920"><line x1="189.9" y1="512.6" x2="189.9" y2="518.1" stroke="#999" stroke-width="1"></line><text x="189.9" y="531.6" fill="#5b5b5b" text-anchor="middle" font-size="13.5">1920</text></g><g id="tick__1940"><line x1="290.3" y1="512.6" x2="290.3" y2="518.1" stroke="#999" stroke-width="1"></line><text x="290.3" y="531.6" fill="#5b5b5b" text-anchor="middle" font-size="13.5">1940</text></g><g id="tick__1960"><line x1="390.8" y1="512.6" x2="390.8" y2="518.1" stroke="#999" stroke-width="1"></line><text x="390.8" y="531.6" fill="#5b5b5b" text-anchor="middle" font-size="13.5">1960</text></g><g id="tick__1980"><line x1="491.2" y1="512.6" x2="491.2" y2="518.1" stroke="#999" stroke-width="1"></line><text x="491.2" y="531.6" fill="#5b5b5b" text-anchor="middle" font-size="13.5">1980</text></g><g id="tick__2000"><line x1="591.7" y1="512.6" x2="591.7" y2="518.1" stroke="#999" stroke-width="1"></line><text x="591.7" y="531.6" fill="#5b5b5b" text-anchor="middle" font-size="13.5">2000</text></g></g><g id="vertical-axis" class="VerticalAxis"><g id="tick-labels"><text id="tick-label__0-t" x="84.45" y="513.1" dy=".32em" text-anchor="end" fill="#5b5b5b" font-size="13.5">0 t</text><text id="tick-label__500__002c000-t" x="84.45" y="454.2" dy=".32em" text-anchor="end" fill="#5b5b5b" font-size="13.5">500,000 t</text><text id="tick-label__1-million-t" x="84.45" y="395.4" dy=".32em" text-anchor="end" fill="#5b5b5b" font-size="13.5">1 million t</text><text id="tick-label__1__002e5-million-t" x="84.45" y="336.5" dy=".32em" text-anchor="end" fill="#5b5b5b" font-size="13.5">1.5 million t</text><text id="tick-label__2-million-t" x="84.45" y="277.6" dy=".32em" text-anchor="end" fill="#5b5b5b" font-size="13.5">2 million t</text><text id="tick-label__2__002e5-million-t" x="84.45" y="218.8" dy=".32em" text-anchor="end" fill="#5b5b5b" font-size="13.5">2.5 million t</text><text id="tick-label__3-million-t" x="84.45" y="159.9" dy=".32em" text-anchor="end" fill="#5b5b5b" font-size="13.5">3 million t</text><text id="tick-label__3__002e5-million-t" x="84.45" y="101" dy=".32em" text-anchor="end" fill="#5b5b5b" font-size="13.5">3.5 million t</text></g></g><g id="horizontal-grid-lines" class="AxisGridLines horizontalLines"><line id="grid-line__0" x1="89.45" y1="513.1" x2="707.20" y2="513.1" stroke="#999" stroke-width="1"></line><line id="grid-line__500000" x1="89.45" y1="454.2" x2="707.20" y2="454.2" stroke="#ddd" stroke-width="1" stroke-dasharray="3,2"></line><line id="grid-line__1000000" x1="89.45" y1="395.4" x2="707.20" y2="395.4" stroke="#ddd" stroke-width="1" stroke-dasharray="3,2"></line><line id="grid-line__1500000" x1="89.45" y1="336.5" x2="707.20" y2="336.5" stroke="#ddd" stroke-width="1" stroke-dasharray="3,2"></line><line id="grid-line__2000000" x1="89.45" y1="277.6" x2="707.20" y2="277.6" stroke="#ddd" stroke-width="1" stroke-dasharray="3,2"></line><line id="grid-line__2500000" x1="89.45" y1="218.8" x2="707.20" y2="218.8" stroke="#ddd" stroke-width="1" stroke-dasharray="3,2"></line><line id="grid-line__3000000" x1="89.45" y1="159.9" x2="707.20" y2="159.9" stroke="#ddd" stroke-width="1" stroke-dasharray="3,2"></line><line id="grid-line__3500000" x1="89.45" y1="101" x2="707.20" y2="101" stroke="#ddd" stroke-width="1" stroke-dasharray="3,2"></line></g></g><g clip-path="url(#boundsClip-120)"><g id="line-labels" class="LineLabels"><g id="mark__World" class="legendMark" style="cursor:default"><g id="connector" class="indicator"><path d="M711.2,89.3 H724.7 V90 H738.2" stroke="#999" stroke-width="0.5" fill="none"></path></g><rect id="background" x="707.2" y="83.25" width="70.235" height="13.5" fill="#fff" opacity="0"></rect><text id="label" font-size="13.50" font-weight="400" x="742.2" y="95.0" fill="#c15065"><tspan x="742.2" y="94.995">World</tspan></text></g><g id="mark__Indonesia" class="legendMark" style="cursor:default"><g id="connector" class="indicator"><path d="M711.2,301.2 H724.7 V301.2 H738.2" stroke="#999" stroke-width="0.5" fill="none"></path></g><rect id="background" x="707.2" y="294.45" width="93.86000000000001" height="13.5" fill="#fff" opacity="0"></rect><text id="label" font-size="13.50" font-weight="400" x="742.2" y="306.2" fill="#008291"><tspan x="742.2" y="306.195">Indonesia</tspan></text></g><g id="mark__Philippines" class="legendMark" style="cursor:default"><g id="connector" class="indicator"><path d="M711.2,466 H714.575 V402.8499999999999 H738.2" stroke="#999" stroke-width="0.5" fill="none"></path></g><rect id="background" x="707.2" y="396.0999999999999" width="100.47500000000001" height="13.5" fill="#fff" opacity="0"></rect><text id="label" font-size="13.50" font-weight="400" x="742.2" y="407.8" fill="#00847e"><tspan x="742.2" y="407.8449999999999">Philippines</tspan></text></g><g id="mark__Other" class="legendMark" style="cursor:default"><g id="connector" class="indicator"><path d="M711.2,468.4 H717.95 V418.3499999999999 H738.2" stroke="#999" stroke-width="0.5" fill="none"></path></g><rect id="background" x="707.2" y="411.5999999999999" width="68.885" height="13.5" fill="#fff" opacity="0"></rect><text id="label" font-size="13.50" font-weight="400" x="742.2" y="423.3" fill="#2c8465"><tspan x="742.2" y="423.3449999999999">Other</tspan></text></g><g id="mark__New-Caledonia" class="legendMark" style="cursor:default"><g id="connector" class="indicator"><path d="M711.2,486 H721.325 V433.8499999999999 H738.2" stroke="#999" stroke-width="0.5" fill="none"></path></g><rect id="background" x="707.2" y="427.0999999999999" width="126.80000000000001" height="13.5" fill="#fff" opacity="0"></rect><text id="label" font-size="13.50" font-weight="400" x="742.2" y="438.8" fill="#c15065"><tspan x="742.2" y="438.8449999999999">New Caledonia</tspan></text></g><g id="mark__Russia" class="legendMark" style="cursor:default"><g id="connector" class="indicator"><path d="M711.2,489.6 H724.7 V449.3499999999999 H738.2" stroke="#999" stroke-width="0.5" fill="none"></path></g><rect id="background" x="707.2" y="442.5999999999999" width="76.31" height="13.5" fill="#fff" opacity="0"></rect><text id="label" font-size="13.50" font-weight="400" x="742.2" y="454.3" fill="#a2559c"><tspan x="742.2" y="454.3449999999999">Russia</tspan></text></g><g id="mark__Canada" class="legendMark" style="cursor:default"><g id="connector" class="indicator"><path d="M711.2,491.9 H728.075 V464.8499999999999 H738.2" stroke="#999" stroke-width="0.5" fill="none"></path></g><rect id="background" x="707.2" y="458.0999999999999" width="82.52000000000001" height="13.5" fill="#fff" opacity="0"></rect><text id="label" font-size="13.50" font-weight="400" x="742.2" y="469.8" fill="#286bbb"><tspan x="742.2" y="469.8449999999999">Canada</tspan></text></g><g id="mark__Australia" class="legendMark" style="cursor:default"><g id="connector" class="indicator"><path d="M711.2,494.3 H731.45 V480.3499999999999 H738.2" stroke="#999" stroke-width="0.5" fill="none"></path></g><rect id="background" x="707.2" y="473.5999999999999" width="87.65" height="13.5" fill="#fff" opacity="0"></rect><text id="label" font-size="13.50" font-weight="400" x="742.2" y="485.3" fill="#2c8465"><tspan x="742.2" y="485.3449999999999">Australia</tspan></text></g><g id="mark__China" class="legendMark" style="cursor:default"><g id="connector" class="indicator"><path d="M711.2,500.1 H734.825 V495.8499999999999 H738.2" stroke="#999" stroke-width="0.5" fill="none"></path></g><rect id="background" x="707.2" y="489.0999999999999" width="70.37" height="13.5" fill="#fff" opacity="0"></rect><text id="label" font-size="13.50" font-weight="400" x="742.2" y="500.8" fill="#cf0a66"><tspan x="742.2" y="500.8449999999999">China</tspan></text></g><g id="mark__Brazil" class="legendMark" style="cursor:default"><g id="connector" class="indicator"><path d="M711.2,502.6 H734.825 V511.3499999999999 H738.2" stroke="#999" stroke-width="0.5" fill="none"></path></g><rect id="background" x="707.2" y="504.5999999999999" width="68.75" height="13.5" fill="#fff" opacity="0"></rect><text id="label" font-size="13.50" font-weight="400" x="742.2" y="516.3" fill="#970046"><tspan x="742.2" y="516.3449999999999">Brazil</tspan></text></g><g id="mark__United-States" class="legendMark" style="cursor:default"><g id="connector" class="indicator"><path d="M711.2,511.1 H731.45 V526.8499999999999 H738.2" stroke="#999" stroke-width="0.5" fill="none"></path></g><rect id="background" x="707.2" y="520.0999999999999" width="116.405" height="13.5" fill="#fff" opacity="0"></rect><text id="label" font-size="13.50" font-weight="400" x="742.2" y="531.8" fill="#6d3e91"><tspan x="742.2" y="531.8449999999999">United States</tspan></text></g></g><g id="lines" class="Lines"><rect x="89" y="89" width="618" height="424" fill="rgba(255,255,255,0)" opacity="0"></rect><g id="line__United-States"><path stroke-linecap="round" stroke-linejoin="round" stroke="#ddd" d="M692.1 511.1L697.2 510.9L702.2 511L707.2 511.1" fill="none" stroke-width="1"></path></g><g id="line__Russia"><path stroke-linecap="round" stroke-linejoin="round" stroke="#ddd" d="M692.1 479.8L697.2 489L702.2 487L707.2 489.6" fill="none" stroke-width="1"></path></g><g id="line__Philippines"><path stroke-linecap="round" stroke-linejoin="round" stroke="#ddd" d="M692.1 473.8L697.2 467.5L702.2 472.5L707.2 466" fill="none" stroke-width="1"></path></g><g id="line__Other"><path stroke-linecap="round" stroke-linejoin="round" stroke="#ddd" d="M692.1 469.2L697.2 462.6L702.2 465.5L707.2 468.4" fill="none" stroke-width="1"></path></g><g id="line__New-Caledonia"><path stroke-linecap="round" stroke-linejoin="round" stroke="#ddd" d="M692.1 489.6L697.2 491.2L702.2 489.6L707.2 486" fill="none" stroke-width="1"></path></g><g id="line__Indonesia"><path stroke-linecap="round" stroke-linejoin="round" stroke="#ddd" d="M692.1 422.3L697.2 390.7L702.2 327.1L707.2 301.2" fill="none" stroke-width="1"></path></g><g id="line__China"><path stroke-linecap="round" stroke-linejoin="round" stroke="#ddd" d="M692.1 499L697.2 500.3L702.2 499.7L707.2 500.1" fill="none" stroke-width="1"></path></g><g id="line__Canada"><path stroke-linecap="round" stroke-linejoin="round" stroke="#ddd" d="M692.1 493.4L697.2 497.3L702.2 496.3L707.2 491.9" fill="none" stroke-width="1"></path></g><g id="line__Brazil"><path stroke-linecap="round" stroke-linejoin="round" stroke="#ddd" d="M692.1 504L697.2 504.2L702.2 502.7L707.2 502.6" fill="none" stroke-width="1"></path></g><g id="line__Australia"><path stroke-linecap="round" stroke-linejoin="round" stroke="#ddd" d="M692.1 493.2L697.2 495.3L702.2 494.9L707.2 494.3" fill="none" stroke-width="1"></path></g><g id="line__World"><path stroke-linecap="round" stroke-linejoin="round" stroke="#ddd" d="M89.4 512L94.5 511.8L99.5 511.7L104.5 511.9L109.5 511.9L114.6 511.3L119.6 511.2L124.6 511.2L129.6 511.3L134.6 511.1L139.7 510.4L144.7 510.1L149.7 509.8L154.7 509.3L159.8 509.6L164.8 508.5L169.8 507.7L174.8 507.7L179.8 507.5L184.9 510.4L189.9 508.9L194.9 511.9L199.9 511.7L205 509.4L210 508.9L215 508.7L220 509.1L225 509L230.1 507.2L235.1 506.5L240.1 506.7L245.1 508.8L250.2 510.5L255.2 507.6L260.2 504.7L265.2 504L270.3 502.1L275.3 499L280.3 499.6L285.3 498.7L290.3 496.6L295.4 494L300.4 494.5L305.4 493.4L310.4 494.6L315.5 496L320.5 498.6L325.5 496.6L330.5 495.3L335.5 495.9L340.6 496L345.6 497.6L350.6 495.9L355.6 489.8L360.7 487.7L365.7 485L370.7 482.6L375.7 479.4L380.7 486.7L385.8 479.5L390.8 475.4L395.8 470.6L400.8 471.1L405.9 473.2L410.9 469.4L415.9 463.1L420.9 464.6L425.9 460.2L431 454.6L436 455.8L441 439.2L446 438.1L451.1 441.2L456.1 429.5L461.1 422.4L466.1 418.7L471.1 419.9L476.2 415.6L481.2 435.6L486.2 432.3L491.2 421.4L496.3 427.6L501.3 440L506.3 433.9L511.3 422.1L516.3 417.4L521.4 412.8L526.4 408.2L531.4 401L536.4 396.9L541.5 398.4L546.5 394.2L551.5 394.2L556.5 403.8L561.6 403.4L566.6 390.7L571.6 388.3L576.6 378.9L581.6 374.2L586.7 375.3L591.7 361.2L596.7 354.2L601.7 354.2L606.8 351.8L611.8 354.2L616.8 341.2L621.8 328.3L626.8 308.2L631.9 321.2L636.9 347.1L641.9 311.8L646.9 237.6L652 210.5L657 205.8L662 262.3L667 264.7L672 277.6L677.1 255.3L682.1 232.9L687.1 208.2L692.1 217.6L697.2 191.7L702.2 128.1L707.2 89.3" fill="none" stroke-width="1"></path></g><g id="line__United-States"><path id="outline" fill="none" stroke-linecap="butt" stroke-linejoin="round" stroke="#fff" stroke-width="2.5" d="M692.1 511.1L697.2 510.9L702.2 511L707.2 511.1"></path><g id="polyline"><polyline id="polyline" points="692.10,511.10 697.20,510.90 702.20,511.00 707.20,511.10" stroke-linejoin="round" stroke-width="1.5" stroke="#6D3E91" fill="none" stroke-linecap="butt"></polyline></g><g id="markers"><circle cx="692.1" cy="511.1" r="1.8" fill="#6D3E91"></circle><circle cx="697.2" cy="510.9" r="1.8" fill="#6D3E91"></circle><circle cx="702.2" cy="511" r="1.8" fill="#6D3E91"></circle><circle cx="707.2" cy="511.1" r="1.8" fill="#6D3E91"></circle></g></g><g id="line__Russia"><path id="outline" fill="none" stroke-linecap="butt" stroke-linejoin="round" stroke="#fff" stroke-width="2.5" d="M692.1 479.8L697.2 489L702.2 487L707.2 489.6"></path><g id="polyline"><polyline id="polyline" points="692.10,479.80 697.20,489.00 702.20,487.00 707.20,489.60" stroke-linejoin="round" stroke-width="1.5" stroke="#A2559C" fill="none" stroke-linecap="butt"></polyline></g><g id="markers"><circle cx="692.1" cy="479.8" r="1.8" fill="#A2559C"></circle><circle cx="697.2" cy="489" r="1.8" fill="#A2559C"></circle><circle cx="702.2" cy="487" r="1.8" fill="#A2559C"></circle><circle cx="707.2" cy="489.6" r="1.8" fill="#A2559C"></circle></g></g><g id="line__Philippines"><path id="outline" fill="none" stroke-linecap="butt" stroke-linejoin="round" stroke="#fff" stroke-width="2.5" d="M692.1 473.8L697.2 467.5L702.2 472.5L707.2 466"></path><g id="polyline"><polyline id="polyline" points="692.10,473.80 697.20,467.50 702.20,472.50 707.20,466.00" stroke-linejoin="round" stroke-width="1.5" stroke="#00847E" fill="none" stroke-linecap="butt"></polyline></g><g id="markers"><circle cx="692.1" cy="473.8" r="1.8" fill="#00847E"></circle><circle cx="697.2" cy="467.5" r="1.8" fill="#00847E"></circle><circle cx="702.2" cy="472.5" r="1.8" fill="#00847E"></circle><circle cx="707.2" cy="466" r="1.8" fill="#00847E"></circle></g></g><g id="line__Other"><path id="outline" fill="none" stroke-linecap="butt" stroke-linejoin="round" stroke="#fff" stroke-width="2.5" d="M692.1 469.2L697.2 462.6L702.2 465.5L707.2 468.4"></path><g id="polyline"><polyline id="polyline" points="692.10,469.20 697.20,462.60 702.20,465.50 707.20,468.40" stroke-linejoin="round" stroke-width="1.5" stroke="#2C8465" fill="none" stroke-linecap="butt"></polyline></g><g id="markers"><circle cx="692.1" cy="469.2" r="1.8" fill="#2C8465"></circle><circle cx="697.2" cy="462.6" r="1.8" fill="#2C8465"></circle><circle cx="702.2" cy="465.5" r="1.8" fill="#2C8465"></circle><circle cx="707.2" cy="468.4" r="1.8" fill="#2C8465"></circle></g></g><g id="line__New-Caledonia"><path id="outline" fill="none" stroke-linecap="butt" stroke-linejoin="round" stroke="#fff" stroke-width="2.5" d="M692.1 489.6L697.2 491.2L702.2 489.6L707.2 486"></path><g id="polyline"><polyline id="polyline" points="692.10,489.60 697.20,491.20 702.20,489.60 707.20,486.00" stroke-linejoin="round" stroke-width="1.5" stroke="#C15065" fill="none" stroke-linecap="butt"></polyline></g><g id="markers"><circle cx="692.1" cy="489.6" r="1.8" fill="#C15065"></circle><circle cx="697.2" cy="491.2" r="1.8" fill="#C15065"></circle><circle cx="702.2" cy="489.6" r="1.8" fill="#C15065"></circle><circle cx="707.2" cy="486" r="1.8" fill="#C15065"></circle></g></g><g id="line__Indonesia"><path id="outline" fill="none" stroke-linecap="butt" stroke-linejoin="round" stroke="#fff" stroke-width="2.5" d="M692.1 422.3L697.2 390.7L702.2 327.1L707.2 301.2"></path><g id="polyline"><polyline id="polyline" points="692.10,422.30 697.20,390.70 702.20,327.10 707.20,301.20" stroke-linejoin="round" stroke-width="1.5" stroke="#008291" fill="none" stroke-linecap="butt"></polyline></g><g id="markers"><circle cx="692.1" cy="422.3" r="1.8" fill="#008291"></circle><circle cx="697.2" cy="390.7" r="1.8" fill="#008291"></circle><circle cx="702.2" cy="327.1" r="1.8" fill="#008291"></circle><circle cx="707.2" cy="301.2" r="1.8" fill="#008291"></circle></g></g><g id="line__China"><path id="outline" fill="none" stroke-linecap="butt" stroke-linejoin="round" stroke="#fff" stroke-width="2.5" d="M692.1 499L697.2 500.3L702.2 499.7L707.2 500.1"></path><g id="polyline"><polyline id="polyline" points="692.10,499.00 697.20,500.30 702.20,499.70 707.20,500.10" stroke-linejoin="round" stroke-width="1.5" stroke="#CF0A66" fill="none" stroke-linecap="butt"></polyline></g><g id="markers"><circle cx="692.1" cy="499" r="1.8" fill="#CF0A66"></circle><circle cx="697.2" cy="500.3" r="1.8" fill="#CF0A66"></circle><circle cx="702.2" cy="499.7" r="1.8" fill="#CF0A66"></circle><circle cx="707.2" cy="500.1" r="1.8" fill="#CF0A66"></circle></g></g><g id="line__Canada"><path id="outline" fill="none" stroke-linecap="butt" stroke-linejoin="round" stroke="#fff" stroke-width="2.5" d="M692.1 493.4L697.2 497.3L702.2 496.3L707.2 491.9"></path><g id="polyline"><polyline id="polyline" points="692.10,493.40 697.20,497.30 702.20,496.30 707.20,491.90" stroke-linejoin="round" stroke-width="1.5" stroke="#286BBB" fill="none" stroke-linecap="butt"></polyline></g><g id="markers"><circle cx="692.1" cy="493.4" r="1.8" fill="#286BBB"></circle><circle cx="697.2" cy="497.3" r="1.8" fill="#286BBB"></circle><circle cx="702.2" cy="496.3" r="1.8" fill="#286BBB"></circle><circle cx="707.2" cy="491.9" r="1.8" fill="#286BBB"></circle></g></g><g id="line__Brazil"><path id="outline" fill="none" stroke-linecap="butt" stroke-linejoin="round" stroke="#fff" stroke-width="2.5" d="M692.1 504L697.2 504.2L702.2 502.7L707.2 502.6"></path><g id="polyline"><polyline id="polyline" points="692.10,504.00 697.20,504.20 702.20,502.70 707.20,502.60" stroke-linejoin="round" stroke-width="1.5" stroke="#970046" fill="none" stroke-linecap="butt"></polyline></g><g id="markers"><circle cx="692.1" cy="504" r="1.8" fill="#970046"></circle><circle cx="697.2" cy="504.2" r="1.8" fill="#970046"></circle><circle cx="702.2" cy="502.7" r="1.8" fill="#970046"></circle><circle cx="707.2" cy="502.6" r="1.8" fill="#970046"></circle></g></g><g id="line__Australia"><path id="outline" fill="none" stroke-linecap="butt" stroke-linejoin="round" stroke="#fff" stroke-width="2.5" d="M692.1 493.2L697.2 495.3L702.2 494.9L707.2 494.3"></path><g id="polyline"><polyline id="polyline" points="692.10,493.20 697.20,495.30 702.20,494.90 707.20,494.30" stroke-linejoin="round" stroke-width="1.5" stroke="#2C8465" fill="none" stroke-linecap="butt"></polyline></g><g id="markers"><circle cx="692.1" cy="493.2" r="1.8" fill="#2C8465"></circle><circle cx="697.2" cy="495.3" r="1.8" fill="#2C8465"></circle><circle cx="702.2" cy="494.9" r="1.8" fill="#2C8465"></circle><circle cx="707.2" cy="494.3" r="1.8" fill="#2C8465"></circle></g></g><g id="line__World"><path id="outline" fill="none" stroke-linecap="butt" stroke-linejoin="round" stroke="#fff" stroke-width="2.5" d="M89.4 512L94.5 511.8L99.5 511.7L104.5 511.9L109.5 511.9L114.6 511.3L119.6 511.2L124.6 511.2L129.6 511.3L134.6 511.1L139.7 510.4L144.7 510.1L149.7 509.8L154.7 509.3L159.8 509.6L164.8 508.5L169.8 507.7L174.8 507.7L179.8 507.5L184.9 510.4L189.9 508.9L194.9 511.9L199.9 511.7L205 509.4L210 508.9L215 508.7L220 509.1L225 509L230.1 507.2L235.1 506.5L240.1 506.7L245.1 508.8L250.2 510.5L255.2 507.6L260.2 504.7L265.2 504L270.3 502.1L275.3 499L280.3 499.6L285.3 498.7L290.3 496.6L295.4 494L300.4 494.5L305.4 493.4L310.4 494.6L315.5 496L320.5 498.6L325.5 496.6L330.5 495.3L335.5 495.9L340.6 496L345.6 497.6L350.6 495.9L355.6 489.8L360.7 487.7L365.7 485L370.7 482.6L375.7 479.4L380.7 486.7L385.8 479.5L390.8 475.4L395.8 470.6L400.8 471.1L405.9 473.2L410.9 469.4L415.9 463.1L420.9 464.6L425.9 460.2L431 454.6L436 455.8L441 439.2L446 438.1L451.1 441.2L456.1 429.5L461.1 422.4L466.1 418.7L471.1 419.9L476.2 415.6L481.2 435.6L486.2 432.3L491.2 421.4L496.3 427.6L501.3 440L506.3 433.9L511.3 422.1L516.3 417.4L521.4 412.8L526.4 408.2L531.4 401L536.4 396.9L541.5 398.4L546.5 394.2L551.5 394.2L556.5 403.8L561.6 403.4L566.6 390.7L571.6 388.3L576.6 378.9L581.6 374.2L586.7 375.3L591.7 361.2L596.7 354.2L601.7 354.2L606.8 351.8L611.8 354.2L616.8 341.2L621.8 328.3L626.8 308.2L631.9 321.2L636.9 347.1L641.9 311.8L646.9 237.6L652 210.5L657 205.8L662 262.3L667 264.7L672 277.6L677.1 255.3L682.1 232.9L687.1 208.2L692.1 217.6L697.2 191.7L702.2 128.1L707.2 89.3"></path><g id="polyline"><polyline id="polyline" points="89.40,512.00 94.50,511.80 99.50,511.70 104.50,511.90 109.50,511.90 114.60,511.30 119.60,511.20 124.60,511.20 129.60,511.30 134.60,511.10 139.70,510.40 144.70,510.10 149.70,509.80 154.70,509.30 159.80,509.60 164.80,508.50 169.80,507.70 174.80,507.70 179.80,507.50 184.90,510.40 189.90,508.90 194.90,511.90 199.90,511.70 205.00,509.40 210.00,508.90 215.00,508.70 220.00,509.10 225.00,509.00 230.10,507.20 235.10,506.50 240.10,506.70 245.10,508.80 250.20,510.50 255.20,507.60 260.20,504.70 265.20,504.00 270.30,502.10 275.30,499.00 280.30,499.60 285.30,498.70 290.30,496.60 295.40,494.00 300.40,494.50 305.40,493.40 310.40,494.60 315.50,496.00 320.50,498.60 325.50,496.60 330.50,495.30 335.50,495.90 340.60,496.00 345.60,497.60 350.60,495.90 355.60,489.80 360.70,487.70 365.70,485.00 370.70,482.60 375.70,479.40 380.70,486.70 385.80,479.50 390.80,475.40 395.80,470.60 400.80,471.10 405.90,473.20 410.90,469.40 415.90,463.10 420.90,464.60 425.90,460.20 431.00,454.60 436.00,455.80 441.00,439.20 446.00,438.10 451.10,441.20 456.10,429.50 461.10,422.40 466.10,418.70 471.10,419.90 476.20,415.60 481.20,435.60 486.20,432.30 491.20,421.40 496.30,427.60 501.30,440.00 506.30,433.90 511.30,422.10 516.30,417.40 521.40,412.80 526.40,408.20 531.40,401.00 536.40,396.90 541.50,398.40 546.50,394.20 551.50,394.20 556.50,403.80 561.60,403.40 566.60,390.70 571.60,388.30 576.60,378.90 581.60,374.20 586.70,375.30 591.70,361.20 596.70,354.20 601.70,354.20 606.80,351.80 611.80,354.20 616.80,341.20 621.80,328.30 626.80,308.20 631.90,321.20 636.90,347.10 641.90,311.80 646.90,237.60 652.00,210.50 657.00,205.80 662.00,262.30 667.00,264.70 672.00,277.60 677.10,255.30 682.10,232.90 687.10,208.20 692.10,217.60 697.20,191.70 702.20,128.10 707.20,89.30" stroke-linejoin="round" stroke-width="1.5" stroke="#C15065" fill="none" stroke-linecap="butt"></polyline></g><g id="markers"><circle cx="89.4" cy="512" r="1.8" fill="#C15065"></circle><circle cx="94.5" cy="511.8" r="1.8" fill="#C15065"></circle><circle cx="99.5" cy="511.7" r="1.8" fill="#C15065"></circle><circle cx="104.5" cy="511.9" r="1.8" fill="#C15065"></circle><circle cx="109.5" cy="511.9" r="1.8" fill="#C15065"></circle><circle cx="114.6" cy="511.3" r="1.8" fill="#C15065"></circle><circle cx="119.6" cy="511.2" r="1.8" fill="#C15065"></circle><circle cx="124.6" cy="511.2" r="1.8" fill="#C15065"></circle><circle cx="129.6" cy="511.3" r="1.8" fill="#C15065"></circle><circle cx="134.6" cy="511.1" r="1.8" fill="#C15065"></circle><circle cx="139.7" cy="510.4" r="1.8" fill="#C15065"></circle><circle cx="144.7" cy="510.1" r="1.8" fill="#C15065"></circle><circle cx="149.7" cy="509.8" r="1.8" fill="#C15065"></circle><circle cx="154.7" cy="509.3" r="1.8" fill="#C15065"></circle><circle cx="159.8" cy="509.6" r="1.8" fill="#C15065"></circle><circle cx="164.8" cy="508.5" r="1.8" fill="#C15065"></circle><circle cx="169.8" cy="507.7" r="1.8" fill="#C15065"></circle><circle cx="174.8" cy="507.7" r="1.8" fill="#C15065"></circle><circle cx="179.8" cy="507.5" r="1.8" fill="#C15065"></circle><circle cx="184.9" cy="510.4" r="1.8" fill="#C15065"></circle><circle cx="189.9" cy="508.9" r="1.8" fill="#C15065"></circle><circle cx="194.9" cy="511.9" r="1.8" fill="#C15065"></circle><circle cx="199.9" cy="511.7" r="1.8" fill="#C15065"></circle><circle cx="205" cy="509.4" r="1.8" fill="#C15065"></circle><circle cx="210" cy="508.9" r="1.8" fill="#C15065"></circle><circle cx="215" cy="508.7" r="1.8" fill="#C15065"></circle><circle cx="220" cy="509.1" r="1.8" fill="#C15065"></circle><circle cx="225" cy="509" r="1.8" fill="#C15065"></circle><circle cx="230.1" cy="507.2" r="1.8" fill="#C15065"></circle><circle cx="235.1" cy="506.5" r="1.8" fill="#C15065"></circle><circle cx="240.1" cy="506.7" r="1.8" fill="#C15065"></circle><circle cx="245.1" cy="508.8" r="1.8" fill="#C15065"></circle><circle cx="250.2" cy="510.5" r="1.8" fill="#C15065"></circle><circle cx="255.2" cy="507.6" r="1.8" fill="#C15065"></circle><circle cx="260.2" cy="504.7" r="1.8" fill="#C15065"></circle><circle cx="265.2" cy="504" r="1.8" fill="#C15065"></circle><circle cx="270.3" cy="502.1" r="1.8" fill="#C15065"></circle><circle cx="275.3" cy="499" r="1.8" fill="#C15065"></circle><circle cx="280.3" cy="499.6" r="1.8" fill="#C15065"></circle><circle cx="285.3" cy="498.7" r="1.8" fill="#C15065"></circle><circle cx="290.3" cy="496.6" r="1.8" fill="#C15065"></circle><circle cx="295.4" cy="494" r="1.8" fill="#C15065"></circle><circle cx="300.4" cy="494.5" r="1.8" fill="#C15065"></circle><circle cx="305.4" cy="493.4" r="1.8" fill="#C15065"></circle><circle cx="310.4" cy="494.6" r="1.8" fill="#C15065"></circle><circle cx="315.5" cy="496" r="1.8" fill="#C15065"></circle><circle cx="320.5" cy="498.6" r="1.8" fill="#C15065"></circle><circle cx="325.5" cy="496.6" r="1.8" fill="#C15065"></circle><circle cx="330.5" cy="495.3" r="1.8" fill="#C15065"></circle><circle cx="335.5" cy="495.9" r="1.8" fill="#C15065"></circle><circle cx="340.6" cy="496" r="1.8" fill="#C15065"></circle><circle cx="345.6" cy="497.6" r="1.8" fill="#C15065"></circle><circle cx="350.6" cy="495.9" r="1.8" fill="#C15065"></circle><circle cx="355.6" cy="489.8" r="1.8" fill="#C15065"></circle><circle cx="360.7" cy="487.7" r="1.8" fill="#C15065"></circle><circle cx="365.7" cy="485" r="1.8" fill="#C15065"></circle><circle cx="370.7" cy="482.6" r="1.8" fill="#C15065"></circle><circle cx="375.7" cy="479.4" r="1.8" fill="#C15065"></circle><circle cx="380.7" cy="486.7" r="1.8" fill="#C15065"></circle><circle cx="385.8" cy="479.5" r="1.8" fill="#C15065"></circle><circle cx="390.8" cy="475.4" r="1.8" fill="#C15065"></circle><circle cx="395.8" cy="470.6" r="1.8" fill="#C15065"></circle><circle cx="400.8" cy="471.1" r="1.8" fill="#C15065"></circle><circle cx="405.9" cy="473.2" r="1.8" fill="#C15065"></circle><circle cx="410.9" cy="469.4" r="1.8" fill="#C15065"></circle><circle cx="415.9" cy="463.1" r="1.8" fill="#C15065"></circle><circle cx="420.9" cy="464.6" r="1.8" fill="#C15065"></circle><circle cx="425.9" cy="460.2" r="1.8" fill="#C15065"></circle><circle cx="431" cy="454.6" r="1.8" fill="#C15065"></circle><circle cx="436" cy="455.8" r="1.8" fill="#C15065"></circle><circle cx="441" cy="439.2" r="1.8" fill="#C15065"></circle><circle cx="446" cy="438.1" r="1.8" fill="#C15065"></circle><circle cx="451.1" cy="441.2" r="1.8" fill="#C15065"></circle><circle cx="456.1" cy="429.5" r="1.8" fill="#C15065"></circle><circle cx="461.1" cy="422.4" r="1.8" fill="#C15065"></circle><circle cx="466.1" cy="418.7" r="1.8" fill="#C15065"></circle><circle cx="471.1" cy="419.9" r="1.8" fill="#C15065"></circle><circle cx="476.2" cy="415.6" r="1.8" fill="#C15065"></circle><circle cx="481.2" cy="435.6" r="1.8" fill="#C15065"></circle><circle cx="486.2" cy="432.3" r="1.8" fill="#C15065"></circle><circle cx="491.2" cy="421.4" r="1.8" fill="#C15065"></circle><circle cx="496.3" cy="427.6" r="1.8" fill="#C15065"></circle><circle cx="501.3" cy="440" r="1.8" fill="#C15065"></circle><circle cx="506.3" cy="433.9" r="1.8" fill="#C15065"></circle><circle cx="511.3" cy="422.1" r="1.8" fill="#C15065"></circle><circle cx="516.3" cy="417.4" r="1.8" fill="#C15065"></circle><circle cx="521.4" cy="412.8" r="1.8" fill="#C15065"></circle><circle cx="526.4" cy="408.2" r="1.8" fill="#C15065"></circle><circle cx="531.4" cy="401" r="1.8" fill="#C15065"></circle><circle cx="536.4" cy="396.9" r="1.8" fill="#C15065"></circle><circle cx="541.5" cy="398.4" r="1.8" fill="#C15065"></circle><circle cx="546.5" cy="394.2" r="1.8" fill="#C15065"></circle><circle cx="551.5" cy="394.2" r="1.8" fill="#C15065"></circle><circle cx="556.5" cy="403.8" r="1.8" fill="#C15065"></circle><circle cx="561.6" cy="403.4" r="1.8" fill="#C15065"></circle><circle cx="566.6" cy="390.7" r="1.8" fill="#C15065"></circle><circle cx="571.6" cy="388.3" r="1.8" fill="#C15065"></circle><circle cx="576.6" cy="378.9" r="1.8" fill="#C15065"></circle><circle cx="581.6" cy="374.2" r="1.8" fill="#C15065"></circle><circle cx="586.7" cy="375.3" r="1.8" fill="#C15065"></circle><circle cx="591.7" cy="361.2" r="1.8" fill="#C15065"></circle><circle cx="596.7" cy="354.2" r="1.8" fill="#C15065"></circle><circle cx="601.7" cy="354.2" r="1.8" fill="#C15065"></circle><circle cx="606.8" cy="351.8" r="1.8" fill="#C15065"></circle><circle cx="611.8" cy="354.2" r="1.8" fill="#C15065"></circle><circle cx="616.8" cy="341.2" r="1.8" fill="#C15065"></circle><circle cx="621.8" cy="328.3" r="1.8" fill="#C15065"></circle><circle cx="626.8" cy="308.2" r="1.8" fill="#C15065"></circle><circle cx="631.9" cy="321.2" r="1.8" fill="#C15065"></circle><circle cx="636.9" cy="347.1" r="1.8" fill="#C15065"></circle><circle cx="641.9" cy="311.8" r="1.8" fill="#C15065"></circle><circle cx="646.9" cy="237.6" r="1.8" fill="#C15065"></circle><circle cx="652" cy="210.5" r="1.8" fill="#C15065"></circle><circle cx="657" cy="205.8" r="1.8" fill="#C15065"></circle><circle cx="662" cy="262.3" r="1.8" fill="#C15065"></circle><circle cx="667" cy="264.7" r="1.8" fill="#C15065"></circle><circle cx="672" cy="277.6" r="1.8" fill="#C15065"></circle><circle cx="677.1" cy="255.3" r="1.8" fill="#C15065"></circle><circle cx="682.1" cy="232.9" r="1.8" fill="#C15065"></circle><circle cx="687.1" cy="208.2" r="1.8" fill="#C15065"></circle><circle cx="692.1" cy="217.6" r="1.8" fill="#C15065"></circle><circle cx="697.2" cy="191.7" r="1.8" fill="#C15065"></circle><circle cx="702.2" cy="128.1" r="1.8" fill="#C15065"></circle><circle cx="707.2" cy="89.3" r="1.8" fill="#C15065"></circle></g></g></g></g></g></g><g id="footer" class="SourcesFooter" style="fill:#5b5b5b"><g id="sources" class="markdown-text-wrap"><text x="16.0" y="562.7" style="font-size:13.5px;line-height:1.2"><tspan x="16" y="562.7"><tspan style="font-weight:700">Data source:</tspan> USGS - Mineral Commodity Summaries (2024); USGS - Historical Statistics for Mineral and Material Commodities (2023)</tspan></text></g><text id="origin-url" font-size="13.50" x="16.0" y="580.9"><tspan x="16" y="580.8950000000001"><a target="_blank" style="fill: #5b5b5b;" href="https://creativecommons.org/licenses/by/4.0/">CC BY</a></tspan></text></g><line id="separator-line" x1="16" y1="600" x2="834" y2="600" stroke="#e7e7e7"></line><g id="details" transform="translate(15, 616)"><g class="markdown-text-wrap"><text x="0.0" y="12.0" style="font-size:12.375px;fill:#5b5b5b;line-height:1.2"><tspan x="0" y="12.0"><tspan style="font-weight:700">1.</tspan> <tspan style="font-weight:700">Refined production</tspan>: Refined production is the process of taking raw materials, such as metals extracted from ores, and purifying them to achieve</tspan><tspan x="0" y="26.9">a higher quality or more usable form. After metals are initially extracted from ore through processes like smelting, they often contain impurities or are</tspan><tspan x="0" y="41.7">not in the ideal form for manufacturing. Refining involves further processing these metals to remove impurities and adjust their composition to meet</tspan><tspan x="0" y="56.6">specific standards. Refined production is essential for transforming raw materials into high-quality metals that are crucial for industries and</tspan><tspan x="0" y="71.4">consumers, from manufacturing electronics to constructing buildings.</tspan></text></g></g></svg>