<svg xmlns="http://www.w3.org/2000/svg" version="1.1" style="font-family:Lato, &#x27;Helvetica Neue&#x27;, Helvetica, Arial, &#x27;Liberation Sans&#x27;, sans-serif;font-size:18px;background-color:white;text-rendering:geometricPrecision;-webkit-font-smoothing:antialiased" width="850" height="600" viewBox="0 0 850 600"><defs><style>@import url(https://ourworldindata.org/fonts.css)</style></defs><defs><pattern id="noDataPattern" patternUnits="userSpaceOnUse" width="4" height="4" patternTransform="rotate(-45 2 2)"><path d="M -1,2 l 6,0" stroke="#ccc" stroke-width="0.7"></path></pattern></defs><rect class="background-fill" fill="white" width="850" height="600"></rect><g id="header" class="HeaderView"><g id="logo" transform="translate(769, 16) scale(1)"><svg className="owidLogo" xmlns="http://www.w3.org/2000/svg" width="65" height="36" viewBox="0 0 65 36"  fill="none"><path fill="#002147" d="M0 0h64.8v36H0z"/><path fill="#CE261E" d="M0 33.3h64.8V36H0z"/><path fill="#fff" d="M13.796 10.575c0 .636-.106 1.226-.318 1.77a4.193 4.193 0 0 1-.894 1.404 4.084 4.084 0 0 1-1.386.93c-.54.22-1.138.33-1.794.33-.656 0-1.256-.11-1.8-.33a4.149 4.149 0 0 1-1.392-.93 4.193 4.193 0 0 1-.894-1.404A4.833 4.833 0 0 1 5 10.575c0-.636.106-1.224.318-1.764a4.18 4.18 0 0 1 .894-1.41 4.076 4.076 0 0 1 1.392-.924 4.684 4.684 0 0 1 1.8-.336c.656 0 1.254.112 1.794.336.54.224 1.002.534 1.386.93.384.392.682.86.894 1.404.212.54.318 1.128.318 1.764Zm-1.656 0c0-.476-.064-.902-.192-1.278a2.671 2.671 0 0 0-.54-.966 2.332 2.332 0 0 0-.864-.606 2.94 2.94 0 0 0-1.14-.21c-.424 0-.806.07-1.146.21-.34.14-.63.342-.87.606a2.742 2.742 0 0 0-.546.966 3.955 3.955 0 0 0-.192 1.278c0 .476.064.904.192 1.284.128.376.31.696.546.96.24.26.53.46.87.6.34.14.722.21 1.146.21.424 0 .804-.07 1.14-.21.34-.14.628-.34.864-.6.236-.264.416-.584.54-.96a4.01 4.01 0 0 0 .192-1.284ZM16.104 8.757v3.912c0 .376.086.668.258.876.176.204.438.306.786.306.256 0 .496-.056.72-.168a2.58 2.58 0 0 0 .636-.474V8.757h1.482v6.156h-.906c-.192 0-.318-.09-.378-.27l-.102-.492a4.65 4.65 0 0 1-.396.354 2.577 2.577 0 0 1-.438.27 2.35 2.35 0 0 1-.498.168 2.345 2.345 0 0 1-.57.066c-.336 0-.634-.056-.894-.168a1.821 1.821 0 0 1-.648-.486 2.157 2.157 0 0 1-.402-.738 3.233 3.233 0 0 1-.132-.948V8.757h1.482ZM21.328 14.913V8.757h.87c.152 0 .258.028.318.084.06.056.1.152.12.288l.09.744c.22-.38.478-.68.774-.9.296-.22.628-.33.996-.33.304 0 .556.07.756.21l-.192 1.11c-.012.072-.038.124-.078.156a.278.278 0 0 1-.162.042 1.01 1.01 0 0 1-.246-.042 1.646 1.646 0 0 0-.414-.042c-.308 0-.572.086-.792.258-.22.168-.406.416-.558.744v3.834h-1.482ZM27.347 6.237h1.356a.57.57 0 0 1 .348.102c.096.064.16.152.192.264l1.476 5.19c.036.128.068.268.096.42.032.148.062.306.09.474a5.968 5.968 0 0 1 .228-.894l1.704-5.19a.575.575 0 0 1 .186-.252.543.543 0 0 1 .348-.114h.474a.57.57 0 0 1 .348.102.497.497 0 0 1 .192.264l1.692 5.19c.088.256.164.54.228.852.028-.156.056-.306.084-.45.032-.144.064-.278.096-.402l1.476-5.19c.028-.1.09-.186.186-.258a.563.563 0 0 1 .348-.108h1.266l-2.694 8.676h-1.458l-1.896-5.928-.078-.246a9.504 9.504 0 0 1-.072-.282c-.024.1-.05.194-.078.282-.024.088-.048.17-.072.246l-1.914 5.928H30.04l-2.694-8.676ZM42.771 8.661c.46 0 .876.074 1.248.222.376.148.696.358.96.63s.468.604.612.996c.144.392.216.83.216 1.314 0 .488-.072.928-.216 1.32a2.85 2.85 0 0 1-.612 1.002 2.653 2.653 0 0 1-.96.636 3.35 3.35 0 0 1-1.248.222c-.46 0-.878-.074-1.254-.222a2.712 2.712 0 0 1-.966-.636 2.922 2.922 0 0 1-.618-1.002 3.807 3.807 0 0 1-.216-1.32c0-.484.072-.922.216-1.314.148-.392.354-.724.618-.996.268-.272.59-.482.966-.63a3.397 3.397 0 0 1 1.254-.222Zm0 5.202c.512 0 .89-.172 1.134-.516.248-.344.372-.848.372-1.512s-.124-1.17-.372-1.518c-.244-.348-.622-.522-1.134-.522-.52 0-.904.176-1.152.528-.248.348-.372.852-.372 1.512s.124 1.164.372 1.512c.248.344.632.516 1.152.516ZM46.723 14.913V8.757h.87c.152 0 .258.028.318.084.06.056.1.152.12.288l.09.744c.22-.38.478-.68.774-.9.296-.22.628-.33.996-.33.304 0 .556.07.756.21l-.192 1.11c-.012.072-.038.124-.078.156a.278.278 0 0 1-.162.042 1.01 1.01 0 0 1-.246-.042 1.646 1.646 0 0 0-.414-.042c-.308 0-.572.086-.792.258-.22.168-.406.416-.558.744v3.834h-1.482ZM52.96 5.997v8.916h-1.482V5.997h1.482ZM58.732 14.913c-.192 0-.318-.09-.378-.27l-.12-.594a3.68 3.68 0 0 1-.402.39c-.14.116-.292.216-.456.3-.16.084-.334.148-.522.192a2.372 2.372 0 0 1-.6.072c-.336 0-.644-.07-.924-.21a2.098 2.098 0 0 1-.726-.606 3.033 3.033 0 0 1-.468-.99 5.072 5.072 0 0 1-.162-1.344c0-.456.062-.88.186-1.272s.302-.732.534-1.02c.232-.288.51-.512.834-.672a2.384 2.384 0 0 1 1.092-.246 2.103 2.103 0 0 1 1.536.606V5.997h1.482v8.916h-.906Zm-1.974-1.086c.308 0 .57-.064.786-.192.216-.128.42-.31.612-.546v-2.76a1.452 1.452 0 0 0-.552-.432 1.597 1.597 0 0 0-.636-.126c-.224 0-.428.042-.612.126a1.21 1.21 0 0 0-.462.384c-.124.168-.22.384-.288.648-.068.26-.102.568-.102.924 0 .36.028.666.084.918.06.248.144.452.252.612.108.156.24.27.396.342.156.068.33.102.522.102ZM16.331 20.757v6.156H14.85v-6.156h1.481Zm.223-1.794a.844.844 0 0 1-.078.36.963.963 0 0 1-.21.294.995.995 0 0 1-.3.204.963.963 0 0 1-.372.072.948.948 0 0 1-.367-.072 1.018 1.018 0 0 1-.498-.498.963.963 0 0 1 0-.732.995.995 0 0 1 .205-.3.929.929 0 0 1 .293-.198.899.899 0 0 1 .738 0 .912.912 0 0 1 .3.198.943.943 0 0 1 .288.672ZM17.771 26.913v-6.156h.906c.192 0 .318.09.378.27l.102.486a2.934 2.934 0 0 1 .828-.618c.156-.076.322-.134.498-.174.176-.04.368-.06.576-.06.336 0 .634.058.894.174.26.112.476.272.648.48.176.204.308.45.396.738.092.284.138.598.138.942v3.918h-1.482v-3.918c0-.376-.088-.666-.264-.87-.172-.208-.432-.312-.78-.312-.256 0-.496.058-.72.174a2.58 2.58 0 0 0-.636.474v4.452h-1.482ZM34.22 22.575c0 .636-.106 1.22-.318 1.752-.212.532-.51.99-.894 1.374a4 4 0 0 1-1.386.894 4.87 4.87 0 0 1-1.794.318h-3.312v-8.676h3.312a4.79 4.79 0 0 1 1.794.324 4 4 0 0 1 1.386.894c.384.38.682.836.894 1.368.212.532.318 1.116.318 1.752Zm-1.65 0c0-.476-.064-.902-.192-1.278a2.68 2.68 0 0 0-.546-.96 2.332 2.332 0 0 0-.864-.606 2.94 2.94 0 0 0-1.14-.21h-1.686v6.108h1.686c.424 0 .804-.07 1.14-.21.34-.14.628-.34.864-.6a2.75 2.75 0 0 0 .546-.96 4.01 4.01 0 0 0 .192-1.284ZM39.98 26.913h-.665c-.14 0-.25-.02-.33-.06-.08-.044-.14-.13-.18-.258l-.132-.438c-.156.14-.31.264-.462.372a2.804 2.804 0 0 1-.462.264c-.16.072-.33.126-.51.162-.18.036-.38.054-.6.054-.26 0-.5-.034-.72-.102a1.618 1.618 0 0 1-.57-.318 1.448 1.448 0 0 1-.366-.522 1.852 1.852 0 0 1-.132-.726c0-.232.06-.46.18-.684.124-.228.328-.432.612-.612.284-.184.662-.336 1.134-.456.472-.12 1.058-.188 1.758-.204v-.36c0-.412-.088-.716-.264-.912-.172-.2-.424-.3-.756-.3a1.837 1.837 0 0 0-1.02.276c-.116.068-.224.13-.324.186a.664.664 0 0 1-.33.084.429.429 0 0 1-.258-.078.614.614 0 0 1-.174-.192l-.27-.474c.708-.648 1.562-.972 2.562-.972.36 0 .68.06.96.18.284.116.524.28.72.492.196.208.344.458.444.75.104.292.156.612.156.96v3.888Zm-2.88-.924c.153 0 .293-.014.42-.042.129-.028.249-.07.36-.126.117-.056.227-.124.33-.204.109-.084.217-.182.325-.294v-1.038c-.432.02-.794.058-1.086.114-.288.052-.52.12-.696.204a.923.923 0 0 0-.378.294.664.664 0 0 0-.108.366c0 .26.076.446.228.558.156.112.358.168.606.168ZM43.22 27.01c-.532 0-.942-.15-1.23-.45-.288-.305-.432-.723-.432-1.255v-3.438h-.624a.31.31 0 0 1-.21-.078c-.056-.052-.084-.13-.084-.234v-.588l.99-.162.312-1.68a.302.302 0 0 1 .108-.186.365.365 0 0 1 .222-.066h.768v1.938h1.62v1.056h-1.62v3.336c0 .192.048.342.144.45a.488.488 0 0 0 .384.162c.092 0 .168-.01.228-.03.064-.024.118-.048.162-.072.048-.024.09-.046.126-.066a.194.194 0 0 1 .108-.036.16.16 0 0 1 .108.036c.028.02.058.052.09.096l.444.72c-.216.18-.464.316-.744.408a2.77 2.77 0 0 1-.87.138ZM50.423 26.913h-.666c-.14 0-.25-.02-.33-.06-.08-.044-.14-.13-.18-.258l-.132-.438c-.156.14-.31.264-.462.372a2.804 2.804 0 0 1-.462.264c-.16.072-.33.126-.51.162-.18.036-.38.054-.6.054-.26 0-.5-.034-.72-.102a1.618 1.618 0 0 1-.57-.318 1.448 1.448 0 0 1-.366-.522 1.852 1.852 0 0 1-.132-.726c0-.232.06-.46.18-.684.124-.228.328-.432.612-.612.284-.184.662-.336 1.134-.456.472-.12 1.058-.188 1.758-.204v-.36c0-.412-.088-.716-.264-.912-.172-.2-.424-.3-.756-.3a1.837 1.837 0 0 0-1.02.276c-.116.068-.224.13-.324.186a.664.664 0 0 1-.33.084.429.429 0 0 1-.258-.078.614.614 0 0 1-.174-.192l-.27-.474c.708-.648 1.562-.972 2.562-.972.36 0 .68.06.96.18.284.116.524.28.72.492.196.208.344.458.444.75.104.292.156.612.156.96v3.888Zm-2.88-.924c.152 0 .292-.014.42-.042.128-.028.248-.07.36-.126.116-.056.226-.124.33-.204.108-.084.216-.182.324-.294v-1.038c-.432.02-.794.058-1.086.114-.288.052-.52.12-.696.204a.923.923 0 0 0-.378.294.664.664 0 0 0-.108.366c0 .26.076.446.228.558.156.112.358.168.606.168Z"/></svg></g><a id="title" href="https://ourworldindata.org/explorers/minerals?country=OWID_WRL~AUS~CHL~CHN~USA~ZWE~CAN~ALB~DZA~ARG~ARM~AUT~AZE~BOL~BWA~BRA~BGR~COL~COG~CUB~CYP~OWID_CZS~COD~DOM~OWID_GDR~ECU~ERI~FIN~FRA~GEO~DEU~GRC~GTM~HTI~HND~HUN~IND~IDN~IRN~IRL~ZMB~OWID_GFR~OWID_YGS~VNM~GBR~UGA~UZB~OWID_USS~TUR~TZA~TJK~TWN~SWE~ESP~KOR~ZAF~SVK~OWID_SRM~SRB~SAU~RUS~ROU~PRT~POL~PHL~PER~PNG~PAN~PAK~OMN~NOR~MKD~PRK~NIC~NZL~NAM~MMR~MOZ~MAR~MNG~MEX~MRT~MYS~LAO~KGZ~KEN~KAZ~JPN~ITA~ISR~BEL~THA~EGY~UKR~Other~MDG~NCL~OWID_KOS~VEN&amp;Mineral=Nickel&amp;Metric=Production&amp;Type=Processing&amp;Share+of+global=false" style="font-family:&#x27;Playfair Display&#x27;, Georgia, &#x27;Times New Roman&#x27;, &#x27;Liberation Serif&#x27;, serif" target="_blank" rel="noopener"><text font-size="24.75" font-weight="600" x="16.0" y="40.0" fill="#5b5b5b"><tspan x="16" y="40.0075">Nickel production, 1977 to 2022</tspan></text></a><g id="subtitle" class="markdown-text-wrap"><text x="16.0" y="63.9" style="font-size:14.625px;line-height:1.2" fill="#5b5b5b"><tspan x="16" y="63.9">Mineral processing involves the extraction, purification, or production of materials from ores, brines, or other raw</tspan><tspan x="16" y="81.4">sources, often as a byproduct or through specialized industrial processes.</tspan></text></g></g><g id="chart-area" style="pointer-events:none"><g id="line-chart" class="LineChart"><defs><clipPath id="boundsClip-122"><rect x="79.44500000000001" y="90.8" width="838" height="471"></rect></clipPath></defs><rect x="16" y="100.8" width="818" height="451" fill="none"></rect><g id="dual-axis" class="DualAxisView"><g id="horizontal-axis" class="HorizontalAxis"><g id="tick__1977"><line x1="89.4" y1="530.8" x2="89.4" y2="536.3" stroke="#999" stroke-width="1"></line><text x="89.44500000000001" y="549.8" fill="#5b5b5b" text-anchor="start" font-size="13.5">1977</text></g><g id="tick__2022"><line x1="657.3" y1="530.8" x2="657.3" y2="536.3" stroke="#999" stroke-width="1"></line><text x="657.25" y="549.8" fill="#5b5b5b" text-anchor="end" font-size="13.5">2022</text></g><g id="tick__1990"><line x1="253.5" y1="530.8" x2="253.5" y2="536.3" stroke="#999" stroke-width="1"></line><text x="253.5" y="549.8" fill="#5b5b5b" text-anchor="middle" font-size="13.5">1990</text></g><g id="tick__2000"><line x1="379.7" y1="530.8" x2="379.7" y2="536.3" stroke="#999" stroke-width="1"></line><text x="379.7" y="549.8" fill="#5b5b5b" text-anchor="middle" font-size="13.5">2000</text></g><g id="tick__2010"><line x1="505.8" y1="530.8" x2="505.8" y2="536.3" stroke="#999" stroke-width="1"></line><text x="505.8" y="549.8" fill="#5b5b5b" text-anchor="middle" font-size="13.5">2010</text></g></g><g id="vertical-axis" class="VerticalAxis"><g id="tick-labels"><text id="tick-label__0-t" x="84.45" y="531.3" dy=".32em" text-anchor="end" fill="#5b5b5b" font-size="13.5">0 t</text><text id="tick-label__500__002c000-t" x="84.45" y="463.7" dy=".32em" text-anchor="end" fill="#5b5b5b" font-size="13.5">500,000 t</text><text id="tick-label__1-million-t" x="84.45" y="396" dy=".32em" text-anchor="end" fill="#5b5b5b" font-size="13.5">1 million t</text><text id="tick-label__1__002e5-million-t" x="84.45" y="328.4" dy=".32em" text-anchor="end" fill="#5b5b5b" font-size="13.5">1.5 million t</text><text id="tick-label__2-million-t" x="84.45" y="260.8" dy=".32em" text-anchor="end" fill="#5b5b5b" font-size="13.5">2 million t</text><text id="tick-label__2__002e5-million-t" x="84.45" y="193.1" dy=".32em" text-anchor="end" fill="#5b5b5b" font-size="13.5">2.5 million t</text><text id="tick-label__3-million-t" x="84.45" y="125.5" dy=".32em" text-anchor="end" fill="#5b5b5b" font-size="13.5">3 million t</text></g></g><g id="horizontal-grid-lines" class="AxisGridLines horizontalLines"><line id="grid-line__0" x1="89.45" y1="531.3" x2="657.25" y2="531.3" stroke="#999" stroke-width="1"></line><line id="grid-line__500000" x1="89.45" y1="463.7" x2="657.25" y2="463.7" stroke="#ddd" stroke-width="1" stroke-dasharray="3,2"></line><line id="grid-line__1000000" x1="89.45" y1="396" x2="657.25" y2="396" stroke="#ddd" stroke-width="1" stroke-dasharray="3,2"></line><line id="grid-line__1500000" x1="89.45" y1="328.4" x2="657.25" y2="328.4" stroke="#ddd" stroke-width="1" stroke-dasharray="3,2"></line><line id="grid-line__2000000" x1="89.45" y1="260.8" x2="657.25" y2="260.8" stroke="#ddd" stroke-width="1" stroke-dasharray="3,2"></line><line id="grid-line__2500000" x1="89.45" y1="193.1" x2="657.25" y2="193.1" stroke="#ddd" stroke-width="1" stroke-dasharray="3,2"></line><line id="grid-line__3000000" x1="89.45" y1="125.5" x2="657.25" y2="125.5" stroke="#ddd" stroke-width="1" stroke-dasharray="3,2"></line></g></g><g clip-path="url(#boundsClip-122)"><g id="line-labels" class="LineLabels"><g id="mark__World" class="legendMark" style="cursor:default"><g id="connector" class="indicator"><path d="M661.25,106.8 H674.75 V107.55 H688.25" stroke="#999" stroke-width="0.5" fill="none"></path></g><rect id="background" x="657.25" y="100.8" width="70.235" height="13.5" fill="#fff" opacity="0"></rect><text id="label" font-size="13.50" font-weight="400" x="692.3" y="112.5" fill="#c15065"><tspan x="692.25" y="112.545">World</tspan></text></g><g id="mark__Indonesia" class="legendMark" style="cursor:default"><g id="connector" class="indicator"><path d="M661.25,373.7 H662.2142857142857 V126.55000000000001 H688.25" stroke="#999" stroke-width="0.5" fill="none"></path></g><rect id="background" x="657.25" y="119.80000000000001" width="93.86000000000001" height="13.5" fill="#fff" opacity="0"></rect><text id="label" font-size="13.50" font-weight="400" x="692.3" y="131.5" fill="#008291"><tspan x="692.25" y="131.54500000000002">Indonesia</tspan></text></g><g id="mark__China" class="legendMark" style="cursor:default"><g id="connector" class="indicator"><path d="M661.25,416.3 H663.1785714285713 V142.05 H688.25" stroke="#999" stroke-width="0.5" fill="none"></path></g><rect id="background" x="657.25" y="135.3" width="70.37" height="13.5" fill="#fff" opacity="0"></rect><text id="label" font-size="13.50" font-weight="400" x="692.3" y="147.0" fill="#cf0a66"><tspan x="692.25" y="147.04500000000002">China</tspan></text></g><g id="mark__USSR" class="legendMark" style="cursor:default"><g id="connector" class="indicator"><path d="M661.25,496.5 H664.1428571428571 V157.55 H688.25" stroke="#999" stroke-width="0.5" fill="none"></path></g><rect id="background" x="657.25" y="150.8" width="72.53" height="13.5" fill="#fff" opacity="0"></rect><text id="label" font-size="13.50" font-weight="400" x="692.3" y="162.5" fill="#d73c50"><tspan x="692.25" y="162.54500000000002">USSR</tspan></text></g><g id="mark__Japan" class="legendMark" style="cursor:default"><g id="connector" class="indicator"><path d="M661.25,511.3 H665.1071428571428 V173.05 H688.25" stroke="#999" stroke-width="0.5" fill="none"></path></g><rect id="background" x="657.25" y="166.3" width="71.99000000000001" height="13.5" fill="#fff" opacity="0"></rect><text id="label" font-size="13.50" font-weight="400" x="692.3" y="178.0" fill="#970046"><tspan x="692.25" y="178.04500000000002">Japan</tspan></text></g><g id="mark__Canada" class="legendMark" style="cursor:default"><g id="connector" class="indicator"><path d="M661.25,511.9 H666.0714285714286 V188.55 H688.25" stroke="#999" stroke-width="0.5" fill="none"></path></g><rect id="background" x="657.25" y="181.8" width="82.52000000000001" height="13.5" fill="#fff" opacity="0"></rect><text id="label" font-size="13.50" font-weight="400" x="692.3" y="193.5" fill="#286bbb"><tspan x="692.25" y="193.54500000000002">Canada</tspan></text></g><g id="mark__Russia" class="legendMark" style="cursor:default"><g id="connector" class="indicator"><path d="M661.25,512 H667.0357142857142 V204.05 H688.25" stroke="#999" stroke-width="0.5" fill="none"></path></g><rect id="background" x="657.25" y="197.3" width="76.31" height="13.5" fill="#fff" opacity="0"></rect><text id="label" font-size="13.50" font-weight="400" x="692.3" y="209.0" fill="#a2559c"><tspan x="692.25" y="209.04500000000002">Russia</tspan></text></g><g id="mark__Australia" class="legendMark" style="cursor:default"><g id="connector" class="indicator"><path d="M661.25,518.2 H668 V219.55 H688.25" stroke="#999" stroke-width="0.5" fill="none"></path></g><rect id="background" x="657.25" y="212.8" width="87.65" height="13.5" fill="#fff" opacity="0"></rect><text id="label" font-size="13.50" font-weight="400" x="692.3" y="224.5" fill="#2c8465"><tspan x="692.25" y="224.54500000000002">Australia</tspan></text></g><g id="mark__Finland" class="legendMark" style="cursor:default"><g id="connector" class="indicator"><path d="M661.25,518.9 H668.9642857142857 V235.05 H688.25" stroke="#999" stroke-width="0.5" fill="none"></path></g><rect id="background" x="657.25" y="228.3" width="79.415" height="13.5" fill="#fff" opacity="0"></rect><text id="label" font-size="13.50" font-weight="400" x="692.3" y="240.0" fill="#6d3e91"><tspan x="692.25" y="240.04500000000002">Finland</tspan></text></g><g id="mark__Norway" class="legendMark" style="cursor:default"><g id="connector" class="indicator"><path d="M661.25,520.2 H669.9285714285713 V250.55 H688.25" stroke="#999" stroke-width="0.5" fill="none"></path></g><rect id="background" x="657.25" y="243.8" width="80.765" height="13.5" fill="#fff" opacity="0"></rect><text id="label" font-size="13.50" font-weight="400" x="692.3" y="255.5" fill="#338711"><tspan x="692.25" y="255.54500000000002">Norway</tspan></text></g><g id="mark__New-Caledonia" class="legendMark" style="cursor:default"><g id="connector" class="indicator"><path d="M661.25,522.3 H670.8928571428571 V266.05 H688.25" stroke="#999" stroke-width="0.5" fill="none"></path></g><rect id="background" x="657.25" y="259.3" width="126.80000000000001" height="13.5" fill="#fff" opacity="0"></rect><text id="label" font-size="13.50" font-weight="400" x="692.3" y="271.0" fill="#c15065"><tspan x="692.25" y="271.045">New Caledonia</tspan></text></g><g id="mark__Brazil" class="legendMark" style="cursor:default"><g id="connector" class="indicator"><path d="M661.25,522.7 H671.8571428571428 V281.55 H688.25" stroke="#999" stroke-width="0.5" fill="none"></path></g><rect id="background" x="657.25" y="274.8" width="68.75" height="13.5" fill="#fff" opacity="0"></rect><text id="label" font-size="13.50" font-weight="400" x="692.3" y="286.5" fill="#970046"><tspan x="692.25" y="286.545">Brazil</tspan></text></g><g id="mark__South-Korea" class="legendMark" style="cursor:default"><g id="connector" class="indicator"><path d="M661.25,525.4 H672.8214285714286 V297.05 H688.25" stroke="#999" stroke-width="0.5" fill="none"></path></g><rect id="background" x="657.25" y="290.3" width="110.465" height="13.5" fill="#fff" opacity="0"></rect><text id="label" font-size="13.50" font-weight="400" x="692.3" y="302.0" fill="#286bbb"><tspan x="692.25" y="302.045">South Korea</tspan></text></g><g id="mark__Colombia" class="legendMark" style="cursor:default"><g id="connector" class="indicator"><path d="M661.25,525.6 H673.7857142857142 V312.55 H688.25" stroke="#999" stroke-width="0.5" fill="none"></path></g><rect id="background" x="657.25" y="305.8" width="92.105" height="13.5" fill="#fff" opacity="0"></rect><text id="label" font-size="13.50" font-weight="400" x="692.3" y="317.5" fill="#b13507"><tspan x="692.25" y="317.545">Colombia</tspan></text></g><g id="mark__South-Africa" class="legendMark" style="cursor:default"><g id="connector" class="indicator"><path d="M661.25,525.9 H674.75 V328.05 H688.25" stroke="#999" stroke-width="0.5" fill="none"></path></g><rect id="background" x="657.25" y="321.3" width="108.845" height="13.5" fill="#fff" opacity="0"></rect><text id="label" font-size="13.50" font-weight="400" x="692.3" y="333.0" fill="#883039"><tspan x="692.25" y="333.045">South Africa</tspan></text></g><g id="mark__Madagascar" class="legendMark" style="cursor:default"><g id="connector" class="indicator"><path d="M661.25,526.5 H675.7142857142857 V343.55 H688.25" stroke="#999" stroke-width="0.5" fill="none"></path></g><rect id="background" x="657.25" y="336.8" width="109.52000000000001" height="13.5" fill="#fff" opacity="0"></rect><text id="label" font-size="13.50" font-weight="400" x="692.3" y="348.5" fill="#d73c50"><tspan x="692.25" y="348.545">Madagascar</tspan></text></g><g id="mark__United-Kingdom" class="legendMark" style="cursor:default"><g id="connector" class="indicator"><path d="M661.25,526.8 H676.6785714285713 V359.05 H688.25" stroke="#999" stroke-width="0.5" fill="none"></path></g><rect id="background" x="657.25" y="352.3" width="131.39" height="13.5" fill="#fff" opacity="0"></rect><text id="label" font-size="13.50" font-weight="400" x="692.3" y="364.0" fill="#b16214"><tspan x="692.25" y="364.045">United Kingdom</tspan></text></g><g id="mark__Dominican-Republic" class="legendMark" style="cursor:default"><g id="connector" class="indicator"><path d="M661.25,527.6 H677.6428571428571 V374.55 H688.25" stroke="#999" stroke-width="0.5" fill="none"></path></g><rect id="background" x="657.25" y="367.8" width="155.28500000000003" height="13.5" fill="#fff" opacity="0"></rect><text id="label" font-size="13.50" font-weight="400" x="692.3" y="379.5" fill="#d73c50"><tspan x="692.25" y="379.545">Dominican Republic</tspan></text></g><g id="mark__Guatemala" class="legendMark" style="cursor:default"><g id="connector" class="indicator"><path d="M661.25,528.9 H678.6071428571428 V390.05 H688.25" stroke="#999" stroke-width="0.5" fill="none"></path></g><rect id="background" x="657.25" y="383.3" width="101.28500000000001" height="13.5" fill="#fff" opacity="0"></rect><text id="label" font-size="13.50" font-weight="400" x="692.3" y="395.0" fill="#996d39"><tspan x="692.25" y="395.045">Guatemala</tspan></text></g><g id="mark__Cuba" class="legendMark" style="cursor:default"><g id="connector" class="indicator"><path d="M661.25,529.4 H679.5714285714286 V405.55 H688.25" stroke="#999" stroke-width="0.5" fill="none"></path></g><rect id="background" x="657.25" y="398.8" width="67.4" height="13.5" fill="#fff" opacity="0"></rect><text id="label" font-size="13.50" font-weight="400" x="692.3" y="410.5" fill="#00875e"><tspan x="692.25" y="410.545">Cuba</tspan></text></g><g id="mark__Taiwan" class="legendMark" style="cursor:default"><g id="connector" class="indicator"><path d="M661.25,529.8 H680.5357142857142 V421.05 H688.25" stroke="#999" stroke-width="0.5" fill="none"></path></g><rect id="background" x="657.25" y="414.3" width="78.605" height="13.5" fill="#fff" opacity="0"></rect><text id="label" font-size="13.50" font-weight="400" x="692.3" y="426.0" fill="#6d3e91"><tspan x="692.25" y="426.045">Taiwan</tspan></text></g><g id="mark__Myanmar" class="legendMark" style="cursor:default"><g id="connector" class="indicator"><path d="M661.25,529.9 H681.5 V436.55 H688.25" stroke="#999" stroke-width="0.5" fill="none"></path></g><rect id="background" x="657.25" y="429.8" width="91.295" height="13.5" fill="#fff" opacity="0"></rect><text id="label" font-size="13.50" font-weight="400" x="692.3" y="441.5" fill="#cf0a66"><tspan x="692.25" y="441.545">Myanmar</tspan></text></g><g id="mark__North-Macedonia" class="legendMark" style="cursor:default"><g id="connector" class="indicator"><path d="M661.25,530.2 H682.4642857142857 V452.05 H688.25" stroke="#999" stroke-width="0.5" fill="none"></path></g><rect id="background" x="657.25" y="445.3" width="138.14" height="13.5" fill="#fff" opacity="0"></rect><text id="label" font-size="13.50" font-weight="400" x="692.3" y="457.0" fill="#d73c50"><tspan x="692.25" y="457.045">North Macedonia</tspan></text></g><g id="mark__France" class="legendMark" style="cursor:default"><g id="connector" class="indicator"><path d="M661.25,530.3 H683.4285714285713 V467.55 H688.25" stroke="#999" stroke-width="0.5" fill="none"></path></g><rect id="background" x="657.25" y="460.8" width="77.12" height="13.5" fill="#fff" opacity="0"></rect><text id="label" font-size="13.50" font-weight="400" x="692.3" y="472.5" fill="#cf0a66"><tspan x="692.25" y="472.545">France</tspan></text></g><g id="mark__Zimbabwe" class="legendMark" style="cursor:default"><g id="connector" class="indicator"><path d="M661.25,530.7 H684.3928571428571 V483.05 H688.25" stroke="#999" stroke-width="0.5" fill="none"></path></g><rect id="background" x="657.25" y="476.3" width="97.37" height="13.5" fill="#fff" opacity="0"></rect><text id="label" font-size="13.50" font-weight="400" x="692.3" y="488.0" fill="#18470f"><tspan x="692.25" y="488.045">Zimbabwe</tspan></text></g><g id="mark__Yugoslavia" class="legendMark" style="cursor:default"><g id="connector" class="indicator"><path d="M661.25,530.9 H685.3571428571428 V498.55 H688.25" stroke="#999" stroke-width="0.5" fill="none"></path></g><rect id="background" x="657.25" y="491.8" width="101.28500000000001" height="13.5" fill="#fff" opacity="0"></rect><text id="label" font-size="13.50" font-weight="400" x="692.3" y="503.5" fill="#4c6a9c"><tspan x="692.25" y="503.545">Yugoslavia</tspan></text></g><g id="mark__Venezuela" class="legendMark" style="cursor:default"><g id="connector" class="indicator"><path d="M661.25,531 H686.3214285714286 V514.05 H688.25" stroke="#999" stroke-width="0.5" fill="none"></path></g><rect id="background" x="657.25" y="507.3" width="99.125" height="13.5" fill="#fff" opacity="0"></rect><text id="label" font-size="13.50" font-weight="400" x="692.3" y="519.0" fill="#6d3e91"><tspan x="692.25" y="519.045">Venezuela</tspan></text></g><g id="mark__Czechoslovakia" class="legendMark" style="cursor:default"><g id="connector" class="indicator"><path d="M661.25,531.1 H687.2857142857142 V529.55 H688.25" stroke="#999" stroke-width="0.5" fill="none"></path></g><rect id="background" x="657.25" y="522.8" width="129.77" height="13.5" fill="#fff" opacity="0"></rect><text id="label" font-size="13.50" font-weight="400" x="692.3" y="534.5" fill="#8c4569"><tspan x="692.25" y="534.545">Czechoslovakia</tspan></text></g><g id="mark__India" class="legendMark" style="cursor:default"><g id="connector" class="indicator"><path d="M661.25,531.3 H687.2857142857142 V545.05 H688.25" stroke="#999" stroke-width="0.5" fill="none"></path></g><rect id="background" x="657.25" y="538.3" width="64.43" height="13.5" fill="#fff" opacity="0"></rect><text id="label" font-size="13.50" font-weight="400" x="692.3" y="550.0" fill="#a2559c"><tspan x="692.25" y="550.045">India</tspan></text></g></g><g id="lines" class="Lines"><rect x="89" y="107" width="568" height="424" fill="rgba(255,255,255,0)" opacity="0"></rect><g id="line__India"><path stroke-linecap="round" stroke-linejoin="round" stroke="#ddd" d="M543.7 531.3L556.3 531.2L568.9 531.1L581.5 531.3L594.2 531.3L606.8 531.3L619.4 531.3L632 531.3L644.6 531.3L657.3 531.3" fill="none" stroke-width="1"></path></g><g id="line__Myanmar"><path stroke-linecap="round" stroke-linejoin="round" stroke="#ddd" d="M505.8 531.3L518.5 531.3L531.1 531.3L543.7 530L556.3 528.6L568.9 528.2L581.5 528.2L594.2 528.3L606.8 529.7L619.4 529.1L632 528.3L644.6 528.9L657.3 529.9" fill="none" stroke-width="1"></path></g><g id="line__Morocco"><path stroke-linecap="round" stroke-linejoin="round" stroke="#ddd" d="M505.8 531.3L518.5 531.3L531.1 531.3" fill="none" stroke-width="1"></path></g><g id="line__Guatemala"><path stroke-linecap="round" stroke-linejoin="round" stroke="#ddd" d="M505.8 531.3L518.5 531.3L531.1 531.3L543.7 531.3L556.3 530.8L568.9 529.8L581.5 530.1L594.2 529.6L606.8 529.3L619.4 528.6L632 528.2L644.6 528.6L657.3 528.9" fill="none" stroke-width="1"></path></g><g id="line__Madagascar"><path stroke-linecap="round" stroke-linejoin="round" stroke="#ddd" d="M480.6 531.3L493.2 531.3L505.8 531.3L518.5 531.3L531.1 530.5L543.7 527.9L556.3 526.3L568.9 524.9L581.5 525.6L594.2 526.5L606.8 526.8L619.4 526.7L632 530L644.6 527.3L657.3 526.5" fill="none" stroke-width="1"></path></g><g id="line__Serbia"><path stroke-linecap="round" stroke-linejoin="round" stroke="#ddd" d="M455.4 531.3L468 531.2" fill="none" stroke-width="1"></path></g><g id="line__Kosovo"><path stroke-linecap="round" stroke-linejoin="round" stroke="#ddd" d="M442.7 531.3L455.4 531.3L468 531.3L480.6 530.5L493.2 530.4L505.8 530.3L518.5 530.3L531.1 530.7L543.7 530.3L556.3 530.4L568.9 529.7L581.5 530.6L594.2 530.3L606.8 530.6L619.4 530.4L632 530.4L644.6 530.5L657.3 531.3" fill="none" stroke-width="1"></path></g><g id="line__Venezuela"><path stroke-linecap="round" stroke-linejoin="round" stroke="#ddd" d="M341.8 531.3L354.4 531.3L367 531.3L379.7 531.3L392.3 529.9L404.9 529L417.5 528.8L430.1 528.7L442.7 528.8L455.4 528.8L468 529.2L480.6 529.8L493.2 529.9L505.8 529.7L518.5 529.5L531.1 530.2L543.7 530.6L556.3 531L568.9 531" fill="none" stroke-width="1"></path></g><g id="line__Ukraine"><path stroke-linecap="round" stroke-linejoin="round" stroke="#ddd" d="M278.7 530.5L291.3 530.8L303.9 531L316.6 531L329.2 531.2L341.8 531.3L354.4 531.3L367 531.3L379.7 531.2L392.3 531L404.9 530.9L417.5 531.1L430.1 530.7L442.7 529.5L455.4 529.1L468 528.5L480.6 528L493.2 529.2L505.8 528.3L518.5 529L531.1 528.5L543.7 528.4L556.3 528.8L568.9 528.9L581.5 528.9L594.2 529.2L606.8 529.2L619.4 529.4L632 529.3L644.6 529.1L657.3 530.2" fill="none" stroke-width="1"></path></g><g id="line__Serbia-and-Montenegro"><path stroke-linecap="round" stroke-linejoin="round" stroke="#ddd" d="M278.7 531L291.3 531.2L303.9 531.2L316.6 531.2L329.2 531L341.8 531L354.4 531.2" fill="none" stroke-width="1"></path></g><g id="line__Russia"><path stroke-linecap="round" stroke-linejoin="round" stroke="#ddd" d="M278.7 497.6L291.3 505.9L303.9 505.5L316.6 504.1L329.2 504.8L341.8 498.7L354.4 499.7L367 499.1L379.7 501.4L392.3 497.8L404.9 498.4L417.5 496.1L430.1 495.4L442.7 494.9L455.4 493.4L468 494.5L480.6 496.4L493.2 498.2L505.8 495.8L518.5 495.5L531.1 496.9L543.7 498.6L556.3 499.6L568.9 500L581.5 505.8L594.2 502.6L606.8 509.9L619.4 508.8L632 508L644.6 514.9L657.3 512" fill="none" stroke-width="1"></path></g><g id="line__North-Macedonia"><path stroke-linecap="round" stroke-linejoin="round" stroke="#ddd" d="M278.7 530.9L291.3 530.7L303.9 530.7L316.6 530.8L329.2 530.9L341.8 530.6L354.4 530.5L367 531.3L379.7 531.3L417.5 530.5L430.1 530.6L442.7 530.2L455.4 529.8L468 529.2L480.6 529.3L493.2 529.7L505.8 529.4L518.5 529L531.1 528.7L543.7 528.6L556.3 528.9L568.9 528.9L581.5 529.9L594.2 530.3L606.8 529.9L619.4 529.2L632 528.9L644.6 528.9L657.3 530.2" fill="none" stroke-width="1"></path></g><g id="line__Austria"><path stroke-linecap="round" stroke-linejoin="round" stroke="#ddd" d="M278.7 530.8L291.3 530.9L303.9 531L316.6 531L329.2 531L341.8 531L354.4 531.1L367 531.1L379.7 531.1L392.3 531.1L404.9 531.2L417.5 531.2L430.1 531.1L442.7 531.2L455.4 531.2L468 531.2L480.6 531.2L493.2 531.2L505.8 531.2L518.5 531.2L531.1 531.2L543.7 531.2L556.3 531.2L568.9 531.2L581.5 531.2L594.2 531.2L606.8 531.2L619.4 531.2L632 531.2L644.6 531.2L657.3 531.2" fill="none" stroke-width="1"></path></g><g id="line__South-Korea"><path stroke-linecap="round" stroke-linejoin="round" stroke="#ddd" d="M215.6 531.3L228.2 531.3L240.9 530.6L253.5 530.2L266.1 529.8L455.4 531.3L468 531.3L480.6 530.3L493.2 528.7L505.8 528.4L518.5 528.9L531.1 528.6L543.7 528.1L556.3 527.9L568.9 526.6L581.5 525.2L594.2 525.4L606.8 525.4L619.4 525.7L632 525.1L644.6 525.3L657.3 525.4" fill="none" stroke-width="1"></path></g><g id="line__Taiwan"><path stroke-linecap="round" stroke-linejoin="round" stroke="#ddd" d="M190.4 531L203 530.2L215.6 530.2L228.2 529.9L240.9 529.9L253.5 529.9L266.1 529.8" fill="none" stroke-width="1"></path></g><g id="line__Yugoslavia"><path stroke-linecap="round" stroke-linejoin="round" stroke="#ddd" d="M114.7 531.3L127.3 531.3L139.9 531.3L152.5 531.1L165.2 531.2L177.8 531.1L190.4 530.9L203 530.9L215.6 530.8L228.2 530.5L240.9 530.4L253.5 530.6L266.1 530.9" fill="none" stroke-width="1"></path></g><g id="line__Colombia"><path stroke-linecap="round" stroke-linejoin="round" stroke="#ddd" d="M114.7 531.3L127.3 531.3L139.9 531.3L152.5 531.1L165.2 529.5L177.8 529.1L190.4 529.8L203 528.9L215.6 528.7L228.2 529L240.9 529L253.5 528.8L266.1 528.6L278.7 528.6L291.3 528.6L303.9 528.5L316.6 528L329.2 528.2L341.8 527.9L354.4 527.5L367 527.5L379.7 527.5L392.3 526.1L404.9 525.4L417.5 525L430.1 524.8L442.7 524.2L455.4 524.4L468 524.6L480.6 525.7L493.2 524.3L505.8 524.6L518.5 526.2L531.1 517.2L543.7 524.6L556.3 525.7L568.9 526.3L581.5 526.3L594.2 525.8L606.8 525.5L619.4 525.8L632 526.4L644.6 526.1L657.3 525.6" fill="none" stroke-width="1"></path></g><g id="line__Zimbabwe"><path stroke-linecap="round" stroke-linejoin="round" stroke="#ddd" d="M89.4 529L102.1 529.2L114.7 529.3L127.3 529.3L139.9 529.6L152.5 529.3L165.2 529.5L177.8 529.9L190.4 529.7L203 529.1L215.6 529L228.2 528.8L240.9 528.8L253.5 528.8L266.1 528.8L278.7 529L291.3 528.8L303.9 528.6L316.6 529.1L329.2 529L341.8 528.7L354.4 528.7L367 528.6L379.7 528.6L392.3 528.7L404.9 528.7L417.5 529.1L430.1 529.1L442.7 529.1L455.4 529.5L468 529.4L480.6 529.8L493.2 530.1L505.8 530.8L518.5 530.8L531.1 531.1L543.7 530.9L556.3 530.7" fill="none" stroke-width="1"></path></g><g id="line__World"><path stroke-linecap="round" stroke-linejoin="round" stroke="#ddd" d="M89.4 434.6L102.1 448.9L114.7 441.4L127.3 431.3L139.9 436.5L152.5 446.6L165.2 441L177.8 431.5L190.4 426.5L203 429L215.6 423.6L228.2 405.8L240.9 404.2L253.5 409L266.1 408.6L278.7 412L291.3 422L303.9 418.7L316.6 407.1L329.2 402L341.8 392.6L354.4 390L367 389.6L379.7 382.7L392.3 373.1L404.9 370.3L417.5 366.6L430.1 361.3L442.7 356.1L455.4 348.5L468 338.1L480.6 341.5L493.2 350.3L505.8 332.6L518.5 311.5L531.1 286.8L543.7 265.5L556.3 263.5L568.9 261.2L581.5 257.1L594.2 234L606.8 226.5L619.4 201L632 184.5L644.6 172.1L657.3 106.8" fill="none" stroke-width="1"></path></g><g id="line__United-States"><path stroke-linecap="round" stroke-linejoin="round" stroke="#ddd" d="M89.4 526.6L102.1 526.7L114.7 525.9L127.3 525.9L139.9 525.3L152.5 525.8L165.2 527.2L177.8 525.8L190.4 526.8L203 531.1L215.6 531.3L228.2 531.3L240.9 531.3L253.5 530.8L266.1 530.3L278.7 530.1L291.3 530.6L303.9 531.3L316.6 530.2L329.2 529.3L341.8 529.1L354.4 530.7L632 531.1L657.3 531.3" fill="none" stroke-width="1"></path></g><g id="line__United-Kingdom"><path stroke-linecap="round" stroke-linejoin="round" stroke="#ddd" d="M89.4 528.2L102.1 528.4L114.7 528.8L127.3 528.7L139.9 527.9L152.5 530.4L165.2 528.2L177.8 528.3L190.4 528.9L203 527.1L215.6 527.3L228.2 527.5L240.9 527.8L253.5 527.7L266.1 527.4L278.7 527.5L291.3 527.6L303.9 527.5L316.6 526.5L329.2 526.1L341.8 526.4L354.4 526L367 526L379.7 526.2L392.3 526.7L404.9 526.7L417.5 527.7L430.1 526.1L442.7 526.2L455.4 526.3L468 526.7L480.6 525.8L493.2 528.9L505.8 527L518.5 526.2L531.1 526L543.7 525.6L556.3 526L568.9 526.1L581.5 525.5L594.2 526.3L606.8 526.1L619.4 526.6L632 526.5L644.6 527.2L657.3 526.8" fill="none" stroke-width="1"></path></g><g id="line__USSR"><path stroke-linecap="round" stroke-linejoin="round" stroke="#ddd" d="M89.4 510.3L102.1 509.7L114.7 509.7L127.3 509L139.9 508.3L152.5 505.6L165.2 505.3L177.8 505.2L190.4 504.5L203 504.9L215.6 502.9L228.2 491.4L240.9 491.4L253.5 494.5L266.1 496.5" fill="none" stroke-width="1"></path></g><g id="line__South-Africa"><path stroke-linecap="round" stroke-linejoin="round" stroke="#ddd" d="M89.4 529L102.1 529.3L114.7 528.5L127.3 528.9L139.9 529L152.5 529L165.2 528.7L177.8 528.5L190.4 528.1L203 527.9L215.6 527.4L228.2 527.3L240.9 527.5L253.5 527.5L266.1 527.7L278.7 527.6L291.3 527.3L303.9 527.2L316.6 527.3L329.2 526.7L341.8 526.6L354.4 526.4L367 526.9L379.7 526.3L392.3 526.4L404.9 526.1L417.5 525.8L430.1 525.9L442.7 525.6L455.4 525.7L468 526L480.6 526.1L493.2 526.7L505.8 526.6L518.5 526.4L531.1 526.8L543.7 526.9L556.3 526.7L568.9 525.6L581.5 525.6L594.2 525.5L606.8 526L619.4 526L632 527.4L644.6 525.9L657.3 525.9" fill="none" stroke-width="1"></path></g><g id="line__Poland"><path stroke-linecap="round" stroke-linejoin="round" stroke="#ddd" d="M89.4 531L102.1 531L114.7 531L127.3 531.1L139.9 531.1L152.5 531.2L165.2 531.3L177.8 531.3L190.4 531.3L203 531.3L493.2 531.2L505.8 531.2L518.5 531.2L531.1 531.2L543.7 531.2L556.3 531.2L568.9 531.2L581.5 531.2L594.2 531.2" fill="none" stroke-width="1"></path></g><g id="line__Philippines"><path stroke-linecap="round" stroke-linejoin="round" stroke="#ddd" d="M89.4 528.7L102.1 529.1L114.7 528.8L127.3 528.2L139.9 528.4L152.5 529.8L165.2 530.5L177.8 530.8L190.4 529L203 531.1" fill="none" stroke-width="1"></path></g><g id="line__Norway"><path stroke-linecap="round" stroke-linejoin="round" stroke="#ddd" d="M89.4 526.1L102.1 528.1L114.7 527.1L127.3 526.3L139.9 526.3L152.5 527.8L165.2 527.4L177.8 526.5L190.4 526.2L203 526.1L215.6 525.3L228.2 524.2L240.9 523.9L253.5 523.5L266.1 523.4L278.7 523.8L291.3 523.6L303.9 522.1L316.6 524.1L329.2 523L341.8 522.8L354.4 521.8L367 521.3L379.7 523.4L392.3 522.1L404.9 522L417.5 520.9L430.1 521.6L442.7 519.8L455.4 520.2L468 519.5L480.6 519.3L493.2 519.3L505.8 518.8L518.5 518.8L531.1 518.9L543.7 519L556.3 519.1L568.9 519L581.5 518.8L594.2 519.6L606.8 519L619.4 518.8L632 519L644.6 519L657.3 520.2" fill="none" stroke-width="1"></path></g><g id="line__New-Caledonia"><path stroke-linecap="round" stroke-linejoin="round" stroke="#ddd" d="M89.4 527.5L102.1 528.6L114.7 527.2L127.3 526.9L139.9 527.5L152.5 527.5L165.2 528.4L177.8 527.4L190.4 526.4L203 526.8L215.6 527.3L228.2 526.2L240.9 526.4L253.5 526.9L266.1 526.6L278.7 527L291.3 526.3L303.9 526L316.6 525.6L329.2 525.6L341.8 525.3L354.4 525.3L367 525.2L379.7 525.4L392.3 525.1L404.9 524.7L417.5 524.4L430.1 525.5L442.7 525L455.4 524.7L468 525.2L480.6 526.2L493.2 526.1L505.8 525.9L518.5 525.8L531.1 525.2L543.7 524.8L556.3 522.9L568.9 520.8L581.5 518.3L594.2 517.2L606.8 516.7L619.4 519.4L632 521.5L644.6 523.6L657.3 522.3" fill="none" stroke-width="1"></path></g><g id="line__Japan"><path stroke-linecap="round" stroke-linejoin="round" stroke="#ddd" d="M89.4 518.6L102.1 520.6L114.7 517L127.3 516.5L139.9 518.6L152.5 519.5L165.2 520.2L177.8 519.2L190.4 518.8L203 518.7L215.6 518.2L228.2 517.4L240.9 517L253.5 517.7L266.1 515.9L278.7 516.8L291.3 517.4L303.9 516.1L316.6 513L329.2 513.6L341.8 513.9L354.4 514.2L367 513.1L379.7 509.6L392.3 510.5L404.9 509.9L417.5 509L430.1 508.4L442.7 509.2L455.4 511L468 509.5L480.6 510.1L493.2 511.9L505.8 508.8L518.5 510.1L531.1 508.4L543.7 507.2L556.3 507.3L568.9 505.2L581.5 504.8L594.2 506L606.8 506L619.4 506.6L632 508.3L644.6 506.9L657.3 511.3" fill="none" stroke-width="1"></path></g><g id="line__Indonesia"><path stroke-linecap="round" stroke-linejoin="round" stroke="#ddd" d="M89.4 530.6L102.1 530.7L114.7 530.8L127.3 530.7L139.9 530.7L152.5 530.6L165.2 530.6L177.8 530.7L190.4 530.7L203 530.7L215.6 531.1L228.2 530.6L240.9 530.6L253.5 530.6L266.1 530.6L278.7 530.6L291.3 530.6L303.9 530.5L316.6 529.8L329.2 530L341.8 529.9L354.4 530.2L367 530.1L379.7 529.9L392.3 529.9L404.9 530.1L417.5 530.1L430.1 530.2L442.7 530.3L455.4 529.3L468 528.8L480.6 528.9L493.2 529.6L505.8 528.8L518.5 528.6L531.1 528.8L543.7 528.4L556.3 528.3L568.9 526.1L581.5 515.6L594.2 503.7L606.8 492.1L619.4 476L632 445.8L644.6 412.8L657.3 373.7" fill="none" stroke-width="1"></path></g><g id="line__Greece"><path stroke-linecap="round" stroke-linejoin="round" stroke="#ddd" d="M89.4 530L102.1 529.3L114.7 529.3L127.3 529.4L139.9 529.8L152.5 530.7L165.2 529.6L177.8 529.2L190.4 529.1L203 529.9L215.6 530.1L228.2 529.5L240.9 529.9L253.5 529.2L266.1 529.1L278.7 529.2L291.3 529.8L303.9 529.1L316.6 529L329.2 528.9L341.8 528.9L354.4 529.3L367 529.5L379.7 529L392.3 528.9L404.9 528.7L417.5 528.9L430.1 528.8L442.7 528.7L455.4 528.9L468 528.8L480.6 529L493.2 530.2L505.8 529.4L518.5 528.8L531.1 528.8L543.7 528.9L556.3 528.8L568.9 529L581.5 529L594.2 529L606.8 529.2L619.4 529.7L632 530.5L644.6 530.7L657.3 531.1" fill="none" stroke-width="1"></path></g><g id="line__France"><path stroke-linecap="round" stroke-linejoin="round" stroke="#ddd" d="M89.4 529.9L102.1 530.2L114.7 531L127.3 530L139.9 529.9L152.5 530.3L165.2 530.6L177.8 530.6L190.4 530.4L203 530.2L215.6 530.4L228.2 530.1L240.9 530.1L253.5 530.1L266.1 530.3L278.7 530.2L291.3 529.9L303.9 529.9L316.6 529.9L329.2 529.8L341.8 529.9L354.4 529.7L367 529.7L379.7 529.6L392.3 529.5L404.9 529.8L417.5 529.8L430.1 529.7L442.7 529.6L455.4 529.4L468 529.3L480.6 529.4L493.2 529.4L505.8 529.6L518.5 529.4L531.1 529.5L543.7 529.7L556.3 530.2L568.9 530.4L581.5 530.7L594.2 531L606.8 530.8L619.4 530.4L632 530.4L644.6 530.1L657.3 530.3" fill="none" stroke-width="1"></path></g><g id="line__Finland"><path stroke-linecap="round" stroke-linejoin="round" stroke="#ddd" d="M89.4 530L102.1 530.3L114.7 529.8L127.3 529.6L139.9 529.5L152.5 529.6L165.2 529.3L177.8 529.2L190.4 529.2L203 529.1L215.6 528.9L228.2 529.1L240.9 529.5L253.5 529L266.1 529.5L278.7 529.3L291.3 529.3L303.9 529L316.6 529.1L329.2 527.4L341.8 526.5L354.4 525.4L367 524.2L379.7 523.9L392.3 523.9L404.9 523.8L417.5 524.4L430.1 524.6L442.7 526L455.4 524.9L468 523.9L480.6 524.3L493.2 525.7L505.8 524.6L518.5 524.6L531.1 525L543.7 525.3L556.3 525.5L568.9 523.1L581.5 519.7L594.2 519.7L606.8 518.8L619.4 519.1L632 519L644.6 522.1L657.3 518.9" fill="none" stroke-width="1"></path></g><g id="line__East-Germany"><path stroke-linecap="round" stroke-linejoin="round" stroke="#ddd" d="M89.4 530.9L102.1 530.9L114.7 530.9L127.3 530.9L139.9 530.9L152.5 530.9L165.2 530.9L177.8 530.9L190.4 531L203 530.9L215.6 530.9L228.2 530.9L240.9 530.9L253.5 531.1" fill="none" stroke-width="1"></path></g><g id="line__Dominican-Republic"><path stroke-linecap="round" stroke-linejoin="round" stroke="#ddd" d="M89.4 527.9L102.1 528.6L114.7 528L127.3 529.1L139.9 528.8L152.5 530.6L165.2 528.4L177.8 528L190.4 527.8L203 528.3L215.6 527.4L228.2 527.3L240.9 527.1L253.5 527.4L266.1 527.4L278.7 527.6L291.3 528.1L303.9 527.1L316.6 527.1L329.2 527.2L341.8 526.9L354.4 527.9L367 528L379.7 527.5L392.3 528.4L404.9 528.1L417.5 527.6L430.1 527.3L442.7 527.4L455.4 527.3L468 527.4L480.6 528.8L493.2 531.3L505.8 531.3L518.5 529.5L531.1 529.2L543.7 530L556.3 531.3L568.9 531.3L581.5 530L594.2 529.2L606.8 528.8L619.4 527.6L632 528.5L644.6 527.7L657.3 527.6" fill="none" stroke-width="1"></path></g><g id="line__Czechoslovakia"><path stroke-linecap="round" stroke-linejoin="round" stroke="#ddd" d="M89.4 530.8L102.1 530.8L114.7 530.9L127.3 531L139.9 531.1L152.5 531.1L165.2 530.9L177.8 530.7L190.4 530.8L203 530.8L215.6 530.8L228.2 530.8L240.9 531L253.5 530.9L266.1 531L278.7 531.1" fill="none" stroke-width="1"></path></g><g id="line__Cuba"><path stroke-linecap="round" stroke-linejoin="round" stroke="#ddd" d="M89.4 528.8L102.1 528.8L114.7 528.7L127.3 528.6L139.9 528.5L152.5 528.5L165.2 530L177.8 529L190.4 529.2L203 529.1L215.6 528.8L228.2 528.1L240.9 527.7L253.5 528.4L266.1 528.8L278.7 529L291.3 529.1L303.9 529.4L316.6 528.4L329.2 527.7L341.8 526.8L354.4 526.1L367 526.2L379.7 526L392.3 525.8L404.9 526L417.5 525.6L430.1 526.1L442.7 526L455.4 525.6L468 526.7L480.6 526.5L493.2 526.8L505.8 526.7L518.5 526.6L531.1 527.8L543.7 529.1L556.3 529.5L568.9 529.3L581.5 529.3L594.2 529.2L606.8 529.3L619.4 529.6L632 529.3L644.6 529.4L657.3 529.4" fill="none" stroke-width="1"></path></g><g id="line__China"><path stroke-linecap="round" stroke-linejoin="round" stroke="#ddd" d="M89.4 529.9L102.1 529.9L114.7 529.8L127.3 529.8L139.9 529.7L152.5 529.6L165.2 529.5L177.8 528.9L190.4 528L203 528.1L215.6 527.9L228.2 527.9L240.9 526.7L253.5 527.6L266.1 527.5L278.7 527.1L291.3 527.2L303.9 527.1L316.6 526L329.2 525.3L341.8 525.4L354.4 525.9L367 525.3L379.7 524.4L392.3 524.6L404.9 524.2L417.5 522.5L430.1 521.5L442.7 518.1L455.4 512.8L468 504.3L480.6 504.2L493.2 497L505.8 486.4L518.5 472.4L531.1 461.1L543.7 437.5L556.3 437.9L568.9 450.1L581.5 453.7L594.2 440.7L606.8 435.9L619.4 422.3L632 430.5L644.6 440.8L657.3 416.3" fill="none" stroke-width="1"></path></g><g id="line__Canada"><path stroke-linecap="round" stroke-linejoin="round" stroke="#ddd" d="M89.4 510.7L102.1 519.2L114.7 520L127.3 512.1L139.9 516.9L152.5 521.4L165.2 518.7L177.8 516.2L190.4 515.4L203 514.5L215.6 513.5L228.2 511.2L240.9 512L253.5 513.1L266.1 513.5L278.7 513L291.3 514.6L303.9 517.1L316.6 514.3L329.2 513.7L341.8 513.5L354.4 511.4L367 514.5L379.7 513.1L392.3 512.3L404.9 511.8L417.5 514.5L430.1 510.8L442.7 512.4L455.4 511.4L468 510.5L480.6 508.6L493.2 515.5L505.8 517L518.5 512L531.1 511.4L543.7 510.6L556.3 511.1L568.9 511L581.5 509.9L594.2 510.4L606.8 512.7L619.4 514.4L632 514.5L644.6 515.2L657.3 511.9" fill="none" stroke-width="1"></path></g><g id="line__Brazil"><path stroke-linecap="round" stroke-linejoin="round" stroke="#ddd" d="M89.4 531L102.1 531L114.7 531L127.3 531L139.9 531L152.5 530.6L165.2 529.8L177.8 529.6L190.4 529.5L203 529.5L215.6 529.4L228.2 529.5L240.9 529.4L253.5 529.5L266.1 529.4L278.7 529.3L291.3 529.2L303.9 529.1L316.6 529.2L329.2 529.1L341.8 528.7L354.4 527.8L367 526.9L379.7 527L392.3 526.7L404.9 527.2L417.5 527.2L430.1 527L442.7 526.4L455.4 526.4L468 526.6L480.6 526.4L493.2 526.9L505.8 525.6L518.5 525.4L531.1 523.2L543.7 523.5L556.3 520.5L568.9 520.8L581.5 520.9L594.2 522L606.8 522.9L619.4 524L632 523.2L644.6 523.1L657.3 522.7" fill="none" stroke-width="1"></path></g><g id="line__Australia"><path stroke-linecap="round" stroke-linejoin="round" stroke="#ddd" d="M89.4 526.7L102.1 526.3L114.7 526L127.3 526.5L139.9 525.6L152.5 525.1L165.2 525.6L177.8 526.1L190.4 525.8L203 525.6L215.6 525.3L228.2 526.2L240.9 525.4L253.5 525.3L266.1 524.5L278.7 524.5L291.3 523L303.9 522.3L316.6 520.9L329.2 521.3L341.8 521.3L354.4 520.5L367 520L379.7 516.1L392.3 513.9L404.9 513.4L417.5 513.9L430.1 514.8L442.7 514.9L455.4 515.5L468 515.8L480.6 516.6L493.2 513.6L505.8 517.6L518.5 516.4L531.1 514.3L543.7 512.2L556.3 512.7L568.9 510.6L581.5 515L594.2 516.6L606.8 515.8L619.4 516.9L632 515.6L644.6 517.9L657.3 518.2" fill="none" stroke-width="1"></path></g><g id="line__Albania"><path stroke-linecap="round" stroke-linejoin="round" stroke="#ddd" d="M89.4 530.8L102.1 530.8L114.7 530.7L127.3 530.7L139.9 530.7L152.5 530.7L165.2 530.7L177.8 530.8L190.4 530.8L203 530.8L215.6 530.8L228.2 530.6L240.9 531L253.5 531L266.1 531.2" fill="none" stroke-width="1"></path></g><g id="line__India"><path id="outline" fill="none" stroke-linecap="butt" stroke-linejoin="round" stroke="#fff" stroke-width="2.5" d="M543.7 531.3L556.3 531.2L568.9 531.1L581.5 531.3L594.2 531.3L606.8 531.3L619.4 531.3L632 531.3L644.6 531.3L657.3 531.3"></path><g id="polyline"><polyline id="polyline" points="543.70,531.30 556.30,531.20 568.90,531.10 581.50,531.30 594.20,531.30 606.80,531.30 619.40,531.30 632.00,531.30 644.60,531.30 657.30,531.30" stroke-linejoin="round" stroke-width="1.5" stroke="#A2559C" fill="none" stroke-linecap="butt"></polyline></g></g><g id="line__Myanmar"><path id="outline" fill="none" stroke-linecap="butt" stroke-linejoin="round" stroke="#fff" stroke-width="2.5" d="M505.8 531.3L518.5 531.3L531.1 531.3L543.7 530L556.3 528.6L568.9 528.2L581.5 528.2L594.2 528.3L606.8 529.7L619.4 529.1L632 528.3L644.6 528.9L657.3 529.9"></path><g id="polyline"><polyline id="polyline" points="505.80,531.30 518.50,531.30 531.10,531.30 543.70,530.00 556.30,528.60 568.90,528.20 581.50,528.20 594.20,528.30 606.80,529.70 619.40,529.10 632.00,528.30 644.60,528.90 657.30,529.90" stroke-linejoin="round" stroke-width="1.5" stroke="#CF0A66" fill="none" stroke-linecap="butt"></polyline></g></g><g id="line__Morocco"><path id="outline" fill="none" stroke-linecap="butt" stroke-linejoin="round" stroke="#fff" stroke-width="2.5" d="M505.8 531.3L518.5 531.3L531.1 531.3"></path><g id="polyline"><polyline id="polyline" points="505.80,531.30 518.50,531.30 531.10,531.30" stroke-linejoin="round" stroke-width="1.5" stroke="#286BBB" fill="none" stroke-linecap="butt"></polyline></g></g><g id="line__Guatemala"><path id="outline" fill="none" stroke-linecap="butt" stroke-linejoin="round" stroke="#fff" stroke-width="2.5" d="M505.8 531.3L518.5 531.3L531.1 531.3L543.7 531.3L556.3 530.8L568.9 529.8L581.5 530.1L594.2 529.6L606.8 529.3L619.4 528.6L632 528.2L644.6 528.6L657.3 528.9"></path><g id="polyline"><polyline id="polyline" points="505.80,531.30 518.50,531.30 531.10,531.30 543.70,531.30 556.30,530.80 568.90,529.80 581.50,530.10 594.20,529.60 606.80,529.30 619.40,528.60 632.00,528.20 644.60,528.60 657.30,528.90" stroke-linejoin="round" stroke-width="1.5" stroke="#996D39" fill="none" stroke-linecap="butt"></polyline></g></g><g id="line__Madagascar"><path id="outline" fill="none" stroke-linecap="butt" stroke-linejoin="round" stroke="#fff" stroke-width="2.5" d="M480.6 531.3L493.2 531.3L505.8 531.3L518.5 531.3L531.1 530.5L543.7 527.9L556.3 526.3L568.9 524.9L581.5 525.6L594.2 526.5L606.8 526.8L619.4 526.7L632 530L644.6 527.3L657.3 526.5"></path><g id="polyline"><polyline id="polyline" points="480.60,531.30 493.20,531.30 505.80,531.30 518.50,531.30 531.10,530.50 543.70,527.90 556.30,526.30 568.90,524.90 581.50,525.60 594.20,526.50 606.80,526.80 619.40,526.70 632.00,530.00 644.60,527.30 657.30,526.50" stroke-linejoin="round" stroke-width="1.5" stroke="#D73C50" fill="none" stroke-linecap="butt"></polyline></g></g><g id="line__Serbia"><path id="outline" fill="none" stroke-linecap="butt" stroke-linejoin="round" stroke="#fff" stroke-width="2.5" d="M455.4 531.3L468 531.2"></path><g id="polyline"><polyline id="polyline" points="455.40,531.30 468.00,531.20" stroke-linejoin="round" stroke-width="1.5" stroke="#9A5129" fill="none" stroke-linecap="butt"></polyline></g></g><g id="line__Kosovo"><path id="outline" fill="none" stroke-linecap="butt" stroke-linejoin="round" stroke="#fff" stroke-width="2.5" d="M442.7 531.3L455.4 531.3L468 531.3L480.6 530.5L493.2 530.4L505.8 530.3L518.5 530.3L531.1 530.7L543.7 530.3L556.3 530.4L568.9 529.7L581.5 530.6L594.2 530.3L606.8 530.6L619.4 530.4L632 530.4L644.6 530.5L657.3 531.3"></path><g id="polyline"><polyline id="polyline" points="442.70,531.30 455.40,531.30 468.00,531.30 480.60,530.50 493.20,530.40 505.80,530.30 518.50,530.30 531.10,530.70 543.70,530.30 556.30,530.40 568.90,529.70 581.50,530.60 594.20,530.30 606.80,530.60 619.40,530.40 632.00,530.40 644.60,530.50 657.30,531.30" stroke-linejoin="round" stroke-width="1.5" stroke="#BE5915" fill="none" stroke-linecap="butt"></polyline></g></g><g id="line__Venezuela"><path id="outline" fill="none" stroke-linecap="butt" stroke-linejoin="round" stroke="#fff" stroke-width="2.5" d="M341.8 531.3L354.4 531.3L367 531.3L379.7 531.3L392.3 529.9L404.9 529L417.5 528.8L430.1 528.7L442.7 528.8L455.4 528.8L468 529.2L480.6 529.8L493.2 529.9L505.8 529.7L518.5 529.5L531.1 530.2L543.7 530.6L556.3 531L568.9 531"></path><g id="polyline"><polyline id="polyline" points="341.80,531.30 354.40,531.30 367.00,531.30 379.70,531.30 392.30,529.90 404.90,529.00 417.50,528.80 430.10,528.70 442.70,528.80 455.40,528.80 468.00,529.20 480.60,529.80 493.20,529.90 505.80,529.70 518.50,529.50 531.10,530.20 543.70,530.60 556.30,531.00 568.90,531.00" stroke-linejoin="round" stroke-width="1.5" stroke="#6D3E91" fill="none" stroke-linecap="butt"></polyline></g></g><g id="line__Ukraine"><path id="outline" fill="none" stroke-linecap="butt" stroke-linejoin="round" stroke="#fff" stroke-width="2.5" d="M278.7 530.5L291.3 530.8L303.9 531L316.6 531L329.2 531.2L341.8 531.3L354.4 531.3L367 531.3L379.7 531.2L392.3 531L404.9 530.9L417.5 531.1L430.1 530.7L442.7 529.5L455.4 529.1L468 528.5L480.6 528L493.2 529.2L505.8 528.3L518.5 529L531.1 528.5L543.7 528.4L556.3 528.8L568.9 528.9L581.5 528.9L594.2 529.2L606.8 529.2L619.4 529.4L632 529.3L644.6 529.1L657.3 530.2"></path><g id="polyline"><polyline id="polyline" points="278.70,530.50 291.30,530.80 303.90,531.00 316.60,531.00 329.20,531.20 341.80,531.30 354.40,531.30 367.00,531.30 379.70,531.20 392.30,531.00 404.90,530.90 417.50,531.10 430.10,530.70 442.70,529.50 455.40,529.10 468.00,528.50 480.60,528.00 493.20,529.20 505.80,528.30 518.50,529.00 531.10,528.50 543.70,528.40 556.30,528.80 568.90,528.90 581.50,528.90 594.20,529.20 606.80,529.20 619.40,529.40 632.00,529.30 644.60,529.10 657.30,530.20" stroke-linejoin="round" stroke-width="1.5" stroke="#338711" fill="none" stroke-linecap="butt"></polyline></g></g><g id="line__Serbia-and-Montenegro"><path id="outline" fill="none" stroke-linecap="butt" stroke-linejoin="round" stroke="#fff" stroke-width="2.5" d="M278.7 531L291.3 531.2L303.9 531.2L316.6 531.2L329.2 531L341.8 531L354.4 531.2"></path><g id="polyline"><polyline id="polyline" points="278.70,531.00 291.30,531.20 303.90,531.20 316.60,531.20 329.20,531.00 341.80,531.00 354.40,531.20" stroke-linejoin="round" stroke-width="1.5" stroke="#00295B" fill="none" stroke-linecap="butt"></polyline></g></g><g id="line__Russia"><path id="outline" fill="none" stroke-linecap="butt" stroke-linejoin="round" stroke="#fff" stroke-width="2.5" d="M278.7 497.6L291.3 505.9L303.9 505.5L316.6 504.1L329.2 504.8L341.8 498.7L354.4 499.7L367 499.1L379.7 501.4L392.3 497.8L404.9 498.4L417.5 496.1L430.1 495.4L442.7 494.9L455.4 493.4L468 494.5L480.6 496.4L493.2 498.2L505.8 495.8L518.5 495.5L531.1 496.9L543.7 498.6L556.3 499.6L568.9 500L581.5 505.8L594.2 502.6L606.8 509.9L619.4 508.8L632 508L644.6 514.9L657.3 512"></path><g id="polyline"><polyline id="polyline" points="278.70,497.60 291.30,505.90 303.90,505.50 316.60,504.10 329.20,504.80 341.80,498.70 354.40,499.70 367.00,499.10 379.70,501.40 392.30,497.80 404.90,498.40 417.50,496.10 430.10,495.40 442.70,494.90 455.40,493.40 468.00,494.50 480.60,496.40 493.20,498.20 505.80,495.80 518.50,495.50 531.10,496.90 543.70,498.60 556.30,499.60 568.90,500.00 581.50,505.80 594.20,502.60 606.80,509.90 619.40,508.80 632.00,508.00 644.60,514.90 657.30,512.00" stroke-linejoin="round" stroke-width="1.5" stroke="#A2559C" fill="none" stroke-linecap="butt"></polyline></g></g><g id="line__North-Macedonia"><path id="outline" fill="none" stroke-linecap="butt" stroke-linejoin="round" stroke="#fff" stroke-width="2.5" d="M278.7 530.9L291.3 530.7L303.9 530.7L316.6 530.8L329.2 530.9L341.8 530.6L354.4 530.5L367 531.3L379.7 531.3L417.5 530.5L430.1 530.6L442.7 530.2L455.4 529.8L468 529.2L480.6 529.3L493.2 529.7L505.8 529.4L518.5 529L531.1 528.7L543.7 528.6L556.3 528.9L568.9 528.9L581.5 529.9L594.2 530.3L606.8 529.9L619.4 529.2L632 528.9L644.6 528.9L657.3 530.2"></path><g id="polyline"><polyline id="polyline" points="278.70,530.90 291.30,530.70 303.90,530.70 316.60,530.80 329.20,530.90 341.80,530.60 354.40,530.50 367.00,531.30 379.70,531.30 417.50,530.50 430.10,530.60 442.70,530.20 455.40,529.80 468.00,529.20 480.60,529.30 493.20,529.70 505.80,529.40 518.50,529.00 531.10,528.70 543.70,528.60 556.30,528.90 568.90,528.90 581.50,529.90 594.20,530.30 606.80,529.90 619.40,529.20 632.00,528.90 644.60,528.90 657.30,530.20" stroke-linejoin="round" stroke-width="1.5" stroke="#D73C50" fill="none" stroke-linecap="butt"></polyline></g></g><g id="line__Austria"><path id="outline" fill="none" stroke-linecap="butt" stroke-linejoin="round" stroke="#fff" stroke-width="2.5" d="M278.7 530.8L291.3 530.9L303.9 531L316.6 531L329.2 531L341.8 531L354.4 531.1L367 531.1L379.7 531.1L392.3 531.1L404.9 531.2L417.5 531.2L430.1 531.1L442.7 531.2L455.4 531.2L468 531.2L480.6 531.2L493.2 531.2L505.8 531.2L518.5 531.2L531.1 531.2L543.7 531.2L556.3 531.2L568.9 531.2L581.5 531.2L594.2 531.2L606.8 531.2L619.4 531.2L632 531.2L644.6 531.2L657.3 531.2"></path><g id="polyline"><polyline id="polyline" points="278.70,530.80 291.30,530.90 303.90,531.00 316.60,531.00 329.20,531.00 341.80,531.00 354.40,531.10 367.00,531.10 379.70,531.10 392.30,531.10 404.90,531.20 417.50,531.20 430.10,531.10 442.70,531.20 455.40,531.20 468.00,531.20 480.60,531.20 493.20,531.20 505.80,531.20 518.50,531.20 531.10,531.20 543.70,531.20 556.30,531.20 568.90,531.20 581.50,531.20 594.20,531.20 606.80,531.20 619.40,531.20 632.00,531.20 644.60,531.20 657.30,531.20" stroke-linejoin="round" stroke-width="1.5" stroke="#C4523E" fill="none" stroke-linecap="butt"></polyline></g></g><g id="line__South-Korea"><path id="outline" fill="none" stroke-linecap="butt" stroke-linejoin="round" stroke="#fff" stroke-width="2.5" d="M215.6 531.3L228.2 531.3L240.9 530.6L253.5 530.2L266.1 529.8L455.4 531.3L468 531.3L480.6 530.3L493.2 528.7L505.8 528.4L518.5 528.9L531.1 528.6L543.7 528.1L556.3 527.9L568.9 526.6L581.5 525.2L594.2 525.4L606.8 525.4L619.4 525.7L632 525.1L644.6 525.3L657.3 525.4"></path><g id="polyline"><polyline id="polyline" points="215.60,531.30 228.20,531.30 240.90,530.60 253.50,530.20 266.10,529.80 455.40,531.30 468.00,531.30 480.60,530.30 493.20,528.70 505.80,528.40 518.50,528.90 531.10,528.60 543.70,528.10 556.30,527.90 568.90,526.60 581.50,525.20 594.20,525.40 606.80,525.40 619.40,525.70 632.00,525.10 644.60,525.30 657.30,525.40" stroke-linejoin="round" stroke-width="1.5" stroke="#286BBB" fill="none" stroke-linecap="butt"></polyline></g></g><g id="line__Taiwan"><path id="outline" fill="none" stroke-linecap="butt" stroke-linejoin="round" stroke="#fff" stroke-width="2.5" d="M190.4 531L203 530.2L215.6 530.2L228.2 529.9L240.9 529.9L253.5 529.9L266.1 529.8"></path><g id="polyline"><polyline id="polyline" points="190.40,531.00 203.00,530.20 215.60,530.20 228.20,529.90 240.90,529.90 253.50,529.90 266.10,529.80" stroke-linejoin="round" stroke-width="1.5" stroke="#6D3E91" fill="none" stroke-linecap="butt"></polyline></g></g><g id="line__Yugoslavia"><path id="outline" fill="none" stroke-linecap="butt" stroke-linejoin="round" stroke="#fff" stroke-width="2.5" d="M114.7 531.3L127.3 531.3L139.9 531.3L152.5 531.1L165.2 531.2L177.8 531.1L190.4 530.9L203 530.9L215.6 530.8L228.2 530.5L240.9 530.4L253.5 530.6L266.1 530.9"></path><g id="polyline"><polyline id="polyline" points="114.70,531.30 127.30,531.30 139.90,531.30 152.50,531.10 165.20,531.20 177.80,531.10 190.40,530.90 203.00,530.90 215.60,530.80 228.20,530.50 240.90,530.40 253.50,530.60 266.10,530.90" stroke-linejoin="round" stroke-width="1.5" stroke="#4C6A9C" fill="none" stroke-linecap="butt"></polyline></g></g><g id="line__Colombia"><path id="outline" fill="none" stroke-linecap="butt" stroke-linejoin="round" stroke="#fff" stroke-width="2.5" d="M114.7 531.3L127.3 531.3L139.9 531.3L152.5 531.1L165.2 529.5L177.8 529.1L190.4 529.8L203 528.9L215.6 528.7L228.2 529L240.9 529L253.5 528.8L266.1 528.6L278.7 528.6L291.3 528.6L303.9 528.5L316.6 528L329.2 528.2L341.8 527.9L354.4 527.5L367 527.5L379.7 527.5L392.3 526.1L404.9 525.4L417.5 525L430.1 524.8L442.7 524.2L455.4 524.4L468 524.6L480.6 525.7L493.2 524.3L505.8 524.6L518.5 526.2L531.1 517.2L543.7 524.6L556.3 525.7L568.9 526.3L581.5 526.3L594.2 525.8L606.8 525.5L619.4 525.8L632 526.4L644.6 526.1L657.3 525.6"></path><g id="polyline"><polyline id="polyline" points="114.70,531.30 127.30,531.30 139.90,531.30 152.50,531.10 165.20,529.50 177.80,529.10 190.40,529.80 203.00,528.90 215.60,528.70 228.20,529.00 240.90,529.00 253.50,528.80 266.10,528.60 278.70,528.60 291.30,528.60 303.90,528.50 316.60,528.00 329.20,528.20 341.80,527.90 354.40,527.50 367.00,527.50 379.70,527.50 392.30,526.10 404.90,525.40 417.50,525.00 430.10,524.80 442.70,524.20 455.40,524.40 468.00,524.60 480.60,525.70 493.20,524.30 505.80,524.60 518.50,526.20 531.10,517.20 543.70,524.60 556.30,525.70 568.90,526.30 581.50,526.30 594.20,525.80 606.80,525.50 619.40,525.80 632.00,526.40 644.60,526.10 657.30,525.60" stroke-linejoin="round" stroke-width="1.5" stroke="#B13507" fill="none" stroke-linecap="butt"></polyline></g></g><g id="line__Zimbabwe"><path id="outline" fill="none" stroke-linecap="butt" stroke-linejoin="round" stroke="#fff" stroke-width="2.5" d="M89.4 529L102.1 529.2L114.7 529.3L127.3 529.3L139.9 529.6L152.5 529.3L165.2 529.5L177.8 529.9L190.4 529.7L203 529.1L215.6 529L228.2 528.8L240.9 528.8L253.5 528.8L266.1 528.8L278.7 529L291.3 528.8L303.9 528.6L316.6 529.1L329.2 529L341.8 528.7L354.4 528.7L367 528.6L379.7 528.6L392.3 528.7L404.9 528.7L417.5 529.1L430.1 529.1L442.7 529.1L455.4 529.5L468 529.4L480.6 529.8L493.2 530.1L505.8 530.8L518.5 530.8L531.1 531.1L543.7 530.9L556.3 530.7"></path><g id="polyline"><polyline id="polyline" points="89.40,529.00 102.10,529.20 114.70,529.30 127.30,529.30 139.90,529.60 152.50,529.30 165.20,529.50 177.80,529.90 190.40,529.70 203.00,529.10 215.60,529.00 228.20,528.80 240.90,528.80 253.50,528.80 266.10,528.80 278.70,529.00 291.30,528.80 303.90,528.60 316.60,529.10 329.20,529.00 341.80,528.70 354.40,528.70 367.00,528.60 379.70,528.60 392.30,528.70 404.90,528.70 417.50,529.10 430.10,529.10 442.70,529.10 455.40,529.50 468.00,529.40 480.60,529.80 493.20,530.10 505.80,530.80 518.50,530.80 531.10,531.10 543.70,530.90 556.30,530.70" stroke-linejoin="round" stroke-width="1.5" stroke="#18470F" fill="none" stroke-linecap="butt"></polyline></g></g><g id="line__World"><path id="outline" fill="none" stroke-linecap="butt" stroke-linejoin="round" stroke="#fff" stroke-width="2.5" d="M89.4 434.6L102.1 448.9L114.7 441.4L127.3 431.3L139.9 436.5L152.5 446.6L165.2 441L177.8 431.5L190.4 426.5L203 429L215.6 423.6L228.2 405.8L240.9 404.2L253.5 409L266.1 408.6L278.7 412L291.3 422L303.9 418.7L316.6 407.1L329.2 402L341.8 392.6L354.4 390L367 389.6L379.7 382.7L392.3 373.1L404.9 370.3L417.5 366.6L430.1 361.3L442.7 356.1L455.4 348.5L468 338.1L480.6 341.5L493.2 350.3L505.8 332.6L518.5 311.5L531.1 286.8L543.7 265.5L556.3 263.5L568.9 261.2L581.5 257.1L594.2 234L606.8 226.5L619.4 201L632 184.5L644.6 172.1L657.3 106.8"></path><g id="polyline"><polyline id="polyline" points="89.40,434.60 102.10,448.90 114.70,441.40 127.30,431.30 139.90,436.50 152.50,446.60 165.20,441.00 177.80,431.50 190.40,426.50 203.00,429.00 215.60,423.60 228.20,405.80 240.90,404.20 253.50,409.00 266.10,408.60 278.70,412.00 291.30,422.00 303.90,418.70 316.60,407.10 329.20,402.00 341.80,392.60 354.40,390.00 367.00,389.60 379.70,382.70 392.30,373.10 404.90,370.30 417.50,366.60 430.10,361.30 442.70,356.10 455.40,348.50 468.00,338.10 480.60,341.50 493.20,350.30 505.80,332.60 518.50,311.50 531.10,286.80 543.70,265.50 556.30,263.50 568.90,261.20 581.50,257.10 594.20,234.00 606.80,226.50 619.40,201.00 632.00,184.50 644.60,172.10 657.30,106.80" stroke-linejoin="round" stroke-width="1.5" stroke="#C15065" fill="none" stroke-linecap="butt"></polyline></g></g><g id="line__United-States"><path id="outline" fill="none" stroke-linecap="butt" stroke-linejoin="round" stroke="#fff" stroke-width="2.5" d="M89.4 526.6L102.1 526.7L114.7 525.9L127.3 525.9L139.9 525.3L152.5 525.8L165.2 527.2L177.8 525.8L190.4 526.8L203 531.1L215.6 531.3L228.2 531.3L240.9 531.3L253.5 530.8L266.1 530.3L278.7 530.1L291.3 530.6L303.9 531.3L316.6 530.2L329.2 529.3L341.8 529.1L354.4 530.7L632 531.1L657.3 531.3"></path><g id="polyline"><polyline id="polyline" points="89.40,526.60 102.10,526.70 114.70,525.90 127.30,525.90 139.90,525.30 152.50,525.80 165.20,527.20 177.80,525.80 190.40,526.80 203.00,531.10 215.60,531.30 228.20,531.30 240.90,531.30 253.50,530.80 266.10,530.30 278.70,530.10 291.30,530.60 303.90,531.30 316.60,530.20 329.20,529.30 341.80,529.10 354.40,530.70 632.00,531.10 657.30,531.30" stroke-linejoin="round" stroke-width="1.5" stroke="#6D3E91" fill="none" stroke-linecap="butt"></polyline></g></g><g id="line__United-Kingdom"><path id="outline" fill="none" stroke-linecap="butt" stroke-linejoin="round" stroke="#fff" stroke-width="2.5" d="M89.4 528.2L102.1 528.4L114.7 528.8L127.3 528.7L139.9 527.9L152.5 530.4L165.2 528.2L177.8 528.3L190.4 528.9L203 527.1L215.6 527.3L228.2 527.5L240.9 527.8L253.5 527.7L266.1 527.4L278.7 527.5L291.3 527.6L303.9 527.5L316.6 526.5L329.2 526.1L341.8 526.4L354.4 526L367 526L379.7 526.2L392.3 526.7L404.9 526.7L417.5 527.7L430.1 526.1L442.7 526.2L455.4 526.3L468 526.7L480.6 525.8L493.2 528.9L505.8 527L518.5 526.2L531.1 526L543.7 525.6L556.3 526L568.9 526.1L581.5 525.5L594.2 526.3L606.8 526.1L619.4 526.6L632 526.5L644.6 527.2L657.3 526.8"></path><g id="polyline"><polyline id="polyline" points="89.40,528.20 102.10,528.40 114.70,528.80 127.30,528.70 139.90,527.90 152.50,530.40 165.20,528.20 177.80,528.30 190.40,528.90 203.00,527.10 215.60,527.30 228.20,527.50 240.90,527.80 253.50,527.70 266.10,527.40 278.70,527.50 291.30,527.60 303.90,527.50 316.60,526.50 329.20,526.10 341.80,526.40 354.40,526.00 367.00,526.00 379.70,526.20 392.30,526.70 404.90,526.70 417.50,527.70 430.10,526.10 442.70,526.20 455.40,526.30 468.00,526.70 480.60,525.80 493.20,528.90 505.80,527.00 518.50,526.20 531.10,526.00 543.70,525.60 556.30,526.00 568.90,526.10 581.50,525.50 594.20,526.30 606.80,526.10 619.40,526.60 632.00,526.50 644.60,527.20 657.30,526.80" stroke-linejoin="round" stroke-width="1.5" stroke="#B16214" fill="none" stroke-linecap="butt"></polyline></g></g><g id="line__USSR"><path id="outline" fill="none" stroke-linecap="butt" stroke-linejoin="round" stroke="#fff" stroke-width="2.5" d="M89.4 510.3L102.1 509.7L114.7 509.7L127.3 509L139.9 508.3L152.5 505.6L165.2 505.3L177.8 505.2L190.4 504.5L203 504.9L215.6 502.9L228.2 491.4L240.9 491.4L253.5 494.5L266.1 496.5"></path><g id="polyline"><polyline id="polyline" points="89.40,510.30 102.10,509.70 114.70,509.70 127.30,509.00 139.90,508.30 152.50,505.60 165.20,505.30 177.80,505.20 190.40,504.50 203.00,504.90 215.60,502.90 228.20,491.40 240.90,491.40 253.50,494.50 266.10,496.50" stroke-linejoin="round" stroke-width="1.5" stroke="#D73C50" fill="none" stroke-linecap="butt"></polyline></g></g><g id="line__South-Africa"><path id="outline" fill="none" stroke-linecap="butt" stroke-linejoin="round" stroke="#fff" stroke-width="2.5" d="M89.4 529L102.1 529.3L114.7 528.5L127.3 528.9L139.9 529L152.5 529L165.2 528.7L177.8 528.5L190.4 528.1L203 527.9L215.6 527.4L228.2 527.3L240.9 527.5L253.5 527.5L266.1 527.7L278.7 527.6L291.3 527.3L303.9 527.2L316.6 527.3L329.2 526.7L341.8 526.6L354.4 526.4L367 526.9L379.7 526.3L392.3 526.4L404.9 526.1L417.5 525.8L430.1 525.9L442.7 525.6L455.4 525.7L468 526L480.6 526.1L493.2 526.7L505.8 526.6L518.5 526.4L531.1 526.8L543.7 526.9L556.3 526.7L568.9 525.6L581.5 525.6L594.2 525.5L606.8 526L619.4 526L632 527.4L644.6 525.9L657.3 525.9"></path><g id="polyline"><polyline id="polyline" points="89.40,529.00 102.10,529.30 114.70,528.50 127.30,528.90 139.90,529.00 152.50,529.00 165.20,528.70 177.80,528.50 190.40,528.10 203.00,527.90 215.60,527.40 228.20,527.30 240.90,527.50 253.50,527.50 266.10,527.70 278.70,527.60 291.30,527.30 303.90,527.20 316.60,527.30 329.20,526.70 341.80,526.60 354.40,526.40 367.00,526.90 379.70,526.30 392.30,526.40 404.90,526.10 417.50,525.80 430.10,525.90 442.70,525.60 455.40,525.70 468.00,526.00 480.60,526.10 493.20,526.70 505.80,526.60 518.50,526.40 531.10,526.80 543.70,526.90 556.30,526.70 568.90,525.60 581.50,525.60 594.20,525.50 606.80,526.00 619.40,526.00 632.00,527.40 644.60,525.90 657.30,525.90" stroke-linejoin="round" stroke-width="1.5" stroke="#883039" fill="none" stroke-linecap="butt"></polyline></g></g><g id="line__Poland"><path id="outline" fill="none" stroke-linecap="butt" stroke-linejoin="round" stroke="#fff" stroke-width="2.5" d="M89.4 531L102.1 531L114.7 531L127.3 531.1L139.9 531.1L152.5 531.2L165.2 531.3L177.8 531.3L190.4 531.3L203 531.3L493.2 531.2L505.8 531.2L518.5 531.2L531.1 531.2L543.7 531.2L556.3 531.2L568.9 531.2L581.5 531.2L594.2 531.2"></path><g id="polyline"><polyline id="polyline" points="89.40,531.00 102.10,531.00 114.70,531.00 127.30,531.10 139.90,531.10 152.50,531.20 165.20,531.30 177.80,531.30 190.40,531.30 203.00,531.30 493.20,531.20 505.80,531.20 518.50,531.20 531.10,531.20 543.70,531.20 556.30,531.20 568.90,531.20 581.50,531.20 594.20,531.20" stroke-linejoin="round" stroke-width="1.5" stroke="#970046" fill="none" stroke-linecap="butt"></polyline></g></g><g id="line__Philippines"><path id="outline" fill="none" stroke-linecap="butt" stroke-linejoin="round" stroke="#fff" stroke-width="2.5" d="M89.4 528.7L102.1 529.1L114.7 528.8L127.3 528.2L139.9 528.4L152.5 529.8L165.2 530.5L177.8 530.8L190.4 529L203 531.1"></path><g id="polyline"><polyline id="polyline" points="89.40,528.70 102.10,529.10 114.70,528.80 127.30,528.20 139.90,528.40 152.50,529.80 165.20,530.50 177.80,530.80 190.40,529.00 203.00,531.10" stroke-linejoin="round" stroke-width="1.5" stroke="#00847E" fill="none" stroke-linecap="butt"></polyline></g></g><g id="line__Norway"><path id="outline" fill="none" stroke-linecap="butt" stroke-linejoin="round" stroke="#fff" stroke-width="2.5" d="M89.4 526.1L102.1 528.1L114.7 527.1L127.3 526.3L139.9 526.3L152.5 527.8L165.2 527.4L177.8 526.5L190.4 526.2L203 526.1L215.6 525.3L228.2 524.2L240.9 523.9L253.5 523.5L266.1 523.4L278.7 523.8L291.3 523.6L303.9 522.1L316.6 524.1L329.2 523L341.8 522.8L354.4 521.8L367 521.3L379.7 523.4L392.3 522.1L404.9 522L417.5 520.9L430.1 521.6L442.7 519.8L455.4 520.2L468 519.5L480.6 519.3L493.2 519.3L505.8 518.8L518.5 518.8L531.1 518.9L543.7 519L556.3 519.1L568.9 519L581.5 518.8L594.2 519.6L606.8 519L619.4 518.8L632 519L644.6 519L657.3 520.2"></path><g id="polyline"><polyline id="polyline" points="89.40,526.10 102.10,528.10 114.70,527.10 127.30,526.30 139.90,526.30 152.50,527.80 165.20,527.40 177.80,526.50 190.40,526.20 203.00,526.10 215.60,525.30 228.20,524.20 240.90,523.90 253.50,523.50 266.10,523.40 278.70,523.80 291.30,523.60 303.90,522.10 316.60,524.10 329.20,523.00 341.80,522.80 354.40,521.80 367.00,521.30 379.70,523.40 392.30,522.10 404.90,522.00 417.50,520.90 430.10,521.60 442.70,519.80 455.40,520.20 468.00,519.50 480.60,519.30 493.20,519.30 505.80,518.80 518.50,518.80 531.10,518.90 543.70,519.00 556.30,519.10 568.90,519.00 581.50,518.80 594.20,519.60 606.80,519.00 619.40,518.80 632.00,519.00 644.60,519.00 657.30,520.20" stroke-linejoin="round" stroke-width="1.5" stroke="#338711" fill="none" stroke-linecap="butt"></polyline></g></g><g id="line__New-Caledonia"><path id="outline" fill="none" stroke-linecap="butt" stroke-linejoin="round" stroke="#fff" stroke-width="2.5" d="M89.4 527.5L102.1 528.6L114.7 527.2L127.3 526.9L139.9 527.5L152.5 527.5L165.2 528.4L177.8 527.4L190.4 526.4L203 526.8L215.6 527.3L228.2 526.2L240.9 526.4L253.5 526.9L266.1 526.6L278.7 527L291.3 526.3L303.9 526L316.6 525.6L329.2 525.6L341.8 525.3L354.4 525.3L367 525.2L379.7 525.4L392.3 525.1L404.9 524.7L417.5 524.4L430.1 525.5L442.7 525L455.4 524.7L468 525.2L480.6 526.2L493.2 526.1L505.8 525.9L518.5 525.8L531.1 525.2L543.7 524.8L556.3 522.9L568.9 520.8L581.5 518.3L594.2 517.2L606.8 516.7L619.4 519.4L632 521.5L644.6 523.6L657.3 522.3"></path><g id="polyline"><polyline id="polyline" points="89.40,527.50 102.10,528.60 114.70,527.20 127.30,526.90 139.90,527.50 152.50,527.50 165.20,528.40 177.80,527.40 190.40,526.40 203.00,526.80 215.60,527.30 228.20,526.20 240.90,526.40 253.50,526.90 266.10,526.60 278.70,527.00 291.30,526.30 303.90,526.00 316.60,525.60 329.20,525.60 341.80,525.30 354.40,525.30 367.00,525.20 379.70,525.40 392.30,525.10 404.90,524.70 417.50,524.40 430.10,525.50 442.70,525.00 455.40,524.70 468.00,525.20 480.60,526.20 493.20,526.10 505.80,525.90 518.50,525.80 531.10,525.20 543.70,524.80 556.30,522.90 568.90,520.80 581.50,518.30 594.20,517.20 606.80,516.70 619.40,519.40 632.00,521.50 644.60,523.60 657.30,522.30" stroke-linejoin="round" stroke-width="1.5" stroke="#C15065" fill="none" stroke-linecap="butt"></polyline></g></g><g id="line__Japan"><path id="outline" fill="none" stroke-linecap="butt" stroke-linejoin="round" stroke="#fff" stroke-width="2.5" d="M89.4 518.6L102.1 520.6L114.7 517L127.3 516.5L139.9 518.6L152.5 519.5L165.2 520.2L177.8 519.2L190.4 518.8L203 518.7L215.6 518.2L228.2 517.4L240.9 517L253.5 517.7L266.1 515.9L278.7 516.8L291.3 517.4L303.9 516.1L316.6 513L329.2 513.6L341.8 513.9L354.4 514.2L367 513.1L379.7 509.6L392.3 510.5L404.9 509.9L417.5 509L430.1 508.4L442.7 509.2L455.4 511L468 509.5L480.6 510.1L493.2 511.9L505.8 508.8L518.5 510.1L531.1 508.4L543.7 507.2L556.3 507.3L568.9 505.2L581.5 504.8L594.2 506L606.8 506L619.4 506.6L632 508.3L644.6 506.9L657.3 511.3"></path><g id="polyline"><polyline id="polyline" points="89.40,518.60 102.10,520.60 114.70,517.00 127.30,516.50 139.90,518.60 152.50,519.50 165.20,520.20 177.80,519.20 190.40,518.80 203.00,518.70 215.60,518.20 228.20,517.40 240.90,517.00 253.50,517.70 266.10,515.90 278.70,516.80 291.30,517.40 303.90,516.10 316.60,513.00 329.20,513.60 341.80,513.90 354.40,514.20 367.00,513.10 379.70,509.60 392.30,510.50 404.90,509.90 417.50,509.00 430.10,508.40 442.70,509.20 455.40,511.00 468.00,509.50 480.60,510.10 493.20,511.90 505.80,508.80 518.50,510.10 531.10,508.40 543.70,507.20 556.30,507.30 568.90,505.20 581.50,504.80 594.20,506.00 606.80,506.00 619.40,506.60 632.00,508.30 644.60,506.90 657.30,511.30" stroke-linejoin="round" stroke-width="1.5" stroke="#970046" fill="none" stroke-linecap="butt"></polyline></g></g><g id="line__Indonesia"><path id="outline" fill="none" stroke-linecap="butt" stroke-linejoin="round" stroke="#fff" stroke-width="2.5" d="M89.4 530.6L102.1 530.7L114.7 530.8L127.3 530.7L139.9 530.7L152.5 530.6L165.2 530.6L177.8 530.7L190.4 530.7L203 530.7L215.6 531.1L228.2 530.6L240.9 530.6L253.5 530.6L266.1 530.6L278.7 530.6L291.3 530.6L303.9 530.5L316.6 529.8L329.2 530L341.8 529.9L354.4 530.2L367 530.1L379.7 529.9L392.3 529.9L404.9 530.1L417.5 530.1L430.1 530.2L442.7 530.3L455.4 529.3L468 528.8L480.6 528.9L493.2 529.6L505.8 528.8L518.5 528.6L531.1 528.8L543.7 528.4L556.3 528.3L568.9 526.1L581.5 515.6L594.2 503.7L606.8 492.1L619.4 476L632 445.8L644.6 412.8L657.3 373.7"></path><g id="polyline"><polyline id="polyline" points="89.40,530.60 102.10,530.70 114.70,530.80 127.30,530.70 139.90,530.70 152.50,530.60 165.20,530.60 177.80,530.70 190.40,530.70 203.00,530.70 215.60,531.10 228.20,530.60 240.90,530.60 253.50,530.60 266.10,530.60 278.70,530.60 291.30,530.60 303.90,530.50 316.60,529.80 329.20,530.00 341.80,529.90 354.40,530.20 367.00,530.10 379.70,529.90 392.30,529.90 404.90,530.10 417.50,530.10 430.10,530.20 442.70,530.30 455.40,529.30 468.00,528.80 480.60,528.90 493.20,529.60 505.80,528.80 518.50,528.60 531.10,528.80 543.70,528.40 556.30,528.30 568.90,526.10 581.50,515.60 594.20,503.70 606.80,492.10 619.40,476.00 632.00,445.80 644.60,412.80 657.30,373.70" stroke-linejoin="round" stroke-width="1.5" stroke="#008291" fill="none" stroke-linecap="butt"></polyline></g></g><g id="line__Greece"><path id="outline" fill="none" stroke-linecap="butt" stroke-linejoin="round" stroke="#fff" stroke-width="2.5" d="M89.4 530L102.1 529.3L114.7 529.3L127.3 529.4L139.9 529.8L152.5 530.7L165.2 529.6L177.8 529.2L190.4 529.1L203 529.9L215.6 530.1L228.2 529.5L240.9 529.9L253.5 529.2L266.1 529.1L278.7 529.2L291.3 529.8L303.9 529.1L316.6 529L329.2 528.9L341.8 528.9L354.4 529.3L367 529.5L379.7 529L392.3 528.9L404.9 528.7L417.5 528.9L430.1 528.8L442.7 528.7L455.4 528.9L468 528.8L480.6 529L493.2 530.2L505.8 529.4L518.5 528.8L531.1 528.8L543.7 528.9L556.3 528.8L568.9 529L581.5 529L594.2 529L606.8 529.2L619.4 529.7L632 530.5L644.6 530.7L657.3 531.1"></path><g id="polyline"><polyline id="polyline" points="89.40,530.00 102.10,529.30 114.70,529.30 127.30,529.40 139.90,529.80 152.50,530.70 165.20,529.60 177.80,529.20 190.40,529.10 203.00,529.90 215.60,530.10 228.20,529.50 240.90,529.90 253.50,529.20 266.10,529.10 278.70,529.20 291.30,529.80 303.90,529.10 316.60,529.00 329.20,528.90 341.80,528.90 354.40,529.30 367.00,529.50 379.70,529.00 392.30,528.90 404.90,528.70 417.50,528.90 430.10,528.80 442.70,528.70 455.40,528.90 468.00,528.80 480.60,529.00 493.20,530.20 505.80,529.40 518.50,528.80 531.10,528.80 543.70,528.90 556.30,528.80 568.90,529.00 581.50,529.00 594.20,529.00 606.80,529.20 619.40,529.70 632.00,530.50 644.60,530.70 657.30,531.10" stroke-linejoin="round" stroke-width="1.5" stroke="#883039" fill="none" stroke-linecap="butt"></polyline></g></g><g id="line__France"><path id="outline" fill="none" stroke-linecap="butt" stroke-linejoin="round" stroke="#fff" stroke-width="2.5" d="M89.4 529.9L102.1 530.2L114.7 531L127.3 530L139.9 529.9L152.5 530.3L165.2 530.6L177.8 530.6L190.4 530.4L203 530.2L215.6 530.4L228.2 530.1L240.9 530.1L253.5 530.1L266.1 530.3L278.7 530.2L291.3 529.9L303.9 529.9L316.6 529.9L329.2 529.8L341.8 529.9L354.4 529.7L367 529.7L379.7 529.6L392.3 529.5L404.9 529.8L417.5 529.8L430.1 529.7L442.7 529.6L455.4 529.4L468 529.3L480.6 529.4L493.2 529.4L505.8 529.6L518.5 529.4L531.1 529.5L543.7 529.7L556.3 530.2L568.9 530.4L581.5 530.7L594.2 531L606.8 530.8L619.4 530.4L632 530.4L644.6 530.1L657.3 530.3"></path><g id="polyline"><polyline id="polyline" points="89.40,529.90 102.10,530.20 114.70,531.00 127.30,530.00 139.90,529.90 152.50,530.30 165.20,530.60 177.80,530.60 190.40,530.40 203.00,530.20 215.60,530.40 228.20,530.10 240.90,530.10 253.50,530.10 266.10,530.30 278.70,530.20 291.30,529.90 303.90,529.90 316.60,529.90 329.20,529.80 341.80,529.90 354.40,529.70 367.00,529.70 379.70,529.60 392.30,529.50 404.90,529.80 417.50,529.80 430.10,529.70 442.70,529.60 455.40,529.40 468.00,529.30 480.60,529.40 493.20,529.40 505.80,529.60 518.50,529.40 531.10,529.50 543.70,529.70 556.30,530.20 568.90,530.40 581.50,530.70 594.20,531.00 606.80,530.80 619.40,530.40 632.00,530.40 644.60,530.10 657.30,530.30" stroke-linejoin="round" stroke-width="1.5" stroke="#CF0A66" fill="none" stroke-linecap="butt"></polyline></g></g><g id="line__Finland"><path id="outline" fill="none" stroke-linecap="butt" stroke-linejoin="round" stroke="#fff" stroke-width="2.5" d="M89.4 530L102.1 530.3L114.7 529.8L127.3 529.6L139.9 529.5L152.5 529.6L165.2 529.3L177.8 529.2L190.4 529.2L203 529.1L215.6 528.9L228.2 529.1L240.9 529.5L253.5 529L266.1 529.5L278.7 529.3L291.3 529.3L303.9 529L316.6 529.1L329.2 527.4L341.8 526.5L354.4 525.4L367 524.2L379.7 523.9L392.3 523.9L404.9 523.8L417.5 524.4L430.1 524.6L442.7 526L455.4 524.9L468 523.9L480.6 524.3L493.2 525.7L505.8 524.6L518.5 524.6L531.1 525L543.7 525.3L556.3 525.5L568.9 523.1L581.5 519.7L594.2 519.7L606.8 518.8L619.4 519.1L632 519L644.6 522.1L657.3 518.9"></path><g id="polyline"><polyline id="polyline" points="89.40,530.00 102.10,530.30 114.70,529.80 127.30,529.60 139.90,529.50 152.50,529.60 165.20,529.30 177.80,529.20 190.40,529.20 203.00,529.10 215.60,528.90 228.20,529.10 240.90,529.50 253.50,529.00 266.10,529.50 278.70,529.30 291.30,529.30 303.90,529.00 316.60,529.10 329.20,527.40 341.80,526.50 354.40,525.40 367.00,524.20 379.70,523.90 392.30,523.90 404.90,523.80 417.50,524.40 430.10,524.60 442.70,526.00 455.40,524.90 468.00,523.90 480.60,524.30 493.20,525.70 505.80,524.60 518.50,524.60 531.10,525.00 543.70,525.30 556.30,525.50 568.90,523.10 581.50,519.70 594.20,519.70 606.80,518.80 619.40,519.10 632.00,519.00 644.60,522.10 657.30,518.90" stroke-linejoin="round" stroke-width="1.5" stroke="#6D3E91" fill="none" stroke-linecap="butt"></polyline></g></g><g id="line__East-Germany"><path id="outline" fill="none" stroke-linecap="butt" stroke-linejoin="round" stroke="#fff" stroke-width="2.5" d="M89.4 530.9L102.1 530.9L114.7 530.9L127.3 530.9L139.9 530.9L152.5 530.9L165.2 530.9L177.8 530.9L190.4 531L203 530.9L215.6 530.9L228.2 530.9L240.9 530.9L253.5 531.1"></path><g id="polyline"><polyline id="polyline" points="89.40,530.90 102.10,530.90 114.70,530.90 127.30,530.90 139.90,530.90 152.50,530.90 165.20,530.90 177.80,530.90 190.40,531.00 203.00,530.90 215.60,530.90 228.20,530.90 240.90,530.90 253.50,531.10" stroke-linejoin="round" stroke-width="1.5" stroke="#C15065" fill="none" stroke-linecap="butt"></polyline></g></g><g id="line__Dominican-Republic"><path id="outline" fill="none" stroke-linecap="butt" stroke-linejoin="round" stroke="#fff" stroke-width="2.5" d="M89.4 527.9L102.1 528.6L114.7 528L127.3 529.1L139.9 528.8L152.5 530.6L165.2 528.4L177.8 528L190.4 527.8L203 528.3L215.6 527.4L228.2 527.3L240.9 527.1L253.5 527.4L266.1 527.4L278.7 527.6L291.3 528.1L303.9 527.1L316.6 527.1L329.2 527.2L341.8 526.9L354.4 527.9L367 528L379.7 527.5L392.3 528.4L404.9 528.1L417.5 527.6L430.1 527.3L442.7 527.4L455.4 527.3L468 527.4L480.6 528.8L493.2 531.3L505.8 531.3L518.5 529.5L531.1 529.2L543.7 530L556.3 531.3L568.9 531.3L581.5 530L594.2 529.2L606.8 528.8L619.4 527.6L632 528.5L644.6 527.7L657.3 527.6"></path><g id="polyline"><polyline id="polyline" points="89.40,527.90 102.10,528.60 114.70,528.00 127.30,529.10 139.90,528.80 152.50,530.60 165.20,528.40 177.80,528.00 190.40,527.80 203.00,528.30 215.60,527.40 228.20,527.30 240.90,527.10 253.50,527.40 266.10,527.40 278.70,527.60 291.30,528.10 303.90,527.10 316.60,527.10 329.20,527.20 341.80,526.90 354.40,527.90 367.00,528.00 379.70,527.50 392.30,528.40 404.90,528.10 417.50,527.60 430.10,527.30 442.70,527.40 455.40,527.30 468.00,527.40 480.60,528.80 493.20,531.30 505.80,531.30 518.50,529.50 531.10,529.20 543.70,530.00 556.30,531.30 568.90,531.30 581.50,530.00 594.20,529.20 606.80,528.80 619.40,527.60 632.00,528.50 644.60,527.70 657.30,527.60" stroke-linejoin="round" stroke-width="1.5" stroke="#D73C50" fill="none" stroke-linecap="butt"></polyline></g></g><g id="line__Czechoslovakia"><path id="outline" fill="none" stroke-linecap="butt" stroke-linejoin="round" stroke="#fff" stroke-width="2.5" d="M89.4 530.8L102.1 530.8L114.7 530.9L127.3 531L139.9 531.1L152.5 531.1L165.2 530.9L177.8 530.7L190.4 530.8L203 530.8L215.6 530.8L228.2 530.8L240.9 531L253.5 530.9L266.1 531L278.7 531.1"></path><g id="polyline"><polyline id="polyline" points="89.40,530.80 102.10,530.80 114.70,530.90 127.30,531.00 139.90,531.10 152.50,531.10 165.20,530.90 177.80,530.70 190.40,530.80 203.00,530.80 215.60,530.80 228.20,530.80 240.90,531.00 253.50,530.90 266.10,531.00 278.70,531.10" stroke-linejoin="round" stroke-width="1.5" stroke="#8C4569" fill="none" stroke-linecap="butt"></polyline></g></g><g id="line__Cuba"><path id="outline" fill="none" stroke-linecap="butt" stroke-linejoin="round" stroke="#fff" stroke-width="2.5" d="M89.4 528.8L102.1 528.8L114.7 528.7L127.3 528.6L139.9 528.5L152.5 528.5L165.2 530L177.8 529L190.4 529.2L203 529.1L215.6 528.8L228.2 528.1L240.9 527.7L253.5 528.4L266.1 528.8L278.7 529L291.3 529.1L303.9 529.4L316.6 528.4L329.2 527.7L341.8 526.8L354.4 526.1L367 526.2L379.7 526L392.3 525.8L404.9 526L417.5 525.6L430.1 526.1L442.7 526L455.4 525.6L468 526.7L480.6 526.5L493.2 526.8L505.8 526.7L518.5 526.6L531.1 527.8L543.7 529.1L556.3 529.5L568.9 529.3L581.5 529.3L594.2 529.2L606.8 529.3L619.4 529.6L632 529.3L644.6 529.4L657.3 529.4"></path><g id="polyline"><polyline id="polyline" points="89.40,528.80 102.10,528.80 114.70,528.70 127.30,528.60 139.90,528.50 152.50,528.50 165.20,530.00 177.80,529.00 190.40,529.20 203.00,529.10 215.60,528.80 228.20,528.10 240.90,527.70 253.50,528.40 266.10,528.80 278.70,529.00 291.30,529.10 303.90,529.40 316.60,528.40 329.20,527.70 341.80,526.80 354.40,526.10 367.00,526.20 379.70,526.00 392.30,525.80 404.90,526.00 417.50,525.60 430.10,526.10 442.70,526.00 455.40,525.60 468.00,526.70 480.60,526.50 493.20,526.80 505.80,526.70 518.50,526.60 531.10,527.80 543.70,529.10 556.30,529.50 568.90,529.30 581.50,529.30 594.20,529.20 606.80,529.30 619.40,529.60 632.00,529.30 644.60,529.40 657.30,529.40" stroke-linejoin="round" stroke-width="1.5" stroke="#00875E" fill="none" stroke-linecap="butt"></polyline></g></g><g id="line__China"><path id="outline" fill="none" stroke-linecap="butt" stroke-linejoin="round" stroke="#fff" stroke-width="2.5" d="M89.4 529.9L102.1 529.9L114.7 529.8L127.3 529.8L139.9 529.7L152.5 529.6L165.2 529.5L177.8 528.9L190.4 528L203 528.1L215.6 527.9L228.2 527.9L240.9 526.7L253.5 527.6L266.1 527.5L278.7 527.1L291.3 527.2L303.9 527.1L316.6 526L329.2 525.3L341.8 525.4L354.4 525.9L367 525.3L379.7 524.4L392.3 524.6L404.9 524.2L417.5 522.5L430.1 521.5L442.7 518.1L455.4 512.8L468 504.3L480.6 504.2L493.2 497L505.8 486.4L518.5 472.4L531.1 461.1L543.7 437.5L556.3 437.9L568.9 450.1L581.5 453.7L594.2 440.7L606.8 435.9L619.4 422.3L632 430.5L644.6 440.8L657.3 416.3"></path><g id="polyline"><polyline id="polyline" points="89.40,529.90 102.10,529.90 114.70,529.80 127.30,529.80 139.90,529.70 152.50,529.60 165.20,529.50 177.80,528.90 190.40,528.00 203.00,528.10 215.60,527.90 228.20,527.90 240.90,526.70 253.50,527.60 266.10,527.50 278.70,527.10 291.30,527.20 303.90,527.10 316.60,526.00 329.20,525.30 341.80,525.40 354.40,525.90 367.00,525.30 379.70,524.40 392.30,524.60 404.90,524.20 417.50,522.50 430.10,521.50 442.70,518.10 455.40,512.80 468.00,504.30 480.60,504.20 493.20,497.00 505.80,486.40 518.50,472.40 531.10,461.10 543.70,437.50 556.30,437.90 568.90,450.10 581.50,453.70 594.20,440.70 606.80,435.90 619.40,422.30 632.00,430.50 644.60,440.80 657.30,416.30" stroke-linejoin="round" stroke-width="1.5" stroke="#CF0A66" fill="none" stroke-linecap="butt"></polyline></g></g><g id="line__Canada"><path id="outline" fill="none" stroke-linecap="butt" stroke-linejoin="round" stroke="#fff" stroke-width="2.5" d="M89.4 510.7L102.1 519.2L114.7 520L127.3 512.1L139.9 516.9L152.5 521.4L165.2 518.7L177.8 516.2L190.4 515.4L203 514.5L215.6 513.5L228.2 511.2L240.9 512L253.5 513.1L266.1 513.5L278.7 513L291.3 514.6L303.9 517.1L316.6 514.3L329.2 513.7L341.8 513.5L354.4 511.4L367 514.5L379.7 513.1L392.3 512.3L404.9 511.8L417.5 514.5L430.1 510.8L442.7 512.4L455.4 511.4L468 510.5L480.6 508.6L493.2 515.5L505.8 517L518.5 512L531.1 511.4L543.7 510.6L556.3 511.1L568.9 511L581.5 509.9L594.2 510.4L606.8 512.7L619.4 514.4L632 514.5L644.6 515.2L657.3 511.9"></path><g id="polyline"><polyline id="polyline" points="89.40,510.70 102.10,519.20 114.70,520.00 127.30,512.10 139.90,516.90 152.50,521.40 165.20,518.70 177.80,516.20 190.40,515.40 203.00,514.50 215.60,513.50 228.20,511.20 240.90,512.00 253.50,513.10 266.10,513.50 278.70,513.00 291.30,514.60 303.90,517.10 316.60,514.30 329.20,513.70 341.80,513.50 354.40,511.40 367.00,514.50 379.70,513.10 392.30,512.30 404.90,511.80 417.50,514.50 430.10,510.80 442.70,512.40 455.40,511.40 468.00,510.50 480.60,508.60 493.20,515.50 505.80,517.00 518.50,512.00 531.10,511.40 543.70,510.60 556.30,511.10 568.90,511.00 581.50,509.90 594.20,510.40 606.80,512.70 619.40,514.40 632.00,514.50 644.60,515.20 657.30,511.90" stroke-linejoin="round" stroke-width="1.5" stroke="#286BBB" fill="none" stroke-linecap="butt"></polyline></g></g><g id="line__Brazil"><path id="outline" fill="none" stroke-linecap="butt" stroke-linejoin="round" stroke="#fff" stroke-width="2.5" d="M89.4 531L102.1 531L114.7 531L127.3 531L139.9 531L152.5 530.6L165.2 529.8L177.8 529.6L190.4 529.5L203 529.5L215.6 529.4L228.2 529.5L240.9 529.4L253.5 529.5L266.1 529.4L278.7 529.3L291.3 529.2L303.9 529.1L316.6 529.2L329.2 529.1L341.8 528.7L354.4 527.8L367 526.9L379.7 527L392.3 526.7L404.9 527.2L417.5 527.2L430.1 527L442.7 526.4L455.4 526.4L468 526.6L480.6 526.4L493.2 526.9L505.8 525.6L518.5 525.4L531.1 523.2L543.7 523.5L556.3 520.5L568.9 520.8L581.5 520.9L594.2 522L606.8 522.9L619.4 524L632 523.2L644.6 523.1L657.3 522.7"></path><g id="polyline"><polyline id="polyline" points="89.40,531.00 102.10,531.00 114.70,531.00 127.30,531.00 139.90,531.00 152.50,530.60 165.20,529.80 177.80,529.60 190.40,529.50 203.00,529.50 215.60,529.40 228.20,529.50 240.90,529.40 253.50,529.50 266.10,529.40 278.70,529.30 291.30,529.20 303.90,529.10 316.60,529.20 329.20,529.10 341.80,528.70 354.40,527.80 367.00,526.90 379.70,527.00 392.30,526.70 404.90,527.20 417.50,527.20 430.10,527.00 442.70,526.40 455.40,526.40 468.00,526.60 480.60,526.40 493.20,526.90 505.80,525.60 518.50,525.40 531.10,523.20 543.70,523.50 556.30,520.50 568.90,520.80 581.50,520.90 594.20,522.00 606.80,522.90 619.40,524.00 632.00,523.20 644.60,523.10 657.30,522.70" stroke-linejoin="round" stroke-width="1.5" stroke="#970046" fill="none" stroke-linecap="butt"></polyline></g></g><g id="line__Australia"><path id="outline" fill="none" stroke-linecap="butt" stroke-linejoin="round" stroke="#fff" stroke-width="2.5" d="M89.4 526.7L102.1 526.3L114.7 526L127.3 526.5L139.9 525.6L152.5 525.1L165.2 525.6L177.8 526.1L190.4 525.8L203 525.6L215.6 525.3L228.2 526.2L240.9 525.4L253.5 525.3L266.1 524.5L278.7 524.5L291.3 523L303.9 522.3L316.6 520.9L329.2 521.3L341.8 521.3L354.4 520.5L367 520L379.7 516.1L392.3 513.9L404.9 513.4L417.5 513.9L430.1 514.8L442.7 514.9L455.4 515.5L468 515.8L480.6 516.6L493.2 513.6L505.8 517.6L518.5 516.4L531.1 514.3L543.7 512.2L556.3 512.7L568.9 510.6L581.5 515L594.2 516.6L606.8 515.8L619.4 516.9L632 515.6L644.6 517.9L657.3 518.2"></path><g id="polyline"><polyline id="polyline" points="89.40,526.70 102.10,526.30 114.70,526.00 127.30,526.50 139.90,525.60 152.50,525.10 165.20,525.60 177.80,526.10 190.40,525.80 203.00,525.60 215.60,525.30 228.20,526.20 240.90,525.40 253.50,525.30 266.10,524.50 278.70,524.50 291.30,523.00 303.90,522.30 316.60,520.90 329.20,521.30 341.80,521.30 354.40,520.50 367.00,520.00 379.70,516.10 392.30,513.90 404.90,513.40 417.50,513.90 430.10,514.80 442.70,514.90 455.40,515.50 468.00,515.80 480.60,516.60 493.20,513.60 505.80,517.60 518.50,516.40 531.10,514.30 543.70,512.20 556.30,512.70 568.90,510.60 581.50,515.00 594.20,516.60 606.80,515.80 619.40,516.90 632.00,515.60 644.60,517.90 657.30,518.20" stroke-linejoin="round" stroke-width="1.5" stroke="#2C8465" fill="none" stroke-linecap="butt"></polyline></g></g><g id="line__Albania"><path id="outline" fill="none" stroke-linecap="butt" stroke-linejoin="round" stroke="#fff" stroke-width="2.5" d="M89.4 530.8L102.1 530.8L114.7 530.7L127.3 530.7L139.9 530.7L152.5 530.7L165.2 530.7L177.8 530.8L190.4 530.8L203 530.8L215.6 530.8L228.2 530.6L240.9 531L253.5 531L266.1 531.2"></path><g id="polyline"><polyline id="polyline" points="89.40,530.80 102.10,530.80 114.70,530.70 127.30,530.70 139.90,530.70 152.50,530.70 165.20,530.70 177.80,530.80 190.40,530.80 203.00,530.80 215.60,530.80 228.20,530.60 240.90,531.00 253.50,531.00 266.10,531.20" stroke-linejoin="round" stroke-width="1.5" stroke="#883039" fill="none" stroke-linecap="butt"></polyline></g></g></g></g></g></g><g id="footer" class="SourcesFooter" style="fill:#5b5b5b"><g id="sources" class="markdown-text-wrap"><text x="16.0" y="580.9" style="font-size:13.5px;line-height:1.2"><tspan x="16" y="580.9"><tspan style="font-weight:700">Data source:</tspan> BGS - World Mineral Statistics (2023)</tspan></text></g><text id="origin-url" font-size="13.50" x="792.7" y="580.9"><tspan x="792.69" y="580.895"><a target="_blank" style="fill: #5b5b5b;" href="https://creativecommons.org/licenses/by/4.0/">CC BY</a></tspan></text></g></svg>