<svg xmlns="http://www.w3.org/2000/svg" version="1.1" style="font-family:Lato, &#x27;Helvetica Neue&#x27;, Helvetica, Arial, &#x27;Liberation Sans&#x27;, sans-serif;font-size:18px;background-color:white;text-rendering:geometricPrecision;-webkit-font-smoothing:antialiased" width="850" height="706.25" viewBox="0 0 850 706.25"><defs><style>@import url(https://ourworldindata.org/fonts.css)</style></defs><defs><pattern id="noDataPattern" patternUnits="userSpaceOnUse" width="4" height="4" patternTransform="rotate(-45 2 2)"><path d="M -1,2 l 6,0" stroke="#ccc" stroke-width="0.7"></path></pattern></defs><rect class="background-fill" fill="white" width="850" height="706.25"></rect><g id="header" class="HeaderView"><g id="logo" transform="translate(769, 16) scale(1)"><svg className="owidLogo" xmlns="http://www.w3.org/2000/svg" width="65" height="36" viewBox="0 0 65 36"  fill="none"><path fill="#002147" d="M0 0h64.8v36H0z"/><path fill="#CE261E" d="M0 33.3h64.8V36H0z"/><path fill="#fff" d="M13.796 10.575c0 .636-.106 1.226-.318 1.77a4.193 4.193 0 0 1-.894 1.404 4.084 4.084 0 0 1-1.386.93c-.54.22-1.138.33-1.794.33-.656 0-1.256-.11-1.8-.33a4.149 4.149 0 0 1-1.392-.93 4.193 4.193 0 0 1-.894-1.404A4.833 4.833 0 0 1 5 10.575c0-.636.106-1.224.318-1.764a4.18 4.18 0 0 1 .894-1.41 4.076 4.076 0 0 1 1.392-.924 4.684 4.684 0 0 1 1.8-.336c.656 0 1.254.112 1.794.336.54.224 1.002.534 1.386.93.384.392.682.86.894 1.404.212.54.318 1.128.318 1.764Zm-1.656 0c0-.476-.064-.902-.192-1.278a2.671 2.671 0 0 0-.54-.966 2.332 2.332 0 0 0-.864-.606 2.94 2.94 0 0 0-1.14-.21c-.424 0-.806.07-1.146.21-.34.14-.63.342-.87.606a2.742 2.742 0 0 0-.546.966 3.955 3.955 0 0 0-.192 1.278c0 .476.064.904.192 1.284.128.376.31.696.546.96.24.26.53.46.87.6.34.14.722.21 1.146.21.424 0 .804-.07 1.14-.21.34-.14.628-.34.864-.6.236-.264.416-.584.54-.96a4.01 4.01 0 0 0 .192-1.284ZM16.104 8.757v3.912c0 .376.086.668.258.876.176.204.438.306.786.306.256 0 .496-.056.72-.168a2.58 2.58 0 0 0 .636-.474V8.757h1.482v6.156h-.906c-.192 0-.318-.09-.378-.27l-.102-.492a4.65 4.65 0 0 1-.396.354 2.577 2.577 0 0 1-.438.27 2.35 2.35 0 0 1-.498.168 2.345 2.345 0 0 1-.57.066c-.336 0-.634-.056-.894-.168a1.821 1.821 0 0 1-.648-.486 2.157 2.157 0 0 1-.402-.738 3.233 3.233 0 0 1-.132-.948V8.757h1.482ZM21.328 14.913V8.757h.87c.152 0 .258.028.318.084.06.056.1.152.12.288l.09.744c.22-.38.478-.68.774-.9.296-.22.628-.33.996-.33.304 0 .556.07.756.21l-.192 1.11c-.012.072-.038.124-.078.156a.278.278 0 0 1-.162.042 1.01 1.01 0 0 1-.246-.042 1.646 1.646 0 0 0-.414-.042c-.308 0-.572.086-.792.258-.22.168-.406.416-.558.744v3.834h-1.482ZM27.347 6.237h1.356a.57.57 0 0 1 .348.102c.096.064.16.152.192.264l1.476 5.19c.036.128.068.268.096.42.032.148.062.306.09.474a5.968 5.968 0 0 1 .228-.894l1.704-5.19a.575.575 0 0 1 .186-.252.543.543 0 0 1 .348-.114h.474a.57.57 0 0 1 .348.102.497.497 0 0 1 .192.264l1.692 5.19c.088.256.164.54.228.852.028-.156.056-.306.084-.45.032-.144.064-.278.096-.402l1.476-5.19c.028-.1.09-.186.186-.258a.563.563 0 0 1 .348-.108h1.266l-2.694 8.676h-1.458l-1.896-5.928-.078-.246a9.504 9.504 0 0 1-.072-.282c-.024.1-.05.194-.078.282-.024.088-.048.17-.072.246l-1.914 5.928H30.04l-2.694-8.676ZM42.771 8.661c.46 0 .876.074 1.248.222.376.148.696.358.96.63s.468.604.612.996c.144.392.216.83.216 1.314 0 .488-.072.928-.216 1.32a2.85 2.85 0 0 1-.612 1.002 2.653 2.653 0 0 1-.96.636 3.35 3.35 0 0 1-1.248.222c-.46 0-.878-.074-1.254-.222a2.712 2.712 0 0 1-.966-.636 2.922 2.922 0 0 1-.618-1.002 3.807 3.807 0 0 1-.216-1.32c0-.484.072-.922.216-1.314.148-.392.354-.724.618-.996.268-.272.59-.482.966-.63a3.397 3.397 0 0 1 1.254-.222Zm0 5.202c.512 0 .89-.172 1.134-.516.248-.344.372-.848.372-1.512s-.124-1.17-.372-1.518c-.244-.348-.622-.522-1.134-.522-.52 0-.904.176-1.152.528-.248.348-.372.852-.372 1.512s.124 1.164.372 1.512c.248.344.632.516 1.152.516ZM46.723 14.913V8.757h.87c.152 0 .258.028.318.084.06.056.1.152.12.288l.09.744c.22-.38.478-.68.774-.9.296-.22.628-.33.996-.33.304 0 .556.07.756.21l-.192 1.11c-.012.072-.038.124-.078.156a.278.278 0 0 1-.162.042 1.01 1.01 0 0 1-.246-.042 1.646 1.646 0 0 0-.414-.042c-.308 0-.572.086-.792.258-.22.168-.406.416-.558.744v3.834h-1.482ZM52.96 5.997v8.916h-1.482V5.997h1.482ZM58.732 14.913c-.192 0-.318-.09-.378-.27l-.12-.594a3.68 3.68 0 0 1-.402.39c-.14.116-.292.216-.456.3-.16.084-.334.148-.522.192a2.372 2.372 0 0 1-.6.072c-.336 0-.644-.07-.924-.21a2.098 2.098 0 0 1-.726-.606 3.033 3.033 0 0 1-.468-.99 5.072 5.072 0 0 1-.162-1.344c0-.456.062-.88.186-1.272s.302-.732.534-1.02c.232-.288.51-.512.834-.672a2.384 2.384 0 0 1 1.092-.246 2.103 2.103 0 0 1 1.536.606V5.997h1.482v8.916h-.906Zm-1.974-1.086c.308 0 .57-.064.786-.192.216-.128.42-.31.612-.546v-2.76a1.452 1.452 0 0 0-.552-.432 1.597 1.597 0 0 0-.636-.126c-.224 0-.428.042-.612.126a1.21 1.21 0 0 0-.462.384c-.124.168-.22.384-.288.648-.068.26-.102.568-.102.924 0 .36.028.666.084.918.06.248.144.452.252.612.108.156.24.27.396.342.156.068.33.102.522.102ZM16.331 20.757v6.156H14.85v-6.156h1.481Zm.223-1.794a.844.844 0 0 1-.078.36.963.963 0 0 1-.21.294.995.995 0 0 1-.3.204.963.963 0 0 1-.372.072.948.948 0 0 1-.367-.072 1.018 1.018 0 0 1-.498-.498.963.963 0 0 1 0-.732.995.995 0 0 1 .205-.3.929.929 0 0 1 .293-.198.899.899 0 0 1 .738 0 .912.912 0 0 1 .3.198.943.943 0 0 1 .288.672ZM17.771 26.913v-6.156h.906c.192 0 .318.09.378.27l.102.486a2.934 2.934 0 0 1 .828-.618c.156-.076.322-.134.498-.174.176-.04.368-.06.576-.06.336 0 .634.058.894.174.26.112.476.272.648.48.176.204.308.45.396.738.092.284.138.598.138.942v3.918h-1.482v-3.918c0-.376-.088-.666-.264-.87-.172-.208-.432-.312-.78-.312-.256 0-.496.058-.72.174a2.58 2.58 0 0 0-.636.474v4.452h-1.482ZM34.22 22.575c0 .636-.106 1.22-.318 1.752-.212.532-.51.99-.894 1.374a4 4 0 0 1-1.386.894 4.87 4.87 0 0 1-1.794.318h-3.312v-8.676h3.312a4.79 4.79 0 0 1 1.794.324 4 4 0 0 1 1.386.894c.384.38.682.836.894 1.368.212.532.318 1.116.318 1.752Zm-1.65 0c0-.476-.064-.902-.192-1.278a2.68 2.68 0 0 0-.546-.96 2.332 2.332 0 0 0-.864-.606 2.94 2.94 0 0 0-1.14-.21h-1.686v6.108h1.686c.424 0 .804-.07 1.14-.21.34-.14.628-.34.864-.6a2.75 2.75 0 0 0 .546-.96 4.01 4.01 0 0 0 .192-1.284ZM39.98 26.913h-.665c-.14 0-.25-.02-.33-.06-.08-.044-.14-.13-.18-.258l-.132-.438c-.156.14-.31.264-.462.372a2.804 2.804 0 0 1-.462.264c-.16.072-.33.126-.51.162-.18.036-.38.054-.6.054-.26 0-.5-.034-.72-.102a1.618 1.618 0 0 1-.57-.318 1.448 1.448 0 0 1-.366-.522 1.852 1.852 0 0 1-.132-.726c0-.232.06-.46.18-.684.124-.228.328-.432.612-.612.284-.184.662-.336 1.134-.456.472-.12 1.058-.188 1.758-.204v-.36c0-.412-.088-.716-.264-.912-.172-.2-.424-.3-.756-.3a1.837 1.837 0 0 0-1.02.276c-.116.068-.224.13-.324.186a.664.664 0 0 1-.33.084.429.429 0 0 1-.258-.078.614.614 0 0 1-.174-.192l-.27-.474c.708-.648 1.562-.972 2.562-.972.36 0 .68.06.96.18.284.116.524.28.72.492.196.208.344.458.444.75.104.292.156.612.156.96v3.888Zm-2.88-.924c.153 0 .293-.014.42-.042.129-.028.249-.07.36-.126.117-.056.227-.124.33-.204.109-.084.217-.182.325-.294v-1.038c-.432.02-.794.058-1.086.114-.288.052-.52.12-.696.204a.923.923 0 0 0-.378.294.664.664 0 0 0-.108.366c0 .26.076.446.228.558.156.112.358.168.606.168ZM43.22 27.01c-.532 0-.942-.15-1.23-.45-.288-.305-.432-.723-.432-1.255v-3.438h-.624a.31.31 0 0 1-.21-.078c-.056-.052-.084-.13-.084-.234v-.588l.99-.162.312-1.68a.302.302 0 0 1 .108-.186.365.365 0 0 1 .222-.066h.768v1.938h1.62v1.056h-1.62v3.336c0 .192.048.342.144.45a.488.488 0 0 0 .384.162c.092 0 .168-.01.228-.03.064-.024.118-.048.162-.072.048-.024.09-.046.126-.066a.194.194 0 0 1 .108-.036.16.16 0 0 1 .108.036c.028.02.058.052.09.096l.444.72c-.216.18-.464.316-.744.408a2.77 2.77 0 0 1-.87.138ZM50.423 26.913h-.666c-.14 0-.25-.02-.33-.06-.08-.044-.14-.13-.18-.258l-.132-.438c-.156.14-.31.264-.462.372a2.804 2.804 0 0 1-.462.264c-.16.072-.33.126-.51.162-.18.036-.38.054-.6.054-.26 0-.5-.034-.72-.102a1.618 1.618 0 0 1-.57-.318 1.448 1.448 0 0 1-.366-.522 1.852 1.852 0 0 1-.132-.726c0-.232.06-.46.18-.684.124-.228.328-.432.612-.612.284-.184.662-.336 1.134-.456.472-.12 1.058-.188 1.758-.204v-.36c0-.412-.088-.716-.264-.912-.172-.2-.424-.3-.756-.3a1.837 1.837 0 0 0-1.02.276c-.116.068-.224.13-.324.186a.664.664 0 0 1-.33.084.429.429 0 0 1-.258-.078.614.614 0 0 1-.174-.192l-.27-.474c.708-.648 1.562-.972 2.562-.972.36 0 .68.06.96.18.284.116.524.28.72.492.196.208.344.458.444.75.104.292.156.612.156.96v3.888Zm-2.88-.924c.152 0 .292-.014.42-.042.128-.028.248-.07.36-.126.116-.056.226-.124.33-.204.108-.084.216-.182.324-.294v-1.038c-.432.02-.794.058-1.086.114-.288.052-.52.12-.696.204a.923.923 0 0 0-.378.294.664.664 0 0 0-.108.366c0 .26.076.446.228.558.156.112.358.168.606.168Z"/></svg></g><a id="title" href="https://ourworldindata.org/explorers/minerals?country=AUS~CHL~CHN~USA~CAN~ALB~DZA~ARG~ARM~AUT~AZE~BOL~OWID_WRL~BWA~BRA~BGR~COL~COG~CUB~CYP~OWID_CZS~COD~DOM~OWID_GDR~ZWE~ZMB~OWID_YGS~OWID_GFR~VNM~UZB~GBR~UGA~OWID_USS~TUR~TZA~TJK~TWN~SWE~ESP~KOR~ZAF~SVK~OWID_SRM~SRB~SAU~RUS~ROU~PRT~POL~PHL~PER~PNG~PAN~PAK~OMN~NOR~MKD~PRK~NIC~NZL~NAM~MMR~MOZ~MAR~MNG~MEX~MRT~MYS~LAO~KGZ~KEN~KAZ~JPN~ITA~ISR~IRL~IRN~IDN~IND~HUN~HND~HTI~GTM~GRC~DEU~GEO~FRA~FIN~ERI~ECU~VEN~ARE~UKR~CHE~SUR~LKA~SVN~QAT~NGA~NLD~MNE~ISL~GHA~EGY~HRV~CMR~BIH~BHR~AFG~OWID_KOS~MDG~NCL~SDN&amp;Mineral=Chromium&amp;Metric=Production&amp;Type=Refinery&amp;Share+of+global=false" style="font-family:&#x27;Playfair Display&#x27;, Georgia, &#x27;Times New Roman&#x27;, &#x27;Liberation Serif&#x27;, serif" target="_blank" rel="noopener"><text font-size="24.75" font-weight="600" x="16.0" y="40.0" fill="#5b5b5b"><tspan x="16" y="40.0075">Chromium production, 1970 to 2023</tspan></text></a><g id="subtitle" class="markdown-text-wrap"><text x="16.0" y="63.9" style="font-size:14.625px;line-height:1.2" fill="#5b5b5b"><tspan x="16" y="63.9">Production of chromium, in tonnes. Based on mined, rather than <tspan class="dod-span" data-id="refined-production">refined<tspan style="font-feature-settings:&quot;sups&quot;">ยน</tspan></tspan>, production.</tspan></text></g></g><g id="chart-area" style="pointer-events:none"><g id="line-chart" class="LineChart"><defs><clipPath id="boundsClip-20"><rect x="75.665" y="73.25" width="838" height="454.15"></rect></clipPath></defs><rect x="16" y="83.25" width="818" height="434.15" fill="none"></rect><g id="dual-axis" class="DualAxisView"><g id="horizontal-axis" class="HorizontalAxis"><g id="tick__1970"><line x1="85.7" y1="496.4" x2="85.7" y2="501.9" stroke="#999" stroke-width="1"></line><text x="85.665" y="515.4" fill="#5b5b5b" text-anchor="start" font-size="13.5">1970</text></g><g id="tick__2023"><line x1="670.3" y1="496.4" x2="670.3" y2="501.9" stroke="#999" stroke-width="1"></line><text x="670.345" y="515.4" fill="#5b5b5b" text-anchor="end" font-size="13.5">2023</text></g><g id="tick__1980"><line x1="196" y1="496.4" x2="196" y2="501.9" stroke="#999" stroke-width="1"></line><text x="196" y="515.4" fill="#5b5b5b" text-anchor="middle" font-size="13.5">1980</text></g><g id="tick__1990"><line x1="306.3" y1="496.4" x2="306.3" y2="501.9" stroke="#999" stroke-width="1"></line><text x="306.3" y="515.4" fill="#5b5b5b" text-anchor="middle" font-size="13.5">1990</text></g><g id="tick__2000"><line x1="416.6" y1="496.4" x2="416.6" y2="501.9" stroke="#999" stroke-width="1"></line><text x="416.6" y="515.4" fill="#5b5b5b" text-anchor="middle" font-size="13.5">2000</text></g><g id="tick__2010"><line x1="526.9" y1="496.4" x2="526.9" y2="501.9" stroke="#999" stroke-width="1"></line><text x="526.9" y="515.4" fill="#5b5b5b" text-anchor="middle" font-size="13.5">2010</text></g></g><g id="vertical-axis" class="VerticalAxis"><g id="tick-labels"><text id="tick-label__0-t" x="80.67" y="496.9" dy=".32em" text-anchor="end" fill="#5b5b5b" font-size="13.5">0 t</text><text id="tick-label__5-million-t" x="80.67" y="448.6" dy=".32em" text-anchor="end" fill="#5b5b5b" font-size="13.5">5 million t</text><text id="tick-label__10-million-t" x="80.67" y="400.3" dy=".32em" text-anchor="end" fill="#5b5b5b" font-size="13.5">10 million t</text><text id="tick-label__15-million-t" x="80.67" y="352" dy=".32em" text-anchor="end" fill="#5b5b5b" font-size="13.5">15 million t</text><text id="tick-label__20-million-t" x="80.67" y="303.7" dy=".32em" text-anchor="end" fill="#5b5b5b" font-size="13.5">20 million t</text><text id="tick-label__25-million-t" x="80.67" y="255.4" dy=".32em" text-anchor="end" fill="#5b5b5b" font-size="13.5">25 million t</text><text id="tick-label__30-million-t" x="80.67" y="207.1" dy=".32em" text-anchor="end" fill="#5b5b5b" font-size="13.5">30 million t</text><text id="tick-label__35-million-t" x="80.67" y="158.8" dy=".32em" text-anchor="end" fill="#5b5b5b" font-size="13.5">35 million t</text><text id="tick-label__40-million-t" x="80.67" y="110.5" dy=".32em" text-anchor="end" fill="#5b5b5b" font-size="13.5">40 million t</text></g></g><g id="horizontal-grid-lines" class="AxisGridLines horizontalLines"><line id="grid-line__0" x1="85.67" y1="496.9" x2="670.35" y2="496.9" stroke="#999" stroke-width="1"></line><line id="grid-line__5000000" x1="85.67" y1="448.6" x2="670.35" y2="448.6" stroke="#ddd" stroke-width="1" stroke-dasharray="3,2"></line><line id="grid-line__10000000" x1="85.67" y1="400.3" x2="670.35" y2="400.3" stroke="#ddd" stroke-width="1" stroke-dasharray="3,2"></line><line id="grid-line__15000000" x1="85.67" y1="352" x2="670.35" y2="352" stroke="#ddd" stroke-width="1" stroke-dasharray="3,2"></line><line id="grid-line__20000000" x1="85.67" y1="303.7" x2="670.35" y2="303.7" stroke="#ddd" stroke-width="1" stroke-dasharray="3,2"></line><line id="grid-line__25000000" x1="85.67" y1="255.4" x2="670.35" y2="255.4" stroke="#ddd" stroke-width="1" stroke-dasharray="3,2"></line><line id="grid-line__30000000" x1="85.67" y1="207.1" x2="670.35" y2="207.1" stroke="#ddd" stroke-width="1" stroke-dasharray="3,2"></line><line id="grid-line__35000000" x1="85.67" y1="158.8" x2="670.35" y2="158.8" stroke="#ddd" stroke-width="1" stroke-dasharray="3,2"></line><line id="grid-line__40000000" x1="85.67" y1="110.5" x2="670.35" y2="110.5" stroke="#ddd" stroke-width="1" stroke-dasharray="3,2"></line></g></g><g clip-path="url(#boundsClip-20)"><g id="line-labels" class="LineLabels"><g id="mark__World" class="legendMark" style="cursor:default"><g id="connector" class="indicator"><path d="M674.345,100.8 H675.3092857142857 V92.14999999999993 H701.345" stroke="#999" stroke-width="0.5" fill="none"></path></g><rect id="background" x="670.345" y="85.39999999999993" width="70.235" height="13.5" fill="#fff" opacity="0"></rect><text id="label" font-size="13.50" font-weight="400" x="705.3" y="97.1" fill="#c15065"><tspan x="705.345" y="97.14499999999994">World</tspan></text></g><g id="mark__South-Africa" class="legendMark" style="cursor:default"><g id="connector" class="indicator"><path d="M674.345,323 H676.2735714285714 V107.64999999999993 H701.345" stroke="#999" stroke-width="0.5" fill="none"></path></g><rect id="background" x="670.345" y="100.89999999999993" width="108.845" height="13.5" fill="#fff" opacity="0"></rect><text id="label" font-size="13.50" font-weight="400" x="705.3" y="112.6" fill="#00847e"><tspan x="705.345" y="112.64499999999994">South Africa</tspan></text></g><g id="mark__Kazakhstan" class="legendMark" style="cursor:default"><g id="connector" class="indicator"><path d="M674.345,438.9 H677.2378571428571 V123.14999999999993 H701.345" stroke="#999" stroke-width="0.5" fill="none"></path></g><rect id="background" x="670.345" y="116.39999999999993" width="105.875" height="13.5" fill="#fff" opacity="0"></rect><text id="label" font-size="13.50" font-weight="400" x="705.3" y="128.1" fill="#d73c50"><tspan x="705.345" y="128.14499999999992">Kazakhstan</tspan></text></g><g id="mark__Turkey" class="legendMark" style="cursor:default"><g id="connector" class="indicator"><path d="M674.345,438.9 H678.2021428571428 V138.64999999999992 H701.345" stroke="#999" stroke-width="0.5" fill="none"></path></g><rect id="background" x="670.345" y="131.89999999999992" width="76.31" height="13.5" fill="#fff" opacity="0"></rect><text id="label" font-size="13.50" font-weight="400" x="705.3" y="143.6" fill="#00295b"><tspan x="705.345" y="143.64499999999992">Turkey</tspan></text></g><g id="mark__India" class="legendMark" style="cursor:default"><g id="connector" class="indicator"><path d="M674.345,456.3 H679.1664285714286 V154.14999999999992 H701.345" stroke="#999" stroke-width="0.5" fill="none"></path></g><rect id="background" x="670.345" y="147.39999999999992" width="64.43" height="13.5" fill="#fff" opacity="0"></rect><text id="label" font-size="13.50" font-weight="400" x="705.3" y="159.1" fill="#286bbb"><tspan x="705.345" y="159.14499999999992">India</tspan></text></g><g id="mark__USSR" class="legendMark" style="cursor:default"><g id="connector" class="indicator"><path d="M674.345,460.2 H680.1307142857142 V169.64999999999992 H701.345" stroke="#999" stroke-width="0.5" fill="none"></path></g><rect id="background" x="670.345" y="162.89999999999992" width="72.53" height="13.5" fill="#fff" opacity="0"></rect><text id="label" font-size="13.50" font-weight="400" x="705.3" y="174.6" fill="#996d39"><tspan x="705.345" y="174.64499999999992">USSR</tspan></text></g><g id="mark__Finland" class="legendMark" style="cursor:default"><g id="connector" class="indicator"><path d="M674.345,477.6 H681.095 V185.14999999999992 H701.345" stroke="#999" stroke-width="0.5" fill="none"></path></g><rect id="background" x="670.345" y="178.39999999999992" width="79.415" height="13.5" fill="#fff" opacity="0"></rect><text id="label" font-size="13.50" font-weight="400" x="705.3" y="190.1" fill="#970046"><tspan x="705.345" y="190.14499999999992">Finland</tspan></text></g><g id="mark__Zimbabwe" class="legendMark" style="cursor:default"><g id="connector" class="indicator"><path d="M674.345,485.8 H682.0592857142857 V200.64999999999992 H701.345" stroke="#999" stroke-width="0.5" fill="none"></path></g><rect id="background" x="670.345" y="193.89999999999992" width="97.37" height="13.5" fill="#fff" opacity="0"></rect><text id="label" font-size="13.50" font-weight="400" x="705.3" y="205.6" fill="#c15065"><tspan x="705.345" y="205.64499999999992">Zimbabwe</tspan></text></g><g id="mark__Albania" class="legendMark" style="cursor:default"><g id="connector" class="indicator"><path d="M674.345,487.9 H683.0235714285714 V216.14999999999992 H701.345" stroke="#999" stroke-width="0.5" fill="none"></path></g><rect id="background" x="670.345" y="209.39999999999992" width="80.225" height="13.5" fill="#fff" opacity="0"></rect><text id="label" font-size="13.50" font-weight="400" x="705.3" y="221.1" fill="#286bbb"><tspan x="705.345" y="221.14499999999992">Albania</tspan></text></g><g id="mark__Russia" class="legendMark" style="cursor:default"><g id="connector" class="indicator"><path d="M674.345,490.2 H683.9878571428571 V231.64999999999992 H701.345" stroke="#999" stroke-width="0.5" fill="none"></path></g><rect id="background" x="670.345" y="224.89999999999992" width="76.31" height="13.5" fill="#fff" opacity="0"></rect><text id="label" font-size="13.50" font-weight="400" x="705.3" y="236.6" fill="#8c4569"><tspan x="705.345" y="236.64499999999992">Russia</tspan></text></g><g id="mark__Pakistan" class="legendMark" style="cursor:default"><g id="connector" class="indicator"><path d="M674.345,490.6 H684.9521428571428 V247.14999999999992 H701.345" stroke="#999" stroke-width="0.5" fill="none"></path></g><rect id="background" x="670.345" y="240.39999999999992" width="86.975" height="13.5" fill="#fff" opacity="0"></rect><text id="label" font-size="13.50" font-weight="400" x="705.3" y="252.1" fill="#18470f"><tspan x="705.345" y="252.14499999999992">Pakistan</tspan></text></g><g id="mark__Oman" class="legendMark" style="cursor:default"><g id="connector" class="indicator"><path d="M674.345,492.9 H685.9164285714286 V262.6499999999999 H701.345" stroke="#999" stroke-width="0.5" fill="none"></path></g><rect id="background" x="670.345" y="255.89999999999992" width="71.855" height="13.5" fill="#fff" opacity="0"></rect><text id="label" font-size="13.50" font-weight="400" x="705.3" y="267.6" fill="#286bbb"><tspan x="705.345" y="267.6449999999999">Oman</tspan></text></g><g id="mark__Australia" class="legendMark" style="cursor:default"><g id="connector" class="indicator"><path d="M674.345,493.5 H686.8807142857142 V278.1499999999999 H701.345" stroke="#999" stroke-width="0.5" fill="none"></path></g><rect id="background" x="670.345" y="271.3999999999999" width="87.65" height="13.5" fill="#fff" opacity="0"></rect><text id="label" font-size="13.50" font-weight="400" x="705.3" y="283.1" fill="#2c8465"><tspan x="705.345" y="283.1449999999999">Australia</tspan></text></g><g id="mark__Iran" class="legendMark" style="cursor:default"><g id="connector" class="indicator"><path d="M674.345,494.5 H687.845 V293.6499999999999 H701.345" stroke="#999" stroke-width="0.5" fill="none"></path></g><rect id="background" x="670.345" y="286.8999999999999" width="58.355000000000004" height="13.5" fill="#fff" opacity="0"></rect><text id="label" font-size="13.50" font-weight="400" x="705.3" y="298.6" fill="#cf0a66"><tspan x="705.345" y="298.6449999999999">Iran</tspan></text></g><g id="mark__Brazil" class="legendMark" style="cursor:default"><g id="connector" class="indicator"><path d="M674.345,494.5 H688.8092857142857 V309.1499999999999 H701.345" stroke="#999" stroke-width="0.5" fill="none"></path></g><rect id="background" x="670.345" y="302.3999999999999" width="68.75" height="13.5" fill="#fff" opacity="0"></rect><text id="label" font-size="13.50" font-weight="400" x="705.3" y="314.1" fill="#578145"><tspan x="705.345" y="314.1449999999999">Brazil</tspan></text></g><g id="mark__Philippines" class="legendMark" style="cursor:default"><g id="connector" class="indicator"><path d="M674.345,495.5 H689.7735714285714 V324.6499999999999 H701.345" stroke="#999" stroke-width="0.5" fill="none"></path></g><rect id="background" x="670.345" y="317.8999999999999" width="100.47500000000001" height="13.5" fill="#fff" opacity="0"></rect><text id="label" font-size="13.50" font-weight="400" x="705.3" y="329.6" fill="#2c8465"><tspan x="705.345" y="329.6449999999999">Philippines</tspan></text></g><g id="mark__China" class="legendMark" style="cursor:default"><g id="connector" class="indicator"><path d="M674.345,495.6 H690.7378571428571 V340.1499999999999 H701.345" stroke="#999" stroke-width="0.5" fill="none"></path></g><rect id="background" x="670.345" y="333.3999999999999" width="70.37" height="13.5" fill="#fff" opacity="0"></rect><text id="label" font-size="13.50" font-weight="400" x="705.3" y="345.1" fill="#cf0a66"><tspan x="705.345" y="345.1449999999999">China</tspan></text></g><g id="mark__Papua-New-Guinea" class="legendMark" style="cursor:default"><g id="connector" class="indicator"><path d="M674.345,495.7 H691.7021428571428 V355.6499999999999 H701.345" stroke="#999" stroke-width="0.5" fill="none"></path></g><rect id="background" x="670.345" y="348.8999999999999" width="152.585" height="13.5" fill="#fff" opacity="0"></rect><text id="label" font-size="13.50" font-weight="400" x="705.3" y="360.6" fill="#6d3e91"><tspan x="705.345" y="360.6449999999999">Papua New Guinea</tspan></text></g><g id="mark__United-Arab-Emirates" class="legendMark" style="cursor:default"><g id="connector" class="indicator"><path d="M674.345,496.6 H692.6664285714286 V371.1499999999999 H701.345" stroke="#999" stroke-width="0.5" fill="none"></path></g><rect id="background" x="670.345" y="364.3999999999999" width="163.655" height="13.5" fill="#fff" opacity="0"></rect><text id="label" font-size="13.50" font-weight="400" x="705.3" y="376.1" fill="#00875e"><tspan x="705.345" y="376.1449999999999">United Arab Emirates</tspan></text></g><g id="mark__Vietnam" class="legendMark" style="cursor:default"><g id="connector" class="indicator"><path d="M674.345,496.7 H693.6307142857142 V386.6499999999999 H701.345" stroke="#999" stroke-width="0.5" fill="none"></path></g><rect id="background" x="670.345" y="379.8999999999999" width="84.68" height="13.5" fill="#fff" opacity="0"></rect><text id="label" font-size="13.50" font-weight="400" x="705.3" y="391.6" fill="#cf0a66"><tspan x="705.345" y="391.6449999999999">Vietnam</tspan></text></g><g id="mark__Madagascar" class="legendMark" style="cursor:default"><g id="connector" class="indicator"><path d="M674.345,496.7 H694.595 V402.1499999999999 H701.345" stroke="#999" stroke-width="0.5" fill="none"></path></g><rect id="background" x="670.345" y="395.3999999999999" width="109.52000000000001" height="13.5" fill="#fff" opacity="0"></rect><text id="label" font-size="13.50" font-weight="400" x="705.3" y="407.1" fill="#578145"><tspan x="705.345" y="407.1449999999999">Madagascar</tspan></text></g><g id="mark__Kosovo" class="legendMark" style="cursor:default"><g id="connector" class="indicator"><path d="M674.345,496.8 H695.5592857142857 V417.6499999999999 H701.345" stroke="#999" stroke-width="0.5" fill="none"></path></g><rect id="background" x="670.345" y="410.8999999999999" width="80.225" height="13.5" fill="#fff" opacity="0"></rect><text id="label" font-size="13.50" font-weight="400" x="705.3" y="422.6" fill="#008291"><tspan x="705.345" y="422.6449999999999">Kosovo</tspan></text></g><g id="mark__Indonesia" class="legendMark" style="cursor:default"><g id="connector" class="indicator"><path d="M674.345,496.8 H696.5235714285714 V433.1499999999999 H701.345" stroke="#999" stroke-width="0.5" fill="none"></path></g><rect id="background" x="670.345" y="426.3999999999999" width="93.86000000000001" height="13.5" fill="#fff" opacity="0"></rect><text id="label" font-size="13.50" font-weight="400" x="705.3" y="438.1" fill="#18470f"><tspan x="705.345" y="438.1449999999999">Indonesia</tspan></text></g><g id="mark__New-Caledonia" class="legendMark" style="cursor:default"><g id="connector" class="indicator"><path d="M674.345,496.8 H697.4878571428571 V448.6499999999999 H701.345" stroke="#999" stroke-width="0.5" fill="none"></path></g><rect id="background" x="670.345" y="441.8999999999999" width="126.80000000000001" height="13.5" fill="#fff" opacity="0"></rect><text id="label" font-size="13.50" font-weight="400" x="705.3" y="453.6" fill="#970046"><tspan x="705.345" y="453.6449999999999">New Caledonia</tspan></text></g><g id="mark__Japan" class="legendMark" style="cursor:default"><g id="connector" class="indicator"><path d="M674.345,496.8 H698.4521428571428 V464.1499999999999 H701.345" stroke="#999" stroke-width="0.5" fill="none"></path></g><rect id="background" x="670.345" y="457.3999999999999" width="71.99000000000001" height="13.5" fill="#fff" opacity="0"></rect><text id="label" font-size="13.50" font-weight="400" x="705.3" y="469.1" fill="#c15065"><tspan x="705.345" y="469.1449999999999">Japan</tspan></text></g><g id="mark__Cyprus" class="legendMark" style="cursor:default"><g id="connector" class="indicator"><path d="M674.345,496.9 H699.4164285714286 V479.6499999999999 H701.345" stroke="#999" stroke-width="0.5" fill="none"></path></g><rect id="background" x="670.345" y="472.8999999999999" width="77.795" height="13.5" fill="#fff" opacity="0"></rect><text id="label" font-size="13.50" font-weight="400" x="705.3" y="484.6" fill="#00875e"><tspan x="705.345" y="484.6449999999999">Cyprus</tspan></text></g><g id="mark__Cuba" class="legendMark" style="cursor:default"><g id="connector" class="indicator"><path d="M674.345,496.9 H700.3807142857142 V495.1499999999999 H701.345" stroke="#999" stroke-width="0.5" fill="none"></path></g><rect id="background" x="670.345" y="488.3999999999999" width="67.4" height="13.5" fill="#fff" opacity="0"></rect><text id="label" font-size="13.50" font-weight="400" x="705.3" y="500.1" fill="#4c6a9c"><tspan x="705.345" y="500.1449999999999">Cuba</tspan></text></g><g id="mark__United-States" class="legendMark" style="cursor:default"><g id="connector" class="indicator"><path d="M674.345,496.9 H700.3807142857142 V510.6499999999999 H701.345" stroke="#999" stroke-width="0.5" fill="none"></path></g><rect id="background" x="670.345" y="503.8999999999999" width="116.405" height="13.5" fill="#fff" opacity="0"></rect><text id="label" font-size="13.50" font-weight="400" x="705.3" y="515.6" fill="#6d3e91"><tspan x="705.345" y="515.6449999999999">United States</tspan></text></g></g><g id="lines" class="Lines"><rect x="86" y="89" width="585" height="408" fill="rgba(255,255,255,0)" opacity="0"></rect><g id="line__World"><path stroke-linecap="round" stroke-linejoin="round" stroke="#ddd" d="M637.2 139.5L648.3 89.3L659.3 92.1L670.3 100.8" fill="none" stroke-width="1"></path></g><g id="line__United-States"><path stroke-linecap="round" stroke-linejoin="round" stroke="#ddd" d="M637.2 496.9L648.3 496.9L659.3 496.9L670.3 496.9" fill="none" stroke-width="1"></path></g><g id="line__Papua-New-Guinea"><path stroke-linecap="round" stroke-linejoin="round" stroke="#ddd" d="M560 496.9L571.1 496.9L582.1 496.9L593.1 496.9L604.2 496L615.2 496L626.2 495.8L637.2 495.8L648.3 495.7L659.3 495.7" fill="none" stroke-width="1"></path></g><g id="line__Colombia"><path stroke-linecap="round" stroke-linejoin="round" stroke="#ddd" d="M549 496.9L560 496.9L571.1 496.9L582.1 496.9L604.2 496.9L615.2 496.9L626.2 496.9L637.2 496.9L648.3 496.9L659.3 496.9" fill="none" stroke-width="1"></path></g><g id="line__Kosovo"><path stroke-linecap="round" stroke-linejoin="round" stroke="#ddd" d="M471.8 496.9L482.8 496.9L504.9 496.9L515.9 496.9L526.9 496.9L538 496.9L549 496.9L560 496.8L571.1 496.8" fill="none" stroke-width="1"></path></g><g id="line__Afghanistan"><path stroke-linecap="round" stroke-linejoin="round" stroke="#ddd" d="M405.6 496.9L416.6 496.8L427.6 496.8L438.7 496.8L449.7 496.8L460.7 496.8L471.8 496.8L482.8 496.8L493.8 496.8L504.9 496.8L515.9 496.8L526.9 496.9L538 496.9L549 496.9L560 496.9L571.1 496.8L582.1 496.8L593.1 496.9L604.2 496.9L615.2 496.9L626.2 496.9L637.2 496.9L648.3 496.9L659.3 496.9" fill="none" stroke-width="1"></path></g><g id="line__Myanmar"><path stroke-linecap="round" stroke-linejoin="round" stroke="#ddd" d="M372.5 496.9L383.5 496.9L394.6 496.9L405.6 496.9L416.6 496.9L427.6 496.9L438.7 496.9L449.7 496.9L460.7 496.9L471.8 496.9" fill="none" stroke-width="1"></path></g><g id="line__Indonesia"><path stroke-linecap="round" stroke-linejoin="round" stroke="#ddd" d="M339.4 496.9L350.4 496.9L361.5 496.8L372.5 496.8L383.5 496.9L394.6 496.9L405.6 496.8" fill="none" stroke-width="1"></path></g><g id="line__Australia"><path stroke-linecap="round" stroke-linejoin="round" stroke="#ddd" d="M339.4 496.9L350.4 496.9L361.5 496.9L372.5 496.8L383.5 496.7L394.6 496.2L405.6 496.2L416.6 496.2L427.6 496.7L438.7 496.3L449.7 495.3L460.7 494.2L471.8 494.7L482.8 494.3L493.8 494.1L504.9 495.5L515.9 495.1L526.9 495.1L538 493.8L549 492.5L560 493.5" fill="none" stroke-width="1"></path></g><g id="line__United-Arab-Emirates"><path stroke-linecap="round" stroke-linejoin="round" stroke="#ddd" d="M328.4 496.9L339.4 496.7L350.4 496.4L361.5 496.5L372.5 496.4L383.5 496.3L394.6 496.2L405.6 496.3L416.6 496.6L427.6 496.8L438.7 496.9L449.7 496.9L460.7 496.8L471.8 496.9L482.8 496.9L493.8 496.7L504.9 496.6" fill="none" stroke-width="1"></path></g><g id="line__Russia"><path stroke-linecap="round" stroke-linejoin="round" stroke="#ddd" d="M328.4 495.7L339.4 495.7L350.4 495.5L361.5 495.3L372.5 495.8L383.5 496.1L394.6 496.2L405.6 496.4L416.6 496.1L427.6 495.8L438.7 496.2L449.7 495.3L460.7 492.6L471.8 489.4L482.8 487.6L493.8 491.3L504.9 489.7L515.9 493.5L526.9 490.1L538 490.5L549 491.6L560 493.4L571.1 493.2L582.1 492L593.1 492.2L604.2 492.7L615.2 492.4L626.2 490.2L637.2 490.2L648.3 490.2L659.3 490.2" fill="none" stroke-width="1"></path></g><g id="line__North-Macedonia"><path stroke-linecap="round" stroke-linejoin="round" stroke="#ddd" d="M328.4 496.8L339.4 496.9L350.4 496.9L361.5 496.9L372.5 496.9L383.5 496.9" fill="none" stroke-width="1"></path></g><g id="line__Kazakhstan"><path stroke-linecap="round" stroke-linejoin="round" stroke="#ddd" d="M328.4 463.5L339.4 468.2L350.4 477.4L361.5 473.6L372.5 486.2L383.5 479.6L394.6 481.4L405.6 473.7L416.6 471.7L427.6 477.1L438.7 474L449.7 468.6L460.7 465.1L471.8 462.3L482.8 464.4L493.8 452.6L504.9 456.3L515.9 451.7L526.9 447.7L538 448L549 446.3L560 446.1L571.1 444.6L582.1 444.9L593.1 443.4L604.2 435.9L615.2 430.4L626.2 429.1L637.2 429.3L648.3 434.1L659.3 438.9L670.3 438.9" fill="none" stroke-width="1"></path></g><g id="line__China"><path stroke-linecap="round" stroke-linejoin="round" stroke="#ddd" d="M328.4 495.9L339.4 496.4L350.4 496.4L361.5 495L372.5 495.6L383.5 495.2L394.6 494.9L405.6 494.8L416.6 494.9L427.6 495.1L438.7 495.3L449.7 495L460.7 494.7L471.8 494.8L482.8 494.8L493.8 494.8L504.9 494.8L515.9 494.8L526.9 494.8L538 494.9L549 495.7L560 495.9L571.1 496.7L582.1 496.7L593.1 496.7L604.2 496.6L615.2 496.2L626.2 496.1L637.2 496.3L648.3 495.6L659.3 495.6" fill="none" stroke-width="1"></path></g><g id="line__Oman"><path stroke-linecap="round" stroke-linejoin="round" stroke="#ddd" d="M251.1 496.8L262.2 496.9L273.2 496.9L284.2 496.9L295.3 496.8L328.4 496.9L339.4 496.8L350.4 496.8L361.5 496.8L372.5 496.8L383.5 496.7L394.6 496.6L405.6 496.6L416.6 496.8L427.6 496.6L438.7 496.6L449.7 496.8L460.7 496.6L471.8 496.6L482.8 494.2L493.8 493L504.9 488.6L515.9 490.8L526.9 488.5L538 490.9L549 491.5L560 489.3L571.1 489.6L582.1 492.6L593.1 492.5L604.2 490.8L615.2 488.4L626.2 489.8L637.2 492.5L648.3 492.2L659.3 492.9" fill="none" stroke-width="1"></path></g><g id="line__Vietnam"><path stroke-linecap="round" stroke-linejoin="round" stroke="#ddd" d="M151.9 496.8L162.9 496.8L173.9 496.8L185 496.8L196 496.8L207 496.8L218 496.7L229.1 496.7L240.1 496.7L251.1 496.9L262.2 496.9L273.2 496.9L284.2 496.9L295.3 496.9L306.3 496.9L317.3 496.9L328.4 496.9L339.4 496.8L350.4 496.8L361.5 496.7L372.5 496.5L383.5 496.4L394.6 496.3L405.6 496.3L416.6 496.2L427.6 496.2L438.7 496.3L449.7 496L460.7 496.1L471.8 496.8L482.8 496.9L493.8 495.9L504.9 496.4L515.9 496.5L526.9 496.3L538 496.7L549 496.9L560 496.7" fill="none" stroke-width="1"></path></g><g id="line__New-Caledonia"><path stroke-linecap="round" stroke-linejoin="round" stroke="#ddd" d="M140.8 496.9L151.9 496.8L162.9 496.8L173.9 496.8L185 496.8L196 496.9L207 496.9L218 496.4L229.1 496.1L240.1 496.1L251.1 496.1L262.2 496.2L273.2 496.3L284.2 496.2L295.3 496.3L306.3 496.8L317.3 496.9L328.4 496.8" fill="none" stroke-width="1"></path></g><g id="line__Zimbabwe"><path stroke-linecap="round" stroke-linejoin="round" stroke="#ddd" d="M85.7 493L96.7 493L107.7 493L118.8 491.6L129.8 491.2L140.8 488.4L151.9 488.6L162.9 490.4L173.9 492.3L185 491.7L196 491.6L207 491.7L218 492.7L229.1 492.7L240.1 492.3L251.1 491.8L262.2 491.6L273.2 491.4L284.2 491.5L295.3 490.8L306.3 491.5L317.3 491.4L328.4 491.9L339.4 494.5L350.4 491.9L361.5 490.1L372.5 490.5L383.5 490.4L394.6 491.1L405.6 490.6L416.6 490.4L427.6 489.4L438.7 489.9L449.7 491.4L460.7 490.4L471.8 490.5L482.8 490.1L493.8 491L504.9 492.6L515.9 495L526.9 491.9L538 491.1L549 493L560 493.5L571.1 493L582.1 494.9L593.1 495.8L604.2 490.2L615.2 488.3L626.2 481.9L637.2 484.6L648.3 484.9L659.3 485.8" fill="none" stroke-width="1"></path></g><g id="line__Yugoslavia"><path stroke-linecap="round" stroke-linejoin="round" stroke="#ddd" d="M85.7 496.5L96.7 496.6L107.7 496.6L118.8 496.8L129.8 496.9L140.8 496.9L151.9 496.9L162.9 496.9L173.9 496.9L185 496.9" fill="none" stroke-width="1"></path></g><g id="line__USSR"><path stroke-linecap="round" stroke-linejoin="round" stroke="#ddd" d="M85.7 480L96.7 479.5L107.7 479L118.8 478.5L129.8 478.1L140.8 476.8L151.9 476.6L162.9 475.8L173.9 474.7L185 473.7L196 473.2L207 468.9L218 468.5L229.1 468.5L240.1 468.5L251.1 464.4L262.2 461.7L273.2 462.4L284.2 461.2L295.3 460.2L306.3 460.2L317.3 460.2" fill="none" stroke-width="1"></path></g><g id="line__Turkey"><path stroke-linecap="round" stroke-linejoin="round" stroke="#ddd" d="M85.7 491.9L96.7 491.1L107.7 490.3L118.8 491.4L129.8 490.5L140.8 490.1L151.9 490.5L162.9 490.8L173.9 492.4L185 492.9L196 493.2L207 493L218 492.5L229.1 493.6L240.1 492.2L251.1 491.2L262.2 490.9L273.2 489.5L284.2 488.7L295.3 483.2L306.3 486.4L317.3 480.3L328.4 489.6L339.4 490.1L350.4 489.3L361.5 478.2L372.5 484.5L383.5 480.5L394.6 483.3L405.6 487.1L416.6 491.6L427.6 492.5L438.7 493.7L449.7 494.7L460.7 492L471.8 488.6L482.8 486.7L493.8 480.7L504.9 478.7L515.9 479.8L526.9 473.1L538 474.9L549 465.1L560 456.9L571.1 433L582.1 472.6L593.1 477.3L604.2 472.2L615.2 468.9L626.2 464.4L637.2 419.6L648.3 429.7L659.3 444.6L670.3 438.9" fill="none" stroke-width="1"></path></g><g id="line__Sudan"><path stroke-linecap="round" stroke-linejoin="round" stroke="#ddd" d="M85.7 496.4L96.7 496.7L107.7 496.7L118.8 496.6L129.8 496.7L140.8 496.5L151.9 496.7L162.9 496.7L173.9 496.7L185 496.6L196 496.7L207 496.7L218 496.8L229.1 496.7L240.1 496.7L251.1 496.7L262.2 496.7L273.2 496.8L284.2 496.7L295.3 496.6L306.3 496.6L317.3 496.7L328.4 496.7L339.4 496.8L350.4 496.7L361.5 496.5L372.5 496.8L383.5 496.6L394.6 496.3L405.6 496.4L416.6 496.6L427.6 496.7L438.7 496.8L449.7 496.5L460.7 496.6L471.8 496.7L482.8 496.7L493.8 496.5L504.9 496.6L515.9 496.8L526.9 496.4L538 496.3L549 496.7L560 496.6L571.1 496.3L582.1 496.8L593.1 496.5L604.2 496.6L615.2 496.6L626.2 496.8L637.2 496.8L648.3 496.8L659.3 496.9" fill="none" stroke-width="1"></path></g><g id="line__South-Africa"><path stroke-linecap="round" stroke-linejoin="round" stroke="#ddd" d="M85.7 483.1L96.7 481L107.7 482.6L118.8 481L129.8 478.8L140.8 476.9L151.9 473.6L162.9 467.4L173.9 466.5L185 465.1L196 463.9L207 469.2L218 473L229.1 472.8L240.1 464L251.1 461.2L262.2 459.2L273.2 459.6L284.2 455.9L295.3 449.1L306.3 452.3L317.3 447.6L328.4 464.4L339.4 469.5L350.4 462.1L361.5 447.8L372.5 447.8L383.5 437.4L394.6 434.3L405.6 431L416.6 432.5L427.6 443.8L438.7 434.7L449.7 425.4L460.7 422.7L471.8 424.4L482.8 425.2L493.8 403.7L504.9 403.4L515.9 430.6L526.9 391.9L538 393.3L549 387.6L560 365.1L571.1 361.3L582.1 345.4L593.1 354.8L604.2 336.7L615.2 324.7L626.2 326.3L637.2 369.4L648.3 317.2L659.3 312.4L670.3 323" fill="none" stroke-width="1"></path></g><g id="line__Philippines"><path stroke-linecap="round" stroke-linejoin="round" stroke="#ddd" d="M85.7 491.4L96.7 492.8L107.7 493.5L118.8 491.3L129.8 491.8L140.8 491.9L151.9 492.7L162.9 491.7L173.9 491.7L185 491.5L196 492.1L207 492.7L218 493.8L229.1 494.3L240.1 494.4L251.1 494.3L262.2 494.9L273.2 495.1L284.2 495.2L295.3 494.5L306.3 494.4L317.3 494.9L328.4 495.8L339.4 496.3L350.4 496.2L361.5 495.9L372.5 495.8L383.5 496L394.6 496.5L405.6 496.7L416.6 496.7L427.6 496.6L438.7 496.7L449.7 496.6L460.7 496.5L471.8 496.6L482.8 496.4L493.8 496.6L504.9 496.8L515.9 496.8L526.9 496.8L538 496.7L549 496.5L560 496.6L571.1 496.4L582.1 496.8L593.1 496.7L604.2 496.7L615.2 496.4L626.2 496.5L637.2 496.6L648.3 496.6L659.3 495.5" fill="none" stroke-width="1"></path></g><g id="line__Pakistan"><path stroke-linecap="round" stroke-linejoin="round" stroke="#ddd" d="M85.7 496.6L96.7 496.6L107.7 496.6L118.8 496.7L129.8 496.8L140.8 496.8L151.9 496.8L162.9 496.8L173.9 496.8L185 496.9L196 496.9L207 496.9L218 496.9L229.1 496.9L240.1 496.9L251.1 496.8L262.2 496.8L273.2 496.8L284.2 496.9L295.3 496.6L306.3 496.7L317.3 496.6L328.4 496.7L339.4 496.5L350.4 496.8L361.5 496.8L372.5 496.6L383.5 496.7L394.6 496.8L405.6 496.7L416.6 496.7L427.6 496.7L438.7 496.7L449.7 496.6L460.7 496.6L471.8 496.4L482.8 496.3L493.8 494L504.9 493.1L515.9 494L526.9 491.7L538 492.6L549 492.1L560 492.2L571.1 493.5L582.1 493.7L593.1 494.7L604.2 493.5L615.2 493.8L626.2 492.4L637.2 493L648.3 492.4L659.3 490.6" fill="none" stroke-width="1"></path></g><g id="line__Madagascar"><path stroke-linecap="round" stroke-linejoin="round" stroke="#ddd" d="M85.7 495.9L96.7 495.5L107.7 495.8L118.8 495.9L129.8 495.4L140.8 495L151.9 494.9L162.9 495.3L173.9 495.7L185 495.7L196 495.5L207 495.9L218 496.5L229.1 496.5L240.1 496.3L251.1 495.7L262.2 496L273.2 495.9L284.2 495.2L295.3 495.3L306.3 495.7L317.3 495.5L328.4 495.3L339.4 495.5L350.4 496.2L361.5 495.9L372.5 495.6L383.5 495.6L394.6 495.3L416.6 495.6L427.6 496.3L438.7 496.8L449.7 496.5L460.7 496.2L471.8 496L482.8 495.8L493.8 496.1L504.9 495.8L515.9 495.6L526.9 495.6L538 496.3L549 495.8L560 496.3L571.1 496.4L582.1 496L593.1 496.2L604.2 496.3L615.2 495.8L626.2 496.2L637.2 496.8L648.3 496.8L659.3 496.7" fill="none" stroke-width="1"></path></g><g id="line__Japan"><path stroke-linecap="round" stroke-linejoin="round" stroke="#ddd" d="M85.7 496.6L96.7 496.6L107.7 496.7L118.8 496.7L129.8 496.6L140.8 496.7L151.9 496.7L162.9 496.7L173.9 496.8L185 496.8L196 496.8L207 496.8L218 496.8L229.1 496.8L240.1 496.8L251.1 496.8L262.2 496.8L273.2 496.8L284.2 496.8L295.3 496.8L306.3 496.8L317.3 496.8L328.4 496.8" fill="none" stroke-width="1"></path></g><g id="line__Iran"><path stroke-linecap="round" stroke-linejoin="round" stroke="#ddd" d="M85.7 494.8L96.7 495L107.7 495.5L118.8 495.5L129.8 495.2L140.8 495.4L151.9 495.4L162.9 494.6L173.9 495L185 495.6L196 496.1L207 496.6L218 496.5L229.1 496.4L240.1 496.3L251.1 496.4L262.2 496.4L273.2 496L284.2 496.3L295.3 496.2L306.3 496.2L317.3 496L328.4 495.6L339.4 495.8L350.4 493.5L361.5 493.4L372.5 493.8L383.5 493.8L394.6 493.8L405.6 493.3L416.6 495.5L427.6 495.2L438.7 494.7L449.7 495.4L460.7 495.6L471.8 494.7L482.8 494.6L493.8 495.6L504.9 494.3L515.9 494.2L526.9 493.5L538 492.6L549 492.9L560 493.6L571.1 493.4L582.1 494.2L593.1 493.6L604.2 494L615.2 494.4L626.2 494.5L637.2 494.5L648.3 494.5L659.3 494.5" fill="none" stroke-width="1"></path></g><g id="line__India"><path stroke-linecap="round" stroke-linejoin="round" stroke="#ddd" d="M85.7 494.3L96.7 494.3L107.7 494.2L118.8 494.1L129.8 493.1L140.8 492.1L151.9 493L162.9 493.5L173.9 494.3L185 493.9L196 493.8L207 493.6L218 493.5L229.1 493.4L240.1 492.6L251.1 491.4L262.2 490.8L273.2 490.9L284.2 489L295.3 487.2L306.3 486.8L317.3 487.8L328.4 486.6L339.4 486.6L350.4 485.9L361.5 480.5L372.5 482.8L383.5 482.3L394.6 483.2L405.6 480.1L416.6 477.9L427.6 481.9L438.7 467.3L449.7 468.8L460.7 461.9L471.8 461L482.8 445.7L493.8 449.8L504.9 457.6L515.9 463.8L526.9 455.1L538 468.7L549 469.5L560 469.1L571.1 476L582.1 468.7L593.1 460.9L604.2 463.3L615.2 458.5L626.2 458.9L637.2 472.8L648.3 455.8L659.3 458.3L670.3 456.3" fill="none" stroke-width="1"></path></g><g id="line__Greece"><path stroke-linecap="round" stroke-linejoin="round" stroke="#ddd" d="M85.7 496.6L96.7 496.8L107.7 496.7L118.8 496.7L129.8 496.8L140.8 496.7L151.9 496.6L162.9 496.6L173.9 496.6L185 496.5L196 496.6L207 496.7L218 496.7L229.1 496.7L240.1 496.4L251.1 496.3L262.2 496.3L273.2 496.3L284.2 496.4L295.3 496.4L306.3 496.7L317.3 496.7L328.4 496.9L339.4 496.9" fill="none" stroke-width="1"></path></g><g id="line__Finland"><path stroke-linecap="round" stroke-linejoin="round" stroke="#ddd" d="M85.7 495.7L96.7 495.8L107.7 496L118.8 495.5L129.8 495.3L140.8 495.3L151.9 495.2L162.9 495.3L173.9 495.2L185 495.2L196 495.1L207 494.9L218 493.6L229.1 494.5L240.1 493.7L251.1 492L262.2 492.1L273.2 492L284.2 491.7L295.3 491.4L306.3 492.4L317.3 492.5L328.4 492.1L339.4 491.9L350.4 491.4L361.5 491.1L372.5 491.4L383.5 491.2L394.6 492.1L405.6 491.1L416.6 490.8L427.6 491.3L438.7 491.4L449.7 491.6L460.7 491.3L471.8 491.4L482.8 491.6L493.8 491.5L504.9 491L515.9 494.5L526.9 491.1L538 490.2L549 492.8L560 487.4L571.1 486.9L582.1 487.8L593.1 486.6L604.2 487.5L615.2 486.3L626.2 485.5L637.2 474.8L648.3 475L659.3 477.6L670.3 477.6" fill="none" stroke-width="1"></path></g><g id="line__Cyprus"><path stroke-linecap="round" stroke-linejoin="round" stroke="#ddd" d="M85.7 496.6L96.7 496.5L107.7 496.6L118.8 496.6L129.8 496.6L140.8 496.6L151.9 496.8L162.9 496.8L173.9 496.8L185 496.7L196 496.7L207 496.8L218 496.9" fill="none" stroke-width="1"></path></g><g id="line__Cuba"><path stroke-linecap="round" stroke-linejoin="round" stroke="#ddd" d="M85.7 496.7L96.7 496.8L107.7 496.5L118.8 496.5L129.8 496.5L140.8 496.6L151.9 496.7L162.9 496.7L173.9 496.6L185 496.6L196 496.6L207 496.7L218 496.6L229.1 496.6L240.1 496.5L251.1 496.5L262.2 496.4L273.2 496.4L284.2 496.4L295.3 496.4L306.3 496.4L317.3 496.4L328.4 496.4L339.4 496.8L350.4 496.7L361.5 496.6L372.5 496.5L383.5 496.5L394.6 496.4L405.6 496.6L416.6 496.6L427.6 496.6L438.7 496.7L449.7 496.6L460.7 496.5L471.8 496.8L482.8 496.9" fill="none" stroke-width="1"></path></g><g id="line__Brazil"><path stroke-linecap="round" stroke-linejoin="round" stroke="#ddd" d="M85.7 496.6L96.7 496.4L107.7 496.2L118.8 496.2L129.8 496L140.8 495.2L151.9 495.1L162.9 493.9L173.9 494.3L185 493.6L196 493.9L207 494.6L218 494.2L229.1 495.4L240.1 494.4L251.1 495.1L262.2 494.7L273.2 495.1L284.2 494.7L295.3 494.3L306.3 495.2L317.3 494.8L328.4 492.5L339.4 494.6L350.4 493L361.5 492.6L372.5 493.2L383.5 494.6L394.6 493.5L405.6 493.5L416.6 491.1L427.6 492.9L438.7 494.2L449.7 493.3L460.7 491.2L471.8 490.9L482.8 491.5L493.8 490.8L504.9 490.5L515.9 493.4L526.9 491.9L538 491.7L549 492.3L560 492.2L571.1 490L582.1 491.8L593.1 492.8L604.2 494.5L615.2 494.8L626.2 495L637.2 494.7L648.3 494.5L659.3 494.5" fill="none" stroke-width="1"></path></g><g id="line__Albania"><path stroke-linecap="round" stroke-linejoin="round" stroke="#ddd" d="M85.7 492.4L96.7 492L107.7 491L118.8 491L129.8 490L140.8 489.4L151.9 488.9L162.9 488.4L173.9 487.2L185 489.7L196 489.6L207 490L218 490.4L229.1 490.3L240.1 489.9L251.1 486.2L262.2 485.7L273.2 486.5L284.2 486.2L295.3 486.3L306.3 487.1L317.3 491.2L328.4 493.8L339.4 494.2L350.4 494.7L361.5 494.6L372.5 494.6L383.5 495.4L394.6 495.7L405.6 495.8L416.6 495.7L427.6 496.1L438.7 496.2L449.7 496L460.7 495.4L471.8 495.3L482.8 495.1L493.8 495L504.9 494.8L515.9 494.1L526.9 493.7L538 493.7L549 493.4L560 491.8L571.1 490.3L582.1 490.7L593.1 489.9L604.2 489.1L615.2 485.9L626.2 484.5L637.2 490.8L648.3 490.6L659.3 487.9" fill="none" stroke-width="1"></path></g><g id="line__World"><path id="outline" fill="none" stroke-linecap="butt" stroke-linejoin="round" stroke="#fff" stroke-width="2.5" d="M637.2 139.5L648.3 89.3L659.3 92.1L670.3 100.8"></path><g id="polyline"><polyline id="polyline" points="637.20,139.50 648.30,89.30 659.30,92.10 670.30,100.80" stroke-linejoin="round" stroke-width="1.5" stroke="#C15065" fill="none" stroke-linecap="butt"></polyline></g></g><g id="line__United-States"><path id="outline" fill="none" stroke-linecap="butt" stroke-linejoin="round" stroke="#fff" stroke-width="2.5" d="M637.2 496.9L648.3 496.9L659.3 496.9L670.3 496.9"></path><g id="polyline"><polyline id="polyline" points="637.20,496.90 648.30,496.90 659.30,496.90 670.30,496.90" stroke-linejoin="round" stroke-width="1.5" stroke="#6D3E91" fill="none" stroke-linecap="butt"></polyline></g></g><g id="line__Papua-New-Guinea"><path id="outline" fill="none" stroke-linecap="butt" stroke-linejoin="round" stroke="#fff" stroke-width="2.5" d="M560 496.9L571.1 496.9L582.1 496.9L593.1 496.9L604.2 496L615.2 496L626.2 495.8L637.2 495.8L648.3 495.7L659.3 495.7"></path><g id="polyline"><polyline id="polyline" points="560.00,496.90 571.10,496.90 582.10,496.90 593.10,496.90 604.20,496.00 615.20,496.00 626.20,495.80 637.20,495.80 648.30,495.70 659.30,495.70" stroke-linejoin="round" stroke-width="1.5" stroke="#6D3E91" fill="none" stroke-linecap="butt"></polyline></g></g><g id="line__Colombia"><path id="outline" fill="none" stroke-linecap="butt" stroke-linejoin="round" stroke="#fff" stroke-width="2.5" d="M549 496.9L560 496.9L571.1 496.9L582.1 496.9L604.2 496.9L615.2 496.9L626.2 496.9L637.2 496.9L648.3 496.9L659.3 496.9"></path><g id="polyline"><polyline id="polyline" points="549.00,496.90 560.00,496.90 571.10,496.90 582.10,496.90 604.20,496.90 615.20,496.90 626.20,496.90 637.20,496.90 648.30,496.90 659.30,496.90" stroke-linejoin="round" stroke-width="1.5" stroke="#00847E" fill="none" stroke-linecap="butt"></polyline></g></g><g id="line__Kosovo"><path id="outline" fill="none" stroke-linecap="butt" stroke-linejoin="round" stroke="#fff" stroke-width="2.5" d="M471.8 496.9L482.8 496.9L504.9 496.9L515.9 496.9L526.9 496.9L538 496.9L549 496.9L560 496.8L571.1 496.8"></path><g id="polyline"><polyline id="polyline" points="471.80,496.90 482.80,496.90 504.90,496.90 515.90,496.90 526.90,496.90 538.00,496.90 549.00,496.90 560.00,496.80 571.10,496.80" stroke-linejoin="round" stroke-width="1.5" stroke="#008291" fill="none" stroke-linecap="butt"></polyline></g></g><g id="line__Afghanistan"><path id="outline" fill="none" stroke-linecap="butt" stroke-linejoin="round" stroke="#fff" stroke-width="2.5" d="M405.6 496.9L416.6 496.8L427.6 496.8L438.7 496.8L449.7 496.8L460.7 496.8L471.8 496.8L482.8 496.8L493.8 496.8L504.9 496.8L515.9 496.8L526.9 496.9L538 496.9L549 496.9L560 496.9L571.1 496.8L582.1 496.8L593.1 496.9L604.2 496.9L615.2 496.9L626.2 496.9L637.2 496.9L648.3 496.9L659.3 496.9"></path><g id="polyline"><polyline id="polyline" points="405.60,496.90 416.60,496.80 427.60,496.80 438.70,496.80 449.70,496.80 460.70,496.80 471.80,496.80 482.80,496.80 493.80,496.80 504.90,496.80 515.90,496.80 526.90,496.90 538.00,496.90 549.00,496.90 560.00,496.90 571.10,496.80 582.10,496.80 593.10,496.90 604.20,496.90 615.20,496.90 626.20,496.90 637.20,496.90 648.30,496.90 659.30,496.90" stroke-linejoin="round" stroke-width="1.5" stroke="#A2559C" fill="none" stroke-linecap="butt"></polyline></g></g><g id="line__Myanmar"><path id="outline" fill="none" stroke-linecap="butt" stroke-linejoin="round" stroke="#fff" stroke-width="2.5" d="M372.5 496.9L383.5 496.9L394.6 496.9L405.6 496.9L416.6 496.9L427.6 496.9L438.7 496.9L449.7 496.9L460.7 496.9L471.8 496.9"></path><g id="polyline"><polyline id="polyline" points="372.50,496.90 383.50,496.90 394.60,496.90 405.60,496.90 416.60,496.90 427.60,496.90 438.70,496.90 449.70,496.90 460.70,496.90 471.80,496.90" stroke-linejoin="round" stroke-width="1.5" stroke="#008291" fill="none" stroke-linecap="butt"></polyline></g></g><g id="line__Indonesia"><path id="outline" fill="none" stroke-linecap="butt" stroke-linejoin="round" stroke="#fff" stroke-width="2.5" d="M339.4 496.9L350.4 496.9L361.5 496.8L372.5 496.8L383.5 496.9L394.6 496.9L405.6 496.8"></path><g id="polyline"><polyline id="polyline" points="339.40,496.90 350.40,496.90 361.50,496.80 372.50,496.80 383.50,496.90 394.60,496.90 405.60,496.80" stroke-linejoin="round" stroke-width="1.5" stroke="#18470F" fill="none" stroke-linecap="butt"></polyline></g></g><g id="line__Australia"><path id="outline" fill="none" stroke-linecap="butt" stroke-linejoin="round" stroke="#fff" stroke-width="2.5" d="M339.4 496.9L350.4 496.9L361.5 496.9L372.5 496.8L383.5 496.7L394.6 496.2L405.6 496.2L416.6 496.2L427.6 496.7L438.7 496.3L449.7 495.3L460.7 494.2L471.8 494.7L482.8 494.3L493.8 494.1L504.9 495.5L515.9 495.1L526.9 495.1L538 493.8L549 492.5L560 493.5"></path><g id="polyline"><polyline id="polyline" points="339.40,496.90 350.40,496.90 361.50,496.90 372.50,496.80 383.50,496.70 394.60,496.20 405.60,496.20 416.60,496.20 427.60,496.70 438.70,496.30 449.70,495.30 460.70,494.20 471.80,494.70 482.80,494.30 493.80,494.10 504.90,495.50 515.90,495.10 526.90,495.10 538.00,493.80 549.00,492.50 560.00,493.50" stroke-linejoin="round" stroke-width="1.5" stroke="#2C8465" fill="none" stroke-linecap="butt"></polyline></g></g><g id="line__United-Arab-Emirates"><path id="outline" fill="none" stroke-linecap="butt" stroke-linejoin="round" stroke="#fff" stroke-width="2.5" d="M328.4 496.9L339.4 496.7L350.4 496.4L361.5 496.5L372.5 496.4L383.5 496.3L394.6 496.2L405.6 496.3L416.6 496.6L427.6 496.8L438.7 496.9L449.7 496.9L460.7 496.8L471.8 496.9L482.8 496.9L493.8 496.7L504.9 496.6"></path><g id="polyline"><polyline id="polyline" points="328.40,496.90 339.40,496.70 350.40,496.40 361.50,496.50 372.50,496.40 383.50,496.30 394.60,496.20 405.60,496.30 416.60,496.60 427.60,496.80 438.70,496.90 449.70,496.90 460.70,496.80 471.80,496.90 482.80,496.90 493.80,496.70 504.90,496.60" stroke-linejoin="round" stroke-width="1.5" stroke="#00875E" fill="none" stroke-linecap="butt"></polyline></g></g><g id="line__Russia"><path id="outline" fill="none" stroke-linecap="butt" stroke-linejoin="round" stroke="#fff" stroke-width="2.5" d="M328.4 495.7L339.4 495.7L350.4 495.5L361.5 495.3L372.5 495.8L383.5 496.1L394.6 496.2L405.6 496.4L416.6 496.1L427.6 495.8L438.7 496.2L449.7 495.3L460.7 492.6L471.8 489.4L482.8 487.6L493.8 491.3L504.9 489.7L515.9 493.5L526.9 490.1L538 490.5L549 491.6L560 493.4L571.1 493.2L582.1 492L593.1 492.2L604.2 492.7L615.2 492.4L626.2 490.2L637.2 490.2L648.3 490.2L659.3 490.2"></path><g id="polyline"><polyline id="polyline" points="328.40,495.70 339.40,495.70 350.40,495.50 361.50,495.30 372.50,495.80 383.50,496.10 394.60,496.20 405.60,496.40 416.60,496.10 427.60,495.80 438.70,496.20 449.70,495.30 460.70,492.60 471.80,489.40 482.80,487.60 493.80,491.30 504.90,489.70 515.90,493.50 526.90,490.10 538.00,490.50 549.00,491.60 560.00,493.40 571.10,493.20 582.10,492.00 593.10,492.20 604.20,492.70 615.20,492.40 626.20,490.20 637.20,490.20 648.30,490.20 659.30,490.20" stroke-linejoin="round" stroke-width="1.5" stroke="#8C4569" fill="none" stroke-linecap="butt"></polyline></g></g><g id="line__North-Macedonia"><path id="outline" fill="none" stroke-linecap="butt" stroke-linejoin="round" stroke="#fff" stroke-width="2.5" d="M328.4 496.8L339.4 496.9L350.4 496.9L361.5 496.9L372.5 496.9L383.5 496.9"></path><g id="polyline"><polyline id="polyline" points="328.40,496.80 339.40,496.90 350.40,496.90 361.50,496.90 372.50,496.90 383.50,496.90" stroke-linejoin="round" stroke-width="1.5" stroke="#996D39" fill="none" stroke-linecap="butt"></polyline></g></g><g id="line__Kazakhstan"><path id="outline" fill="none" stroke-linecap="butt" stroke-linejoin="round" stroke="#fff" stroke-width="2.5" d="M328.4 463.5L339.4 468.2L350.4 477.4L361.5 473.6L372.5 486.2L383.5 479.6L394.6 481.4L405.6 473.7L416.6 471.7L427.6 477.1L438.7 474L449.7 468.6L460.7 465.1L471.8 462.3L482.8 464.4L493.8 452.6L504.9 456.3L515.9 451.7L526.9 447.7L538 448L549 446.3L560 446.1L571.1 444.6L582.1 444.9L593.1 443.4L604.2 435.9L615.2 430.4L626.2 429.1L637.2 429.3L648.3 434.1L659.3 438.9L670.3 438.9"></path><g id="polyline"><polyline id="polyline" points="328.40,463.50 339.40,468.20 350.40,477.40 361.50,473.60 372.50,486.20 383.50,479.60 394.60,481.40 405.60,473.70 416.60,471.70 427.60,477.10 438.70,474.00 449.70,468.60 460.70,465.10 471.80,462.30 482.80,464.40 493.80,452.60 504.90,456.30 515.90,451.70 526.90,447.70 538.00,448.00 549.00,446.30 560.00,446.10 571.10,444.60 582.10,444.90 593.10,443.40 604.20,435.90 615.20,430.40 626.20,429.10 637.20,429.30 648.30,434.10 659.30,438.90 670.30,438.90" stroke-linejoin="round" stroke-width="1.5" stroke="#D73C50" fill="none" stroke-linecap="butt"></polyline></g></g><g id="line__China"><path id="outline" fill="none" stroke-linecap="butt" stroke-linejoin="round" stroke="#fff" stroke-width="2.5" d="M328.4 495.9L339.4 496.4L350.4 496.4L361.5 495L372.5 495.6L383.5 495.2L394.6 494.9L405.6 494.8L416.6 494.9L427.6 495.1L438.7 495.3L449.7 495L460.7 494.7L471.8 494.8L482.8 494.8L493.8 494.8L504.9 494.8L515.9 494.8L526.9 494.8L538 494.9L549 495.7L560 495.9L571.1 496.7L582.1 496.7L593.1 496.7L604.2 496.6L615.2 496.2L626.2 496.1L637.2 496.3L648.3 495.6L659.3 495.6"></path><g id="polyline"><polyline id="polyline" points="328.40,495.90 339.40,496.40 350.40,496.40 361.50,495.00 372.50,495.60 383.50,495.20 394.60,494.90 405.60,494.80 416.60,494.90 427.60,495.10 438.70,495.30 449.70,495.00 460.70,494.70 471.80,494.80 482.80,494.80 493.80,494.80 504.90,494.80 515.90,494.80 526.90,494.80 538.00,494.90 549.00,495.70 560.00,495.90 571.10,496.70 582.10,496.70 593.10,496.70 604.20,496.60 615.20,496.20 626.20,496.10 637.20,496.30 648.30,495.60 659.30,495.60" stroke-linejoin="round" stroke-width="1.5" stroke="#CF0A66" fill="none" stroke-linecap="butt"></polyline></g></g><g id="line__Oman"><path id="outline" fill="none" stroke-linecap="butt" stroke-linejoin="round" stroke="#fff" stroke-width="2.5" d="M251.1 496.8L262.2 496.9L273.2 496.9L284.2 496.9L295.3 496.8L328.4 496.9L339.4 496.8L350.4 496.8L361.5 496.8L372.5 496.8L383.5 496.7L394.6 496.6L405.6 496.6L416.6 496.8L427.6 496.6L438.7 496.6L449.7 496.8L460.7 496.6L471.8 496.6L482.8 494.2L493.8 493L504.9 488.6L515.9 490.8L526.9 488.5L538 490.9L549 491.5L560 489.3L571.1 489.6L582.1 492.6L593.1 492.5L604.2 490.8L615.2 488.4L626.2 489.8L637.2 492.5L648.3 492.2L659.3 492.9"></path><g id="polyline"><polyline id="polyline" points="251.10,496.80 262.20,496.90 273.20,496.90 284.20,496.90 295.30,496.80 328.40,496.90 339.40,496.80 350.40,496.80 361.50,496.80 372.50,496.80 383.50,496.70 394.60,496.60 405.60,496.60 416.60,496.80 427.60,496.60 438.70,496.60 449.70,496.80 460.70,496.60 471.80,496.60 482.80,494.20 493.80,493.00 504.90,488.60 515.90,490.80 526.90,488.50 538.00,490.90 549.00,491.50 560.00,489.30 571.10,489.60 582.10,492.60 593.10,492.50 604.20,490.80 615.20,488.40 626.20,489.80 637.20,492.50 648.30,492.20 659.30,492.90" stroke-linejoin="round" stroke-width="1.5" stroke="#286BBB" fill="none" stroke-linecap="butt"></polyline></g></g><g id="line__Vietnam"><path id="outline" fill="none" stroke-linecap="butt" stroke-linejoin="round" stroke="#fff" stroke-width="2.5" d="M151.9 496.8L162.9 496.8L173.9 496.8L185 496.8L196 496.8L207 496.8L218 496.7L229.1 496.7L240.1 496.7L251.1 496.9L262.2 496.9L273.2 496.9L284.2 496.9L295.3 496.9L306.3 496.9L317.3 496.9L328.4 496.9L339.4 496.8L350.4 496.8L361.5 496.7L372.5 496.5L383.5 496.4L394.6 496.3L405.6 496.3L416.6 496.2L427.6 496.2L438.7 496.3L449.7 496L460.7 496.1L471.8 496.8L482.8 496.9L493.8 495.9L504.9 496.4L515.9 496.5L526.9 496.3L538 496.7L549 496.9L560 496.7"></path><g id="polyline"><polyline id="polyline" points="151.90,496.80 162.90,496.80 173.90,496.80 185.00,496.80 196.00,496.80 207.00,496.80 218.00,496.70 229.10,496.70 240.10,496.70 251.10,496.90 262.20,496.90 273.20,496.90 284.20,496.90 295.30,496.90 306.30,496.90 317.30,496.90 328.40,496.90 339.40,496.80 350.40,496.80 361.50,496.70 372.50,496.50 383.50,496.40 394.60,496.30 405.60,496.30 416.60,496.20 427.60,496.20 438.70,496.30 449.70,496.00 460.70,496.10 471.80,496.80 482.80,496.90 493.80,495.90 504.90,496.40 515.90,496.50 526.90,496.30 538.00,496.70 549.00,496.90 560.00,496.70" stroke-linejoin="round" stroke-width="1.5" stroke="#CF0A66" fill="none" stroke-linecap="butt"></polyline></g></g><g id="line__New-Caledonia"><path id="outline" fill="none" stroke-linecap="butt" stroke-linejoin="round" stroke="#fff" stroke-width="2.5" d="M140.8 496.9L151.9 496.8L162.9 496.8L173.9 496.8L185 496.8L196 496.9L207 496.9L218 496.4L229.1 496.1L240.1 496.1L251.1 496.1L262.2 496.2L273.2 496.3L284.2 496.2L295.3 496.3L306.3 496.8L317.3 496.9L328.4 496.8"></path><g id="polyline"><polyline id="polyline" points="140.80,496.90 151.90,496.80 162.90,496.80 173.90,496.80 185.00,496.80 196.00,496.90 207.00,496.90 218.00,496.40 229.10,496.10 240.10,496.10 251.10,496.10 262.20,496.20 273.20,496.30 284.20,496.20 295.30,496.30 306.30,496.80 317.30,496.90 328.40,496.80" stroke-linejoin="round" stroke-width="1.5" stroke="#970046" fill="none" stroke-linecap="butt"></polyline></g></g><g id="line__Zimbabwe"><path id="outline" fill="none" stroke-linecap="butt" stroke-linejoin="round" stroke="#fff" stroke-width="2.5" d="M85.7 493L96.7 493L107.7 493L118.8 491.6L129.8 491.2L140.8 488.4L151.9 488.6L162.9 490.4L173.9 492.3L185 491.7L196 491.6L207 491.7L218 492.7L229.1 492.7L240.1 492.3L251.1 491.8L262.2 491.6L273.2 491.4L284.2 491.5L295.3 490.8L306.3 491.5L317.3 491.4L328.4 491.9L339.4 494.5L350.4 491.9L361.5 490.1L372.5 490.5L383.5 490.4L394.6 491.1L405.6 490.6L416.6 490.4L427.6 489.4L438.7 489.9L449.7 491.4L460.7 490.4L471.8 490.5L482.8 490.1L493.8 491L504.9 492.6L515.9 495L526.9 491.9L538 491.1L549 493L560 493.5L571.1 493L582.1 494.9L593.1 495.8L604.2 490.2L615.2 488.3L626.2 481.9L637.2 484.6L648.3 484.9L659.3 485.8"></path><g id="polyline"><polyline id="polyline" points="85.70,493.00 96.70,493.00 107.70,493.00 118.80,491.60 129.80,491.20 140.80,488.40 151.90,488.60 162.90,490.40 173.90,492.30 185.00,491.70 196.00,491.60 207.00,491.70 218.00,492.70 229.10,492.70 240.10,492.30 251.10,491.80 262.20,491.60 273.20,491.40 284.20,491.50 295.30,490.80 306.30,491.50 317.30,491.40 328.40,491.90 339.40,494.50 350.40,491.90 361.50,490.10 372.50,490.50 383.50,490.40 394.60,491.10 405.60,490.60 416.60,490.40 427.60,489.40 438.70,489.90 449.70,491.40 460.70,490.40 471.80,490.50 482.80,490.10 493.80,491.00 504.90,492.60 515.90,495.00 526.90,491.90 538.00,491.10 549.00,493.00 560.00,493.50 571.10,493.00 582.10,494.90 593.10,495.80 604.20,490.20 615.20,488.30 626.20,481.90 637.20,484.60 648.30,484.90 659.30,485.80" stroke-linejoin="round" stroke-width="1.5" stroke="#C15065" fill="none" stroke-linecap="butt"></polyline></g></g><g id="line__Yugoslavia"><path id="outline" fill="none" stroke-linecap="butt" stroke-linejoin="round" stroke="#fff" stroke-width="2.5" d="M85.7 496.5L96.7 496.6L107.7 496.6L118.8 496.8L129.8 496.9L140.8 496.9L151.9 496.9L162.9 496.9L173.9 496.9L185 496.9"></path><g id="polyline"><polyline id="polyline" points="85.70,496.50 96.70,496.60 107.70,496.60 118.80,496.80 129.80,496.90 140.80,496.90 151.90,496.90 162.90,496.90 173.90,496.90 185.00,496.90" stroke-linejoin="round" stroke-width="1.5" stroke="#BE5915" fill="none" stroke-linecap="butt"></polyline></g></g><g id="line__USSR"><path id="outline" fill="none" stroke-linecap="butt" stroke-linejoin="round" stroke="#fff" stroke-width="2.5" d="M85.7 480L96.7 479.5L107.7 479L118.8 478.5L129.8 478.1L140.8 476.8L151.9 476.6L162.9 475.8L173.9 474.7L185 473.7L196 473.2L207 468.9L218 468.5L229.1 468.5L240.1 468.5L251.1 464.4L262.2 461.7L273.2 462.4L284.2 461.2L295.3 460.2L306.3 460.2L317.3 460.2"></path><g id="polyline"><polyline id="polyline" points="85.70,480.00 96.70,479.50 107.70,479.00 118.80,478.50 129.80,478.10 140.80,476.80 151.90,476.60 162.90,475.80 173.90,474.70 185.00,473.70 196.00,473.20 207.00,468.90 218.00,468.50 229.10,468.50 240.10,468.50 251.10,464.40 262.20,461.70 273.20,462.40 284.20,461.20 295.30,460.20 306.30,460.20 317.30,460.20" stroke-linejoin="round" stroke-width="1.5" stroke="#996D39" fill="none" stroke-linecap="butt"></polyline></g></g><g id="line__Turkey"><path id="outline" fill="none" stroke-linecap="butt" stroke-linejoin="round" stroke="#fff" stroke-width="2.5" d="M85.7 491.9L96.7 491.1L107.7 490.3L118.8 491.4L129.8 490.5L140.8 490.1L151.9 490.5L162.9 490.8L173.9 492.4L185 492.9L196 493.2L207 493L218 492.5L229.1 493.6L240.1 492.2L251.1 491.2L262.2 490.9L273.2 489.5L284.2 488.7L295.3 483.2L306.3 486.4L317.3 480.3L328.4 489.6L339.4 490.1L350.4 489.3L361.5 478.2L372.5 484.5L383.5 480.5L394.6 483.3L405.6 487.1L416.6 491.6L427.6 492.5L438.7 493.7L449.7 494.7L460.7 492L471.8 488.6L482.8 486.7L493.8 480.7L504.9 478.7L515.9 479.8L526.9 473.1L538 474.9L549 465.1L560 456.9L571.1 433L582.1 472.6L593.1 477.3L604.2 472.2L615.2 468.9L626.2 464.4L637.2 419.6L648.3 429.7L659.3 444.6L670.3 438.9"></path><g id="polyline"><polyline id="polyline" points="85.70,491.90 96.70,491.10 107.70,490.30 118.80,491.40 129.80,490.50 140.80,490.10 151.90,490.50 162.90,490.80 173.90,492.40 185.00,492.90 196.00,493.20 207.00,493.00 218.00,492.50 229.10,493.60 240.10,492.20 251.10,491.20 262.20,490.90 273.20,489.50 284.20,488.70 295.30,483.20 306.30,486.40 317.30,480.30 328.40,489.60 339.40,490.10 350.40,489.30 361.50,478.20 372.50,484.50 383.50,480.50 394.60,483.30 405.60,487.10 416.60,491.60 427.60,492.50 438.70,493.70 449.70,494.70 460.70,492.00 471.80,488.60 482.80,486.70 493.80,480.70 504.90,478.70 515.90,479.80 526.90,473.10 538.00,474.90 549.00,465.10 560.00,456.90 571.10,433.00 582.10,472.60 593.10,477.30 604.20,472.20 615.20,468.90 626.20,464.40 637.20,419.60 648.30,429.70 659.30,444.60 670.30,438.90" stroke-linejoin="round" stroke-width="1.5" stroke="#00295B" fill="none" stroke-linecap="butt"></polyline></g></g><g id="line__Sudan"><path id="outline" fill="none" stroke-linecap="butt" stroke-linejoin="round" stroke="#fff" stroke-width="2.5" d="M85.7 496.4L96.7 496.7L107.7 496.7L118.8 496.6L129.8 496.7L140.8 496.5L151.9 496.7L162.9 496.7L173.9 496.7L185 496.6L196 496.7L207 496.7L218 496.8L229.1 496.7L240.1 496.7L251.1 496.7L262.2 496.7L273.2 496.8L284.2 496.7L295.3 496.6L306.3 496.6L317.3 496.7L328.4 496.7L339.4 496.8L350.4 496.7L361.5 496.5L372.5 496.8L383.5 496.6L394.6 496.3L405.6 496.4L416.6 496.6L427.6 496.7L438.7 496.8L449.7 496.5L460.7 496.6L471.8 496.7L482.8 496.7L493.8 496.5L504.9 496.6L515.9 496.8L526.9 496.4L538 496.3L549 496.7L560 496.6L571.1 496.3L582.1 496.8L593.1 496.5L604.2 496.6L615.2 496.6L626.2 496.8L637.2 496.8L648.3 496.8L659.3 496.9"></path><g id="polyline"><polyline id="polyline" points="85.70,496.40 96.70,496.70 107.70,496.70 118.80,496.60 129.80,496.70 140.80,496.50 151.90,496.70 162.90,496.70 173.90,496.70 185.00,496.60 196.00,496.70 207.00,496.70 218.00,496.80 229.10,496.70 240.10,496.70 251.10,496.70 262.20,496.70 273.20,496.80 284.20,496.70 295.30,496.60 306.30,496.60 317.30,496.70 328.40,496.70 339.40,496.80 350.40,496.70 361.50,496.50 372.50,496.80 383.50,496.60 394.60,496.30 405.60,496.40 416.60,496.60 427.60,496.70 438.70,496.80 449.70,496.50 460.70,496.60 471.80,496.70 482.80,496.70 493.80,496.50 504.90,496.60 515.90,496.80 526.90,496.40 538.00,496.30 549.00,496.70 560.00,496.60 571.10,496.30 582.10,496.80 593.10,496.50 604.20,496.60 615.20,496.60 626.20,496.80 637.20,496.80 648.30,496.80 659.30,496.90" stroke-linejoin="round" stroke-width="1.5" stroke="#00847E" fill="none" stroke-linecap="butt"></polyline></g></g><g id="line__South-Africa"><path id="outline" fill="none" stroke-linecap="butt" stroke-linejoin="round" stroke="#fff" stroke-width="2.5" d="M85.7 483.1L96.7 481L107.7 482.6L118.8 481L129.8 478.8L140.8 476.9L151.9 473.6L162.9 467.4L173.9 466.5L185 465.1L196 463.9L207 469.2L218 473L229.1 472.8L240.1 464L251.1 461.2L262.2 459.2L273.2 459.6L284.2 455.9L295.3 449.1L306.3 452.3L317.3 447.6L328.4 464.4L339.4 469.5L350.4 462.1L361.5 447.8L372.5 447.8L383.5 437.4L394.6 434.3L405.6 431L416.6 432.5L427.6 443.8L438.7 434.7L449.7 425.4L460.7 422.7L471.8 424.4L482.8 425.2L493.8 403.7L504.9 403.4L515.9 430.6L526.9 391.9L538 393.3L549 387.6L560 365.1L571.1 361.3L582.1 345.4L593.1 354.8L604.2 336.7L615.2 324.7L626.2 326.3L637.2 369.4L648.3 317.2L659.3 312.4L670.3 323"></path><g id="polyline"><polyline id="polyline" points="85.70,483.10 96.70,481.00 107.70,482.60 118.80,481.00 129.80,478.80 140.80,476.90 151.90,473.60 162.90,467.40 173.90,466.50 185.00,465.10 196.00,463.90 207.00,469.20 218.00,473.00 229.10,472.80 240.10,464.00 251.10,461.20 262.20,459.20 273.20,459.60 284.20,455.90 295.30,449.10 306.30,452.30 317.30,447.60 328.40,464.40 339.40,469.50 350.40,462.10 361.50,447.80 372.50,447.80 383.50,437.40 394.60,434.30 405.60,431.00 416.60,432.50 427.60,443.80 438.70,434.70 449.70,425.40 460.70,422.70 471.80,424.40 482.80,425.20 493.80,403.70 504.90,403.40 515.90,430.60 526.90,391.90 538.00,393.30 549.00,387.60 560.00,365.10 571.10,361.30 582.10,345.40 593.10,354.80 604.20,336.70 615.20,324.70 626.20,326.30 637.20,369.40 648.30,317.20 659.30,312.40 670.30,323.00" stroke-linejoin="round" stroke-width="1.5" stroke="#00847E" fill="none" stroke-linecap="butt"></polyline></g></g><g id="line__Philippines"><path id="outline" fill="none" stroke-linecap="butt" stroke-linejoin="round" stroke="#fff" stroke-width="2.5" d="M85.7 491.4L96.7 492.8L107.7 493.5L118.8 491.3L129.8 491.8L140.8 491.9L151.9 492.7L162.9 491.7L173.9 491.7L185 491.5L196 492.1L207 492.7L218 493.8L229.1 494.3L240.1 494.4L251.1 494.3L262.2 494.9L273.2 495.1L284.2 495.2L295.3 494.5L306.3 494.4L317.3 494.9L328.4 495.8L339.4 496.3L350.4 496.2L361.5 495.9L372.5 495.8L383.5 496L394.6 496.5L405.6 496.7L416.6 496.7L427.6 496.6L438.7 496.7L449.7 496.6L460.7 496.5L471.8 496.6L482.8 496.4L493.8 496.6L504.9 496.8L515.9 496.8L526.9 496.8L538 496.7L549 496.5L560 496.6L571.1 496.4L582.1 496.8L593.1 496.7L604.2 496.7L615.2 496.4L626.2 496.5L637.2 496.6L648.3 496.6L659.3 495.5"></path><g id="polyline"><polyline id="polyline" points="85.70,491.40 96.70,492.80 107.70,493.50 118.80,491.30 129.80,491.80 140.80,491.90 151.90,492.70 162.90,491.70 173.90,491.70 185.00,491.50 196.00,492.10 207.00,492.70 218.00,493.80 229.10,494.30 240.10,494.40 251.10,494.30 262.20,494.90 273.20,495.10 284.20,495.20 295.30,494.50 306.30,494.40 317.30,494.90 328.40,495.80 339.40,496.30 350.40,496.20 361.50,495.90 372.50,495.80 383.50,496.00 394.60,496.50 405.60,496.70 416.60,496.70 427.60,496.60 438.70,496.70 449.70,496.60 460.70,496.50 471.80,496.60 482.80,496.40 493.80,496.60 504.90,496.80 515.90,496.80 526.90,496.80 538.00,496.70 549.00,496.50 560.00,496.60 571.10,496.40 582.10,496.80 593.10,496.70 604.20,496.70 615.20,496.40 626.20,496.50 637.20,496.60 648.30,496.60 659.30,495.50" stroke-linejoin="round" stroke-width="1.5" stroke="#2C8465" fill="none" stroke-linecap="butt"></polyline></g></g><g id="line__Pakistan"><path id="outline" fill="none" stroke-linecap="butt" stroke-linejoin="round" stroke="#fff" stroke-width="2.5" d="M85.7 496.6L96.7 496.6L107.7 496.6L118.8 496.7L129.8 496.8L140.8 496.8L151.9 496.8L162.9 496.8L173.9 496.8L185 496.9L196 496.9L207 496.9L218 496.9L229.1 496.9L240.1 496.9L251.1 496.8L262.2 496.8L273.2 496.8L284.2 496.9L295.3 496.6L306.3 496.7L317.3 496.6L328.4 496.7L339.4 496.5L350.4 496.8L361.5 496.8L372.5 496.6L383.5 496.7L394.6 496.8L405.6 496.7L416.6 496.7L427.6 496.7L438.7 496.7L449.7 496.6L460.7 496.6L471.8 496.4L482.8 496.3L493.8 494L504.9 493.1L515.9 494L526.9 491.7L538 492.6L549 492.1L560 492.2L571.1 493.5L582.1 493.7L593.1 494.7L604.2 493.5L615.2 493.8L626.2 492.4L637.2 493L648.3 492.4L659.3 490.6"></path><g id="polyline"><polyline id="polyline" points="85.70,496.60 96.70,496.60 107.70,496.60 118.80,496.70 129.80,496.80 140.80,496.80 151.90,496.80 162.90,496.80 173.90,496.80 185.00,496.90 196.00,496.90 207.00,496.90 218.00,496.90 229.10,496.90 240.10,496.90 251.10,496.80 262.20,496.80 273.20,496.80 284.20,496.90 295.30,496.60 306.30,496.70 317.30,496.60 328.40,496.70 339.40,496.50 350.40,496.80 361.50,496.80 372.50,496.60 383.50,496.70 394.60,496.80 405.60,496.70 416.60,496.70 427.60,496.70 438.70,496.70 449.70,496.60 460.70,496.60 471.80,496.40 482.80,496.30 493.80,494.00 504.90,493.10 515.90,494.00 526.90,491.70 538.00,492.60 549.00,492.10 560.00,492.20 571.10,493.50 582.10,493.70 593.10,494.70 604.20,493.50 615.20,493.80 626.20,492.40 637.20,493.00 648.30,492.40 659.30,490.60" stroke-linejoin="round" stroke-width="1.5" stroke="#18470F" fill="none" stroke-linecap="butt"></polyline></g></g><g id="line__Madagascar"><path id="outline" fill="none" stroke-linecap="butt" stroke-linejoin="round" stroke="#fff" stroke-width="2.5" d="M85.7 495.9L96.7 495.5L107.7 495.8L118.8 495.9L129.8 495.4L140.8 495L151.9 494.9L162.9 495.3L173.9 495.7L185 495.7L196 495.5L207 495.9L218 496.5L229.1 496.5L240.1 496.3L251.1 495.7L262.2 496L273.2 495.9L284.2 495.2L295.3 495.3L306.3 495.7L317.3 495.5L328.4 495.3L339.4 495.5L350.4 496.2L361.5 495.9L372.5 495.6L383.5 495.6L394.6 495.3L416.6 495.6L427.6 496.3L438.7 496.8L449.7 496.5L460.7 496.2L471.8 496L482.8 495.8L493.8 496.1L504.9 495.8L515.9 495.6L526.9 495.6L538 496.3L549 495.8L560 496.3L571.1 496.4L582.1 496L593.1 496.2L604.2 496.3L615.2 495.8L626.2 496.2L637.2 496.8L648.3 496.8L659.3 496.7"></path><g id="polyline"><polyline id="polyline" points="85.70,495.90 96.70,495.50 107.70,495.80 118.80,495.90 129.80,495.40 140.80,495.00 151.90,494.90 162.90,495.30 173.90,495.70 185.00,495.70 196.00,495.50 207.00,495.90 218.00,496.50 229.10,496.50 240.10,496.30 251.10,495.70 262.20,496.00 273.20,495.90 284.20,495.20 295.30,495.30 306.30,495.70 317.30,495.50 328.40,495.30 339.40,495.50 350.40,496.20 361.50,495.90 372.50,495.60 383.50,495.60 394.60,495.30 416.60,495.60 427.60,496.30 438.70,496.80 449.70,496.50 460.70,496.20 471.80,496.00 482.80,495.80 493.80,496.10 504.90,495.80 515.90,495.60 526.90,495.60 538.00,496.30 549.00,495.80 560.00,496.30 571.10,496.40 582.10,496.00 593.10,496.20 604.20,496.30 615.20,495.80 626.20,496.20 637.20,496.80 648.30,496.80 659.30,496.70" stroke-linejoin="round" stroke-width="1.5" stroke="#578145" fill="none" stroke-linecap="butt"></polyline></g></g><g id="line__Japan"><path id="outline" fill="none" stroke-linecap="butt" stroke-linejoin="round" stroke="#fff" stroke-width="2.5" d="M85.7 496.6L96.7 496.6L107.7 496.7L118.8 496.7L129.8 496.6L140.8 496.7L151.9 496.7L162.9 496.7L173.9 496.8L185 496.8L196 496.8L207 496.8L218 496.8L229.1 496.8L240.1 496.8L251.1 496.8L262.2 496.8L273.2 496.8L284.2 496.8L295.3 496.8L306.3 496.8L317.3 496.8L328.4 496.8"></path><g id="polyline"><polyline id="polyline" points="85.70,496.60 96.70,496.60 107.70,496.70 118.80,496.70 129.80,496.60 140.80,496.70 151.90,496.70 162.90,496.70 173.90,496.80 185.00,496.80 196.00,496.80 207.00,496.80 218.00,496.80 229.10,496.80 240.10,496.80 251.10,496.80 262.20,496.80 273.20,496.80 284.20,496.80 295.30,496.80 306.30,496.80 317.30,496.80 328.40,496.80" stroke-linejoin="round" stroke-width="1.5" stroke="#C15065" fill="none" stroke-linecap="butt"></polyline></g></g><g id="line__Iran"><path id="outline" fill="none" stroke-linecap="butt" stroke-linejoin="round" stroke="#fff" stroke-width="2.5" d="M85.7 494.8L96.7 495L107.7 495.5L118.8 495.5L129.8 495.2L140.8 495.4L151.9 495.4L162.9 494.6L173.9 495L185 495.6L196 496.1L207 496.6L218 496.5L229.1 496.4L240.1 496.3L251.1 496.4L262.2 496.4L273.2 496L284.2 496.3L295.3 496.2L306.3 496.2L317.3 496L328.4 495.6L339.4 495.8L350.4 493.5L361.5 493.4L372.5 493.8L383.5 493.8L394.6 493.8L405.6 493.3L416.6 495.5L427.6 495.2L438.7 494.7L449.7 495.4L460.7 495.6L471.8 494.7L482.8 494.6L493.8 495.6L504.9 494.3L515.9 494.2L526.9 493.5L538 492.6L549 492.9L560 493.6L571.1 493.4L582.1 494.2L593.1 493.6L604.2 494L615.2 494.4L626.2 494.5L637.2 494.5L648.3 494.5L659.3 494.5"></path><g id="polyline"><polyline id="polyline" points="85.70,494.80 96.70,495.00 107.70,495.50 118.80,495.50 129.80,495.20 140.80,495.40 151.90,495.40 162.90,494.60 173.90,495.00 185.00,495.60 196.00,496.10 207.00,496.60 218.00,496.50 229.10,496.40 240.10,496.30 251.10,496.40 262.20,496.40 273.20,496.00 284.20,496.30 295.30,496.20 306.30,496.20 317.30,496.00 328.40,495.60 339.40,495.80 350.40,493.50 361.50,493.40 372.50,493.80 383.50,493.80 394.60,493.80 405.60,493.30 416.60,495.50 427.60,495.20 438.70,494.70 449.70,495.40 460.70,495.60 471.80,494.70 482.80,494.60 493.80,495.60 504.90,494.30 515.90,494.20 526.90,493.50 538.00,492.60 549.00,492.90 560.00,493.60 571.10,493.40 582.10,494.20 593.10,493.60 604.20,494.00 615.20,494.40 626.20,494.50 637.20,494.50 648.30,494.50 659.30,494.50" stroke-linejoin="round" stroke-width="1.5" stroke="#CF0A66" fill="none" stroke-linecap="butt"></polyline></g></g><g id="line__India"><path id="outline" fill="none" stroke-linecap="butt" stroke-linejoin="round" stroke="#fff" stroke-width="2.5" d="M85.7 494.3L96.7 494.3L107.7 494.2L118.8 494.1L129.8 493.1L140.8 492.1L151.9 493L162.9 493.5L173.9 494.3L185 493.9L196 493.8L207 493.6L218 493.5L229.1 493.4L240.1 492.6L251.1 491.4L262.2 490.8L273.2 490.9L284.2 489L295.3 487.2L306.3 486.8L317.3 487.8L328.4 486.6L339.4 486.6L350.4 485.9L361.5 480.5L372.5 482.8L383.5 482.3L394.6 483.2L405.6 480.1L416.6 477.9L427.6 481.9L438.7 467.3L449.7 468.8L460.7 461.9L471.8 461L482.8 445.7L493.8 449.8L504.9 457.6L515.9 463.8L526.9 455.1L538 468.7L549 469.5L560 469.1L571.1 476L582.1 468.7L593.1 460.9L604.2 463.3L615.2 458.5L626.2 458.9L637.2 472.8L648.3 455.8L659.3 458.3L670.3 456.3"></path><g id="polyline"><polyline id="polyline" points="85.70,494.30 96.70,494.30 107.70,494.20 118.80,494.10 129.80,493.10 140.80,492.10 151.90,493.00 162.90,493.50 173.90,494.30 185.00,493.90 196.00,493.80 207.00,493.60 218.00,493.50 229.10,493.40 240.10,492.60 251.10,491.40 262.20,490.80 273.20,490.90 284.20,489.00 295.30,487.20 306.30,486.80 317.30,487.80 328.40,486.60 339.40,486.60 350.40,485.90 361.50,480.50 372.50,482.80 383.50,482.30 394.60,483.20 405.60,480.10 416.60,477.90 427.60,481.90 438.70,467.30 449.70,468.80 460.70,461.90 471.80,461.00 482.80,445.70 493.80,449.80 504.90,457.60 515.90,463.80 526.90,455.10 538.00,468.70 549.00,469.50 560.00,469.10 571.10,476.00 582.10,468.70 593.10,460.90 604.20,463.30 615.20,458.50 626.20,458.90 637.20,472.80 648.30,455.80 659.30,458.30 670.30,456.30" stroke-linejoin="round" stroke-width="1.5" stroke="#286BBB" fill="none" stroke-linecap="butt"></polyline></g></g><g id="line__Greece"><path id="outline" fill="none" stroke-linecap="butt" stroke-linejoin="round" stroke="#fff" stroke-width="2.5" d="M85.7 496.6L96.7 496.8L107.7 496.7L118.8 496.7L129.8 496.8L140.8 496.7L151.9 496.6L162.9 496.6L173.9 496.6L185 496.5L196 496.6L207 496.7L218 496.7L229.1 496.7L240.1 496.4L251.1 496.3L262.2 496.3L273.2 496.3L284.2 496.4L295.3 496.4L306.3 496.7L317.3 496.7L328.4 496.9L339.4 496.9"></path><g id="polyline"><polyline id="polyline" points="85.70,496.60 96.70,496.80 107.70,496.70 118.80,496.70 129.80,496.80 140.80,496.70 151.90,496.60 162.90,496.60 173.90,496.60 185.00,496.50 196.00,496.60 207.00,496.70 218.00,496.70 229.10,496.70 240.10,496.40 251.10,496.30 262.20,496.30 273.20,496.30 284.20,496.40 295.30,496.40 306.30,496.70 317.30,496.70 328.40,496.90 339.40,496.90" stroke-linejoin="round" stroke-width="1.5" stroke="#C4523E" fill="none" stroke-linecap="butt"></polyline></g></g><g id="line__Finland"><path id="outline" fill="none" stroke-linecap="butt" stroke-linejoin="round" stroke="#fff" stroke-width="2.5" d="M85.7 495.7L96.7 495.8L107.7 496L118.8 495.5L129.8 495.3L140.8 495.3L151.9 495.2L162.9 495.3L173.9 495.2L185 495.2L196 495.1L207 494.9L218 493.6L229.1 494.5L240.1 493.7L251.1 492L262.2 492.1L273.2 492L284.2 491.7L295.3 491.4L306.3 492.4L317.3 492.5L328.4 492.1L339.4 491.9L350.4 491.4L361.5 491.1L372.5 491.4L383.5 491.2L394.6 492.1L405.6 491.1L416.6 490.8L427.6 491.3L438.7 491.4L449.7 491.6L460.7 491.3L471.8 491.4L482.8 491.6L493.8 491.5L504.9 491L515.9 494.5L526.9 491.1L538 490.2L549 492.8L560 487.4L571.1 486.9L582.1 487.8L593.1 486.6L604.2 487.5L615.2 486.3L626.2 485.5L637.2 474.8L648.3 475L659.3 477.6L670.3 477.6"></path><g id="polyline"><polyline id="polyline" points="85.70,495.70 96.70,495.80 107.70,496.00 118.80,495.50 129.80,495.30 140.80,495.30 151.90,495.20 162.90,495.30 173.90,495.20 185.00,495.20 196.00,495.10 207.00,494.90 218.00,493.60 229.10,494.50 240.10,493.70 251.10,492.00 262.20,492.10 273.20,492.00 284.20,491.70 295.30,491.40 306.30,492.40 317.30,492.50 328.40,492.10 339.40,491.90 350.40,491.40 361.50,491.10 372.50,491.40 383.50,491.20 394.60,492.10 405.60,491.10 416.60,490.80 427.60,491.30 438.70,491.40 449.70,491.60 460.70,491.30 471.80,491.40 482.80,491.60 493.80,491.50 504.90,491.00 515.90,494.50 526.90,491.10 538.00,490.20 549.00,492.80 560.00,487.40 571.10,486.90 582.10,487.80 593.10,486.60 604.20,487.50 615.20,486.30 626.20,485.50 637.20,474.80 648.30,475.00 659.30,477.60 670.30,477.60" stroke-linejoin="round" stroke-width="1.5" stroke="#970046" fill="none" stroke-linecap="butt"></polyline></g></g><g id="line__Cyprus"><path id="outline" fill="none" stroke-linecap="butt" stroke-linejoin="round" stroke="#fff" stroke-width="2.5" d="M85.7 496.6L96.7 496.5L107.7 496.6L118.8 496.6L129.8 496.6L140.8 496.6L151.9 496.8L162.9 496.8L173.9 496.8L185 496.7L196 496.7L207 496.8L218 496.9"></path><g id="polyline"><polyline id="polyline" points="85.70,496.60 96.70,496.50 107.70,496.60 118.80,496.60 129.80,496.60 140.80,496.60 151.90,496.80 162.90,496.80 173.90,496.80 185.00,496.70 196.00,496.70 207.00,496.80 218.00,496.90" stroke-linejoin="round" stroke-width="1.5" stroke="#00875E" fill="none" stroke-linecap="butt"></polyline></g></g><g id="line__Cuba"><path id="outline" fill="none" stroke-linecap="butt" stroke-linejoin="round" stroke="#fff" stroke-width="2.5" d="M85.7 496.7L96.7 496.8L107.7 496.5L118.8 496.5L129.8 496.5L140.8 496.6L151.9 496.7L162.9 496.7L173.9 496.6L185 496.6L196 496.6L207 496.7L218 496.6L229.1 496.6L240.1 496.5L251.1 496.5L262.2 496.4L273.2 496.4L284.2 496.4L295.3 496.4L306.3 496.4L317.3 496.4L328.4 496.4L339.4 496.8L350.4 496.7L361.5 496.6L372.5 496.5L383.5 496.5L394.6 496.4L405.6 496.6L416.6 496.6L427.6 496.6L438.7 496.7L449.7 496.6L460.7 496.5L471.8 496.8L482.8 496.9"></path><g id="polyline"><polyline id="polyline" points="85.70,496.70 96.70,496.80 107.70,496.50 118.80,496.50 129.80,496.50 140.80,496.60 151.90,496.70 162.90,496.70 173.90,496.60 185.00,496.60 196.00,496.60 207.00,496.70 218.00,496.60 229.10,496.60 240.10,496.50 251.10,496.50 262.20,496.40 273.20,496.40 284.20,496.40 295.30,496.40 306.30,496.40 317.30,496.40 328.40,496.40 339.40,496.80 350.40,496.70 361.50,496.60 372.50,496.50 383.50,496.50 394.60,496.40 405.60,496.60 416.60,496.60 427.60,496.60 438.70,496.70 449.70,496.60 460.70,496.50 471.80,496.80 482.80,496.90" stroke-linejoin="round" stroke-width="1.5" stroke="#4C6A9C" fill="none" stroke-linecap="butt"></polyline></g></g><g id="line__Brazil"><path id="outline" fill="none" stroke-linecap="butt" stroke-linejoin="round" stroke="#fff" stroke-width="2.5" d="M85.7 496.6L96.7 496.4L107.7 496.2L118.8 496.2L129.8 496L140.8 495.2L151.9 495.1L162.9 493.9L173.9 494.3L185 493.6L196 493.9L207 494.6L218 494.2L229.1 495.4L240.1 494.4L251.1 495.1L262.2 494.7L273.2 495.1L284.2 494.7L295.3 494.3L306.3 495.2L317.3 494.8L328.4 492.5L339.4 494.6L350.4 493L361.5 492.6L372.5 493.2L383.5 494.6L394.6 493.5L405.6 493.5L416.6 491.1L427.6 492.9L438.7 494.2L449.7 493.3L460.7 491.2L471.8 490.9L482.8 491.5L493.8 490.8L504.9 490.5L515.9 493.4L526.9 491.9L538 491.7L549 492.3L560 492.2L571.1 490L582.1 491.8L593.1 492.8L604.2 494.5L615.2 494.8L626.2 495L637.2 494.7L648.3 494.5L659.3 494.5"></path><g id="polyline"><polyline id="polyline" points="85.70,496.60 96.70,496.40 107.70,496.20 118.80,496.20 129.80,496.00 140.80,495.20 151.90,495.10 162.90,493.90 173.90,494.30 185.00,493.60 196.00,493.90 207.00,494.60 218.00,494.20 229.10,495.40 240.10,494.40 251.10,495.10 262.20,494.70 273.20,495.10 284.20,494.70 295.30,494.30 306.30,495.20 317.30,494.80 328.40,492.50 339.40,494.60 350.40,493.00 361.50,492.60 372.50,493.20 383.50,494.60 394.60,493.50 405.60,493.50 416.60,491.10 427.60,492.90 438.70,494.20 449.70,493.30 460.70,491.20 471.80,490.90 482.80,491.50 493.80,490.80 504.90,490.50 515.90,493.40 526.90,491.90 538.00,491.70 549.00,492.30 560.00,492.20 571.10,490.00 582.10,491.80 593.10,492.80 604.20,494.50 615.20,494.80 626.20,495.00 637.20,494.70 648.30,494.50 659.30,494.50" stroke-linejoin="round" stroke-width="1.5" stroke="#578145" fill="none" stroke-linecap="butt"></polyline></g></g><g id="line__Albania"><path id="outline" fill="none" stroke-linecap="butt" stroke-linejoin="round" stroke="#fff" stroke-width="2.5" d="M85.7 492.4L96.7 492L107.7 491L118.8 491L129.8 490L140.8 489.4L151.9 488.9L162.9 488.4L173.9 487.2L185 489.7L196 489.6L207 490L218 490.4L229.1 490.3L240.1 489.9L251.1 486.2L262.2 485.7L273.2 486.5L284.2 486.2L295.3 486.3L306.3 487.1L317.3 491.2L328.4 493.8L339.4 494.2L350.4 494.7L361.5 494.6L372.5 494.6L383.5 495.4L394.6 495.7L405.6 495.8L416.6 495.7L427.6 496.1L438.7 496.2L449.7 496L460.7 495.4L471.8 495.3L482.8 495.1L493.8 495L504.9 494.8L515.9 494.1L526.9 493.7L538 493.7L549 493.4L560 491.8L571.1 490.3L582.1 490.7L593.1 489.9L604.2 489.1L615.2 485.9L626.2 484.5L637.2 490.8L648.3 490.6L659.3 487.9"></path><g id="polyline"><polyline id="polyline" points="85.70,492.40 96.70,492.00 107.70,491.00 118.80,491.00 129.80,490.00 140.80,489.40 151.90,488.90 162.90,488.40 173.90,487.20 185.00,489.70 196.00,489.60 207.00,490.00 218.00,490.40 229.10,490.30 240.10,489.90 251.10,486.20 262.20,485.70 273.20,486.50 284.20,486.20 295.30,486.30 306.30,487.10 317.30,491.20 328.40,493.80 339.40,494.20 350.40,494.70 361.50,494.60 372.50,494.60 383.50,495.40 394.60,495.70 405.60,495.80 416.60,495.70 427.60,496.10 438.70,496.20 449.70,496.00 460.70,495.40 471.80,495.30 482.80,495.10 493.80,495.00 504.90,494.80 515.90,494.10 526.90,493.70 538.00,493.70 549.00,493.40 560.00,491.80 571.10,490.30 582.10,490.70 593.10,489.90 604.20,489.10 615.20,485.90 626.20,484.50 637.20,490.80 648.30,490.60 659.30,487.90" stroke-linejoin="round" stroke-width="1.5" stroke="#286BBB" fill="none" stroke-linecap="butt"></polyline></g></g></g></g></g></g><g id="footer" class="SourcesFooter" style="fill:#5b5b5b"><g id="sources" class="markdown-text-wrap"><text x="16.0" y="546.5" style="font-size:13.5px;line-height:1.2"><tspan x="16" y="546.5"><tspan style="font-weight:700">Data source:</tspan> USGS - Mineral Commodity Summaries (2024); BGS - World Mineral Statistics (2023)</tspan></text></g><g id="note" class="markdown-text-wrap"><text x="16.0" y="564.7" style="font-size:13.5px;line-height:1.2"><tspan x="16" y="564.7"><tspan style="font-weight:700">Note:</tspan> Values are reported in tonnes of gross weight of marketable chromite ore. The sum of all countries may exceed World data on</tspan><tspan x="16" y="580.9">certain years (by up to 10%), due to discrepancies between data sources.</tspan></text></g><text id="origin-url" font-size="13.50" x="792.7" y="546.5"><tspan x="792.69" y="546.495"><a target="_blank" style="fill: #5b5b5b;" href="https://creativecommons.org/licenses/by/4.0/">CC BY</a></tspan></text></g><line id="separator-line" x1="16" y1="600" x2="834" y2="600" stroke="#e7e7e7"></line><g id="details" transform="translate(15, 616)"><g class="markdown-text-wrap"><text x="0.0" y="12.0" style="font-size:12.375px;fill:#5b5b5b;line-height:1.2"><tspan x="0" y="12.0"><tspan style="font-weight:700">1.</tspan> <tspan style="font-weight:700">Refined production</tspan>: Refined production is the process of taking raw materials, such as metals extracted from ores, and purifying them to achieve</tspan><tspan x="0" y="26.9">a higher quality or more usable form. After metals are initially extracted from ore through processes like smelting, they often contain impurities or are</tspan><tspan x="0" y="41.7">not in the ideal form for manufacturing. Refining involves further processing these metals to remove impurities and adjust their composition to meet</tspan><tspan x="0" y="56.6">specific standards. Refined production is essential for transforming raw materials into high-quality metals that are crucial for industries and</tspan><tspan x="0" y="71.4">consumers, from manufacturing electronics to constructing buildings.</tspan></text></g></g></svg>