<svg xmlns="http://www.w3.org/2000/svg" version="1.1" style="font-family:Lato, &#x27;Helvetica Neue&#x27;, Helvetica, Arial, &#x27;Liberation Sans&#x27;, sans-serif;font-size:18px;background-color:white;text-rendering:geometricPrecision;-webkit-font-smoothing:antialiased" width="850" height="600" viewBox="0 0 850 600"><defs><style>@import url(https://ourworldindata.org/fonts.css)</style></defs><defs><pattern id="noDataPattern" patternUnits="userSpaceOnUse" width="4" height="4" patternTransform="rotate(-45 2 2)"><path d="M -1,2 l 6,0" stroke="#ccc" stroke-width="0.7"></path></pattern></defs><rect class="background-fill" fill="white" width="850" height="600"></rect><g id="header" class="HeaderView"><g id="logo" transform="translate(769, 16) scale(1)"><svg className="owidLogo" xmlns="http://www.w3.org/2000/svg" width="65" height="36" viewBox="0 0 65 36"  fill="none"><path fill="#002147" d="M0 0h64.8v36H0z"/><path fill="#CE261E" d="M0 33.3h64.8V36H0z"/><path fill="#fff" d="M13.796 10.575c0 .636-.106 1.226-.318 1.77a4.193 4.193 0 0 1-.894 1.404 4.084 4.084 0 0 1-1.386.93c-.54.22-1.138.33-1.794.33-.656 0-1.256-.11-1.8-.33a4.149 4.149 0 0 1-1.392-.93 4.193 4.193 0 0 1-.894-1.404A4.833 4.833 0 0 1 5 10.575c0-.636.106-1.224.318-1.764a4.18 4.18 0 0 1 .894-1.41 4.076 4.076 0 0 1 1.392-.924 4.684 4.684 0 0 1 1.8-.336c.656 0 1.254.112 1.794.336.54.224 1.002.534 1.386.93.384.392.682.86.894 1.404.212.54.318 1.128.318 1.764Zm-1.656 0c0-.476-.064-.902-.192-1.278a2.671 2.671 0 0 0-.54-.966 2.332 2.332 0 0 0-.864-.606 2.94 2.94 0 0 0-1.14-.21c-.424 0-.806.07-1.146.21-.34.14-.63.342-.87.606a2.742 2.742 0 0 0-.546.966 3.955 3.955 0 0 0-.192 1.278c0 .476.064.904.192 1.284.128.376.31.696.546.96.24.26.53.46.87.6.34.14.722.21 1.146.21.424 0 .804-.07 1.14-.21.34-.14.628-.34.864-.6.236-.264.416-.584.54-.96a4.01 4.01 0 0 0 .192-1.284ZM16.104 8.757v3.912c0 .376.086.668.258.876.176.204.438.306.786.306.256 0 .496-.056.72-.168a2.58 2.58 0 0 0 .636-.474V8.757h1.482v6.156h-.906c-.192 0-.318-.09-.378-.27l-.102-.492a4.65 4.65 0 0 1-.396.354 2.577 2.577 0 0 1-.438.27 2.35 2.35 0 0 1-.498.168 2.345 2.345 0 0 1-.57.066c-.336 0-.634-.056-.894-.168a1.821 1.821 0 0 1-.648-.486 2.157 2.157 0 0 1-.402-.738 3.233 3.233 0 0 1-.132-.948V8.757h1.482ZM21.328 14.913V8.757h.87c.152 0 .258.028.318.084.06.056.1.152.12.288l.09.744c.22-.38.478-.68.774-.9.296-.22.628-.33.996-.33.304 0 .556.07.756.21l-.192 1.11c-.012.072-.038.124-.078.156a.278.278 0 0 1-.162.042 1.01 1.01 0 0 1-.246-.042 1.646 1.646 0 0 0-.414-.042c-.308 0-.572.086-.792.258-.22.168-.406.416-.558.744v3.834h-1.482ZM27.347 6.237h1.356a.57.57 0 0 1 .348.102c.096.064.16.152.192.264l1.476 5.19c.036.128.068.268.096.42.032.148.062.306.09.474a5.968 5.968 0 0 1 .228-.894l1.704-5.19a.575.575 0 0 1 .186-.252.543.543 0 0 1 .348-.114h.474a.57.57 0 0 1 .348.102.497.497 0 0 1 .192.264l1.692 5.19c.088.256.164.54.228.852.028-.156.056-.306.084-.45.032-.144.064-.278.096-.402l1.476-5.19c.028-.1.09-.186.186-.258a.563.563 0 0 1 .348-.108h1.266l-2.694 8.676h-1.458l-1.896-5.928-.078-.246a9.504 9.504 0 0 1-.072-.282c-.024.1-.05.194-.078.282-.024.088-.048.17-.072.246l-1.914 5.928H30.04l-2.694-8.676ZM42.771 8.661c.46 0 .876.074 1.248.222.376.148.696.358.96.63s.468.604.612.996c.144.392.216.83.216 1.314 0 .488-.072.928-.216 1.32a2.85 2.85 0 0 1-.612 1.002 2.653 2.653 0 0 1-.96.636 3.35 3.35 0 0 1-1.248.222c-.46 0-.878-.074-1.254-.222a2.712 2.712 0 0 1-.966-.636 2.922 2.922 0 0 1-.618-1.002 3.807 3.807 0 0 1-.216-1.32c0-.484.072-.922.216-1.314.148-.392.354-.724.618-.996.268-.272.59-.482.966-.63a3.397 3.397 0 0 1 1.254-.222Zm0 5.202c.512 0 .89-.172 1.134-.516.248-.344.372-.848.372-1.512s-.124-1.17-.372-1.518c-.244-.348-.622-.522-1.134-.522-.52 0-.904.176-1.152.528-.248.348-.372.852-.372 1.512s.124 1.164.372 1.512c.248.344.632.516 1.152.516ZM46.723 14.913V8.757h.87c.152 0 .258.028.318.084.06.056.1.152.12.288l.09.744c.22-.38.478-.68.774-.9.296-.22.628-.33.996-.33.304 0 .556.07.756.21l-.192 1.11c-.012.072-.038.124-.078.156a.278.278 0 0 1-.162.042 1.01 1.01 0 0 1-.246-.042 1.646 1.646 0 0 0-.414-.042c-.308 0-.572.086-.792.258-.22.168-.406.416-.558.744v3.834h-1.482ZM52.96 5.997v8.916h-1.482V5.997h1.482ZM58.732 14.913c-.192 0-.318-.09-.378-.27l-.12-.594a3.68 3.68 0 0 1-.402.39c-.14.116-.292.216-.456.3-.16.084-.334.148-.522.192a2.372 2.372 0 0 1-.6.072c-.336 0-.644-.07-.924-.21a2.098 2.098 0 0 1-.726-.606 3.033 3.033 0 0 1-.468-.99 5.072 5.072 0 0 1-.162-1.344c0-.456.062-.88.186-1.272s.302-.732.534-1.02c.232-.288.51-.512.834-.672a2.384 2.384 0 0 1 1.092-.246 2.103 2.103 0 0 1 1.536.606V5.997h1.482v8.916h-.906Zm-1.974-1.086c.308 0 .57-.064.786-.192.216-.128.42-.31.612-.546v-2.76a1.452 1.452 0 0 0-.552-.432 1.597 1.597 0 0 0-.636-.126c-.224 0-.428.042-.612.126a1.21 1.21 0 0 0-.462.384c-.124.168-.22.384-.288.648-.068.26-.102.568-.102.924 0 .36.028.666.084.918.06.248.144.452.252.612.108.156.24.27.396.342.156.068.33.102.522.102ZM16.331 20.757v6.156H14.85v-6.156h1.481Zm.223-1.794a.844.844 0 0 1-.078.36.963.963 0 0 1-.21.294.995.995 0 0 1-.3.204.963.963 0 0 1-.372.072.948.948 0 0 1-.367-.072 1.018 1.018 0 0 1-.498-.498.963.963 0 0 1 0-.732.995.995 0 0 1 .205-.3.929.929 0 0 1 .293-.198.899.899 0 0 1 .738 0 .912.912 0 0 1 .3.198.943.943 0 0 1 .288.672ZM17.771 26.913v-6.156h.906c.192 0 .318.09.378.27l.102.486a2.934 2.934 0 0 1 .828-.618c.156-.076.322-.134.498-.174.176-.04.368-.06.576-.06.336 0 .634.058.894.174.26.112.476.272.648.48.176.204.308.45.396.738.092.284.138.598.138.942v3.918h-1.482v-3.918c0-.376-.088-.666-.264-.87-.172-.208-.432-.312-.78-.312-.256 0-.496.058-.72.174a2.58 2.58 0 0 0-.636.474v4.452h-1.482ZM34.22 22.575c0 .636-.106 1.22-.318 1.752-.212.532-.51.99-.894 1.374a4 4 0 0 1-1.386.894 4.87 4.87 0 0 1-1.794.318h-3.312v-8.676h3.312a4.79 4.79 0 0 1 1.794.324 4 4 0 0 1 1.386.894c.384.38.682.836.894 1.368.212.532.318 1.116.318 1.752Zm-1.65 0c0-.476-.064-.902-.192-1.278a2.68 2.68 0 0 0-.546-.96 2.332 2.332 0 0 0-.864-.606 2.94 2.94 0 0 0-1.14-.21h-1.686v6.108h1.686c.424 0 .804-.07 1.14-.21.34-.14.628-.34.864-.6a2.75 2.75 0 0 0 .546-.96 4.01 4.01 0 0 0 .192-1.284ZM39.98 26.913h-.665c-.14 0-.25-.02-.33-.06-.08-.044-.14-.13-.18-.258l-.132-.438c-.156.14-.31.264-.462.372a2.804 2.804 0 0 1-.462.264c-.16.072-.33.126-.51.162-.18.036-.38.054-.6.054-.26 0-.5-.034-.72-.102a1.618 1.618 0 0 1-.57-.318 1.448 1.448 0 0 1-.366-.522 1.852 1.852 0 0 1-.132-.726c0-.232.06-.46.18-.684.124-.228.328-.432.612-.612.284-.184.662-.336 1.134-.456.472-.12 1.058-.188 1.758-.204v-.36c0-.412-.088-.716-.264-.912-.172-.2-.424-.3-.756-.3a1.837 1.837 0 0 0-1.02.276c-.116.068-.224.13-.324.186a.664.664 0 0 1-.33.084.429.429 0 0 1-.258-.078.614.614 0 0 1-.174-.192l-.27-.474c.708-.648 1.562-.972 2.562-.972.36 0 .68.06.96.18.284.116.524.28.72.492.196.208.344.458.444.75.104.292.156.612.156.96v3.888Zm-2.88-.924c.153 0 .293-.014.42-.042.129-.028.249-.07.36-.126.117-.056.227-.124.33-.204.109-.084.217-.182.325-.294v-1.038c-.432.02-.794.058-1.086.114-.288.052-.52.12-.696.204a.923.923 0 0 0-.378.294.664.664 0 0 0-.108.366c0 .26.076.446.228.558.156.112.358.168.606.168ZM43.22 27.01c-.532 0-.942-.15-1.23-.45-.288-.305-.432-.723-.432-1.255v-3.438h-.624a.31.31 0 0 1-.21-.078c-.056-.052-.084-.13-.084-.234v-.588l.99-.162.312-1.68a.302.302 0 0 1 .108-.186.365.365 0 0 1 .222-.066h.768v1.938h1.62v1.056h-1.62v3.336c0 .192.048.342.144.45a.488.488 0 0 0 .384.162c.092 0 .168-.01.228-.03.064-.024.118-.048.162-.072.048-.024.09-.046.126-.066a.194.194 0 0 1 .108-.036.16.16 0 0 1 .108.036c.028.02.058.052.09.096l.444.72c-.216.18-.464.316-.744.408a2.77 2.77 0 0 1-.87.138ZM50.423 26.913h-.666c-.14 0-.25-.02-.33-.06-.08-.044-.14-.13-.18-.258l-.132-.438c-.156.14-.31.264-.462.372a2.804 2.804 0 0 1-.462.264c-.16.072-.33.126-.51.162-.18.036-.38.054-.6.054-.26 0-.5-.034-.72-.102a1.618 1.618 0 0 1-.57-.318 1.448 1.448 0 0 1-.366-.522 1.852 1.852 0 0 1-.132-.726c0-.232.06-.46.18-.684.124-.228.328-.432.612-.612.284-.184.662-.336 1.134-.456.472-.12 1.058-.188 1.758-.204v-.36c0-.412-.088-.716-.264-.912-.172-.2-.424-.3-.756-.3a1.837 1.837 0 0 0-1.02.276c-.116.068-.224.13-.324.186a.664.664 0 0 1-.33.084.429.429 0 0 1-.258-.078.614.614 0 0 1-.174-.192l-.27-.474c.708-.648 1.562-.972 2.562-.972.36 0 .68.06.96.18.284.116.524.28.72.492.196.208.344.458.444.75.104.292.156.612.156.96v3.888Zm-2.88-.924c.152 0 .292-.014.42-.042.128-.028.248-.07.36-.126.116-.056.226-.124.33-.204.108-.084.216-.182.324-.294v-1.038c-.432.02-.794.058-1.086.114-.288.052-.52.12-.696.204a.923.923 0 0 0-.378.294.664.664 0 0 0-.108.366c0 .26.076.446.228.558.156.112.358.168.606.168Z"/></svg></g><a id="title" href="https://ourworldindata.org/explorers/minerals?Mineral=Magnesium+metal&amp;Metric=Unit+value&amp;Type=Mine%2C+iron+content&amp;Share+of+global=false&amp;country=AUS~CHL~CHN~USA~CAN~ALB~DZA~ARG~ARM~AUT~AZE~BOL~OWID_WRL~BWA~BRA~BGR~COL~COG~CUB~CYP~OWID_CZS~COD~DOM~OWID_GDR~ZWE~ZMB~OWID_YGS~OWID_GFR~VNM~UZB~GBR~UGA~OWID_USS~TUR~TZA~TJK~TWN~SWE~ESP~KOR~ZAF~SVK~OWID_SRM~SRB~SAU~RUS~ROU~PRT~POL~PHL~PER~PNG~PAN~PAK~OMN~NOR~MKD~PRK~NIC~NZL~NAM~MMR~MOZ~MAR~MNG~MEX~MRT~MYS~LAO~KGZ~KEN~KAZ~JPN~ITA~ISR~IRL~IRN~IDN~IND~HUN~HND~HTI~GTM~GRC~DEU~GEO~FRA~FIN~ERI~ECU~VEN~ARE~UKR~CHE~SUR~LKA~SVN~QAT~NGA~NLD~MNE~ISL~GHA~EGY~HRV~CMR~BIH~BHR~AFG~OWID_KOS~MDG~NCL~SDN~Other~CZE~THA~TUN" style="font-family:&#x27;Playfair Display&#x27;, Georgia, &#x27;Times New Roman&#x27;, &#x27;Liberation Serif&#x27;, serif" target="_blank" rel="noopener"><text font-size="24.75" font-weight="600" x="16.0" y="40.0" fill="#5b5b5b"><tspan x="16" y="40.0075">Magnesium metal unit value, 1915 to 2022</tspan></text></a><g id="subtitle" class="markdown-text-wrap"><text x="16.0" y="63.9" style="font-size:14.625px;line-height:1.2" fill="#5b5b5b"><tspan x="16" y="63.9">Value of 1 tonne of magnesium metal, in constant 1998 US$ per tonne.</tspan></text></g></g><g id="chart-area" style="pointer-events:none"><g id="line-chart" class="LineChart"><defs><clipPath id="boundsClip-64"><rect x="79.04" y="73.25" width="838" height="470.35"></rect></clipPath></defs><rect x="16" y="83.25" width="818" height="450.35" fill="none"></rect><g id="dual-axis" class="DualAxisView"><g id="horizontal-axis" class="HorizontalAxis"><g id="tick__1915"><line x1="89" y1="512.6" x2="89" y2="518.1" stroke="#999" stroke-width="1"></line><text x="89.04" y="531.6" fill="#5b5b5b" text-anchor="start" font-size="13.5">1915</text></g><g id="tick__2022"><line x1="763.8" y1="512.6" x2="763.8" y2="518.1" stroke="#999" stroke-width="1"></line><text x="763.765" y="531.6" fill="#5b5b5b" text-anchor="end" font-size="13.5">2022</text></g><g id="tick__1940"><line x1="246.7" y1="512.6" x2="246.7" y2="518.1" stroke="#999" stroke-width="1"></line><text x="246.7" y="531.6" fill="#5b5b5b" text-anchor="middle" font-size="13.5">1940</text></g><g id="tick__1960"><line x1="372.8" y1="512.6" x2="372.8" y2="518.1" stroke="#999" stroke-width="1"></line><text x="372.8" y="531.6" fill="#5b5b5b" text-anchor="middle" font-size="13.5">1960</text></g><g id="tick__1980"><line x1="498.9" y1="512.6" x2="498.9" y2="518.1" stroke="#999" stroke-width="1"></line><text x="498.9" y="531.6" fill="#5b5b5b" text-anchor="middle" font-size="13.5">1980</text></g><g id="tick__2000"><line x1="625" y1="512.6" x2="625" y2="518.1" stroke="#999" stroke-width="1"></line><text x="625" y="531.6" fill="#5b5b5b" text-anchor="middle" font-size="13.5">2000</text></g></g><g id="vertical-axis" class="VerticalAxis"><g id="tick-labels"><text id="tick-label__0-__0024__002ft" x="84.04" y="513.1" dy=".32em" text-anchor="end" fill="#5b5b5b" font-size="13.5">0 $/t</text><text id="tick-label__20__002c000-__0024__002ft" x="84.04" y="465.7" dy=".32em" text-anchor="end" fill="#5b5b5b" font-size="13.5">20,000 $/t</text><text id="tick-label__40__002c000-__0024__002ft" x="84.04" y="418.4" dy=".32em" text-anchor="end" fill="#5b5b5b" font-size="13.5">40,000 $/t</text><text id="tick-label__60__002c000-__0024__002ft" x="84.04" y="371" dy=".32em" text-anchor="end" fill="#5b5b5b" font-size="13.5">60,000 $/t</text><text id="tick-label__80__002c000-__0024__002ft" x="84.04" y="323.7" dy=".32em" text-anchor="end" fill="#5b5b5b" font-size="13.5">80,000 $/t</text><text id="tick-label__100__002c000-__0024__002ft" x="84.04" y="276.3" dy=".32em" text-anchor="end" fill="#5b5b5b" font-size="13.5">100,000 $/t</text><text id="tick-label__120__002c000-__0024__002ft" x="84.04" y="229" dy=".32em" text-anchor="end" fill="#5b5b5b" font-size="13.5">120,000 $/t</text><text id="tick-label__140__002c000-__0024__002ft" x="84.04" y="181.6" dy=".32em" text-anchor="end" fill="#5b5b5b" font-size="13.5">140,000 $/t</text><text id="tick-label__160__002c000-__0024__002ft" x="84.04" y="134.2" dy=".32em" text-anchor="end" fill="#5b5b5b" font-size="13.5">160,000 $/t</text></g></g><g id="horizontal-grid-lines" class="AxisGridLines horizontalLines"><line id="grid-line__0" x1="89.04" y1="513.1" x2="763.76" y2="513.1" stroke="#999" stroke-width="1"></line><line id="grid-line__20000" x1="89.04" y1="465.7" x2="763.76" y2="465.7" stroke="#ddd" stroke-width="1" stroke-dasharray="3,2"></line><line id="grid-line__40000" x1="89.04" y1="418.4" x2="763.76" y2="418.4" stroke="#ddd" stroke-width="1" stroke-dasharray="3,2"></line><line id="grid-line__60000" x1="89.04" y1="371" x2="763.76" y2="371" stroke="#ddd" stroke-width="1" stroke-dasharray="3,2"></line><line id="grid-line__80000" x1="89.04" y1="323.7" x2="763.76" y2="323.7" stroke="#ddd" stroke-width="1" stroke-dasharray="3,2"></line><line id="grid-line__100000" x1="89.04" y1="276.3" x2="763.76" y2="276.3" stroke="#ddd" stroke-width="1" stroke-dasharray="3,2"></line><line id="grid-line__120000" x1="89.04" y1="229" x2="763.76" y2="229" stroke="#ddd" stroke-width="1" stroke-dasharray="3,2"></line><line id="grid-line__140000" x1="89.04" y1="181.6" x2="763.76" y2="181.6" stroke="#ddd" stroke-width="1" stroke-dasharray="3,2"></line><line id="grid-line__160000" x1="89.04" y1="134.2" x2="763.76" y2="134.2" stroke="#ddd" stroke-width="1" stroke-dasharray="3,2"></line></g></g><g clip-path="url(#boundsClip-64)"><g id="line-labels" class="LineLabels"><g id="mark__World" class="legendMark" style="cursor:default"><rect id="background" x="763.765" y="488.85" width="70.235" height="13.5" fill="#fff" opacity="0"></rect><text id="label" font-size="13.50" font-weight="400" x="767.8" y="500.6" fill="#c15065"><tspan x="767.765" y="500.595">World</tspan></text></g></g><g id="lines" class="Lines"><rect x="89" y="89" width="675" height="424" fill="rgba(255,255,255,0)" opacity="0"></rect><g id="line__World"><path stroke-linecap="round" stroke-linejoin="round" stroke="#ddd" d="M89 89.3L95.3 191.1L101.7 378.8L108 411L114.3 423.1L120.6 445.1L126.9 437.1L133.2 431.9L139.5 450.8L145.8 459.8L152.1 471L158.4 475L164.7 479.9L171 485.9L177.3 484.7L183.6 488.5L189.9 496.3L196.2 495.1L202.5 494.8L208.9 496.6L215.2 497L221.5 497.2L227.8 495.4L234.1 495L240.4 494.7L246.7 496.7L253 499.8L259.3 501.1L265.6 502.8L271.9 502.9L278.2 503.1L284.5 504L290.8 505.1L297.1 505.7L303.4 505.6L309.7 504.3L316.1 505L322.4 504.5L328.7 504.5L335 504.2L341.3 502.8L347.6 502.1L353.9 502.1L360.2 502.4L366.5 502.5L372.8 502.7L379.1 502.8L385.4 502.9L391.7 503L398 503.1L404.3 503.3L410.6 503.6L416.9 503.9L423.2 504.2L429.6 504.7L435.9 505.1L442.2 505.5L448.5 505.5L454.8 505.8L461.1 500.2L467.4 500.1L473.7 499.3L480 499.2L486.3 499.9L492.6 500.3L498.9 500.2L505.2 500.6L511.5 500.7L517.8 501.3L524.1 501L530.4 501L536.8 501.2L543.1 501.6L549.4 501.4L555.7 501.9L562 503.8L568.3 504.2L574.6 504L580.9 504.5L587.2 503.7L593.5 501.4L599.8 503.6L606.1 504.3L612.4 504.9L618.7 505.6L625 506.8L631.3 507.1L637.6 507.6L644 507.9L650.3 506L656.6 507.8L662.9 507.2L669.2 503.9L675.5 500.6L681.8 504L688.1 503.6L694.4 505L700.7 505L707 505.4L713.3 505.4L719.6 505.4L725.9 505.5L732.2 505.6L738.5 505.5L744.8 503.8L751.2 505.5L757.5 492.5L763.8 495.6" fill="none" stroke-width="1"></path></g><g id="line__World"><path id="outline" fill="none" stroke-linecap="butt" stroke-linejoin="round" stroke="#fff" stroke-width="2.5" d="M89 89.3L95.3 191.1L101.7 378.8L108 411L114.3 423.1L120.6 445.1L126.9 437.1L133.2 431.9L139.5 450.8L145.8 459.8L152.1 471L158.4 475L164.7 479.9L171 485.9L177.3 484.7L183.6 488.5L189.9 496.3L196.2 495.1L202.5 494.8L208.9 496.6L215.2 497L221.5 497.2L227.8 495.4L234.1 495L240.4 494.7L246.7 496.7L253 499.8L259.3 501.1L265.6 502.8L271.9 502.9L278.2 503.1L284.5 504L290.8 505.1L297.1 505.7L303.4 505.6L309.7 504.3L316.1 505L322.4 504.5L328.7 504.5L335 504.2L341.3 502.8L347.6 502.1L353.9 502.1L360.2 502.4L366.5 502.5L372.8 502.7L379.1 502.8L385.4 502.9L391.7 503L398 503.1L404.3 503.3L410.6 503.6L416.9 503.9L423.2 504.2L429.6 504.7L435.9 505.1L442.2 505.5L448.5 505.5L454.8 505.8L461.1 500.2L467.4 500.1L473.7 499.3L480 499.2L486.3 499.9L492.6 500.3L498.9 500.2L505.2 500.6L511.5 500.7L517.8 501.3L524.1 501L530.4 501L536.8 501.2L543.1 501.6L549.4 501.4L555.7 501.9L562 503.8L568.3 504.2L574.6 504L580.9 504.5L587.2 503.7L593.5 501.4L599.8 503.6L606.1 504.3L612.4 504.9L618.7 505.6L625 506.8L631.3 507.1L637.6 507.6L644 507.9L650.3 506L656.6 507.8L662.9 507.2L669.2 503.9L675.5 500.6L681.8 504L688.1 503.6L694.4 505L700.7 505L707 505.4L713.3 505.4L719.6 505.4L725.9 505.5L732.2 505.6L738.5 505.5L744.8 503.8L751.2 505.5L757.5 492.5L763.8 495.6"></path><g id="polyline"><polyline id="polyline" points="89.00,89.30 95.30,191.10 101.70,378.80 108.00,411.00 114.30,423.10 120.60,445.10 126.90,437.10 133.20,431.90 139.50,450.80 145.80,459.80 152.10,471.00 158.40,475.00 164.70,479.90 171.00,485.90 177.30,484.70 183.60,488.50 189.90,496.30 196.20,495.10 202.50,494.80 208.90,496.60 215.20,497.00 221.50,497.20 227.80,495.40 234.10,495.00 240.40,494.70 246.70,496.70 253.00,499.80 259.30,501.10 265.60,502.80 271.90,502.90 278.20,503.10 284.50,504.00 290.80,505.10 297.10,505.70 303.40,505.60 309.70,504.30 316.10,505.00 322.40,504.50 328.70,504.50 335.00,504.20 341.30,502.80 347.60,502.10 353.90,502.10 360.20,502.40 366.50,502.50 372.80,502.70 379.10,502.80 385.40,502.90 391.70,503.00 398.00,503.10 404.30,503.30 410.60,503.60 416.90,503.90 423.20,504.20 429.60,504.70 435.90,505.10 442.20,505.50 448.50,505.50 454.80,505.80 461.10,500.20 467.40,500.10 473.70,499.30 480.00,499.20 486.30,499.90 492.60,500.30 498.90,500.20 505.20,500.60 511.50,500.70 517.80,501.30 524.10,501.00 530.40,501.00 536.80,501.20 543.10,501.60 549.40,501.40 555.70,501.90 562.00,503.80 568.30,504.20 574.60,504.00 580.90,504.50 587.20,503.70 593.50,501.40 599.80,503.60 606.10,504.30 612.40,504.90 618.70,505.60 625.00,506.80 631.30,507.10 637.60,507.60 644.00,507.90 650.30,506.00 656.60,507.80 662.90,507.20 669.20,503.90 675.50,500.60 681.80,504.00 688.10,503.60 694.40,505.00 700.70,505.00 707.00,505.40 713.30,505.40 719.60,505.40 725.90,505.50 732.20,505.60 738.50,505.50 744.80,503.80 751.20,505.50 757.50,492.50 763.80,495.60" stroke-linejoin="round" stroke-width="1.5" stroke="#C15065" fill="none" stroke-linecap="butt"></polyline></g><g id="markers"><circle cx="89" cy="89.3" r="1.8" fill="#C15065"></circle><circle cx="95.3" cy="191.1" r="1.8" fill="#C15065"></circle><circle cx="101.7" cy="378.8" r="1.8" fill="#C15065"></circle><circle cx="108" cy="411" r="1.8" fill="#C15065"></circle><circle cx="114.3" cy="423.1" r="1.8" fill="#C15065"></circle><circle cx="120.6" cy="445.1" r="1.8" fill="#C15065"></circle><circle cx="126.9" cy="437.1" r="1.8" fill="#C15065"></circle><circle cx="133.2" cy="431.9" r="1.8" fill="#C15065"></circle><circle cx="139.5" cy="450.8" r="1.8" fill="#C15065"></circle><circle cx="145.8" cy="459.8" r="1.8" fill="#C15065"></circle><circle cx="152.1" cy="471" r="1.8" fill="#C15065"></circle><circle cx="158.4" cy="475" r="1.8" fill="#C15065"></circle><circle cx="164.7" cy="479.9" r="1.8" fill="#C15065"></circle><circle cx="171" cy="485.9" r="1.8" fill="#C15065"></circle><circle cx="177.3" cy="484.7" r="1.8" fill="#C15065"></circle><circle cx="183.6" cy="488.5" r="1.8" fill="#C15065"></circle><circle cx="189.9" cy="496.3" r="1.8" fill="#C15065"></circle><circle cx="196.2" cy="495.1" r="1.8" fill="#C15065"></circle><circle cx="202.5" cy="494.8" r="1.8" fill="#C15065"></circle><circle cx="208.9" cy="496.6" r="1.8" fill="#C15065"></circle><circle cx="215.2" cy="497" r="1.8" fill="#C15065"></circle><circle cx="221.5" cy="497.2" r="1.8" fill="#C15065"></circle><circle cx="227.8" cy="495.4" r="1.8" fill="#C15065"></circle><circle cx="234.1" cy="495" r="1.8" fill="#C15065"></circle><circle cx="240.4" cy="494.7" r="1.8" fill="#C15065"></circle><circle cx="246.7" cy="496.7" r="1.8" fill="#C15065"></circle><circle cx="253" cy="499.8" r="1.8" fill="#C15065"></circle><circle cx="259.3" cy="501.1" r="1.8" fill="#C15065"></circle><circle cx="265.6" cy="502.8" r="1.8" fill="#C15065"></circle><circle cx="271.9" cy="502.9" r="1.8" fill="#C15065"></circle><circle cx="278.2" cy="503.1" r="1.8" fill="#C15065"></circle><circle cx="284.5" cy="504" r="1.8" fill="#C15065"></circle><circle cx="290.8" cy="505.1" r="1.8" fill="#C15065"></circle><circle cx="297.1" cy="505.7" r="1.8" fill="#C15065"></circle><circle cx="303.4" cy="505.6" r="1.8" fill="#C15065"></circle><circle cx="309.7" cy="504.3" r="1.8" fill="#C15065"></circle><circle cx="316.1" cy="505" r="1.8" fill="#C15065"></circle><circle cx="322.4" cy="504.5" r="1.8" fill="#C15065"></circle><circle cx="328.7" cy="504.5" r="1.8" fill="#C15065"></circle><circle cx="335" cy="504.2" r="1.8" fill="#C15065"></circle><circle cx="341.3" cy="502.8" r="1.8" fill="#C15065"></circle><circle cx="347.6" cy="502.1" r="1.8" fill="#C15065"></circle><circle cx="353.9" cy="502.1" r="1.8" fill="#C15065"></circle><circle cx="360.2" cy="502.4" r="1.8" fill="#C15065"></circle><circle cx="366.5" cy="502.5" r="1.8" fill="#C15065"></circle><circle cx="372.8" cy="502.7" r="1.8" fill="#C15065"></circle><circle cx="379.1" cy="502.8" r="1.8" fill="#C15065"></circle><circle cx="385.4" cy="502.9" r="1.8" fill="#C15065"></circle><circle cx="391.7" cy="503" r="1.8" fill="#C15065"></circle><circle cx="398" cy="503.1" r="1.8" fill="#C15065"></circle><circle cx="404.3" cy="503.3" r="1.8" fill="#C15065"></circle><circle cx="410.6" cy="503.6" r="1.8" fill="#C15065"></circle><circle cx="416.9" cy="503.9" r="1.8" fill="#C15065"></circle><circle cx="423.2" cy="504.2" r="1.8" fill="#C15065"></circle><circle cx="429.6" cy="504.7" r="1.8" fill="#C15065"></circle><circle cx="435.9" cy="505.1" r="1.8" fill="#C15065"></circle><circle cx="442.2" cy="505.5" r="1.8" fill="#C15065"></circle><circle cx="448.5" cy="505.5" r="1.8" fill="#C15065"></circle><circle cx="454.8" cy="505.8" r="1.8" fill="#C15065"></circle><circle cx="461.1" cy="500.2" r="1.8" fill="#C15065"></circle><circle cx="467.4" cy="500.1" r="1.8" fill="#C15065"></circle><circle cx="473.7" cy="499.3" r="1.8" fill="#C15065"></circle><circle cx="480" cy="499.2" r="1.8" fill="#C15065"></circle><circle cx="486.3" cy="499.9" r="1.8" fill="#C15065"></circle><circle cx="492.6" cy="500.3" r="1.8" fill="#C15065"></circle><circle cx="498.9" cy="500.2" r="1.8" fill="#C15065"></circle><circle cx="505.2" cy="500.6" r="1.8" fill="#C15065"></circle><circle cx="511.5" cy="500.7" r="1.8" fill="#C15065"></circle><circle cx="517.8" cy="501.3" r="1.8" fill="#C15065"></circle><circle cx="524.1" cy="501" r="1.8" fill="#C15065"></circle><circle cx="530.4" cy="501" r="1.8" fill="#C15065"></circle><circle cx="536.8" cy="501.2" r="1.8" fill="#C15065"></circle><circle cx="543.1" cy="501.6" r="1.8" fill="#C15065"></circle><circle cx="549.4" cy="501.4" r="1.8" fill="#C15065"></circle><circle cx="555.7" cy="501.9" r="1.8" fill="#C15065"></circle><circle cx="562" cy="503.8" r="1.8" fill="#C15065"></circle><circle cx="568.3" cy="504.2" r="1.8" fill="#C15065"></circle><circle cx="574.6" cy="504" r="1.8" fill="#C15065"></circle><circle cx="580.9" cy="504.5" r="1.8" fill="#C15065"></circle><circle cx="587.2" cy="503.7" r="1.8" fill="#C15065"></circle><circle cx="593.5" cy="501.4" r="1.8" fill="#C15065"></circle><circle cx="599.8" cy="503.6" r="1.8" fill="#C15065"></circle><circle cx="606.1" cy="504.3" r="1.8" fill="#C15065"></circle><circle cx="612.4" cy="504.9" r="1.8" fill="#C15065"></circle><circle cx="618.7" cy="505.6" r="1.8" fill="#C15065"></circle><circle cx="625" cy="506.8" r="1.8" fill="#C15065"></circle><circle cx="631.3" cy="507.1" r="1.8" fill="#C15065"></circle><circle cx="637.6" cy="507.6" r="1.8" fill="#C15065"></circle><circle cx="644" cy="507.9" r="1.8" fill="#C15065"></circle><circle cx="650.3" cy="506" r="1.8" fill="#C15065"></circle><circle cx="656.6" cy="507.8" r="1.8" fill="#C15065"></circle><circle cx="662.9" cy="507.2" r="1.8" fill="#C15065"></circle><circle cx="669.2" cy="503.9" r="1.8" fill="#C15065"></circle><circle cx="675.5" cy="500.6" r="1.8" fill="#C15065"></circle><circle cx="681.8" cy="504" r="1.8" fill="#C15065"></circle><circle cx="688.1" cy="503.6" r="1.8" fill="#C15065"></circle><circle cx="694.4" cy="505" r="1.8" fill="#C15065"></circle><circle cx="700.7" cy="505" r="1.8" fill="#C15065"></circle><circle cx="707" cy="505.4" r="1.8" fill="#C15065"></circle><circle cx="713.3" cy="505.4" r="1.8" fill="#C15065"></circle><circle cx="719.6" cy="505.4" r="1.8" fill="#C15065"></circle><circle cx="725.9" cy="505.5" r="1.8" fill="#C15065"></circle><circle cx="732.2" cy="505.6" r="1.8" fill="#C15065"></circle><circle cx="738.5" cy="505.5" r="1.8" fill="#C15065"></circle><circle cx="744.8" cy="503.8" r="1.8" fill="#C15065"></circle><circle cx="751.2" cy="505.5" r="1.8" fill="#C15065"></circle><circle cx="757.5" cy="492.5" r="1.8" fill="#C15065"></circle><circle cx="763.8" cy="495.6" r="1.8" fill="#C15065"></circle></g></g></g></g></g></g><g id="footer" class="SourcesFooter" style="fill:#5b5b5b"><g id="sources" class="markdown-text-wrap"><text x="16.0" y="562.7" style="font-size:13.5px;line-height:1.2"><tspan x="16" y="562.7"><tspan style="font-weight:700">Data source:</tspan> USGS - Historical Statistics for Mineral and Material Commodities (2023)</tspan></text></g><g id="note" class="markdown-text-wrap"><text x="16.0" y="580.9" style="font-size:13.5px;line-height:1.2"><tspan x="16" y="580.9"><tspan style="font-weight:700">Note:</tspan> This data is adjusted for inflation.</tspan></text></g><text id="origin-url" font-size="13.50" x="792.7" y="562.7"><tspan x="792.69" y="562.695"><a target="_blank" style="fill: #5b5b5b;" href="https://creativecommons.org/licenses/by/4.0/">CC BY</a></tspan></text></g></svg>