<svg xmlns="http://www.w3.org/2000/svg" version="1.1" style="font-family:Lato, &#x27;Helvetica Neue&#x27;, Helvetica, Arial, &#x27;Liberation Sans&#x27;, sans-serif;font-size:18px;background-color:white;text-rendering:geometricPrecision;-webkit-font-smoothing:antialiased" width="850" height="706.25" viewBox="0 0 850 706.25"><defs><style>@import url(https://ourworldindata.org/fonts.css)</style></defs><defs><pattern id="noDataPattern" patternUnits="userSpaceOnUse" width="4" height="4" patternTransform="rotate(-45 2 2)"><path d="M -1,2 l 6,0" stroke="#ccc" stroke-width="0.7"></path></pattern></defs><rect class="background-fill" fill="white" width="850" height="706.25"></rect><g id="header" class="HeaderView"><g id="logo" transform="translate(769, 16) scale(1)"><svg className="owidLogo" xmlns="http://www.w3.org/2000/svg" width="65" height="36" viewBox="0 0 65 36"  fill="none"><path fill="#002147" d="M0 0h64.8v36H0z"/><path fill="#CE261E" d="M0 33.3h64.8V36H0z"/><path fill="#fff" d="M13.796 10.575c0 .636-.106 1.226-.318 1.77a4.193 4.193 0 0 1-.894 1.404 4.084 4.084 0 0 1-1.386.93c-.54.22-1.138.33-1.794.33-.656 0-1.256-.11-1.8-.33a4.149 4.149 0 0 1-1.392-.93 4.193 4.193 0 0 1-.894-1.404A4.833 4.833 0 0 1 5 10.575c0-.636.106-1.224.318-1.764a4.18 4.18 0 0 1 .894-1.41 4.076 4.076 0 0 1 1.392-.924 4.684 4.684 0 0 1 1.8-.336c.656 0 1.254.112 1.794.336.54.224 1.002.534 1.386.93.384.392.682.86.894 1.404.212.54.318 1.128.318 1.764Zm-1.656 0c0-.476-.064-.902-.192-1.278a2.671 2.671 0 0 0-.54-.966 2.332 2.332 0 0 0-.864-.606 2.94 2.94 0 0 0-1.14-.21c-.424 0-.806.07-1.146.21-.34.14-.63.342-.87.606a2.742 2.742 0 0 0-.546.966 3.955 3.955 0 0 0-.192 1.278c0 .476.064.904.192 1.284.128.376.31.696.546.96.24.26.53.46.87.6.34.14.722.21 1.146.21.424 0 .804-.07 1.14-.21.34-.14.628-.34.864-.6.236-.264.416-.584.54-.96a4.01 4.01 0 0 0 .192-1.284ZM16.104 8.757v3.912c0 .376.086.668.258.876.176.204.438.306.786.306.256 0 .496-.056.72-.168a2.58 2.58 0 0 0 .636-.474V8.757h1.482v6.156h-.906c-.192 0-.318-.09-.378-.27l-.102-.492a4.65 4.65 0 0 1-.396.354 2.577 2.577 0 0 1-.438.27 2.35 2.35 0 0 1-.498.168 2.345 2.345 0 0 1-.57.066c-.336 0-.634-.056-.894-.168a1.821 1.821 0 0 1-.648-.486 2.157 2.157 0 0 1-.402-.738 3.233 3.233 0 0 1-.132-.948V8.757h1.482ZM21.328 14.913V8.757h.87c.152 0 .258.028.318.084.06.056.1.152.12.288l.09.744c.22-.38.478-.68.774-.9.296-.22.628-.33.996-.33.304 0 .556.07.756.21l-.192 1.11c-.012.072-.038.124-.078.156a.278.278 0 0 1-.162.042 1.01 1.01 0 0 1-.246-.042 1.646 1.646 0 0 0-.414-.042c-.308 0-.572.086-.792.258-.22.168-.406.416-.558.744v3.834h-1.482ZM27.347 6.237h1.356a.57.57 0 0 1 .348.102c.096.064.16.152.192.264l1.476 5.19c.036.128.068.268.096.42.032.148.062.306.09.474a5.968 5.968 0 0 1 .228-.894l1.704-5.19a.575.575 0 0 1 .186-.252.543.543 0 0 1 .348-.114h.474a.57.57 0 0 1 .348.102.497.497 0 0 1 .192.264l1.692 5.19c.088.256.164.54.228.852.028-.156.056-.306.084-.45.032-.144.064-.278.096-.402l1.476-5.19c.028-.1.09-.186.186-.258a.563.563 0 0 1 .348-.108h1.266l-2.694 8.676h-1.458l-1.896-5.928-.078-.246a9.504 9.504 0 0 1-.072-.282c-.024.1-.05.194-.078.282-.024.088-.048.17-.072.246l-1.914 5.928H30.04l-2.694-8.676ZM42.771 8.661c.46 0 .876.074 1.248.222.376.148.696.358.96.63s.468.604.612.996c.144.392.216.83.216 1.314 0 .488-.072.928-.216 1.32a2.85 2.85 0 0 1-.612 1.002 2.653 2.653 0 0 1-.96.636 3.35 3.35 0 0 1-1.248.222c-.46 0-.878-.074-1.254-.222a2.712 2.712 0 0 1-.966-.636 2.922 2.922 0 0 1-.618-1.002 3.807 3.807 0 0 1-.216-1.32c0-.484.072-.922.216-1.314.148-.392.354-.724.618-.996.268-.272.59-.482.966-.63a3.397 3.397 0 0 1 1.254-.222Zm0 5.202c.512 0 .89-.172 1.134-.516.248-.344.372-.848.372-1.512s-.124-1.17-.372-1.518c-.244-.348-.622-.522-1.134-.522-.52 0-.904.176-1.152.528-.248.348-.372.852-.372 1.512s.124 1.164.372 1.512c.248.344.632.516 1.152.516ZM46.723 14.913V8.757h.87c.152 0 .258.028.318.084.06.056.1.152.12.288l.09.744c.22-.38.478-.68.774-.9.296-.22.628-.33.996-.33.304 0 .556.07.756.21l-.192 1.11c-.012.072-.038.124-.078.156a.278.278 0 0 1-.162.042 1.01 1.01 0 0 1-.246-.042 1.646 1.646 0 0 0-.414-.042c-.308 0-.572.086-.792.258-.22.168-.406.416-.558.744v3.834h-1.482ZM52.96 5.997v8.916h-1.482V5.997h1.482ZM58.732 14.913c-.192 0-.318-.09-.378-.27l-.12-.594a3.68 3.68 0 0 1-.402.39c-.14.116-.292.216-.456.3-.16.084-.334.148-.522.192a2.372 2.372 0 0 1-.6.072c-.336 0-.644-.07-.924-.21a2.098 2.098 0 0 1-.726-.606 3.033 3.033 0 0 1-.468-.99 5.072 5.072 0 0 1-.162-1.344c0-.456.062-.88.186-1.272s.302-.732.534-1.02c.232-.288.51-.512.834-.672a2.384 2.384 0 0 1 1.092-.246 2.103 2.103 0 0 1 1.536.606V5.997h1.482v8.916h-.906Zm-1.974-1.086c.308 0 .57-.064.786-.192.216-.128.42-.31.612-.546v-2.76a1.452 1.452 0 0 0-.552-.432 1.597 1.597 0 0 0-.636-.126c-.224 0-.428.042-.612.126a1.21 1.21 0 0 0-.462.384c-.124.168-.22.384-.288.648-.068.26-.102.568-.102.924 0 .36.028.666.084.918.06.248.144.452.252.612.108.156.24.27.396.342.156.068.33.102.522.102ZM16.331 20.757v6.156H14.85v-6.156h1.481Zm.223-1.794a.844.844 0 0 1-.078.36.963.963 0 0 1-.21.294.995.995 0 0 1-.3.204.963.963 0 0 1-.372.072.948.948 0 0 1-.367-.072 1.018 1.018 0 0 1-.498-.498.963.963 0 0 1 0-.732.995.995 0 0 1 .205-.3.929.929 0 0 1 .293-.198.899.899 0 0 1 .738 0 .912.912 0 0 1 .3.198.943.943 0 0 1 .288.672ZM17.771 26.913v-6.156h.906c.192 0 .318.09.378.27l.102.486a2.934 2.934 0 0 1 .828-.618c.156-.076.322-.134.498-.174.176-.04.368-.06.576-.06.336 0 .634.058.894.174.26.112.476.272.648.48.176.204.308.45.396.738.092.284.138.598.138.942v3.918h-1.482v-3.918c0-.376-.088-.666-.264-.87-.172-.208-.432-.312-.78-.312-.256 0-.496.058-.72.174a2.58 2.58 0 0 0-.636.474v4.452h-1.482ZM34.22 22.575c0 .636-.106 1.22-.318 1.752-.212.532-.51.99-.894 1.374a4 4 0 0 1-1.386.894 4.87 4.87 0 0 1-1.794.318h-3.312v-8.676h3.312a4.79 4.79 0 0 1 1.794.324 4 4 0 0 1 1.386.894c.384.38.682.836.894 1.368.212.532.318 1.116.318 1.752Zm-1.65 0c0-.476-.064-.902-.192-1.278a2.68 2.68 0 0 0-.546-.96 2.332 2.332 0 0 0-.864-.606 2.94 2.94 0 0 0-1.14-.21h-1.686v6.108h1.686c.424 0 .804-.07 1.14-.21.34-.14.628-.34.864-.6a2.75 2.75 0 0 0 .546-.96 4.01 4.01 0 0 0 .192-1.284ZM39.98 26.913h-.665c-.14 0-.25-.02-.33-.06-.08-.044-.14-.13-.18-.258l-.132-.438c-.156.14-.31.264-.462.372a2.804 2.804 0 0 1-.462.264c-.16.072-.33.126-.51.162-.18.036-.38.054-.6.054-.26 0-.5-.034-.72-.102a1.618 1.618 0 0 1-.57-.318 1.448 1.448 0 0 1-.366-.522 1.852 1.852 0 0 1-.132-.726c0-.232.06-.46.18-.684.124-.228.328-.432.612-.612.284-.184.662-.336 1.134-.456.472-.12 1.058-.188 1.758-.204v-.36c0-.412-.088-.716-.264-.912-.172-.2-.424-.3-.756-.3a1.837 1.837 0 0 0-1.02.276c-.116.068-.224.13-.324.186a.664.664 0 0 1-.33.084.429.429 0 0 1-.258-.078.614.614 0 0 1-.174-.192l-.27-.474c.708-.648 1.562-.972 2.562-.972.36 0 .68.06.96.18.284.116.524.28.72.492.196.208.344.458.444.75.104.292.156.612.156.96v3.888Zm-2.88-.924c.153 0 .293-.014.42-.042.129-.028.249-.07.36-.126.117-.056.227-.124.33-.204.109-.084.217-.182.325-.294v-1.038c-.432.02-.794.058-1.086.114-.288.052-.52.12-.696.204a.923.923 0 0 0-.378.294.664.664 0 0 0-.108.366c0 .26.076.446.228.558.156.112.358.168.606.168ZM43.22 27.01c-.532 0-.942-.15-1.23-.45-.288-.305-.432-.723-.432-1.255v-3.438h-.624a.31.31 0 0 1-.21-.078c-.056-.052-.084-.13-.084-.234v-.588l.99-.162.312-1.68a.302.302 0 0 1 .108-.186.365.365 0 0 1 .222-.066h.768v1.938h1.62v1.056h-1.62v3.336c0 .192.048.342.144.45a.488.488 0 0 0 .384.162c.092 0 .168-.01.228-.03.064-.024.118-.048.162-.072.048-.024.09-.046.126-.066a.194.194 0 0 1 .108-.036.16.16 0 0 1 .108.036c.028.02.058.052.09.096l.444.72c-.216.18-.464.316-.744.408a2.77 2.77 0 0 1-.87.138ZM50.423 26.913h-.666c-.14 0-.25-.02-.33-.06-.08-.044-.14-.13-.18-.258l-.132-.438c-.156.14-.31.264-.462.372a2.804 2.804 0 0 1-.462.264c-.16.072-.33.126-.51.162-.18.036-.38.054-.6.054-.26 0-.5-.034-.72-.102a1.618 1.618 0 0 1-.57-.318 1.448 1.448 0 0 1-.366-.522 1.852 1.852 0 0 1-.132-.726c0-.232.06-.46.18-.684.124-.228.328-.432.612-.612.284-.184.662-.336 1.134-.456.472-.12 1.058-.188 1.758-.204v-.36c0-.412-.088-.716-.264-.912-.172-.2-.424-.3-.756-.3a1.837 1.837 0 0 0-1.02.276c-.116.068-.224.13-.324.186a.664.664 0 0 1-.33.084.429.429 0 0 1-.258-.078.614.614 0 0 1-.174-.192l-.27-.474c.708-.648 1.562-.972 2.562-.972.36 0 .68.06.96.18.284.116.524.28.72.492.196.208.344.458.444.75.104.292.156.612.156.96v3.888Zm-2.88-.924c.152 0 .292-.014.42-.042.128-.028.248-.07.36-.126.116-.056.226-.124.33-.204.108-.084.216-.182.324-.294v-1.038c-.432.02-.794.058-1.086.114-.288.052-.52.12-.696.204a.923.923 0 0 0-.378.294.664.664 0 0 0-.108.366c0 .26.076.446.228.558.156.112.358.168.606.168Z"/></svg></g><a id="title" href="https://ourworldindata.org/explorers/minerals?Mineral=Magnesium+metal&amp;Metric=Production&amp;Type=Mine%2C+iron+content&amp;Share+of+global=false&amp;country=AUS~CHL~CHN~USA~CAN~ALB~DZA~ARG~ARM~AUT~AZE~BOL~OWID_WRL~BWA~BRA~BGR~COL~COG~CUB~CYP~OWID_CZS~COD~DOM~OWID_GDR~ZWE~ZMB~OWID_YGS~OWID_GFR~VNM~UZB~GBR~UGA~OWID_USS~TUR~TZA~TJK~TWN~SWE~ESP~KOR~ZAF~SVK~OWID_SRM~SRB~SAU~RUS~ROU~PRT~POL~PHL~PER~PNG~PAN~PAK~OMN~NOR~MKD~PRK~NIC~NZL~NAM~MMR~MOZ~MAR~MNG~MEX~MRT~MYS~LAO~KGZ~KEN~KAZ~JPN~ITA~ISR~IRL~IRN~IDN~IND~HUN~HND~HTI~GTM~GRC~DEU~GEO~FRA~FIN~ERI~ECU~VEN~ARE~UKR~CHE~SUR~LKA~SVN~QAT~NGA~NLD~MNE~ISL~GHA~EGY~HRV~CMR~BIH~BHR~AFG~OWID_KOS~MDG~NCL~SDN~Other~CZE~THA~TUN" style="font-family:&#x27;Playfair Display&#x27;, Georgia, &#x27;Times New Roman&#x27;, &#x27;Liberation Serif&#x27;, serif" target="_blank" rel="noopener"><text font-size="24.75" font-weight="600" x="16.0" y="40.0" fill="#5b5b5b"><tspan x="16" y="40.0075">Magnesium metal production, 1937 to 2023</tspan></text></a><g id="subtitle" class="markdown-text-wrap"><text x="16.0" y="63.9" style="font-size:14.625px;line-height:1.2" fill="#5b5b5b"><tspan x="16" y="63.9">Measured in tonnes. <tspan class="dod-span" data-id="smelting">Smelting<tspan style="font-feature-settings:&quot;sups&quot;">ยน</tspan></tspan> takes raw minerals and produces metals through high-temperature processes.</tspan></text></g></g><g id="chart-area" style="pointer-events:none"><g id="line-chart" class="LineChart"><defs><clipPath id="boundsClip-62"><rect x="68.105" y="73.25" width="838" height="435.95"></rect></clipPath></defs><rect x="16" y="83.25" width="818" height="415.95" fill="none"></rect><g id="dual-axis" class="DualAxisView"><g id="horizontal-axis" class="HorizontalAxis"><g id="tick__1937"><line x1="78.1" y1="478.2" x2="78.1" y2="483.7" stroke="#999" stroke-width="1"></line><text x="78.105" y="497.2" fill="#5b5b5b" text-anchor="start" font-size="13.5">1937</text></g><g id="tick__2023"><line x1="657.3" y1="478.2" x2="657.3" y2="483.7" stroke="#999" stroke-width="1"></line><text x="657.25" y="497.2" fill="#5b5b5b" text-anchor="end" font-size="13.5">2023</text></g><g id="tick__1960"><line x1="233" y1="478.2" x2="233" y2="483.7" stroke="#999" stroke-width="1"></line><text x="233" y="497.2" fill="#5b5b5b" text-anchor="middle" font-size="13.5">1960</text></g><g id="tick__1980"><line x1="367.7" y1="478.2" x2="367.7" y2="483.7" stroke="#999" stroke-width="1"></line><text x="367.7" y="497.2" fill="#5b5b5b" text-anchor="middle" font-size="13.5">1980</text></g><g id="tick__2000"><line x1="502.4" y1="478.2" x2="502.4" y2="483.7" stroke="#999" stroke-width="1"></line><text x="502.4" y="497.2" fill="#5b5b5b" text-anchor="middle" font-size="13.5">2000</text></g></g><g id="vertical-axis" class="VerticalAxis"><g id="tick-labels"><text id="tick-label__0-t" x="73.11" y="478.7" dy=".32em" text-anchor="end" fill="#5b5b5b" font-size="13.5">0 t</text><text id="tick-label__200__002c000-t" x="73.11" y="406.6" dy=".32em" text-anchor="end" fill="#5b5b5b" font-size="13.5">200,000 t</text><text id="tick-label__400__002c000-t" x="73.11" y="334.5" dy=".32em" text-anchor="end" fill="#5b5b5b" font-size="13.5">400,000 t</text><text id="tick-label__600__002c000-t" x="73.11" y="262.3" dy=".32em" text-anchor="end" fill="#5b5b5b" font-size="13.5">600,000 t</text><text id="tick-label__800__002c000-t" x="73.11" y="190.2" dy=".32em" text-anchor="end" fill="#5b5b5b" font-size="13.5">800,000 t</text><text id="tick-label__1-million-t" x="73.11" y="118.1" dy=".32em" text-anchor="end" fill="#5b5b5b" font-size="13.5">1 million t</text></g></g><g id="horizontal-grid-lines" class="AxisGridLines horizontalLines"><line id="grid-line__0" x1="78.11" y1="478.7" x2="657.25" y2="478.7" stroke="#999" stroke-width="1"></line><line id="grid-line__200000" x1="78.11" y1="406.6" x2="657.25" y2="406.6" stroke="#ddd" stroke-width="1" stroke-dasharray="3,2"></line><line id="grid-line__400000" x1="78.11" y1="334.5" x2="657.25" y2="334.5" stroke="#ddd" stroke-width="1" stroke-dasharray="3,2"></line><line id="grid-line__600000" x1="78.11" y1="262.3" x2="657.25" y2="262.3" stroke="#ddd" stroke-width="1" stroke-dasharray="3,2"></line><line id="grid-line__800000" x1="78.11" y1="190.2" x2="657.25" y2="190.2" stroke="#ddd" stroke-width="1" stroke-dasharray="3,2"></line><line id="grid-line__1000000" x1="78.11" y1="118.1" x2="657.25" y2="118.1" stroke="#ddd" stroke-width="1" stroke-dasharray="3,2"></line></g></g><g clip-path="url(#boundsClip-62)"><g id="line-labels" class="LineLabels"><g id="mark__World" class="legendMark" style="cursor:default"><g id="connector" class="indicator"><path d="M661.25,139.7 H674.75 V139.7 H688.25" stroke="#999" stroke-width="0.5" fill="none"></path></g><rect id="background" x="657.25" y="132.95" width="70.235" height="13.5" fill="#fff" opacity="0"></rect><text id="label" font-size="13.50" font-weight="400" x="692.3" y="144.7" fill="#c15065"><tspan x="692.25" y="144.695">World</tspan></text></g><g id="mark__China" class="legendMark" style="cursor:default"><g id="connector" class="indicator"><path d="M661.25,179.4 H674.75 V179.4 H688.25" stroke="#999" stroke-width="0.5" fill="none"></path></g><rect id="background" x="657.25" y="172.65" width="70.37" height="13.5" fill="#fff" opacity="0"></rect><text id="label" font-size="13.50" font-weight="400" x="692.3" y="184.4" fill="#cf0a66"><tspan x="692.25" y="184.395">China</tspan></text></g><g id="mark__USSR" class="legendMark" style="cursor:default"><g id="connector" class="indicator"><path d="M661.25,449.9 H662.6 V197.95000000000005 H688.25" stroke="#999" stroke-width="0.5" fill="none"></path></g><rect id="background" x="657.25" y="191.20000000000005" width="72.53" height="13.5" fill="#fff" opacity="0"></rect><text id="label" font-size="13.50" font-weight="400" x="692.3" y="202.9" fill="#996d39"><tspan x="692.25" y="202.94500000000005">USSR</tspan></text></g><g id="mark__Kazakhstan" class="legendMark" style="cursor:default"><g id="connector" class="indicator"><path d="M661.25,469.7 H663.95 V213.45000000000005 H688.25" stroke="#999" stroke-width="0.5" fill="none"></path></g><rect id="background" x="657.25" y="206.70000000000005" width="105.875" height="13.5" fill="#fff" opacity="0"></rect><text id="label" font-size="13.50" font-weight="400" x="692.3" y="218.4" fill="#d73c50"><tspan x="692.25" y="218.44500000000005">Kazakhstan</tspan></text></g><g id="mark__Brazil" class="legendMark" style="cursor:default"><g id="connector" class="indicator"><path d="M661.25,470.8 H665.3000000000001 V228.95000000000005 H688.25" stroke="#999" stroke-width="0.5" fill="none"></path></g><rect id="background" x="657.25" y="222.20000000000005" width="68.75" height="13.5" fill="#fff" opacity="0"></rect><text id="label" font-size="13.50" font-weight="400" x="692.3" y="233.9" fill="#578145"><tspan x="692.25" y="233.94500000000005">Brazil</tspan></text></g><g id="mark__Israel" class="legendMark" style="cursor:default"><g id="connector" class="indicator"><path d="M661.25,470.8 H666.65 V244.45000000000005 H688.25" stroke="#999" stroke-width="0.5" fill="none"></path></g><rect id="background" x="657.25" y="237.70000000000005" width="68.075" height="13.5" fill="#fff" opacity="0"></rect><text id="label" font-size="13.50" font-weight="400" x="692.3" y="249.4" fill="#be5915"><tspan x="692.25" y="249.44500000000005">Israel</tspan></text></g><g id="mark__Russia" class="legendMark" style="cursor:default"><g id="connector" class="indicator"><path d="M661.25,471.5 H668 V259.95000000000005 H688.25" stroke="#999" stroke-width="0.5" fill="none"></path></g><rect id="background" x="657.25" y="253.20000000000005" width="76.31" height="13.5" fill="#fff" opacity="0"></rect><text id="label" font-size="13.50" font-weight="400" x="692.3" y="264.9" fill="#8c4569"><tspan x="692.25" y="264.94500000000005">Russia</tspan></text></g><g id="mark__Turkey" class="legendMark" style="cursor:default"><g id="connector" class="indicator"><path d="M661.25,473.3 H669.35 V275.45000000000005 H688.25" stroke="#999" stroke-width="0.5" fill="none"></path></g><rect id="background" x="657.25" y="268.70000000000005" width="76.31" height="13.5" fill="#fff" opacity="0"></rect><text id="label" font-size="13.50" font-weight="400" x="692.3" y="280.4" fill="#00295b"><tspan x="692.25" y="280.44500000000005">Turkey</tspan></text></g><g id="mark__Canada" class="legendMark" style="cursor:default"><g id="connector" class="indicator"><path d="M661.25,475.8 H670.7 V290.95000000000005 H688.25" stroke="#999" stroke-width="0.5" fill="none"></path></g><rect id="background" x="657.25" y="284.20000000000005" width="82.52000000000001" height="13.5" fill="#fff" opacity="0"></rect><text id="label" font-size="13.50" font-weight="400" x="692.3" y="295.9" fill="#18470f"><tspan x="692.25" y="295.94500000000005">Canada</tspan></text></g><g id="mark__Yugoslavia" class="legendMark" style="cursor:default"><g id="connector" class="indicator"><path d="M661.25,476.8 H672.0500000000001 V306.45000000000005 H688.25" stroke="#999" stroke-width="0.5" fill="none"></path></g><rect id="background" x="657.25" y="299.70000000000005" width="101.28500000000001" height="13.5" fill="#fff" opacity="0"></rect><text id="label" font-size="13.50" font-weight="400" x="692.3" y="311.4" fill="#be5915"><tspan x="692.25" y="311.44500000000005">Yugoslavia</tspan></text></g><g id="mark__Iran" class="legendMark" style="cursor:default"><g id="connector" class="indicator"><path d="M661.25,476.9 H673.4 V321.95000000000005 H688.25" stroke="#999" stroke-width="0.5" fill="none"></path></g><rect id="background" x="657.25" y="315.20000000000005" width="58.355000000000004" height="13.5" fill="#fff" opacity="0"></rect><text id="label" font-size="13.50" font-weight="400" x="692.3" y="326.9" fill="#cf0a66"><tspan x="692.25" y="326.94500000000005">Iran</tspan></text></g><g id="mark__Japan" class="legendMark" style="cursor:default"><g id="connector" class="indicator"><path d="M661.25,477.6 H674.75 V337.45000000000005 H688.25" stroke="#999" stroke-width="0.5" fill="none"></path></g><rect id="background" x="657.25" y="330.70000000000005" width="71.99000000000001" height="13.5" fill="#fff" opacity="0"></rect><text id="label" font-size="13.50" font-weight="400" x="692.3" y="342.4" fill="#c15065"><tspan x="692.25" y="342.44500000000005">Japan</tspan></text></g><g id="mark__Norway" class="legendMark" style="cursor:default"><g id="connector" class="indicator"><path d="M661.25,477.6 H676.1 V352.95000000000005 H688.25" stroke="#999" stroke-width="0.5" fill="none"></path></g><rect id="background" x="657.25" y="346.20000000000005" width="80.765" height="13.5" fill="#fff" opacity="0"></rect><text id="label" font-size="13.50" font-weight="400" x="692.3" y="357.9" fill="#883039"><tspan x="692.25" y="357.94500000000005">Norway</tspan></text></g><g id="mark__France" class="legendMark" style="cursor:default"><g id="connector" class="indicator"><path d="M661.25,478 H677.45 V368.45000000000005 H688.25" stroke="#999" stroke-width="0.5" fill="none"></path></g><rect id="background" x="657.25" y="361.70000000000005" width="77.12" height="13.5" fill="#fff" opacity="0"></rect><text id="label" font-size="13.50" font-weight="400" x="692.3" y="373.4" fill="#578145"><tspan x="692.25" y="373.44500000000005">France</tspan></text></g><g id="mark__Italy" class="legendMark" style="cursor:default"><g id="connector" class="indicator"><path d="M661.25,478.3 H678.8000000000001 V383.95000000000005 H688.25" stroke="#999" stroke-width="0.5" fill="none"></path></g><rect id="background" x="657.25" y="377.20000000000005" width="59.84" height="13.5" fill="#fff" opacity="0"></rect><text id="label" font-size="13.50" font-weight="400" x="692.3" y="388.9" fill="#2c8465"><tspan x="692.25" y="388.94500000000005">Italy</tspan></text></g><g id="mark__United-States" class="legendMark" style="cursor:default"><g id="connector" class="indicator"><path d="M661.25,478.5 H680.15 V399.45000000000005 H688.25" stroke="#999" stroke-width="0.5" fill="none"></path></g><rect id="background" x="657.25" y="392.70000000000005" width="116.405" height="13.5" fill="#fff" opacity="0"></rect><text id="label" font-size="13.50" font-weight="400" x="692.3" y="404.4" fill="#6d3e91"><tspan x="692.25" y="404.44500000000005">United States</tspan></text></g><g id="mark__Serbia-and-Montenegro" class="legendMark" style="cursor:default"><g id="connector" class="indicator"><path d="M661.25,478.5 H681.5 V414.95000000000005 H688.25" stroke="#999" stroke-width="0.5" fill="none"></path></g><rect id="background" x="657.25" y="408.20000000000005" width="176.75" height="13.5" fill="#fff" opacity="0"></rect><text id="label" font-size="13.50" font-weight="400" x="692.3" y="419.9" fill="#4c6a9c"><tspan x="692.25" y="419.94500000000005">Serbia and Montenegro</tspan></text></g><g id="mark__India" class="legendMark" style="cursor:default"><g id="connector" class="indicator"><path d="M661.25,478.6 H682.85 V430.45000000000005 H688.25" stroke="#999" stroke-width="0.5" fill="none"></path></g><rect id="background" x="657.25" y="423.70000000000005" width="64.43" height="13.5" fill="#fff" opacity="0"></rect><text id="label" font-size="13.50" font-weight="400" x="692.3" y="435.4" fill="#286bbb"><tspan x="692.25" y="435.44500000000005">India</tspan></text></g><g id="mark__Ukraine" class="legendMark" style="cursor:default"><g id="connector" class="indicator"><path d="M661.25,478.7 H684.2 V445.95000000000005 H688.25" stroke="#999" stroke-width="0.5" fill="none"></path></g><rect id="background" x="657.25" y="439.20000000000005" width="81.575" height="13.5" fill="#fff" opacity="0"></rect><text id="label" font-size="13.50" font-weight="400" x="692.3" y="450.9" fill="#b16214"><tspan x="692.25" y="450.94500000000005">Ukraine</tspan></text></g><g id="mark__Malaysia" class="legendMark" style="cursor:default"><g id="connector" class="indicator"><path d="M661.25,478.7 H685.5500000000001 V461.45000000000005 H688.25" stroke="#999" stroke-width="0.5" fill="none"></path></g><rect id="background" x="657.25" y="454.70000000000005" width="88.325" height="13.5" fill="#fff" opacity="0"></rect><text id="label" font-size="13.50" font-weight="400" x="692.3" y="466.4" fill="#00875e"><tspan x="692.25" y="466.44500000000005">Malaysia</tspan></text></g><g id="mark__Oman" class="legendMark" style="cursor:default"><g id="connector" class="indicator"><path d="M661.25,478.7 H686.9 V476.95000000000005 H688.25" stroke="#999" stroke-width="0.5" fill="none"></path></g><rect id="background" x="657.25" y="470.20000000000005" width="71.855" height="13.5" fill="#fff" opacity="0"></rect><text id="label" font-size="13.50" font-weight="400" x="692.3" y="481.9" fill="#286bbb"><tspan x="692.25" y="481.94500000000005">Oman</tspan></text></g><g id="mark__South-Korea" class="legendMark" style="cursor:default"><g id="connector" class="indicator"><path d="M661.25,478.7 H686.9 V492.45000000000005 H688.25" stroke="#999" stroke-width="0.5" fill="none"></path></g><rect id="background" x="657.25" y="485.70000000000005" width="110.465" height="13.5" fill="#fff" opacity="0"></rect><text id="label" font-size="13.50" font-weight="400" x="692.3" y="497.4" fill="#970046"><tspan x="692.25" y="497.44500000000005">South Korea</tspan></text></g></g><g id="lines" class="Lines"><rect x="78" y="89" width="579" height="389" fill="rgba(255,255,255,0)" opacity="0"></rect><g id="line__Iran"><path stroke-linecap="round" stroke-linejoin="round" stroke="#ddd" d="M650.5 476.9L657.3 476.9" fill="none" stroke-width="1"></path></g><g id="line__Turkey"><path stroke-linecap="round" stroke-linejoin="round" stroke="#ddd" d="M603.4 478.7L610.1 477.3L616.8 477.3L623.6 477.1L630.3 477.1L637 474.4L650.5 473.7L657.3 473.3" fill="none" stroke-width="1"></path></g><g id="line__South-Korea"><path stroke-linecap="round" stroke-linejoin="round" stroke="#ddd" d="M563 478.7L569.7 478.7L576.4 478.7L583.2 477.8L589.9 476L596.6 477.6L603.4 477.6L610.1 477.6L616.8 477.6L623.6 478.7L630.3 478.7L637 478.7L650.5 478.7" fill="none" stroke-width="1"></path></g><g id="line__Oman"><path stroke-linecap="round" stroke-linejoin="round" stroke="#ddd" d="M563 478.7L569.7 478.7" fill="none" stroke-width="1"></path></g><g id="line__Malaysia"><path stroke-linecap="round" stroke-linejoin="round" stroke="#ddd" d="M563 478.7L569.7 478.7L576.4 478.5L583.2 478.7L589.9 478.5L596.6 477.6L603.4 478.1L610.1 478.6L616.8 478.7" fill="none" stroke-width="1"></path></g><g id="line__Israel"><path stroke-linecap="round" stroke-linejoin="round" stroke="#ddd" d="M475.4 478.7L482.2 476L488.9 469.9L495.6 469.9L502.4 467.2L509.1 467.5L515.8 467.9L522.6 469.3L529.3 468.6L536 468.7L542.8 469.8L549.5 468.2L563 471.7L569.7 470.3L576.4 469.2L583.2 468.9L589.9 468.8L596.6 469.3L603.4 468L610.1 470.6L616.8 470.4L623.6 471.1L630.3 471L637 471.8L650.5 470.8L657.3 470.8" fill="none" stroke-width="1"></path></g><g id="line__Ukraine"><path stroke-linecap="round" stroke-linejoin="round" stroke="#ddd" d="M448.5 473.3L455.2 473.3L462 474.4L468.7 474L475.4 474L482.2 475.9L488.9 476.9L495.6 478.7L502.4 478.7L509.1 478.7L515.8 478.7L522.6 478.7L529.3 478.7L536 477.7L542.8 478L549.5 478L563 478L569.7 478L576.4 478L637 476.5L650.5 478L657.3 478.7" fill="none" stroke-width="1"></path></g><g id="line__Serbia-and-Montenegro"><path stroke-linecap="round" stroke-linejoin="round" stroke="#ddd" d="M448.5 477.2L455.2 478.7L462 478.7L468.7 477.8L475.4 477.6L482.2 477.3L488.9 477.3L495.6 478.3L502.4 478.2L509.1 478.6L515.8 478.7L522.6 478.5L529.3 478.5L536 478.5" fill="none" stroke-width="1"></path></g><g id="line__Russia"><path stroke-linecap="round" stroke-linejoin="round" stroke="#ddd" d="M448.5 464.3L455.2 467.9L462 465.9L468.7 465.2L475.4 467.3L482.2 466.8L488.9 466.4L495.6 466L502.4 465.9L509.1 466.1L515.8 466.1L522.6 467.9L529.3 466.1L536 473.1L542.8 471.4L549.5 472.3L563 474.3L569.7 473.1L576.4 473.8L583.2 473.7L589.9 473.7L596.6 473.7L603.4 474.2L610.1 473.5L616.8 473.1L623.6 473L630.3 473.2L637 461.4L650.5 471.1L657.3 471.5" fill="none" stroke-width="1"></path></g><g id="line__Kazakhstan"><path stroke-linecap="round" stroke-linejoin="round" stroke="#ddd" d="M448.5 477.6L455.2 478L462 477.6L468.7 475.5L475.4 473.9L482.2 472.2L488.9 471.2L495.6 474.7L502.4 475L509.1 472.8L515.8 472.3L522.6 473.6L529.3 472.2L536 471.5L542.8 471.1L549.5 471.1L563 471.1L569.7 471.1L576.4 471L637 472.9L650.5 469L657.3 469.7" fill="none" stroke-width="1"></path></g><g id="line__Brazil"><path stroke-linecap="round" stroke-linejoin="round" stroke="#ddd" d="M367.7 478.7L374.4 478.7L381.1 478.6L387.9 478.5L394.6 478.3L401.3 477.8L408.1 477.1L414.8 476.7L421.6 476.6L428.3 476.7L435 475.6L441.8 475.9L448.5 476.1L455.2 475.2L462 475.2L468.7 475.2L475.4 475.5L482.2 475.5L488.9 475.5L495.6 475.8L502.4 476.6L509.1 476.7L515.8 477.1L522.6 477.3L529.3 477.6L536 477.6L542.8 476.9L549.5 476.9L563 476.9L569.7 476.9L576.4 476.9L583.2 472.9L589.9 472.9L596.6 472.9L603.4 473.3L610.1 473.3L616.8 473.3L623.6 473.3L630.3 470.8L637 472.2L650.5 470.8L657.3 470.8" fill="none" stroke-width="1"></path></g><g id="line__Yugoslavia"><path stroke-linecap="round" stroke-linejoin="round" stroke="#ddd" d="M327.3 478.7L334 478.7L340.7 478.7L347.5 478.7L354.2 478.7L360.9 478.5L367.7 477.8L374.4 477.3L381.1 477.2L387.9 477L394.6 476.8L401.3 476.9L408.1 476.9L414.8 476.6L421.6 476.5L428.3 476.5L435 476.6L441.8 476.8" fill="none" stroke-width="1"></path></g><g id="line__United-States"><path stroke-linecap="round" stroke-linejoin="round" stroke="#ddd" d="M327.3 434.3L334 439.4L340.7 439.5L347.5 437.5L354.2 429.8L360.9 425.6L367.7 423.3L374.4 428.4L381.1 445.3L387.9 440.9L394.6 426.6L401.3 429.8L408.1 433.4L414.8 433.8L421.6 427.5L428.3 423.9L435 428.5L441.8 431.4L448.5 429.3L455.2 431L462 432.4L468.7 427.5L475.4 430.7L482.2 433.7L488.9 440.4L495.6 451.7L502.4 444.8L509.1 460.7L515.8 471.5L522.6 475.1L529.3 467.9L536 464.3L542.8 464.3L549.5 464.3L563 464.3L569.7 464.3L576.4 464.3L583.2 464.3L589.9 464.3L596.6 464.3L603.4 464.3L610.1 464.3L616.8 467.9L623.6 475.1L630.3 474.7L637 476.7L650.5 478.5" fill="none" stroke-width="1"></path></g><g id="line__USSR"><path stroke-linecap="round" stroke-linejoin="round" stroke="#ddd" d="M327.3 457.1L334 457.1L340.7 456L347.5 455.3L354.2 453.5L360.9 452.7L367.7 451.7L374.4 451.3L381.1 450.9L387.9 449.9L394.6 448L401.3 448L408.1 447.7L414.8 447.7L421.6 446.2L428.3 445.9L435 447L441.8 449.9" fill="none" stroke-width="1"></path></g><g id="line__Norway"><path stroke-linecap="round" stroke-linejoin="round" stroke="#ddd" d="M327.3 464.3L334 464.9L340.7 464.7L347.5 464.9L354.2 464.6L360.9 462.8L367.7 462.7L374.4 461.6L381.1 465.7L387.9 467.9L394.6 460.9L401.3 459L408.1 458.2L414.8 458.2L421.6 460.6L428.3 459.6L435 461.3L441.8 462.7L448.5 467.7L455.2 468.9L462 468.7L468.7 467.2L475.4 465.1L482.2 466.4L488.9 465.9L495.6 464L502.4 463.8L509.1 464L515.8 477.6" fill="none" stroke-width="1"></path></g><g id="line__Japan"><path stroke-linecap="round" stroke-linejoin="round" stroke="#ddd" d="M327.3 475.6L334 475.6L340.7 474.7L347.5 475.3L354.2 474.7L360.9 474.6L367.7 475.4L374.4 476.7L381.1 476.7L387.9 476.5L394.6 476.1L401.3 475.7L408.1 475.8L414.8 475.8L421.6 475.5L428.3 474.3L435 474.1L441.8 474.5L448.5 476.1L455.2 476L462 477.6" fill="none" stroke-width="1"></path></g><g id="line__Italy"><path stroke-linecap="round" stroke-linejoin="round" stroke="#ddd" d="M327.3 476L334 476.4L340.7 476.2L347.5 475.5L354.2 475.2L360.9 475.5L367.7 475.2L374.4 474.8L381.1 475.1L387.9 475.2L394.6 475.7L401.3 475.9L408.1 476.1L414.8 476L421.6 476.7L428.3 476.6L435 476.6L441.8 477.3L448.5 478.3" fill="none" stroke-width="1"></path></g><g id="line__India"><path stroke-linecap="round" stroke-linejoin="round" stroke="#ddd" d="M327.3 478.7L334 478.7L340.7 478.7L448.5 478.3L455.2 478.3L462 478.3L468.7 478.3L475.4 478.3L482.2 478.3L488.9 478.2L495.6 478.3L502.4 478.5L509.1 478.5L515.8 478.5L522.6 478.6L529.3 478.6L536 478.6L542.8 478.6L549.5 478.6L563 478.6L569.7 478.6L576.4 478.6L583.2 478.6" fill="none" stroke-width="1"></path></g><g id="line__France"><path stroke-linecap="round" stroke-linejoin="round" stroke="#ddd" d="M327.3 476.2L334 476L340.7 475.8L347.5 475.6L354.2 475.6L360.9 475.4L367.7 475.3L374.4 476.1L381.1 475.2L387.9 474.7L394.6 474.1L401.3 473.8L408.1 473.9L414.8 473.8L421.6 473.7L428.3 473.4L435 473.4L441.8 473.7L448.5 473.8L455.2 474.7L462 474.2L468.7 473.5L475.4 473.7L482.2 473.7L488.9 473.4L495.6 472.9L502.4 472.8L509.1 477L515.8 478" fill="none" stroke-width="1"></path></g><g id="line__China"><path stroke-linecap="round" stroke-linejoin="round" stroke="#ddd" d="M327.3 478.3L334 478.3L340.7 476.9L347.5 476.9L354.2 476.5L360.9 476.5L367.7 476.2L374.4 476.2L381.1 476L387.9 475.6L394.6 475.6L401.3 475.5L408.1 475.5L414.8 477.6L421.6 477.5L428.3 477.4L435 476.6L441.8 476.5L448.5 474.9L455.2 473.9L462 470L468.7 444.9L475.4 452.3L482.2 451.3L488.9 453.3L495.6 435.2L502.4 427.5L509.1 406.7L515.8 394L522.6 355.4L529.3 319.2L536 310.1L542.8 289.2L549.5 241L563 289.2L569.7 244L576.4 235.3L583.2 226.9L589.9 200.9L596.6 163.7L603.4 168.8L610.1 164L616.8 152.5L623.6 172.9L630.3 129.3L637 159.2L650.5 142.3L657.3 179.4" fill="none" stroke-width="1"></path></g><g id="line__Canada"><path stroke-linecap="round" stroke-linejoin="round" stroke="#ddd" d="M327.3 476.6L334 477.3L340.7 476.5L347.5 475.9L354.2 475.7L360.9 475.4L367.7 475.4L374.4 475.6L381.1 475.9L387.9 476.5L394.6 476L401.3 475.7L408.1 475.5L414.8 475.3L421.6 475.8L428.3 476.1L435 469.1L441.8 465.9L448.5 469.4L455.2 470.4L462 467.9L468.7 462.1L475.4 462.1L482.2 461L488.9 457.1L495.6 455.6L502.4 455.6L509.1 455.3L515.8 453.5L522.6 460.7L529.3 464.3L536 462.5L542.8 462.5L549.5 475.8" fill="none" stroke-width="1"></path></g><g id="line__World"><path stroke-linecap="round" stroke-linejoin="round" stroke="#ddd" d="M78.1 471.6L84.8 470.1L91.6 468.1L98.3 465.1L105 457.1L111.8 440.8L118.5 392.9L125.2 400.1L132 456.3L138.7 470L145.4 467.2L152.2 467.5L158.9 466.4L165.7 462.3L172.4 448.9L179.1 424.6L185.9 423.5L192.6 435.8L199.3 435.1L206.1 441.6L212.8 436.5L219.5 453L226.3 451.8L233 445.2L239.7 440.8L246.5 430.4L253.2 427.1L259.9 424.2L266.7 420.3L273.4 419.9L280.1 412L286.9 410.5L293.6 407.3L300.3 399.4L307.1 395L313.8 394.3L320.5 392.2L334 394L340.7 388.9L347.5 386L354.2 374.8L360.9 368L367.7 364.7L374.4 367.6L381.1 387.1L387.9 384.9L394.6 360.4L401.3 361.5L408.1 362.6L414.8 361.9L421.6 358.3L428.3 354.7L435 351L441.8 355.4L448.5 372.3L455.2 381.7L462 377L468.7 336.3L475.4 342.4L482.2 340.2L488.9 335.9L502.4 326.5L509.1 327.2L515.8 322.9L522.6 295.2L529.3 264.1L536 254.4L542.8 235.3L549.5 207.9L556.2 237.1L563 266.7L569.7 202.8L576.4 188.1L583.2 175.8L589.9 150.6L596.6 119.9L603.4 128.9L610.1 120.6L616.8 100.1L623.6 123.5L630.3 89.3L637 118.1L643.8 136.1L650.5 100.1L657.3 139.7" fill="none" stroke-width="1"></path></g><g id="line__Iran"><path id="outline" fill="none" stroke-linecap="butt" stroke-linejoin="round" stroke="#fff" stroke-width="2.5" d="M650.5 476.9L657.3 476.9"></path><g id="polyline"><polyline id="polyline" points="650.50,476.90 657.30,476.90" stroke-linejoin="round" stroke-width="1.5" stroke="#CF0A66" fill="none" stroke-linecap="butt"></polyline></g></g><g id="line__Turkey"><path id="outline" fill="none" stroke-linecap="butt" stroke-linejoin="round" stroke="#fff" stroke-width="2.5" d="M603.4 478.7L610.1 477.3L616.8 477.3L623.6 477.1L630.3 477.1L637 474.4L650.5 473.7L657.3 473.3"></path><g id="polyline"><polyline id="polyline" points="603.40,478.70 610.10,477.30 616.80,477.30 623.60,477.10 630.30,477.10 637.00,474.40 650.50,473.70 657.30,473.30" stroke-linejoin="round" stroke-width="1.5" stroke="#00295B" fill="none" stroke-linecap="butt"></polyline></g></g><g id="line__South-Korea"><path id="outline" fill="none" stroke-linecap="butt" stroke-linejoin="round" stroke="#fff" stroke-width="2.5" d="M563 478.7L569.7 478.7L576.4 478.7L583.2 477.8L589.9 476L596.6 477.6L603.4 477.6L610.1 477.6L616.8 477.6L623.6 478.7L630.3 478.7L637 478.7L650.5 478.7"></path><g id="polyline"><polyline id="polyline" points="563.00,478.70 569.70,478.70 576.40,478.70 583.20,477.80 589.90,476.00 596.60,477.60 603.40,477.60 610.10,477.60 616.80,477.60 623.60,478.70 630.30,478.70 637.00,478.70 650.50,478.70" stroke-linejoin="round" stroke-width="1.5" stroke="#970046" fill="none" stroke-linecap="butt"></polyline></g></g><g id="line__Oman"><path id="outline" fill="none" stroke-linecap="butt" stroke-linejoin="round" stroke="#fff" stroke-width="2.5" d="M563 478.7L569.7 478.7"></path><g id="polyline"><polyline id="polyline" points="563.00,478.70 569.70,478.70" stroke-linejoin="round" stroke-width="1.5" stroke="#286BBB" fill="none" stroke-linecap="butt"></polyline></g></g><g id="line__Malaysia"><path id="outline" fill="none" stroke-linecap="butt" stroke-linejoin="round" stroke="#fff" stroke-width="2.5" d="M563 478.7L569.7 478.7L576.4 478.5L583.2 478.7L589.9 478.5L596.6 477.6L603.4 478.1L610.1 478.6L616.8 478.7"></path><g id="polyline"><polyline id="polyline" points="563.00,478.70 569.70,478.70 576.40,478.50 583.20,478.70 589.90,478.50 596.60,477.60 603.40,478.10 610.10,478.60 616.80,478.70" stroke-linejoin="round" stroke-width="1.5" stroke="#00875E" fill="none" stroke-linecap="butt"></polyline></g></g><g id="line__Israel"><path id="outline" fill="none" stroke-linecap="butt" stroke-linejoin="round" stroke="#fff" stroke-width="2.5" d="M475.4 478.7L482.2 476L488.9 469.9L495.6 469.9L502.4 467.2L509.1 467.5L515.8 467.9L522.6 469.3L529.3 468.6L536 468.7L542.8 469.8L549.5 468.2L563 471.7L569.7 470.3L576.4 469.2L583.2 468.9L589.9 468.8L596.6 469.3L603.4 468L610.1 470.6L616.8 470.4L623.6 471.1L630.3 471L637 471.8L650.5 470.8L657.3 470.8"></path><g id="polyline"><polyline id="polyline" points="475.40,478.70 482.20,476.00 488.90,469.90 495.60,469.90 502.40,467.20 509.10,467.50 515.80,467.90 522.60,469.30 529.30,468.60 536.00,468.70 542.80,469.80 549.50,468.20 563.00,471.70 569.70,470.30 576.40,469.20 583.20,468.90 589.90,468.80 596.60,469.30 603.40,468.00 610.10,470.60 616.80,470.40 623.60,471.10 630.30,471.00 637.00,471.80 650.50,470.80 657.30,470.80" stroke-linejoin="round" stroke-width="1.5" stroke="#BE5915" fill="none" stroke-linecap="butt"></polyline></g></g><g id="line__Ukraine"><path id="outline" fill="none" stroke-linecap="butt" stroke-linejoin="round" stroke="#fff" stroke-width="2.5" d="M448.5 473.3L455.2 473.3L462 474.4L468.7 474L475.4 474L482.2 475.9L488.9 476.9L495.6 478.7L502.4 478.7L509.1 478.7L515.8 478.7L522.6 478.7L529.3 478.7L536 477.7L542.8 478L549.5 478L563 478L569.7 478L576.4 478L637 476.5L650.5 478L657.3 478.7"></path><g id="polyline"><polyline id="polyline" points="448.50,473.30 455.20,473.30 462.00,474.40 468.70,474.00 475.40,474.00 482.20,475.90 488.90,476.90 495.60,478.70 502.40,478.70 509.10,478.70 515.80,478.70 522.60,478.70 529.30,478.70 536.00,477.70 542.80,478.00 549.50,478.00 563.00,478.00 569.70,478.00 576.40,478.00 637.00,476.50 650.50,478.00 657.30,478.70" stroke-linejoin="round" stroke-width="1.5" stroke="#B16214" fill="none" stroke-linecap="butt"></polyline></g></g><g id="line__Serbia-and-Montenegro"><path id="outline" fill="none" stroke-linecap="butt" stroke-linejoin="round" stroke="#fff" stroke-width="2.5" d="M448.5 477.2L455.2 478.7L462 478.7L468.7 477.8L475.4 477.6L482.2 477.3L488.9 477.3L495.6 478.3L502.4 478.2L509.1 478.6L515.8 478.7L522.6 478.5L529.3 478.5L536 478.5"></path><g id="polyline"><polyline id="polyline" points="448.50,477.20 455.20,478.70 462.00,478.70 468.70,477.80 475.40,477.60 482.20,477.30 488.90,477.30 495.60,478.30 502.40,478.20 509.10,478.60 515.80,478.70 522.60,478.50 529.30,478.50 536.00,478.50" stroke-linejoin="round" stroke-width="1.5" stroke="#4C6A9C" fill="none" stroke-linecap="butt"></polyline></g></g><g id="line__Russia"><path id="outline" fill="none" stroke-linecap="butt" stroke-linejoin="round" stroke="#fff" stroke-width="2.5" d="M448.5 464.3L455.2 467.9L462 465.9L468.7 465.2L475.4 467.3L482.2 466.8L488.9 466.4L495.6 466L502.4 465.9L509.1 466.1L515.8 466.1L522.6 467.9L529.3 466.1L536 473.1L542.8 471.4L549.5 472.3L563 474.3L569.7 473.1L576.4 473.8L583.2 473.7L589.9 473.7L596.6 473.7L603.4 474.2L610.1 473.5L616.8 473.1L623.6 473L630.3 473.2L637 461.4L650.5 471.1L657.3 471.5"></path><g id="polyline"><polyline id="polyline" points="448.50,464.30 455.20,467.90 462.00,465.90 468.70,465.20 475.40,467.30 482.20,466.80 488.90,466.40 495.60,466.00 502.40,465.90 509.10,466.10 515.80,466.10 522.60,467.90 529.30,466.10 536.00,473.10 542.80,471.40 549.50,472.30 563.00,474.30 569.70,473.10 576.40,473.80 583.20,473.70 589.90,473.70 596.60,473.70 603.40,474.20 610.10,473.50 616.80,473.10 623.60,473.00 630.30,473.20 637.00,461.40 650.50,471.10 657.30,471.50" stroke-linejoin="round" stroke-width="1.5" stroke="#8C4569" fill="none" stroke-linecap="butt"></polyline></g></g><g id="line__Kazakhstan"><path id="outline" fill="none" stroke-linecap="butt" stroke-linejoin="round" stroke="#fff" stroke-width="2.5" d="M448.5 477.6L455.2 478L462 477.6L468.7 475.5L475.4 473.9L482.2 472.2L488.9 471.2L495.6 474.7L502.4 475L509.1 472.8L515.8 472.3L522.6 473.6L529.3 472.2L536 471.5L542.8 471.1L549.5 471.1L563 471.1L569.7 471.1L576.4 471L637 472.9L650.5 469L657.3 469.7"></path><g id="polyline"><polyline id="polyline" points="448.50,477.60 455.20,478.00 462.00,477.60 468.70,475.50 475.40,473.90 482.20,472.20 488.90,471.20 495.60,474.70 502.40,475.00 509.10,472.80 515.80,472.30 522.60,473.60 529.30,472.20 536.00,471.50 542.80,471.10 549.50,471.10 563.00,471.10 569.70,471.10 576.40,471.00 637.00,472.90 650.50,469.00 657.30,469.70" stroke-linejoin="round" stroke-width="1.5" stroke="#D73C50" fill="none" stroke-linecap="butt"></polyline></g></g><g id="line__Brazil"><path id="outline" fill="none" stroke-linecap="butt" stroke-linejoin="round" stroke="#fff" stroke-width="2.5" d="M367.7 478.7L374.4 478.7L381.1 478.6L387.9 478.5L394.6 478.3L401.3 477.8L408.1 477.1L414.8 476.7L421.6 476.6L428.3 476.7L435 475.6L441.8 475.9L448.5 476.1L455.2 475.2L462 475.2L468.7 475.2L475.4 475.5L482.2 475.5L488.9 475.5L495.6 475.8L502.4 476.6L509.1 476.7L515.8 477.1L522.6 477.3L529.3 477.6L536 477.6L542.8 476.9L549.5 476.9L563 476.9L569.7 476.9L576.4 476.9L583.2 472.9L589.9 472.9L596.6 472.9L603.4 473.3L610.1 473.3L616.8 473.3L623.6 473.3L630.3 470.8L637 472.2L650.5 470.8L657.3 470.8"></path><g id="polyline"><polyline id="polyline" points="367.70,478.70 374.40,478.70 381.10,478.60 387.90,478.50 394.60,478.30 401.30,477.80 408.10,477.10 414.80,476.70 421.60,476.60 428.30,476.70 435.00,475.60 441.80,475.90 448.50,476.10 455.20,475.20 462.00,475.20 468.70,475.20 475.40,475.50 482.20,475.50 488.90,475.50 495.60,475.80 502.40,476.60 509.10,476.70 515.80,477.10 522.60,477.30 529.30,477.60 536.00,477.60 542.80,476.90 549.50,476.90 563.00,476.90 569.70,476.90 576.40,476.90 583.20,472.90 589.90,472.90 596.60,472.90 603.40,473.30 610.10,473.30 616.80,473.30 623.60,473.30 630.30,470.80 637.00,472.20 650.50,470.80 657.30,470.80" stroke-linejoin="round" stroke-width="1.5" stroke="#578145" fill="none" stroke-linecap="butt"></polyline></g></g><g id="line__Yugoslavia"><path id="outline" fill="none" stroke-linecap="butt" stroke-linejoin="round" stroke="#fff" stroke-width="2.5" d="M327.3 478.7L334 478.7L340.7 478.7L347.5 478.7L354.2 478.7L360.9 478.5L367.7 477.8L374.4 477.3L381.1 477.2L387.9 477L394.6 476.8L401.3 476.9L408.1 476.9L414.8 476.6L421.6 476.5L428.3 476.5L435 476.6L441.8 476.8"></path><g id="polyline"><polyline id="polyline" points="327.30,478.70 334.00,478.70 340.70,478.70 347.50,478.70 354.20,478.70 360.90,478.50 367.70,477.80 374.40,477.30 381.10,477.20 387.90,477.00 394.60,476.80 401.30,476.90 408.10,476.90 414.80,476.60 421.60,476.50 428.30,476.50 435.00,476.60 441.80,476.80" stroke-linejoin="round" stroke-width="1.5" stroke="#BE5915" fill="none" stroke-linecap="butt"></polyline></g></g><g id="line__United-States"><path id="outline" fill="none" stroke-linecap="butt" stroke-linejoin="round" stroke="#fff" stroke-width="2.5" d="M327.3 434.3L334 439.4L340.7 439.5L347.5 437.5L354.2 429.8L360.9 425.6L367.7 423.3L374.4 428.4L381.1 445.3L387.9 440.9L394.6 426.6L401.3 429.8L408.1 433.4L414.8 433.8L421.6 427.5L428.3 423.9L435 428.5L441.8 431.4L448.5 429.3L455.2 431L462 432.4L468.7 427.5L475.4 430.7L482.2 433.7L488.9 440.4L495.6 451.7L502.4 444.8L509.1 460.7L515.8 471.5L522.6 475.1L529.3 467.9L536 464.3L542.8 464.3L549.5 464.3L563 464.3L569.7 464.3L576.4 464.3L583.2 464.3L589.9 464.3L596.6 464.3L603.4 464.3L610.1 464.3L616.8 467.9L623.6 475.1L630.3 474.7L637 476.7L650.5 478.5"></path><g id="polyline"><polyline id="polyline" points="327.30,434.30 334.00,439.40 340.70,439.50 347.50,437.50 354.20,429.80 360.90,425.60 367.70,423.30 374.40,428.40 381.10,445.30 387.90,440.90 394.60,426.60 401.30,429.80 408.10,433.40 414.80,433.80 421.60,427.50 428.30,423.90 435.00,428.50 441.80,431.40 448.50,429.30 455.20,431.00 462.00,432.40 468.70,427.50 475.40,430.70 482.20,433.70 488.90,440.40 495.60,451.70 502.40,444.80 509.10,460.70 515.80,471.50 522.60,475.10 529.30,467.90 536.00,464.30 542.80,464.30 549.50,464.30 563.00,464.30 569.70,464.30 576.40,464.30 583.20,464.30 589.90,464.30 596.60,464.30 603.40,464.30 610.10,464.30 616.80,467.90 623.60,475.10 630.30,474.70 637.00,476.70 650.50,478.50" stroke-linejoin="round" stroke-width="1.5" stroke="#6D3E91" fill="none" stroke-linecap="butt"></polyline></g></g><g id="line__USSR"><path id="outline" fill="none" stroke-linecap="butt" stroke-linejoin="round" stroke="#fff" stroke-width="2.5" d="M327.3 457.1L334 457.1L340.7 456L347.5 455.3L354.2 453.5L360.9 452.7L367.7 451.7L374.4 451.3L381.1 450.9L387.9 449.9L394.6 448L401.3 448L408.1 447.7L414.8 447.7L421.6 446.2L428.3 445.9L435 447L441.8 449.9"></path><g id="polyline"><polyline id="polyline" points="327.30,457.10 334.00,457.10 340.70,456.00 347.50,455.30 354.20,453.50 360.90,452.70 367.70,451.70 374.40,451.30 381.10,450.90 387.90,449.90 394.60,448.00 401.30,448.00 408.10,447.70 414.80,447.70 421.60,446.20 428.30,445.90 435.00,447.00 441.80,449.90" stroke-linejoin="round" stroke-width="1.5" stroke="#996D39" fill="none" stroke-linecap="butt"></polyline></g></g><g id="line__Norway"><path id="outline" fill="none" stroke-linecap="butt" stroke-linejoin="round" stroke="#fff" stroke-width="2.5" d="M327.3 464.3L334 464.9L340.7 464.7L347.5 464.9L354.2 464.6L360.9 462.8L367.7 462.7L374.4 461.6L381.1 465.7L387.9 467.9L394.6 460.9L401.3 459L408.1 458.2L414.8 458.2L421.6 460.6L428.3 459.6L435 461.3L441.8 462.7L448.5 467.7L455.2 468.9L462 468.7L468.7 467.2L475.4 465.1L482.2 466.4L488.9 465.9L495.6 464L502.4 463.8L509.1 464L515.8 477.6"></path><g id="polyline"><polyline id="polyline" points="327.30,464.30 334.00,464.90 340.70,464.70 347.50,464.90 354.20,464.60 360.90,462.80 367.70,462.70 374.40,461.60 381.10,465.70 387.90,467.90 394.60,460.90 401.30,459.00 408.10,458.20 414.80,458.20 421.60,460.60 428.30,459.60 435.00,461.30 441.80,462.70 448.50,467.70 455.20,468.90 462.00,468.70 468.70,467.20 475.40,465.10 482.20,466.40 488.90,465.90 495.60,464.00 502.40,463.80 509.10,464.00 515.80,477.60" stroke-linejoin="round" stroke-width="1.5" stroke="#883039" fill="none" stroke-linecap="butt"></polyline></g></g><g id="line__Japan"><path id="outline" fill="none" stroke-linecap="butt" stroke-linejoin="round" stroke="#fff" stroke-width="2.5" d="M327.3 475.6L334 475.6L340.7 474.7L347.5 475.3L354.2 474.7L360.9 474.6L367.7 475.4L374.4 476.7L381.1 476.7L387.9 476.5L394.6 476.1L401.3 475.7L408.1 475.8L414.8 475.8L421.6 475.5L428.3 474.3L435 474.1L441.8 474.5L448.5 476.1L455.2 476L462 477.6"></path><g id="polyline"><polyline id="polyline" points="327.30,475.60 334.00,475.60 340.70,474.70 347.50,475.30 354.20,474.70 360.90,474.60 367.70,475.40 374.40,476.70 381.10,476.70 387.90,476.50 394.60,476.10 401.30,475.70 408.10,475.80 414.80,475.80 421.60,475.50 428.30,474.30 435.00,474.10 441.80,474.50 448.50,476.10 455.20,476.00 462.00,477.60" stroke-linejoin="round" stroke-width="1.5" stroke="#C15065" fill="none" stroke-linecap="butt"></polyline></g></g><g id="line__Italy"><path id="outline" fill="none" stroke-linecap="butt" stroke-linejoin="round" stroke="#fff" stroke-width="2.5" d="M327.3 476L334 476.4L340.7 476.2L347.5 475.5L354.2 475.2L360.9 475.5L367.7 475.2L374.4 474.8L381.1 475.1L387.9 475.2L394.6 475.7L401.3 475.9L408.1 476.1L414.8 476L421.6 476.7L428.3 476.6L435 476.6L441.8 477.3L448.5 478.3"></path><g id="polyline"><polyline id="polyline" points="327.30,476.00 334.00,476.40 340.70,476.20 347.50,475.50 354.20,475.20 360.90,475.50 367.70,475.20 374.40,474.80 381.10,475.10 387.90,475.20 394.60,475.70 401.30,475.90 408.10,476.10 414.80,476.00 421.60,476.70 428.30,476.60 435.00,476.60 441.80,477.30 448.50,478.30" stroke-linejoin="round" stroke-width="1.5" stroke="#2C8465" fill="none" stroke-linecap="butt"></polyline></g></g><g id="line__India"><path id="outline" fill="none" stroke-linecap="butt" stroke-linejoin="round" stroke="#fff" stroke-width="2.5" d="M327.3 478.7L334 478.7L340.7 478.7L448.5 478.3L455.2 478.3L462 478.3L468.7 478.3L475.4 478.3L482.2 478.3L488.9 478.2L495.6 478.3L502.4 478.5L509.1 478.5L515.8 478.5L522.6 478.6L529.3 478.6L536 478.6L542.8 478.6L549.5 478.6L563 478.6L569.7 478.6L576.4 478.6L583.2 478.6"></path><g id="polyline"><polyline id="polyline" points="327.30,478.70 334.00,478.70 340.70,478.70 448.50,478.30 455.20,478.30 462.00,478.30 468.70,478.30 475.40,478.30 482.20,478.30 488.90,478.20 495.60,478.30 502.40,478.50 509.10,478.50 515.80,478.50 522.60,478.60 529.30,478.60 536.00,478.60 542.80,478.60 549.50,478.60 563.00,478.60 569.70,478.60 576.40,478.60 583.20,478.60" stroke-linejoin="round" stroke-width="1.5" stroke="#286BBB" fill="none" stroke-linecap="butt"></polyline></g></g><g id="line__France"><path id="outline" fill="none" stroke-linecap="butt" stroke-linejoin="round" stroke="#fff" stroke-width="2.5" d="M327.3 476.2L334 476L340.7 475.8L347.5 475.6L354.2 475.6L360.9 475.4L367.7 475.3L374.4 476.1L381.1 475.2L387.9 474.7L394.6 474.1L401.3 473.8L408.1 473.9L414.8 473.8L421.6 473.7L428.3 473.4L435 473.4L441.8 473.7L448.5 473.8L455.2 474.7L462 474.2L468.7 473.5L475.4 473.7L482.2 473.7L488.9 473.4L495.6 472.9L502.4 472.8L509.1 477L515.8 478"></path><g id="polyline"><polyline id="polyline" points="327.30,476.20 334.00,476.00 340.70,475.80 347.50,475.60 354.20,475.60 360.90,475.40 367.70,475.30 374.40,476.10 381.10,475.20 387.90,474.70 394.60,474.10 401.30,473.80 408.10,473.90 414.80,473.80 421.60,473.70 428.30,473.40 435.00,473.40 441.80,473.70 448.50,473.80 455.20,474.70 462.00,474.20 468.70,473.50 475.40,473.70 482.20,473.70 488.90,473.40 495.60,472.90 502.40,472.80 509.10,477.00 515.80,478.00" stroke-linejoin="round" stroke-width="1.5" stroke="#578145" fill="none" stroke-linecap="butt"></polyline></g></g><g id="line__China"><path id="outline" fill="none" stroke-linecap="butt" stroke-linejoin="round" stroke="#fff" stroke-width="2.5" d="M327.3 478.3L334 478.3L340.7 476.9L347.5 476.9L354.2 476.5L360.9 476.5L367.7 476.2L374.4 476.2L381.1 476L387.9 475.6L394.6 475.6L401.3 475.5L408.1 475.5L414.8 477.6L421.6 477.5L428.3 477.4L435 476.6L441.8 476.5L448.5 474.9L455.2 473.9L462 470L468.7 444.9L475.4 452.3L482.2 451.3L488.9 453.3L495.6 435.2L502.4 427.5L509.1 406.7L515.8 394L522.6 355.4L529.3 319.2L536 310.1L542.8 289.2L549.5 241L563 289.2L569.7 244L576.4 235.3L583.2 226.9L589.9 200.9L596.6 163.7L603.4 168.8L610.1 164L616.8 152.5L623.6 172.9L630.3 129.3L637 159.2L650.5 142.3L657.3 179.4"></path><g id="polyline"><polyline id="polyline" points="327.30,478.30 334.00,478.30 340.70,476.90 347.50,476.90 354.20,476.50 360.90,476.50 367.70,476.20 374.40,476.20 381.10,476.00 387.90,475.60 394.60,475.60 401.30,475.50 408.10,475.50 414.80,477.60 421.60,477.50 428.30,477.40 435.00,476.60 441.80,476.50 448.50,474.90 455.20,473.90 462.00,470.00 468.70,444.90 475.40,452.30 482.20,451.30 488.90,453.30 495.60,435.20 502.40,427.50 509.10,406.70 515.80,394.00 522.60,355.40 529.30,319.20 536.00,310.10 542.80,289.20 549.50,241.00 563.00,289.20 569.70,244.00 576.40,235.30 583.20,226.90 589.90,200.90 596.60,163.70 603.40,168.80 610.10,164.00 616.80,152.50 623.60,172.90 630.30,129.30 637.00,159.20 650.50,142.30 657.30,179.40" stroke-linejoin="round" stroke-width="1.5" stroke="#CF0A66" fill="none" stroke-linecap="butt"></polyline></g></g><g id="line__Canada"><path id="outline" fill="none" stroke-linecap="butt" stroke-linejoin="round" stroke="#fff" stroke-width="2.5" d="M327.3 476.6L334 477.3L340.7 476.5L347.5 475.9L354.2 475.7L360.9 475.4L367.7 475.4L374.4 475.6L381.1 475.9L387.9 476.5L394.6 476L401.3 475.7L408.1 475.5L414.8 475.3L421.6 475.8L428.3 476.1L435 469.1L441.8 465.9L448.5 469.4L455.2 470.4L462 467.9L468.7 462.1L475.4 462.1L482.2 461L488.9 457.1L495.6 455.6L502.4 455.6L509.1 455.3L515.8 453.5L522.6 460.7L529.3 464.3L536 462.5L542.8 462.5L549.5 475.8"></path><g id="polyline"><polyline id="polyline" points="327.30,476.60 334.00,477.30 340.70,476.50 347.50,475.90 354.20,475.70 360.90,475.40 367.70,475.40 374.40,475.60 381.10,475.90 387.90,476.50 394.60,476.00 401.30,475.70 408.10,475.50 414.80,475.30 421.60,475.80 428.30,476.10 435.00,469.10 441.80,465.90 448.50,469.40 455.20,470.40 462.00,467.90 468.70,462.10 475.40,462.10 482.20,461.00 488.90,457.10 495.60,455.60 502.40,455.60 509.10,455.30 515.80,453.50 522.60,460.70 529.30,464.30 536.00,462.50 542.80,462.50 549.50,475.80" stroke-linejoin="round" stroke-width="1.5" stroke="#18470F" fill="none" stroke-linecap="butt"></polyline></g></g><g id="line__World"><path id="outline" fill="none" stroke-linecap="butt" stroke-linejoin="round" stroke="#fff" stroke-width="2.5" d="M78.1 471.6L84.8 470.1L91.6 468.1L98.3 465.1L105 457.1L111.8 440.8L118.5 392.9L125.2 400.1L132 456.3L138.7 470L145.4 467.2L152.2 467.5L158.9 466.4L165.7 462.3L172.4 448.9L179.1 424.6L185.9 423.5L192.6 435.8L199.3 435.1L206.1 441.6L212.8 436.5L219.5 453L226.3 451.8L233 445.2L239.7 440.8L246.5 430.4L253.2 427.1L259.9 424.2L266.7 420.3L273.4 419.9L280.1 412L286.9 410.5L293.6 407.3L300.3 399.4L307.1 395L313.8 394.3L320.5 392.2L334 394L340.7 388.9L347.5 386L354.2 374.8L360.9 368L367.7 364.7L374.4 367.6L381.1 387.1L387.9 384.9L394.6 360.4L401.3 361.5L408.1 362.6L414.8 361.9L421.6 358.3L428.3 354.7L435 351L441.8 355.4L448.5 372.3L455.2 381.7L462 377L468.7 336.3L475.4 342.4L482.2 340.2L488.9 335.9L502.4 326.5L509.1 327.2L515.8 322.9L522.6 295.2L529.3 264.1L536 254.4L542.8 235.3L549.5 207.9L556.2 237.1L563 266.7L569.7 202.8L576.4 188.1L583.2 175.8L589.9 150.6L596.6 119.9L603.4 128.9L610.1 120.6L616.8 100.1L623.6 123.5L630.3 89.3L637 118.1L643.8 136.1L650.5 100.1L657.3 139.7"></path><g id="polyline"><polyline id="polyline" points="78.10,471.60 84.80,470.10 91.60,468.10 98.30,465.10 105.00,457.10 111.80,440.80 118.50,392.90 125.20,400.10 132.00,456.30 138.70,470.00 145.40,467.20 152.20,467.50 158.90,466.40 165.70,462.30 172.40,448.90 179.10,424.60 185.90,423.50 192.60,435.80 199.30,435.10 206.10,441.60 212.80,436.50 219.50,453.00 226.30,451.80 233.00,445.20 239.70,440.80 246.50,430.40 253.20,427.10 259.90,424.20 266.70,420.30 273.40,419.90 280.10,412.00 286.90,410.50 293.60,407.30 300.30,399.40 307.10,395.00 313.80,394.30 320.50,392.20 334.00,394.00 340.70,388.90 347.50,386.00 354.20,374.80 360.90,368.00 367.70,364.70 374.40,367.60 381.10,387.10 387.90,384.90 394.60,360.40 401.30,361.50 408.10,362.60 414.80,361.90 421.60,358.30 428.30,354.70 435.00,351.00 441.80,355.40 448.50,372.30 455.20,381.70 462.00,377.00 468.70,336.30 475.40,342.40 482.20,340.20 488.90,335.90 502.40,326.50 509.10,327.20 515.80,322.90 522.60,295.20 529.30,264.10 536.00,254.40 542.80,235.30 549.50,207.90 556.20,237.10 563.00,266.70 569.70,202.80 576.40,188.10 583.20,175.80 589.90,150.60 596.60,119.90 603.40,128.90 610.10,120.60 616.80,100.10 623.60,123.50 630.30,89.30 637.00,118.10 643.80,136.10 650.50,100.10 657.30,139.70" stroke-linejoin="round" stroke-width="1.5" stroke="#C15065" fill="none" stroke-linecap="butt"></polyline></g></g></g></g></g></g><g id="footer" class="SourcesFooter" style="fill:#5b5b5b"><g id="sources" class="markdown-text-wrap"><text x="16.0" y="528.3" style="font-size:13.5px;line-height:1.2"><tspan x="16" y="528.3"><tspan style="font-weight:700">Data source:</tspan> USGS - Mineral Commodity Summaries (2024); USGS - Historical Statistics for Mineral and Material Commodities (2023);</tspan><tspan x="16" y="544.5">BGS - World Mineral Statistics (2023)</tspan></text></g><g id="note" class="markdown-text-wrap"><text x="16.0" y="562.7" style="font-size:13.5px;line-height:1.2"><tspan x="16" y="562.7"><tspan style="font-weight:700">Note:</tspan> The sum of all countries may exceed World data on certain years (by up to 10%), due to discrepancies between data sources.</tspan></text></g><text id="origin-url" font-size="13.50" x="16.0" y="580.9"><tspan x="16" y="580.8950000000001"><a target="_blank" style="fill: #5b5b5b;" href="https://creativecommons.org/licenses/by/4.0/">CC BY</a></tspan></text></g><line id="separator-line" x1="16" y1="600" x2="834" y2="600" stroke="#e7e7e7"></line><g id="details" transform="translate(15, 616)"><g class="markdown-text-wrap"><text x="0.0" y="12.0" style="font-size:12.375px;fill:#5b5b5b;line-height:1.2"><tspan x="0" y="12.0"><tspan style="font-weight:700">1.</tspan> <tspan style="font-weight:700">Smelting</tspan>: Smelting is a process used to extract metals from their ores. It involves heating the ore to a very high temperature in a furnace. This</tspan><tspan x="0" y="26.9">heat causes the metal inside the ore to separate from other unwanted materials, like rocks and minerals. Often, a substance called a &quot;reducing</tspan><tspan x="0" y="41.7">agent&quot; such as carbon (in the form of coke), is added to help pull the metal out. The result is a more purified form of the metal, which can then be</tspan><tspan x="0" y="56.6">further refined or used to make products. Smelting is a crucial step in the production of many metals, like iron, copper, and aluminum, transforming</tspan><tspan x="0" y="71.4">raw minerals from the earth into usable materials.</tspan></text></g></g></svg>