<svg xmlns="http://www.w3.org/2000/svg" version="1.1" style="font-family:Lato, &#x27;Helvetica Neue&#x27;, Helvetica, Arial, &#x27;Liberation Sans&#x27;, sans-serif;font-size:18px;background-color:white;text-rendering:geometricPrecision;-webkit-font-smoothing:antialiased" width="850" height="729.1" viewBox="0 0 850 729.1"><defs><style>@import url(https://ourworldindata.org/fonts.css)</style></defs><defs><pattern id="noDataPattern" patternUnits="userSpaceOnUse" width="4" height="4" patternTransform="rotate(-45 2 2)"><path d="M -1,2 l 6,0" stroke="#ccc" stroke-width="0.7"></path></pattern></defs><rect class="background-fill" fill="white" width="850" height="729.1"></rect><g id="header" class="HeaderView"><g id="logo" transform="translate(769, 16) scale(1)"><svg className="owidLogo" xmlns="http://www.w3.org/2000/svg" width="65" height="36" viewBox="0 0 65 36"  fill="none"><path fill="#002147" d="M0 0h64.8v36H0z"/><path fill="#CE261E" d="M0 33.3h64.8V36H0z"/><path fill="#fff" d="M13.796 10.575c0 .636-.106 1.226-.318 1.77a4.193 4.193 0 0 1-.894 1.404 4.084 4.084 0 0 1-1.386.93c-.54.22-1.138.33-1.794.33-.656 0-1.256-.11-1.8-.33a4.149 4.149 0 0 1-1.392-.93 4.193 4.193 0 0 1-.894-1.404A4.833 4.833 0 0 1 5 10.575c0-.636.106-1.224.318-1.764a4.18 4.18 0 0 1 .894-1.41 4.076 4.076 0 0 1 1.392-.924 4.684 4.684 0 0 1 1.8-.336c.656 0 1.254.112 1.794.336.54.224 1.002.534 1.386.93.384.392.682.86.894 1.404.212.54.318 1.128.318 1.764Zm-1.656 0c0-.476-.064-.902-.192-1.278a2.671 2.671 0 0 0-.54-.966 2.332 2.332 0 0 0-.864-.606 2.94 2.94 0 0 0-1.14-.21c-.424 0-.806.07-1.146.21-.34.14-.63.342-.87.606a2.742 2.742 0 0 0-.546.966 3.955 3.955 0 0 0-.192 1.278c0 .476.064.904.192 1.284.128.376.31.696.546.96.24.26.53.46.87.6.34.14.722.21 1.146.21.424 0 .804-.07 1.14-.21.34-.14.628-.34.864-.6.236-.264.416-.584.54-.96a4.01 4.01 0 0 0 .192-1.284ZM16.104 8.757v3.912c0 .376.086.668.258.876.176.204.438.306.786.306.256 0 .496-.056.72-.168a2.58 2.58 0 0 0 .636-.474V8.757h1.482v6.156h-.906c-.192 0-.318-.09-.378-.27l-.102-.492a4.65 4.65 0 0 1-.396.354 2.577 2.577 0 0 1-.438.27 2.35 2.35 0 0 1-.498.168 2.345 2.345 0 0 1-.57.066c-.336 0-.634-.056-.894-.168a1.821 1.821 0 0 1-.648-.486 2.157 2.157 0 0 1-.402-.738 3.233 3.233 0 0 1-.132-.948V8.757h1.482ZM21.328 14.913V8.757h.87c.152 0 .258.028.318.084.06.056.1.152.12.288l.09.744c.22-.38.478-.68.774-.9.296-.22.628-.33.996-.33.304 0 .556.07.756.21l-.192 1.11c-.012.072-.038.124-.078.156a.278.278 0 0 1-.162.042 1.01 1.01 0 0 1-.246-.042 1.646 1.646 0 0 0-.414-.042c-.308 0-.572.086-.792.258-.22.168-.406.416-.558.744v3.834h-1.482ZM27.347 6.237h1.356a.57.57 0 0 1 .348.102c.096.064.16.152.192.264l1.476 5.19c.036.128.068.268.096.42.032.148.062.306.09.474a5.968 5.968 0 0 1 .228-.894l1.704-5.19a.575.575 0 0 1 .186-.252.543.543 0 0 1 .348-.114h.474a.57.57 0 0 1 .348.102.497.497 0 0 1 .192.264l1.692 5.19c.088.256.164.54.228.852.028-.156.056-.306.084-.45.032-.144.064-.278.096-.402l1.476-5.19c.028-.1.09-.186.186-.258a.563.563 0 0 1 .348-.108h1.266l-2.694 8.676h-1.458l-1.896-5.928-.078-.246a9.504 9.504 0 0 1-.072-.282c-.024.1-.05.194-.078.282-.024.088-.048.17-.072.246l-1.914 5.928H30.04l-2.694-8.676ZM42.771 8.661c.46 0 .876.074 1.248.222.376.148.696.358.96.63s.468.604.612.996c.144.392.216.83.216 1.314 0 .488-.072.928-.216 1.32a2.85 2.85 0 0 1-.612 1.002 2.653 2.653 0 0 1-.96.636 3.35 3.35 0 0 1-1.248.222c-.46 0-.878-.074-1.254-.222a2.712 2.712 0 0 1-.966-.636 2.922 2.922 0 0 1-.618-1.002 3.807 3.807 0 0 1-.216-1.32c0-.484.072-.922.216-1.314.148-.392.354-.724.618-.996.268-.272.59-.482.966-.63a3.397 3.397 0 0 1 1.254-.222Zm0 5.202c.512 0 .89-.172 1.134-.516.248-.344.372-.848.372-1.512s-.124-1.17-.372-1.518c-.244-.348-.622-.522-1.134-.522-.52 0-.904.176-1.152.528-.248.348-.372.852-.372 1.512s.124 1.164.372 1.512c.248.344.632.516 1.152.516ZM46.723 14.913V8.757h.87c.152 0 .258.028.318.084.06.056.1.152.12.288l.09.744c.22-.38.478-.68.774-.9.296-.22.628-.33.996-.33.304 0 .556.07.756.21l-.192 1.11c-.012.072-.038.124-.078.156a.278.278 0 0 1-.162.042 1.01 1.01 0 0 1-.246-.042 1.646 1.646 0 0 0-.414-.042c-.308 0-.572.086-.792.258-.22.168-.406.416-.558.744v3.834h-1.482ZM52.96 5.997v8.916h-1.482V5.997h1.482ZM58.732 14.913c-.192 0-.318-.09-.378-.27l-.12-.594a3.68 3.68 0 0 1-.402.39c-.14.116-.292.216-.456.3-.16.084-.334.148-.522.192a2.372 2.372 0 0 1-.6.072c-.336 0-.644-.07-.924-.21a2.098 2.098 0 0 1-.726-.606 3.033 3.033 0 0 1-.468-.99 5.072 5.072 0 0 1-.162-1.344c0-.456.062-.88.186-1.272s.302-.732.534-1.02c.232-.288.51-.512.834-.672a2.384 2.384 0 0 1 1.092-.246 2.103 2.103 0 0 1 1.536.606V5.997h1.482v8.916h-.906Zm-1.974-1.086c.308 0 .57-.064.786-.192.216-.128.42-.31.612-.546v-2.76a1.452 1.452 0 0 0-.552-.432 1.597 1.597 0 0 0-.636-.126c-.224 0-.428.042-.612.126a1.21 1.21 0 0 0-.462.384c-.124.168-.22.384-.288.648-.068.26-.102.568-.102.924 0 .36.028.666.084.918.06.248.144.452.252.612.108.156.24.27.396.342.156.068.33.102.522.102ZM16.331 20.757v6.156H14.85v-6.156h1.481Zm.223-1.794a.844.844 0 0 1-.078.36.963.963 0 0 1-.21.294.995.995 0 0 1-.3.204.963.963 0 0 1-.372.072.948.948 0 0 1-.367-.072 1.018 1.018 0 0 1-.498-.498.963.963 0 0 1 0-.732.995.995 0 0 1 .205-.3.929.929 0 0 1 .293-.198.899.899 0 0 1 .738 0 .912.912 0 0 1 .3.198.943.943 0 0 1 .288.672ZM17.771 26.913v-6.156h.906c.192 0 .318.09.378.27l.102.486a2.934 2.934 0 0 1 .828-.618c.156-.076.322-.134.498-.174.176-.04.368-.06.576-.06.336 0 .634.058.894.174.26.112.476.272.648.48.176.204.308.45.396.738.092.284.138.598.138.942v3.918h-1.482v-3.918c0-.376-.088-.666-.264-.87-.172-.208-.432-.312-.78-.312-.256 0-.496.058-.72.174a2.58 2.58 0 0 0-.636.474v4.452h-1.482ZM34.22 22.575c0 .636-.106 1.22-.318 1.752-.212.532-.51.99-.894 1.374a4 4 0 0 1-1.386.894 4.87 4.87 0 0 1-1.794.318h-3.312v-8.676h3.312a4.79 4.79 0 0 1 1.794.324 4 4 0 0 1 1.386.894c.384.38.682.836.894 1.368.212.532.318 1.116.318 1.752Zm-1.65 0c0-.476-.064-.902-.192-1.278a2.68 2.68 0 0 0-.546-.96 2.332 2.332 0 0 0-.864-.606 2.94 2.94 0 0 0-1.14-.21h-1.686v6.108h1.686c.424 0 .804-.07 1.14-.21.34-.14.628-.34.864-.6a2.75 2.75 0 0 0 .546-.96 4.01 4.01 0 0 0 .192-1.284ZM39.98 26.913h-.665c-.14 0-.25-.02-.33-.06-.08-.044-.14-.13-.18-.258l-.132-.438c-.156.14-.31.264-.462.372a2.804 2.804 0 0 1-.462.264c-.16.072-.33.126-.51.162-.18.036-.38.054-.6.054-.26 0-.5-.034-.72-.102a1.618 1.618 0 0 1-.57-.318 1.448 1.448 0 0 1-.366-.522 1.852 1.852 0 0 1-.132-.726c0-.232.06-.46.18-.684.124-.228.328-.432.612-.612.284-.184.662-.336 1.134-.456.472-.12 1.058-.188 1.758-.204v-.36c0-.412-.088-.716-.264-.912-.172-.2-.424-.3-.756-.3a1.837 1.837 0 0 0-1.02.276c-.116.068-.224.13-.324.186a.664.664 0 0 1-.33.084.429.429 0 0 1-.258-.078.614.614 0 0 1-.174-.192l-.27-.474c.708-.648 1.562-.972 2.562-.972.36 0 .68.06.96.18.284.116.524.28.72.492.196.208.344.458.444.75.104.292.156.612.156.96v3.888Zm-2.88-.924c.153 0 .293-.014.42-.042.129-.028.249-.07.36-.126.117-.056.227-.124.33-.204.109-.084.217-.182.325-.294v-1.038c-.432.02-.794.058-1.086.114-.288.052-.52.12-.696.204a.923.923 0 0 0-.378.294.664.664 0 0 0-.108.366c0 .26.076.446.228.558.156.112.358.168.606.168ZM43.22 27.01c-.532 0-.942-.15-1.23-.45-.288-.305-.432-.723-.432-1.255v-3.438h-.624a.31.31 0 0 1-.21-.078c-.056-.052-.084-.13-.084-.234v-.588l.99-.162.312-1.68a.302.302 0 0 1 .108-.186.365.365 0 0 1 .222-.066h.768v1.938h1.62v1.056h-1.62v3.336c0 .192.048.342.144.45a.488.488 0 0 0 .384.162c.092 0 .168-.01.228-.03.064-.024.118-.048.162-.072.048-.024.09-.046.126-.066a.194.194 0 0 1 .108-.036.16.16 0 0 1 .108.036c.028.02.058.052.09.096l.444.72c-.216.18-.464.316-.744.408a2.77 2.77 0 0 1-.87.138ZM50.423 26.913h-.666c-.14 0-.25-.02-.33-.06-.08-.044-.14-.13-.18-.258l-.132-.438c-.156.14-.31.264-.462.372a2.804 2.804 0 0 1-.462.264c-.16.072-.33.126-.51.162-.18.036-.38.054-.6.054-.26 0-.5-.034-.72-.102a1.618 1.618 0 0 1-.57-.318 1.448 1.448 0 0 1-.366-.522 1.852 1.852 0 0 1-.132-.726c0-.232.06-.46.18-.684.124-.228.328-.432.612-.612.284-.184.662-.336 1.134-.456.472-.12 1.058-.188 1.758-.204v-.36c0-.412-.088-.716-.264-.912-.172-.2-.424-.3-.756-.3a1.837 1.837 0 0 0-1.02.276c-.116.068-.224.13-.324.186a.664.664 0 0 1-.33.084.429.429 0 0 1-.258-.078.614.614 0 0 1-.174-.192l-.27-.474c.708-.648 1.562-.972 2.562-.972.36 0 .68.06.96.18.284.116.524.28.72.492.196.208.344.458.444.75.104.292.156.612.156.96v3.888Zm-2.88-.924c.152 0 .292-.014.42-.042.128-.028.248-.07.36-.126.116-.056.226-.124.33-.204.108-.084.216-.182.324-.294v-1.038c-.432.02-.794.058-1.086.114-.288.052-.52.12-.696.204a.923.923 0 0 0-.378.294.664.664 0 0 0-.108.366c0 .26.076.446.228.558.156.112.358.168.606.168Z"/></svg></g><a id="title" href="https://ourworldindata.org/explorers/minerals?Mineral=Vanadium&amp;Metric=Production&amp;Type=Mine%2C+ilmenite&amp;Share+of+global=false&amp;country=AUS~CHL~CHN~USA~CAN~ALB~DZA~ARG~ARM~AUT~AZE~BOL~OWID_WRL~BWA~BRA~BGR~COL~COG~CUB~CYP~OWID_CZS~COD~DOM~OWID_GDR~ZWE~ZMB~OWID_YGS~OWID_GFR~VNM~UZB~GBR~UGA~OWID_USS~TUR~TZA~TJK~TWN~SWE~ESP~KOR~ZAF~SVK~OWID_SRM~SRB~SAU~RUS~ROU~PRT~POL~PHL~PER~PNG~PAN~PAK~OMN~NOR~MKD~PRK~NIC~NZL~NAM~MMR~MOZ~MAR~MNG~MEX~MRT~MYS~LAO~KGZ~KEN~KAZ~JPN~ITA~ISR~IRL~IRN~IDN~IND~HUN~HND~HTI~GTM~GRC~DEU~GEO~FRA~FIN~ERI~ECU~VEN~ARE~UKR~CHE~SUR~LKA~SVN~QAT~NGA~NLD~MNE~ISL~GHA~EGY~HRV~CMR~BIH~BHR~AFG~OWID_KOS~MDG~NCL~SDN~Other~CZE~THA~TUN~CIV~GAB~RWA~NER~ETH~BDI~GRL~BLR~JOR~BEL~SEN~SLE~SGP~MWI" style="font-family:&#x27;Playfair Display&#x27;, Georgia, &#x27;Times New Roman&#x27;, &#x27;Liberation Serif&#x27;, serif" target="_blank" rel="noopener"><text font-size="24.75" font-weight="600" x="16.0" y="40.0" fill="#5b5b5b"><tspan x="16" y="40.0075">Vanadium production, 1901 to 2023</tspan></text></a><g id="subtitle" class="markdown-text-wrap"><text x="16.0" y="63.9" style="font-size:14.625px;line-height:1.2" fill="#5b5b5b"><tspan x="16" y="63.9">Production of <tspan class="dod-span" data-id="vanadium">vanadium<tspan style="font-feature-settings:&quot;sups&quot;">¹</tspan></tspan>, in tonnes. Based on mined, rather than <tspan class="dod-span" data-id="refined-production">refined<tspan style="font-feature-settings:&quot;sups&quot;">²</tspan></tspan>, production.</tspan></text></g></g><g id="chart-area" style="pointer-events:none"><g id="line-chart" class="LineChart"><defs><clipPath id="boundsClip-118"><rect x="67.7" y="73.25" width="838" height="470.35"></rect></clipPath></defs><rect x="16" y="83.25" width="818" height="450.35" fill="none"></rect><g id="dual-axis" class="DualAxisView"><g id="horizontal-axis" class="HorizontalAxis"><g id="tick__1901"><line x1="77.7" y1="512.6" x2="77.7" y2="518.1" stroke="#999" stroke-width="1"></line><text x="77.7" y="531.6" fill="#5b5b5b" text-anchor="start" font-size="13.5">1901</text></g><g id="tick__2023"><line x1="717.6" y1="512.6" x2="717.6" y2="518.1" stroke="#999" stroke-width="1"></line><text x="717.595" y="531.6" fill="#5b5b5b" text-anchor="end" font-size="13.5">2023</text></g><g id="tick__1920"><line x1="177.4" y1="512.6" x2="177.4" y2="518.1" stroke="#999" stroke-width="1"></line><text x="177.4" y="531.6" fill="#5b5b5b" text-anchor="middle" font-size="13.5">1920</text></g><g id="tick__1940"><line x1="282.3" y1="512.6" x2="282.3" y2="518.1" stroke="#999" stroke-width="1"></line><text x="282.3" y="531.6" fill="#5b5b5b" text-anchor="middle" font-size="13.5">1940</text></g><g id="tick__1960"><line x1="387.2" y1="512.6" x2="387.2" y2="518.1" stroke="#999" stroke-width="1"></line><text x="387.2" y="531.6" fill="#5b5b5b" text-anchor="middle" font-size="13.5">1960</text></g><g id="tick__1980"><line x1="492.1" y1="512.6" x2="492.1" y2="518.1" stroke="#999" stroke-width="1"></line><text x="492.1" y="531.6" fill="#5b5b5b" text-anchor="middle" font-size="13.5">1980</text></g><g id="tick__2000"><line x1="597" y1="512.6" x2="597" y2="518.1" stroke="#999" stroke-width="1"></line><text x="597" y="531.6" fill="#5b5b5b" text-anchor="middle" font-size="13.5">2000</text></g></g><g id="vertical-axis" class="VerticalAxis"><g id="tick-labels"><text id="tick-label__0-t" x="72.70" y="513.1" dy=".32em" text-anchor="end" fill="#5b5b5b" font-size="13.5">0 t</text><text id="tick-label__20__002c000-t" x="72.70" y="432.4" dy=".32em" text-anchor="end" fill="#5b5b5b" font-size="13.5">20,000 t</text><text id="tick-label__40__002c000-t" x="72.70" y="351.6" dy=".32em" text-anchor="end" fill="#5b5b5b" font-size="13.5">40,000 t</text><text id="tick-label__60__002c000-t" x="72.70" y="270.9" dy=".32em" text-anchor="end" fill="#5b5b5b" font-size="13.5">60,000 t</text><text id="tick-label__80__002c000-t" x="72.70" y="190.2" dy=".32em" text-anchor="end" fill="#5b5b5b" font-size="13.5">80,000 t</text><text id="tick-label__100__002c000-t" x="72.70" y="109.4" dy=".32em" text-anchor="end" fill="#5b5b5b" font-size="13.5">100,000 t</text></g></g><g id="horizontal-grid-lines" class="AxisGridLines horizontalLines"><line id="grid-line__0" x1="77.70" y1="513.1" x2="717.60" y2="513.1" stroke="#999" stroke-width="1"></line><line id="grid-line__20000" x1="77.70" y1="432.4" x2="717.60" y2="432.4" stroke="#ddd" stroke-width="1" stroke-dasharray="3,2"></line><line id="grid-line__40000" x1="77.70" y1="351.6" x2="717.60" y2="351.6" stroke="#ddd" stroke-width="1" stroke-dasharray="3,2"></line><line id="grid-line__60000" x1="77.70" y1="270.9" x2="717.60" y2="270.9" stroke="#ddd" stroke-width="1" stroke-dasharray="3,2"></line><line id="grid-line__80000" x1="77.70" y1="190.2" x2="717.60" y2="190.2" stroke="#ddd" stroke-width="1" stroke-dasharray="3,2"></line><line id="grid-line__100000" x1="77.70" y1="109.4" x2="717.60" y2="109.4" stroke="#ddd" stroke-width="1" stroke-dasharray="3,2"></line></g></g><g clip-path="url(#boundsClip-118)"><g id="line-labels" class="LineLabels"><g id="mark__World" class="legendMark" style="cursor:default"><rect id="background" x="717.595" y="102.65" width="70.235" height="13.5" fill="#fff" opacity="0"></rect><text id="label" font-size="13.50" font-weight="400" x="721.6" y="114.4" fill="#c15065"><tspan x="721.595" y="114.39500000000001">World</tspan></text></g><g id="mark__China" class="legendMark" style="cursor:default"><rect id="background" x="717.595" y="231.85" width="70.37" height="13.5" fill="#fff" opacity="0"></rect><text id="label" font-size="13.50" font-weight="400" x="721.6" y="243.6" fill="#cf0a66"><tspan x="721.595" y="243.595">China</tspan></text></g><g id="mark__Russia" class="legendMark" style="cursor:default"><rect id="background" x="717.595" y="425.65" width="76.31" height="13.5" fill="#fff" opacity="0"></rect><text id="label" font-size="13.50" font-weight="400" x="721.6" y="437.4" fill="#8c4569"><tspan x="721.595" y="437.395">Russia</tspan></text></g><g id="mark__South-Africa" class="legendMark" style="cursor:default"><rect id="background" x="717.595" y="467.35" width="108.845" height="13.5" fill="#fff" opacity="0"></rect><text id="label" font-size="13.50" font-weight="400" x="721.6" y="479.1" fill="#00847e"><tspan x="721.595" y="479.095">South Africa</tspan></text></g><g id="mark__Brazil" class="legendMark" style="cursor:default"><rect id="background" x="717.595" y="482.85" width="68.75" height="13.5" fill="#fff" opacity="0"></rect><text id="label" font-size="13.50" font-weight="400" x="721.6" y="494.6" fill="#578145"><tspan x="721.595" y="494.595">Brazil</tspan></text></g><g id="mark__United-States" class="legendMark" style="cursor:default"><rect id="background" x="717.595" y="498.6" width="116.405" height="13.5" fill="#fff" opacity="0"></rect><text id="label" font-size="13.50" font-weight="400" x="721.6" y="510.3" fill="#6d3e91"><tspan x="721.595" y="510.345">United States</tspan></text></g><g id="mark__Australia" class="legendMark" style="cursor:default"><rect id="background" x="717.595" y="514.1" width="87.65" height="13.5" fill="#fff" opacity="0"></rect><text id="label" font-size="13.50" font-weight="400" x="721.6" y="525.8" fill="#2c8465"><tspan x="721.595" y="525.845">Australia</tspan></text></g></g><g id="lines" class="Lines"><rect x="78" y="89" width="640" height="424" fill="rgba(255,255,255,0)" opacity="0"></rect><g id="line__South-Africa"><path stroke-linecap="round" stroke-linejoin="round" stroke="#ddd" d="M701.9 478.5L707.1 477.6L712.3 477.3L717.6 476.4" fill="none" stroke-width="1"></path></g><g id="line__Russia"><path stroke-linecap="round" stroke-linejoin="round" stroke="#ddd" d="M701.9 434.4L707.1 432L712.3 432.4L717.6 432.4" fill="none" stroke-width="1"></path></g><g id="line__China"><path stroke-linecap="round" stroke-linejoin="round" stroke="#ddd" d="M701.9 230.5L707.1 229.3L712.3 243L717.6 238.6" fill="none" stroke-width="1"></path></g><g id="line__Brazil"><path stroke-linecap="round" stroke-linejoin="round" stroke="#ddd" d="M701.9 486.4L707.1 489.8L712.3 489.5L717.6 487.3" fill="none" stroke-width="1"></path></g><g id="line__Australia"><path stroke-linecap="round" stroke-linejoin="round" stroke="#ddd" d="M701.9 513.1L707.1 513.1L712.3 513.1L717.6 513.1" fill="none" stroke-width="1"></path></g><g id="line__World"><path stroke-linecap="round" stroke-linejoin="round" stroke="#ddd" d="M135.4 508.9L151.1 507.6L156.4 508.3L161.6 508L166.9 511.1L172.1 510.8L177.4 506.5L203.6 508.4L208.8 506.2L240.3 511.2L245.5 511.9L250.8 512.6L256 511.4L261.3 509.2L266.5 505.2L271.8 502.6L277 501.4L282.3 500.9L287.5 501.9L292.7 497.5L298 495.4L303.2 499L308.5 502.3L313.7 507.5L319 506.1L387.2 492.8L392.4 481.4L397.6 488.6L402.9 486.9L408.1 484.2L413.4 479.6L418.6 479L423.9 474.3L429.1 467.1L434.4 471.5L439.6 453L444.9 449.3L450.1 450.5L455.3 448.5L460.6 430.8L465.8 425.9L471.1 395.2L476.3 396L481.6 394.4L486.8 360.9L492.1 368.2L497.3 370.6L502.5 403.3L507.8 403.3L513 387.6L518.3 388L523.5 383.9L528.8 383.9L534 379.9L539.3 379.9L544.5 379.1L549.8 406.5L555 405.3L560.2 412.2L565.5 383.9L570.7 367.8L576 371.4L597 347.6L602.2 344.4L607.4 307.2L612.7 319.7L617.9 303.6L623.2 285.4L628.4 279.4L633.7 277L638.9 264.4L644.2 275.7L649.4 223.7L654.7 224.5L659.9 210.8L665.1 184.5L670.4 142.5L675.6 167.2L680.9 197.4L686.1 159.1L691.4 150.6L696.6 138.5L701.9 89.3L707.1 89.3L712.3 101.4L717.6 109.4" fill="none" stroke-width="1"></path></g><g id="line__United-States"><path stroke-linecap="round" stroke-linejoin="round" stroke="#ddd" d="M77.7 513.1L82.9 512.8L109.2 513L130.2 512.9L135.4 512L140.6 511.5L145.9 511.4L151.1 510.8L156.4 511.4L161.6 511.3L166.9 512.1L172.1 512.1L177.4 511.2L182.6 512.4L187.8 513L193.1 512.9L203.6 512.6L208.8 511.9L240.3 512.1L245.5 513.1L250.8 513.1L256 513L261.3 512.8L266.5 511.1L271.8 510.1L277 509.5L282.3 509.1L287.5 508.5L292.7 505L298 502.9L303.2 506.6L308.5 507.7L313.7 510.8L319 507.9L324.2 509.8L329.5 500.2L334.7 504.7L340 501.8L345.2 499.9L350.4 496.1L355.7 501.6L360.9 501.1L366.2 498.9L371.4 499.6L376.7 502L381.9 498.1L387.2 494.9L392.4 493.5L397.6 494L402.9 499L408.1 497.1L413.4 494L418.6 494.2L423.9 494.9L429.1 489.4L434.4 492.7L439.6 493.6L444.9 493.8L450.1 495.2L455.3 495.3L460.6 493.4L465.8 495.3L471.1 490.4L476.3 494L481.6 490L486.8 486.1L492.1 487.4L497.3 482.8L502.5 489.7L507.8 500.9L513 497.3L518.3 503.2L523.5 504.6L528.8 503.9L534 501.2L539.3 503.5L544.5 503.8L549.8 504L555 507.7L560.2 501.5L565.5 501.7L570.7 505.1L576 498L597 513.1L602.2 513.1L607.4 513.1L612.7 513.1L617.9 513.1L623.2 513.1L628.4 513.1L633.7 513.1L638.9 511L644.2 512.2L649.4 508.8L654.7 510.7L659.9 512.7L665.1 510.7L670.4 513.1L675.6 513.1L680.9 513.1L686.1 513.1L691.4 513.1L696.6 511.2L701.9 513L707.1 513.1L712.3 513.1L717.6 513.1" fill="none" stroke-width="1"></path></g><g id="line__South-Africa"><path id="outline" fill="none" stroke-linecap="butt" stroke-linejoin="round" stroke="#fff" stroke-width="2.5" d="M701.9 478.5L707.1 477.6L712.3 477.3L717.6 476.4"></path><g id="polyline"><polyline id="polyline" points="701.90,478.50 707.10,477.60 712.30,477.30 717.60,476.40" stroke-linejoin="round" stroke-width="1.5" stroke="#00847E" fill="none" stroke-linecap="butt"></polyline></g><g id="markers"><circle cx="701.9" cy="478.5" r="1.8" fill="#00847E"></circle><circle cx="707.1" cy="477.6" r="1.8" fill="#00847E"></circle><circle cx="712.3" cy="477.3" r="1.8" fill="#00847E"></circle><circle cx="717.6" cy="476.4" r="1.8" fill="#00847E"></circle></g></g><g id="line__Russia"><path id="outline" fill="none" stroke-linecap="butt" stroke-linejoin="round" stroke="#fff" stroke-width="2.5" d="M701.9 434.4L707.1 432L712.3 432.4L717.6 432.4"></path><g id="polyline"><polyline id="polyline" points="701.90,434.40 707.10,432.00 712.30,432.40 717.60,432.40" stroke-linejoin="round" stroke-width="1.5" stroke="#8C4569" fill="none" stroke-linecap="butt"></polyline></g><g id="markers"><circle cx="701.9" cy="434.4" r="1.8" fill="#8C4569"></circle><circle cx="707.1" cy="432" r="1.8" fill="#8C4569"></circle><circle cx="712.3" cy="432.4" r="1.8" fill="#8C4569"></circle><circle cx="717.6" cy="432.4" r="1.8" fill="#8C4569"></circle></g></g><g id="line__China"><path id="outline" fill="none" stroke-linecap="butt" stroke-linejoin="round" stroke="#fff" stroke-width="2.5" d="M701.9 230.5L707.1 229.3L712.3 243L717.6 238.6"></path><g id="polyline"><polyline id="polyline" points="701.90,230.50 707.10,229.30 712.30,243.00 717.60,238.60" stroke-linejoin="round" stroke-width="1.5" stroke="#CF0A66" fill="none" stroke-linecap="butt"></polyline></g><g id="markers"><circle cx="701.9" cy="230.5" r="1.8" fill="#CF0A66"></circle><circle cx="707.1" cy="229.3" r="1.8" fill="#CF0A66"></circle><circle cx="712.3" cy="243" r="1.8" fill="#CF0A66"></circle><circle cx="717.6" cy="238.6" r="1.8" fill="#CF0A66"></circle></g></g><g id="line__Brazil"><path id="outline" fill="none" stroke-linecap="butt" stroke-linejoin="round" stroke="#fff" stroke-width="2.5" d="M701.9 486.4L707.1 489.8L712.3 489.5L717.6 487.3"></path><g id="polyline"><polyline id="polyline" points="701.90,486.40 707.10,489.80 712.30,489.50 717.60,487.30" stroke-linejoin="round" stroke-width="1.5" stroke="#578145" fill="none" stroke-linecap="butt"></polyline></g><g id="markers"><circle cx="701.9" cy="486.4" r="1.8" fill="#578145"></circle><circle cx="707.1" cy="489.8" r="1.8" fill="#578145"></circle><circle cx="712.3" cy="489.5" r="1.8" fill="#578145"></circle><circle cx="717.6" cy="487.3" r="1.8" fill="#578145"></circle></g></g><g id="line__Australia"><path id="outline" fill="none" stroke-linecap="butt" stroke-linejoin="round" stroke="#fff" stroke-width="2.5" d="M701.9 513.1L707.1 513.1L712.3 513.1L717.6 513.1"></path><g id="polyline"><polyline id="polyline" points="701.90,513.10 707.10,513.10 712.30,513.10 717.60,513.10" stroke-linejoin="round" stroke-width="1.5" stroke="#2C8465" fill="none" stroke-linecap="butt"></polyline></g><g id="markers"><circle cx="701.9" cy="513.1" r="1.8" fill="#2C8465"></circle><circle cx="707.1" cy="513.1" r="1.8" fill="#2C8465"></circle><circle cx="712.3" cy="513.1" r="1.8" fill="#2C8465"></circle><circle cx="717.6" cy="513.1" r="1.8" fill="#2C8465"></circle></g></g><g id="line__World"><path id="outline" fill="none" stroke-linecap="butt" stroke-linejoin="round" stroke="#fff" stroke-width="2.5" d="M135.4 508.9L151.1 507.6L156.4 508.3L161.6 508L166.9 511.1L172.1 510.8L177.4 506.5L203.6 508.4L208.8 506.2L240.3 511.2L245.5 511.9L250.8 512.6L256 511.4L261.3 509.2L266.5 505.2L271.8 502.6L277 501.4L282.3 500.9L287.5 501.9L292.7 497.5L298 495.4L303.2 499L308.5 502.3L313.7 507.5L319 506.1L387.2 492.8L392.4 481.4L397.6 488.6L402.9 486.9L408.1 484.2L413.4 479.6L418.6 479L423.9 474.3L429.1 467.1L434.4 471.5L439.6 453L444.9 449.3L450.1 450.5L455.3 448.5L460.6 430.8L465.8 425.9L471.1 395.2L476.3 396L481.6 394.4L486.8 360.9L492.1 368.2L497.3 370.6L502.5 403.3L507.8 403.3L513 387.6L518.3 388L523.5 383.9L528.8 383.9L534 379.9L539.3 379.9L544.5 379.1L549.8 406.5L555 405.3L560.2 412.2L565.5 383.9L570.7 367.8L576 371.4L597 347.6L602.2 344.4L607.4 307.2L612.7 319.7L617.9 303.6L623.2 285.4L628.4 279.4L633.7 277L638.9 264.4L644.2 275.7L649.4 223.7L654.7 224.5L659.9 210.8L665.1 184.5L670.4 142.5L675.6 167.2L680.9 197.4L686.1 159.1L691.4 150.6L696.6 138.5L701.9 89.3L707.1 89.3L712.3 101.4L717.6 109.4"></path><g id="polyline"><polyline id="polyline" points="135.40,508.90 151.10,507.60 156.40,508.30 161.60,508.00 166.90,511.10 172.10,510.80 177.40,506.50 203.60,508.40 208.80,506.20 240.30,511.20 245.50,511.90 250.80,512.60 256.00,511.40 261.30,509.20 266.50,505.20 271.80,502.60 277.00,501.40 282.30,500.90 287.50,501.90 292.70,497.50 298.00,495.40 303.20,499.00 308.50,502.30 313.70,507.50 319.00,506.10 387.20,492.80 392.40,481.40 397.60,488.60 402.90,486.90 408.10,484.20 413.40,479.60 418.60,479.00 423.90,474.30 429.10,467.10 434.40,471.50 439.60,453.00 444.90,449.30 450.10,450.50 455.30,448.50 460.60,430.80 465.80,425.90 471.10,395.20 476.30,396.00 481.60,394.40 486.80,360.90 492.10,368.20 497.30,370.60 502.50,403.30 507.80,403.30 513.00,387.60 518.30,388.00 523.50,383.90 528.80,383.90 534.00,379.90 539.30,379.90 544.50,379.10 549.80,406.50 555.00,405.30 560.20,412.20 565.50,383.90 570.70,367.80 576.00,371.40 597.00,347.60 602.20,344.40 607.40,307.20 612.70,319.70 617.90,303.60 623.20,285.40 628.40,279.40 633.70,277.00 638.90,264.40 644.20,275.70 649.40,223.70 654.70,224.50 659.90,210.80 665.10,184.50 670.40,142.50 675.60,167.20 680.90,197.40 686.10,159.10 691.40,150.60 696.60,138.50 701.90,89.30 707.10,89.30 712.30,101.40 717.60,109.40" stroke-linejoin="round" stroke-width="1.5" stroke="#C15065" fill="none" stroke-linecap="butt"></polyline></g><g id="markers"><circle cx="135.4" cy="508.9" r="1.8" fill="#C15065"></circle><circle cx="151.1" cy="507.6" r="1.8" fill="#C15065"></circle><circle cx="156.4" cy="508.3" r="1.8" fill="#C15065"></circle><circle cx="161.6" cy="508" r="1.8" fill="#C15065"></circle><circle cx="166.9" cy="511.1" r="1.8" fill="#C15065"></circle><circle cx="172.1" cy="510.8" r="1.8" fill="#C15065"></circle><circle cx="177.4" cy="506.5" r="1.8" fill="#C15065"></circle><circle cx="203.6" cy="508.4" r="1.8" fill="#C15065"></circle><circle cx="208.8" cy="506.2" r="1.8" fill="#C15065"></circle><circle cx="240.3" cy="511.2" r="1.8" fill="#C15065"></circle><circle cx="245.5" cy="511.9" r="1.8" fill="#C15065"></circle><circle cx="250.8" cy="512.6" r="1.8" fill="#C15065"></circle><circle cx="256" cy="511.4" r="1.8" fill="#C15065"></circle><circle cx="261.3" cy="509.2" r="1.8" fill="#C15065"></circle><circle cx="266.5" cy="505.2" r="1.8" fill="#C15065"></circle><circle cx="271.8" cy="502.6" r="1.8" fill="#C15065"></circle><circle cx="277" cy="501.4" r="1.8" fill="#C15065"></circle><circle cx="282.3" cy="500.9" r="1.8" fill="#C15065"></circle><circle cx="287.5" cy="501.9" r="1.8" fill="#C15065"></circle><circle cx="292.7" cy="497.5" r="1.8" fill="#C15065"></circle><circle cx="298" cy="495.4" r="1.8" fill="#C15065"></circle><circle cx="303.2" cy="499" r="1.8" fill="#C15065"></circle><circle cx="308.5" cy="502.3" r="1.8" fill="#C15065"></circle><circle cx="313.7" cy="507.5" r="1.8" fill="#C15065"></circle><circle cx="319" cy="506.1" r="1.8" fill="#C15065"></circle><circle cx="387.2" cy="492.8" r="1.8" fill="#C15065"></circle><circle cx="392.4" cy="481.4" r="1.8" fill="#C15065"></circle><circle cx="397.6" cy="488.6" r="1.8" fill="#C15065"></circle><circle cx="402.9" cy="486.9" r="1.8" fill="#C15065"></circle><circle cx="408.1" cy="484.2" r="1.8" fill="#C15065"></circle><circle cx="413.4" cy="479.6" r="1.8" fill="#C15065"></circle><circle cx="418.6" cy="479" r="1.8" fill="#C15065"></circle><circle cx="423.9" cy="474.3" r="1.8" fill="#C15065"></circle><circle cx="429.1" cy="467.1" r="1.8" fill="#C15065"></circle><circle cx="434.4" cy="471.5" r="1.8" fill="#C15065"></circle><circle cx="439.6" cy="453" r="1.8" fill="#C15065"></circle><circle cx="444.9" cy="449.3" r="1.8" fill="#C15065"></circle><circle cx="450.1" cy="450.5" r="1.8" fill="#C15065"></circle><circle cx="455.3" cy="448.5" r="1.8" fill="#C15065"></circle><circle cx="460.6" cy="430.8" r="1.8" fill="#C15065"></circle><circle cx="465.8" cy="425.9" r="1.8" fill="#C15065"></circle><circle cx="471.1" cy="395.2" r="1.8" fill="#C15065"></circle><circle cx="476.3" cy="396" r="1.8" fill="#C15065"></circle><circle cx="481.6" cy="394.4" r="1.8" fill="#C15065"></circle><circle cx="486.8" cy="360.9" r="1.8" fill="#C15065"></circle><circle cx="492.1" cy="368.2" r="1.8" fill="#C15065"></circle><circle cx="497.3" cy="370.6" r="1.8" fill="#C15065"></circle><circle cx="502.5" cy="403.3" r="1.8" fill="#C15065"></circle><circle cx="507.8" cy="403.3" r="1.8" fill="#C15065"></circle><circle cx="513" cy="387.6" r="1.8" fill="#C15065"></circle><circle cx="518.3" cy="388" r="1.8" fill="#C15065"></circle><circle cx="523.5" cy="383.9" r="1.8" fill="#C15065"></circle><circle cx="528.8" cy="383.9" r="1.8" fill="#C15065"></circle><circle cx="534" cy="379.9" r="1.8" fill="#C15065"></circle><circle cx="539.3" cy="379.9" r="1.8" fill="#C15065"></circle><circle cx="544.5" cy="379.1" r="1.8" fill="#C15065"></circle><circle cx="549.8" cy="406.5" r="1.8" fill="#C15065"></circle><circle cx="555" cy="405.3" r="1.8" fill="#C15065"></circle><circle cx="560.2" cy="412.2" r="1.8" fill="#C15065"></circle><circle cx="565.5" cy="383.9" r="1.8" fill="#C15065"></circle><circle cx="570.7" cy="367.8" r="1.8" fill="#C15065"></circle><circle cx="576" cy="371.4" r="1.8" fill="#C15065"></circle><circle cx="597" cy="347.6" r="1.8" fill="#C15065"></circle><circle cx="602.2" cy="344.4" r="1.8" fill="#C15065"></circle><circle cx="607.4" cy="307.2" r="1.8" fill="#C15065"></circle><circle cx="612.7" cy="319.7" r="1.8" fill="#C15065"></circle><circle cx="617.9" cy="303.6" r="1.8" fill="#C15065"></circle><circle cx="623.2" cy="285.4" r="1.8" fill="#C15065"></circle><circle cx="628.4" cy="279.4" r="1.8" fill="#C15065"></circle><circle cx="633.7" cy="277" r="1.8" fill="#C15065"></circle><circle cx="638.9" cy="264.4" r="1.8" fill="#C15065"></circle><circle cx="644.2" cy="275.7" r="1.8" fill="#C15065"></circle><circle cx="649.4" cy="223.7" r="1.8" fill="#C15065"></circle><circle cx="654.7" cy="224.5" r="1.8" fill="#C15065"></circle><circle cx="659.9" cy="210.8" r="1.8" fill="#C15065"></circle><circle cx="665.1" cy="184.5" r="1.8" fill="#C15065"></circle><circle cx="670.4" cy="142.5" r="1.8" fill="#C15065"></circle><circle cx="675.6" cy="167.2" r="1.8" fill="#C15065"></circle><circle cx="680.9" cy="197.4" r="1.8" fill="#C15065"></circle><circle cx="686.1" cy="159.1" r="1.8" fill="#C15065"></circle><circle cx="691.4" cy="150.6" r="1.8" fill="#C15065"></circle><circle cx="696.6" cy="138.5" r="1.8" fill="#C15065"></circle><circle cx="701.9" cy="89.3" r="1.8" fill="#C15065"></circle><circle cx="707.1" cy="89.3" r="1.8" fill="#C15065"></circle><circle cx="712.3" cy="101.4" r="1.8" fill="#C15065"></circle><circle cx="717.6" cy="109.4" r="1.8" fill="#C15065"></circle></g></g><g id="line__United-States"><path id="outline" fill="none" stroke-linecap="butt" stroke-linejoin="round" stroke="#fff" stroke-width="2.5" d="M77.7 513.1L82.9 512.8L109.2 513L130.2 512.9L135.4 512L140.6 511.5L145.9 511.4L151.1 510.8L156.4 511.4L161.6 511.3L166.9 512.1L172.1 512.1L177.4 511.2L182.6 512.4L187.8 513L193.1 512.9L203.6 512.6L208.8 511.9L240.3 512.1L245.5 513.1L250.8 513.1L256 513L261.3 512.8L266.5 511.1L271.8 510.1L277 509.5L282.3 509.1L287.5 508.5L292.7 505L298 502.9L303.2 506.6L308.5 507.7L313.7 510.8L319 507.9L324.2 509.8L329.5 500.2L334.7 504.7L340 501.8L345.2 499.9L350.4 496.1L355.7 501.6L360.9 501.1L366.2 498.9L371.4 499.6L376.7 502L381.9 498.1L387.2 494.9L392.4 493.5L397.6 494L402.9 499L408.1 497.1L413.4 494L418.6 494.2L423.9 494.9L429.1 489.4L434.4 492.7L439.6 493.6L444.9 493.8L450.1 495.2L455.3 495.3L460.6 493.4L465.8 495.3L471.1 490.4L476.3 494L481.6 490L486.8 486.1L492.1 487.4L497.3 482.8L502.5 489.7L507.8 500.9L513 497.3L518.3 503.2L523.5 504.6L528.8 503.9L534 501.2L539.3 503.5L544.5 503.8L549.8 504L555 507.7L560.2 501.5L565.5 501.7L570.7 505.1L576 498L597 513.1L602.2 513.1L607.4 513.1L612.7 513.1L617.9 513.1L623.2 513.1L628.4 513.1L633.7 513.1L638.9 511L644.2 512.2L649.4 508.8L654.7 510.7L659.9 512.7L665.1 510.7L670.4 513.1L675.6 513.1L680.9 513.1L686.1 513.1L691.4 513.1L696.6 511.2L701.9 513L707.1 513.1L712.3 513.1L717.6 513.1"></path><g id="polyline"><polyline id="polyline" points="77.70,513.10 82.90,512.80 109.20,513.00 130.20,512.90 135.40,512.00 140.60,511.50 145.90,511.40 151.10,510.80 156.40,511.40 161.60,511.30 166.90,512.10 172.10,512.10 177.40,511.20 182.60,512.40 187.80,513.00 193.10,512.90 203.60,512.60 208.80,511.90 240.30,512.10 245.50,513.10 250.80,513.10 256.00,513.00 261.30,512.80 266.50,511.10 271.80,510.10 277.00,509.50 282.30,509.10 287.50,508.50 292.70,505.00 298.00,502.90 303.20,506.60 308.50,507.70 313.70,510.80 319.00,507.90 324.20,509.80 329.50,500.20 334.70,504.70 340.00,501.80 345.20,499.90 350.40,496.10 355.70,501.60 360.90,501.10 366.20,498.90 371.40,499.60 376.70,502.00 381.90,498.10 387.20,494.90 392.40,493.50 397.60,494.00 402.90,499.00 408.10,497.10 413.40,494.00 418.60,494.20 423.90,494.90 429.10,489.40 434.40,492.70 439.60,493.60 444.90,493.80 450.10,495.20 455.30,495.30 460.60,493.40 465.80,495.30 471.10,490.40 476.30,494.00 481.60,490.00 486.80,486.10 492.10,487.40 497.30,482.80 502.50,489.70 507.80,500.90 513.00,497.30 518.30,503.20 523.50,504.60 528.80,503.90 534.00,501.20 539.30,503.50 544.50,503.80 549.80,504.00 555.00,507.70 560.20,501.50 565.50,501.70 570.70,505.10 576.00,498.00 597.00,513.10 602.20,513.10 607.40,513.10 612.70,513.10 617.90,513.10 623.20,513.10 628.40,513.10 633.70,513.10 638.90,511.00 644.20,512.20 649.40,508.80 654.70,510.70 659.90,512.70 665.10,510.70 670.40,513.10 675.60,513.10 680.90,513.10 686.10,513.10 691.40,513.10 696.60,511.20 701.90,513.00 707.10,513.10 712.30,513.10 717.60,513.10" stroke-linejoin="round" stroke-width="1.5" stroke="#6D3E91" fill="none" stroke-linecap="butt"></polyline></g><g id="markers"><circle cx="77.7" cy="513.1" r="1.8" fill="#6D3E91"></circle><circle cx="82.9" cy="512.8" r="1.8" fill="#6D3E91"></circle><circle cx="109.2" cy="513" r="1.8" fill="#6D3E91"></circle><circle cx="130.2" cy="512.9" r="1.8" fill="#6D3E91"></circle><circle cx="135.4" cy="512" r="1.8" fill="#6D3E91"></circle><circle cx="140.6" cy="511.5" r="1.8" fill="#6D3E91"></circle><circle cx="145.9" cy="511.4" r="1.8" fill="#6D3E91"></circle><circle cx="151.1" cy="510.8" r="1.8" fill="#6D3E91"></circle><circle cx="156.4" cy="511.4" r="1.8" fill="#6D3E91"></circle><circle cx="161.6" cy="511.3" r="1.8" fill="#6D3E91"></circle><circle cx="166.9" cy="512.1" r="1.8" fill="#6D3E91"></circle><circle cx="172.1" cy="512.1" r="1.8" fill="#6D3E91"></circle><circle cx="177.4" cy="511.2" r="1.8" fill="#6D3E91"></circle><circle cx="182.6" cy="512.4" r="1.8" fill="#6D3E91"></circle><circle cx="187.8" cy="513" r="1.8" fill="#6D3E91"></circle><circle cx="193.1" cy="512.9" r="1.8" fill="#6D3E91"></circle><circle cx="203.6" cy="512.6" r="1.8" fill="#6D3E91"></circle><circle cx="208.8" cy="511.9" r="1.8" fill="#6D3E91"></circle><circle cx="240.3" cy="512.1" r="1.8" fill="#6D3E91"></circle><circle cx="245.5" cy="513.1" r="1.8" fill="#6D3E91"></circle><circle cx="250.8" cy="513.1" r="1.8" fill="#6D3E91"></circle><circle cx="256" cy="513" r="1.8" fill="#6D3E91"></circle><circle cx="261.3" cy="512.8" r="1.8" fill="#6D3E91"></circle><circle cx="266.5" cy="511.1" r="1.8" fill="#6D3E91"></circle><circle cx="271.8" cy="510.1" r="1.8" fill="#6D3E91"></circle><circle cx="277" cy="509.5" r="1.8" fill="#6D3E91"></circle><circle cx="282.3" cy="509.1" r="1.8" fill="#6D3E91"></circle><circle cx="287.5" cy="508.5" r="1.8" fill="#6D3E91"></circle><circle cx="292.7" cy="505" r="1.8" fill="#6D3E91"></circle><circle cx="298" cy="502.9" r="1.8" fill="#6D3E91"></circle><circle cx="303.2" cy="506.6" r="1.8" fill="#6D3E91"></circle><circle cx="308.5" cy="507.7" r="1.8" fill="#6D3E91"></circle><circle cx="313.7" cy="510.8" r="1.8" fill="#6D3E91"></circle><circle cx="319" cy="507.9" r="1.8" fill="#6D3E91"></circle><circle cx="324.2" cy="509.8" r="1.8" fill="#6D3E91"></circle><circle cx="329.5" cy="500.2" r="1.8" fill="#6D3E91"></circle><circle cx="334.7" cy="504.7" r="1.8" fill="#6D3E91"></circle><circle cx="340" cy="501.8" r="1.8" fill="#6D3E91"></circle><circle cx="345.2" cy="499.9" r="1.8" fill="#6D3E91"></circle><circle cx="350.4" cy="496.1" r="1.8" fill="#6D3E91"></circle><circle cx="355.7" cy="501.6" r="1.8" fill="#6D3E91"></circle><circle cx="360.9" cy="501.1" r="1.8" fill="#6D3E91"></circle><circle cx="366.2" cy="498.9" r="1.8" fill="#6D3E91"></circle><circle cx="371.4" cy="499.6" r="1.8" fill="#6D3E91"></circle><circle cx="376.7" cy="502" r="1.8" fill="#6D3E91"></circle><circle cx="381.9" cy="498.1" r="1.8" fill="#6D3E91"></circle><circle cx="387.2" cy="494.9" r="1.8" fill="#6D3E91"></circle><circle cx="392.4" cy="493.5" r="1.8" fill="#6D3E91"></circle><circle cx="397.6" cy="494" r="1.8" fill="#6D3E91"></circle><circle cx="402.9" cy="499" r="1.8" fill="#6D3E91"></circle><circle cx="408.1" cy="497.1" r="1.8" fill="#6D3E91"></circle><circle cx="413.4" cy="494" r="1.8" fill="#6D3E91"></circle><circle cx="418.6" cy="494.2" r="1.8" fill="#6D3E91"></circle><circle cx="423.9" cy="494.9" r="1.8" fill="#6D3E91"></circle><circle cx="429.1" cy="489.4" r="1.8" fill="#6D3E91"></circle><circle cx="434.4" cy="492.7" r="1.8" fill="#6D3E91"></circle><circle cx="439.6" cy="493.6" r="1.8" fill="#6D3E91"></circle><circle cx="444.9" cy="493.8" r="1.8" fill="#6D3E91"></circle><circle cx="450.1" cy="495.2" r="1.8" fill="#6D3E91"></circle><circle cx="455.3" cy="495.3" r="1.8" fill="#6D3E91"></circle><circle cx="460.6" cy="493.4" r="1.8" fill="#6D3E91"></circle><circle cx="465.8" cy="495.3" r="1.8" fill="#6D3E91"></circle><circle cx="471.1" cy="490.4" r="1.8" fill="#6D3E91"></circle><circle cx="476.3" cy="494" r="1.8" fill="#6D3E91"></circle><circle cx="481.6" cy="490" r="1.8" fill="#6D3E91"></circle><circle cx="486.8" cy="486.1" r="1.8" fill="#6D3E91"></circle><circle cx="492.1" cy="487.4" r="1.8" fill="#6D3E91"></circle><circle cx="497.3" cy="482.8" r="1.8" fill="#6D3E91"></circle><circle cx="502.5" cy="489.7" r="1.8" fill="#6D3E91"></circle><circle cx="507.8" cy="500.9" r="1.8" fill="#6D3E91"></circle><circle cx="513" cy="497.3" r="1.8" fill="#6D3E91"></circle><circle cx="518.3" cy="503.2" r="1.8" fill="#6D3E91"></circle><circle cx="523.5" cy="504.6" r="1.8" fill="#6D3E91"></circle><circle cx="528.8" cy="503.9" r="1.8" fill="#6D3E91"></circle><circle cx="534" cy="501.2" r="1.8" fill="#6D3E91"></circle><circle cx="539.3" cy="503.5" r="1.8" fill="#6D3E91"></circle><circle cx="544.5" cy="503.8" r="1.8" fill="#6D3E91"></circle><circle cx="549.8" cy="504" r="1.8" fill="#6D3E91"></circle><circle cx="555" cy="507.7" r="1.8" fill="#6D3E91"></circle><circle cx="560.2" cy="501.5" r="1.8" fill="#6D3E91"></circle><circle cx="565.5" cy="501.7" r="1.8" fill="#6D3E91"></circle><circle cx="570.7" cy="505.1" r="1.8" fill="#6D3E91"></circle><circle cx="576" cy="498" r="1.8" fill="#6D3E91"></circle><circle cx="597" cy="513.1" r="1.8" fill="#6D3E91"></circle><circle cx="602.2" cy="513.1" r="1.8" fill="#6D3E91"></circle><circle cx="607.4" cy="513.1" r="1.8" fill="#6D3E91"></circle><circle cx="612.7" cy="513.1" r="1.8" fill="#6D3E91"></circle><circle cx="617.9" cy="513.1" r="1.8" fill="#6D3E91"></circle><circle cx="623.2" cy="513.1" r="1.8" fill="#6D3E91"></circle><circle cx="628.4" cy="513.1" r="1.8" fill="#6D3E91"></circle><circle cx="633.7" cy="513.1" r="1.8" fill="#6D3E91"></circle><circle cx="638.9" cy="511" r="1.8" fill="#6D3E91"></circle><circle cx="644.2" cy="512.2" r="1.8" fill="#6D3E91"></circle><circle cx="649.4" cy="508.8" r="1.8" fill="#6D3E91"></circle><circle cx="654.7" cy="510.7" r="1.8" fill="#6D3E91"></circle><circle cx="659.9" cy="512.7" r="1.8" fill="#6D3E91"></circle><circle cx="665.1" cy="510.7" r="1.8" fill="#6D3E91"></circle><circle cx="670.4" cy="513.1" r="1.8" fill="#6D3E91"></circle><circle cx="675.6" cy="513.1" r="1.8" fill="#6D3E91"></circle><circle cx="680.9" cy="513.1" r="1.8" fill="#6D3E91"></circle><circle cx="686.1" cy="513.1" r="1.8" fill="#6D3E91"></circle><circle cx="691.4" cy="513.1" r="1.8" fill="#6D3E91"></circle><circle cx="696.6" cy="511.2" r="1.8" fill="#6D3E91"></circle><circle cx="701.9" cy="513" r="1.8" fill="#6D3E91"></circle><circle cx="707.1" cy="513.1" r="1.8" fill="#6D3E91"></circle><circle cx="712.3" cy="513.1" r="1.8" fill="#6D3E91"></circle><circle cx="717.6" cy="513.1" r="1.8" fill="#6D3E91"></circle></g></g></g></g></g></g><g id="footer" class="SourcesFooter" style="fill:#5b5b5b"><g id="sources" class="markdown-text-wrap"><text x="16.0" y="562.7" style="font-size:13.5px;line-height:1.2"><tspan x="16" y="562.7"><tspan style="font-weight:700">Data source:</tspan> USGS - Mineral Commodity Summaries (2024); USGS - Historical Statistics for Mineral and Material Commodities (2023)</tspan></text></g><text id="origin-url" font-size="13.50" x="16.0" y="580.9"><tspan x="16" y="580.8950000000001"><a target="_blank" style="fill: #5b5b5b;" href="https://creativecommons.org/licenses/by/4.0/">CC BY</a></tspan></text></g><line id="separator-line" x1="16" y1="600" x2="834" y2="600" stroke="#e7e7e7"></line><g id="details" transform="translate(15, 616)"><g class="markdown-text-wrap"><text x="0.0" y="12.0" style="font-size:12.375px;fill:#5b5b5b;line-height:1.2"><tspan x="0" y="12.0"><tspan style="font-weight:700">1.</tspan> <tspan style="font-weight:700">Vanadium</tspan>: Vanadium is a metal that is used in steel alloys, in superconducting magnets, dyes, ceramics and some types of batteries.</tspan></text></g><g class="markdown-text-wrap"><text x="0.0" y="34.9" style="font-size:12.375px;fill:#5b5b5b;line-height:1.2"><tspan x="0" y="34.9"><tspan style="font-weight:700">2.</tspan> <tspan style="font-weight:700">Refined production</tspan>: Refined production is the process of taking raw materials, such as metals extracted from ores, and purifying them to achieve</tspan><tspan x="0" y="49.7">a higher quality or more usable form. After metals are initially extracted from ore through processes like smelting, they often contain impurities or are</tspan><tspan x="0" y="64.6">not in the ideal form for manufacturing. Refining involves further processing these metals to remove impurities and adjust their composition to meet</tspan><tspan x="0" y="79.4">specific standards. Refined production is essential for transforming raw materials into high-quality metals that are crucial for industries and</tspan><tspan x="0" y="94.3">consumers, from manufacturing electronics to constructing buildings.</tspan></text></g></g></svg>