<svg xmlns="http://www.w3.org/2000/svg" version="1.1" style="font-family:Lato, &#x27;Helvetica Neue&#x27;, Helvetica, Arial, &#x27;Liberation Sans&#x27;, sans-serif;font-size:18px;background-color:white;text-rendering:geometricPrecision;-webkit-font-smoothing:antialiased" width="850" height="706.25" viewBox="0 0 850 706.25"><defs><style>@import url(https://ourworldindata.org/fonts.css)</style></defs><defs><pattern id="noDataPattern" patternUnits="userSpaceOnUse" width="4" height="4" patternTransform="rotate(-45 2 2)"><path d="M -1,2 l 6,0" stroke="#ccc" stroke-width="0.7"></path></pattern></defs><rect class="background-fill" fill="white" width="850" height="706.25"></rect><g id="header" class="HeaderView"><g id="logo" transform="translate(769, 16) scale(1)"><svg className="owidLogo" xmlns="http://www.w3.org/2000/svg" width="65" height="36" viewBox="0 0 65 36"  fill="none"><path fill="#002147" d="M0 0h64.8v36H0z"/><path fill="#CE261E" d="M0 33.3h64.8V36H0z"/><path fill="#fff" d="M13.796 10.575c0 .636-.106 1.226-.318 1.77a4.193 4.193 0 0 1-.894 1.404 4.084 4.084 0 0 1-1.386.93c-.54.22-1.138.33-1.794.33-.656 0-1.256-.11-1.8-.33a4.149 4.149 0 0 1-1.392-.93 4.193 4.193 0 0 1-.894-1.404A4.833 4.833 0 0 1 5 10.575c0-.636.106-1.224.318-1.764a4.18 4.18 0 0 1 .894-1.41 4.076 4.076 0 0 1 1.392-.924 4.684 4.684 0 0 1 1.8-.336c.656 0 1.254.112 1.794.336.54.224 1.002.534 1.386.93.384.392.682.86.894 1.404.212.54.318 1.128.318 1.764Zm-1.656 0c0-.476-.064-.902-.192-1.278a2.671 2.671 0 0 0-.54-.966 2.332 2.332 0 0 0-.864-.606 2.94 2.94 0 0 0-1.14-.21c-.424 0-.806.07-1.146.21-.34.14-.63.342-.87.606a2.742 2.742 0 0 0-.546.966 3.955 3.955 0 0 0-.192 1.278c0 .476.064.904.192 1.284.128.376.31.696.546.96.24.26.53.46.87.6.34.14.722.21 1.146.21.424 0 .804-.07 1.14-.21.34-.14.628-.34.864-.6.236-.264.416-.584.54-.96a4.01 4.01 0 0 0 .192-1.284ZM16.104 8.757v3.912c0 .376.086.668.258.876.176.204.438.306.786.306.256 0 .496-.056.72-.168a2.58 2.58 0 0 0 .636-.474V8.757h1.482v6.156h-.906c-.192 0-.318-.09-.378-.27l-.102-.492a4.65 4.65 0 0 1-.396.354 2.577 2.577 0 0 1-.438.27 2.35 2.35 0 0 1-.498.168 2.345 2.345 0 0 1-.57.066c-.336 0-.634-.056-.894-.168a1.821 1.821 0 0 1-.648-.486 2.157 2.157 0 0 1-.402-.738 3.233 3.233 0 0 1-.132-.948V8.757h1.482ZM21.328 14.913V8.757h.87c.152 0 .258.028.318.084.06.056.1.152.12.288l.09.744c.22-.38.478-.68.774-.9.296-.22.628-.33.996-.33.304 0 .556.07.756.21l-.192 1.11c-.012.072-.038.124-.078.156a.278.278 0 0 1-.162.042 1.01 1.01 0 0 1-.246-.042 1.646 1.646 0 0 0-.414-.042c-.308 0-.572.086-.792.258-.22.168-.406.416-.558.744v3.834h-1.482ZM27.347 6.237h1.356a.57.57 0 0 1 .348.102c.096.064.16.152.192.264l1.476 5.19c.036.128.068.268.096.42.032.148.062.306.09.474a5.968 5.968 0 0 1 .228-.894l1.704-5.19a.575.575 0 0 1 .186-.252.543.543 0 0 1 .348-.114h.474a.57.57 0 0 1 .348.102.497.497 0 0 1 .192.264l1.692 5.19c.088.256.164.54.228.852.028-.156.056-.306.084-.45.032-.144.064-.278.096-.402l1.476-5.19c.028-.1.09-.186.186-.258a.563.563 0 0 1 .348-.108h1.266l-2.694 8.676h-1.458l-1.896-5.928-.078-.246a9.504 9.504 0 0 1-.072-.282c-.024.1-.05.194-.078.282-.024.088-.048.17-.072.246l-1.914 5.928H30.04l-2.694-8.676ZM42.771 8.661c.46 0 .876.074 1.248.222.376.148.696.358.96.63s.468.604.612.996c.144.392.216.83.216 1.314 0 .488-.072.928-.216 1.32a2.85 2.85 0 0 1-.612 1.002 2.653 2.653 0 0 1-.96.636 3.35 3.35 0 0 1-1.248.222c-.46 0-.878-.074-1.254-.222a2.712 2.712 0 0 1-.966-.636 2.922 2.922 0 0 1-.618-1.002 3.807 3.807 0 0 1-.216-1.32c0-.484.072-.922.216-1.314.148-.392.354-.724.618-.996.268-.272.59-.482.966-.63a3.397 3.397 0 0 1 1.254-.222Zm0 5.202c.512 0 .89-.172 1.134-.516.248-.344.372-.848.372-1.512s-.124-1.17-.372-1.518c-.244-.348-.622-.522-1.134-.522-.52 0-.904.176-1.152.528-.248.348-.372.852-.372 1.512s.124 1.164.372 1.512c.248.344.632.516 1.152.516ZM46.723 14.913V8.757h.87c.152 0 .258.028.318.084.06.056.1.152.12.288l.09.744c.22-.38.478-.68.774-.9.296-.22.628-.33.996-.33.304 0 .556.07.756.21l-.192 1.11c-.012.072-.038.124-.078.156a.278.278 0 0 1-.162.042 1.01 1.01 0 0 1-.246-.042 1.646 1.646 0 0 0-.414-.042c-.308 0-.572.086-.792.258-.22.168-.406.416-.558.744v3.834h-1.482ZM52.96 5.997v8.916h-1.482V5.997h1.482ZM58.732 14.913c-.192 0-.318-.09-.378-.27l-.12-.594a3.68 3.68 0 0 1-.402.39c-.14.116-.292.216-.456.3-.16.084-.334.148-.522.192a2.372 2.372 0 0 1-.6.072c-.336 0-.644-.07-.924-.21a2.098 2.098 0 0 1-.726-.606 3.033 3.033 0 0 1-.468-.99 5.072 5.072 0 0 1-.162-1.344c0-.456.062-.88.186-1.272s.302-.732.534-1.02c.232-.288.51-.512.834-.672a2.384 2.384 0 0 1 1.092-.246 2.103 2.103 0 0 1 1.536.606V5.997h1.482v8.916h-.906Zm-1.974-1.086c.308 0 .57-.064.786-.192.216-.128.42-.31.612-.546v-2.76a1.452 1.452 0 0 0-.552-.432 1.597 1.597 0 0 0-.636-.126c-.224 0-.428.042-.612.126a1.21 1.21 0 0 0-.462.384c-.124.168-.22.384-.288.648-.068.26-.102.568-.102.924 0 .36.028.666.084.918.06.248.144.452.252.612.108.156.24.27.396.342.156.068.33.102.522.102ZM16.331 20.757v6.156H14.85v-6.156h1.481Zm.223-1.794a.844.844 0 0 1-.078.36.963.963 0 0 1-.21.294.995.995 0 0 1-.3.204.963.963 0 0 1-.372.072.948.948 0 0 1-.367-.072 1.018 1.018 0 0 1-.498-.498.963.963 0 0 1 0-.732.995.995 0 0 1 .205-.3.929.929 0 0 1 .293-.198.899.899 0 0 1 .738 0 .912.912 0 0 1 .3.198.943.943 0 0 1 .288.672ZM17.771 26.913v-6.156h.906c.192 0 .318.09.378.27l.102.486a2.934 2.934 0 0 1 .828-.618c.156-.076.322-.134.498-.174.176-.04.368-.06.576-.06.336 0 .634.058.894.174.26.112.476.272.648.48.176.204.308.45.396.738.092.284.138.598.138.942v3.918h-1.482v-3.918c0-.376-.088-.666-.264-.87-.172-.208-.432-.312-.78-.312-.256 0-.496.058-.72.174a2.58 2.58 0 0 0-.636.474v4.452h-1.482ZM34.22 22.575c0 .636-.106 1.22-.318 1.752-.212.532-.51.99-.894 1.374a4 4 0 0 1-1.386.894 4.87 4.87 0 0 1-1.794.318h-3.312v-8.676h3.312a4.79 4.79 0 0 1 1.794.324 4 4 0 0 1 1.386.894c.384.38.682.836.894 1.368.212.532.318 1.116.318 1.752Zm-1.65 0c0-.476-.064-.902-.192-1.278a2.68 2.68 0 0 0-.546-.96 2.332 2.332 0 0 0-.864-.606 2.94 2.94 0 0 0-1.14-.21h-1.686v6.108h1.686c.424 0 .804-.07 1.14-.21.34-.14.628-.34.864-.6a2.75 2.75 0 0 0 .546-.96 4.01 4.01 0 0 0 .192-1.284ZM39.98 26.913h-.665c-.14 0-.25-.02-.33-.06-.08-.044-.14-.13-.18-.258l-.132-.438c-.156.14-.31.264-.462.372a2.804 2.804 0 0 1-.462.264c-.16.072-.33.126-.51.162-.18.036-.38.054-.6.054-.26 0-.5-.034-.72-.102a1.618 1.618 0 0 1-.57-.318 1.448 1.448 0 0 1-.366-.522 1.852 1.852 0 0 1-.132-.726c0-.232.06-.46.18-.684.124-.228.328-.432.612-.612.284-.184.662-.336 1.134-.456.472-.12 1.058-.188 1.758-.204v-.36c0-.412-.088-.716-.264-.912-.172-.2-.424-.3-.756-.3a1.837 1.837 0 0 0-1.02.276c-.116.068-.224.13-.324.186a.664.664 0 0 1-.33.084.429.429 0 0 1-.258-.078.614.614 0 0 1-.174-.192l-.27-.474c.708-.648 1.562-.972 2.562-.972.36 0 .68.06.96.18.284.116.524.28.72.492.196.208.344.458.444.75.104.292.156.612.156.96v3.888Zm-2.88-.924c.153 0 .293-.014.42-.042.129-.028.249-.07.36-.126.117-.056.227-.124.33-.204.109-.084.217-.182.325-.294v-1.038c-.432.02-.794.058-1.086.114-.288.052-.52.12-.696.204a.923.923 0 0 0-.378.294.664.664 0 0 0-.108.366c0 .26.076.446.228.558.156.112.358.168.606.168ZM43.22 27.01c-.532 0-.942-.15-1.23-.45-.288-.305-.432-.723-.432-1.255v-3.438h-.624a.31.31 0 0 1-.21-.078c-.056-.052-.084-.13-.084-.234v-.588l.99-.162.312-1.68a.302.302 0 0 1 .108-.186.365.365 0 0 1 .222-.066h.768v1.938h1.62v1.056h-1.62v3.336c0 .192.048.342.144.45a.488.488 0 0 0 .384.162c.092 0 .168-.01.228-.03.064-.024.118-.048.162-.072.048-.024.09-.046.126-.066a.194.194 0 0 1 .108-.036.16.16 0 0 1 .108.036c.028.02.058.052.09.096l.444.72c-.216.18-.464.316-.744.408a2.77 2.77 0 0 1-.87.138ZM50.423 26.913h-.666c-.14 0-.25-.02-.33-.06-.08-.044-.14-.13-.18-.258l-.132-.438c-.156.14-.31.264-.462.372a2.804 2.804 0 0 1-.462.264c-.16.072-.33.126-.51.162-.18.036-.38.054-.6.054-.26 0-.5-.034-.72-.102a1.618 1.618 0 0 1-.57-.318 1.448 1.448 0 0 1-.366-.522 1.852 1.852 0 0 1-.132-.726c0-.232.06-.46.18-.684.124-.228.328-.432.612-.612.284-.184.662-.336 1.134-.456.472-.12 1.058-.188 1.758-.204v-.36c0-.412-.088-.716-.264-.912-.172-.2-.424-.3-.756-.3a1.837 1.837 0 0 0-1.02.276c-.116.068-.224.13-.324.186a.664.664 0 0 1-.33.084.429.429 0 0 1-.258-.078.614.614 0 0 1-.174-.192l-.27-.474c.708-.648 1.562-.972 2.562-.972.36 0 .68.06.96.18.284.116.524.28.72.492.196.208.344.458.444.75.104.292.156.612.156.96v3.888Zm-2.88-.924c.152 0 .292-.014.42-.042.128-.028.248-.07.36-.126.116-.056.226-.124.33-.204.108-.084.216-.182.324-.294v-1.038c-.432.02-.794.058-1.086.114-.288.052-.52.12-.696.204a.923.923 0 0 0-.378.294.664.664 0 0 0-.108.366c0 .26.076.446.228.558.156.112.358.168.606.168Z"/></svg></g><a id="title" href="https://ourworldindata.org/explorers/minerals?Mineral=Titanium&amp;Metric=Production&amp;Type=Mine%2C+rutile&amp;Share+of+global=false&amp;country=AUS~CHL~CHN~USA~CAN~ALB~DZA~ARG~ARM~AUT~AZE~BOL~OWID_WRL~BWA~BRA~BGR~COL~COG~CUB~CYP~OWID_CZS~COD~DOM~OWID_GDR~ZWE~ZMB~OWID_YGS~OWID_GFR~VNM~UZB~GBR~UGA~OWID_USS~TUR~TZA~TJK~TWN~SWE~ESP~KOR~ZAF~SVK~OWID_SRM~SRB~SAU~RUS~ROU~PRT~POL~PHL~PER~PNG~PAN~PAK~OMN~NOR~MKD~PRK~NIC~NZL~NAM~MMR~MOZ~MAR~MNG~MEX~MRT~MYS~LAO~KGZ~KEN~KAZ~JPN~ITA~ISR~IRL~IRN~IDN~IND~HUN~HND~HTI~GTM~GRC~DEU~GEO~FRA~FIN~ERI~ECU~VEN~ARE~UKR~CHE~SUR~LKA~SVN~QAT~NGA~NLD~MNE~ISL~GHA~EGY~HRV~CMR~BIH~BHR~AFG~OWID_KOS~MDG~NCL~SDN~Other~CZE~THA~TUN~CIV~GAB~RWA~NER~ETH~BDI~GRL~BLR~JOR~BEL~SEN" style="font-family:&#x27;Playfair Display&#x27;, Georgia, &#x27;Times New Roman&#x27;, &#x27;Liberation Serif&#x27;, serif" target="_blank" rel="noopener"><text font-size="24.75" font-weight="600" x="16.0" y="40.0" fill="#5b5b5b"><tspan x="16" y="40.0075">Titanium (rutile) production, 1970 to 2023</tspan></text></a><g id="subtitle" class="markdown-text-wrap"><text x="16.0" y="63.9" style="font-size:14.625px;line-height:1.2" fill="#5b5b5b"><tspan x="16" y="63.9">Based on mined, rather than <tspan class="dod-span" data-id="refined-production">refined<tspan style="font-feature-settings:&quot;sups&quot;">ยน</tspan></tspan>, production. Measured in tonnes.</tspan></text></g></g><g id="chart-area" style="pointer-events:none"><g id="line-chart" class="LineChart"><defs><clipPath id="boundsClip-109"><rect x="67.7" y="73.25" width="838" height="454.15"></rect></clipPath></defs><rect x="16" y="83.25" width="818" height="434.15" fill="none"></rect><g id="dual-axis" class="DualAxisView"><g id="horizontal-axis" class="HorizontalAxis"><g id="tick__1970"><line x1="77.7" y1="496.4" x2="77.7" y2="501.9" stroke="#999" stroke-width="1"></line><text x="77.7" y="515.4" fill="#5b5b5b" text-anchor="start" font-size="13.5">1970</text></g><g id="tick__2023"><line x1="717.6" y1="496.4" x2="717.6" y2="501.9" stroke="#999" stroke-width="1"></line><text x="717.595" y="515.4" fill="#5b5b5b" text-anchor="end" font-size="13.5">2023</text></g><g id="tick__1980"><line x1="198.4" y1="496.4" x2="198.4" y2="501.9" stroke="#999" stroke-width="1"></line><text x="198.4" y="515.4" fill="#5b5b5b" text-anchor="middle" font-size="13.5">1980</text></g><g id="tick__1990"><line x1="319.2" y1="496.4" x2="319.2" y2="501.9" stroke="#999" stroke-width="1"></line><text x="319.2" y="515.4" fill="#5b5b5b" text-anchor="middle" font-size="13.5">1990</text></g><g id="tick__2000"><line x1="439.9" y1="496.4" x2="439.9" y2="501.9" stroke="#999" stroke-width="1"></line><text x="439.9" y="515.4" fill="#5b5b5b" text-anchor="middle" font-size="13.5">2000</text></g><g id="tick__2010"><line x1="560.6" y1="496.4" x2="560.6" y2="501.9" stroke="#999" stroke-width="1"></line><text x="560.6" y="515.4" fill="#5b5b5b" text-anchor="middle" font-size="13.5">2010</text></g></g><g id="vertical-axis" class="VerticalAxis"><g id="tick-labels"><text id="tick-label__0-t" x="72.70" y="496.9" dy=".32em" text-anchor="end" fill="#5b5b5b" font-size="13.5">0 t</text><text id="tick-label__100__002c000-t" x="72.70" y="433.2" dy=".32em" text-anchor="end" fill="#5b5b5b" font-size="13.5">100,000 t</text><text id="tick-label__200__002c000-t" x="72.70" y="369.5" dy=".32em" text-anchor="end" fill="#5b5b5b" font-size="13.5">200,000 t</text><text id="tick-label__300__002c000-t" x="72.70" y="305.8" dy=".32em" text-anchor="end" fill="#5b5b5b" font-size="13.5">300,000 t</text><text id="tick-label__400__002c000-t" x="72.70" y="242.1" dy=".32em" text-anchor="end" fill="#5b5b5b" font-size="13.5">400,000 t</text><text id="tick-label__500__002c000-t" x="72.70" y="178.4" dy=".32em" text-anchor="end" fill="#5b5b5b" font-size="13.5">500,000 t</text><text id="tick-label__600__002c000-t" x="72.70" y="114.7" dy=".32em" text-anchor="end" fill="#5b5b5b" font-size="13.5">600,000 t</text></g></g><g id="horizontal-grid-lines" class="AxisGridLines horizontalLines"><line id="grid-line__0" x1="77.70" y1="496.9" x2="717.60" y2="496.9" stroke="#999" stroke-width="1"></line><line id="grid-line__100000" x1="77.70" y1="433.2" x2="717.60" y2="433.2" stroke="#ddd" stroke-width="1" stroke-dasharray="3,2"></line><line id="grid-line__200000" x1="77.70" y1="369.5" x2="717.60" y2="369.5" stroke="#ddd" stroke-width="1" stroke-dasharray="3,2"></line><line id="grid-line__300000" x1="77.70" y1="305.8" x2="717.60" y2="305.8" stroke="#ddd" stroke-width="1" stroke-dasharray="3,2"></line><line id="grid-line__400000" x1="77.70" y1="242.1" x2="717.60" y2="242.1" stroke="#ddd" stroke-width="1" stroke-dasharray="3,2"></line><line id="grid-line__500000" x1="77.70" y1="178.4" x2="717.60" y2="178.4" stroke="#ddd" stroke-width="1" stroke-dasharray="3,2"></line><line id="grid-line__600000" x1="77.70" y1="114.7" x2="717.60" y2="114.7" stroke="#ddd" stroke-width="1" stroke-dasharray="3,2"></line></g></g><g clip-path="url(#boundsClip-109)"><g id="line-labels" class="LineLabels"><g id="mark__World" class="legendMark" style="cursor:default"><g id="connector" class="indicator"><path d="M721.595,140.2 H735.095 V140.2 H748.595" stroke="#999" stroke-width="0.5" fill="none"></path></g><rect id="background" x="717.595" y="133.45" width="70.235" height="13.5" fill="#fff" opacity="0"></rect><text id="label" font-size="13.50" font-weight="400" x="752.6" y="145.2" fill="#c15065"><tspan x="752.595" y="145.195">World</tspan></text></g><g id="mark__Australia" class="legendMark" style="cursor:default"><g id="connector" class="indicator"><path d="M721.595,369.5 H723.1832352941177 V262.65 H748.595" stroke="#999" stroke-width="0.5" fill="none"></path></g><rect id="background" x="717.595" y="255.89999999999998" width="87.65" height="13.5" fill="#fff" opacity="0"></rect><text id="label" font-size="13.50" font-weight="400" x="752.6" y="267.6" fill="#2c8465"><tspan x="752.595" y="267.645">Australia</tspan></text></g><g id="mark__South-Africa" class="legendMark" style="cursor:default"><g id="connector" class="indicator"><path d="M721.595,433.2 H724.7714705882354 V278.15 H748.595" stroke="#999" stroke-width="0.5" fill="none"></path></g><rect id="background" x="717.595" y="271.4" width="108.845" height="13.5" fill="#fff" opacity="0"></rect><text id="label" font-size="13.50" font-weight="400" x="752.6" y="283.1" fill="#00847e"><tspan x="752.595" y="283.145">South Africa</tspan></text></g><g id="mark__Kenya" class="legendMark" style="cursor:default"><g id="connector" class="indicator"><path d="M721.595,460 H726.359705882353 V293.65 H748.595" stroke="#999" stroke-width="0.5" fill="none"></path></g><rect id="background" x="717.595" y="286.9" width="73.475" height="13.5" fill="#fff" opacity="0"></rect><text id="label" font-size="13.50" font-weight="400" x="752.6" y="298.6" fill="#338711"><tspan x="752.595" y="298.645">Kenya</tspan></text></g><g id="mark__Ukraine" class="legendMark" style="cursor:default"><g id="connector" class="indicator"><path d="M721.595,465.1 H727.9479411764706 V309.15 H748.595" stroke="#999" stroke-width="0.5" fill="none"></path></g><rect id="background" x="717.595" y="302.4" width="81.575" height="13.5" fill="#fff" opacity="0"></rect><text id="label" font-size="13.50" font-weight="400" x="752.6" y="314.1" fill="#b16214"><tspan x="752.595" y="314.145">Ukraine</tspan></text></g><g id="mark__United-States" class="legendMark" style="cursor:default"><g id="connector" class="indicator"><path d="M721.595,481 H729.5361764705883 V324.65 H748.595" stroke="#999" stroke-width="0.5" fill="none"></path></g><rect id="background" x="717.595" y="317.9" width="116.405" height="13.5" fill="#fff" opacity="0"></rect><text id="label" font-size="13.50" font-weight="400" x="752.6" y="329.6" fill="#6d3e91"><tspan x="752.595" y="329.645">United States</tspan></text></g><g id="mark__India" class="legendMark" style="cursor:default"><g id="connector" class="indicator"><path d="M721.595,488.6 H731.124411764706 V340.15 H748.595" stroke="#999" stroke-width="0.5" fill="none"></path></g><rect id="background" x="717.595" y="333.4" width="64.43" height="13.5" fill="#fff" opacity="0"></rect><text id="label" font-size="13.50" font-weight="400" x="752.6" y="345.1" fill="#286bbb"><tspan x="752.595" y="345.145">India</tspan></text></g><g id="mark__USSR" class="legendMark" style="cursor:default"><g id="connector" class="indicator"><path d="M721.595,491.2 H732.7126470588236 V355.65 H748.595" stroke="#999" stroke-width="0.5" fill="none"></path></g><rect id="background" x="717.595" y="348.9" width="72.53" height="13.5" fill="#fff" opacity="0"></rect><text id="label" font-size="13.50" font-weight="400" x="752.6" y="360.6" fill="#996d39"><tspan x="752.595" y="360.645">USSR</tspan></text></g><g id="mark__Mozambique" class="legendMark" style="cursor:default"><g id="connector" class="indicator"><path d="M721.595,491.2 H734.3008823529412 V371.15 H748.595" stroke="#999" stroke-width="0.5" fill="none"></path></g><rect id="background" x="717.595" y="364.4" width="112.49000000000001" height="13.5" fill="#fff" opacity="0"></rect><text id="label" font-size="13.50" font-weight="400" x="752.6" y="376.1" fill="#578145"><tspan x="752.595" y="376.145">Mozambique</tspan></text></g><g id="mark__Malaysia" class="legendMark" style="cursor:default"><g id="connector" class="indicator"><path d="M721.595,491.6 H735.8891176470589 V386.65 H748.595" stroke="#999" stroke-width="0.5" fill="none"></path></g><rect id="background" x="717.595" y="379.9" width="88.325" height="13.5" fill="#fff" opacity="0"></rect><text id="label" font-size="13.50" font-weight="400" x="752.6" y="391.6" fill="#00875e"><tspan x="752.595" y="391.645">Malaysia</tspan></text></g><g id="mark__Senegal" class="legendMark" style="cursor:default"><g id="connector" class="indicator"><path d="M721.595,491.8 H737.4773529411765 V402.15 H748.595" stroke="#999" stroke-width="0.5" fill="none"></path></g><rect id="background" x="717.595" y="395.4" width="84.815" height="13.5" fill="#fff" opacity="0"></rect><text id="label" font-size="13.50" font-weight="400" x="752.6" y="407.1" fill="#2c8465"><tspan x="752.595" y="407.145">Senegal</tspan></text></g><g id="mark__Turkey" class="legendMark" style="cursor:default"><g id="connector" class="indicator"><path d="M721.595,492.3 H739.0655882352942 V417.65 H748.595" stroke="#999" stroke-width="0.5" fill="none"></path></g><rect id="background" x="717.595" y="410.9" width="76.31" height="13.5" fill="#fff" opacity="0"></rect><text id="label" font-size="13.50" font-weight="400" x="752.6" y="422.6" fill="#00295b"><tspan x="752.595" y="422.645">Turkey</tspan></text></g><g id="mark__Brazil" class="legendMark" style="cursor:default"><g id="connector" class="indicator"><path d="M721.595,495.7 H740.6538235294119 V433.15 H748.595" stroke="#999" stroke-width="0.5" fill="none"></path></g><rect id="background" x="717.595" y="426.4" width="68.75" height="13.5" fill="#fff" opacity="0"></rect><text id="label" font-size="13.50" font-weight="400" x="752.6" y="438.1" fill="#578145"><tspan x="752.595" y="438.145">Brazil</tspan></text></g><g id="mark__Sri-Lanka" class="legendMark" style="cursor:default"><g id="connector" class="indicator"><path d="M721.595,496.4 H742.2420588235294 V448.65 H748.595" stroke="#999" stroke-width="0.5" fill="none"></path></g><rect id="background" x="717.595" y="441.9" width="92.24000000000001" height="13.5" fill="#fff" opacity="0"></rect><text id="label" font-size="13.50" font-weight="400" x="752.6" y="453.6" fill="#d73c50"><tspan x="752.595" y="453.645">Sri Lanka</tspan></text></g><g id="mark__Vietnam" class="legendMark" style="cursor:default"><g id="connector" class="indicator"><path d="M721.595,496.5 H743.8302941176471 V464.15 H748.595" stroke="#999" stroke-width="0.5" fill="none"></path></g><rect id="background" x="717.595" y="457.4" width="84.68" height="13.5" fill="#fff" opacity="0"></rect><text id="label" font-size="13.50" font-weight="400" x="752.6" y="469.1" fill="#cf0a66"><tspan x="752.595" y="469.145">Vietnam</tspan></text></g><g id="mark__Thailand" class="legendMark" style="cursor:default"><g id="connector" class="indicator"><path d="M721.595,496.9 H745.4185294117648 V479.65 H748.595" stroke="#999" stroke-width="0.5" fill="none"></path></g><rect id="background" x="717.595" y="472.9" width="86.975" height="13.5" fill="#fff" opacity="0"></rect><text id="label" font-size="13.50" font-weight="400" x="752.6" y="484.6" fill="#b13507"><tspan x="752.595" y="484.645">Thailand</tspan></text></g><g id="mark__Madagascar" class="legendMark" style="cursor:default"><g id="connector" class="indicator"><path d="M721.595,496.9 H747.0067647058825 V495.15 H748.595" stroke="#999" stroke-width="0.5" fill="none"></path></g><rect id="background" x="717.595" y="488.4" width="109.52000000000001" height="13.5" fill="#fff" opacity="0"></rect><text id="label" font-size="13.50" font-weight="400" x="752.6" y="500.1" fill="#578145"><tspan x="752.595" y="500.145">Madagascar</tspan></text></g><g id="mark__Tanzania" class="legendMark" style="cursor:default"><g id="connector" class="indicator"><path d="M721.595,496.9 H747.0067647058825 V510.65 H748.595" stroke="#999" stroke-width="0.5" fill="none"></path></g><rect id="background" x="717.595" y="503.9" width="90.755" height="13.5" fill="#fff" opacity="0"></rect><text id="label" font-size="13.50" font-weight="400" x="752.6" y="515.6" fill="#9a5129"><tspan x="752.595" y="515.645">Tanzania</tspan></text></g></g><g id="lines" class="Lines"><rect x="78" y="89" width="640" height="408" fill="rgba(255,255,255,0)" opacity="0"></rect><g id="line__Tanzania"><path stroke-linecap="round" stroke-linejoin="round" stroke="#ddd" d="M693.4 496.9L705.5 496.9" fill="none" stroke-width="1"></path></g><g id="line__World"><path stroke-linecap="round" stroke-linejoin="round" stroke="#ddd" d="M681.4 111.5L693.4 103.3L705.5 89.3L717.6 140.2" fill="none" stroke-width="1"></path></g><g id="line__Turkey"><path stroke-linecap="round" stroke-linejoin="round" stroke="#ddd" d="M657.2 492.8L669.3 492.8L681.4 492.6L693.4 492.2L705.5 492.3" fill="none" stroke-width="1"></path></g><g id="line__Senegal"><path stroke-linecap="round" stroke-linejoin="round" stroke="#ddd" d="M560.6 496.9L681.4 491.2L693.4 491.2L705.5 491.2L717.6 491.8" fill="none" stroke-width="1"></path></g><g id="line__Kenya"><path stroke-linecap="round" stroke-linejoin="round" stroke="#ddd" d="M560.6 496.9L572.7 496.9L584.8 496.9L596.9 496.9L608.9 463.5L621 446.6L633.1 452.3L645.2 441.4L657.2 434.4L669.3 442.3L681.4 450.4L693.4 451L705.5 450.4L717.6 460" fill="none" stroke-width="1"></path></g><g id="line__Mozambique"><path stroke-linecap="round" stroke-linejoin="round" stroke="#ddd" d="M512.3 496.9L524.4 491.3L536.5 492.7L548.6 495.8L560.6 493.9L572.7 492.8L584.8 493.7L596.9 494.4L608.9 493L621 493.1L633.1 491.9L645.2 491.1L657.2 491.7L669.3 491.6L681.4 493.1L693.4 491.8L705.5 491.8L717.6 491.2" fill="none" stroke-width="1"></path></g><g id="line__Madagascar"><path stroke-linecap="round" stroke-linejoin="round" stroke="#ddd" d="M512.3 496.9L524.4 496.9L536.5 496.9L548.6 494.9L560.6 493.3L572.7 491L584.8 489.9L596.9 489.3L608.9 492.5L621 493.8L633.1 493.5L645.2 491.7L657.2 493.7L669.3 493.1L681.4 491.8L693.4 496.9L705.5 496.9L717.6 496.9" fill="none" stroke-width="1"></path></g><g id="line__Malaysia"><path stroke-linecap="round" stroke-linejoin="round" stroke="#ddd" d="M464.1 492.4L476.1 485.1L488.2 479.5L500.3 493.4L512.3 486.1L524.4 496L536.5 495.7L548.6 495.9L560.6 492.1L572.7 490L584.8 484.2L596.9 493.1L608.9 494.9L621 496.8L633.1 494.5L645.2 493.5L657.2 493.7L669.3 493.1L681.4 493.6L693.4 489.6L705.5 491.6" fill="none" stroke-width="1"></path></g><g id="line__Vietnam"><path stroke-linecap="round" stroke-linejoin="round" stroke="#ddd" d="M452 496.6L464.1 496.6L476.1 496.6L488.2 496.6L500.3 496.6L512.3 496.6L524.4 496.5L536.5 496.5L548.6 496.5" fill="none" stroke-width="1"></path></g><g id="line__Ukraine"><path stroke-linecap="round" stroke-linejoin="round" stroke="#ddd" d="M343.3 458.7L355.4 458.7L367.5 445.9L379.5 425.6L415.8 425.6L427.8 426.2L439.9 412.5L452 401.4L464.1 433.2L476.1 458.7L488.2 458.7L500.3 458.7L512.3 458.7L524.4 458.7L536.5 458.7L548.6 458.7L560.6 458.7L572.7 458.7L584.8 460L596.9 393.7L608.9 426.8L621 439.6L633.1 439.6L645.2 439.6L657.2 428.8L669.3 423.3L681.4 436.4L693.4 436.4L705.5 436.4L717.6 465.1" fill="none" stroke-width="1"></path></g><g id="line__Thailand"><path stroke-linecap="round" stroke-linejoin="round" stroke="#ddd" d="M343.3 496.7L355.4 496.8L367.5 496.9" fill="none" stroke-width="1"></path></g><g id="line__United-States"><path stroke-linecap="round" stroke-linejoin="round" stroke="#ddd" d="M282.9 481L295 481L307.1 481L319.2 478.4L331.2 479.7L343.3 478.4L355.4 481" fill="none" stroke-width="1"></path></g><g id="line__South-Africa"><path stroke-linecap="round" stroke-linejoin="round" stroke="#ddd" d="M162.2 494L174.3 485.4L186.4 470.1L319.2 456.1L331.2 449.1L343.3 449.1L355.4 433.2L367.5 439.6L379.5 439.6L391.6 426.8L403.7 423.7L415.8 423.7L427.8 418.6L439.9 418.6L452 419.2L464.1 407.7L476.1 433.2L488.2 433.2L500.3 414.1L512.3 417.2L524.4 425.9L536.5 412.8L548.6 411.5L560.6 410.9L572.7 412.2L584.8 407.1L596.9 450.1L608.9 412.2L621 454.2L633.1 454.2L645.2 436.4L657.2 431.3L669.3 426.8L681.4 442.1L693.4 436.4L705.5 433.2L717.6 433.2" fill="none" stroke-width="1"></path></g><g id="line__USSR"><path stroke-linecap="round" stroke-linejoin="round" stroke="#ddd" d="M150.1 491.2L162.2 491.2L174.3 491.2L186.4 490.5L198.4 490.5L210.5 490.5L222.6 490.5L234.7 490.5L246.7 490.5L258.8 490.5L270.9 490.5L282.9 490.5L295 490.5L307.1 490.5L319.2 490.8L331.2 491.2" fill="none" stroke-width="1"></path></g><g id="line__Sri-Lanka"><path stroke-linecap="round" stroke-linejoin="round" stroke="#ddd" d="M77.7 495.4L89.8 495.3L101.8 495.5L113.9 495.5L126 495L138.1 494.9L150.1 496.3L162.2 496.3L174.3 489.6L186.4 487.6L198.4 488.8L210.5 488.4L222.6 492.3L234.7 491.6L246.7 492.8L258.8 491.4L270.9 491.5L282.9 492.3L295 488.1L307.1 493.3L319.2 492.1L331.2 494.9L343.3 495.2L355.4 495.2L367.5 495.3L379.5 495.1L391.6 494.7L403.7 495L415.8 495.7L452 496.9L464.1 496.9L476.1 496.9L488.2 495.1L500.3 491.7L512.3 495.4L524.4 494L536.5 494.7L548.6 495.5L560.6 495.3L572.7 495.6L584.8 495.9L596.9 496L608.9 495.6L621 495.7L633.1 495.5L645.2 495.5L657.2 495.5L669.3 495.7L681.4 496.1L693.4 495.7L705.5 496.4" fill="none" stroke-width="1"></path></g><g id="line__India"><path stroke-linecap="round" stroke-linejoin="round" stroke="#ddd" d="M77.7 495.3L89.8 495.1L101.8 494.9L113.9 494.7L126 493.2L138.1 494.6L150.1 492.4L162.2 492.4L174.3 492.4L186.4 492.7L198.4 492.3L210.5 491.3L222.6 491.9L234.7 492.6L246.7 493.1L258.8 492.6L270.9 492.4L282.9 492.4L295 490.8L307.1 490.6L319.2 489.9L331.2 488.2L343.3 490.5L355.4 488L367.5 488.3L379.5 488.6L391.6 491L403.7 487.8L415.8 486.7L427.8 485.8L439.9 484.8L452 485.6L464.1 487.6L476.1 484.4L488.2 484.4L500.3 484L512.3 486.6L524.4 483.8L536.5 484.7L548.6 485.1L560.6 480L572.7 484L584.8 486.4L596.9 488.3L608.9 487L621 486.2L633.1 487.4L645.2 489.4L657.2 489.9L669.3 489.9L681.4 489.9L693.4 489.3L705.5 488.6L717.6 488.6" fill="none" stroke-width="1"></path></g><g id="line__Brazil"><path stroke-linecap="round" stroke-linejoin="round" stroke="#ddd" d="M77.7 496.9L101.8 496.7L113.9 496.8L126 496.8L138.1 496.8L150.1 496.9L162.2 496.8L174.3 496.7L186.4 496.6L198.4 496.6L210.5 496.8L222.6 496.8L234.7 496.2L246.7 496.5L258.8 496.7L270.9 496.7L282.9 496.7L295 495.9L307.1 495.2L319.2 495.4L331.2 496.2L343.3 495.7L355.4 495.8L367.5 495.7L379.5 495.6L391.6 495.8L403.7 495.5L415.8 495.4L427.8 494.7L439.9 494.9L452 495.3L464.1 495.2L476.1 495.3L488.2 495L500.3 495.1L512.3 495L524.4 495L536.5 495L548.6 495L560.6 495.4L572.7 495.4L584.8 495.7L596.9 495.6L608.9 495.7" fill="none" stroke-width="1"></path></g><g id="line__Australia"><path stroke-linecap="round" stroke-linejoin="round" stroke="#ddd" d="M77.7 260.7L89.8 258.2L101.8 297.4L113.9 283.4L126 293.9L138.1 275L150.1 248.6L162.2 289.7L174.3 333.2L186.4 322L198.4 298.3L210.5 349.9L222.6 356.3L234.7 392.8L246.7 388.3L258.8 362.1L270.9 359.5L282.9 340L295 349.8L307.1 342.1L319.2 340.8L331.2 374L343.3 380.3L355.4 377.8L367.5 348.5L379.5 367L391.6 380.3L403.7 348.5L415.8 341.5L427.8 381L439.9 365.1L452 365.1L464.1 357.4L476.1 386.7L488.2 393.7L500.3 384.2L512.3 349.1L524.4 298.2L536.5 294.3L548.6 315.4L560.6 217.9L572.7 199.6L584.8 216.9L596.9 337.4L608.9 279.9L621 309.3L633.1 315.5L645.2 352L657.2 363.3L669.3 398.5L681.4 375.9L693.4 375.9L705.5 369.5L717.6 369.5" fill="none" stroke-width="1"></path></g><g id="line__Tanzania"><path id="outline" fill="none" stroke-linecap="butt" stroke-linejoin="round" stroke="#fff" stroke-width="2.5" d="M693.4 496.9L705.5 496.9"></path><g id="polyline"><polyline id="polyline" points="693.40,496.90 705.50,496.90" stroke-linejoin="round" stroke-width="1.5" stroke="#9A5129" fill="none" stroke-linecap="butt"></polyline></g><g id="markers"><circle cx="693.4" cy="496.9" r="1.8" fill="#9A5129"></circle><circle cx="705.5" cy="496.9" r="1.8" fill="#9A5129"></circle></g></g><g id="line__World"><path id="outline" fill="none" stroke-linecap="butt" stroke-linejoin="round" stroke="#fff" stroke-width="2.5" d="M681.4 111.5L693.4 103.3L705.5 89.3L717.6 140.2"></path><g id="polyline"><polyline id="polyline" points="681.40,111.50 693.40,103.30 705.50,89.30 717.60,140.20" stroke-linejoin="round" stroke-width="1.5" stroke="#C15065" fill="none" stroke-linecap="butt"></polyline></g><g id="markers"><circle cx="681.4" cy="111.5" r="1.8" fill="#C15065"></circle><circle cx="693.4" cy="103.3" r="1.8" fill="#C15065"></circle><circle cx="705.5" cy="89.3" r="1.8" fill="#C15065"></circle><circle cx="717.6" cy="140.2" r="1.8" fill="#C15065"></circle></g></g><g id="line__Turkey"><path id="outline" fill="none" stroke-linecap="butt" stroke-linejoin="round" stroke="#fff" stroke-width="2.5" d="M657.2 492.8L669.3 492.8L681.4 492.6L693.4 492.2L705.5 492.3"></path><g id="polyline"><polyline id="polyline" points="657.20,492.80 669.30,492.80 681.40,492.60 693.40,492.20 705.50,492.30" stroke-linejoin="round" stroke-width="1.5" stroke="#00295B" fill="none" stroke-linecap="butt"></polyline></g><g id="markers"><circle cx="657.2" cy="492.8" r="1.8" fill="#00295B"></circle><circle cx="669.3" cy="492.8" r="1.8" fill="#00295B"></circle><circle cx="681.4" cy="492.6" r="1.8" fill="#00295B"></circle><circle cx="693.4" cy="492.2" r="1.8" fill="#00295B"></circle><circle cx="705.5" cy="492.3" r="1.8" fill="#00295B"></circle></g></g><g id="line__Senegal"><path id="outline" fill="none" stroke-linecap="butt" stroke-linejoin="round" stroke="#fff" stroke-width="2.5" d="M560.6 496.9L681.4 491.2L693.4 491.2L705.5 491.2L717.6 491.8"></path><g id="polyline"><polyline id="polyline" points="560.60,496.90 681.40,491.20 693.40,491.20 705.50,491.20 717.60,491.80" stroke-linejoin="round" stroke-width="1.5" stroke="#2C8465" fill="none" stroke-linecap="butt"></polyline></g><g id="markers"><circle cx="560.6" cy="496.9" r="1.8" fill="#2C8465"></circle><circle cx="681.4" cy="491.2" r="1.8" fill="#2C8465"></circle><circle cx="693.4" cy="491.2" r="1.8" fill="#2C8465"></circle><circle cx="705.5" cy="491.2" r="1.8" fill="#2C8465"></circle><circle cx="717.6" cy="491.8" r="1.8" fill="#2C8465"></circle></g></g><g id="line__Kenya"><path id="outline" fill="none" stroke-linecap="butt" stroke-linejoin="round" stroke="#fff" stroke-width="2.5" d="M560.6 496.9L572.7 496.9L584.8 496.9L596.9 496.9L608.9 463.5L621 446.6L633.1 452.3L645.2 441.4L657.2 434.4L669.3 442.3L681.4 450.4L693.4 451L705.5 450.4L717.6 460"></path><g id="polyline"><polyline id="polyline" points="560.60,496.90 572.70,496.90 584.80,496.90 596.90,496.90 608.90,463.50 621.00,446.60 633.10,452.30 645.20,441.40 657.20,434.40 669.30,442.30 681.40,450.40 693.40,451.00 705.50,450.40 717.60,460.00" stroke-linejoin="round" stroke-width="1.5" stroke="#338711" fill="none" stroke-linecap="butt"></polyline></g><g id="markers"><circle cx="560.6" cy="496.9" r="1.8" fill="#338711"></circle><circle cx="572.7" cy="496.9" r="1.8" fill="#338711"></circle><circle cx="584.8" cy="496.9" r="1.8" fill="#338711"></circle><circle cx="596.9" cy="496.9" r="1.8" fill="#338711"></circle><circle cx="608.9" cy="463.5" r="1.8" fill="#338711"></circle><circle cx="621" cy="446.6" r="1.8" fill="#338711"></circle><circle cx="633.1" cy="452.3" r="1.8" fill="#338711"></circle><circle cx="645.2" cy="441.4" r="1.8" fill="#338711"></circle><circle cx="657.2" cy="434.4" r="1.8" fill="#338711"></circle><circle cx="669.3" cy="442.3" r="1.8" fill="#338711"></circle><circle cx="681.4" cy="450.4" r="1.8" fill="#338711"></circle><circle cx="693.4" cy="451" r="1.8" fill="#338711"></circle><circle cx="705.5" cy="450.4" r="1.8" fill="#338711"></circle><circle cx="717.6" cy="460" r="1.8" fill="#338711"></circle></g></g><g id="line__Mozambique"><path id="outline" fill="none" stroke-linecap="butt" stroke-linejoin="round" stroke="#fff" stroke-width="2.5" d="M512.3 496.9L524.4 491.3L536.5 492.7L548.6 495.8L560.6 493.9L572.7 492.8L584.8 493.7L596.9 494.4L608.9 493L621 493.1L633.1 491.9L645.2 491.1L657.2 491.7L669.3 491.6L681.4 493.1L693.4 491.8L705.5 491.8L717.6 491.2"></path><g id="polyline"><polyline id="polyline" points="512.30,496.90 524.40,491.30 536.50,492.70 548.60,495.80 560.60,493.90 572.70,492.80 584.80,493.70 596.90,494.40 608.90,493.00 621.00,493.10 633.10,491.90 645.20,491.10 657.20,491.70 669.30,491.60 681.40,493.10 693.40,491.80 705.50,491.80 717.60,491.20" stroke-linejoin="round" stroke-width="1.5" stroke="#578145" fill="none" stroke-linecap="butt"></polyline></g><g id="markers"><circle cx="512.3" cy="496.9" r="1.8" fill="#578145"></circle><circle cx="524.4" cy="491.3" r="1.8" fill="#578145"></circle><circle cx="536.5" cy="492.7" r="1.8" fill="#578145"></circle><circle cx="548.6" cy="495.8" r="1.8" fill="#578145"></circle><circle cx="560.6" cy="493.9" r="1.8" fill="#578145"></circle><circle cx="572.7" cy="492.8" r="1.8" fill="#578145"></circle><circle cx="584.8" cy="493.7" r="1.8" fill="#578145"></circle><circle cx="596.9" cy="494.4" r="1.8" fill="#578145"></circle><circle cx="608.9" cy="493" r="1.8" fill="#578145"></circle><circle cx="621" cy="493.1" r="1.8" fill="#578145"></circle><circle cx="633.1" cy="491.9" r="1.8" fill="#578145"></circle><circle cx="645.2" cy="491.1" r="1.8" fill="#578145"></circle><circle cx="657.2" cy="491.7" r="1.8" fill="#578145"></circle><circle cx="669.3" cy="491.6" r="1.8" fill="#578145"></circle><circle cx="681.4" cy="493.1" r="1.8" fill="#578145"></circle><circle cx="693.4" cy="491.8" r="1.8" fill="#578145"></circle><circle cx="705.5" cy="491.8" r="1.8" fill="#578145"></circle><circle cx="717.6" cy="491.2" r="1.8" fill="#578145"></circle></g></g><g id="line__Madagascar"><path id="outline" fill="none" stroke-linecap="butt" stroke-linejoin="round" stroke="#fff" stroke-width="2.5" d="M512.3 496.9L524.4 496.9L536.5 496.9L548.6 494.9L560.6 493.3L572.7 491L584.8 489.9L596.9 489.3L608.9 492.5L621 493.8L633.1 493.5L645.2 491.7L657.2 493.7L669.3 493.1L681.4 491.8L693.4 496.9L705.5 496.9L717.6 496.9"></path><g id="polyline"><polyline id="polyline" points="512.30,496.90 524.40,496.90 536.50,496.90 548.60,494.90 560.60,493.30 572.70,491.00 584.80,489.90 596.90,489.30 608.90,492.50 621.00,493.80 633.10,493.50 645.20,491.70 657.20,493.70 669.30,493.10 681.40,491.80 693.40,496.90 705.50,496.90 717.60,496.90" stroke-linejoin="round" stroke-width="1.5" stroke="#578145" fill="none" stroke-linecap="butt"></polyline></g><g id="markers"><circle cx="512.3" cy="496.9" r="1.8" fill="#578145"></circle><circle cx="524.4" cy="496.9" r="1.8" fill="#578145"></circle><circle cx="536.5" cy="496.9" r="1.8" fill="#578145"></circle><circle cx="548.6" cy="494.9" r="1.8" fill="#578145"></circle><circle cx="560.6" cy="493.3" r="1.8" fill="#578145"></circle><circle cx="572.7" cy="491" r="1.8" fill="#578145"></circle><circle cx="584.8" cy="489.9" r="1.8" fill="#578145"></circle><circle cx="596.9" cy="489.3" r="1.8" fill="#578145"></circle><circle cx="608.9" cy="492.5" r="1.8" fill="#578145"></circle><circle cx="621" cy="493.8" r="1.8" fill="#578145"></circle><circle cx="633.1" cy="493.5" r="1.8" fill="#578145"></circle><circle cx="645.2" cy="491.7" r="1.8" fill="#578145"></circle><circle cx="657.2" cy="493.7" r="1.8" fill="#578145"></circle><circle cx="669.3" cy="493.1" r="1.8" fill="#578145"></circle><circle cx="681.4" cy="491.8" r="1.8" fill="#578145"></circle><circle cx="693.4" cy="496.9" r="1.8" fill="#578145"></circle><circle cx="705.5" cy="496.9" r="1.8" fill="#578145"></circle><circle cx="717.6" cy="496.9" r="1.8" fill="#578145"></circle></g></g><g id="line__Malaysia"><path id="outline" fill="none" stroke-linecap="butt" stroke-linejoin="round" stroke="#fff" stroke-width="2.5" d="M464.1 492.4L476.1 485.1L488.2 479.5L500.3 493.4L512.3 486.1L524.4 496L536.5 495.7L548.6 495.9L560.6 492.1L572.7 490L584.8 484.2L596.9 493.1L608.9 494.9L621 496.8L633.1 494.5L645.2 493.5L657.2 493.7L669.3 493.1L681.4 493.6L693.4 489.6L705.5 491.6"></path><g id="polyline"><polyline id="polyline" points="464.10,492.40 476.10,485.10 488.20,479.50 500.30,493.40 512.30,486.10 524.40,496.00 536.50,495.70 548.60,495.90 560.60,492.10 572.70,490.00 584.80,484.20 596.90,493.10 608.90,494.90 621.00,496.80 633.10,494.50 645.20,493.50 657.20,493.70 669.30,493.10 681.40,493.60 693.40,489.60 705.50,491.60" stroke-linejoin="round" stroke-width="1.5" stroke="#00875E" fill="none" stroke-linecap="butt"></polyline></g><g id="markers"><circle cx="464.1" cy="492.4" r="1.8" fill="#00875E"></circle><circle cx="476.1" cy="485.1" r="1.8" fill="#00875E"></circle><circle cx="488.2" cy="479.5" r="1.8" fill="#00875E"></circle><circle cx="500.3" cy="493.4" r="1.8" fill="#00875E"></circle><circle cx="512.3" cy="486.1" r="1.8" fill="#00875E"></circle><circle cx="524.4" cy="496" r="1.8" fill="#00875E"></circle><circle cx="536.5" cy="495.7" r="1.8" fill="#00875E"></circle><circle cx="548.6" cy="495.9" r="1.8" fill="#00875E"></circle><circle cx="560.6" cy="492.1" r="1.8" fill="#00875E"></circle><circle cx="572.7" cy="490" r="1.8" fill="#00875E"></circle><circle cx="584.8" cy="484.2" r="1.8" fill="#00875E"></circle><circle cx="596.9" cy="493.1" r="1.8" fill="#00875E"></circle><circle cx="608.9" cy="494.9" r="1.8" fill="#00875E"></circle><circle cx="621" cy="496.8" r="1.8" fill="#00875E"></circle><circle cx="633.1" cy="494.5" r="1.8" fill="#00875E"></circle><circle cx="645.2" cy="493.5" r="1.8" fill="#00875E"></circle><circle cx="657.2" cy="493.7" r="1.8" fill="#00875E"></circle><circle cx="669.3" cy="493.1" r="1.8" fill="#00875E"></circle><circle cx="681.4" cy="493.6" r="1.8" fill="#00875E"></circle><circle cx="693.4" cy="489.6" r="1.8" fill="#00875E"></circle><circle cx="705.5" cy="491.6" r="1.8" fill="#00875E"></circle></g></g><g id="line__Vietnam"><path id="outline" fill="none" stroke-linecap="butt" stroke-linejoin="round" stroke="#fff" stroke-width="2.5" d="M452 496.6L464.1 496.6L476.1 496.6L488.2 496.6L500.3 496.6L512.3 496.6L524.4 496.5L536.5 496.5L548.6 496.5"></path><g id="polyline"><polyline id="polyline" points="452.00,496.60 464.10,496.60 476.10,496.60 488.20,496.60 500.30,496.60 512.30,496.60 524.40,496.50 536.50,496.50 548.60,496.50" stroke-linejoin="round" stroke-width="1.5" stroke="#CF0A66" fill="none" stroke-linecap="butt"></polyline></g><g id="markers"><circle cx="452" cy="496.6" r="1.8" fill="#CF0A66"></circle><circle cx="464.1" cy="496.6" r="1.8" fill="#CF0A66"></circle><circle cx="476.1" cy="496.6" r="1.8" fill="#CF0A66"></circle><circle cx="488.2" cy="496.6" r="1.8" fill="#CF0A66"></circle><circle cx="500.3" cy="496.6" r="1.8" fill="#CF0A66"></circle><circle cx="512.3" cy="496.6" r="1.8" fill="#CF0A66"></circle><circle cx="524.4" cy="496.5" r="1.8" fill="#CF0A66"></circle><circle cx="536.5" cy="496.5" r="1.8" fill="#CF0A66"></circle><circle cx="548.6" cy="496.5" r="1.8" fill="#CF0A66"></circle></g></g><g id="line__Ukraine"><path id="outline" fill="none" stroke-linecap="butt" stroke-linejoin="round" stroke="#fff" stroke-width="2.5" d="M343.3 458.7L355.4 458.7L367.5 445.9L379.5 425.6L415.8 425.6L427.8 426.2L439.9 412.5L452 401.4L464.1 433.2L476.1 458.7L488.2 458.7L500.3 458.7L512.3 458.7L524.4 458.7L536.5 458.7L548.6 458.7L560.6 458.7L572.7 458.7L584.8 460L596.9 393.7L608.9 426.8L621 439.6L633.1 439.6L645.2 439.6L657.2 428.8L669.3 423.3L681.4 436.4L693.4 436.4L705.5 436.4L717.6 465.1"></path><g id="polyline"><polyline id="polyline" points="343.30,458.70 355.40,458.70 367.50,445.90 379.50,425.60 415.80,425.60 427.80,426.20 439.90,412.50 452.00,401.40 464.10,433.20 476.10,458.70 488.20,458.70 500.30,458.70 512.30,458.70 524.40,458.70 536.50,458.70 548.60,458.70 560.60,458.70 572.70,458.70 584.80,460.00 596.90,393.70 608.90,426.80 621.00,439.60 633.10,439.60 645.20,439.60 657.20,428.80 669.30,423.30 681.40,436.40 693.40,436.40 705.50,436.40 717.60,465.10" stroke-linejoin="round" stroke-width="1.5" stroke="#B16214" fill="none" stroke-linecap="butt"></polyline></g><g id="markers"><circle cx="343.3" cy="458.7" r="1.8" fill="#B16214"></circle><circle cx="355.4" cy="458.7" r="1.8" fill="#B16214"></circle><circle cx="367.5" cy="445.9" r="1.8" fill="#B16214"></circle><circle cx="379.5" cy="425.6" r="1.8" fill="#B16214"></circle><circle cx="415.8" cy="425.6" r="1.8" fill="#B16214"></circle><circle cx="427.8" cy="426.2" r="1.8" fill="#B16214"></circle><circle cx="439.9" cy="412.5" r="1.8" fill="#B16214"></circle><circle cx="452" cy="401.4" r="1.8" fill="#B16214"></circle><circle cx="464.1" cy="433.2" r="1.8" fill="#B16214"></circle><circle cx="476.1" cy="458.7" r="1.8" fill="#B16214"></circle><circle cx="488.2" cy="458.7" r="1.8" fill="#B16214"></circle><circle cx="500.3" cy="458.7" r="1.8" fill="#B16214"></circle><circle cx="512.3" cy="458.7" r="1.8" fill="#B16214"></circle><circle cx="524.4" cy="458.7" r="1.8" fill="#B16214"></circle><circle cx="536.5" cy="458.7" r="1.8" fill="#B16214"></circle><circle cx="548.6" cy="458.7" r="1.8" fill="#B16214"></circle><circle cx="560.6" cy="458.7" r="1.8" fill="#B16214"></circle><circle cx="572.7" cy="458.7" r="1.8" fill="#B16214"></circle><circle cx="584.8" cy="460" r="1.8" fill="#B16214"></circle><circle cx="596.9" cy="393.7" r="1.8" fill="#B16214"></circle><circle cx="608.9" cy="426.8" r="1.8" fill="#B16214"></circle><circle cx="621" cy="439.6" r="1.8" fill="#B16214"></circle><circle cx="633.1" cy="439.6" r="1.8" fill="#B16214"></circle><circle cx="645.2" cy="439.6" r="1.8" fill="#B16214"></circle><circle cx="657.2" cy="428.8" r="1.8" fill="#B16214"></circle><circle cx="669.3" cy="423.3" r="1.8" fill="#B16214"></circle><circle cx="681.4" cy="436.4" r="1.8" fill="#B16214"></circle><circle cx="693.4" cy="436.4" r="1.8" fill="#B16214"></circle><circle cx="705.5" cy="436.4" r="1.8" fill="#B16214"></circle><circle cx="717.6" cy="465.1" r="1.8" fill="#B16214"></circle></g></g><g id="line__Thailand"><path id="outline" fill="none" stroke-linecap="butt" stroke-linejoin="round" stroke="#fff" stroke-width="2.5" d="M343.3 496.7L355.4 496.8L367.5 496.9"></path><g id="polyline"><polyline id="polyline" points="343.30,496.70 355.40,496.80 367.50,496.90" stroke-linejoin="round" stroke-width="1.5" stroke="#B13507" fill="none" stroke-linecap="butt"></polyline></g><g id="markers"><circle cx="343.3" cy="496.7" r="1.8" fill="#B13507"></circle><circle cx="355.4" cy="496.8" r="1.8" fill="#B13507"></circle><circle cx="367.5" cy="496.9" r="1.8" fill="#B13507"></circle></g></g><g id="line__United-States"><path id="outline" fill="none" stroke-linecap="butt" stroke-linejoin="round" stroke="#fff" stroke-width="2.5" d="M282.9 481L295 481L307.1 481L319.2 478.4L331.2 479.7L343.3 478.4L355.4 481"></path><g id="polyline"><polyline id="polyline" points="282.90,481.00 295.00,481.00 307.10,481.00 319.20,478.40 331.20,479.70 343.30,478.40 355.40,481.00" stroke-linejoin="round" stroke-width="1.5" stroke="#6D3E91" fill="none" stroke-linecap="butt"></polyline></g><g id="markers"><circle cx="282.9" cy="481" r="1.8" fill="#6D3E91"></circle><circle cx="295" cy="481" r="1.8" fill="#6D3E91"></circle><circle cx="307.1" cy="481" r="1.8" fill="#6D3E91"></circle><circle cx="319.2" cy="478.4" r="1.8" fill="#6D3E91"></circle><circle cx="331.2" cy="479.7" r="1.8" fill="#6D3E91"></circle><circle cx="343.3" cy="478.4" r="1.8" fill="#6D3E91"></circle><circle cx="355.4" cy="481" r="1.8" fill="#6D3E91"></circle></g></g><g id="line__South-Africa"><path id="outline" fill="none" stroke-linecap="butt" stroke-linejoin="round" stroke="#fff" stroke-width="2.5" d="M162.2 494L174.3 485.4L186.4 470.1L319.2 456.1L331.2 449.1L343.3 449.1L355.4 433.2L367.5 439.6L379.5 439.6L391.6 426.8L403.7 423.7L415.8 423.7L427.8 418.6L439.9 418.6L452 419.2L464.1 407.7L476.1 433.2L488.2 433.2L500.3 414.1L512.3 417.2L524.4 425.9L536.5 412.8L548.6 411.5L560.6 410.9L572.7 412.2L584.8 407.1L596.9 450.1L608.9 412.2L621 454.2L633.1 454.2L645.2 436.4L657.2 431.3L669.3 426.8L681.4 442.1L693.4 436.4L705.5 433.2L717.6 433.2"></path><g id="polyline"><polyline id="polyline" points="162.20,494.00 174.30,485.40 186.40,470.10 319.20,456.10 331.20,449.10 343.30,449.10 355.40,433.20 367.50,439.60 379.50,439.60 391.60,426.80 403.70,423.70 415.80,423.70 427.80,418.60 439.90,418.60 452.00,419.20 464.10,407.70 476.10,433.20 488.20,433.20 500.30,414.10 512.30,417.20 524.40,425.90 536.50,412.80 548.60,411.50 560.60,410.90 572.70,412.20 584.80,407.10 596.90,450.10 608.90,412.20 621.00,454.20 633.10,454.20 645.20,436.40 657.20,431.30 669.30,426.80 681.40,442.10 693.40,436.40 705.50,433.20 717.60,433.20" stroke-linejoin="round" stroke-width="1.5" stroke="#00847E" fill="none" stroke-linecap="butt"></polyline></g><g id="markers"><circle cx="162.2" cy="494" r="1.8" fill="#00847E"></circle><circle cx="174.3" cy="485.4" r="1.8" fill="#00847E"></circle><circle cx="186.4" cy="470.1" r="1.8" fill="#00847E"></circle><circle cx="319.2" cy="456.1" r="1.8" fill="#00847E"></circle><circle cx="331.2" cy="449.1" r="1.8" fill="#00847E"></circle><circle cx="343.3" cy="449.1" r="1.8" fill="#00847E"></circle><circle cx="355.4" cy="433.2" r="1.8" fill="#00847E"></circle><circle cx="367.5" cy="439.6" r="1.8" fill="#00847E"></circle><circle cx="379.5" cy="439.6" r="1.8" fill="#00847E"></circle><circle cx="391.6" cy="426.8" r="1.8" fill="#00847E"></circle><circle cx="403.7" cy="423.7" r="1.8" fill="#00847E"></circle><circle cx="415.8" cy="423.7" r="1.8" fill="#00847E"></circle><circle cx="427.8" cy="418.6" r="1.8" fill="#00847E"></circle><circle cx="439.9" cy="418.6" r="1.8" fill="#00847E"></circle><circle cx="452" cy="419.2" r="1.8" fill="#00847E"></circle><circle cx="464.1" cy="407.7" r="1.8" fill="#00847E"></circle><circle cx="476.1" cy="433.2" r="1.8" fill="#00847E"></circle><circle cx="488.2" cy="433.2" r="1.8" fill="#00847E"></circle><circle cx="500.3" cy="414.1" r="1.8" fill="#00847E"></circle><circle cx="512.3" cy="417.2" r="1.8" fill="#00847E"></circle><circle cx="524.4" cy="425.9" r="1.8" fill="#00847E"></circle><circle cx="536.5" cy="412.8" r="1.8" fill="#00847E"></circle><circle cx="548.6" cy="411.5" r="1.8" fill="#00847E"></circle><circle cx="560.6" cy="410.9" r="1.8" fill="#00847E"></circle><circle cx="572.7" cy="412.2" r="1.8" fill="#00847E"></circle><circle cx="584.8" cy="407.1" r="1.8" fill="#00847E"></circle><circle cx="596.9" cy="450.1" r="1.8" fill="#00847E"></circle><circle cx="608.9" cy="412.2" r="1.8" fill="#00847E"></circle><circle cx="621" cy="454.2" r="1.8" fill="#00847E"></circle><circle cx="633.1" cy="454.2" r="1.8" fill="#00847E"></circle><circle cx="645.2" cy="436.4" r="1.8" fill="#00847E"></circle><circle cx="657.2" cy="431.3" r="1.8" fill="#00847E"></circle><circle cx="669.3" cy="426.8" r="1.8" fill="#00847E"></circle><circle cx="681.4" cy="442.1" r="1.8" fill="#00847E"></circle><circle cx="693.4" cy="436.4" r="1.8" fill="#00847E"></circle><circle cx="705.5" cy="433.2" r="1.8" fill="#00847E"></circle><circle cx="717.6" cy="433.2" r="1.8" fill="#00847E"></circle></g></g><g id="line__USSR"><path id="outline" fill="none" stroke-linecap="butt" stroke-linejoin="round" stroke="#fff" stroke-width="2.5" d="M150.1 491.2L162.2 491.2L174.3 491.2L186.4 490.5L198.4 490.5L210.5 490.5L222.6 490.5L234.7 490.5L246.7 490.5L258.8 490.5L270.9 490.5L282.9 490.5L295 490.5L307.1 490.5L319.2 490.8L331.2 491.2"></path><g id="polyline"><polyline id="polyline" points="150.10,491.20 162.20,491.20 174.30,491.20 186.40,490.50 198.40,490.50 210.50,490.50 222.60,490.50 234.70,490.50 246.70,490.50 258.80,490.50 270.90,490.50 282.90,490.50 295.00,490.50 307.10,490.50 319.20,490.80 331.20,491.20" stroke-linejoin="round" stroke-width="1.5" stroke="#996D39" fill="none" stroke-linecap="butt"></polyline></g><g id="markers"><circle cx="150.1" cy="491.2" r="1.8" fill="#996D39"></circle><circle cx="162.2" cy="491.2" r="1.8" fill="#996D39"></circle><circle cx="174.3" cy="491.2" r="1.8" fill="#996D39"></circle><circle cx="186.4" cy="490.5" r="1.8" fill="#996D39"></circle><circle cx="198.4" cy="490.5" r="1.8" fill="#996D39"></circle><circle cx="210.5" cy="490.5" r="1.8" fill="#996D39"></circle><circle cx="222.6" cy="490.5" r="1.8" fill="#996D39"></circle><circle cx="234.7" cy="490.5" r="1.8" fill="#996D39"></circle><circle cx="246.7" cy="490.5" r="1.8" fill="#996D39"></circle><circle cx="258.8" cy="490.5" r="1.8" fill="#996D39"></circle><circle cx="270.9" cy="490.5" r="1.8" fill="#996D39"></circle><circle cx="282.9" cy="490.5" r="1.8" fill="#996D39"></circle><circle cx="295" cy="490.5" r="1.8" fill="#996D39"></circle><circle cx="307.1" cy="490.5" r="1.8" fill="#996D39"></circle><circle cx="319.2" cy="490.8" r="1.8" fill="#996D39"></circle><circle cx="331.2" cy="491.2" r="1.8" fill="#996D39"></circle></g></g><g id="line__Sri-Lanka"><path id="outline" fill="none" stroke-linecap="butt" stroke-linejoin="round" stroke="#fff" stroke-width="2.5" d="M77.7 495.4L89.8 495.3L101.8 495.5L113.9 495.5L126 495L138.1 494.9L150.1 496.3L162.2 496.3L174.3 489.6L186.4 487.6L198.4 488.8L210.5 488.4L222.6 492.3L234.7 491.6L246.7 492.8L258.8 491.4L270.9 491.5L282.9 492.3L295 488.1L307.1 493.3L319.2 492.1L331.2 494.9L343.3 495.2L355.4 495.2L367.5 495.3L379.5 495.1L391.6 494.7L403.7 495L415.8 495.7L452 496.9L464.1 496.9L476.1 496.9L488.2 495.1L500.3 491.7L512.3 495.4L524.4 494L536.5 494.7L548.6 495.5L560.6 495.3L572.7 495.6L584.8 495.9L596.9 496L608.9 495.6L621 495.7L633.1 495.5L645.2 495.5L657.2 495.5L669.3 495.7L681.4 496.1L693.4 495.7L705.5 496.4"></path><g id="polyline"><polyline id="polyline" points="77.70,495.40 89.80,495.30 101.80,495.50 113.90,495.50 126.00,495.00 138.10,494.90 150.10,496.30 162.20,496.30 174.30,489.60 186.40,487.60 198.40,488.80 210.50,488.40 222.60,492.30 234.70,491.60 246.70,492.80 258.80,491.40 270.90,491.50 282.90,492.30 295.00,488.10 307.10,493.30 319.20,492.10 331.20,494.90 343.30,495.20 355.40,495.20 367.50,495.30 379.50,495.10 391.60,494.70 403.70,495.00 415.80,495.70 452.00,496.90 464.10,496.90 476.10,496.90 488.20,495.10 500.30,491.70 512.30,495.40 524.40,494.00 536.50,494.70 548.60,495.50 560.60,495.30 572.70,495.60 584.80,495.90 596.90,496.00 608.90,495.60 621.00,495.70 633.10,495.50 645.20,495.50 657.20,495.50 669.30,495.70 681.40,496.10 693.40,495.70 705.50,496.40" stroke-linejoin="round" stroke-width="1.5" stroke="#D73C50" fill="none" stroke-linecap="butt"></polyline></g><g id="markers"><circle cx="77.7" cy="495.4" r="1.8" fill="#D73C50"></circle><circle cx="89.8" cy="495.3" r="1.8" fill="#D73C50"></circle><circle cx="101.8" cy="495.5" r="1.8" fill="#D73C50"></circle><circle cx="113.9" cy="495.5" r="1.8" fill="#D73C50"></circle><circle cx="126" cy="495" r="1.8" fill="#D73C50"></circle><circle cx="138.1" cy="494.9" r="1.8" fill="#D73C50"></circle><circle cx="150.1" cy="496.3" r="1.8" fill="#D73C50"></circle><circle cx="162.2" cy="496.3" r="1.8" fill="#D73C50"></circle><circle cx="174.3" cy="489.6" r="1.8" fill="#D73C50"></circle><circle cx="186.4" cy="487.6" r="1.8" fill="#D73C50"></circle><circle cx="198.4" cy="488.8" r="1.8" fill="#D73C50"></circle><circle cx="210.5" cy="488.4" r="1.8" fill="#D73C50"></circle><circle cx="222.6" cy="492.3" r="1.8" fill="#D73C50"></circle><circle cx="234.7" cy="491.6" r="1.8" fill="#D73C50"></circle><circle cx="246.7" cy="492.8" r="1.8" fill="#D73C50"></circle><circle cx="258.8" cy="491.4" r="1.8" fill="#D73C50"></circle><circle cx="270.9" cy="491.5" r="1.8" fill="#D73C50"></circle><circle cx="282.9" cy="492.3" r="1.8" fill="#D73C50"></circle><circle cx="295" cy="488.1" r="1.8" fill="#D73C50"></circle><circle cx="307.1" cy="493.3" r="1.8" fill="#D73C50"></circle><circle cx="319.2" cy="492.1" r="1.8" fill="#D73C50"></circle><circle cx="331.2" cy="494.9" r="1.8" fill="#D73C50"></circle><circle cx="343.3" cy="495.2" r="1.8" fill="#D73C50"></circle><circle cx="355.4" cy="495.2" r="1.8" fill="#D73C50"></circle><circle cx="367.5" cy="495.3" r="1.8" fill="#D73C50"></circle><circle cx="379.5" cy="495.1" r="1.8" fill="#D73C50"></circle><circle cx="391.6" cy="494.7" r="1.8" fill="#D73C50"></circle><circle cx="403.7" cy="495" r="1.8" fill="#D73C50"></circle><circle cx="415.8" cy="495.7" r="1.8" fill="#D73C50"></circle><circle cx="452" cy="496.9" r="1.8" fill="#D73C50"></circle><circle cx="464.1" cy="496.9" r="1.8" fill="#D73C50"></circle><circle cx="476.1" cy="496.9" r="1.8" fill="#D73C50"></circle><circle cx="488.2" cy="495.1" r="1.8" fill="#D73C50"></circle><circle cx="500.3" cy="491.7" r="1.8" fill="#D73C50"></circle><circle cx="512.3" cy="495.4" r="1.8" fill="#D73C50"></circle><circle cx="524.4" cy="494" r="1.8" fill="#D73C50"></circle><circle cx="536.5" cy="494.7" r="1.8" fill="#D73C50"></circle><circle cx="548.6" cy="495.5" r="1.8" fill="#D73C50"></circle><circle cx="560.6" cy="495.3" r="1.8" fill="#D73C50"></circle><circle cx="572.7" cy="495.6" r="1.8" fill="#D73C50"></circle><circle cx="584.8" cy="495.9" r="1.8" fill="#D73C50"></circle><circle cx="596.9" cy="496" r="1.8" fill="#D73C50"></circle><circle cx="608.9" cy="495.6" r="1.8" fill="#D73C50"></circle><circle cx="621" cy="495.7" r="1.8" fill="#D73C50"></circle><circle cx="633.1" cy="495.5" r="1.8" fill="#D73C50"></circle><circle cx="645.2" cy="495.5" r="1.8" fill="#D73C50"></circle><circle cx="657.2" cy="495.5" r="1.8" fill="#D73C50"></circle><circle cx="669.3" cy="495.7" r="1.8" fill="#D73C50"></circle><circle cx="681.4" cy="496.1" r="1.8" fill="#D73C50"></circle><circle cx="693.4" cy="495.7" r="1.8" fill="#D73C50"></circle><circle cx="705.5" cy="496.4" r="1.8" fill="#D73C50"></circle></g></g><g id="line__India"><path id="outline" fill="none" stroke-linecap="butt" stroke-linejoin="round" stroke="#fff" stroke-width="2.5" d="M77.7 495.3L89.8 495.1L101.8 494.9L113.9 494.7L126 493.2L138.1 494.6L150.1 492.4L162.2 492.4L174.3 492.4L186.4 492.7L198.4 492.3L210.5 491.3L222.6 491.9L234.7 492.6L246.7 493.1L258.8 492.6L270.9 492.4L282.9 492.4L295 490.8L307.1 490.6L319.2 489.9L331.2 488.2L343.3 490.5L355.4 488L367.5 488.3L379.5 488.6L391.6 491L403.7 487.8L415.8 486.7L427.8 485.8L439.9 484.8L452 485.6L464.1 487.6L476.1 484.4L488.2 484.4L500.3 484L512.3 486.6L524.4 483.8L536.5 484.7L548.6 485.1L560.6 480L572.7 484L584.8 486.4L596.9 488.3L608.9 487L621 486.2L633.1 487.4L645.2 489.4L657.2 489.9L669.3 489.9L681.4 489.9L693.4 489.3L705.5 488.6L717.6 488.6"></path><g id="polyline"><polyline id="polyline" points="77.70,495.30 89.80,495.10 101.80,494.90 113.90,494.70 126.00,493.20 138.10,494.60 150.10,492.40 162.20,492.40 174.30,492.40 186.40,492.70 198.40,492.30 210.50,491.30 222.60,491.90 234.70,492.60 246.70,493.10 258.80,492.60 270.90,492.40 282.90,492.40 295.00,490.80 307.10,490.60 319.20,489.90 331.20,488.20 343.30,490.50 355.40,488.00 367.50,488.30 379.50,488.60 391.60,491.00 403.70,487.80 415.80,486.70 427.80,485.80 439.90,484.80 452.00,485.60 464.10,487.60 476.10,484.40 488.20,484.40 500.30,484.00 512.30,486.60 524.40,483.80 536.50,484.70 548.60,485.10 560.60,480.00 572.70,484.00 584.80,486.40 596.90,488.30 608.90,487.00 621.00,486.20 633.10,487.40 645.20,489.40 657.20,489.90 669.30,489.90 681.40,489.90 693.40,489.30 705.50,488.60 717.60,488.60" stroke-linejoin="round" stroke-width="1.5" stroke="#286BBB" fill="none" stroke-linecap="butt"></polyline></g><g id="markers"><circle cx="77.7" cy="495.3" r="1.8" fill="#286BBB"></circle><circle cx="89.8" cy="495.1" r="1.8" fill="#286BBB"></circle><circle cx="101.8" cy="494.9" r="1.8" fill="#286BBB"></circle><circle cx="113.9" cy="494.7" r="1.8" fill="#286BBB"></circle><circle cx="126" cy="493.2" r="1.8" fill="#286BBB"></circle><circle cx="138.1" cy="494.6" r="1.8" fill="#286BBB"></circle><circle cx="150.1" cy="492.4" r="1.8" fill="#286BBB"></circle><circle cx="162.2" cy="492.4" r="1.8" fill="#286BBB"></circle><circle cx="174.3" cy="492.4" r="1.8" fill="#286BBB"></circle><circle cx="186.4" cy="492.7" r="1.8" fill="#286BBB"></circle><circle cx="198.4" cy="492.3" r="1.8" fill="#286BBB"></circle><circle cx="210.5" cy="491.3" r="1.8" fill="#286BBB"></circle><circle cx="222.6" cy="491.9" r="1.8" fill="#286BBB"></circle><circle cx="234.7" cy="492.6" r="1.8" fill="#286BBB"></circle><circle cx="246.7" cy="493.1" r="1.8" fill="#286BBB"></circle><circle cx="258.8" cy="492.6" r="1.8" fill="#286BBB"></circle><circle cx="270.9" cy="492.4" r="1.8" fill="#286BBB"></circle><circle cx="282.9" cy="492.4" r="1.8" fill="#286BBB"></circle><circle cx="295" cy="490.8" r="1.8" fill="#286BBB"></circle><circle cx="307.1" cy="490.6" r="1.8" fill="#286BBB"></circle><circle cx="319.2" cy="489.9" r="1.8" fill="#286BBB"></circle><circle cx="331.2" cy="488.2" r="1.8" fill="#286BBB"></circle><circle cx="343.3" cy="490.5" r="1.8" fill="#286BBB"></circle><circle cx="355.4" cy="488" r="1.8" fill="#286BBB"></circle><circle cx="367.5" cy="488.3" r="1.8" fill="#286BBB"></circle><circle cx="379.5" cy="488.6" r="1.8" fill="#286BBB"></circle><circle cx="391.6" cy="491" r="1.8" fill="#286BBB"></circle><circle cx="403.7" cy="487.8" r="1.8" fill="#286BBB"></circle><circle cx="415.8" cy="486.7" r="1.8" fill="#286BBB"></circle><circle cx="427.8" cy="485.8" r="1.8" fill="#286BBB"></circle><circle cx="439.9" cy="484.8" r="1.8" fill="#286BBB"></circle><circle cx="452" cy="485.6" r="1.8" fill="#286BBB"></circle><circle cx="464.1" cy="487.6" r="1.8" fill="#286BBB"></circle><circle cx="476.1" cy="484.4" r="1.8" fill="#286BBB"></circle><circle cx="488.2" cy="484.4" r="1.8" fill="#286BBB"></circle><circle cx="500.3" cy="484" r="1.8" fill="#286BBB"></circle><circle cx="512.3" cy="486.6" r="1.8" fill="#286BBB"></circle><circle cx="524.4" cy="483.8" r="1.8" fill="#286BBB"></circle><circle cx="536.5" cy="484.7" r="1.8" fill="#286BBB"></circle><circle cx="548.6" cy="485.1" r="1.8" fill="#286BBB"></circle><circle cx="560.6" cy="480" r="1.8" fill="#286BBB"></circle><circle cx="572.7" cy="484" r="1.8" fill="#286BBB"></circle><circle cx="584.8" cy="486.4" r="1.8" fill="#286BBB"></circle><circle cx="596.9" cy="488.3" r="1.8" fill="#286BBB"></circle><circle cx="608.9" cy="487" r="1.8" fill="#286BBB"></circle><circle cx="621" cy="486.2" r="1.8" fill="#286BBB"></circle><circle cx="633.1" cy="487.4" r="1.8" fill="#286BBB"></circle><circle cx="645.2" cy="489.4" r="1.8" fill="#286BBB"></circle><circle cx="657.2" cy="489.9" r="1.8" fill="#286BBB"></circle><circle cx="669.3" cy="489.9" r="1.8" fill="#286BBB"></circle><circle cx="681.4" cy="489.9" r="1.8" fill="#286BBB"></circle><circle cx="693.4" cy="489.3" r="1.8" fill="#286BBB"></circle><circle cx="705.5" cy="488.6" r="1.8" fill="#286BBB"></circle><circle cx="717.6" cy="488.6" r="1.8" fill="#286BBB"></circle></g></g><g id="line__Brazil"><path id="outline" fill="none" stroke-linecap="butt" stroke-linejoin="round" stroke="#fff" stroke-width="2.5" d="M77.7 496.9L101.8 496.7L113.9 496.8L126 496.8L138.1 496.8L150.1 496.9L162.2 496.8L174.3 496.7L186.4 496.6L198.4 496.6L210.5 496.8L222.6 496.8L234.7 496.2L246.7 496.5L258.8 496.7L270.9 496.7L282.9 496.7L295 495.9L307.1 495.2L319.2 495.4L331.2 496.2L343.3 495.7L355.4 495.8L367.5 495.7L379.5 495.6L391.6 495.8L403.7 495.5L415.8 495.4L427.8 494.7L439.9 494.9L452 495.3L464.1 495.2L476.1 495.3L488.2 495L500.3 495.1L512.3 495L524.4 495L536.5 495L548.6 495L560.6 495.4L572.7 495.4L584.8 495.7L596.9 495.6L608.9 495.7"></path><g id="polyline"><polyline id="polyline" points="77.70,496.90 101.80,496.70 113.90,496.80 126.00,496.80 138.10,496.80 150.10,496.90 162.20,496.80 174.30,496.70 186.40,496.60 198.40,496.60 210.50,496.80 222.60,496.80 234.70,496.20 246.70,496.50 258.80,496.70 270.90,496.70 282.90,496.70 295.00,495.90 307.10,495.20 319.20,495.40 331.20,496.20 343.30,495.70 355.40,495.80 367.50,495.70 379.50,495.60 391.60,495.80 403.70,495.50 415.80,495.40 427.80,494.70 439.90,494.90 452.00,495.30 464.10,495.20 476.10,495.30 488.20,495.00 500.30,495.10 512.30,495.00 524.40,495.00 536.50,495.00 548.60,495.00 560.60,495.40 572.70,495.40 584.80,495.70 596.90,495.60 608.90,495.70" stroke-linejoin="round" stroke-width="1.5" stroke="#578145" fill="none" stroke-linecap="butt"></polyline></g><g id="markers"><circle cx="77.7" cy="496.9" r="1.8" fill="#578145"></circle><circle cx="101.8" cy="496.7" r="1.8" fill="#578145"></circle><circle cx="113.9" cy="496.8" r="1.8" fill="#578145"></circle><circle cx="126" cy="496.8" r="1.8" fill="#578145"></circle><circle cx="138.1" cy="496.8" r="1.8" fill="#578145"></circle><circle cx="150.1" cy="496.9" r="1.8" fill="#578145"></circle><circle cx="162.2" cy="496.8" r="1.8" fill="#578145"></circle><circle cx="174.3" cy="496.7" r="1.8" fill="#578145"></circle><circle cx="186.4" cy="496.6" r="1.8" fill="#578145"></circle><circle cx="198.4" cy="496.6" r="1.8" fill="#578145"></circle><circle cx="210.5" cy="496.8" r="1.8" fill="#578145"></circle><circle cx="222.6" cy="496.8" r="1.8" fill="#578145"></circle><circle cx="234.7" cy="496.2" r="1.8" fill="#578145"></circle><circle cx="246.7" cy="496.5" r="1.8" fill="#578145"></circle><circle cx="258.8" cy="496.7" r="1.8" fill="#578145"></circle><circle cx="270.9" cy="496.7" r="1.8" fill="#578145"></circle><circle cx="282.9" cy="496.7" r="1.8" fill="#578145"></circle><circle cx="295" cy="495.9" r="1.8" fill="#578145"></circle><circle cx="307.1" cy="495.2" r="1.8" fill="#578145"></circle><circle cx="319.2" cy="495.4" r="1.8" fill="#578145"></circle><circle cx="331.2" cy="496.2" r="1.8" fill="#578145"></circle><circle cx="343.3" cy="495.7" r="1.8" fill="#578145"></circle><circle cx="355.4" cy="495.8" r="1.8" fill="#578145"></circle><circle cx="367.5" cy="495.7" r="1.8" fill="#578145"></circle><circle cx="379.5" cy="495.6" r="1.8" fill="#578145"></circle><circle cx="391.6" cy="495.8" r="1.8" fill="#578145"></circle><circle cx="403.7" cy="495.5" r="1.8" fill="#578145"></circle><circle cx="415.8" cy="495.4" r="1.8" fill="#578145"></circle><circle cx="427.8" cy="494.7" r="1.8" fill="#578145"></circle><circle cx="439.9" cy="494.9" r="1.8" fill="#578145"></circle><circle cx="452" cy="495.3" r="1.8" fill="#578145"></circle><circle cx="464.1" cy="495.2" r="1.8" fill="#578145"></circle><circle cx="476.1" cy="495.3" r="1.8" fill="#578145"></circle><circle cx="488.2" cy="495" r="1.8" fill="#578145"></circle><circle cx="500.3" cy="495.1" r="1.8" fill="#578145"></circle><circle cx="512.3" cy="495" r="1.8" fill="#578145"></circle><circle cx="524.4" cy="495" r="1.8" fill="#578145"></circle><circle cx="536.5" cy="495" r="1.8" fill="#578145"></circle><circle cx="548.6" cy="495" r="1.8" fill="#578145"></circle><circle cx="560.6" cy="495.4" r="1.8" fill="#578145"></circle><circle cx="572.7" cy="495.4" r="1.8" fill="#578145"></circle><circle cx="584.8" cy="495.7" r="1.8" fill="#578145"></circle><circle cx="596.9" cy="495.6" r="1.8" fill="#578145"></circle><circle cx="608.9" cy="495.7" r="1.8" fill="#578145"></circle></g></g><g id="line__Australia"><path id="outline" fill="none" stroke-linecap="butt" stroke-linejoin="round" stroke="#fff" stroke-width="2.5" d="M77.7 260.7L89.8 258.2L101.8 297.4L113.9 283.4L126 293.9L138.1 275L150.1 248.6L162.2 289.7L174.3 333.2L186.4 322L198.4 298.3L210.5 349.9L222.6 356.3L234.7 392.8L246.7 388.3L258.8 362.1L270.9 359.5L282.9 340L295 349.8L307.1 342.1L319.2 340.8L331.2 374L343.3 380.3L355.4 377.8L367.5 348.5L379.5 367L391.6 380.3L403.7 348.5L415.8 341.5L427.8 381L439.9 365.1L452 365.1L464.1 357.4L476.1 386.7L488.2 393.7L500.3 384.2L512.3 349.1L524.4 298.2L536.5 294.3L548.6 315.4L560.6 217.9L572.7 199.6L584.8 216.9L596.9 337.4L608.9 279.9L621 309.3L633.1 315.5L645.2 352L657.2 363.3L669.3 398.5L681.4 375.9L693.4 375.9L705.5 369.5L717.6 369.5"></path><g id="polyline"><polyline id="polyline" points="77.70,260.70 89.80,258.20 101.80,297.40 113.90,283.40 126.00,293.90 138.10,275.00 150.10,248.60 162.20,289.70 174.30,333.20 186.40,322.00 198.40,298.30 210.50,349.90 222.60,356.30 234.70,392.80 246.70,388.30 258.80,362.10 270.90,359.50 282.90,340.00 295.00,349.80 307.10,342.10 319.20,340.80 331.20,374.00 343.30,380.30 355.40,377.80 367.50,348.50 379.50,367.00 391.60,380.30 403.70,348.50 415.80,341.50 427.80,381.00 439.90,365.10 452.00,365.10 464.10,357.40 476.10,386.70 488.20,393.70 500.30,384.20 512.30,349.10 524.40,298.20 536.50,294.30 548.60,315.40 560.60,217.90 572.70,199.60 584.80,216.90 596.90,337.40 608.90,279.90 621.00,309.30 633.10,315.50 645.20,352.00 657.20,363.30 669.30,398.50 681.40,375.90 693.40,375.90 705.50,369.50 717.60,369.50" stroke-linejoin="round" stroke-width="1.5" stroke="#2C8465" fill="none" stroke-linecap="butt"></polyline></g><g id="markers"><circle cx="77.7" cy="260.7" r="1.8" fill="#2C8465"></circle><circle cx="89.8" cy="258.2" r="1.8" fill="#2C8465"></circle><circle cx="101.8" cy="297.4" r="1.8" fill="#2C8465"></circle><circle cx="113.9" cy="283.4" r="1.8" fill="#2C8465"></circle><circle cx="126" cy="293.9" r="1.8" fill="#2C8465"></circle><circle cx="138.1" cy="275" r="1.8" fill="#2C8465"></circle><circle cx="150.1" cy="248.6" r="1.8" fill="#2C8465"></circle><circle cx="162.2" cy="289.7" r="1.8" fill="#2C8465"></circle><circle cx="174.3" cy="333.2" r="1.8" fill="#2C8465"></circle><circle cx="186.4" cy="322" r="1.8" fill="#2C8465"></circle><circle cx="198.4" cy="298.3" r="1.8" fill="#2C8465"></circle><circle cx="210.5" cy="349.9" r="1.8" fill="#2C8465"></circle><circle cx="222.6" cy="356.3" r="1.8" fill="#2C8465"></circle><circle cx="234.7" cy="392.8" r="1.8" fill="#2C8465"></circle><circle cx="246.7" cy="388.3" r="1.8" fill="#2C8465"></circle><circle cx="258.8" cy="362.1" r="1.8" fill="#2C8465"></circle><circle cx="270.9" cy="359.5" r="1.8" fill="#2C8465"></circle><circle cx="282.9" cy="340" r="1.8" fill="#2C8465"></circle><circle cx="295" cy="349.8" r="1.8" fill="#2C8465"></circle><circle cx="307.1" cy="342.1" r="1.8" fill="#2C8465"></circle><circle cx="319.2" cy="340.8" r="1.8" fill="#2C8465"></circle><circle cx="331.2" cy="374" r="1.8" fill="#2C8465"></circle><circle cx="343.3" cy="380.3" r="1.8" fill="#2C8465"></circle><circle cx="355.4" cy="377.8" r="1.8" fill="#2C8465"></circle><circle cx="367.5" cy="348.5" r="1.8" fill="#2C8465"></circle><circle cx="379.5" cy="367" r="1.8" fill="#2C8465"></circle><circle cx="391.6" cy="380.3" r="1.8" fill="#2C8465"></circle><circle cx="403.7" cy="348.5" r="1.8" fill="#2C8465"></circle><circle cx="415.8" cy="341.5" r="1.8" fill="#2C8465"></circle><circle cx="427.8" cy="381" r="1.8" fill="#2C8465"></circle><circle cx="439.9" cy="365.1" r="1.8" fill="#2C8465"></circle><circle cx="452" cy="365.1" r="1.8" fill="#2C8465"></circle><circle cx="464.1" cy="357.4" r="1.8" fill="#2C8465"></circle><circle cx="476.1" cy="386.7" r="1.8" fill="#2C8465"></circle><circle cx="488.2" cy="393.7" r="1.8" fill="#2C8465"></circle><circle cx="500.3" cy="384.2" r="1.8" fill="#2C8465"></circle><circle cx="512.3" cy="349.1" r="1.8" fill="#2C8465"></circle><circle cx="524.4" cy="298.2" r="1.8" fill="#2C8465"></circle><circle cx="536.5" cy="294.3" r="1.8" fill="#2C8465"></circle><circle cx="548.6" cy="315.4" r="1.8" fill="#2C8465"></circle><circle cx="560.6" cy="217.9" r="1.8" fill="#2C8465"></circle><circle cx="572.7" cy="199.6" r="1.8" fill="#2C8465"></circle><circle cx="584.8" cy="216.9" r="1.8" fill="#2C8465"></circle><circle cx="596.9" cy="337.4" r="1.8" fill="#2C8465"></circle><circle cx="608.9" cy="279.9" r="1.8" fill="#2C8465"></circle><circle cx="621" cy="309.3" r="1.8" fill="#2C8465"></circle><circle cx="633.1" cy="315.5" r="1.8" fill="#2C8465"></circle><circle cx="645.2" cy="352" r="1.8" fill="#2C8465"></circle><circle cx="657.2" cy="363.3" r="1.8" fill="#2C8465"></circle><circle cx="669.3" cy="398.5" r="1.8" fill="#2C8465"></circle><circle cx="681.4" cy="375.9" r="1.8" fill="#2C8465"></circle><circle cx="693.4" cy="375.9" r="1.8" fill="#2C8465"></circle><circle cx="705.5" cy="369.5" r="1.8" fill="#2C8465"></circle><circle cx="717.6" cy="369.5" r="1.8" fill="#2C8465"></circle></g></g></g></g></g></g><g id="footer" class="SourcesFooter" style="fill:#5b5b5b"><g id="sources" class="markdown-text-wrap"><text x="16.0" y="546.5" style="font-size:13.5px;line-height:1.2"><tspan x="16" y="546.5"><tspan style="font-weight:700">Data source:</tspan> USGS - Mineral Commodity Summaries (2024); BGS - World Mineral Statistics (2023)</tspan></text></g><g id="note" class="markdown-text-wrap"><text x="16.0" y="564.7" style="font-size:13.5px;line-height:1.2"><tspan x="16" y="564.7"><tspan style="font-weight:700">Note:</tspan> Values are reported as tonnes of titanium dioxide content. The sum of all countries may exceed World data on certain years (by</tspan><tspan x="16" y="580.9">up to 10%), due to discrepancies between data sources.</tspan></text></g><text id="origin-url" font-size="13.50" x="792.7" y="546.5"><tspan x="792.69" y="546.495"><a target="_blank" style="fill: #5b5b5b;" href="https://creativecommons.org/licenses/by/4.0/">CC BY</a></tspan></text></g><line id="separator-line" x1="16" y1="600" x2="834" y2="600" stroke="#e7e7e7"></line><g id="details" transform="translate(15, 616)"><g class="markdown-text-wrap"><text x="0.0" y="12.0" style="font-size:12.375px;fill:#5b5b5b;line-height:1.2"><tspan x="0" y="12.0"><tspan style="font-weight:700">1.</tspan> <tspan style="font-weight:700">Refined production</tspan>: Refined production is the process of taking raw materials, such as metals extracted from ores, and purifying them to achieve</tspan><tspan x="0" y="26.9">a higher quality or more usable form. After metals are initially extracted from ore through processes like smelting, they often contain impurities or are</tspan><tspan x="0" y="41.7">not in the ideal form for manufacturing. Refining involves further processing these metals to remove impurities and adjust their composition to meet</tspan><tspan x="0" y="56.6">specific standards. Refined production is essential for transforming raw materials into high-quality metals that are crucial for industries and</tspan><tspan x="0" y="71.4">consumers, from manufacturing electronics to constructing buildings.</tspan></text></g></g></svg>