<svg xmlns="http://www.w3.org/2000/svg" version="1.1" style="font-family:Lato, &#x27;Helvetica Neue&#x27;, Helvetica, Arial, &#x27;Liberation Sans&#x27;, sans-serif;font-size:18px;background-color:white;text-rendering:geometricPrecision;-webkit-font-smoothing:antialiased" width="850" height="661.7" viewBox="0 0 850 661.7"><defs><style>@import url(https://ourworldindata.org/fonts.css)</style></defs><defs><pattern id="noDataPattern" patternUnits="userSpaceOnUse" width="4" height="4" patternTransform="rotate(-45 2 2)"><path d="M -1,2 l 6,0" stroke="#ccc" stroke-width="0.7"></path></pattern></defs><rect class="background-fill" fill="white" width="850" height="661.7"></rect><g id="header" class="HeaderView"><g id="logo" transform="translate(769, 16) scale(1)"><svg className="owidLogo" xmlns="http://www.w3.org/2000/svg" width="65" height="36" viewBox="0 0 65 36"  fill="none"><path fill="#002147" d="M0 0h64.8v36H0z"/><path fill="#CE261E" d="M0 33.3h64.8V36H0z"/><path fill="#fff" d="M13.796 10.575c0 .636-.106 1.226-.318 1.77a4.193 4.193 0 0 1-.894 1.404 4.084 4.084 0 0 1-1.386.93c-.54.22-1.138.33-1.794.33-.656 0-1.256-.11-1.8-.33a4.149 4.149 0 0 1-1.392-.93 4.193 4.193 0 0 1-.894-1.404A4.833 4.833 0 0 1 5 10.575c0-.636.106-1.224.318-1.764a4.18 4.18 0 0 1 .894-1.41 4.076 4.076 0 0 1 1.392-.924 4.684 4.684 0 0 1 1.8-.336c.656 0 1.254.112 1.794.336.54.224 1.002.534 1.386.93.384.392.682.86.894 1.404.212.54.318 1.128.318 1.764Zm-1.656 0c0-.476-.064-.902-.192-1.278a2.671 2.671 0 0 0-.54-.966 2.332 2.332 0 0 0-.864-.606 2.94 2.94 0 0 0-1.14-.21c-.424 0-.806.07-1.146.21-.34.14-.63.342-.87.606a2.742 2.742 0 0 0-.546.966 3.955 3.955 0 0 0-.192 1.278c0 .476.064.904.192 1.284.128.376.31.696.546.96.24.26.53.46.87.6.34.14.722.21 1.146.21.424 0 .804-.07 1.14-.21.34-.14.628-.34.864-.6.236-.264.416-.584.54-.96a4.01 4.01 0 0 0 .192-1.284ZM16.104 8.757v3.912c0 .376.086.668.258.876.176.204.438.306.786.306.256 0 .496-.056.72-.168a2.58 2.58 0 0 0 .636-.474V8.757h1.482v6.156h-.906c-.192 0-.318-.09-.378-.27l-.102-.492a4.65 4.65 0 0 1-.396.354 2.577 2.577 0 0 1-.438.27 2.35 2.35 0 0 1-.498.168 2.345 2.345 0 0 1-.57.066c-.336 0-.634-.056-.894-.168a1.821 1.821 0 0 1-.648-.486 2.157 2.157 0 0 1-.402-.738 3.233 3.233 0 0 1-.132-.948V8.757h1.482ZM21.328 14.913V8.757h.87c.152 0 .258.028.318.084.06.056.1.152.12.288l.09.744c.22-.38.478-.68.774-.9.296-.22.628-.33.996-.33.304 0 .556.07.756.21l-.192 1.11c-.012.072-.038.124-.078.156a.278.278 0 0 1-.162.042 1.01 1.01 0 0 1-.246-.042 1.646 1.646 0 0 0-.414-.042c-.308 0-.572.086-.792.258-.22.168-.406.416-.558.744v3.834h-1.482ZM27.347 6.237h1.356a.57.57 0 0 1 .348.102c.096.064.16.152.192.264l1.476 5.19c.036.128.068.268.096.42.032.148.062.306.09.474a5.968 5.968 0 0 1 .228-.894l1.704-5.19a.575.575 0 0 1 .186-.252.543.543 0 0 1 .348-.114h.474a.57.57 0 0 1 .348.102.497.497 0 0 1 .192.264l1.692 5.19c.088.256.164.54.228.852.028-.156.056-.306.084-.45.032-.144.064-.278.096-.402l1.476-5.19c.028-.1.09-.186.186-.258a.563.563 0 0 1 .348-.108h1.266l-2.694 8.676h-1.458l-1.896-5.928-.078-.246a9.504 9.504 0 0 1-.072-.282c-.024.1-.05.194-.078.282-.024.088-.048.17-.072.246l-1.914 5.928H30.04l-2.694-8.676ZM42.771 8.661c.46 0 .876.074 1.248.222.376.148.696.358.96.63s.468.604.612.996c.144.392.216.83.216 1.314 0 .488-.072.928-.216 1.32a2.85 2.85 0 0 1-.612 1.002 2.653 2.653 0 0 1-.96.636 3.35 3.35 0 0 1-1.248.222c-.46 0-.878-.074-1.254-.222a2.712 2.712 0 0 1-.966-.636 2.922 2.922 0 0 1-.618-1.002 3.807 3.807 0 0 1-.216-1.32c0-.484.072-.922.216-1.314.148-.392.354-.724.618-.996.268-.272.59-.482.966-.63a3.397 3.397 0 0 1 1.254-.222Zm0 5.202c.512 0 .89-.172 1.134-.516.248-.344.372-.848.372-1.512s-.124-1.17-.372-1.518c-.244-.348-.622-.522-1.134-.522-.52 0-.904.176-1.152.528-.248.348-.372.852-.372 1.512s.124 1.164.372 1.512c.248.344.632.516 1.152.516ZM46.723 14.913V8.757h.87c.152 0 .258.028.318.084.06.056.1.152.12.288l.09.744c.22-.38.478-.68.774-.9.296-.22.628-.33.996-.33.304 0 .556.07.756.21l-.192 1.11c-.012.072-.038.124-.078.156a.278.278 0 0 1-.162.042 1.01 1.01 0 0 1-.246-.042 1.646 1.646 0 0 0-.414-.042c-.308 0-.572.086-.792.258-.22.168-.406.416-.558.744v3.834h-1.482ZM52.96 5.997v8.916h-1.482V5.997h1.482ZM58.732 14.913c-.192 0-.318-.09-.378-.27l-.12-.594a3.68 3.68 0 0 1-.402.39c-.14.116-.292.216-.456.3-.16.084-.334.148-.522.192a2.372 2.372 0 0 1-.6.072c-.336 0-.644-.07-.924-.21a2.098 2.098 0 0 1-.726-.606 3.033 3.033 0 0 1-.468-.99 5.072 5.072 0 0 1-.162-1.344c0-.456.062-.88.186-1.272s.302-.732.534-1.02c.232-.288.51-.512.834-.672a2.384 2.384 0 0 1 1.092-.246 2.103 2.103 0 0 1 1.536.606V5.997h1.482v8.916h-.906Zm-1.974-1.086c.308 0 .57-.064.786-.192.216-.128.42-.31.612-.546v-2.76a1.452 1.452 0 0 0-.552-.432 1.597 1.597 0 0 0-.636-.126c-.224 0-.428.042-.612.126a1.21 1.21 0 0 0-.462.384c-.124.168-.22.384-.288.648-.068.26-.102.568-.102.924 0 .36.028.666.084.918.06.248.144.452.252.612.108.156.24.27.396.342.156.068.33.102.522.102ZM16.331 20.757v6.156H14.85v-6.156h1.481Zm.223-1.794a.844.844 0 0 1-.078.36.963.963 0 0 1-.21.294.995.995 0 0 1-.3.204.963.963 0 0 1-.372.072.948.948 0 0 1-.367-.072 1.018 1.018 0 0 1-.498-.498.963.963 0 0 1 0-.732.995.995 0 0 1 .205-.3.929.929 0 0 1 .293-.198.899.899 0 0 1 .738 0 .912.912 0 0 1 .3.198.943.943 0 0 1 .288.672ZM17.771 26.913v-6.156h.906c.192 0 .318.09.378.27l.102.486a2.934 2.934 0 0 1 .828-.618c.156-.076.322-.134.498-.174.176-.04.368-.06.576-.06.336 0 .634.058.894.174.26.112.476.272.648.48.176.204.308.45.396.738.092.284.138.598.138.942v3.918h-1.482v-3.918c0-.376-.088-.666-.264-.87-.172-.208-.432-.312-.78-.312-.256 0-.496.058-.72.174a2.58 2.58 0 0 0-.636.474v4.452h-1.482ZM34.22 22.575c0 .636-.106 1.22-.318 1.752-.212.532-.51.99-.894 1.374a4 4 0 0 1-1.386.894 4.87 4.87 0 0 1-1.794.318h-3.312v-8.676h3.312a4.79 4.79 0 0 1 1.794.324 4 4 0 0 1 1.386.894c.384.38.682.836.894 1.368.212.532.318 1.116.318 1.752Zm-1.65 0c0-.476-.064-.902-.192-1.278a2.68 2.68 0 0 0-.546-.96 2.332 2.332 0 0 0-.864-.606 2.94 2.94 0 0 0-1.14-.21h-1.686v6.108h1.686c.424 0 .804-.07 1.14-.21.34-.14.628-.34.864-.6a2.75 2.75 0 0 0 .546-.96 4.01 4.01 0 0 0 .192-1.284ZM39.98 26.913h-.665c-.14 0-.25-.02-.33-.06-.08-.044-.14-.13-.18-.258l-.132-.438c-.156.14-.31.264-.462.372a2.804 2.804 0 0 1-.462.264c-.16.072-.33.126-.51.162-.18.036-.38.054-.6.054-.26 0-.5-.034-.72-.102a1.618 1.618 0 0 1-.57-.318 1.448 1.448 0 0 1-.366-.522 1.852 1.852 0 0 1-.132-.726c0-.232.06-.46.18-.684.124-.228.328-.432.612-.612.284-.184.662-.336 1.134-.456.472-.12 1.058-.188 1.758-.204v-.36c0-.412-.088-.716-.264-.912-.172-.2-.424-.3-.756-.3a1.837 1.837 0 0 0-1.02.276c-.116.068-.224.13-.324.186a.664.664 0 0 1-.33.084.429.429 0 0 1-.258-.078.614.614 0 0 1-.174-.192l-.27-.474c.708-.648 1.562-.972 2.562-.972.36 0 .68.06.96.18.284.116.524.28.72.492.196.208.344.458.444.75.104.292.156.612.156.96v3.888Zm-2.88-.924c.153 0 .293-.014.42-.042.129-.028.249-.07.36-.126.117-.056.227-.124.33-.204.109-.084.217-.182.325-.294v-1.038c-.432.02-.794.058-1.086.114-.288.052-.52.12-.696.204a.923.923 0 0 0-.378.294.664.664 0 0 0-.108.366c0 .26.076.446.228.558.156.112.358.168.606.168ZM43.22 27.01c-.532 0-.942-.15-1.23-.45-.288-.305-.432-.723-.432-1.255v-3.438h-.624a.31.31 0 0 1-.21-.078c-.056-.052-.084-.13-.084-.234v-.588l.99-.162.312-1.68a.302.302 0 0 1 .108-.186.365.365 0 0 1 .222-.066h.768v1.938h1.62v1.056h-1.62v3.336c0 .192.048.342.144.45a.488.488 0 0 0 .384.162c.092 0 .168-.01.228-.03.064-.024.118-.048.162-.072.048-.024.09-.046.126-.066a.194.194 0 0 1 .108-.036.16.16 0 0 1 .108.036c.028.02.058.052.09.096l.444.72c-.216.18-.464.316-.744.408a2.77 2.77 0 0 1-.87.138ZM50.423 26.913h-.666c-.14 0-.25-.02-.33-.06-.08-.044-.14-.13-.18-.258l-.132-.438c-.156.14-.31.264-.462.372a2.804 2.804 0 0 1-.462.264c-.16.072-.33.126-.51.162-.18.036-.38.054-.6.054-.26 0-.5-.034-.72-.102a1.618 1.618 0 0 1-.57-.318 1.448 1.448 0 0 1-.366-.522 1.852 1.852 0 0 1-.132-.726c0-.232.06-.46.18-.684.124-.228.328-.432.612-.612.284-.184.662-.336 1.134-.456.472-.12 1.058-.188 1.758-.204v-.36c0-.412-.088-.716-.264-.912-.172-.2-.424-.3-.756-.3a1.837 1.837 0 0 0-1.02.276c-.116.068-.224.13-.324.186a.664.664 0 0 1-.33.084.429.429 0 0 1-.258-.078.614.614 0 0 1-.174-.192l-.27-.474c.708-.648 1.562-.972 2.562-.972.36 0 .68.06.96.18.284.116.524.28.72.492.196.208.344.458.444.75.104.292.156.612.156.96v3.888Zm-2.88-.924c.152 0 .292-.014.42-.042.128-.028.248-.07.36-.126.116-.056.226-.124.33-.204.108-.084.216-.182.324-.294v-1.038c-.432.02-.794.058-1.086.114-.288.052-.52.12-.696.204a.923.923 0 0 0-.378.294.664.664 0 0 0-.108.366c0 .26.076.446.228.558.156.112.358.168.606.168Z"/></svg></g><a id="title" href="https://ourworldindata.org/explorers/minerals?Mineral=Antimony&amp;Metric=Unit+value&amp;Type=Mine&amp;Share+of+global=false&amp;country=AUS~CHL~CHN~USA~CAN~ALB~DZA~ARG~ARM~AUT~AZE~BOL~OWID_WRL~BWA~BRA~BGR~COL~COG~CUB~CYP~OWID_CZS~COD~DOM~OWID_GDR~ZWE~ZMB~OWID_YGS~OWID_GFR~VNM~UZB~GBR~UGA~OWID_USS~TUR~TZA~TJK~TWN~SWE~ESP~KOR~ZAF~SVK~OWID_SRM~SRB~SAU~RUS~ROU~PRT~POL~PHL~PER~PNG~PAN~PAK~OMN~NOR~MKD~PRK~NIC~NZL~NAM~MMR~MOZ~MAR~MNG~MEX~MRT~MYS~LAO~KGZ~KEN~KAZ~JPN~ITA~ISR~IRL~IRN~IDN~IND~HUN~HND~HTI~GTM~GRC~DEU~GEO~FRA~FIN~ERI~ECU~VEN~ARE~UKR~CHE~SUR~LKA~SVN~QAT~NGA~NLD~MNE~ISL~GHA~EGY~HRV~CMR~BIH~BHR" style="font-family:&#x27;Playfair Display&#x27;, Georgia, &#x27;Times New Roman&#x27;, &#x27;Liberation Serif&#x27;, serif" target="_blank" rel="noopener"><text font-size="24.75" font-weight="600" x="16.0" y="40.0" fill="#5b5b5b"><tspan x="16" y="40.0075">Antimony unit value, 1900 to 2019</tspan></text></a><g id="subtitle" class="markdown-text-wrap"><text x="16.0" y="63.9" style="font-size:14.625px;line-height:1.2" fill="#5b5b5b"><tspan x="16" y="63.9">Value of 1 tonne of <tspan class="dod-span" data-id="antimony">antimony<tspan style="font-feature-settings:&quot;sups&quot;">¹</tspan></tspan>, in constant 1998 US$ per tonne.</tspan></text></g></g><g id="chart-area" style="pointer-events:none"><g id="line-chart" class="LineChart"><defs><clipPath id="boundsClip-12"><rect x="71.48" y="73.25" width="838" height="470.35"></rect></clipPath></defs><rect x="16" y="83.25" width="818" height="450.35" fill="none"></rect><g id="dual-axis" class="DualAxisView"><g id="horizontal-axis" class="HorizontalAxis"><g id="tick__1900"><line x1="81.5" y1="512.6" x2="81.5" y2="518.1" stroke="#999" stroke-width="1"></line><text x="81.48" y="531.6" fill="#5b5b5b" text-anchor="start" font-size="13.5">1900</text></g><g id="tick__2019"><line x1="763.8" y1="512.6" x2="763.8" y2="518.1" stroke="#999" stroke-width="1"></line><text x="763.765" y="531.6" fill="#5b5b5b" text-anchor="end" font-size="13.5">2019</text></g><g id="tick__1920"><line x1="196.1" y1="512.6" x2="196.1" y2="518.1" stroke="#999" stroke-width="1"></line><text x="196.1" y="531.6" fill="#5b5b5b" text-anchor="middle" font-size="13.5">1920</text></g><g id="tick__1940"><line x1="310.8" y1="512.6" x2="310.8" y2="518.1" stroke="#999" stroke-width="1"></line><text x="310.8" y="531.6" fill="#5b5b5b" text-anchor="middle" font-size="13.5">1940</text></g><g id="tick__1960"><line x1="425.5" y1="512.6" x2="425.5" y2="518.1" stroke="#999" stroke-width="1"></line><text x="425.5" y="531.6" fill="#5b5b5b" text-anchor="middle" font-size="13.5">1960</text></g><g id="tick__1980"><line x1="540.2" y1="512.6" x2="540.2" y2="518.1" stroke="#999" stroke-width="1"></line><text x="540.2" y="531.6" fill="#5b5b5b" text-anchor="middle" font-size="13.5">1980</text></g><g id="tick__2000"><line x1="654.8" y1="512.6" x2="654.8" y2="518.1" stroke="#999" stroke-width="1"></line><text x="654.8" y="531.6" fill="#5b5b5b" text-anchor="middle" font-size="13.5">2000</text></g></g><g id="vertical-axis" class="VerticalAxis"><g id="tick-labels"><text id="tick-label__0-__0024__002ft" x="76.48" y="513.1" dy=".32em" text-anchor="end" fill="#5b5b5b" font-size="13.5">0 $/t</text><text id="tick-label__2__002c000-__0024__002ft" x="76.48" y="449.4" dy=".32em" text-anchor="end" fill="#5b5b5b" font-size="13.5">2,000 $/t</text><text id="tick-label__4__002c000-__0024__002ft" x="76.48" y="385.6" dy=".32em" text-anchor="end" fill="#5b5b5b" font-size="13.5">4,000 $/t</text><text id="tick-label__6__002c000-__0024__002ft" x="76.48" y="321.9" dy=".32em" text-anchor="end" fill="#5b5b5b" font-size="13.5">6,000 $/t</text><text id="tick-label__8__002c000-__0024__002ft" x="76.48" y="258.2" dy=".32em" text-anchor="end" fill="#5b5b5b" font-size="13.5">8,000 $/t</text><text id="tick-label__10__002c000-__0024__002ft" x="76.48" y="194.4" dy=".32em" text-anchor="end" fill="#5b5b5b" font-size="13.5">10,000 $/t</text><text id="tick-label__12__002c000-__0024__002ft" x="76.48" y="130.7" dy=".32em" text-anchor="end" fill="#5b5b5b" font-size="13.5">12,000 $/t</text></g></g><g id="horizontal-grid-lines" class="AxisGridLines horizontalLines"><line id="grid-line__0" x1="81.48" y1="513.1" x2="763.76" y2="513.1" stroke="#999" stroke-width="1"></line><line id="grid-line__2000" x1="81.48" y1="449.4" x2="763.76" y2="449.4" stroke="#ddd" stroke-width="1" stroke-dasharray="3,2"></line><line id="grid-line__4000" x1="81.48" y1="385.6" x2="763.76" y2="385.6" stroke="#ddd" stroke-width="1" stroke-dasharray="3,2"></line><line id="grid-line__6000" x1="81.48" y1="321.9" x2="763.76" y2="321.9" stroke="#ddd" stroke-width="1" stroke-dasharray="3,2"></line><line id="grid-line__8000" x1="81.48" y1="258.2" x2="763.76" y2="258.2" stroke="#ddd" stroke-width="1" stroke-dasharray="3,2"></line><line id="grid-line__10000" x1="81.48" y1="194.4" x2="763.76" y2="194.4" stroke="#ddd" stroke-width="1" stroke-dasharray="3,2"></line><line id="grid-line__12000" x1="81.48" y1="130.7" x2="763.76" y2="130.7" stroke="#ddd" stroke-width="1" stroke-dasharray="3,2"></line></g></g><g clip-path="url(#boundsClip-12)"><g id="line-labels" class="LineLabels"><g id="mark__World" class="legendMark" style="cursor:default"><rect id="background" x="763.765" y="331.75" width="70.235" height="13.5" fill="#fff" opacity="0"></rect><text id="label" font-size="13.50" font-weight="400" x="767.8" y="343.5" fill="#c15065"><tspan x="767.765" y="343.495">World</tspan></text></g></g><g id="lines" class="Lines"><rect x="81" y="89" width="682" height="424" fill="rgba(255,255,255,0)" opacity="0"></rect><g id="line__World"><path stroke-linecap="round" stroke-linejoin="round" stroke="#ddd" d="M81.5 382.4L87.2 398.4L92.9 433.4L98.7 436.6L104.4 433.4L110.1 382.4L115.9 235.8L121.6 331.4L127.3 411.1L133.1 417.5L138.8 420.7L144.5 420.7L150.3 420.7L156 426.1L161.7 413.4L167.5 172.1L173.2 246.7L178.9 328.3L184.7 417.2L190.4 458.9L196.1 464.7L201.9 481.5L207.6 475.8L213.4 460.2L219.1 440.8L224.8 399.3L230.6 410.5L236.3 432.5L242 444.3L247.8 453.2L253.5 460.2L259.2 462.7L265 465.9L270.7 455.4L276.4 436.6L282.2 397.4L287.9 411.4L293.6 390.1L299.4 412.4L305.1 411.1L310.8 398.7L316.6 404.1L322.3 403.5L328 407.6L333.8 410.5L339.5 412.4L345.2 411.8L351 341.3L356.7 338.8L362.4 327L368.2 373.5L373.9 317.7L379.6 332.1L385.4 359.5L391.1 383.4L396.8 375.1L402.6 365.9L408.3 370.6L414 386.9L419.8 390.4L425.5 392.3L431.2 383.7L437 381.8L442.7 383.1L448.4 357.3L454.2 347.1L459.9 351.2L465.6 356L471.4 362L477.1 333L482.8 89.3L488.6 311.7L494.3 351.5L500 336.5L505.8 89.3L511.5 137.1L517.2 181.7L523 178.5L528.7 310.7L534.4 290.3L540.2 303.1L545.9 341.6L551.6 385.9L557.4 408.3L563.1 346.4L568.8 373.5L574.6 385.6L580.3 401.2L586 412.4L591.8 425.8L597.5 441.4L603.2 443.9L609 448.7L614.7 451.9L620.4 375.7L626.2 341.6L631.9 405.7L637.6 465L643.4 462.7L649.1 470.1L654.8 469.8L660.6 471L666.3 456.7L672 446.5L677.8 431.8L683.5 419.1L689.2 377.7L695 371.3L700.7 364.3L706.4 387.2L712.2 302.4L717.9 181.7L723.6 230.4L729.4 285.6L735.1 307.5L740.8 355L746.6 353.1L752.3 327.3L758 336.2L763.8 338.5" fill="none" stroke-width="1"></path></g><g id="line__World"><path id="outline" fill="none" stroke-linecap="butt" stroke-linejoin="round" stroke="#fff" stroke-width="2.5" d="M81.5 382.4L87.2 398.4L92.9 433.4L98.7 436.6L104.4 433.4L110.1 382.4L115.9 235.8L121.6 331.4L127.3 411.1L133.1 417.5L138.8 420.7L144.5 420.7L150.3 420.7L156 426.1L161.7 413.4L167.5 172.1L173.2 246.7L178.9 328.3L184.7 417.2L190.4 458.9L196.1 464.7L201.9 481.5L207.6 475.8L213.4 460.2L219.1 440.8L224.8 399.3L230.6 410.5L236.3 432.5L242 444.3L247.8 453.2L253.5 460.2L259.2 462.7L265 465.9L270.7 455.4L276.4 436.6L282.2 397.4L287.9 411.4L293.6 390.1L299.4 412.4L305.1 411.1L310.8 398.7L316.6 404.1L322.3 403.5L328 407.6L333.8 410.5L339.5 412.4L345.2 411.8L351 341.3L356.7 338.8L362.4 327L368.2 373.5L373.9 317.7L379.6 332.1L385.4 359.5L391.1 383.4L396.8 375.1L402.6 365.9L408.3 370.6L414 386.9L419.8 390.4L425.5 392.3L431.2 383.7L437 381.8L442.7 383.1L448.4 357.3L454.2 347.1L459.9 351.2L465.6 356L471.4 362L477.1 333L482.8 89.3L488.6 311.7L494.3 351.5L500 336.5L505.8 89.3L511.5 137.1L517.2 181.7L523 178.5L528.7 310.7L534.4 290.3L540.2 303.1L545.9 341.6L551.6 385.9L557.4 408.3L563.1 346.4L568.8 373.5L574.6 385.6L580.3 401.2L586 412.4L591.8 425.8L597.5 441.4L603.2 443.9L609 448.7L614.7 451.9L620.4 375.7L626.2 341.6L631.9 405.7L637.6 465L643.4 462.7L649.1 470.1L654.8 469.8L660.6 471L666.3 456.7L672 446.5L677.8 431.8L683.5 419.1L689.2 377.7L695 371.3L700.7 364.3L706.4 387.2L712.2 302.4L717.9 181.7L723.6 230.4L729.4 285.6L735.1 307.5L740.8 355L746.6 353.1L752.3 327.3L758 336.2L763.8 338.5"></path><g id="polyline"><polyline id="polyline" points="81.50,382.40 87.20,398.40 92.90,433.40 98.70,436.60 104.40,433.40 110.10,382.40 115.90,235.80 121.60,331.40 127.30,411.10 133.10,417.50 138.80,420.70 144.50,420.70 150.30,420.70 156.00,426.10 161.70,413.40 167.50,172.10 173.20,246.70 178.90,328.30 184.70,417.20 190.40,458.90 196.10,464.70 201.90,481.50 207.60,475.80 213.40,460.20 219.10,440.80 224.80,399.30 230.60,410.50 236.30,432.50 242.00,444.30 247.80,453.20 253.50,460.20 259.20,462.70 265.00,465.90 270.70,455.40 276.40,436.60 282.20,397.40 287.90,411.40 293.60,390.10 299.40,412.40 305.10,411.10 310.80,398.70 316.60,404.10 322.30,403.50 328.00,407.60 333.80,410.50 339.50,412.40 345.20,411.80 351.00,341.30 356.70,338.80 362.40,327.00 368.20,373.50 373.90,317.70 379.60,332.10 385.40,359.50 391.10,383.40 396.80,375.10 402.60,365.90 408.30,370.60 414.00,386.90 419.80,390.40 425.50,392.30 431.20,383.70 437.00,381.80 442.70,383.10 448.40,357.30 454.20,347.10 459.90,351.20 465.60,356.00 471.40,362.00 477.10,333.00 482.80,89.30 488.60,311.70 494.30,351.50 500.00,336.50 505.80,89.30 511.50,137.10 517.20,181.70 523.00,178.50 528.70,310.70 534.40,290.30 540.20,303.10 545.90,341.60 551.60,385.90 557.40,408.30 563.10,346.40 568.80,373.50 574.60,385.60 580.30,401.20 586.00,412.40 591.80,425.80 597.50,441.40 603.20,443.90 609.00,448.70 614.70,451.90 620.40,375.70 626.20,341.60 631.90,405.70 637.60,465.00 643.40,462.70 649.10,470.10 654.80,469.80 660.60,471.00 666.30,456.70 672.00,446.50 677.80,431.80 683.50,419.10 689.20,377.70 695.00,371.30 700.70,364.30 706.40,387.20 712.20,302.40 717.90,181.70 723.60,230.40 729.40,285.60 735.10,307.50 740.80,355.00 746.60,353.10 752.30,327.30 758.00,336.20 763.80,338.50" stroke-linejoin="round" stroke-width="1.5" stroke="#C15065" fill="none" stroke-linecap="butt"></polyline></g><g id="markers"><circle cx="81.5" cy="382.4" r="1.8" fill="#C15065"></circle><circle cx="87.2" cy="398.4" r="1.8" fill="#C15065"></circle><circle cx="92.9" cy="433.4" r="1.8" fill="#C15065"></circle><circle cx="98.7" cy="436.6" r="1.8" fill="#C15065"></circle><circle cx="104.4" cy="433.4" r="1.8" fill="#C15065"></circle><circle cx="110.1" cy="382.4" r="1.8" fill="#C15065"></circle><circle cx="115.9" cy="235.8" r="1.8" fill="#C15065"></circle><circle cx="121.6" cy="331.4" r="1.8" fill="#C15065"></circle><circle cx="127.3" cy="411.1" r="1.8" fill="#C15065"></circle><circle cx="133.1" cy="417.5" r="1.8" fill="#C15065"></circle><circle cx="138.8" cy="420.7" r="1.8" fill="#C15065"></circle><circle cx="144.5" cy="420.7" r="1.8" fill="#C15065"></circle><circle cx="150.3" cy="420.7" r="1.8" fill="#C15065"></circle><circle cx="156" cy="426.1" r="1.8" fill="#C15065"></circle><circle cx="161.7" cy="413.4" r="1.8" fill="#C15065"></circle><circle cx="167.5" cy="172.1" r="1.8" fill="#C15065"></circle><circle cx="173.2" cy="246.7" r="1.8" fill="#C15065"></circle><circle cx="178.9" cy="328.3" r="1.8" fill="#C15065"></circle><circle cx="184.7" cy="417.2" r="1.8" fill="#C15065"></circle><circle cx="190.4" cy="458.9" r="1.8" fill="#C15065"></circle><circle cx="196.1" cy="464.7" r="1.8" fill="#C15065"></circle><circle cx="201.9" cy="481.5" r="1.8" fill="#C15065"></circle><circle cx="207.6" cy="475.8" r="1.8" fill="#C15065"></circle><circle cx="213.4" cy="460.2" r="1.8" fill="#C15065"></circle><circle cx="219.1" cy="440.8" r="1.8" fill="#C15065"></circle><circle cx="224.8" cy="399.3" r="1.8" fill="#C15065"></circle><circle cx="230.6" cy="410.5" r="1.8" fill="#C15065"></circle><circle cx="236.3" cy="432.5" r="1.8" fill="#C15065"></circle><circle cx="242" cy="444.3" r="1.8" fill="#C15065"></circle><circle cx="247.8" cy="453.2" r="1.8" fill="#C15065"></circle><circle cx="253.5" cy="460.2" r="1.8" fill="#C15065"></circle><circle cx="259.2" cy="462.7" r="1.8" fill="#C15065"></circle><circle cx="265" cy="465.9" r="1.8" fill="#C15065"></circle><circle cx="270.7" cy="455.4" r="1.8" fill="#C15065"></circle><circle cx="276.4" cy="436.6" r="1.8" fill="#C15065"></circle><circle cx="282.2" cy="397.4" r="1.8" fill="#C15065"></circle><circle cx="287.9" cy="411.4" r="1.8" fill="#C15065"></circle><circle cx="293.6" cy="390.1" r="1.8" fill="#C15065"></circle><circle cx="299.4" cy="412.4" r="1.8" fill="#C15065"></circle><circle cx="305.1" cy="411.1" r="1.8" fill="#C15065"></circle><circle cx="310.8" cy="398.7" r="1.8" fill="#C15065"></circle><circle cx="316.6" cy="404.1" r="1.8" fill="#C15065"></circle><circle cx="322.3" cy="403.5" r="1.8" fill="#C15065"></circle><circle cx="328" cy="407.6" r="1.8" fill="#C15065"></circle><circle cx="333.8" cy="410.5" r="1.8" fill="#C15065"></circle><circle cx="339.5" cy="412.4" r="1.8" fill="#C15065"></circle><circle cx="345.2" cy="411.8" r="1.8" fill="#C15065"></circle><circle cx="351" cy="341.3" r="1.8" fill="#C15065"></circle><circle cx="356.7" cy="338.8" r="1.8" fill="#C15065"></circle><circle cx="362.4" cy="327" r="1.8" fill="#C15065"></circle><circle cx="368.2" cy="373.5" r="1.8" fill="#C15065"></circle><circle cx="373.9" cy="317.7" r="1.8" fill="#C15065"></circle><circle cx="379.6" cy="332.1" r="1.8" fill="#C15065"></circle><circle cx="385.4" cy="359.5" r="1.8" fill="#C15065"></circle><circle cx="391.1" cy="383.4" r="1.8" fill="#C15065"></circle><circle cx="396.8" cy="375.1" r="1.8" fill="#C15065"></circle><circle cx="402.6" cy="365.9" r="1.8" fill="#C15065"></circle><circle cx="408.3" cy="370.6" r="1.8" fill="#C15065"></circle><circle cx="414" cy="386.9" r="1.8" fill="#C15065"></circle><circle cx="419.8" cy="390.4" r="1.8" fill="#C15065"></circle><circle cx="425.5" cy="392.3" r="1.8" fill="#C15065"></circle><circle cx="431.2" cy="383.7" r="1.8" fill="#C15065"></circle><circle cx="437" cy="381.8" r="1.8" fill="#C15065"></circle><circle cx="442.7" cy="383.1" r="1.8" fill="#C15065"></circle><circle cx="448.4" cy="357.3" r="1.8" fill="#C15065"></circle><circle cx="454.2" cy="347.1" r="1.8" fill="#C15065"></circle><circle cx="459.9" cy="351.2" r="1.8" fill="#C15065"></circle><circle cx="465.6" cy="356" r="1.8" fill="#C15065"></circle><circle cx="471.4" cy="362" r="1.8" fill="#C15065"></circle><circle cx="477.1" cy="333" r="1.8" fill="#C15065"></circle><circle cx="482.8" cy="89.3" r="1.8" fill="#C15065"></circle><circle cx="488.6" cy="311.7" r="1.8" fill="#C15065"></circle><circle cx="494.3" cy="351.5" r="1.8" fill="#C15065"></circle><circle cx="500" cy="336.5" r="1.8" fill="#C15065"></circle><circle cx="505.8" cy="89.3" r="1.8" fill="#C15065"></circle><circle cx="511.5" cy="137.1" r="1.8" fill="#C15065"></circle><circle cx="517.2" cy="181.7" r="1.8" fill="#C15065"></circle><circle cx="523" cy="178.5" r="1.8" fill="#C15065"></circle><circle cx="528.7" cy="310.7" r="1.8" fill="#C15065"></circle><circle cx="534.4" cy="290.3" r="1.8" fill="#C15065"></circle><circle cx="540.2" cy="303.1" r="1.8" fill="#C15065"></circle><circle cx="545.9" cy="341.6" r="1.8" fill="#C15065"></circle><circle cx="551.6" cy="385.9" r="1.8" fill="#C15065"></circle><circle cx="557.4" cy="408.3" r="1.8" fill="#C15065"></circle><circle cx="563.1" cy="346.4" r="1.8" fill="#C15065"></circle><circle cx="568.8" cy="373.5" r="1.8" fill="#C15065"></circle><circle cx="574.6" cy="385.6" r="1.8" fill="#C15065"></circle><circle cx="580.3" cy="401.2" r="1.8" fill="#C15065"></circle><circle cx="586" cy="412.4" r="1.8" fill="#C15065"></circle><circle cx="591.8" cy="425.8" r="1.8" fill="#C15065"></circle><circle cx="597.5" cy="441.4" r="1.8" fill="#C15065"></circle><circle cx="603.2" cy="443.9" r="1.8" fill="#C15065"></circle><circle cx="609" cy="448.7" r="1.8" fill="#C15065"></circle><circle cx="614.7" cy="451.9" r="1.8" fill="#C15065"></circle><circle cx="620.4" cy="375.7" r="1.8" fill="#C15065"></circle><circle cx="626.2" cy="341.6" r="1.8" fill="#C15065"></circle><circle cx="631.9" cy="405.7" r="1.8" fill="#C15065"></circle><circle cx="637.6" cy="465" r="1.8" fill="#C15065"></circle><circle cx="643.4" cy="462.7" r="1.8" fill="#C15065"></circle><circle cx="649.1" cy="470.1" r="1.8" fill="#C15065"></circle><circle cx="654.8" cy="469.8" r="1.8" fill="#C15065"></circle><circle cx="660.6" cy="471" r="1.8" fill="#C15065"></circle><circle cx="666.3" cy="456.7" r="1.8" fill="#C15065"></circle><circle cx="672" cy="446.5" r="1.8" fill="#C15065"></circle><circle cx="677.8" cy="431.8" r="1.8" fill="#C15065"></circle><circle cx="683.5" cy="419.1" r="1.8" fill="#C15065"></circle><circle cx="689.2" cy="377.7" r="1.8" fill="#C15065"></circle><circle cx="695" cy="371.3" r="1.8" fill="#C15065"></circle><circle cx="700.7" cy="364.3" r="1.8" fill="#C15065"></circle><circle cx="706.4" cy="387.2" r="1.8" fill="#C15065"></circle><circle cx="712.2" cy="302.4" r="1.8" fill="#C15065"></circle><circle cx="717.9" cy="181.7" r="1.8" fill="#C15065"></circle><circle cx="723.6" cy="230.4" r="1.8" fill="#C15065"></circle><circle cx="729.4" cy="285.6" r="1.8" fill="#C15065"></circle><circle cx="735.1" cy="307.5" r="1.8" fill="#C15065"></circle><circle cx="740.8" cy="355" r="1.8" fill="#C15065"></circle><circle cx="746.6" cy="353.1" r="1.8" fill="#C15065"></circle><circle cx="752.3" cy="327.3" r="1.8" fill="#C15065"></circle><circle cx="758" cy="336.2" r="1.8" fill="#C15065"></circle><circle cx="763.8" cy="338.5" r="1.8" fill="#C15065"></circle></g></g></g></g></g></g><g id="footer" class="SourcesFooter" style="fill:#5b5b5b"><g id="sources" class="markdown-text-wrap"><text x="16.0" y="562.7" style="font-size:13.5px;line-height:1.2"><tspan x="16" y="562.7"><tspan style="font-weight:700">Data source:</tspan> USGS - Historical Statistics for Mineral and Material Commodities (2023)</tspan></text></g><g id="note" class="markdown-text-wrap"><text x="16.0" y="580.9" style="font-size:13.5px;line-height:1.2"><tspan x="16" y="580.9"><tspan style="font-weight:700">Note:</tspan> This data is adjusted for inflation.</tspan></text></g><text id="origin-url" font-size="13.50" x="792.7" y="562.7"><tspan x="792.69" y="562.695"><a target="_blank" style="fill: #5b5b5b;" href="https://creativecommons.org/licenses/by/4.0/">CC BY</a></tspan></text></g><line id="separator-line" x1="16" y1="600" x2="834" y2="600" stroke="#e7e7e7"></line><g id="details" transform="translate(15, 616)"><g class="markdown-text-wrap"><text x="0.0" y="12.0" style="font-size:12.375px;fill:#5b5b5b;line-height:1.2"><tspan x="0" y="12.0"><tspan style="font-weight:700">1.</tspan> <tspan style="font-weight:700">Antimony</tspan>: Antimony is a metal that is mixed with others to form alloys to be used in pipes, motors, car parts, and batteries. It’s also used in the</tspan><tspan x="0" y="26.9">textile industry, where it’s added to plastics, rubber, and other materials to make them less likely to catch fire.</tspan></text></g></g></svg>