<svg xmlns="http://www.w3.org/2000/svg" version="1.1" style="font-family:Lato, &#x27;Helvetica Neue&#x27;, Helvetica, Arial, &#x27;Liberation Sans&#x27;, sans-serif;font-size:18px;background-color:white;text-rendering:geometricPrecision;-webkit-font-smoothing:antialiased" width="850" height="706.25" viewBox="0 0 850 706.25"><defs><style>@import url(https://ourworldindata.org/fonts.css)</style></defs><defs><pattern id="noDataPattern" patternUnits="userSpaceOnUse" width="4" height="4" patternTransform="rotate(-45 2 2)"><path d="M -1,2 l 6,0" stroke="#ccc" stroke-width="0.7"></path></pattern></defs><rect class="background-fill" fill="white" width="850" height="706.25"></rect><g id="header" class="HeaderView"><g id="logo" transform="translate(769, 16) scale(1)"><svg className="owidLogo" xmlns="http://www.w3.org/2000/svg" width="65" height="36" viewBox="0 0 65 36"  fill="none"><path fill="#002147" d="M0 0h64.8v36H0z"/><path fill="#CE261E" d="M0 33.3h64.8V36H0z"/><path fill="#fff" d="M13.796 10.575c0 .636-.106 1.226-.318 1.77a4.193 4.193 0 0 1-.894 1.404 4.084 4.084 0 0 1-1.386.93c-.54.22-1.138.33-1.794.33-.656 0-1.256-.11-1.8-.33a4.149 4.149 0 0 1-1.392-.93 4.193 4.193 0 0 1-.894-1.404A4.833 4.833 0 0 1 5 10.575c0-.636.106-1.224.318-1.764a4.18 4.18 0 0 1 .894-1.41 4.076 4.076 0 0 1 1.392-.924 4.684 4.684 0 0 1 1.8-.336c.656 0 1.254.112 1.794.336.54.224 1.002.534 1.386.93.384.392.682.86.894 1.404.212.54.318 1.128.318 1.764Zm-1.656 0c0-.476-.064-.902-.192-1.278a2.671 2.671 0 0 0-.54-.966 2.332 2.332 0 0 0-.864-.606 2.94 2.94 0 0 0-1.14-.21c-.424 0-.806.07-1.146.21-.34.14-.63.342-.87.606a2.742 2.742 0 0 0-.546.966 3.955 3.955 0 0 0-.192 1.278c0 .476.064.904.192 1.284.128.376.31.696.546.96.24.26.53.46.87.6.34.14.722.21 1.146.21.424 0 .804-.07 1.14-.21.34-.14.628-.34.864-.6.236-.264.416-.584.54-.96a4.01 4.01 0 0 0 .192-1.284ZM16.104 8.757v3.912c0 .376.086.668.258.876.176.204.438.306.786.306.256 0 .496-.056.72-.168a2.58 2.58 0 0 0 .636-.474V8.757h1.482v6.156h-.906c-.192 0-.318-.09-.378-.27l-.102-.492a4.65 4.65 0 0 1-.396.354 2.577 2.577 0 0 1-.438.27 2.35 2.35 0 0 1-.498.168 2.345 2.345 0 0 1-.57.066c-.336 0-.634-.056-.894-.168a1.821 1.821 0 0 1-.648-.486 2.157 2.157 0 0 1-.402-.738 3.233 3.233 0 0 1-.132-.948V8.757h1.482ZM21.328 14.913V8.757h.87c.152 0 .258.028.318.084.06.056.1.152.12.288l.09.744c.22-.38.478-.68.774-.9.296-.22.628-.33.996-.33.304 0 .556.07.756.21l-.192 1.11c-.012.072-.038.124-.078.156a.278.278 0 0 1-.162.042 1.01 1.01 0 0 1-.246-.042 1.646 1.646 0 0 0-.414-.042c-.308 0-.572.086-.792.258-.22.168-.406.416-.558.744v3.834h-1.482ZM27.347 6.237h1.356a.57.57 0 0 1 .348.102c.096.064.16.152.192.264l1.476 5.19c.036.128.068.268.096.42.032.148.062.306.09.474a5.968 5.968 0 0 1 .228-.894l1.704-5.19a.575.575 0 0 1 .186-.252.543.543 0 0 1 .348-.114h.474a.57.57 0 0 1 .348.102.497.497 0 0 1 .192.264l1.692 5.19c.088.256.164.54.228.852.028-.156.056-.306.084-.45.032-.144.064-.278.096-.402l1.476-5.19c.028-.1.09-.186.186-.258a.563.563 0 0 1 .348-.108h1.266l-2.694 8.676h-1.458l-1.896-5.928-.078-.246a9.504 9.504 0 0 1-.072-.282c-.024.1-.05.194-.078.282-.024.088-.048.17-.072.246l-1.914 5.928H30.04l-2.694-8.676ZM42.771 8.661c.46 0 .876.074 1.248.222.376.148.696.358.96.63s.468.604.612.996c.144.392.216.83.216 1.314 0 .488-.072.928-.216 1.32a2.85 2.85 0 0 1-.612 1.002 2.653 2.653 0 0 1-.96.636 3.35 3.35 0 0 1-1.248.222c-.46 0-.878-.074-1.254-.222a2.712 2.712 0 0 1-.966-.636 2.922 2.922 0 0 1-.618-1.002 3.807 3.807 0 0 1-.216-1.32c0-.484.072-.922.216-1.314.148-.392.354-.724.618-.996.268-.272.59-.482.966-.63a3.397 3.397 0 0 1 1.254-.222Zm0 5.202c.512 0 .89-.172 1.134-.516.248-.344.372-.848.372-1.512s-.124-1.17-.372-1.518c-.244-.348-.622-.522-1.134-.522-.52 0-.904.176-1.152.528-.248.348-.372.852-.372 1.512s.124 1.164.372 1.512c.248.344.632.516 1.152.516ZM46.723 14.913V8.757h.87c.152 0 .258.028.318.084.06.056.1.152.12.288l.09.744c.22-.38.478-.68.774-.9.296-.22.628-.33.996-.33.304 0 .556.07.756.21l-.192 1.11c-.012.072-.038.124-.078.156a.278.278 0 0 1-.162.042 1.01 1.01 0 0 1-.246-.042 1.646 1.646 0 0 0-.414-.042c-.308 0-.572.086-.792.258-.22.168-.406.416-.558.744v3.834h-1.482ZM52.96 5.997v8.916h-1.482V5.997h1.482ZM58.732 14.913c-.192 0-.318-.09-.378-.27l-.12-.594a3.68 3.68 0 0 1-.402.39c-.14.116-.292.216-.456.3-.16.084-.334.148-.522.192a2.372 2.372 0 0 1-.6.072c-.336 0-.644-.07-.924-.21a2.098 2.098 0 0 1-.726-.606 3.033 3.033 0 0 1-.468-.99 5.072 5.072 0 0 1-.162-1.344c0-.456.062-.88.186-1.272s.302-.732.534-1.02c.232-.288.51-.512.834-.672a2.384 2.384 0 0 1 1.092-.246 2.103 2.103 0 0 1 1.536.606V5.997h1.482v8.916h-.906Zm-1.974-1.086c.308 0 .57-.064.786-.192.216-.128.42-.31.612-.546v-2.76a1.452 1.452 0 0 0-.552-.432 1.597 1.597 0 0 0-.636-.126c-.224 0-.428.042-.612.126a1.21 1.21 0 0 0-.462.384c-.124.168-.22.384-.288.648-.068.26-.102.568-.102.924 0 .36.028.666.084.918.06.248.144.452.252.612.108.156.24.27.396.342.156.068.33.102.522.102ZM16.331 20.757v6.156H14.85v-6.156h1.481Zm.223-1.794a.844.844 0 0 1-.078.36.963.963 0 0 1-.21.294.995.995 0 0 1-.3.204.963.963 0 0 1-.372.072.948.948 0 0 1-.367-.072 1.018 1.018 0 0 1-.498-.498.963.963 0 0 1 0-.732.995.995 0 0 1 .205-.3.929.929 0 0 1 .293-.198.899.899 0 0 1 .738 0 .912.912 0 0 1 .3.198.943.943 0 0 1 .288.672ZM17.771 26.913v-6.156h.906c.192 0 .318.09.378.27l.102.486a2.934 2.934 0 0 1 .828-.618c.156-.076.322-.134.498-.174.176-.04.368-.06.576-.06.336 0 .634.058.894.174.26.112.476.272.648.48.176.204.308.45.396.738.092.284.138.598.138.942v3.918h-1.482v-3.918c0-.376-.088-.666-.264-.87-.172-.208-.432-.312-.78-.312-.256 0-.496.058-.72.174a2.58 2.58 0 0 0-.636.474v4.452h-1.482ZM34.22 22.575c0 .636-.106 1.22-.318 1.752-.212.532-.51.99-.894 1.374a4 4 0 0 1-1.386.894 4.87 4.87 0 0 1-1.794.318h-3.312v-8.676h3.312a4.79 4.79 0 0 1 1.794.324 4 4 0 0 1 1.386.894c.384.38.682.836.894 1.368.212.532.318 1.116.318 1.752Zm-1.65 0c0-.476-.064-.902-.192-1.278a2.68 2.68 0 0 0-.546-.96 2.332 2.332 0 0 0-.864-.606 2.94 2.94 0 0 0-1.14-.21h-1.686v6.108h1.686c.424 0 .804-.07 1.14-.21.34-.14.628-.34.864-.6a2.75 2.75 0 0 0 .546-.96 4.01 4.01 0 0 0 .192-1.284ZM39.98 26.913h-.665c-.14 0-.25-.02-.33-.06-.08-.044-.14-.13-.18-.258l-.132-.438c-.156.14-.31.264-.462.372a2.804 2.804 0 0 1-.462.264c-.16.072-.33.126-.51.162-.18.036-.38.054-.6.054-.26 0-.5-.034-.72-.102a1.618 1.618 0 0 1-.57-.318 1.448 1.448 0 0 1-.366-.522 1.852 1.852 0 0 1-.132-.726c0-.232.06-.46.18-.684.124-.228.328-.432.612-.612.284-.184.662-.336 1.134-.456.472-.12 1.058-.188 1.758-.204v-.36c0-.412-.088-.716-.264-.912-.172-.2-.424-.3-.756-.3a1.837 1.837 0 0 0-1.02.276c-.116.068-.224.13-.324.186a.664.664 0 0 1-.33.084.429.429 0 0 1-.258-.078.614.614 0 0 1-.174-.192l-.27-.474c.708-.648 1.562-.972 2.562-.972.36 0 .68.06.96.18.284.116.524.28.72.492.196.208.344.458.444.75.104.292.156.612.156.96v3.888Zm-2.88-.924c.153 0 .293-.014.42-.042.129-.028.249-.07.36-.126.117-.056.227-.124.33-.204.109-.084.217-.182.325-.294v-1.038c-.432.02-.794.058-1.086.114-.288.052-.52.12-.696.204a.923.923 0 0 0-.378.294.664.664 0 0 0-.108.366c0 .26.076.446.228.558.156.112.358.168.606.168ZM43.22 27.01c-.532 0-.942-.15-1.23-.45-.288-.305-.432-.723-.432-1.255v-3.438h-.624a.31.31 0 0 1-.21-.078c-.056-.052-.084-.13-.084-.234v-.588l.99-.162.312-1.68a.302.302 0 0 1 .108-.186.365.365 0 0 1 .222-.066h.768v1.938h1.62v1.056h-1.62v3.336c0 .192.048.342.144.45a.488.488 0 0 0 .384.162c.092 0 .168-.01.228-.03.064-.024.118-.048.162-.072.048-.024.09-.046.126-.066a.194.194 0 0 1 .108-.036.16.16 0 0 1 .108.036c.028.02.058.052.09.096l.444.72c-.216.18-.464.316-.744.408a2.77 2.77 0 0 1-.87.138ZM50.423 26.913h-.666c-.14 0-.25-.02-.33-.06-.08-.044-.14-.13-.18-.258l-.132-.438c-.156.14-.31.264-.462.372a2.804 2.804 0 0 1-.462.264c-.16.072-.33.126-.51.162-.18.036-.38.054-.6.054-.26 0-.5-.034-.72-.102a1.618 1.618 0 0 1-.57-.318 1.448 1.448 0 0 1-.366-.522 1.852 1.852 0 0 1-.132-.726c0-.232.06-.46.18-.684.124-.228.328-.432.612-.612.284-.184.662-.336 1.134-.456.472-.12 1.058-.188 1.758-.204v-.36c0-.412-.088-.716-.264-.912-.172-.2-.424-.3-.756-.3a1.837 1.837 0 0 0-1.02.276c-.116.068-.224.13-.324.186a.664.664 0 0 1-.33.084.429.429 0 0 1-.258-.078.614.614 0 0 1-.174-.192l-.27-.474c.708-.648 1.562-.972 2.562-.972.36 0 .68.06.96.18.284.116.524.28.72.492.196.208.344.458.444.75.104.292.156.612.156.96v3.888Zm-2.88-.924c.152 0 .292-.014.42-.042.128-.028.248-.07.36-.126.116-.056.226-.124.33-.204.108-.084.216-.182.324-.294v-1.038c-.432.02-.794.058-1.086.114-.288.052-.52.12-.696.204a.923.923 0 0 0-.378.294.664.664 0 0 0-.108.366c0 .26.076.446.228.558.156.112.358.168.606.168Z"/></svg></g><a id="title" href="https://ourworldindata.org/explorers/minerals?Mineral=Platinum+group+metals&amp;Metric=Production&amp;Type=Mine%2C+other&amp;Share+of+global=false&amp;country=AUS~CHL~CHN~USA~CAN~ALB~DZA~ARG~ARM~AUT~AZE~BOL~OWID_WRL~BWA~BRA~BGR~COL~COG~CUB~CYP~OWID_CZS~COD~DOM~OWID_GDR~ZWE~ZMB~OWID_YGS~OWID_GFR~VNM~UZB~GBR~UGA~OWID_USS~TUR~TZA~TJK~TWN~SWE~ESP~KOR~ZAF~SVK~OWID_SRM~SRB~SAU~RUS~ROU~PRT~POL~PHL~PER~PNG~PAN~PAK~OMN~NOR~MKD~PRK~NIC~NZL~NAM~MMR~MOZ~MAR~MNG~MEX~MRT~MYS~LAO~KGZ~KEN~KAZ~JPN~ITA~ISR~IRL~IRN~IDN~IND~HUN~HND~HTI~GTM~GRC~DEU~GEO~FRA~FIN~ERI~ECU~VEN~ARE~UKR~CHE~SUR~LKA~SVN~QAT~NGA~NLD~MNE~ISL~GHA~EGY~HRV~CMR~BIH~BHR~AFG~OWID_KOS~MDG~NCL~SDN~Other~CZE~THA~TUN~CIV~GAB~RWA~NER~ETH~BDI~GRL" style="font-family:&#x27;Playfair Display&#x27;, Georgia, &#x27;Times New Roman&#x27;, &#x27;Liberation Serif&#x27;, serif" target="_blank" rel="noopener"><text font-size="24.75" font-weight="600" x="16.0" y="40.0" fill="#5b5b5b"><tspan x="16" y="40.0075">Platinum group metals (other) production, 1970 to 2017</tspan></text></a><g id="subtitle" class="markdown-text-wrap"><text x="16.0" y="63.9" style="font-size:14.625px;line-height:1.2" fill="#5b5b5b"><tspan x="16" y="63.9">Based on mined, rather than <tspan class="dod-span" data-id="refined-production">refined<tspan style="font-feature-settings:&quot;sups&quot;">ยน</tspan></tspan>, production. Measured in tonnes.</tspan></text></g></g><g id="chart-area" style="pointer-events:none"><g id="line-chart" class="LineChart"><defs><clipPath id="boundsClip-91"><rect x="33.68" y="73.25" width="838" height="470.35"></rect></clipPath></defs><rect x="16" y="83.25" width="818" height="450.35" fill="none"></rect><g id="dual-axis" class="DualAxisView"><g id="horizontal-axis" class="HorizontalAxis"><g id="tick__1970"><line x1="43.7" y1="512.6" x2="43.7" y2="518.1" stroke="#999" stroke-width="1"></line><text x="43.68" y="531.6" fill="#5b5b5b" text-anchor="start" font-size="13.5">1970</text></g><g id="tick__2017"><line x1="717.6" y1="512.6" x2="717.6" y2="518.1" stroke="#999" stroke-width="1"></line><text x="717.595" y="531.6" fill="#5b5b5b" text-anchor="end" font-size="13.5">2017</text></g><g id="tick__1980"><line x1="187.1" y1="512.6" x2="187.1" y2="518.1" stroke="#999" stroke-width="1"></line><text x="187.1" y="531.6" fill="#5b5b5b" text-anchor="middle" font-size="13.5">1980</text></g><g id="tick__1990"><line x1="330.5" y1="512.6" x2="330.5" y2="518.1" stroke="#999" stroke-width="1"></line><text x="330.5" y="531.6" fill="#5b5b5b" text-anchor="middle" font-size="13.5">1990</text></g><g id="tick__2000"><line x1="473.8" y1="512.6" x2="473.8" y2="518.1" stroke="#999" stroke-width="1"></line><text x="473.8" y="531.6" fill="#5b5b5b" text-anchor="middle" font-size="13.5">2000</text></g><g id="tick__2010"><line x1="617.2" y1="512.6" x2="617.2" y2="518.1" stroke="#999" stroke-width="1"></line><text x="617.2" y="531.6" fill="#5b5b5b" text-anchor="middle" font-size="13.5">2010</text></g></g><g id="vertical-axis" class="VerticalAxis"><g id="tick-labels"><text id="tick-label__0-t" x="38.68" y="513.1" dy=".32em" text-anchor="end" fill="#5b5b5b" font-size="13.5">0 t</text><text id="tick-label__10-t" x="38.68" y="440.8" dy=".32em" text-anchor="end" fill="#5b5b5b" font-size="13.5">10 t</text><text id="tick-label__20-t" x="38.68" y="368.5" dy=".32em" text-anchor="end" fill="#5b5b5b" font-size="13.5">20 t</text><text id="tick-label__30-t" x="38.68" y="296.2" dy=".32em" text-anchor="end" fill="#5b5b5b" font-size="13.5">30 t</text><text id="tick-label__40-t" x="38.68" y="223.9" dy=".32em" text-anchor="end" fill="#5b5b5b" font-size="13.5">40 t</text><text id="tick-label__50-t" x="38.68" y="151.6" dy=".32em" text-anchor="end" fill="#5b5b5b" font-size="13.5">50 t</text></g></g><g id="horizontal-grid-lines" class="AxisGridLines horizontalLines"><line id="grid-line__0" x1="43.68" y1="513.1" x2="717.60" y2="513.1" stroke="#999" stroke-width="1"></line><line id="grid-line__10" x1="43.68" y1="440.8" x2="717.60" y2="440.8" stroke="#ddd" stroke-width="1" stroke-dasharray="3,2"></line><line id="grid-line__20" x1="43.68" y1="368.5" x2="717.60" y2="368.5" stroke="#ddd" stroke-width="1" stroke-dasharray="3,2"></line><line id="grid-line__30" x1="43.68" y1="296.2" x2="717.60" y2="296.2" stroke="#ddd" stroke-width="1" stroke-dasharray="3,2"></line><line id="grid-line__40" x1="43.68" y1="223.9" x2="717.60" y2="223.9" stroke="#ddd" stroke-width="1" stroke-dasharray="3,2"></line><line id="grid-line__50" x1="43.68" y1="151.6" x2="717.60" y2="151.6" stroke="#ddd" stroke-width="1" stroke-dasharray="3,2"></line></g></g><g clip-path="url(#boundsClip-91)"><g id="line-labels" class="LineLabels"><g id="mark__South-Africa" class="legendMark" style="cursor:default"><g id="connector" class="indicator"><path d="M721.595,159.6 H735.095 V159.6 H748.595" stroke="#999" stroke-width="0.5" fill="none"></path></g><rect id="background" x="717.595" y="152.85" width="108.845" height="13.5" fill="#fff" opacity="0"></rect><text id="label" font-size="13.50" font-weight="400" x="752.6" y="164.6" fill="#00847e"><tspan x="752.595" y="164.595">South Africa</tspan></text></g><g id="mark__Zimbabwe" class="legendMark" style="cursor:default"><g id="connector" class="indicator"><path d="M721.595,491.4 H726.995 V464.85 H748.595" stroke="#999" stroke-width="0.5" fill="none"></path></g><rect id="background" x="717.595" y="458.1" width="97.37" height="13.5" fill="#fff" opacity="0"></rect><text id="label" font-size="13.50" font-weight="400" x="752.6" y="469.8" fill="#c15065"><tspan x="752.595" y="469.845">Zimbabwe</tspan></text></g><g id="mark__Russia" class="legendMark" style="cursor:default"><g id="connector" class="indicator"><path d="M721.595,495.7 H732.395 V480.35 H748.595" stroke="#999" stroke-width="0.5" fill="none"></path></g><rect id="background" x="717.595" y="473.6" width="76.31" height="13.5" fill="#fff" opacity="0"></rect><text id="label" font-size="13.50" font-weight="400" x="752.6" y="485.3" fill="#8c4569"><tspan x="752.595" y="485.345">Russia</tspan></text></g><g id="mark__Canada" class="legendMark" style="cursor:default"><g id="connector" class="indicator"><path d="M721.595,505.1 H737.795 V495.85 H748.595" stroke="#999" stroke-width="0.5" fill="none"></path></g><rect id="background" x="717.595" y="489.1" width="82.52000000000001" height="13.5" fill="#fff" opacity="0"></rect><text id="label" font-size="13.50" font-weight="400" x="752.6" y="500.8" fill="#18470f"><tspan x="752.595" y="500.845">Canada</tspan></text></g><g id="mark__United-States" class="legendMark" style="cursor:default"><g id="connector" class="indicator"><path d="M721.595,512.4 H743.195 V511.35 H748.595" stroke="#999" stroke-width="0.5" fill="none"></path></g><rect id="background" x="717.595" y="504.6" width="116.405" height="13.5" fill="#fff" opacity="0"></rect><text id="label" font-size="13.50" font-weight="400" x="752.6" y="516.3" fill="#6d3e91"><tspan x="752.595" y="516.345">United States</tspan></text></g><g id="mark__Australia" class="legendMark" style="cursor:default"><g id="connector" class="indicator"><path d="M721.595,513.1 H743.195 V526.85 H748.595" stroke="#999" stroke-width="0.5" fill="none"></path></g><rect id="background" x="717.595" y="520.1" width="87.65" height="13.5" fill="#fff" opacity="0"></rect><text id="label" font-size="13.50" font-weight="400" x="752.6" y="531.8" fill="#2c8465"><tspan x="752.595" y="531.845">Australia</tspan></text></g></g><g id="lines" class="Lines"><rect x="44" y="89" width="674" height="424" fill="rgba(255,255,255,0)" opacity="0"></rect><g id="line__United-States"><path stroke-linecap="round" stroke-linejoin="round" stroke="#ddd" d="M674.6 512.2L688.9 512.4L703.3 512.4L717.6 512.4" fill="none" stroke-width="1"></path></g><g id="line__South-Africa"><path stroke-linecap="round" stroke-linejoin="round" stroke="#ddd" d="M430.8 332.9L445.2 317.5L459.5 245.5L473.8 249.3L488.2 246.6L502.5 212.7L516.9 174.3L531.2 175L545.5 92.2L559.9 128.9L574.2 89.3L588.5 122L602.9 112.1L617.2 98.9L631.6 93L645.9 144.3L660.2 143.2L674.6 252.5L688.9 124.9L703.3 121.7L717.6 159.6" fill="none" stroke-width="1"></path></g><g id="line__Zimbabwe"><path stroke-linecap="round" stroke-linejoin="round" stroke="#ddd" d="M387.8 513.1L402.1 513.1L416.5 513.1L430.8 512.9L445.2 511.7L459.5 512.9L473.8 512.8L488.2 512.8L502.5 510.1L516.9 509.9L531.2 507.2L545.5 506.9L559.9 506.8L574.2 506.7L588.5 506.4L602.9 504.5L617.2 502L631.6 497.5L645.9 498L660.2 493.7L674.6 493.8L688.9 494.2L703.3 490.7L717.6 491.4" fill="none" stroke-width="1"></path></g><g id="line__Russia"><path stroke-linecap="round" stroke-linejoin="round" stroke="#ddd" d="M359.1 495L373.5 495L387.8 495L402.1 495L416.5 488.5L430.8 458.9L445.2 488.5L459.5 498.6L473.8 448L488.2 484.9L502.5 492.9L516.9 481.3L531.2 490.7L545.5 492.9L559.9 490.7L574.2 492.9L588.5 494.3L602.9 497.2L617.2 497.2L631.6 497.9L645.9 492.9L660.2 494.3L674.6 492.9L688.9 495L703.3 494.3L717.6 495.7" fill="none" stroke-width="1"></path></g><g id="line__Canada"><path stroke-linecap="round" stroke-linejoin="round" stroke="#ddd" d="M273.1 502.5L287.4 508.3L301.8 501.4L316.1 504.1L330.5 503L344.8 508.9L359.1 503.7L373.5 502.7L387.8 499.3L402.1 507.3L416.5 508L430.8 508.8L445.2 508L459.5 508L473.8 508.8L488.2 506.6L502.5 505.9L516.9 507.3L531.2 505.9L545.5 506.6L559.9 505.9L574.2 506.6L588.5 505.9L602.9 509.5L617.2 510.2L631.6 506.6L645.9 506.6L660.2 505.1L674.6 503L688.9 503L703.3 503.7L717.6 505.1" fill="none" stroke-width="1"></path></g><g id="line__Australia"><path stroke-linecap="round" stroke-linejoin="round" stroke="#ddd" d="M43.7 513.1L58 513.1" fill="none" stroke-width="1"></path></g><g id="line__United-States"><path id="outline" fill="none" stroke-linecap="butt" stroke-linejoin="round" stroke="#fff" stroke-width="2.5" d="M674.6 512.2L688.9 512.4L703.3 512.4L717.6 512.4"></path><g id="polyline"><polyline id="polyline" points="674.60,512.20 688.90,512.40 703.30,512.40 717.60,512.40" stroke-linejoin="round" stroke-width="1.5" stroke="#6D3E91" fill="none" stroke-linecap="butt"></polyline></g><g id="markers"><circle cx="674.6" cy="512.2" r="1.8" fill="#6D3E91"></circle><circle cx="688.9" cy="512.4" r="1.8" fill="#6D3E91"></circle><circle cx="703.3" cy="512.4" r="1.8" fill="#6D3E91"></circle><circle cx="717.6" cy="512.4" r="1.8" fill="#6D3E91"></circle></g></g><g id="line__South-Africa"><path id="outline" fill="none" stroke-linecap="butt" stroke-linejoin="round" stroke="#fff" stroke-width="2.5" d="M430.8 332.9L445.2 317.5L459.5 245.5L473.8 249.3L488.2 246.6L502.5 212.7L516.9 174.3L531.2 175L545.5 92.2L559.9 128.9L574.2 89.3L588.5 122L602.9 112.1L617.2 98.9L631.6 93L645.9 144.3L660.2 143.2L674.6 252.5L688.9 124.9L703.3 121.7L717.6 159.6"></path><g id="polyline"><polyline id="polyline" points="430.80,332.90 445.20,317.50 459.50,245.50 473.80,249.30 488.20,246.60 502.50,212.70 516.90,174.30 531.20,175.00 545.50,92.20 559.90,128.90 574.20,89.30 588.50,122.00 602.90,112.10 617.20,98.90 631.60,93.00 645.90,144.30 660.20,143.20 674.60,252.50 688.90,124.90 703.30,121.70 717.60,159.60" stroke-linejoin="round" stroke-width="1.5" stroke="#00847E" fill="none" stroke-linecap="butt"></polyline></g><g id="markers"><circle cx="430.8" cy="332.9" r="1.8" fill="#00847E"></circle><circle cx="445.2" cy="317.5" r="1.8" fill="#00847E"></circle><circle cx="459.5" cy="245.5" r="1.8" fill="#00847E"></circle><circle cx="473.8" cy="249.3" r="1.8" fill="#00847E"></circle><circle cx="488.2" cy="246.6" r="1.8" fill="#00847E"></circle><circle cx="502.5" cy="212.7" r="1.8" fill="#00847E"></circle><circle cx="516.9" cy="174.3" r="1.8" fill="#00847E"></circle><circle cx="531.2" cy="175" r="1.8" fill="#00847E"></circle><circle cx="545.5" cy="92.2" r="1.8" fill="#00847E"></circle><circle cx="559.9" cy="128.9" r="1.8" fill="#00847E"></circle><circle cx="574.2" cy="89.3" r="1.8" fill="#00847E"></circle><circle cx="588.5" cy="122" r="1.8" fill="#00847E"></circle><circle cx="602.9" cy="112.1" r="1.8" fill="#00847E"></circle><circle cx="617.2" cy="98.9" r="1.8" fill="#00847E"></circle><circle cx="631.6" cy="93" r="1.8" fill="#00847E"></circle><circle cx="645.9" cy="144.3" r="1.8" fill="#00847E"></circle><circle cx="660.2" cy="143.2" r="1.8" fill="#00847E"></circle><circle cx="674.6" cy="252.5" r="1.8" fill="#00847E"></circle><circle cx="688.9" cy="124.9" r="1.8" fill="#00847E"></circle><circle cx="703.3" cy="121.7" r="1.8" fill="#00847E"></circle><circle cx="717.6" cy="159.6" r="1.8" fill="#00847E"></circle></g></g><g id="line__Zimbabwe"><path id="outline" fill="none" stroke-linecap="butt" stroke-linejoin="round" stroke="#fff" stroke-width="2.5" d="M387.8 513.1L402.1 513.1L416.5 513.1L430.8 512.9L445.2 511.7L459.5 512.9L473.8 512.8L488.2 512.8L502.5 510.1L516.9 509.9L531.2 507.2L545.5 506.9L559.9 506.8L574.2 506.7L588.5 506.4L602.9 504.5L617.2 502L631.6 497.5L645.9 498L660.2 493.7L674.6 493.8L688.9 494.2L703.3 490.7L717.6 491.4"></path><g id="polyline"><polyline id="polyline" points="387.80,513.10 402.10,513.10 416.50,513.10 430.80,512.90 445.20,511.70 459.50,512.90 473.80,512.80 488.20,512.80 502.50,510.10 516.90,509.90 531.20,507.20 545.50,506.90 559.90,506.80 574.20,506.70 588.50,506.40 602.90,504.50 617.20,502.00 631.60,497.50 645.90,498.00 660.20,493.70 674.60,493.80 688.90,494.20 703.30,490.70 717.60,491.40" stroke-linejoin="round" stroke-width="1.5" stroke="#C15065" fill="none" stroke-linecap="butt"></polyline></g><g id="markers"><circle cx="387.8" cy="513.1" r="1.8" fill="#C15065"></circle><circle cx="402.1" cy="513.1" r="1.8" fill="#C15065"></circle><circle cx="416.5" cy="513.1" r="1.8" fill="#C15065"></circle><circle cx="430.8" cy="512.9" r="1.8" fill="#C15065"></circle><circle cx="445.2" cy="511.7" r="1.8" fill="#C15065"></circle><circle cx="459.5" cy="512.9" r="1.8" fill="#C15065"></circle><circle cx="473.8" cy="512.8" r="1.8" fill="#C15065"></circle><circle cx="488.2" cy="512.8" r="1.8" fill="#C15065"></circle><circle cx="502.5" cy="510.1" r="1.8" fill="#C15065"></circle><circle cx="516.9" cy="509.9" r="1.8" fill="#C15065"></circle><circle cx="531.2" cy="507.2" r="1.8" fill="#C15065"></circle><circle cx="545.5" cy="506.9" r="1.8" fill="#C15065"></circle><circle cx="559.9" cy="506.8" r="1.8" fill="#C15065"></circle><circle cx="574.2" cy="506.7" r="1.8" fill="#C15065"></circle><circle cx="588.5" cy="506.4" r="1.8" fill="#C15065"></circle><circle cx="602.9" cy="504.5" r="1.8" fill="#C15065"></circle><circle cx="617.2" cy="502" r="1.8" fill="#C15065"></circle><circle cx="631.6" cy="497.5" r="1.8" fill="#C15065"></circle><circle cx="645.9" cy="498" r="1.8" fill="#C15065"></circle><circle cx="660.2" cy="493.7" r="1.8" fill="#C15065"></circle><circle cx="674.6" cy="493.8" r="1.8" fill="#C15065"></circle><circle cx="688.9" cy="494.2" r="1.8" fill="#C15065"></circle><circle cx="703.3" cy="490.7" r="1.8" fill="#C15065"></circle><circle cx="717.6" cy="491.4" r="1.8" fill="#C15065"></circle></g></g><g id="line__Russia"><path id="outline" fill="none" stroke-linecap="butt" stroke-linejoin="round" stroke="#fff" stroke-width="2.5" d="M359.1 495L373.5 495L387.8 495L402.1 495L416.5 488.5L430.8 458.9L445.2 488.5L459.5 498.6L473.8 448L488.2 484.9L502.5 492.9L516.9 481.3L531.2 490.7L545.5 492.9L559.9 490.7L574.2 492.9L588.5 494.3L602.9 497.2L617.2 497.2L631.6 497.9L645.9 492.9L660.2 494.3L674.6 492.9L688.9 495L703.3 494.3L717.6 495.7"></path><g id="polyline"><polyline id="polyline" points="359.10,495.00 373.50,495.00 387.80,495.00 402.10,495.00 416.50,488.50 430.80,458.90 445.20,488.50 459.50,498.60 473.80,448.00 488.20,484.90 502.50,492.90 516.90,481.30 531.20,490.70 545.50,492.90 559.90,490.70 574.20,492.90 588.50,494.30 602.90,497.20 617.20,497.20 631.60,497.90 645.90,492.90 660.20,494.30 674.60,492.90 688.90,495.00 703.30,494.30 717.60,495.70" stroke-linejoin="round" stroke-width="1.5" stroke="#8C4569" fill="none" stroke-linecap="butt"></polyline></g><g id="markers"><circle cx="359.1" cy="495" r="1.8" fill="#8C4569"></circle><circle cx="373.5" cy="495" r="1.8" fill="#8C4569"></circle><circle cx="387.8" cy="495" r="1.8" fill="#8C4569"></circle><circle cx="402.1" cy="495" r="1.8" fill="#8C4569"></circle><circle cx="416.5" cy="488.5" r="1.8" fill="#8C4569"></circle><circle cx="430.8" cy="458.9" r="1.8" fill="#8C4569"></circle><circle cx="445.2" cy="488.5" r="1.8" fill="#8C4569"></circle><circle cx="459.5" cy="498.6" r="1.8" fill="#8C4569"></circle><circle cx="473.8" cy="448" r="1.8" fill="#8C4569"></circle><circle cx="488.2" cy="484.9" r="1.8" fill="#8C4569"></circle><circle cx="502.5" cy="492.9" r="1.8" fill="#8C4569"></circle><circle cx="516.9" cy="481.3" r="1.8" fill="#8C4569"></circle><circle cx="531.2" cy="490.7" r="1.8" fill="#8C4569"></circle><circle cx="545.5" cy="492.9" r="1.8" fill="#8C4569"></circle><circle cx="559.9" cy="490.7" r="1.8" fill="#8C4569"></circle><circle cx="574.2" cy="492.9" r="1.8" fill="#8C4569"></circle><circle cx="588.5" cy="494.3" r="1.8" fill="#8C4569"></circle><circle cx="602.9" cy="497.2" r="1.8" fill="#8C4569"></circle><circle cx="617.2" cy="497.2" r="1.8" fill="#8C4569"></circle><circle cx="631.6" cy="497.9" r="1.8" fill="#8C4569"></circle><circle cx="645.9" cy="492.9" r="1.8" fill="#8C4569"></circle><circle cx="660.2" cy="494.3" r="1.8" fill="#8C4569"></circle><circle cx="674.6" cy="492.9" r="1.8" fill="#8C4569"></circle><circle cx="688.9" cy="495" r="1.8" fill="#8C4569"></circle><circle cx="703.3" cy="494.3" r="1.8" fill="#8C4569"></circle><circle cx="717.6" cy="495.7" r="1.8" fill="#8C4569"></circle></g></g><g id="line__Canada"><path id="outline" fill="none" stroke-linecap="butt" stroke-linejoin="round" stroke="#fff" stroke-width="2.5" d="M273.1 502.5L287.4 508.3L301.8 501.4L316.1 504.1L330.5 503L344.8 508.9L359.1 503.7L373.5 502.7L387.8 499.3L402.1 507.3L416.5 508L430.8 508.8L445.2 508L459.5 508L473.8 508.8L488.2 506.6L502.5 505.9L516.9 507.3L531.2 505.9L545.5 506.6L559.9 505.9L574.2 506.6L588.5 505.9L602.9 509.5L617.2 510.2L631.6 506.6L645.9 506.6L660.2 505.1L674.6 503L688.9 503L703.3 503.7L717.6 505.1"></path><g id="polyline"><polyline id="polyline" points="273.10,502.50 287.40,508.30 301.80,501.40 316.10,504.10 330.50,503.00 344.80,508.90 359.10,503.70 373.50,502.70 387.80,499.30 402.10,507.30 416.50,508.00 430.80,508.80 445.20,508.00 459.50,508.00 473.80,508.80 488.20,506.60 502.50,505.90 516.90,507.30 531.20,505.90 545.50,506.60 559.90,505.90 574.20,506.60 588.50,505.90 602.90,509.50 617.20,510.20 631.60,506.60 645.90,506.60 660.20,505.10 674.60,503.00 688.90,503.00 703.30,503.70 717.60,505.10" stroke-linejoin="round" stroke-width="1.5" stroke="#18470F" fill="none" stroke-linecap="butt"></polyline></g><g id="markers"><circle cx="273.1" cy="502.5" r="1.8" fill="#18470F"></circle><circle cx="287.4" cy="508.3" r="1.8" fill="#18470F"></circle><circle cx="301.8" cy="501.4" r="1.8" fill="#18470F"></circle><circle cx="316.1" cy="504.1" r="1.8" fill="#18470F"></circle><circle cx="330.5" cy="503" r="1.8" fill="#18470F"></circle><circle cx="344.8" cy="508.9" r="1.8" fill="#18470F"></circle><circle cx="359.1" cy="503.7" r="1.8" fill="#18470F"></circle><circle cx="373.5" cy="502.7" r="1.8" fill="#18470F"></circle><circle cx="387.8" cy="499.3" r="1.8" fill="#18470F"></circle><circle cx="402.1" cy="507.3" r="1.8" fill="#18470F"></circle><circle cx="416.5" cy="508" r="1.8" fill="#18470F"></circle><circle cx="430.8" cy="508.8" r="1.8" fill="#18470F"></circle><circle cx="445.2" cy="508" r="1.8" fill="#18470F"></circle><circle cx="459.5" cy="508" r="1.8" fill="#18470F"></circle><circle cx="473.8" cy="508.8" r="1.8" fill="#18470F"></circle><circle cx="488.2" cy="506.6" r="1.8" fill="#18470F"></circle><circle cx="502.5" cy="505.9" r="1.8" fill="#18470F"></circle><circle cx="516.9" cy="507.3" r="1.8" fill="#18470F"></circle><circle cx="531.2" cy="505.9" r="1.8" fill="#18470F"></circle><circle cx="545.5" cy="506.6" r="1.8" fill="#18470F"></circle><circle cx="559.9" cy="505.9" r="1.8" fill="#18470F"></circle><circle cx="574.2" cy="506.6" r="1.8" fill="#18470F"></circle><circle cx="588.5" cy="505.9" r="1.8" fill="#18470F"></circle><circle cx="602.9" cy="509.5" r="1.8" fill="#18470F"></circle><circle cx="617.2" cy="510.2" r="1.8" fill="#18470F"></circle><circle cx="631.6" cy="506.6" r="1.8" fill="#18470F"></circle><circle cx="645.9" cy="506.6" r="1.8" fill="#18470F"></circle><circle cx="660.2" cy="505.1" r="1.8" fill="#18470F"></circle><circle cx="674.6" cy="503" r="1.8" fill="#18470F"></circle><circle cx="688.9" cy="503" r="1.8" fill="#18470F"></circle><circle cx="703.3" cy="503.7" r="1.8" fill="#18470F"></circle><circle cx="717.6" cy="505.1" r="1.8" fill="#18470F"></circle></g></g><g id="line__Australia"><path id="outline" fill="none" stroke-linecap="butt" stroke-linejoin="round" stroke="#fff" stroke-width="2.5" d="M43.7 513.1L58 513.1"></path><g id="polyline"><polyline id="polyline" points="43.70,513.10 58.00,513.10" stroke-linejoin="round" stroke-width="1.5" stroke="#2C8465" fill="none" stroke-linecap="butt"></polyline></g><g id="markers"><circle cx="43.7" cy="513.1" r="1.8" fill="#2C8465"></circle><circle cx="58" cy="513.1" r="1.8" fill="#2C8465"></circle></g></g></g></g></g></g><g id="footer" class="SourcesFooter" style="fill:#5b5b5b"><g id="sources" class="markdown-text-wrap"><text x="16.0" y="562.7" style="font-size:13.5px;line-height:1.2"><tspan x="16" y="562.7"><tspan style="font-weight:700">Data source:</tspan> BGS - World Mineral Statistics (2023)</tspan></text></g><g id="note" class="markdown-text-wrap"><text x="16.0" y="580.9" style="font-size:13.5px;line-height:1.2"><tspan x="16" y="580.9"><tspan style="font-weight:700">Note:</tspan> Values are reported as tonnes of metal content.</tspan></text></g><text id="origin-url" font-size="13.50" x="792.7" y="562.7"><tspan x="792.69" y="562.695"><a target="_blank" style="fill: #5b5b5b;" href="https://creativecommons.org/licenses/by/4.0/">CC BY</a></tspan></text></g><line id="separator-line" x1="16" y1="600" x2="834" y2="600" stroke="#e7e7e7"></line><g id="details" transform="translate(15, 616)"><g class="markdown-text-wrap"><text x="0.0" y="12.0" style="font-size:12.375px;fill:#5b5b5b;line-height:1.2"><tspan x="0" y="12.0"><tspan style="font-weight:700">1.</tspan> <tspan style="font-weight:700">Refined production</tspan>: Refined production is the process of taking raw materials, such as metals extracted from ores, and purifying them to achieve</tspan><tspan x="0" y="26.9">a higher quality or more usable form. After metals are initially extracted from ore through processes like smelting, they often contain impurities or are</tspan><tspan x="0" y="41.7">not in the ideal form for manufacturing. Refining involves further processing these metals to remove impurities and adjust their composition to meet</tspan><tspan x="0" y="56.6">specific standards. Refined production is essential for transforming raw materials into high-quality metals that are crucial for industries and</tspan><tspan x="0" y="71.4">consumers, from manufacturing electronics to constructing buildings.</tspan></text></g></g></svg>