<svg xmlns="http://www.w3.org/2000/svg" version="1.1" style="font-family:Lato, &#x27;Helvetica Neue&#x27;, Helvetica, Arial, &#x27;Liberation Sans&#x27;, sans-serif;font-size:18px;background-color:white;text-rendering:geometricPrecision;-webkit-font-smoothing:antialiased" width="850" height="706.25" viewBox="0 0 850 706.25"><defs><style>@import url(https://ourworldindata.org/fonts.css)</style></defs><defs><pattern id="noDataPattern" patternUnits="userSpaceOnUse" width="4" height="4" patternTransform="rotate(-45 2 2)"><path d="M -1,2 l 6,0" stroke="#ccc" stroke-width="0.7"></path></pattern></defs><rect class="background-fill" fill="white" width="850" height="706.25"></rect><g id="header" class="HeaderView"><g id="logo" transform="translate(769, 16) scale(1)"><svg className="owidLogo" xmlns="http://www.w3.org/2000/svg" width="65" height="36" viewBox="0 0 65 36"  fill="none"><path fill="#002147" d="M0 0h64.8v36H0z"/><path fill="#CE261E" d="M0 33.3h64.8V36H0z"/><path fill="#fff" d="M13.796 10.575c0 .636-.106 1.226-.318 1.77a4.193 4.193 0 0 1-.894 1.404 4.084 4.084 0 0 1-1.386.93c-.54.22-1.138.33-1.794.33-.656 0-1.256-.11-1.8-.33a4.149 4.149 0 0 1-1.392-.93 4.193 4.193 0 0 1-.894-1.404A4.833 4.833 0 0 1 5 10.575c0-.636.106-1.224.318-1.764a4.18 4.18 0 0 1 .894-1.41 4.076 4.076 0 0 1 1.392-.924 4.684 4.684 0 0 1 1.8-.336c.656 0 1.254.112 1.794.336.54.224 1.002.534 1.386.93.384.392.682.86.894 1.404.212.54.318 1.128.318 1.764Zm-1.656 0c0-.476-.064-.902-.192-1.278a2.671 2.671 0 0 0-.54-.966 2.332 2.332 0 0 0-.864-.606 2.94 2.94 0 0 0-1.14-.21c-.424 0-.806.07-1.146.21-.34.14-.63.342-.87.606a2.742 2.742 0 0 0-.546.966 3.955 3.955 0 0 0-.192 1.278c0 .476.064.904.192 1.284.128.376.31.696.546.96.24.26.53.46.87.6.34.14.722.21 1.146.21.424 0 .804-.07 1.14-.21.34-.14.628-.34.864-.6.236-.264.416-.584.54-.96a4.01 4.01 0 0 0 .192-1.284ZM16.104 8.757v3.912c0 .376.086.668.258.876.176.204.438.306.786.306.256 0 .496-.056.72-.168a2.58 2.58 0 0 0 .636-.474V8.757h1.482v6.156h-.906c-.192 0-.318-.09-.378-.27l-.102-.492a4.65 4.65 0 0 1-.396.354 2.577 2.577 0 0 1-.438.27 2.35 2.35 0 0 1-.498.168 2.345 2.345 0 0 1-.57.066c-.336 0-.634-.056-.894-.168a1.821 1.821 0 0 1-.648-.486 2.157 2.157 0 0 1-.402-.738 3.233 3.233 0 0 1-.132-.948V8.757h1.482ZM21.328 14.913V8.757h.87c.152 0 .258.028.318.084.06.056.1.152.12.288l.09.744c.22-.38.478-.68.774-.9.296-.22.628-.33.996-.33.304 0 .556.07.756.21l-.192 1.11c-.012.072-.038.124-.078.156a.278.278 0 0 1-.162.042 1.01 1.01 0 0 1-.246-.042 1.646 1.646 0 0 0-.414-.042c-.308 0-.572.086-.792.258-.22.168-.406.416-.558.744v3.834h-1.482ZM27.347 6.237h1.356a.57.57 0 0 1 .348.102c.096.064.16.152.192.264l1.476 5.19c.036.128.068.268.096.42.032.148.062.306.09.474a5.968 5.968 0 0 1 .228-.894l1.704-5.19a.575.575 0 0 1 .186-.252.543.543 0 0 1 .348-.114h.474a.57.57 0 0 1 .348.102.497.497 0 0 1 .192.264l1.692 5.19c.088.256.164.54.228.852.028-.156.056-.306.084-.45.032-.144.064-.278.096-.402l1.476-5.19c.028-.1.09-.186.186-.258a.563.563 0 0 1 .348-.108h1.266l-2.694 8.676h-1.458l-1.896-5.928-.078-.246a9.504 9.504 0 0 1-.072-.282c-.024.1-.05.194-.078.282-.024.088-.048.17-.072.246l-1.914 5.928H30.04l-2.694-8.676ZM42.771 8.661c.46 0 .876.074 1.248.222.376.148.696.358.96.63s.468.604.612.996c.144.392.216.83.216 1.314 0 .488-.072.928-.216 1.32a2.85 2.85 0 0 1-.612 1.002 2.653 2.653 0 0 1-.96.636 3.35 3.35 0 0 1-1.248.222c-.46 0-.878-.074-1.254-.222a2.712 2.712 0 0 1-.966-.636 2.922 2.922 0 0 1-.618-1.002 3.807 3.807 0 0 1-.216-1.32c0-.484.072-.922.216-1.314.148-.392.354-.724.618-.996.268-.272.59-.482.966-.63a3.397 3.397 0 0 1 1.254-.222Zm0 5.202c.512 0 .89-.172 1.134-.516.248-.344.372-.848.372-1.512s-.124-1.17-.372-1.518c-.244-.348-.622-.522-1.134-.522-.52 0-.904.176-1.152.528-.248.348-.372.852-.372 1.512s.124 1.164.372 1.512c.248.344.632.516 1.152.516ZM46.723 14.913V8.757h.87c.152 0 .258.028.318.084.06.056.1.152.12.288l.09.744c.22-.38.478-.68.774-.9.296-.22.628-.33.996-.33.304 0 .556.07.756.21l-.192 1.11c-.012.072-.038.124-.078.156a.278.278 0 0 1-.162.042 1.01 1.01 0 0 1-.246-.042 1.646 1.646 0 0 0-.414-.042c-.308 0-.572.086-.792.258-.22.168-.406.416-.558.744v3.834h-1.482ZM52.96 5.997v8.916h-1.482V5.997h1.482ZM58.732 14.913c-.192 0-.318-.09-.378-.27l-.12-.594a3.68 3.68 0 0 1-.402.39c-.14.116-.292.216-.456.3-.16.084-.334.148-.522.192a2.372 2.372 0 0 1-.6.072c-.336 0-.644-.07-.924-.21a2.098 2.098 0 0 1-.726-.606 3.033 3.033 0 0 1-.468-.99 5.072 5.072 0 0 1-.162-1.344c0-.456.062-.88.186-1.272s.302-.732.534-1.02c.232-.288.51-.512.834-.672a2.384 2.384 0 0 1 1.092-.246 2.103 2.103 0 0 1 1.536.606V5.997h1.482v8.916h-.906Zm-1.974-1.086c.308 0 .57-.064.786-.192.216-.128.42-.31.612-.546v-2.76a1.452 1.452 0 0 0-.552-.432 1.597 1.597 0 0 0-.636-.126c-.224 0-.428.042-.612.126a1.21 1.21 0 0 0-.462.384c-.124.168-.22.384-.288.648-.068.26-.102.568-.102.924 0 .36.028.666.084.918.06.248.144.452.252.612.108.156.24.27.396.342.156.068.33.102.522.102ZM16.331 20.757v6.156H14.85v-6.156h1.481Zm.223-1.794a.844.844 0 0 1-.078.36.963.963 0 0 1-.21.294.995.995 0 0 1-.3.204.963.963 0 0 1-.372.072.948.948 0 0 1-.367-.072 1.018 1.018 0 0 1-.498-.498.963.963 0 0 1 0-.732.995.995 0 0 1 .205-.3.929.929 0 0 1 .293-.198.899.899 0 0 1 .738 0 .912.912 0 0 1 .3.198.943.943 0 0 1 .288.672ZM17.771 26.913v-6.156h.906c.192 0 .318.09.378.27l.102.486a2.934 2.934 0 0 1 .828-.618c.156-.076.322-.134.498-.174.176-.04.368-.06.576-.06.336 0 .634.058.894.174.26.112.476.272.648.48.176.204.308.45.396.738.092.284.138.598.138.942v3.918h-1.482v-3.918c0-.376-.088-.666-.264-.87-.172-.208-.432-.312-.78-.312-.256 0-.496.058-.72.174a2.58 2.58 0 0 0-.636.474v4.452h-1.482ZM34.22 22.575c0 .636-.106 1.22-.318 1.752-.212.532-.51.99-.894 1.374a4 4 0 0 1-1.386.894 4.87 4.87 0 0 1-1.794.318h-3.312v-8.676h3.312a4.79 4.79 0 0 1 1.794.324 4 4 0 0 1 1.386.894c.384.38.682.836.894 1.368.212.532.318 1.116.318 1.752Zm-1.65 0c0-.476-.064-.902-.192-1.278a2.68 2.68 0 0 0-.546-.96 2.332 2.332 0 0 0-.864-.606 2.94 2.94 0 0 0-1.14-.21h-1.686v6.108h1.686c.424 0 .804-.07 1.14-.21.34-.14.628-.34.864-.6a2.75 2.75 0 0 0 .546-.96 4.01 4.01 0 0 0 .192-1.284ZM39.98 26.913h-.665c-.14 0-.25-.02-.33-.06-.08-.044-.14-.13-.18-.258l-.132-.438c-.156.14-.31.264-.462.372a2.804 2.804 0 0 1-.462.264c-.16.072-.33.126-.51.162-.18.036-.38.054-.6.054-.26 0-.5-.034-.72-.102a1.618 1.618 0 0 1-.57-.318 1.448 1.448 0 0 1-.366-.522 1.852 1.852 0 0 1-.132-.726c0-.232.06-.46.18-.684.124-.228.328-.432.612-.612.284-.184.662-.336 1.134-.456.472-.12 1.058-.188 1.758-.204v-.36c0-.412-.088-.716-.264-.912-.172-.2-.424-.3-.756-.3a1.837 1.837 0 0 0-1.02.276c-.116.068-.224.13-.324.186a.664.664 0 0 1-.33.084.429.429 0 0 1-.258-.078.614.614 0 0 1-.174-.192l-.27-.474c.708-.648 1.562-.972 2.562-.972.36 0 .68.06.96.18.284.116.524.28.72.492.196.208.344.458.444.75.104.292.156.612.156.96v3.888Zm-2.88-.924c.153 0 .293-.014.42-.042.129-.028.249-.07.36-.126.117-.056.227-.124.33-.204.109-.084.217-.182.325-.294v-1.038c-.432.02-.794.058-1.086.114-.288.052-.52.12-.696.204a.923.923 0 0 0-.378.294.664.664 0 0 0-.108.366c0 .26.076.446.228.558.156.112.358.168.606.168ZM43.22 27.01c-.532 0-.942-.15-1.23-.45-.288-.305-.432-.723-.432-1.255v-3.438h-.624a.31.31 0 0 1-.21-.078c-.056-.052-.084-.13-.084-.234v-.588l.99-.162.312-1.68a.302.302 0 0 1 .108-.186.365.365 0 0 1 .222-.066h.768v1.938h1.62v1.056h-1.62v3.336c0 .192.048.342.144.45a.488.488 0 0 0 .384.162c.092 0 .168-.01.228-.03.064-.024.118-.048.162-.072.048-.024.09-.046.126-.066a.194.194 0 0 1 .108-.036.16.16 0 0 1 .108.036c.028.02.058.052.09.096l.444.72c-.216.18-.464.316-.744.408a2.77 2.77 0 0 1-.87.138ZM50.423 26.913h-.666c-.14 0-.25-.02-.33-.06-.08-.044-.14-.13-.18-.258l-.132-.438c-.156.14-.31.264-.462.372a2.804 2.804 0 0 1-.462.264c-.16.072-.33.126-.51.162-.18.036-.38.054-.6.054-.26 0-.5-.034-.72-.102a1.618 1.618 0 0 1-.57-.318 1.448 1.448 0 0 1-.366-.522 1.852 1.852 0 0 1-.132-.726c0-.232.06-.46.18-.684.124-.228.328-.432.612-.612.284-.184.662-.336 1.134-.456.472-.12 1.058-.188 1.758-.204v-.36c0-.412-.088-.716-.264-.912-.172-.2-.424-.3-.756-.3a1.837 1.837 0 0 0-1.02.276c-.116.068-.224.13-.324.186a.664.664 0 0 1-.33.084.429.429 0 0 1-.258-.078.614.614 0 0 1-.174-.192l-.27-.474c.708-.648 1.562-.972 2.562-.972.36 0 .68.06.96.18.284.116.524.28.72.492.196.208.344.458.444.75.104.292.156.612.156.96v3.888Zm-2.88-.924c.152 0 .292-.014.42-.042.128-.028.248-.07.36-.126.116-.056.226-.124.33-.204.108-.084.216-.182.324-.294v-1.038c-.432.02-.794.058-1.086.114-.288.052-.52.12-.696.204a.923.923 0 0 0-.378.294.664.664 0 0 0-.108.366c0 .26.076.446.228.558.156.112.358.168.606.168Z"/></svg></g><a id="title" href="https://ourworldindata.org/explorers/minerals?Mineral=Helium&amp;Metric=Production&amp;Type=Processing&amp;Share+of+global=false&amp;country=AUS~CHL~CHN~USA~CAN~ALB~DZA~ARG~ARM~AUT~AZE~BOL~OWID_WRL~BWA~BRA~BGR~COL~COG~CUB~CYP~OWID_CZS~COD~DOM~OWID_GDR~ZWE~ZMB~OWID_YGS~OWID_GFR~VNM~UZB~GBR~UGA~OWID_USS~TUR~TZA~TJK~TWN~SWE~ESP~KOR~ZAF~SVK~OWID_SRM~SRB~SAU~RUS~ROU~PRT~POL~PHL~PER~PNG~PAN~PAK~OMN~NOR~MKD~PRK~NIC~NZL~NAM~MMR~MOZ~MAR~MNG~MEX~MRT~MYS~LAO~KGZ~KEN~KAZ~JPN~ITA~ISR~IRL~IRN~IDN~IND~HUN~HND~HTI~GTM~GRC~DEU~GEO~FRA~FIN~ERI~ECU~VEN~ARE~UKR~CHE~SUR~LKA~SVN~QAT~NGA~NLD~MNE~ISL~GHA~EGY~HRV~CMR~BIH~BHR~AFG~OWID_KOS~MDG~NCL~SDN~Other~CZE~THA~TUN" style="font-family:&#x27;Playfair Display&#x27;, Georgia, &#x27;Times New Roman&#x27;, &#x27;Liberation Serif&#x27;, serif" target="_blank" rel="noopener"><text font-size="24.75" font-weight="600" x="16.0" y="40.0" fill="#5b5b5b"><tspan x="16" y="40.0075">Helium production, 1935 to 2023</tspan></text></a><g id="subtitle" class="markdown-text-wrap"><text x="16.0" y="63.9" style="font-size:14.625px;line-height:1.2" fill="#5b5b5b"><tspan x="16" y="63.9">Based on mined, rather than <tspan class="dod-span" data-id="refined-production">refined<tspan style="font-feature-settings:&quot;sups&quot;">ยน</tspan></tspan>, production. Measured in tonnes.</tspan></text></g></g><g id="chart-area" style="pointer-events:none"><g id="line-chart" class="LineChart"><defs><clipPath id="boundsClip-40"><rect x="60.14" y="73.25" width="838" height="435.95"></rect></clipPath></defs><rect x="16" y="83.25" width="818" height="415.95" fill="none"></rect><g id="dual-axis" class="DualAxisView"><g id="horizontal-axis" class="HorizontalAxis"><g id="tick__1935"><line x1="70.1" y1="478.2" x2="70.1" y2="483.7" stroke="#999" stroke-width="1"></line><text x="70.14" y="497.2" fill="#5b5b5b" text-anchor="start" font-size="13.5">1935</text></g><g id="tick__2023"><line x1="717.6" y1="478.2" x2="717.6" y2="483.7" stroke="#999" stroke-width="1"></line><text x="717.595" y="497.2" fill="#5b5b5b" text-anchor="end" font-size="13.5">2023</text></g><g id="tick__1960"><line x1="254.1" y1="478.2" x2="254.1" y2="483.7" stroke="#999" stroke-width="1"></line><text x="254.1" y="497.2" fill="#5b5b5b" text-anchor="middle" font-size="13.5">1960</text></g><g id="tick__1980"><line x1="401.2" y1="478.2" x2="401.2" y2="483.7" stroke="#999" stroke-width="1"></line><text x="401.2" y="497.2" fill="#5b5b5b" text-anchor="middle" font-size="13.5">1980</text></g><g id="tick__2000"><line x1="548.4" y1="478.2" x2="548.4" y2="483.7" stroke="#999" stroke-width="1"></line><text x="548.4" y="497.2" fill="#5b5b5b" text-anchor="middle" font-size="13.5">2000</text></g></g><g id="vertical-axis" class="VerticalAxis"><g id="tick-labels"><text id="tick-label__0-t" x="65.14" y="478.7" dy=".32em" text-anchor="end" fill="#5b5b5b" font-size="13.5">0 t</text><text id="tick-label__5__002c000-t" x="65.14" y="414.5" dy=".32em" text-anchor="end" fill="#5b5b5b" font-size="13.5">5,000 t</text><text id="tick-label__10__002c000-t" x="65.14" y="350.4" dy=".32em" text-anchor="end" fill="#5b5b5b" font-size="13.5">10,000 t</text><text id="tick-label__15__002c000-t" x="65.14" y="286.2" dy=".32em" text-anchor="end" fill="#5b5b5b" font-size="13.5">15,000 t</text><text id="tick-label__20__002c000-t" x="65.14" y="222" dy=".32em" text-anchor="end" fill="#5b5b5b" font-size="13.5">20,000 t</text><text id="tick-label__25__002c000-t" x="65.14" y="157.8" dy=".32em" text-anchor="end" fill="#5b5b5b" font-size="13.5">25,000 t</text><text id="tick-label__30__002c000-t" x="65.14" y="93.7" dy=".32em" text-anchor="end" fill="#5b5b5b" font-size="13.5">30,000 t</text></g></g><g id="horizontal-grid-lines" class="AxisGridLines horizontalLines"><line id="grid-line__0" x1="70.14" y1="478.7" x2="717.60" y2="478.7" stroke="#999" stroke-width="1"></line><line id="grid-line__5000" x1="70.14" y1="414.5" x2="717.60" y2="414.5" stroke="#ddd" stroke-width="1" stroke-dasharray="3,2"></line><line id="grid-line__10000" x1="70.14" y1="350.4" x2="717.60" y2="350.4" stroke="#ddd" stroke-width="1" stroke-dasharray="3,2"></line><line id="grid-line__15000" x1="70.14" y1="286.2" x2="717.60" y2="286.2" stroke="#ddd" stroke-width="1" stroke-dasharray="3,2"></line><line id="grid-line__20000" x1="70.14" y1="222" x2="717.60" y2="222" stroke="#ddd" stroke-width="1" stroke-dasharray="3,2"></line><line id="grid-line__25000" x1="70.14" y1="157.8" x2="717.60" y2="157.8" stroke="#ddd" stroke-width="1" stroke-dasharray="3,2"></line><line id="grid-line__30000" x1="70.14" y1="93.7" x2="717.60" y2="93.7" stroke="#ddd" stroke-width="1" stroke-dasharray="3,2"></line></g></g><g clip-path="url(#boundsClip-40)"><g id="line-labels" class="LineLabels"><g id="mark__World" class="legendMark" style="cursor:default"><g id="connector" class="indicator"><path d="M721.595,89.3 H735.095 V90 H748.595" stroke="#999" stroke-width="0.5" fill="none"></path></g><rect id="background" x="717.595" y="83.25" width="70.235" height="13.5" fill="#fff" opacity="0"></rect><text id="label" font-size="13.50" font-weight="400" x="752.6" y="95.0" fill="#c15065"><tspan x="752.595" y="94.995">World</tspan></text></g><g id="mark__United-States" class="legendMark" style="cursor:default"><g id="connector" class="indicator"><path d="M721.595,297.7 H735.095 V297.7 H748.595" stroke="#999" stroke-width="0.5" fill="none"></path></g><rect id="background" x="717.595" y="290.95" width="116.405" height="13.5" fill="#fff" opacity="0"></rect><text id="label" font-size="13.50" font-weight="400" x="752.6" y="302.7" fill="#6d3e91"><tspan x="752.595" y="302.695">United States</tspan></text></g><g id="mark__Qatar" class="legendMark" style="cursor:default"><g id="connector" class="indicator"><path d="M721.595,327.5 H735.095 V327.5 H748.595" stroke="#999" stroke-width="0.5" fill="none"></path></g><rect id="background" x="717.595" y="320.75" width="68.885" height="13.5" fill="#fff" opacity="0"></rect><text id="label" font-size="13.50" font-weight="400" x="752.6" y="332.5" fill="#2c8465"><tspan x="752.595" y="332.495">Qatar</tspan></text></g><g id="mark__Algeria" class="legendMark" style="cursor:default"><g id="connector" class="indicator"><path d="M721.595,455.8 H726.095 V399.45 H748.595" stroke="#999" stroke-width="0.5" fill="none"></path></g><rect id="background" x="717.595" y="392.7" width="77.12" height="13.5" fill="#fff" opacity="0"></rect><text id="label" font-size="13.50" font-weight="400" x="752.6" y="404.4" fill="#883039"><tspan x="752.595" y="404.445">Algeria</tspan></text></g><g id="mark__Russia" class="legendMark" style="cursor:default"><g id="connector" class="indicator"><path d="M721.595,460.4 H730.595 V414.95 H748.595" stroke="#999" stroke-width="0.5" fill="none"></path></g><rect id="background" x="717.595" y="408.2" width="76.31" height="13.5" fill="#fff" opacity="0"></rect><text id="label" font-size="13.50" font-weight="400" x="752.6" y="419.9" fill="#8c4569"><tspan x="752.595" y="419.945">Russia</tspan></text></g><g id="mark__Canada" class="legendMark" style="cursor:default"><g id="connector" class="indicator"><path d="M721.595,469.5 H735.095 V430.45 H748.595" stroke="#999" stroke-width="0.5" fill="none"></path></g><rect id="background" x="717.595" y="423.7" width="82.52000000000001" height="13.5" fill="#fff" opacity="0"></rect><text id="label" font-size="13.50" font-weight="400" x="752.6" y="435.4" fill="#18470f"><tspan x="752.595" y="435.445">Canada</tspan></text></g><g id="mark__Poland" class="legendMark" style="cursor:default"><g id="connector" class="indicator"><path d="M721.595,471.8 H739.595 V445.95 H748.595" stroke="#999" stroke-width="0.5" fill="none"></path></g><rect id="background" x="717.595" y="439.2" width="77.255" height="13.5" fill="#fff" opacity="0"></rect><text id="label" font-size="13.50" font-weight="400" x="752.6" y="450.9" fill="#c15065"><tspan x="752.595" y="450.945">Poland</tspan></text></g><g id="mark__Australia" class="legendMark" style="cursor:default"><g id="connector" class="indicator"><path d="M721.595,476.4 H744.095 V461.45 H748.595" stroke="#999" stroke-width="0.5" fill="none"></path></g><rect id="background" x="717.595" y="454.7" width="87.65" height="13.5" fill="#fff" opacity="0"></rect><text id="label" font-size="13.50" font-weight="400" x="752.6" y="466.4" fill="#2c8465"><tspan x="752.595" y="466.445">Australia</tspan></text></g><g id="mark__China" class="legendMark" style="cursor:default"><g id="connector" class="indicator"><path d="M721.595,476.4 H744.095 V476.95 H748.595" stroke="#999" stroke-width="0.5" fill="none"></path></g><rect id="background" x="717.595" y="470.2" width="70.37" height="13.5" fill="#fff" opacity="0"></rect><text id="label" font-size="13.50" font-weight="400" x="752.6" y="481.9" fill="#cf0a66"><tspan x="752.595" y="481.945">China</tspan></text></g><g id="mark__South-Africa" class="legendMark" style="cursor:default"><g id="connector" class="indicator"><path d="M721.595,477.6 H739.595 V492.45 H748.595" stroke="#999" stroke-width="0.5" fill="none"></path></g><rect id="background" x="717.595" y="485.7" width="108.845" height="13.5" fill="#fff" opacity="0"></rect><text id="label" font-size="13.50" font-weight="400" x="752.6" y="497.4" fill="#00847e"><tspan x="752.595" y="497.445">South Africa</tspan></text></g></g><g id="lines" class="Lines"><rect x="70" y="89" width="647" height="389" fill="rgba(255,255,255,0)" opacity="0"></rect><g id="line__South-Africa"><path stroke-linecap="round" stroke-linejoin="round" stroke="#ddd" d="M702.9 476.4L710.2 476.4L717.6 477.6" fill="none" stroke-width="1"></path></g><g id="line__China"><path stroke-linecap="round" stroke-linejoin="round" stroke="#ddd" d="M695.5 476.4L702.9 476.4L710.2 476.4" fill="none" stroke-width="1"></path></g><g id="line__Canada"><path stroke-linecap="round" stroke-linejoin="round" stroke="#ddd" d="M695.5 476.4L702.9 476.4L710.2 471.8L717.6 469.5" fill="none" stroke-width="1"></path></g><g id="line__Qatar"><path stroke-linecap="round" stroke-linejoin="round" stroke="#ddd" d="M644 421.4L651.4 398.5L658.7 366.4L666.1 364.2L673.5 375.6L680.8 375.6L688.2 375.6L695.5 361.9L702.9 339L710.2 343.5L717.6 327.5" fill="none" stroke-width="1"></path></g><g id="line__Poland"><path stroke-linecap="round" stroke-linejoin="round" stroke="#ddd" d="M644 476.4L651.4 469.5L658.7 469.5L666.1 469.5L673.5 469.5L680.8 469.5L688.2 469.5L695.5 476.4L702.9 476.4L710.2 471.8L717.6 471.8" fill="none" stroke-width="1"></path></g><g id="line__Australia"><path stroke-linecap="round" stroke-linejoin="round" stroke="#ddd" d="M644 465L651.4 467.2L658.7 469.5L666.1 469.5L673.5 469.5L680.8 469.5L688.2 469.5L695.5 469.5L702.9 469.5L710.2 471.8L717.6 476.4" fill="none" stroke-width="1"></path></g><g id="line__Algeria"><path stroke-linecap="round" stroke-linejoin="round" stroke="#ddd" d="M644 439.8L651.4 442L658.7 455.8L666.1 455.8L673.5 446.6L680.8 446.6L688.2 446.6L695.5 446.6L702.9 446.6L710.2 460.4L717.6 455.8" fill="none" stroke-width="1"></path></g><g id="line__Russia"><path stroke-linecap="round" stroke-linejoin="round" stroke="#ddd" d="M636.7 467.2L644 469.5L651.4 469.5L658.7 467.2L666.1 467.2L673.5 467.2L680.8 467.2L688.2 467.2L695.5 467.2L702.9 467.2L710.2 467.2L717.6 460.4" fill="none" stroke-width="1"></path></g><g id="line__World"><path stroke-linecap="round" stroke-linejoin="round" stroke="#ddd" d="M70.1 478.1L77.5 478.4L84.9 478.4L92.2 478.3L99.6 478.3L106.9 478.1L114.3 477.7L121.6 476.7L129 471.5L136.4 470.9L143.7 472.9L151.1 475.1L158.4 474.4L165.8 474.8L173.1 475.3L180.5 473.7L187.9 471.8L195.2 469.8L202.6 468.8L209.9 467L217.3 465.1L224.6 463.7L232 460.7L239.4 458.2L246.7 449.3L254.1 439.2L261.4 433.9L268.8 434.8L276.1 340.1L283.5 229.7L290.9 209.2L298.2 195.1L305.6 187.4L312.9 189.9L320.3 189.9L327.7 193.8L335 191.2L342.4 219.5L349.7 273.4L357.1 415.8L364.4 403.4L371.8 387.3L379.2 378.2L386.5 370.9L393.9 364.6L401.2 381.7L408.6 407.1L415.9 455.2L423.3 434L430.7 368.7L438 353.6L445.4 350.4L452.7 329.8L460.1 308L467.4 288.8L482.2 274.6L489.5 261.8L496.9 261.8L511.6 237.4L518.9 237.4L526.3 178.4L533.7 187.4L541 184.8L548.4 224.6L555.7 249L563.1 241.3L570.4 165.5L577.8 143.7L585.2 130.9L592.5 118.1L599.9 107.8L607.2 98.8L614.6 159.1L621.9 114.2L629.3 105.2L636.7 100.1L644 107.8L651.4 121.9L658.7 139.9L666.1 130.9L673.5 107.8L680.8 130.9L688.2 136L695.5 112.2L702.9 103L710.2 116.7L717.6 89.3" fill="none" stroke-width="1"></path></g><g id="line__United-States"><path stroke-linecap="round" stroke-linejoin="round" stroke="#ddd" d="M70.1 478.1L77.5 478.4L84.9 478.4L92.2 478.3L99.6 478.3L106.9 478.1L114.3 477.7L121.6 476.7L129 471.5L136.4 470.9L143.7 472.9L151.1 475.1L158.4 474.4L165.8 474.8L173.1 475.3L180.5 473.7L187.9 471.8L195.2 469.8L202.6 468.8L209.9 467L217.3 465.1L224.6 463.7L232 460.7L239.4 458.2L246.7 449.3L254.1 439.2L261.4 433.9L268.8 434.8L276.1 341.4L283.5 231L290.9 210.5L298.2 195.1L305.6 189.9L312.9 192.5L320.3 192.5L327.7 195.1L335 197.6L342.4 227.2L349.7 281.1L357.1 424.3L364.4 412.3L371.8 392.8L379.2 396.9L386.5 394.6L393.9 385.3L401.2 394.8L408.6 413.1L415.9 464.5L423.3 443.3L430.7 406.4L438 417.4L445.4 417.5L452.7 360.1L460.1 341.4L467.4 335L482.2 291.3L489.5 278.5L496.9 263.1L511.6 259.2L518.9 255.4L526.3 227.2L533.7 231L541 231L548.4 265.7L555.7 290L563.1 288.8L570.4 290L577.8 291.3L585.2 313.1L592.5 306.7L599.9 311.9L607.2 305.4L614.6 309.3L621.9 315.7L629.3 324.7L636.7 319.6L644 328.5L651.4 315.7L658.7 324.7L666.1 333.7L673.5 320.8L680.8 345.2L688.2 338.8L695.5 288.6L702.9 304.6L710.2 302.3L717.6 297.7" fill="none" stroke-width="1"></path></g><g id="line__South-Africa"><path id="outline" fill="none" stroke-linecap="butt" stroke-linejoin="round" stroke="#fff" stroke-width="2.5" d="M702.9 476.4L710.2 476.4L717.6 477.6"></path><g id="polyline"><polyline id="polyline" points="702.90,476.40 710.20,476.40 717.60,477.60" stroke-linejoin="round" stroke-width="1.5" stroke="#00847E" fill="none" stroke-linecap="butt"></polyline></g><g id="markers"><circle cx="702.9" cy="476.4" r="1.8" fill="#00847E"></circle><circle cx="710.2" cy="476.4" r="1.8" fill="#00847E"></circle><circle cx="717.6" cy="477.6" r="1.8" fill="#00847E"></circle></g></g><g id="line__China"><path id="outline" fill="none" stroke-linecap="butt" stroke-linejoin="round" stroke="#fff" stroke-width="2.5" d="M695.5 476.4L702.9 476.4L710.2 476.4"></path><g id="polyline"><polyline id="polyline" points="695.50,476.40 702.90,476.40 710.20,476.40" stroke-linejoin="round" stroke-width="1.5" stroke="#CF0A66" fill="none" stroke-linecap="butt"></polyline></g><g id="markers"><circle cx="695.5" cy="476.4" r="1.8" fill="#CF0A66"></circle><circle cx="702.9" cy="476.4" r="1.8" fill="#CF0A66"></circle><circle cx="710.2" cy="476.4" r="1.8" fill="#CF0A66"></circle></g></g><g id="line__Canada"><path id="outline" fill="none" stroke-linecap="butt" stroke-linejoin="round" stroke="#fff" stroke-width="2.5" d="M695.5 476.4L702.9 476.4L710.2 471.8L717.6 469.5"></path><g id="polyline"><polyline id="polyline" points="695.50,476.40 702.90,476.40 710.20,471.80 717.60,469.50" stroke-linejoin="round" stroke-width="1.5" stroke="#18470F" fill="none" stroke-linecap="butt"></polyline></g><g id="markers"><circle cx="695.5" cy="476.4" r="1.8" fill="#18470F"></circle><circle cx="702.9" cy="476.4" r="1.8" fill="#18470F"></circle><circle cx="710.2" cy="471.8" r="1.8" fill="#18470F"></circle><circle cx="717.6" cy="469.5" r="1.8" fill="#18470F"></circle></g></g><g id="line__Qatar"><path id="outline" fill="none" stroke-linecap="butt" stroke-linejoin="round" stroke="#fff" stroke-width="2.5" d="M644 421.4L651.4 398.5L658.7 366.4L666.1 364.2L673.5 375.6L680.8 375.6L688.2 375.6L695.5 361.9L702.9 339L710.2 343.5L717.6 327.5"></path><g id="polyline"><polyline id="polyline" points="644.00,421.40 651.40,398.50 658.70,366.40 666.10,364.20 673.50,375.60 680.80,375.60 688.20,375.60 695.50,361.90 702.90,339.00 710.20,343.50 717.60,327.50" stroke-linejoin="round" stroke-width="1.5" stroke="#2C8465" fill="none" stroke-linecap="butt"></polyline></g><g id="markers"><circle cx="644" cy="421.4" r="1.8" fill="#2C8465"></circle><circle cx="651.4" cy="398.5" r="1.8" fill="#2C8465"></circle><circle cx="658.7" cy="366.4" r="1.8" fill="#2C8465"></circle><circle cx="666.1" cy="364.2" r="1.8" fill="#2C8465"></circle><circle cx="673.5" cy="375.6" r="1.8" fill="#2C8465"></circle><circle cx="680.8" cy="375.6" r="1.8" fill="#2C8465"></circle><circle cx="688.2" cy="375.6" r="1.8" fill="#2C8465"></circle><circle cx="695.5" cy="361.9" r="1.8" fill="#2C8465"></circle><circle cx="702.9" cy="339" r="1.8" fill="#2C8465"></circle><circle cx="710.2" cy="343.5" r="1.8" fill="#2C8465"></circle><circle cx="717.6" cy="327.5" r="1.8" fill="#2C8465"></circle></g></g><g id="line__Poland"><path id="outline" fill="none" stroke-linecap="butt" stroke-linejoin="round" stroke="#fff" stroke-width="2.5" d="M644 476.4L651.4 469.5L658.7 469.5L666.1 469.5L673.5 469.5L680.8 469.5L688.2 469.5L695.5 476.4L702.9 476.4L710.2 471.8L717.6 471.8"></path><g id="polyline"><polyline id="polyline" points="644.00,476.40 651.40,469.50 658.70,469.50 666.10,469.50 673.50,469.50 680.80,469.50 688.20,469.50 695.50,476.40 702.90,476.40 710.20,471.80 717.60,471.80" stroke-linejoin="round" stroke-width="1.5" stroke="#C15065" fill="none" stroke-linecap="butt"></polyline></g><g id="markers"><circle cx="644" cy="476.4" r="1.8" fill="#C15065"></circle><circle cx="651.4" cy="469.5" r="1.8" fill="#C15065"></circle><circle cx="658.7" cy="469.5" r="1.8" fill="#C15065"></circle><circle cx="666.1" cy="469.5" r="1.8" fill="#C15065"></circle><circle cx="673.5" cy="469.5" r="1.8" fill="#C15065"></circle><circle cx="680.8" cy="469.5" r="1.8" fill="#C15065"></circle><circle cx="688.2" cy="469.5" r="1.8" fill="#C15065"></circle><circle cx="695.5" cy="476.4" r="1.8" fill="#C15065"></circle><circle cx="702.9" cy="476.4" r="1.8" fill="#C15065"></circle><circle cx="710.2" cy="471.8" r="1.8" fill="#C15065"></circle><circle cx="717.6" cy="471.8" r="1.8" fill="#C15065"></circle></g></g><g id="line__Australia"><path id="outline" fill="none" stroke-linecap="butt" stroke-linejoin="round" stroke="#fff" stroke-width="2.5" d="M644 465L651.4 467.2L658.7 469.5L666.1 469.5L673.5 469.5L680.8 469.5L688.2 469.5L695.5 469.5L702.9 469.5L710.2 471.8L717.6 476.4"></path><g id="polyline"><polyline id="polyline" points="644.00,465.00 651.40,467.20 658.70,469.50 666.10,469.50 673.50,469.50 680.80,469.50 688.20,469.50 695.50,469.50 702.90,469.50 710.20,471.80 717.60,476.40" stroke-linejoin="round" stroke-width="1.5" stroke="#2C8465" fill="none" stroke-linecap="butt"></polyline></g><g id="markers"><circle cx="644" cy="465" r="1.8" fill="#2C8465"></circle><circle cx="651.4" cy="467.2" r="1.8" fill="#2C8465"></circle><circle cx="658.7" cy="469.5" r="1.8" fill="#2C8465"></circle><circle cx="666.1" cy="469.5" r="1.8" fill="#2C8465"></circle><circle cx="673.5" cy="469.5" r="1.8" fill="#2C8465"></circle><circle cx="680.8" cy="469.5" r="1.8" fill="#2C8465"></circle><circle cx="688.2" cy="469.5" r="1.8" fill="#2C8465"></circle><circle cx="695.5" cy="469.5" r="1.8" fill="#2C8465"></circle><circle cx="702.9" cy="469.5" r="1.8" fill="#2C8465"></circle><circle cx="710.2" cy="471.8" r="1.8" fill="#2C8465"></circle><circle cx="717.6" cy="476.4" r="1.8" fill="#2C8465"></circle></g></g><g id="line__Algeria"><path id="outline" fill="none" stroke-linecap="butt" stroke-linejoin="round" stroke="#fff" stroke-width="2.5" d="M644 439.8L651.4 442L658.7 455.8L666.1 455.8L673.5 446.6L680.8 446.6L688.2 446.6L695.5 446.6L702.9 446.6L710.2 460.4L717.6 455.8"></path><g id="polyline"><polyline id="polyline" points="644.00,439.80 651.40,442.00 658.70,455.80 666.10,455.80 673.50,446.60 680.80,446.60 688.20,446.60 695.50,446.60 702.90,446.60 710.20,460.40 717.60,455.80" stroke-linejoin="round" stroke-width="1.5" stroke="#883039" fill="none" stroke-linecap="butt"></polyline></g><g id="markers"><circle cx="644" cy="439.8" r="1.8" fill="#883039"></circle><circle cx="651.4" cy="442" r="1.8" fill="#883039"></circle><circle cx="658.7" cy="455.8" r="1.8" fill="#883039"></circle><circle cx="666.1" cy="455.8" r="1.8" fill="#883039"></circle><circle cx="673.5" cy="446.6" r="1.8" fill="#883039"></circle><circle cx="680.8" cy="446.6" r="1.8" fill="#883039"></circle><circle cx="688.2" cy="446.6" r="1.8" fill="#883039"></circle><circle cx="695.5" cy="446.6" r="1.8" fill="#883039"></circle><circle cx="702.9" cy="446.6" r="1.8" fill="#883039"></circle><circle cx="710.2" cy="460.4" r="1.8" fill="#883039"></circle><circle cx="717.6" cy="455.8" r="1.8" fill="#883039"></circle></g></g><g id="line__Russia"><path id="outline" fill="none" stroke-linecap="butt" stroke-linejoin="round" stroke="#fff" stroke-width="2.5" d="M636.7 467.2L644 469.5L651.4 469.5L658.7 467.2L666.1 467.2L673.5 467.2L680.8 467.2L688.2 467.2L695.5 467.2L702.9 467.2L710.2 467.2L717.6 460.4"></path><g id="polyline"><polyline id="polyline" points="636.70,467.20 644.00,469.50 651.40,469.50 658.70,467.20 666.10,467.20 673.50,467.20 680.80,467.20 688.20,467.20 695.50,467.20 702.90,467.20 710.20,467.20 717.60,460.40" stroke-linejoin="round" stroke-width="1.5" stroke="#8C4569" fill="none" stroke-linecap="butt"></polyline></g><g id="markers"><circle cx="636.7" cy="467.2" r="1.8" fill="#8C4569"></circle><circle cx="644" cy="469.5" r="1.8" fill="#8C4569"></circle><circle cx="651.4" cy="469.5" r="1.8" fill="#8C4569"></circle><circle cx="658.7" cy="467.2" r="1.8" fill="#8C4569"></circle><circle cx="666.1" cy="467.2" r="1.8" fill="#8C4569"></circle><circle cx="673.5" cy="467.2" r="1.8" fill="#8C4569"></circle><circle cx="680.8" cy="467.2" r="1.8" fill="#8C4569"></circle><circle cx="688.2" cy="467.2" r="1.8" fill="#8C4569"></circle><circle cx="695.5" cy="467.2" r="1.8" fill="#8C4569"></circle><circle cx="702.9" cy="467.2" r="1.8" fill="#8C4569"></circle><circle cx="710.2" cy="467.2" r="1.8" fill="#8C4569"></circle><circle cx="717.6" cy="460.4" r="1.8" fill="#8C4569"></circle></g></g><g id="line__World"><path id="outline" fill="none" stroke-linecap="butt" stroke-linejoin="round" stroke="#fff" stroke-width="2.5" d="M70.1 478.1L77.5 478.4L84.9 478.4L92.2 478.3L99.6 478.3L106.9 478.1L114.3 477.7L121.6 476.7L129 471.5L136.4 470.9L143.7 472.9L151.1 475.1L158.4 474.4L165.8 474.8L173.1 475.3L180.5 473.7L187.9 471.8L195.2 469.8L202.6 468.8L209.9 467L217.3 465.1L224.6 463.7L232 460.7L239.4 458.2L246.7 449.3L254.1 439.2L261.4 433.9L268.8 434.8L276.1 340.1L283.5 229.7L290.9 209.2L298.2 195.1L305.6 187.4L312.9 189.9L320.3 189.9L327.7 193.8L335 191.2L342.4 219.5L349.7 273.4L357.1 415.8L364.4 403.4L371.8 387.3L379.2 378.2L386.5 370.9L393.9 364.6L401.2 381.7L408.6 407.1L415.9 455.2L423.3 434L430.7 368.7L438 353.6L445.4 350.4L452.7 329.8L460.1 308L467.4 288.8L482.2 274.6L489.5 261.8L496.9 261.8L511.6 237.4L518.9 237.4L526.3 178.4L533.7 187.4L541 184.8L548.4 224.6L555.7 249L563.1 241.3L570.4 165.5L577.8 143.7L585.2 130.9L592.5 118.1L599.9 107.8L607.2 98.8L614.6 159.1L621.9 114.2L629.3 105.2L636.7 100.1L644 107.8L651.4 121.9L658.7 139.9L666.1 130.9L673.5 107.8L680.8 130.9L688.2 136L695.5 112.2L702.9 103L710.2 116.7L717.6 89.3"></path><g id="polyline"><polyline id="polyline" points="70.10,478.10 77.50,478.40 84.90,478.40 92.20,478.30 99.60,478.30 106.90,478.10 114.30,477.70 121.60,476.70 129.00,471.50 136.40,470.90 143.70,472.90 151.10,475.10 158.40,474.40 165.80,474.80 173.10,475.30 180.50,473.70 187.90,471.80 195.20,469.80 202.60,468.80 209.90,467.00 217.30,465.10 224.60,463.70 232.00,460.70 239.40,458.20 246.70,449.30 254.10,439.20 261.40,433.90 268.80,434.80 276.10,340.10 283.50,229.70 290.90,209.20 298.20,195.10 305.60,187.40 312.90,189.90 320.30,189.90 327.70,193.80 335.00,191.20 342.40,219.50 349.70,273.40 357.10,415.80 364.40,403.40 371.80,387.30 379.20,378.20 386.50,370.90 393.90,364.60 401.20,381.70 408.60,407.10 415.90,455.20 423.30,434.00 430.70,368.70 438.00,353.60 445.40,350.40 452.70,329.80 460.10,308.00 467.40,288.80 482.20,274.60 489.50,261.80 496.90,261.80 511.60,237.40 518.90,237.40 526.30,178.40 533.70,187.40 541.00,184.80 548.40,224.60 555.70,249.00 563.10,241.30 570.40,165.50 577.80,143.70 585.20,130.90 592.50,118.10 599.90,107.80 607.20,98.80 614.60,159.10 621.90,114.20 629.30,105.20 636.70,100.10 644.00,107.80 651.40,121.90 658.70,139.90 666.10,130.90 673.50,107.80 680.80,130.90 688.20,136.00 695.50,112.20 702.90,103.00 710.20,116.70 717.60,89.30" stroke-linejoin="round" stroke-width="1.5" stroke="#C15065" fill="none" stroke-linecap="butt"></polyline></g><g id="markers"><circle cx="70.1" cy="478.1" r="1.8" fill="#C15065"></circle><circle cx="77.5" cy="478.4" r="1.8" fill="#C15065"></circle><circle cx="84.9" cy="478.4" r="1.8" fill="#C15065"></circle><circle cx="92.2" cy="478.3" r="1.8" fill="#C15065"></circle><circle cx="99.6" cy="478.3" r="1.8" fill="#C15065"></circle><circle cx="106.9" cy="478.1" r="1.8" fill="#C15065"></circle><circle cx="114.3" cy="477.7" r="1.8" fill="#C15065"></circle><circle cx="121.6" cy="476.7" r="1.8" fill="#C15065"></circle><circle cx="129" cy="471.5" r="1.8" fill="#C15065"></circle><circle cx="136.4" cy="470.9" r="1.8" fill="#C15065"></circle><circle cx="143.7" cy="472.9" r="1.8" fill="#C15065"></circle><circle cx="151.1" cy="475.1" r="1.8" fill="#C15065"></circle><circle cx="158.4" cy="474.4" r="1.8" fill="#C15065"></circle><circle cx="165.8" cy="474.8" r="1.8" fill="#C15065"></circle><circle cx="173.1" cy="475.3" r="1.8" fill="#C15065"></circle><circle cx="180.5" cy="473.7" r="1.8" fill="#C15065"></circle><circle cx="187.9" cy="471.8" r="1.8" fill="#C15065"></circle><circle cx="195.2" cy="469.8" r="1.8" fill="#C15065"></circle><circle cx="202.6" cy="468.8" r="1.8" fill="#C15065"></circle><circle cx="209.9" cy="467" r="1.8" fill="#C15065"></circle><circle cx="217.3" cy="465.1" r="1.8" fill="#C15065"></circle><circle cx="224.6" cy="463.7" r="1.8" fill="#C15065"></circle><circle cx="232" cy="460.7" r="1.8" fill="#C15065"></circle><circle cx="239.4" cy="458.2" r="1.8" fill="#C15065"></circle><circle cx="246.7" cy="449.3" r="1.8" fill="#C15065"></circle><circle cx="254.1" cy="439.2" r="1.8" fill="#C15065"></circle><circle cx="261.4" cy="433.9" r="1.8" fill="#C15065"></circle><circle cx="268.8" cy="434.8" r="1.8" fill="#C15065"></circle><circle cx="276.1" cy="340.1" r="1.8" fill="#C15065"></circle><circle cx="283.5" cy="229.7" r="1.8" fill="#C15065"></circle><circle cx="290.9" cy="209.2" r="1.8" fill="#C15065"></circle><circle cx="298.2" cy="195.1" r="1.8" fill="#C15065"></circle><circle cx="305.6" cy="187.4" r="1.8" fill="#C15065"></circle><circle cx="312.9" cy="189.9" r="1.8" fill="#C15065"></circle><circle cx="320.3" cy="189.9" r="1.8" fill="#C15065"></circle><circle cx="327.7" cy="193.8" r="1.8" fill="#C15065"></circle><circle cx="335" cy="191.2" r="1.8" fill="#C15065"></circle><circle cx="342.4" cy="219.5" r="1.8" fill="#C15065"></circle><circle cx="349.7" cy="273.4" r="1.8" fill="#C15065"></circle><circle cx="357.1" cy="415.8" r="1.8" fill="#C15065"></circle><circle cx="364.4" cy="403.4" r="1.8" fill="#C15065"></circle><circle cx="371.8" cy="387.3" r="1.8" fill="#C15065"></circle><circle cx="379.2" cy="378.2" r="1.8" fill="#C15065"></circle><circle cx="386.5" cy="370.9" r="1.8" fill="#C15065"></circle><circle cx="393.9" cy="364.6" r="1.8" fill="#C15065"></circle><circle cx="401.2" cy="381.7" r="1.8" fill="#C15065"></circle><circle cx="408.6" cy="407.1" r="1.8" fill="#C15065"></circle><circle cx="415.9" cy="455.2" r="1.8" fill="#C15065"></circle><circle cx="423.3" cy="434" r="1.8" fill="#C15065"></circle><circle cx="430.7" cy="368.7" r="1.8" fill="#C15065"></circle><circle cx="438" cy="353.6" r="1.8" fill="#C15065"></circle><circle cx="445.4" cy="350.4" r="1.8" fill="#C15065"></circle><circle cx="452.7" cy="329.8" r="1.8" fill="#C15065"></circle><circle cx="460.1" cy="308" r="1.8" fill="#C15065"></circle><circle cx="467.4" cy="288.8" r="1.8" fill="#C15065"></circle><circle cx="482.2" cy="274.6" r="1.8" fill="#C15065"></circle><circle cx="489.5" cy="261.8" r="1.8" fill="#C15065"></circle><circle cx="496.9" cy="261.8" r="1.8" fill="#C15065"></circle><circle cx="511.6" cy="237.4" r="1.8" fill="#C15065"></circle><circle cx="518.9" cy="237.4" r="1.8" fill="#C15065"></circle><circle cx="526.3" cy="178.4" r="1.8" fill="#C15065"></circle><circle cx="533.7" cy="187.4" r="1.8" fill="#C15065"></circle><circle cx="541" cy="184.8" r="1.8" fill="#C15065"></circle><circle cx="548.4" cy="224.6" r="1.8" fill="#C15065"></circle><circle cx="555.7" cy="249" r="1.8" fill="#C15065"></circle><circle cx="563.1" cy="241.3" r="1.8" fill="#C15065"></circle><circle cx="570.4" cy="165.5" r="1.8" fill="#C15065"></circle><circle cx="577.8" cy="143.7" r="1.8" fill="#C15065"></circle><circle cx="585.2" cy="130.9" r="1.8" fill="#C15065"></circle><circle cx="592.5" cy="118.1" r="1.8" fill="#C15065"></circle><circle cx="599.9" cy="107.8" r="1.8" fill="#C15065"></circle><circle cx="607.2" cy="98.8" r="1.8" fill="#C15065"></circle><circle cx="614.6" cy="159.1" r="1.8" fill="#C15065"></circle><circle cx="621.9" cy="114.2" r="1.8" fill="#C15065"></circle><circle cx="629.3" cy="105.2" r="1.8" fill="#C15065"></circle><circle cx="636.7" cy="100.1" r="1.8" fill="#C15065"></circle><circle cx="644" cy="107.8" r="1.8" fill="#C15065"></circle><circle cx="651.4" cy="121.9" r="1.8" fill="#C15065"></circle><circle cx="658.7" cy="139.9" r="1.8" fill="#C15065"></circle><circle cx="666.1" cy="130.9" r="1.8" fill="#C15065"></circle><circle cx="673.5" cy="107.8" r="1.8" fill="#C15065"></circle><circle cx="680.8" cy="130.9" r="1.8" fill="#C15065"></circle><circle cx="688.2" cy="136" r="1.8" fill="#C15065"></circle><circle cx="695.5" cy="112.2" r="1.8" fill="#C15065"></circle><circle cx="702.9" cy="103" r="1.8" fill="#C15065"></circle><circle cx="710.2" cy="116.7" r="1.8" fill="#C15065"></circle><circle cx="717.6" cy="89.3" r="1.8" fill="#C15065"></circle></g></g><g id="line__United-States"><path id="outline" fill="none" stroke-linecap="butt" stroke-linejoin="round" stroke="#fff" stroke-width="2.5" d="M70.1 478.1L77.5 478.4L84.9 478.4L92.2 478.3L99.6 478.3L106.9 478.1L114.3 477.7L121.6 476.7L129 471.5L136.4 470.9L143.7 472.9L151.1 475.1L158.4 474.4L165.8 474.8L173.1 475.3L180.5 473.7L187.9 471.8L195.2 469.8L202.6 468.8L209.9 467L217.3 465.1L224.6 463.7L232 460.7L239.4 458.2L246.7 449.3L254.1 439.2L261.4 433.9L268.8 434.8L276.1 341.4L283.5 231L290.9 210.5L298.2 195.1L305.6 189.9L312.9 192.5L320.3 192.5L327.7 195.1L335 197.6L342.4 227.2L349.7 281.1L357.1 424.3L364.4 412.3L371.8 392.8L379.2 396.9L386.5 394.6L393.9 385.3L401.2 394.8L408.6 413.1L415.9 464.5L423.3 443.3L430.7 406.4L438 417.4L445.4 417.5L452.7 360.1L460.1 341.4L467.4 335L482.2 291.3L489.5 278.5L496.9 263.1L511.6 259.2L518.9 255.4L526.3 227.2L533.7 231L541 231L548.4 265.7L555.7 290L563.1 288.8L570.4 290L577.8 291.3L585.2 313.1L592.5 306.7L599.9 311.9L607.2 305.4L614.6 309.3L621.9 315.7L629.3 324.7L636.7 319.6L644 328.5L651.4 315.7L658.7 324.7L666.1 333.7L673.5 320.8L680.8 345.2L688.2 338.8L695.5 288.6L702.9 304.6L710.2 302.3L717.6 297.7"></path><g id="polyline"><polyline id="polyline" points="70.10,478.10 77.50,478.40 84.90,478.40 92.20,478.30 99.60,478.30 106.90,478.10 114.30,477.70 121.60,476.70 129.00,471.50 136.40,470.90 143.70,472.90 151.10,475.10 158.40,474.40 165.80,474.80 173.10,475.30 180.50,473.70 187.90,471.80 195.20,469.80 202.60,468.80 209.90,467.00 217.30,465.10 224.60,463.70 232.00,460.70 239.40,458.20 246.70,449.30 254.10,439.20 261.40,433.90 268.80,434.80 276.10,341.40 283.50,231.00 290.90,210.50 298.20,195.10 305.60,189.90 312.90,192.50 320.30,192.50 327.70,195.10 335.00,197.60 342.40,227.20 349.70,281.10 357.10,424.30 364.40,412.30 371.80,392.80 379.20,396.90 386.50,394.60 393.90,385.30 401.20,394.80 408.60,413.10 415.90,464.50 423.30,443.30 430.70,406.40 438.00,417.40 445.40,417.50 452.70,360.10 460.10,341.40 467.40,335.00 482.20,291.30 489.50,278.50 496.90,263.10 511.60,259.20 518.90,255.40 526.30,227.20 533.70,231.00 541.00,231.00 548.40,265.70 555.70,290.00 563.10,288.80 570.40,290.00 577.80,291.30 585.20,313.10 592.50,306.70 599.90,311.90 607.20,305.40 614.60,309.30 621.90,315.70 629.30,324.70 636.70,319.60 644.00,328.50 651.40,315.70 658.70,324.70 666.10,333.70 673.50,320.80 680.80,345.20 688.20,338.80 695.50,288.60 702.90,304.60 710.20,302.30 717.60,297.70" stroke-linejoin="round" stroke-width="1.5" stroke="#6D3E91" fill="none" stroke-linecap="butt"></polyline></g><g id="markers"><circle cx="70.1" cy="478.1" r="1.8" fill="#6D3E91"></circle><circle cx="77.5" cy="478.4" r="1.8" fill="#6D3E91"></circle><circle cx="84.9" cy="478.4" r="1.8" fill="#6D3E91"></circle><circle cx="92.2" cy="478.3" r="1.8" fill="#6D3E91"></circle><circle cx="99.6" cy="478.3" r="1.8" fill="#6D3E91"></circle><circle cx="106.9" cy="478.1" r="1.8" fill="#6D3E91"></circle><circle cx="114.3" cy="477.7" r="1.8" fill="#6D3E91"></circle><circle cx="121.6" cy="476.7" r="1.8" fill="#6D3E91"></circle><circle cx="129" cy="471.5" r="1.8" fill="#6D3E91"></circle><circle cx="136.4" cy="470.9" r="1.8" fill="#6D3E91"></circle><circle cx="143.7" cy="472.9" r="1.8" fill="#6D3E91"></circle><circle cx="151.1" cy="475.1" r="1.8" fill="#6D3E91"></circle><circle cx="158.4" cy="474.4" r="1.8" fill="#6D3E91"></circle><circle cx="165.8" cy="474.8" r="1.8" fill="#6D3E91"></circle><circle cx="173.1" cy="475.3" r="1.8" fill="#6D3E91"></circle><circle cx="180.5" cy="473.7" r="1.8" fill="#6D3E91"></circle><circle cx="187.9" cy="471.8" r="1.8" fill="#6D3E91"></circle><circle cx="195.2" cy="469.8" r="1.8" fill="#6D3E91"></circle><circle cx="202.6" cy="468.8" r="1.8" fill="#6D3E91"></circle><circle cx="209.9" cy="467" r="1.8" fill="#6D3E91"></circle><circle cx="217.3" cy="465.1" r="1.8" fill="#6D3E91"></circle><circle cx="224.6" cy="463.7" r="1.8" fill="#6D3E91"></circle><circle cx="232" cy="460.7" r="1.8" fill="#6D3E91"></circle><circle cx="239.4" cy="458.2" r="1.8" fill="#6D3E91"></circle><circle cx="246.7" cy="449.3" r="1.8" fill="#6D3E91"></circle><circle cx="254.1" cy="439.2" r="1.8" fill="#6D3E91"></circle><circle cx="261.4" cy="433.9" r="1.8" fill="#6D3E91"></circle><circle cx="268.8" cy="434.8" r="1.8" fill="#6D3E91"></circle><circle cx="276.1" cy="341.4" r="1.8" fill="#6D3E91"></circle><circle cx="283.5" cy="231" r="1.8" fill="#6D3E91"></circle><circle cx="290.9" cy="210.5" r="1.8" fill="#6D3E91"></circle><circle cx="298.2" cy="195.1" r="1.8" fill="#6D3E91"></circle><circle cx="305.6" cy="189.9" r="1.8" fill="#6D3E91"></circle><circle cx="312.9" cy="192.5" r="1.8" fill="#6D3E91"></circle><circle cx="320.3" cy="192.5" r="1.8" fill="#6D3E91"></circle><circle cx="327.7" cy="195.1" r="1.8" fill="#6D3E91"></circle><circle cx="335" cy="197.6" r="1.8" fill="#6D3E91"></circle><circle cx="342.4" cy="227.2" r="1.8" fill="#6D3E91"></circle><circle cx="349.7" cy="281.1" r="1.8" fill="#6D3E91"></circle><circle cx="357.1" cy="424.3" r="1.8" fill="#6D3E91"></circle><circle cx="364.4" cy="412.3" r="1.8" fill="#6D3E91"></circle><circle cx="371.8" cy="392.8" r="1.8" fill="#6D3E91"></circle><circle cx="379.2" cy="396.9" r="1.8" fill="#6D3E91"></circle><circle cx="386.5" cy="394.6" r="1.8" fill="#6D3E91"></circle><circle cx="393.9" cy="385.3" r="1.8" fill="#6D3E91"></circle><circle cx="401.2" cy="394.8" r="1.8" fill="#6D3E91"></circle><circle cx="408.6" cy="413.1" r="1.8" fill="#6D3E91"></circle><circle cx="415.9" cy="464.5" r="1.8" fill="#6D3E91"></circle><circle cx="423.3" cy="443.3" r="1.8" fill="#6D3E91"></circle><circle cx="430.7" cy="406.4" r="1.8" fill="#6D3E91"></circle><circle cx="438" cy="417.4" r="1.8" fill="#6D3E91"></circle><circle cx="445.4" cy="417.5" r="1.8" fill="#6D3E91"></circle><circle cx="452.7" cy="360.1" r="1.8" fill="#6D3E91"></circle><circle cx="460.1" cy="341.4" r="1.8" fill="#6D3E91"></circle><circle cx="467.4" cy="335" r="1.8" fill="#6D3E91"></circle><circle cx="482.2" cy="291.3" r="1.8" fill="#6D3E91"></circle><circle cx="489.5" cy="278.5" r="1.8" fill="#6D3E91"></circle><circle cx="496.9" cy="263.1" r="1.8" fill="#6D3E91"></circle><circle cx="511.6" cy="259.2" r="1.8" fill="#6D3E91"></circle><circle cx="518.9" cy="255.4" r="1.8" fill="#6D3E91"></circle><circle cx="526.3" cy="227.2" r="1.8" fill="#6D3E91"></circle><circle cx="533.7" cy="231" r="1.8" fill="#6D3E91"></circle><circle cx="541" cy="231" r="1.8" fill="#6D3E91"></circle><circle cx="548.4" cy="265.7" r="1.8" fill="#6D3E91"></circle><circle cx="555.7" cy="290" r="1.8" fill="#6D3E91"></circle><circle cx="563.1" cy="288.8" r="1.8" fill="#6D3E91"></circle><circle cx="570.4" cy="290" r="1.8" fill="#6D3E91"></circle><circle cx="577.8" cy="291.3" r="1.8" fill="#6D3E91"></circle><circle cx="585.2" cy="313.1" r="1.8" fill="#6D3E91"></circle><circle cx="592.5" cy="306.7" r="1.8" fill="#6D3E91"></circle><circle cx="599.9" cy="311.9" r="1.8" fill="#6D3E91"></circle><circle cx="607.2" cy="305.4" r="1.8" fill="#6D3E91"></circle><circle cx="614.6" cy="309.3" r="1.8" fill="#6D3E91"></circle><circle cx="621.9" cy="315.7" r="1.8" fill="#6D3E91"></circle><circle cx="629.3" cy="324.7" r="1.8" fill="#6D3E91"></circle><circle cx="636.7" cy="319.6" r="1.8" fill="#6D3E91"></circle><circle cx="644" cy="328.5" r="1.8" fill="#6D3E91"></circle><circle cx="651.4" cy="315.7" r="1.8" fill="#6D3E91"></circle><circle cx="658.7" cy="324.7" r="1.8" fill="#6D3E91"></circle><circle cx="666.1" cy="333.7" r="1.8" fill="#6D3E91"></circle><circle cx="673.5" cy="320.8" r="1.8" fill="#6D3E91"></circle><circle cx="680.8" cy="345.2" r="1.8" fill="#6D3E91"></circle><circle cx="688.2" cy="338.8" r="1.8" fill="#6D3E91"></circle><circle cx="695.5" cy="288.6" r="1.8" fill="#6D3E91"></circle><circle cx="702.9" cy="304.6" r="1.8" fill="#6D3E91"></circle><circle cx="710.2" cy="302.3" r="1.8" fill="#6D3E91"></circle><circle cx="717.6" cy="297.7" r="1.8" fill="#6D3E91"></circle></g></g></g></g></g></g><g id="footer" class="SourcesFooter" style="fill:#5b5b5b"><g id="sources" class="markdown-text-wrap"><text x="16.0" y="528.3" style="font-size:13.5px;line-height:1.2"><tspan x="16" y="528.3"><tspan style="font-weight:700">Data source:</tspan> USGS - Mineral Commodity Summaries (2024); USGS - Historical Statistics for Mineral and Material Commodities (2023);</tspan><tspan x="16" y="544.5">BGS - World Mineral Statistics (2023)</tspan></text></g><g id="note" class="markdown-text-wrap"><text x="16.0" y="562.7" style="font-size:13.5px;line-height:1.2"><tspan x="16" y="562.7"><tspan style="font-weight:700">Note:</tspan> The sum of all countries may exceed World data on certain years (by up to 10%), due to discrepancies between data sources.</tspan></text></g><text id="origin-url" font-size="13.50" x="16.0" y="580.9"><tspan x="16" y="580.8950000000001"><a target="_blank" style="fill: #5b5b5b;" href="https://creativecommons.org/licenses/by/4.0/">CC BY</a></tspan></text></g><line id="separator-line" x1="16" y1="600" x2="834" y2="600" stroke="#e7e7e7"></line><g id="details" transform="translate(15, 616)"><g class="markdown-text-wrap"><text x="0.0" y="12.0" style="font-size:12.375px;fill:#5b5b5b;line-height:1.2"><tspan x="0" y="12.0"><tspan style="font-weight:700">1.</tspan> <tspan style="font-weight:700">Refined production</tspan>: Refined production is the process of taking raw materials, such as metals extracted from ores, and purifying them to achieve</tspan><tspan x="0" y="26.9">a higher quality or more usable form. After metals are initially extracted from ore through processes like smelting, they often contain impurities or are</tspan><tspan x="0" y="41.7">not in the ideal form for manufacturing. Refining involves further processing these metals to remove impurities and adjust their composition to meet</tspan><tspan x="0" y="56.6">specific standards. Refined production is essential for transforming raw materials into high-quality metals that are crucial for industries and</tspan><tspan x="0" y="71.4">consumers, from manufacturing electronics to constructing buildings.</tspan></text></g></g></svg>