<svg xmlns="http://www.w3.org/2000/svg" version="1.1" style="font-family:Lato, &#x27;Helvetica Neue&#x27;, Helvetica, Arial, &#x27;Liberation Sans&#x27;, sans-serif;font-size:18px;background-color:white;text-rendering:geometricPrecision;-webkit-font-smoothing:antialiased" width="850" height="600" viewBox="0 0 850 600"><defs><style>@import url(https://ourworldindata.org/fonts.css)</style></defs><defs><pattern id="noDataPattern" patternUnits="userSpaceOnUse" width="4" height="4" patternTransform="rotate(-45 2 2)"><path d="M -1,2 l 6,0" stroke="#ccc" stroke-width="0.7"></path></pattern></defs><rect class="background-fill" fill="white" width="850" height="600"></rect><g id="header" class="HeaderView"><g id="logo" transform="translate(769, 16) scale(1)"><svg className="owidLogo" xmlns="http://www.w3.org/2000/svg" width="65" height="36" viewBox="0 0 65 36"  fill="none"><path fill="#002147" d="M0 0h64.8v36H0z"/><path fill="#CE261E" d="M0 33.3h64.8V36H0z"/><path fill="#fff" d="M13.796 10.575c0 .636-.106 1.226-.318 1.77a4.193 4.193 0 0 1-.894 1.404 4.084 4.084 0 0 1-1.386.93c-.54.22-1.138.33-1.794.33-.656 0-1.256-.11-1.8-.33a4.149 4.149 0 0 1-1.392-.93 4.193 4.193 0 0 1-.894-1.404A4.833 4.833 0 0 1 5 10.575c0-.636.106-1.224.318-1.764a4.18 4.18 0 0 1 .894-1.41 4.076 4.076 0 0 1 1.392-.924 4.684 4.684 0 0 1 1.8-.336c.656 0 1.254.112 1.794.336.54.224 1.002.534 1.386.93.384.392.682.86.894 1.404.212.54.318 1.128.318 1.764Zm-1.656 0c0-.476-.064-.902-.192-1.278a2.671 2.671 0 0 0-.54-.966 2.332 2.332 0 0 0-.864-.606 2.94 2.94 0 0 0-1.14-.21c-.424 0-.806.07-1.146.21-.34.14-.63.342-.87.606a2.742 2.742 0 0 0-.546.966 3.955 3.955 0 0 0-.192 1.278c0 .476.064.904.192 1.284.128.376.31.696.546.96.24.26.53.46.87.6.34.14.722.21 1.146.21.424 0 .804-.07 1.14-.21.34-.14.628-.34.864-.6.236-.264.416-.584.54-.96a4.01 4.01 0 0 0 .192-1.284ZM16.104 8.757v3.912c0 .376.086.668.258.876.176.204.438.306.786.306.256 0 .496-.056.72-.168a2.58 2.58 0 0 0 .636-.474V8.757h1.482v6.156h-.906c-.192 0-.318-.09-.378-.27l-.102-.492a4.65 4.65 0 0 1-.396.354 2.577 2.577 0 0 1-.438.27 2.35 2.35 0 0 1-.498.168 2.345 2.345 0 0 1-.57.066c-.336 0-.634-.056-.894-.168a1.821 1.821 0 0 1-.648-.486 2.157 2.157 0 0 1-.402-.738 3.233 3.233 0 0 1-.132-.948V8.757h1.482ZM21.328 14.913V8.757h.87c.152 0 .258.028.318.084.06.056.1.152.12.288l.09.744c.22-.38.478-.68.774-.9.296-.22.628-.33.996-.33.304 0 .556.07.756.21l-.192 1.11c-.012.072-.038.124-.078.156a.278.278 0 0 1-.162.042 1.01 1.01 0 0 1-.246-.042 1.646 1.646 0 0 0-.414-.042c-.308 0-.572.086-.792.258-.22.168-.406.416-.558.744v3.834h-1.482ZM27.347 6.237h1.356a.57.57 0 0 1 .348.102c.096.064.16.152.192.264l1.476 5.19c.036.128.068.268.096.42.032.148.062.306.09.474a5.968 5.968 0 0 1 .228-.894l1.704-5.19a.575.575 0 0 1 .186-.252.543.543 0 0 1 .348-.114h.474a.57.57 0 0 1 .348.102.497.497 0 0 1 .192.264l1.692 5.19c.088.256.164.54.228.852.028-.156.056-.306.084-.45.032-.144.064-.278.096-.402l1.476-5.19c.028-.1.09-.186.186-.258a.563.563 0 0 1 .348-.108h1.266l-2.694 8.676h-1.458l-1.896-5.928-.078-.246a9.504 9.504 0 0 1-.072-.282c-.024.1-.05.194-.078.282-.024.088-.048.17-.072.246l-1.914 5.928H30.04l-2.694-8.676ZM42.771 8.661c.46 0 .876.074 1.248.222.376.148.696.358.96.63s.468.604.612.996c.144.392.216.83.216 1.314 0 .488-.072.928-.216 1.32a2.85 2.85 0 0 1-.612 1.002 2.653 2.653 0 0 1-.96.636 3.35 3.35 0 0 1-1.248.222c-.46 0-.878-.074-1.254-.222a2.712 2.712 0 0 1-.966-.636 2.922 2.922 0 0 1-.618-1.002 3.807 3.807 0 0 1-.216-1.32c0-.484.072-.922.216-1.314.148-.392.354-.724.618-.996.268-.272.59-.482.966-.63a3.397 3.397 0 0 1 1.254-.222Zm0 5.202c.512 0 .89-.172 1.134-.516.248-.344.372-.848.372-1.512s-.124-1.17-.372-1.518c-.244-.348-.622-.522-1.134-.522-.52 0-.904.176-1.152.528-.248.348-.372.852-.372 1.512s.124 1.164.372 1.512c.248.344.632.516 1.152.516ZM46.723 14.913V8.757h.87c.152 0 .258.028.318.084.06.056.1.152.12.288l.09.744c.22-.38.478-.68.774-.9.296-.22.628-.33.996-.33.304 0 .556.07.756.21l-.192 1.11c-.012.072-.038.124-.078.156a.278.278 0 0 1-.162.042 1.01 1.01 0 0 1-.246-.042 1.646 1.646 0 0 0-.414-.042c-.308 0-.572.086-.792.258-.22.168-.406.416-.558.744v3.834h-1.482ZM52.96 5.997v8.916h-1.482V5.997h1.482ZM58.732 14.913c-.192 0-.318-.09-.378-.27l-.12-.594a3.68 3.68 0 0 1-.402.39c-.14.116-.292.216-.456.3-.16.084-.334.148-.522.192a2.372 2.372 0 0 1-.6.072c-.336 0-.644-.07-.924-.21a2.098 2.098 0 0 1-.726-.606 3.033 3.033 0 0 1-.468-.99 5.072 5.072 0 0 1-.162-1.344c0-.456.062-.88.186-1.272s.302-.732.534-1.02c.232-.288.51-.512.834-.672a2.384 2.384 0 0 1 1.092-.246 2.103 2.103 0 0 1 1.536.606V5.997h1.482v8.916h-.906Zm-1.974-1.086c.308 0 .57-.064.786-.192.216-.128.42-.31.612-.546v-2.76a1.452 1.452 0 0 0-.552-.432 1.597 1.597 0 0 0-.636-.126c-.224 0-.428.042-.612.126a1.21 1.21 0 0 0-.462.384c-.124.168-.22.384-.288.648-.068.26-.102.568-.102.924 0 .36.028.666.084.918.06.248.144.452.252.612.108.156.24.27.396.342.156.068.33.102.522.102ZM16.331 20.757v6.156H14.85v-6.156h1.481Zm.223-1.794a.844.844 0 0 1-.078.36.963.963 0 0 1-.21.294.995.995 0 0 1-.3.204.963.963 0 0 1-.372.072.948.948 0 0 1-.367-.072 1.018 1.018 0 0 1-.498-.498.963.963 0 0 1 0-.732.995.995 0 0 1 .205-.3.929.929 0 0 1 .293-.198.899.899 0 0 1 .738 0 .912.912 0 0 1 .3.198.943.943 0 0 1 .288.672ZM17.771 26.913v-6.156h.906c.192 0 .318.09.378.27l.102.486a2.934 2.934 0 0 1 .828-.618c.156-.076.322-.134.498-.174.176-.04.368-.06.576-.06.336 0 .634.058.894.174.26.112.476.272.648.48.176.204.308.45.396.738.092.284.138.598.138.942v3.918h-1.482v-3.918c0-.376-.088-.666-.264-.87-.172-.208-.432-.312-.78-.312-.256 0-.496.058-.72.174a2.58 2.58 0 0 0-.636.474v4.452h-1.482ZM34.22 22.575c0 .636-.106 1.22-.318 1.752-.212.532-.51.99-.894 1.374a4 4 0 0 1-1.386.894 4.87 4.87 0 0 1-1.794.318h-3.312v-8.676h3.312a4.79 4.79 0 0 1 1.794.324 4 4 0 0 1 1.386.894c.384.38.682.836.894 1.368.212.532.318 1.116.318 1.752Zm-1.65 0c0-.476-.064-.902-.192-1.278a2.68 2.68 0 0 0-.546-.96 2.332 2.332 0 0 0-.864-.606 2.94 2.94 0 0 0-1.14-.21h-1.686v6.108h1.686c.424 0 .804-.07 1.14-.21.34-.14.628-.34.864-.6a2.75 2.75 0 0 0 .546-.96 4.01 4.01 0 0 0 .192-1.284ZM39.98 26.913h-.665c-.14 0-.25-.02-.33-.06-.08-.044-.14-.13-.18-.258l-.132-.438c-.156.14-.31.264-.462.372a2.804 2.804 0 0 1-.462.264c-.16.072-.33.126-.51.162-.18.036-.38.054-.6.054-.26 0-.5-.034-.72-.102a1.618 1.618 0 0 1-.57-.318 1.448 1.448 0 0 1-.366-.522 1.852 1.852 0 0 1-.132-.726c0-.232.06-.46.18-.684.124-.228.328-.432.612-.612.284-.184.662-.336 1.134-.456.472-.12 1.058-.188 1.758-.204v-.36c0-.412-.088-.716-.264-.912-.172-.2-.424-.3-.756-.3a1.837 1.837 0 0 0-1.02.276c-.116.068-.224.13-.324.186a.664.664 0 0 1-.33.084.429.429 0 0 1-.258-.078.614.614 0 0 1-.174-.192l-.27-.474c.708-.648 1.562-.972 2.562-.972.36 0 .68.06.96.18.284.116.524.28.72.492.196.208.344.458.444.75.104.292.156.612.156.96v3.888Zm-2.88-.924c.153 0 .293-.014.42-.042.129-.028.249-.07.36-.126.117-.056.227-.124.33-.204.109-.084.217-.182.325-.294v-1.038c-.432.02-.794.058-1.086.114-.288.052-.52.12-.696.204a.923.923 0 0 0-.378.294.664.664 0 0 0-.108.366c0 .26.076.446.228.558.156.112.358.168.606.168ZM43.22 27.01c-.532 0-.942-.15-1.23-.45-.288-.305-.432-.723-.432-1.255v-3.438h-.624a.31.31 0 0 1-.21-.078c-.056-.052-.084-.13-.084-.234v-.588l.99-.162.312-1.68a.302.302 0 0 1 .108-.186.365.365 0 0 1 .222-.066h.768v1.938h1.62v1.056h-1.62v3.336c0 .192.048.342.144.45a.488.488 0 0 0 .384.162c.092 0 .168-.01.228-.03.064-.024.118-.048.162-.072.048-.024.09-.046.126-.066a.194.194 0 0 1 .108-.036.16.16 0 0 1 .108.036c.028.02.058.052.09.096l.444.72c-.216.18-.464.316-.744.408a2.77 2.77 0 0 1-.87.138ZM50.423 26.913h-.666c-.14 0-.25-.02-.33-.06-.08-.044-.14-.13-.18-.258l-.132-.438c-.156.14-.31.264-.462.372a2.804 2.804 0 0 1-.462.264c-.16.072-.33.126-.51.162-.18.036-.38.054-.6.054-.26 0-.5-.034-.72-.102a1.618 1.618 0 0 1-.57-.318 1.448 1.448 0 0 1-.366-.522 1.852 1.852 0 0 1-.132-.726c0-.232.06-.46.18-.684.124-.228.328-.432.612-.612.284-.184.662-.336 1.134-.456.472-.12 1.058-.188 1.758-.204v-.36c0-.412-.088-.716-.264-.912-.172-.2-.424-.3-.756-.3a1.837 1.837 0 0 0-1.02.276c-.116.068-.224.13-.324.186a.664.664 0 0 1-.33.084.429.429 0 0 1-.258-.078.614.614 0 0 1-.174-.192l-.27-.474c.708-.648 1.562-.972 2.562-.972.36 0 .68.06.96.18.284.116.524.28.72.492.196.208.344.458.444.75.104.292.156.612.156.96v3.888Zm-2.88-.924c.152 0 .292-.014.42-.042.128-.028.248-.07.36-.126.116-.056.226-.124.33-.204.108-.084.216-.182.324-.294v-1.038c-.432.02-.794.058-1.086.114-.288.052-.52.12-.696.204a.923.923 0 0 0-.378.294.664.664 0 0 0-.108.366c0 .26.076.446.228.558.156.112.358.168.606.168Z"/></svg></g><a id="title" href="https://ourworldindata.org/explorers/minerals?Mineral=Manganese&amp;Metric=Unit+value&amp;Type=Mine%2C+iron+content&amp;Share+of+global=false&amp;country=AUS~CHL~CHN~USA~CAN~ALB~DZA~ARG~ARM~AUT~AZE~BOL~OWID_WRL~BWA~BRA~BGR~COL~COG~CUB~CYP~OWID_CZS~COD~DOM~OWID_GDR~ZWE~ZMB~OWID_YGS~OWID_GFR~VNM~UZB~GBR~UGA~OWID_USS~TUR~TZA~TJK~TWN~SWE~ESP~KOR~ZAF~SVK~OWID_SRM~SRB~SAU~RUS~ROU~PRT~POL~PHL~PER~PNG~PAN~PAK~OMN~NOR~MKD~PRK~NIC~NZL~NAM~MMR~MOZ~MAR~MNG~MEX~MRT~MYS~LAO~KGZ~KEN~KAZ~JPN~ITA~ISR~IRL~IRN~IDN~IND~HUN~HND~HTI~GTM~GRC~DEU~GEO~FRA~FIN~ERI~ECU~VEN~ARE~UKR~CHE~SUR~LKA~SVN~QAT~NGA~NLD~MNE~ISL~GHA~EGY~HRV~CMR~BIH~BHR~AFG~OWID_KOS~MDG~NCL~SDN~Other~CZE~THA~TUN" style="font-family:&#x27;Playfair Display&#x27;, Georgia, &#x27;Times New Roman&#x27;, &#x27;Liberation Serif&#x27;, serif" target="_blank" rel="noopener"><text font-size="24.75" font-weight="600" x="16.0" y="40.0" fill="#5b5b5b"><tspan x="16" y="40.0075">Manganese unit value, 1900 to 2022</tspan></text></a><g id="subtitle" class="markdown-text-wrap"><text x="16.0" y="63.9" style="font-size:14.625px;line-height:1.2" fill="#5b5b5b"><tspan x="16" y="63.9">Value of 1 tonne of manganese, in constant 1998 US$ per tonne.</tspan></text></g></g><g id="chart-area" style="pointer-events:none"><g id="line-chart" class="LineChart"><defs><clipPath id="boundsClip-66"><rect x="63.92" y="73.25" width="838" height="470.35"></rect></clipPath></defs><rect x="16" y="83.25" width="818" height="450.35" fill="none"></rect><g id="dual-axis" class="DualAxisView"><g id="horizontal-axis" class="HorizontalAxis"><g id="tick__1900"><line x1="73.9" y1="512.6" x2="73.9" y2="518.1" stroke="#999" stroke-width="1"></line><text x="73.92" y="531.6" fill="#5b5b5b" text-anchor="start" font-size="13.5">1900</text></g><g id="tick__2022"><line x1="763.8" y1="512.6" x2="763.8" y2="518.1" stroke="#999" stroke-width="1"></line><text x="763.765" y="531.6" fill="#5b5b5b" text-anchor="end" font-size="13.5">2022</text></g><g id="tick__1920"><line x1="187" y1="512.6" x2="187" y2="518.1" stroke="#999" stroke-width="1"></line><text x="187" y="531.6" fill="#5b5b5b" text-anchor="middle" font-size="13.5">1920</text></g><g id="tick__1940"><line x1="300.1" y1="512.6" x2="300.1" y2="518.1" stroke="#999" stroke-width="1"></line><text x="300.1" y="531.6" fill="#5b5b5b" text-anchor="middle" font-size="13.5">1940</text></g><g id="tick__1960"><line x1="413.2" y1="512.6" x2="413.2" y2="518.1" stroke="#999" stroke-width="1"></line><text x="413.2" y="531.6" fill="#5b5b5b" text-anchor="middle" font-size="13.5">1960</text></g><g id="tick__1980"><line x1="526.3" y1="512.6" x2="526.3" y2="518.1" stroke="#999" stroke-width="1"></line><text x="526.3" y="531.6" fill="#5b5b5b" text-anchor="middle" font-size="13.5">1980</text></g><g id="tick__2000"><line x1="639.4" y1="512.6" x2="639.4" y2="518.1" stroke="#999" stroke-width="1"></line><text x="639.4" y="531.6" fill="#5b5b5b" text-anchor="middle" font-size="13.5">2000</text></g></g><g id="vertical-axis" class="VerticalAxis"><g id="tick-labels"><text id="tick-label__0-__0024__002ft" x="68.92" y="513.1" dy=".32em" text-anchor="end" fill="#5b5b5b" font-size="13.5">0 $/t</text><text id="tick-label__200-__0024__002ft" x="68.92" y="466.1" dy=".32em" text-anchor="end" fill="#5b5b5b" font-size="13.5">200 $/t</text><text id="tick-label__400-__0024__002ft" x="68.92" y="419" dy=".32em" text-anchor="end" fill="#5b5b5b" font-size="13.5">400 $/t</text><text id="tick-label__600-__0024__002ft" x="68.92" y="372" dy=".32em" text-anchor="end" fill="#5b5b5b" font-size="13.5">600 $/t</text><text id="tick-label__800-__0024__002ft" x="68.92" y="324.9" dy=".32em" text-anchor="end" fill="#5b5b5b" font-size="13.5">800 $/t</text><text id="tick-label__1__002c000-__0024__002ft" x="68.92" y="277.9" dy=".32em" text-anchor="end" fill="#5b5b5b" font-size="13.5">1,000 $/t</text><text id="tick-label__1__002c200-__0024__002ft" x="68.92" y="230.8" dy=".32em" text-anchor="end" fill="#5b5b5b" font-size="13.5">1,200 $/t</text><text id="tick-label__1__002c400-__0024__002ft" x="68.92" y="183.8" dy=".32em" text-anchor="end" fill="#5b5b5b" font-size="13.5">1,400 $/t</text><text id="tick-label__1__002c600-__0024__002ft" x="68.92" y="136.7" dy=".32em" text-anchor="end" fill="#5b5b5b" font-size="13.5">1,600 $/t</text><text id="tick-label__1__002c800-__0024__002ft" x="68.92" y="89.7" dy=".32em" text-anchor="end" fill="#5b5b5b" font-size="13.5">1,800 $/t</text></g></g><g id="horizontal-grid-lines" class="AxisGridLines horizontalLines"><line id="grid-line__0" x1="73.92" y1="513.1" x2="763.76" y2="513.1" stroke="#999" stroke-width="1"></line><line id="grid-line__200" x1="73.92" y1="466.1" x2="763.76" y2="466.1" stroke="#ddd" stroke-width="1" stroke-dasharray="3,2"></line><line id="grid-line__400" x1="73.92" y1="419" x2="763.76" y2="419" stroke="#ddd" stroke-width="1" stroke-dasharray="3,2"></line><line id="grid-line__600" x1="73.92" y1="372" x2="763.76" y2="372" stroke="#ddd" stroke-width="1" stroke-dasharray="3,2"></line><line id="grid-line__800" x1="73.92" y1="324.9" x2="763.76" y2="324.9" stroke="#ddd" stroke-width="1" stroke-dasharray="3,2"></line><line id="grid-line__1000" x1="73.92" y1="277.9" x2="763.76" y2="277.9" stroke="#ddd" stroke-width="1" stroke-dasharray="3,2"></line><line id="grid-line__1200" x1="73.92" y1="230.8" x2="763.76" y2="230.8" stroke="#ddd" stroke-width="1" stroke-dasharray="3,2"></line><line id="grid-line__1400" x1="73.92" y1="183.8" x2="763.76" y2="183.8" stroke="#ddd" stroke-width="1" stroke-dasharray="3,2"></line><line id="grid-line__1600" x1="73.92" y1="136.7" x2="763.76" y2="136.7" stroke="#ddd" stroke-width="1" stroke-dasharray="3,2"></line><line id="grid-line__1800" x1="73.92" y1="89.7" x2="763.76" y2="89.7" stroke="#ddd" stroke-width="1" stroke-dasharray="3,2"></line></g></g><g clip-path="url(#boundsClip-66)"><g id="line-labels" class="LineLabels"><g id="mark__World" class="legendMark" style="cursor:default"><rect id="background" x="763.765" y="245.25" width="70.235" height="13.5" fill="#fff" opacity="0"></rect><text id="label" font-size="13.50" font-weight="400" x="767.8" y="257.0" fill="#c15065"><tspan x="767.765" y="256.995">World</tspan></text></g></g><g id="lines" class="Lines"><rect x="74" y="89" width="690" height="424" fill="rgba(255,255,255,0)" opacity="0"></rect><g id="line__World"><path stroke-linecap="round" stroke-linejoin="round" stroke="#ddd" d="M73.9 407.2L79.6 393.1L85.2 395.5L90.9 327.3L96.5 412L102.2 390.8L107.8 308.5L113.5 322.6L119.2 400.2L124.8 390.8L130.5 388.4L136.1 393.1L141.8 414.3L147.4 404.4L153.1 407.9L158.7 401.7L164.4 338.2L170 373.2L175.7 325.6L181.4 334.6L187 403.5L192.7 473.4L198.3 438.5L204 418.5L209.6 432.9L215.3 424.8L220.9 428.6L226.6 436.4L232.2 430.3L237.9 427.4L243.6 437.5L249.2 447.2L254.9 414L260.5 398.4L266.2 430.1L271.8 426.4L277.5 438L283.1 440.1L288.8 416.8L294.4 415.5L300.1 426.6L305.8 423.7L311.4 431.8L317.1 434L322.7 417.9L328.4 408.1L334 416.5L339.7 424.8L345.3 427.7L351 419.5L356.6 400.8L362.3 404.9L368 391.4L373.6 374.9L379.3 386.3L384.9 395.9L390.6 378.2L396.2 347.5L401.9 369.1L407.5 379L413.2 390L418.8 380.7L424.5 401.8L430.2 419.1L435.8 415.5L441.5 419.5L447.1 418L452.8 422.2L458.4 434.7L464.1 445.6L469.7 446.3L475.4 444.1L481 433.4L486.7 429L492.4 388.8L498 362.5L503.7 347.1L509.3 343.2L515 343.8L520.6 344.9L526.3 348.5L531.9 360.9L537.6 336.6L543.2 373.3L548.9 364.2L554.5 372.8L560.2 382.1L565.9 380.2L571.5 355.4L577.2 325.4L582.8 311.3L588.5 285.9L594.1 334.3L599.8 352.6L605.4 357.4L611.1 362.4L616.7 354.3L622.4 361.4L628.1 374.1L633.7 390L639.4 383.5L645 398.6L650.7 412.7L656.3 388.3L662 291.9L667.6 373.3L673.3 360.9L678.9 293L684.6 89.3L690.3 268.2L695.9 249.4L701.6 264.2L707.2 279.3L712.9 317.3L718.5 297.7L724.2 328.7L729.8 366.1L735.5 291L741.1 284.1L746.8 318.2L752.5 348.6L758.1 311.5L763.8 252" fill="none" stroke-width="1"></path></g><g id="line__World"><path id="outline" fill="none" stroke-linecap="butt" stroke-linejoin="round" stroke="#fff" stroke-width="2.5" d="M73.9 407.2L79.6 393.1L85.2 395.5L90.9 327.3L96.5 412L102.2 390.8L107.8 308.5L113.5 322.6L119.2 400.2L124.8 390.8L130.5 388.4L136.1 393.1L141.8 414.3L147.4 404.4L153.1 407.9L158.7 401.7L164.4 338.2L170 373.2L175.7 325.6L181.4 334.6L187 403.5L192.7 473.4L198.3 438.5L204 418.5L209.6 432.9L215.3 424.8L220.9 428.6L226.6 436.4L232.2 430.3L237.9 427.4L243.6 437.5L249.2 447.2L254.9 414L260.5 398.4L266.2 430.1L271.8 426.4L277.5 438L283.1 440.1L288.8 416.8L294.4 415.5L300.1 426.6L305.8 423.7L311.4 431.8L317.1 434L322.7 417.9L328.4 408.1L334 416.5L339.7 424.8L345.3 427.7L351 419.5L356.6 400.8L362.3 404.9L368 391.4L373.6 374.9L379.3 386.3L384.9 395.9L390.6 378.2L396.2 347.5L401.9 369.1L407.5 379L413.2 390L418.8 380.7L424.5 401.8L430.2 419.1L435.8 415.5L441.5 419.5L447.1 418L452.8 422.2L458.4 434.7L464.1 445.6L469.7 446.3L475.4 444.1L481 433.4L486.7 429L492.4 388.8L498 362.5L503.7 347.1L509.3 343.2L515 343.8L520.6 344.9L526.3 348.5L531.9 360.9L537.6 336.6L543.2 373.3L548.9 364.2L554.5 372.8L560.2 382.1L565.9 380.2L571.5 355.4L577.2 325.4L582.8 311.3L588.5 285.9L594.1 334.3L599.8 352.6L605.4 357.4L611.1 362.4L616.7 354.3L622.4 361.4L628.1 374.1L633.7 390L639.4 383.5L645 398.6L650.7 412.7L656.3 388.3L662 291.9L667.6 373.3L673.3 360.9L678.9 293L684.6 89.3L690.3 268.2L695.9 249.4L701.6 264.2L707.2 279.3L712.9 317.3L718.5 297.7L724.2 328.7L729.8 366.1L735.5 291L741.1 284.1L746.8 318.2L752.5 348.6L758.1 311.5L763.8 252"></path><g id="polyline"><polyline id="polyline" points="73.90,407.20 79.60,393.10 85.20,395.50 90.90,327.30 96.50,412.00 102.20,390.80 107.80,308.50 113.50,322.60 119.20,400.20 124.80,390.80 130.50,388.40 136.10,393.10 141.80,414.30 147.40,404.40 153.10,407.90 158.70,401.70 164.40,338.20 170.00,373.20 175.70,325.60 181.40,334.60 187.00,403.50 192.70,473.40 198.30,438.50 204.00,418.50 209.60,432.90 215.30,424.80 220.90,428.60 226.60,436.40 232.20,430.30 237.90,427.40 243.60,437.50 249.20,447.20 254.90,414.00 260.50,398.40 266.20,430.10 271.80,426.40 277.50,438.00 283.10,440.10 288.80,416.80 294.40,415.50 300.10,426.60 305.80,423.70 311.40,431.80 317.10,434.00 322.70,417.90 328.40,408.10 334.00,416.50 339.70,424.80 345.30,427.70 351.00,419.50 356.60,400.80 362.30,404.90 368.00,391.40 373.60,374.90 379.30,386.30 384.90,395.90 390.60,378.20 396.20,347.50 401.90,369.10 407.50,379.00 413.20,390.00 418.80,380.70 424.50,401.80 430.20,419.10 435.80,415.50 441.50,419.50 447.10,418.00 452.80,422.20 458.40,434.70 464.10,445.60 469.70,446.30 475.40,444.10 481.00,433.40 486.70,429.00 492.40,388.80 498.00,362.50 503.70,347.10 509.30,343.20 515.00,343.80 520.60,344.90 526.30,348.50 531.90,360.90 537.60,336.60 543.20,373.30 548.90,364.20 554.50,372.80 560.20,382.10 565.90,380.20 571.50,355.40 577.20,325.40 582.80,311.30 588.50,285.90 594.10,334.30 599.80,352.60 605.40,357.40 611.10,362.40 616.70,354.30 622.40,361.40 628.10,374.10 633.70,390.00 639.40,383.50 645.00,398.60 650.70,412.70 656.30,388.30 662.00,291.90 667.60,373.30 673.30,360.90 678.90,293.00 684.60,89.30 690.30,268.20 695.90,249.40 701.60,264.20 707.20,279.30 712.90,317.30 718.50,297.70 724.20,328.70 729.80,366.10 735.50,291.00 741.10,284.10 746.80,318.20 752.50,348.60 758.10,311.50 763.80,252.00" stroke-linejoin="round" stroke-width="1.5" stroke="#C15065" fill="none" stroke-linecap="butt"></polyline></g><g id="markers"><circle cx="73.9" cy="407.2" r="1.8" fill="#C15065"></circle><circle cx="79.6" cy="393.1" r="1.8" fill="#C15065"></circle><circle cx="85.2" cy="395.5" r="1.8" fill="#C15065"></circle><circle cx="90.9" cy="327.3" r="1.8" fill="#C15065"></circle><circle cx="96.5" cy="412" r="1.8" fill="#C15065"></circle><circle cx="102.2" cy="390.8" r="1.8" fill="#C15065"></circle><circle cx="107.8" cy="308.5" r="1.8" fill="#C15065"></circle><circle cx="113.5" cy="322.6" r="1.8" fill="#C15065"></circle><circle cx="119.2" cy="400.2" r="1.8" fill="#C15065"></circle><circle cx="124.8" cy="390.8" r="1.8" fill="#C15065"></circle><circle cx="130.5" cy="388.4" r="1.8" fill="#C15065"></circle><circle cx="136.1" cy="393.1" r="1.8" fill="#C15065"></circle><circle cx="141.8" cy="414.3" r="1.8" fill="#C15065"></circle><circle cx="147.4" cy="404.4" r="1.8" fill="#C15065"></circle><circle cx="153.1" cy="407.9" r="1.8" fill="#C15065"></circle><circle cx="158.7" cy="401.7" r="1.8" fill="#C15065"></circle><circle cx="164.4" cy="338.2" r="1.8" fill="#C15065"></circle><circle cx="170" cy="373.2" r="1.8" fill="#C15065"></circle><circle cx="175.7" cy="325.6" r="1.8" fill="#C15065"></circle><circle cx="181.4" cy="334.6" r="1.8" fill="#C15065"></circle><circle cx="187" cy="403.5" r="1.8" fill="#C15065"></circle><circle cx="192.7" cy="473.4" r="1.8" fill="#C15065"></circle><circle cx="198.3" cy="438.5" r="1.8" fill="#C15065"></circle><circle cx="204" cy="418.5" r="1.8" fill="#C15065"></circle><circle cx="209.6" cy="432.9" r="1.8" fill="#C15065"></circle><circle cx="215.3" cy="424.8" r="1.8" fill="#C15065"></circle><circle cx="220.9" cy="428.6" r="1.8" fill="#C15065"></circle><circle cx="226.6" cy="436.4" r="1.8" fill="#C15065"></circle><circle cx="232.2" cy="430.3" r="1.8" fill="#C15065"></circle><circle cx="237.9" cy="427.4" r="1.8" fill="#C15065"></circle><circle cx="243.6" cy="437.5" r="1.8" fill="#C15065"></circle><circle cx="249.2" cy="447.2" r="1.8" fill="#C15065"></circle><circle cx="254.9" cy="414" r="1.8" fill="#C15065"></circle><circle cx="260.5" cy="398.4" r="1.8" fill="#C15065"></circle><circle cx="266.2" cy="430.1" r="1.8" fill="#C15065"></circle><circle cx="271.8" cy="426.4" r="1.8" fill="#C15065"></circle><circle cx="277.5" cy="438" r="1.8" fill="#C15065"></circle><circle cx="283.1" cy="440.1" r="1.8" fill="#C15065"></circle><circle cx="288.8" cy="416.8" r="1.8" fill="#C15065"></circle><circle cx="294.4" cy="415.5" r="1.8" fill="#C15065"></circle><circle cx="300.1" cy="426.6" r="1.8" fill="#C15065"></circle><circle cx="305.8" cy="423.7" r="1.8" fill="#C15065"></circle><circle cx="311.4" cy="431.8" r="1.8" fill="#C15065"></circle><circle cx="317.1" cy="434" r="1.8" fill="#C15065"></circle><circle cx="322.7" cy="417.9" r="1.8" fill="#C15065"></circle><circle cx="328.4" cy="408.1" r="1.8" fill="#C15065"></circle><circle cx="334" cy="416.5" r="1.8" fill="#C15065"></circle><circle cx="339.7" cy="424.8" r="1.8" fill="#C15065"></circle><circle cx="345.3" cy="427.7" r="1.8" fill="#C15065"></circle><circle cx="351" cy="419.5" r="1.8" fill="#C15065"></circle><circle cx="356.6" cy="400.8" r="1.8" fill="#C15065"></circle><circle cx="362.3" cy="404.9" r="1.8" fill="#C15065"></circle><circle cx="368" cy="391.4" r="1.8" fill="#C15065"></circle><circle cx="373.6" cy="374.9" r="1.8" fill="#C15065"></circle><circle cx="379.3" cy="386.3" r="1.8" fill="#C15065"></circle><circle cx="384.9" cy="395.9" r="1.8" fill="#C15065"></circle><circle cx="390.6" cy="378.2" r="1.8" fill="#C15065"></circle><circle cx="396.2" cy="347.5" r="1.8" fill="#C15065"></circle><circle cx="401.9" cy="369.1" r="1.8" fill="#C15065"></circle><circle cx="407.5" cy="379" r="1.8" fill="#C15065"></circle><circle cx="413.2" cy="390" r="1.8" fill="#C15065"></circle><circle cx="418.8" cy="380.7" r="1.8" fill="#C15065"></circle><circle cx="424.5" cy="401.8" r="1.8" fill="#C15065"></circle><circle cx="430.2" cy="419.1" r="1.8" fill="#C15065"></circle><circle cx="435.8" cy="415.5" r="1.8" fill="#C15065"></circle><circle cx="441.5" cy="419.5" r="1.8" fill="#C15065"></circle><circle cx="447.1" cy="418" r="1.8" fill="#C15065"></circle><circle cx="452.8" cy="422.2" r="1.8" fill="#C15065"></circle><circle cx="458.4" cy="434.7" r="1.8" fill="#C15065"></circle><circle cx="464.1" cy="445.6" r="1.8" fill="#C15065"></circle><circle cx="469.7" cy="446.3" r="1.8" fill="#C15065"></circle><circle cx="475.4" cy="444.1" r="1.8" fill="#C15065"></circle><circle cx="481" cy="433.4" r="1.8" fill="#C15065"></circle><circle cx="486.7" cy="429" r="1.8" fill="#C15065"></circle><circle cx="492.4" cy="388.8" r="1.8" fill="#C15065"></circle><circle cx="498" cy="362.5" r="1.8" fill="#C15065"></circle><circle cx="503.7" cy="347.1" r="1.8" fill="#C15065"></circle><circle cx="509.3" cy="343.2" r="1.8" fill="#C15065"></circle><circle cx="515" cy="343.8" r="1.8" fill="#C15065"></circle><circle cx="520.6" cy="344.9" r="1.8" fill="#C15065"></circle><circle cx="526.3" cy="348.5" r="1.8" fill="#C15065"></circle><circle cx="531.9" cy="360.9" r="1.8" fill="#C15065"></circle><circle cx="537.6" cy="336.6" r="1.8" fill="#C15065"></circle><circle cx="543.2" cy="373.3" r="1.8" fill="#C15065"></circle><circle cx="548.9" cy="364.2" r="1.8" fill="#C15065"></circle><circle cx="554.5" cy="372.8" r="1.8" fill="#C15065"></circle><circle cx="560.2" cy="382.1" r="1.8" fill="#C15065"></circle><circle cx="565.9" cy="380.2" r="1.8" fill="#C15065"></circle><circle cx="571.5" cy="355.4" r="1.8" fill="#C15065"></circle><circle cx="577.2" cy="325.4" r="1.8" fill="#C15065"></circle><circle cx="582.8" cy="311.3" r="1.8" fill="#C15065"></circle><circle cx="588.5" cy="285.9" r="1.8" fill="#C15065"></circle><circle cx="594.1" cy="334.3" r="1.8" fill="#C15065"></circle><circle cx="599.8" cy="352.6" r="1.8" fill="#C15065"></circle><circle cx="605.4" cy="357.4" r="1.8" fill="#C15065"></circle><circle cx="611.1" cy="362.4" r="1.8" fill="#C15065"></circle><circle cx="616.7" cy="354.3" r="1.8" fill="#C15065"></circle><circle cx="622.4" cy="361.4" r="1.8" fill="#C15065"></circle><circle cx="628.1" cy="374.1" r="1.8" fill="#C15065"></circle><circle cx="633.7" cy="390" r="1.8" fill="#C15065"></circle><circle cx="639.4" cy="383.5" r="1.8" fill="#C15065"></circle><circle cx="645" cy="398.6" r="1.8" fill="#C15065"></circle><circle cx="650.7" cy="412.7" r="1.8" fill="#C15065"></circle><circle cx="656.3" cy="388.3" r="1.8" fill="#C15065"></circle><circle cx="662" cy="291.9" r="1.8" fill="#C15065"></circle><circle cx="667.6" cy="373.3" r="1.8" fill="#C15065"></circle><circle cx="673.3" cy="360.9" r="1.8" fill="#C15065"></circle><circle cx="678.9" cy="293" r="1.8" fill="#C15065"></circle><circle cx="684.6" cy="89.3" r="1.8" fill="#C15065"></circle><circle cx="690.3" cy="268.2" r="1.8" fill="#C15065"></circle><circle cx="695.9" cy="249.4" r="1.8" fill="#C15065"></circle><circle cx="701.6" cy="264.2" r="1.8" fill="#C15065"></circle><circle cx="707.2" cy="279.3" r="1.8" fill="#C15065"></circle><circle cx="712.9" cy="317.3" r="1.8" fill="#C15065"></circle><circle cx="718.5" cy="297.7" r="1.8" fill="#C15065"></circle><circle cx="724.2" cy="328.7" r="1.8" fill="#C15065"></circle><circle cx="729.8" cy="366.1" r="1.8" fill="#C15065"></circle><circle cx="735.5" cy="291" r="1.8" fill="#C15065"></circle><circle cx="741.1" cy="284.1" r="1.8" fill="#C15065"></circle><circle cx="746.8" cy="318.2" r="1.8" fill="#C15065"></circle><circle cx="752.5" cy="348.6" r="1.8" fill="#C15065"></circle><circle cx="758.1" cy="311.5" r="1.8" fill="#C15065"></circle><circle cx="763.8" cy="252" r="1.8" fill="#C15065"></circle></g></g></g></g></g></g><g id="footer" class="SourcesFooter" style="fill:#5b5b5b"><g id="sources" class="markdown-text-wrap"><text x="16.0" y="562.7" style="font-size:13.5px;line-height:1.2"><tspan x="16" y="562.7"><tspan style="font-weight:700">Data source:</tspan> USGS - Historical Statistics for Mineral and Material Commodities (2023)</tspan></text></g><g id="note" class="markdown-text-wrap"><text x="16.0" y="580.9" style="font-size:13.5px;line-height:1.2"><tspan x="16" y="580.9"><tspan style="font-weight:700">Note:</tspan> This data is adjusted for inflation.</tspan></text></g><text id="origin-url" font-size="13.50" x="792.7" y="562.7"><tspan x="792.69" y="562.695"><a target="_blank" style="fill: #5b5b5b;" href="https://creativecommons.org/licenses/by/4.0/">CC BY</a></tspan></text></g></svg>