<svg xmlns="http://www.w3.org/2000/svg" version="1.1" style="font-family:Lato, &#x27;Helvetica Neue&#x27;, Helvetica, Arial, &#x27;Liberation Sans&#x27;, sans-serif;font-size:18px;background-color:white;text-rendering:geometricPrecision;-webkit-font-smoothing:antialiased" width="850" height="706.25" viewBox="0 0 850 706.25"><defs><style>@import url(https://ourworldindata.org/fonts.css)</style></defs><defs><pattern id="noDataPattern" patternUnits="userSpaceOnUse" width="4" height="4" patternTransform="rotate(-45 2 2)"><path d="M -1,2 l 6,0" stroke="#ccc" stroke-width="0.7"></path></pattern></defs><rect class="background-fill" fill="white" width="850" height="706.25"></rect><g id="header" class="HeaderView"><g id="logo" transform="translate(769, 16) scale(1)"><svg className="owidLogo" xmlns="http://www.w3.org/2000/svg" width="65" height="36" viewBox="0 0 65 36"  fill="none"><path fill="#002147" d="M0 0h64.8v36H0z"/><path fill="#CE261E" d="M0 33.3h64.8V36H0z"/><path fill="#fff" d="M13.796 10.575c0 .636-.106 1.226-.318 1.77a4.193 4.193 0 0 1-.894 1.404 4.084 4.084 0 0 1-1.386.93c-.54.22-1.138.33-1.794.33-.656 0-1.256-.11-1.8-.33a4.149 4.149 0 0 1-1.392-.93 4.193 4.193 0 0 1-.894-1.404A4.833 4.833 0 0 1 5 10.575c0-.636.106-1.224.318-1.764a4.18 4.18 0 0 1 .894-1.41 4.076 4.076 0 0 1 1.392-.924 4.684 4.684 0 0 1 1.8-.336c.656 0 1.254.112 1.794.336.54.224 1.002.534 1.386.93.384.392.682.86.894 1.404.212.54.318 1.128.318 1.764Zm-1.656 0c0-.476-.064-.902-.192-1.278a2.671 2.671 0 0 0-.54-.966 2.332 2.332 0 0 0-.864-.606 2.94 2.94 0 0 0-1.14-.21c-.424 0-.806.07-1.146.21-.34.14-.63.342-.87.606a2.742 2.742 0 0 0-.546.966 3.955 3.955 0 0 0-.192 1.278c0 .476.064.904.192 1.284.128.376.31.696.546.96.24.26.53.46.87.6.34.14.722.21 1.146.21.424 0 .804-.07 1.14-.21.34-.14.628-.34.864-.6.236-.264.416-.584.54-.96a4.01 4.01 0 0 0 .192-1.284ZM16.104 8.757v3.912c0 .376.086.668.258.876.176.204.438.306.786.306.256 0 .496-.056.72-.168a2.58 2.58 0 0 0 .636-.474V8.757h1.482v6.156h-.906c-.192 0-.318-.09-.378-.27l-.102-.492a4.65 4.65 0 0 1-.396.354 2.577 2.577 0 0 1-.438.27 2.35 2.35 0 0 1-.498.168 2.345 2.345 0 0 1-.57.066c-.336 0-.634-.056-.894-.168a1.821 1.821 0 0 1-.648-.486 2.157 2.157 0 0 1-.402-.738 3.233 3.233 0 0 1-.132-.948V8.757h1.482ZM21.328 14.913V8.757h.87c.152 0 .258.028.318.084.06.056.1.152.12.288l.09.744c.22-.38.478-.68.774-.9.296-.22.628-.33.996-.33.304 0 .556.07.756.21l-.192 1.11c-.012.072-.038.124-.078.156a.278.278 0 0 1-.162.042 1.01 1.01 0 0 1-.246-.042 1.646 1.646 0 0 0-.414-.042c-.308 0-.572.086-.792.258-.22.168-.406.416-.558.744v3.834h-1.482ZM27.347 6.237h1.356a.57.57 0 0 1 .348.102c.096.064.16.152.192.264l1.476 5.19c.036.128.068.268.096.42.032.148.062.306.09.474a5.968 5.968 0 0 1 .228-.894l1.704-5.19a.575.575 0 0 1 .186-.252.543.543 0 0 1 .348-.114h.474a.57.57 0 0 1 .348.102.497.497 0 0 1 .192.264l1.692 5.19c.088.256.164.54.228.852.028-.156.056-.306.084-.45.032-.144.064-.278.096-.402l1.476-5.19c.028-.1.09-.186.186-.258a.563.563 0 0 1 .348-.108h1.266l-2.694 8.676h-1.458l-1.896-5.928-.078-.246a9.504 9.504 0 0 1-.072-.282c-.024.1-.05.194-.078.282-.024.088-.048.17-.072.246l-1.914 5.928H30.04l-2.694-8.676ZM42.771 8.661c.46 0 .876.074 1.248.222.376.148.696.358.96.63s.468.604.612.996c.144.392.216.83.216 1.314 0 .488-.072.928-.216 1.32a2.85 2.85 0 0 1-.612 1.002 2.653 2.653 0 0 1-.96.636 3.35 3.35 0 0 1-1.248.222c-.46 0-.878-.074-1.254-.222a2.712 2.712 0 0 1-.966-.636 2.922 2.922 0 0 1-.618-1.002 3.807 3.807 0 0 1-.216-1.32c0-.484.072-.922.216-1.314.148-.392.354-.724.618-.996.268-.272.59-.482.966-.63a3.397 3.397 0 0 1 1.254-.222Zm0 5.202c.512 0 .89-.172 1.134-.516.248-.344.372-.848.372-1.512s-.124-1.17-.372-1.518c-.244-.348-.622-.522-1.134-.522-.52 0-.904.176-1.152.528-.248.348-.372.852-.372 1.512s.124 1.164.372 1.512c.248.344.632.516 1.152.516ZM46.723 14.913V8.757h.87c.152 0 .258.028.318.084.06.056.1.152.12.288l.09.744c.22-.38.478-.68.774-.9.296-.22.628-.33.996-.33.304 0 .556.07.756.21l-.192 1.11c-.012.072-.038.124-.078.156a.278.278 0 0 1-.162.042 1.01 1.01 0 0 1-.246-.042 1.646 1.646 0 0 0-.414-.042c-.308 0-.572.086-.792.258-.22.168-.406.416-.558.744v3.834h-1.482ZM52.96 5.997v8.916h-1.482V5.997h1.482ZM58.732 14.913c-.192 0-.318-.09-.378-.27l-.12-.594a3.68 3.68 0 0 1-.402.39c-.14.116-.292.216-.456.3-.16.084-.334.148-.522.192a2.372 2.372 0 0 1-.6.072c-.336 0-.644-.07-.924-.21a2.098 2.098 0 0 1-.726-.606 3.033 3.033 0 0 1-.468-.99 5.072 5.072 0 0 1-.162-1.344c0-.456.062-.88.186-1.272s.302-.732.534-1.02c.232-.288.51-.512.834-.672a2.384 2.384 0 0 1 1.092-.246 2.103 2.103 0 0 1 1.536.606V5.997h1.482v8.916h-.906Zm-1.974-1.086c.308 0 .57-.064.786-.192.216-.128.42-.31.612-.546v-2.76a1.452 1.452 0 0 0-.552-.432 1.597 1.597 0 0 0-.636-.126c-.224 0-.428.042-.612.126a1.21 1.21 0 0 0-.462.384c-.124.168-.22.384-.288.648-.068.26-.102.568-.102.924 0 .36.028.666.084.918.06.248.144.452.252.612.108.156.24.27.396.342.156.068.33.102.522.102ZM16.331 20.757v6.156H14.85v-6.156h1.481Zm.223-1.794a.844.844 0 0 1-.078.36.963.963 0 0 1-.21.294.995.995 0 0 1-.3.204.963.963 0 0 1-.372.072.948.948 0 0 1-.367-.072 1.018 1.018 0 0 1-.498-.498.963.963 0 0 1 0-.732.995.995 0 0 1 .205-.3.929.929 0 0 1 .293-.198.899.899 0 0 1 .738 0 .912.912 0 0 1 .3.198.943.943 0 0 1 .288.672ZM17.771 26.913v-6.156h.906c.192 0 .318.09.378.27l.102.486a2.934 2.934 0 0 1 .828-.618c.156-.076.322-.134.498-.174.176-.04.368-.06.576-.06.336 0 .634.058.894.174.26.112.476.272.648.48.176.204.308.45.396.738.092.284.138.598.138.942v3.918h-1.482v-3.918c0-.376-.088-.666-.264-.87-.172-.208-.432-.312-.78-.312-.256 0-.496.058-.72.174a2.58 2.58 0 0 0-.636.474v4.452h-1.482ZM34.22 22.575c0 .636-.106 1.22-.318 1.752-.212.532-.51.99-.894 1.374a4 4 0 0 1-1.386.894 4.87 4.87 0 0 1-1.794.318h-3.312v-8.676h3.312a4.79 4.79 0 0 1 1.794.324 4 4 0 0 1 1.386.894c.384.38.682.836.894 1.368.212.532.318 1.116.318 1.752Zm-1.65 0c0-.476-.064-.902-.192-1.278a2.68 2.68 0 0 0-.546-.96 2.332 2.332 0 0 0-.864-.606 2.94 2.94 0 0 0-1.14-.21h-1.686v6.108h1.686c.424 0 .804-.07 1.14-.21.34-.14.628-.34.864-.6a2.75 2.75 0 0 0 .546-.96 4.01 4.01 0 0 0 .192-1.284ZM39.98 26.913h-.665c-.14 0-.25-.02-.33-.06-.08-.044-.14-.13-.18-.258l-.132-.438c-.156.14-.31.264-.462.372a2.804 2.804 0 0 1-.462.264c-.16.072-.33.126-.51.162-.18.036-.38.054-.6.054-.26 0-.5-.034-.72-.102a1.618 1.618 0 0 1-.57-.318 1.448 1.448 0 0 1-.366-.522 1.852 1.852 0 0 1-.132-.726c0-.232.06-.46.18-.684.124-.228.328-.432.612-.612.284-.184.662-.336 1.134-.456.472-.12 1.058-.188 1.758-.204v-.36c0-.412-.088-.716-.264-.912-.172-.2-.424-.3-.756-.3a1.837 1.837 0 0 0-1.02.276c-.116.068-.224.13-.324.186a.664.664 0 0 1-.33.084.429.429 0 0 1-.258-.078.614.614 0 0 1-.174-.192l-.27-.474c.708-.648 1.562-.972 2.562-.972.36 0 .68.06.96.18.284.116.524.28.72.492.196.208.344.458.444.75.104.292.156.612.156.96v3.888Zm-2.88-.924c.153 0 .293-.014.42-.042.129-.028.249-.07.36-.126.117-.056.227-.124.33-.204.109-.084.217-.182.325-.294v-1.038c-.432.02-.794.058-1.086.114-.288.052-.52.12-.696.204a.923.923 0 0 0-.378.294.664.664 0 0 0-.108.366c0 .26.076.446.228.558.156.112.358.168.606.168ZM43.22 27.01c-.532 0-.942-.15-1.23-.45-.288-.305-.432-.723-.432-1.255v-3.438h-.624a.31.31 0 0 1-.21-.078c-.056-.052-.084-.13-.084-.234v-.588l.99-.162.312-1.68a.302.302 0 0 1 .108-.186.365.365 0 0 1 .222-.066h.768v1.938h1.62v1.056h-1.62v3.336c0 .192.048.342.144.45a.488.488 0 0 0 .384.162c.092 0 .168-.01.228-.03.064-.024.118-.048.162-.072.048-.024.09-.046.126-.066a.194.194 0 0 1 .108-.036.16.16 0 0 1 .108.036c.028.02.058.052.09.096l.444.72c-.216.18-.464.316-.744.408a2.77 2.77 0 0 1-.87.138ZM50.423 26.913h-.666c-.14 0-.25-.02-.33-.06-.08-.044-.14-.13-.18-.258l-.132-.438c-.156.14-.31.264-.462.372a2.804 2.804 0 0 1-.462.264c-.16.072-.33.126-.51.162-.18.036-.38.054-.6.054-.26 0-.5-.034-.72-.102a1.618 1.618 0 0 1-.57-.318 1.448 1.448 0 0 1-.366-.522 1.852 1.852 0 0 1-.132-.726c0-.232.06-.46.18-.684.124-.228.328-.432.612-.612.284-.184.662-.336 1.134-.456.472-.12 1.058-.188 1.758-.204v-.36c0-.412-.088-.716-.264-.912-.172-.2-.424-.3-.756-.3a1.837 1.837 0 0 0-1.02.276c-.116.068-.224.13-.324.186a.664.664 0 0 1-.33.084.429.429 0 0 1-.258-.078.614.614 0 0 1-.174-.192l-.27-.474c.708-.648 1.562-.972 2.562-.972.36 0 .68.06.96.18.284.116.524.28.72.492.196.208.344.458.444.75.104.292.156.612.156.96v3.888Zm-2.88-.924c.152 0 .292-.014.42-.042.128-.028.248-.07.36-.126.116-.056.226-.124.33-.204.108-.084.216-.182.324-.294v-1.038c-.432.02-.794.058-1.086.114-.288.052-.52.12-.696.204a.923.923 0 0 0-.378.294.664.664 0 0 0-.108.366c0 .26.076.446.228.558.156.112.358.168.606.168Z"/></svg></g><a id="title" href="https://ourworldindata.org/explorers/minerals?Mineral=Manganese&amp;Metric=Production&amp;Type=Mine%2C+iron+content&amp;Share+of+global=false&amp;country=AUS~CHL~CHN~USA~CAN~ALB~DZA~ARG~ARM~AUT~AZE~BOL~OWID_WRL~BWA~BRA~BGR~COL~COG~CUB~CYP~OWID_CZS~COD~DOM~OWID_GDR~ZWE~ZMB~OWID_YGS~OWID_GFR~VNM~UZB~GBR~UGA~OWID_USS~TUR~TZA~TJK~TWN~SWE~ESP~KOR~ZAF~SVK~OWID_SRM~SRB~SAU~RUS~ROU~PRT~POL~PHL~PER~PNG~PAN~PAK~OMN~NOR~MKD~PRK~NIC~NZL~NAM~MMR~MOZ~MAR~MNG~MEX~MRT~MYS~LAO~KGZ~KEN~KAZ~JPN~ITA~ISR~IRL~IRN~IDN~IND~HUN~HND~HTI~GTM~GRC~DEU~GEO~FRA~FIN~ERI~ECU~VEN~ARE~UKR~CHE~SUR~LKA~SVN~QAT~NGA~NLD~MNE~ISL~GHA~EGY~HRV~CMR~BIH~BHR~AFG~OWID_KOS~MDG~NCL~SDN~Other~CZE~THA~TUN" style="font-family:&#x27;Playfair Display&#x27;, Georgia, &#x27;Times New Roman&#x27;, &#x27;Liberation Serif&#x27;, serif" target="_blank" rel="noopener"><text font-size="24.75" font-weight="600" x="16.0" y="40.0" fill="#5b5b5b"><tspan x="16" y="40.0075">Manganese production, 1900 to 2023</tspan></text></a><g id="subtitle" class="markdown-text-wrap"><text x="16.0" y="63.9" style="font-size:14.625px;line-height:1.2" fill="#5b5b5b"><tspan x="16" y="63.9">Based on mined, rather than <tspan class="dod-span" data-id="refined-production">refined<tspan style="font-feature-settings:&quot;sups&quot;">ยน</tspan></tspan>, production. Measured in tonnes.</tspan></text></g></g><g id="chart-area" style="pointer-events:none"><g id="line-chart" class="LineChart"><defs><clipPath id="boundsClip-68"><rect x="75.665" y="73.25" width="838" height="470.35"></rect></clipPath></defs><rect x="16" y="83.25" width="818" height="450.35" fill="none"></rect><g id="dual-axis" class="DualAxisView"><g id="horizontal-axis" class="HorizontalAxis"><g id="tick__1900"><line x1="85.7" y1="512.6" x2="85.7" y2="518.1" stroke="#999" stroke-width="1"></line><text x="85.665" y="531.6" fill="#5b5b5b" text-anchor="start" font-size="13.5">1900</text></g><g id="tick__2023"><line x1="717.6" y1="512.6" x2="717.6" y2="518.1" stroke="#999" stroke-width="1"></line><text x="717.595" y="531.6" fill="#5b5b5b" text-anchor="end" font-size="13.5">2023</text></g><g id="tick__1920"><line x1="188.4" y1="512.6" x2="188.4" y2="518.1" stroke="#999" stroke-width="1"></line><text x="188.4" y="531.6" fill="#5b5b5b" text-anchor="middle" font-size="13.5">1920</text></g><g id="tick__1940"><line x1="291.2" y1="512.6" x2="291.2" y2="518.1" stroke="#999" stroke-width="1"></line><text x="291.2" y="531.6" fill="#5b5b5b" text-anchor="middle" font-size="13.5">1940</text></g><g id="tick__1960"><line x1="393.9" y1="512.6" x2="393.9" y2="518.1" stroke="#999" stroke-width="1"></line><text x="393.9" y="531.6" fill="#5b5b5b" text-anchor="middle" font-size="13.5">1960</text></g><g id="tick__1980"><line x1="496.7" y1="512.6" x2="496.7" y2="518.1" stroke="#999" stroke-width="1"></line><text x="496.7" y="531.6" fill="#5b5b5b" text-anchor="middle" font-size="13.5">1980</text></g><g id="tick__2000"><line x1="599.4" y1="512.6" x2="599.4" y2="518.1" stroke="#999" stroke-width="1"></line><text x="599.4" y="531.6" fill="#5b5b5b" text-anchor="middle" font-size="13.5">2000</text></g></g><g id="vertical-axis" class="VerticalAxis"><g id="tick-labels"><text id="tick-label__0-t" x="80.67" y="513.1" dy=".32em" text-anchor="end" fill="#5b5b5b" font-size="13.5">0 t</text><text id="tick-label__5-million-t" x="80.67" y="410.7" dy=".32em" text-anchor="end" fill="#5b5b5b" font-size="13.5">5 million t</text><text id="tick-label__10-million-t" x="80.67" y="308.3" dy=".32em" text-anchor="end" fill="#5b5b5b" font-size="13.5">10 million t</text><text id="tick-label__15-million-t" x="80.67" y="206" dy=".32em" text-anchor="end" fill="#5b5b5b" font-size="13.5">15 million t</text><text id="tick-label__20-million-t" x="80.67" y="103.6" dy=".32em" text-anchor="end" fill="#5b5b5b" font-size="13.5">20 million t</text></g></g><g id="horizontal-grid-lines" class="AxisGridLines horizontalLines"><line id="grid-line__0" x1="85.67" y1="513.1" x2="717.60" y2="513.1" stroke="#999" stroke-width="1"></line><line id="grid-line__5000000" x1="85.67" y1="410.7" x2="717.60" y2="410.7" stroke="#ddd" stroke-width="1" stroke-dasharray="3,2"></line><line id="grid-line__10000000" x1="85.67" y1="308.3" x2="717.60" y2="308.3" stroke="#ddd" stroke-width="1" stroke-dasharray="3,2"></line><line id="grid-line__15000000" x1="85.67" y1="206" x2="717.60" y2="206" stroke="#ddd" stroke-width="1" stroke-dasharray="3,2"></line><line id="grid-line__20000000" x1="85.67" y1="103.6" x2="717.60" y2="103.6" stroke="#ddd" stroke-width="1" stroke-dasharray="3,2"></line></g></g><g clip-path="url(#boundsClip-68)"><g id="line-labels" class="LineLabels"><g id="mark__World" class="legendMark" style="cursor:default"><g id="connector" class="indicator"><path d="M721.595,103.6 H735.095 V103.6 H748.595" stroke="#999" stroke-width="0.5" fill="none"></path></g><rect id="background" x="717.595" y="96.85" width="70.235" height="13.5" fill="#fff" opacity="0"></rect><text id="label" font-size="13.50" font-weight="400" x="752.6" y="108.6" fill="#c15065"><tspan x="752.595" y="108.595">World</tspan></text></g><g id="mark__South-Africa" class="legendMark" style="cursor:default"><g id="connector" class="indicator"><path d="M721.595,365.7 H723.5235714285715 V309.84999999999997 H748.595" stroke="#999" stroke-width="0.5" fill="none"></path></g><rect id="background" x="717.595" y="303.09999999999997" width="108.845" height="13.5" fill="#fff" opacity="0"></rect><text id="label" font-size="13.50" font-weight="400" x="752.6" y="314.8" fill="#00847e"><tspan x="752.595" y="314.84499999999997">South Africa</tspan></text></g><g id="mark__Australia" class="legendMark" style="cursor:default"><g id="connector" class="indicator"><path d="M721.595,451.7 H725.4521428571429 V325.34999999999997 H748.595" stroke="#999" stroke-width="0.5" fill="none"></path></g><rect id="background" x="717.595" y="318.59999999999997" width="87.65" height="13.5" fill="#fff" opacity="0"></rect><text id="label" font-size="13.50" font-weight="400" x="752.6" y="330.3" fill="#2c8465"><tspan x="752.595" y="330.34499999999997">Australia</tspan></text></g><g id="mark__Ghana" class="legendMark" style="cursor:default"><g id="connector" class="indicator"><path d="M721.595,495.9 H727.3807142857144 V340.84999999999997 H748.595" stroke="#999" stroke-width="0.5" fill="none"></path></g><rect id="background" x="717.595" y="334.09999999999997" width="75.77000000000001" height="13.5" fill="#fff" opacity="0"></rect><text id="label" font-size="13.50" font-weight="400" x="752.6" y="345.8" fill="#286bbb"><tspan x="752.595" y="345.84499999999997">Ghana</tspan></text></g><g id="mark__China" class="legendMark" style="cursor:default"><g id="connector" class="indicator"><path d="M721.595,497.9 H729.3092857142858 V356.34999999999997 H748.595" stroke="#999" stroke-width="0.5" fill="none"></path></g><rect id="background" x="717.595" y="349.59999999999997" width="70.37" height="13.5" fill="#fff" opacity="0"></rect><text id="label" font-size="13.50" font-weight="400" x="752.6" y="361.3" fill="#cf0a66"><tspan x="752.595" y="361.34499999999997">China</tspan></text></g><g id="mark__India" class="legendMark" style="cursor:default"><g id="connector" class="indicator"><path d="M721.595,498.4 H731.2378571428571 V371.84999999999997 H748.595" stroke="#999" stroke-width="0.5" fill="none"></path></g><rect id="background" x="717.595" y="365.09999999999997" width="64.43" height="13.5" fill="#fff" opacity="0"></rect><text id="label" font-size="13.50" font-weight="400" x="752.6" y="376.8" fill="#286bbb"><tspan x="752.595" y="376.84499999999997">India</tspan></text></g><g id="mark__Brazil" class="legendMark" style="cursor:default"><g id="connector" class="indicator"><path d="M721.595,500.4 H733.1664285714286 V387.34999999999997 H748.595" stroke="#999" stroke-width="0.5" fill="none"></path></g><rect id="background" x="717.595" y="380.59999999999997" width="68.75" height="13.5" fill="#fff" opacity="0"></rect><text id="label" font-size="13.50" font-weight="400" x="752.6" y="392.3" fill="#578145"><tspan x="752.595" y="392.34499999999997">Brazil</tspan></text></g><g id="mark__Other" class="legendMark" style="cursor:default"><g id="connector" class="indicator"><path d="M721.595,506.3 H735.095 V402.84999999999997 H748.595" stroke="#999" stroke-width="0.5" fill="none"></path></g><rect id="background" x="717.595" y="396.09999999999997" width="68.885" height="13.5" fill="#fff" opacity="0"></rect><text id="label" font-size="13.50" font-weight="400" x="752.6" y="407.8" fill="#b16214"><tspan x="752.595" y="407.84499999999997">Other</tspan></text></g><g id="mark__Ukraine" class="legendMark" style="cursor:default"><g id="connector" class="indicator"><path d="M721.595,506.5 H737.0235714285715 V418.34999999999997 H748.595" stroke="#999" stroke-width="0.5" fill="none"></path></g><rect id="background" x="717.595" y="411.59999999999997" width="81.575" height="13.5" fill="#fff" opacity="0"></rect><text id="label" font-size="13.50" font-weight="400" x="752.6" y="423.3" fill="#b16214"><tspan x="752.595" y="423.34499999999997">Ukraine</tspan></text></g><g id="mark__Malaysia" class="legendMark" style="cursor:default"><g id="connector" class="indicator"><path d="M721.595,508 H738.9521428571429 V433.84999999999997 H748.595" stroke="#999" stroke-width="0.5" fill="none"></path></g><rect id="background" x="717.595" y="427.09999999999997" width="88.325" height="13.5" fill="#fff" opacity="0"></rect><text id="label" font-size="13.50" font-weight="400" x="752.6" y="438.8" fill="#00875e"><tspan x="752.595" y="438.84499999999997">Malaysia</tspan></text></g><g id="mark__Mexico" class="legendMark" style="cursor:default"><g id="connector" class="indicator"><path d="M721.595,508.6 H740.8807142857144 V449.34999999999997 H748.595" stroke="#999" stroke-width="0.5" fill="none"></path></g><rect id="background" x="717.595" y="442.59999999999997" width="77.795" height="13.5" fill="#fff" opacity="0"></rect><text id="label" font-size="13.50" font-weight="400" x="752.6" y="454.3" fill="#b13507"><tspan x="752.595" y="454.34499999999997">Mexico</tspan></text></g><g id="mark__Myanmar" class="legendMark" style="cursor:default"><g id="connector" class="indicator"><path d="M721.595,508.8 H742.8092857142858 V464.84999999999997 H748.595" stroke="#999" stroke-width="0.5" fill="none"></path></g><rect id="background" x="717.595" y="458.09999999999997" width="91.295" height="13.5" fill="#fff" opacity="0"></rect><text id="label" font-size="13.50" font-weight="400" x="752.6" y="469.8" fill="#008291"><tspan x="752.595" y="469.84499999999997">Myanmar</tspan></text></g><g id="mark__Georgia" class="legendMark" style="cursor:default"><g id="connector" class="indicator"><path d="M721.595,509.8 H744.7378571428571 V480.34999999999997 H748.595" stroke="#999" stroke-width="0.5" fill="none"></path></g><rect id="background" x="717.595" y="473.59999999999997" width="83.195" height="13.5" fill="#fff" opacity="0"></rect><text id="label" font-size="13.50" font-weight="400" x="752.6" y="485.3" fill="#008291"><tspan x="752.595" y="485.34499999999997">Georgia</tspan></text></g><g id="mark__Vietnam" class="legendMark" style="cursor:default"><g id="connector" class="indicator"><path d="M721.595,509.8 H746.6664285714286 V495.84999999999997 H748.595" stroke="#999" stroke-width="0.5" fill="none"></path></g><rect id="background" x="717.595" y="489.09999999999997" width="84.68" height="13.5" fill="#fff" opacity="0"></rect><text id="label" font-size="13.50" font-weight="400" x="752.6" y="500.8" fill="#cf0a66"><tspan x="752.595" y="500.84499999999997">Vietnam</tspan></text></g><g id="mark__Kazakhstan" class="legendMark" style="cursor:default"><g id="connector" class="indicator"><path d="M721.595,510.4 H746.6664285714286 V511.34999999999997 H748.595" stroke="#999" stroke-width="0.5" fill="none"></path></g><rect id="background" x="717.595" y="504.59999999999997" width="105.875" height="13.5" fill="#fff" opacity="0"></rect><text id="label" font-size="13.50" font-weight="400" x="752.6" y="516.3" fill="#d73c50"><tspan x="752.595" y="516.3449999999999">Kazakhstan</tspan></text></g><g id="mark__United-States" class="legendMark" style="cursor:default"><g id="connector" class="indicator"><path d="M721.595,513.1 H744.7378571428571 V526.8499999999999 H748.595" stroke="#999" stroke-width="0.5" fill="none"></path></g><rect id="background" x="717.595" y="520.0999999999999" width="116.405" height="13.5" fill="#fff" opacity="0"></rect><text id="label" font-size="13.50" font-weight="400" x="752.6" y="531.8" fill="#6d3e91"><tspan x="752.595" y="531.8449999999999">United States</tspan></text></g></g><g id="lines" class="Lines"><rect x="86" y="89" width="632" height="424" fill="rgba(255,255,255,0)" opacity="0"></rect><g id="line__Vietnam"><path stroke-linecap="round" stroke-linejoin="round" stroke="#ddd" d="M702.2 510.6L707.3 510.1L712.5 509.9L717.6 509.8" fill="none" stroke-width="1"></path></g><g id="line__Ukraine"><path stroke-linecap="round" stroke-linejoin="round" stroke="#ddd" d="M702.2 501.3L707.3 500.8L712.5 506.5L717.6 506.5" fill="none" stroke-width="1"></path></g><g id="line__South-Africa"><path stroke-linecap="round" stroke-linejoin="round" stroke="#ddd" d="M702.2 380L707.3 365.7L712.5 363.6L717.6 365.7" fill="none" stroke-width="1"></path></g><g id="line__Other"><path stroke-linecap="round" stroke-linejoin="round" stroke="#ddd" d="M702.2 507.8L707.3 510L712.5 506.4L717.6 506.3" fill="none" stroke-width="1"></path></g><g id="line__Myanmar"><path stroke-linecap="round" stroke-linejoin="round" stroke="#ddd" d="M702.2 507.9L707.3 508.9L712.5 508.9L717.6 508.8" fill="none" stroke-width="1"></path></g><g id="line__Mexico"><path stroke-linecap="round" stroke-linejoin="round" stroke="#ddd" d="M702.2 509L707.3 508.5L712.5 508.6L717.6 508.6" fill="none" stroke-width="1"></path></g><g id="line__Malaysia"><path stroke-linecap="round" stroke-linejoin="round" stroke="#ddd" d="M702.2 506L707.3 505.8L712.5 508L717.6 508" fill="none" stroke-width="1"></path></g><g id="line__Kazakhstan"><path stroke-linecap="round" stroke-linejoin="round" stroke="#ddd" d="M702.2 509.9L707.3 511.3L712.5 510.5L717.6 510.4" fill="none" stroke-width="1"></path></g><g id="line__India"><path stroke-linecap="round" stroke-linejoin="round" stroke="#ddd" d="M702.2 500.2L707.3 503.8L712.5 498.3L717.6 498.4" fill="none" stroke-width="1"></path></g><g id="line__Ghana"><path stroke-linecap="round" stroke-linejoin="round" stroke="#ddd" d="M702.2 500.1L707.3 493.9L712.5 495.8L717.6 495.9" fill="none" stroke-width="1"></path></g><g id="line__Georgia"><path stroke-linecap="round" stroke-linejoin="round" stroke="#ddd" d="M702.2 509.3L707.3 508.5L712.5 509.7L717.6 509.8" fill="none" stroke-width="1"></path></g><g id="line__China"><path stroke-linecap="round" stroke-linejoin="round" stroke="#ddd" d="M702.2 485.7L707.3 492.8L712.5 497.9L717.6 497.9" fill="none" stroke-width="1"></path></g><g id="line__Brazil"><path stroke-linecap="round" stroke-linejoin="round" stroke="#ddd" d="M702.2 503L707.3 502L712.5 500.3L717.6 500.4" fill="none" stroke-width="1"></path></g><g id="line__Australia"><path stroke-linecap="round" stroke-linejoin="round" stroke="#ddd" d="M702.2 444.9L707.3 446.3L712.5 450.9L717.6 451.7" fill="none" stroke-width="1"></path></g><g id="line__World"><path stroke-linecap="round" stroke-linejoin="round" stroke="#ddd" d="M85.7 501L90.8 504.3L95.9 504.1L101.1 504.7L106.2 504.6L111.4 503.3L116.5 495.3L121.6 491L126.8 500L131.9 496.5L137 494.9L142.2 498.4L147.3 495.6L152.5 491.8L157.6 495.9L162.7 500.1L167.9 495.7L173 495.4L178.1 494L183.3 501.8L188.4 497.7L193.6 502.4L198.7 502.1L203.8 498.1L209 494.3L214.1 489.1L219.2 485L224.4 483.8L229.5 486.9L234.7 480.7L239.8 480.5L244.9 493L250.1 501.7L255.2 497.1L260.3 486.3L265.5 476.2L270.6 465.2L275.8 457L280.9 464.4L286 490.4L291.2 461.1L296.3 462.9L301.4 466.2L306.6 476.2L311.7 487.1L316.9 474.2L322 479.3L327.1 477.3L332.3 475.6L337.4 468.9L342.5 461.3L347.7 448L352.8 422.2L358 411.9L363.1 421L368.2 413.4L373.4 404.4L378.5 393.9L383.6 398.8L388.8 393.7L393.9 387.8L399.1 388L404.2 382.1L409.3 377.3L414.5 364.9L419.6 349.7L424.7 346.2L429.9 359.3L435 353.4L440.2 340.7L445.3 345.2L450.4 327.4L455.6 327.2L460.7 313.7L465.9 323.3L471 312.2L476.1 308.3L481.3 335.2L486.4 335.2L491.5 312.4L496.7 315.1L501.8 341.1L507 337.4L512.1 353.8L517.2 337L522.4 335.2L527.5 332.3L532.6 342.3L537.8 336L542.9 323.7L548.1 327.2L553.2 357.5L558.3 364.4L563.5 368.3L568.6 379.4L573.7 349.9L578.9 345.6L584 359.1L589.2 363L594.3 382.3L599.4 370.6L604.6 357.9L609.7 353.4L614.8 333.1L620 310.4L625.1 287.9L630.3 277.6L635.4 267.4L640.5 238.7L645.7 281.7L650.8 212.1L655.9 197.8L661.1 181.4L666.2 160.9L671.4 138.4L676.5 199.8L681.6 208L686.8 130.2L691.9 111.8L697 89.3L702.2 126.1L707.3 101.5L712.5 107.7L717.6 103.6" fill="none" stroke-width="1"></path></g><g id="line__United-States"><path stroke-linecap="round" stroke-linejoin="round" stroke="#ddd" d="M85.7 512.5L90.8 512.5L95.9 512.7L101.1 512.7L106.2 512.7L111.4 512.5L116.5 512.5L121.6 512.2L126.8 512.4L131.9 512.2L137 512.2L142.2 512.4L147.3 512.4L152.5 512.4L157.6 512.2L162.7 511.4L167.9 509.5L173 507.3L178.1 504.5L183.3 510.5L188.4 508.8L193.6 512.7L198.7 510.3L203.8 508.8L209 509.6L214.1 508.4L219.2 508.8L224.4 509.3L229.5 510.4L234.7 509.9L239.8 510.6L244.9 511.7L250.1 512.7L255.2 512.6L260.3 512.2L265.5 511.3L270.6 510.6L275.8 509.7L280.9 512.1L286 510.3L291.2 509.3L296.3 508.8L301.4 507.3L306.6 507.1L311.7 507.2L316.9 508.3L322 509.3L327.1 509.3L332.3 509L337.4 509.9L342.5 509.6L347.7 508.5L352.8 509.2L358 508.1L363.1 509.8L368.2 508.2L373.4 508.5L378.5 508.3L383.6 509.5L388.8 510.3L393.9 510.9L399.1 511.7L404.2 511.7L409.3 511.4L414.5 511.6L419.6 511.6L424.7 511.5L429.9 511.7L435 512.2L440.2 511.4L445.3 511.9L450.4 512.4L455.6 512.6L460.7 512.5L465.9 512.4L471 512.7L476.1 512.5L481.3 512.6L486.4 512.4L491.5 512.5L496.7 512.7L501.8 512.7L507 513L512.1 513L517.2 512.9L522.4 513.1L527.5 513.1L532.6 513.1L537.8 513.1L542.9 513.1L548.1 513.1L553.2 513.1L558.3 513.1L563.5 513.1L568.6 513.1L573.7 513.1L578.9 513.1L584 513.1L589.2 513.1L594.3 513.1L599.4 513.1L604.6 513.1L609.7 513.1L614.8 513.1L620 513.1L625.1 513.1L630.3 513.1L635.4 513.1L640.5 513.1L645.7 513.1L650.8 513.1L655.9 513.1L661.1 513.1L666.2 513.1L671.4 513.1L676.5 513.1L681.6 513.1L686.8 513.1L691.9 513.1L697 513.1L702.2 513.1L707.3 513.1L712.5 513.1L717.6 513.1" fill="none" stroke-width="1"></path></g><g id="line__Vietnam"><path id="outline" fill="none" stroke-linecap="butt" stroke-linejoin="round" stroke="#fff" stroke-width="2.5" d="M702.2 510.6L707.3 510.1L712.5 509.9L717.6 509.8"></path><g id="polyline"><polyline id="polyline" points="702.20,510.60 707.30,510.10 712.50,509.90 717.60,509.80" stroke-linejoin="round" stroke-width="1.5" stroke="#CF0A66" fill="none" stroke-linecap="butt"></polyline></g><g id="markers"><circle cx="702.2" cy="510.6" r="1.8" fill="#CF0A66"></circle><circle cx="707.3" cy="510.1" r="1.8" fill="#CF0A66"></circle><circle cx="712.5" cy="509.9" r="1.8" fill="#CF0A66"></circle><circle cx="717.6" cy="509.8" r="1.8" fill="#CF0A66"></circle></g></g><g id="line__Ukraine"><path id="outline" fill="none" stroke-linecap="butt" stroke-linejoin="round" stroke="#fff" stroke-width="2.5" d="M702.2 501.3L707.3 500.8L712.5 506.5L717.6 506.5"></path><g id="polyline"><polyline id="polyline" points="702.20,501.30 707.30,500.80 712.50,506.50 717.60,506.50" stroke-linejoin="round" stroke-width="1.5" stroke="#B16214" fill="none" stroke-linecap="butt"></polyline></g><g id="markers"><circle cx="702.2" cy="501.3" r="1.8" fill="#B16214"></circle><circle cx="707.3" cy="500.8" r="1.8" fill="#B16214"></circle><circle cx="712.5" cy="506.5" r="1.8" fill="#B16214"></circle><circle cx="717.6" cy="506.5" r="1.8" fill="#B16214"></circle></g></g><g id="line__South-Africa"><path id="outline" fill="none" stroke-linecap="butt" stroke-linejoin="round" stroke="#fff" stroke-width="2.5" d="M702.2 380L707.3 365.7L712.5 363.6L717.6 365.7"></path><g id="polyline"><polyline id="polyline" points="702.20,380.00 707.30,365.70 712.50,363.60 717.60,365.70" stroke-linejoin="round" stroke-width="1.5" stroke="#00847E" fill="none" stroke-linecap="butt"></polyline></g><g id="markers"><circle cx="702.2" cy="380" r="1.8" fill="#00847E"></circle><circle cx="707.3" cy="365.7" r="1.8" fill="#00847E"></circle><circle cx="712.5" cy="363.6" r="1.8" fill="#00847E"></circle><circle cx="717.6" cy="365.7" r="1.8" fill="#00847E"></circle></g></g><g id="line__Other"><path id="outline" fill="none" stroke-linecap="butt" stroke-linejoin="round" stroke="#fff" stroke-width="2.5" d="M702.2 507.8L707.3 510L712.5 506.4L717.6 506.3"></path><g id="polyline"><polyline id="polyline" points="702.20,507.80 707.30,510.00 712.50,506.40 717.60,506.30" stroke-linejoin="round" stroke-width="1.5" stroke="#B16214" fill="none" stroke-linecap="butt"></polyline></g><g id="markers"><circle cx="702.2" cy="507.8" r="1.8" fill="#B16214"></circle><circle cx="707.3" cy="510" r="1.8" fill="#B16214"></circle><circle cx="712.5" cy="506.4" r="1.8" fill="#B16214"></circle><circle cx="717.6" cy="506.3" r="1.8" fill="#B16214"></circle></g></g><g id="line__Myanmar"><path id="outline" fill="none" stroke-linecap="butt" stroke-linejoin="round" stroke="#fff" stroke-width="2.5" d="M702.2 507.9L707.3 508.9L712.5 508.9L717.6 508.8"></path><g id="polyline"><polyline id="polyline" points="702.20,507.90 707.30,508.90 712.50,508.90 717.60,508.80" stroke-linejoin="round" stroke-width="1.5" stroke="#008291" fill="none" stroke-linecap="butt"></polyline></g><g id="markers"><circle cx="702.2" cy="507.9" r="1.8" fill="#008291"></circle><circle cx="707.3" cy="508.9" r="1.8" fill="#008291"></circle><circle cx="712.5" cy="508.9" r="1.8" fill="#008291"></circle><circle cx="717.6" cy="508.8" r="1.8" fill="#008291"></circle></g></g><g id="line__Mexico"><path id="outline" fill="none" stroke-linecap="butt" stroke-linejoin="round" stroke="#fff" stroke-width="2.5" d="M702.2 509L707.3 508.5L712.5 508.6L717.6 508.6"></path><g id="polyline"><polyline id="polyline" points="702.20,509.00 707.30,508.50 712.50,508.60 717.60,508.60" stroke-linejoin="round" stroke-width="1.5" stroke="#B13507" fill="none" stroke-linecap="butt"></polyline></g><g id="markers"><circle cx="702.2" cy="509" r="1.8" fill="#B13507"></circle><circle cx="707.3" cy="508.5" r="1.8" fill="#B13507"></circle><circle cx="712.5" cy="508.6" r="1.8" fill="#B13507"></circle><circle cx="717.6" cy="508.6" r="1.8" fill="#B13507"></circle></g></g><g id="line__Malaysia"><path id="outline" fill="none" stroke-linecap="butt" stroke-linejoin="round" stroke="#fff" stroke-width="2.5" d="M702.2 506L707.3 505.8L712.5 508L717.6 508"></path><g id="polyline"><polyline id="polyline" points="702.20,506.00 707.30,505.80 712.50,508.00 717.60,508.00" stroke-linejoin="round" stroke-width="1.5" stroke="#00875E" fill="none" stroke-linecap="butt"></polyline></g><g id="markers"><circle cx="702.2" cy="506" r="1.8" fill="#00875E"></circle><circle cx="707.3" cy="505.8" r="1.8" fill="#00875E"></circle><circle cx="712.5" cy="508" r="1.8" fill="#00875E"></circle><circle cx="717.6" cy="508" r="1.8" fill="#00875E"></circle></g></g><g id="line__Kazakhstan"><path id="outline" fill="none" stroke-linecap="butt" stroke-linejoin="round" stroke="#fff" stroke-width="2.5" d="M702.2 509.9L707.3 511.3L712.5 510.5L717.6 510.4"></path><g id="polyline"><polyline id="polyline" points="702.20,509.90 707.30,511.30 712.50,510.50 717.60,510.40" stroke-linejoin="round" stroke-width="1.5" stroke="#D73C50" fill="none" stroke-linecap="butt"></polyline></g><g id="markers"><circle cx="702.2" cy="509.9" r="1.8" fill="#D73C50"></circle><circle cx="707.3" cy="511.3" r="1.8" fill="#D73C50"></circle><circle cx="712.5" cy="510.5" r="1.8" fill="#D73C50"></circle><circle cx="717.6" cy="510.4" r="1.8" fill="#D73C50"></circle></g></g><g id="line__India"><path id="outline" fill="none" stroke-linecap="butt" stroke-linejoin="round" stroke="#fff" stroke-width="2.5" d="M702.2 500.2L707.3 503.8L712.5 498.3L717.6 498.4"></path><g id="polyline"><polyline id="polyline" points="702.20,500.20 707.30,503.80 712.50,498.30 717.60,498.40" stroke-linejoin="round" stroke-width="1.5" stroke="#286BBB" fill="none" stroke-linecap="butt"></polyline></g><g id="markers"><circle cx="702.2" cy="500.2" r="1.8" fill="#286BBB"></circle><circle cx="707.3" cy="503.8" r="1.8" fill="#286BBB"></circle><circle cx="712.5" cy="498.3" r="1.8" fill="#286BBB"></circle><circle cx="717.6" cy="498.4" r="1.8" fill="#286BBB"></circle></g></g><g id="line__Ghana"><path id="outline" fill="none" stroke-linecap="butt" stroke-linejoin="round" stroke="#fff" stroke-width="2.5" d="M702.2 500.1L707.3 493.9L712.5 495.8L717.6 495.9"></path><g id="polyline"><polyline id="polyline" points="702.20,500.10 707.30,493.90 712.50,495.80 717.60,495.90" stroke-linejoin="round" stroke-width="1.5" stroke="#286BBB" fill="none" stroke-linecap="butt"></polyline></g><g id="markers"><circle cx="702.2" cy="500.1" r="1.8" fill="#286BBB"></circle><circle cx="707.3" cy="493.9" r="1.8" fill="#286BBB"></circle><circle cx="712.5" cy="495.8" r="1.8" fill="#286BBB"></circle><circle cx="717.6" cy="495.9" r="1.8" fill="#286BBB"></circle></g></g><g id="line__Georgia"><path id="outline" fill="none" stroke-linecap="butt" stroke-linejoin="round" stroke="#fff" stroke-width="2.5" d="M702.2 509.3L707.3 508.5L712.5 509.7L717.6 509.8"></path><g id="polyline"><polyline id="polyline" points="702.20,509.30 707.30,508.50 712.50,509.70 717.60,509.80" stroke-linejoin="round" stroke-width="1.5" stroke="#008291" fill="none" stroke-linecap="butt"></polyline></g><g id="markers"><circle cx="702.2" cy="509.3" r="1.8" fill="#008291"></circle><circle cx="707.3" cy="508.5" r="1.8" fill="#008291"></circle><circle cx="712.5" cy="509.7" r="1.8" fill="#008291"></circle><circle cx="717.6" cy="509.8" r="1.8" fill="#008291"></circle></g></g><g id="line__China"><path id="outline" fill="none" stroke-linecap="butt" stroke-linejoin="round" stroke="#fff" stroke-width="2.5" d="M702.2 485.7L707.3 492.8L712.5 497.9L717.6 497.9"></path><g id="polyline"><polyline id="polyline" points="702.20,485.70 707.30,492.80 712.50,497.90 717.60,497.90" stroke-linejoin="round" stroke-width="1.5" stroke="#CF0A66" fill="none" stroke-linecap="butt"></polyline></g><g id="markers"><circle cx="702.2" cy="485.7" r="1.8" fill="#CF0A66"></circle><circle cx="707.3" cy="492.8" r="1.8" fill="#CF0A66"></circle><circle cx="712.5" cy="497.9" r="1.8" fill="#CF0A66"></circle><circle cx="717.6" cy="497.9" r="1.8" fill="#CF0A66"></circle></g></g><g id="line__Brazil"><path id="outline" fill="none" stroke-linecap="butt" stroke-linejoin="round" stroke="#fff" stroke-width="2.5" d="M702.2 503L707.3 502L712.5 500.3L717.6 500.4"></path><g id="polyline"><polyline id="polyline" points="702.20,503.00 707.30,502.00 712.50,500.30 717.60,500.40" stroke-linejoin="round" stroke-width="1.5" stroke="#578145" fill="none" stroke-linecap="butt"></polyline></g><g id="markers"><circle cx="702.2" cy="503" r="1.8" fill="#578145"></circle><circle cx="707.3" cy="502" r="1.8" fill="#578145"></circle><circle cx="712.5" cy="500.3" r="1.8" fill="#578145"></circle><circle cx="717.6" cy="500.4" r="1.8" fill="#578145"></circle></g></g><g id="line__Australia"><path id="outline" fill="none" stroke-linecap="butt" stroke-linejoin="round" stroke="#fff" stroke-width="2.5" d="M702.2 444.9L707.3 446.3L712.5 450.9L717.6 451.7"></path><g id="polyline"><polyline id="polyline" points="702.20,444.90 707.30,446.30 712.50,450.90 717.60,451.70" stroke-linejoin="round" stroke-width="1.5" stroke="#2C8465" fill="none" stroke-linecap="butt"></polyline></g><g id="markers"><circle cx="702.2" cy="444.9" r="1.8" fill="#2C8465"></circle><circle cx="707.3" cy="446.3" r="1.8" fill="#2C8465"></circle><circle cx="712.5" cy="450.9" r="1.8" fill="#2C8465"></circle><circle cx="717.6" cy="451.7" r="1.8" fill="#2C8465"></circle></g></g><g id="line__World"><path id="outline" fill="none" stroke-linecap="butt" stroke-linejoin="round" stroke="#fff" stroke-width="2.5" d="M85.7 501L90.8 504.3L95.9 504.1L101.1 504.7L106.2 504.6L111.4 503.3L116.5 495.3L121.6 491L126.8 500L131.9 496.5L137 494.9L142.2 498.4L147.3 495.6L152.5 491.8L157.6 495.9L162.7 500.1L167.9 495.7L173 495.4L178.1 494L183.3 501.8L188.4 497.7L193.6 502.4L198.7 502.1L203.8 498.1L209 494.3L214.1 489.1L219.2 485L224.4 483.8L229.5 486.9L234.7 480.7L239.8 480.5L244.9 493L250.1 501.7L255.2 497.1L260.3 486.3L265.5 476.2L270.6 465.2L275.8 457L280.9 464.4L286 490.4L291.2 461.1L296.3 462.9L301.4 466.2L306.6 476.2L311.7 487.1L316.9 474.2L322 479.3L327.1 477.3L332.3 475.6L337.4 468.9L342.5 461.3L347.7 448L352.8 422.2L358 411.9L363.1 421L368.2 413.4L373.4 404.4L378.5 393.9L383.6 398.8L388.8 393.7L393.9 387.8L399.1 388L404.2 382.1L409.3 377.3L414.5 364.9L419.6 349.7L424.7 346.2L429.9 359.3L435 353.4L440.2 340.7L445.3 345.2L450.4 327.4L455.6 327.2L460.7 313.7L465.9 323.3L471 312.2L476.1 308.3L481.3 335.2L486.4 335.2L491.5 312.4L496.7 315.1L501.8 341.1L507 337.4L512.1 353.8L517.2 337L522.4 335.2L527.5 332.3L532.6 342.3L537.8 336L542.9 323.7L548.1 327.2L553.2 357.5L558.3 364.4L563.5 368.3L568.6 379.4L573.7 349.9L578.9 345.6L584 359.1L589.2 363L594.3 382.3L599.4 370.6L604.6 357.9L609.7 353.4L614.8 333.1L620 310.4L625.1 287.9L630.3 277.6L635.4 267.4L640.5 238.7L645.7 281.7L650.8 212.1L655.9 197.8L661.1 181.4L666.2 160.9L671.4 138.4L676.5 199.8L681.6 208L686.8 130.2L691.9 111.8L697 89.3L702.2 126.1L707.3 101.5L712.5 107.7L717.6 103.6"></path><g id="polyline"><polyline id="polyline" points="85.70,501.00 90.80,504.30 95.90,504.10 101.10,504.70 106.20,504.60 111.40,503.30 116.50,495.30 121.60,491.00 126.80,500.00 131.90,496.50 137.00,494.90 142.20,498.40 147.30,495.60 152.50,491.80 157.60,495.90 162.70,500.10 167.90,495.70 173.00,495.40 178.10,494.00 183.30,501.80 188.40,497.70 193.60,502.40 198.70,502.10 203.80,498.10 209.00,494.30 214.10,489.10 219.20,485.00 224.40,483.80 229.50,486.90 234.70,480.70 239.80,480.50 244.90,493.00 250.10,501.70 255.20,497.10 260.30,486.30 265.50,476.20 270.60,465.20 275.80,457.00 280.90,464.40 286.00,490.40 291.20,461.10 296.30,462.90 301.40,466.20 306.60,476.20 311.70,487.10 316.90,474.20 322.00,479.30 327.10,477.30 332.30,475.60 337.40,468.90 342.50,461.30 347.70,448.00 352.80,422.20 358.00,411.90 363.10,421.00 368.20,413.40 373.40,404.40 378.50,393.90 383.60,398.80 388.80,393.70 393.90,387.80 399.10,388.00 404.20,382.10 409.30,377.30 414.50,364.90 419.60,349.70 424.70,346.20 429.90,359.30 435.00,353.40 440.20,340.70 445.30,345.20 450.40,327.40 455.60,327.20 460.70,313.70 465.90,323.30 471.00,312.20 476.10,308.30 481.30,335.20 486.40,335.20 491.50,312.40 496.70,315.10 501.80,341.10 507.00,337.40 512.10,353.80 517.20,337.00 522.40,335.20 527.50,332.30 532.60,342.30 537.80,336.00 542.90,323.70 548.10,327.20 553.20,357.50 558.30,364.40 563.50,368.30 568.60,379.40 573.70,349.90 578.90,345.60 584.00,359.10 589.20,363.00 594.30,382.30 599.40,370.60 604.60,357.90 609.70,353.40 614.80,333.10 620.00,310.40 625.10,287.90 630.30,277.60 635.40,267.40 640.50,238.70 645.70,281.70 650.80,212.10 655.90,197.80 661.10,181.40 666.20,160.90 671.40,138.40 676.50,199.80 681.60,208.00 686.80,130.20 691.90,111.80 697.00,89.30 702.20,126.10 707.30,101.50 712.50,107.70 717.60,103.60" stroke-linejoin="round" stroke-width="1.5" stroke="#C15065" fill="none" stroke-linecap="butt"></polyline></g><g id="markers"><circle cx="85.7" cy="501" r="1.8" fill="#C15065"></circle><circle cx="90.8" cy="504.3" r="1.8" fill="#C15065"></circle><circle cx="95.9" cy="504.1" r="1.8" fill="#C15065"></circle><circle cx="101.1" cy="504.7" r="1.8" fill="#C15065"></circle><circle cx="106.2" cy="504.6" r="1.8" fill="#C15065"></circle><circle cx="111.4" cy="503.3" r="1.8" fill="#C15065"></circle><circle cx="116.5" cy="495.3" r="1.8" fill="#C15065"></circle><circle cx="121.6" cy="491" r="1.8" fill="#C15065"></circle><circle cx="126.8" cy="500" r="1.8" fill="#C15065"></circle><circle cx="131.9" cy="496.5" r="1.8" fill="#C15065"></circle><circle cx="137" cy="494.9" r="1.8" fill="#C15065"></circle><circle cx="142.2" cy="498.4" r="1.8" fill="#C15065"></circle><circle cx="147.3" cy="495.6" r="1.8" fill="#C15065"></circle><circle cx="152.5" cy="491.8" r="1.8" fill="#C15065"></circle><circle cx="157.6" cy="495.9" r="1.8" fill="#C15065"></circle><circle cx="162.7" cy="500.1" r="1.8" fill="#C15065"></circle><circle cx="167.9" cy="495.7" r="1.8" fill="#C15065"></circle><circle cx="173" cy="495.4" r="1.8" fill="#C15065"></circle><circle cx="178.1" cy="494" r="1.8" fill="#C15065"></circle><circle cx="183.3" cy="501.8" r="1.8" fill="#C15065"></circle><circle cx="188.4" cy="497.7" r="1.8" fill="#C15065"></circle><circle cx="193.6" cy="502.4" r="1.8" fill="#C15065"></circle><circle cx="198.7" cy="502.1" r="1.8" fill="#C15065"></circle><circle cx="203.8" cy="498.1" r="1.8" fill="#C15065"></circle><circle cx="209" cy="494.3" r="1.8" fill="#C15065"></circle><circle cx="214.1" cy="489.1" r="1.8" fill="#C15065"></circle><circle cx="219.2" cy="485" r="1.8" fill="#C15065"></circle><circle cx="224.4" cy="483.8" r="1.8" fill="#C15065"></circle><circle cx="229.5" cy="486.9" r="1.8" fill="#C15065"></circle><circle cx="234.7" cy="480.7" r="1.8" fill="#C15065"></circle><circle cx="239.8" cy="480.5" r="1.8" fill="#C15065"></circle><circle cx="244.9" cy="493" r="1.8" fill="#C15065"></circle><circle cx="250.1" cy="501.7" r="1.8" fill="#C15065"></circle><circle cx="255.2" cy="497.1" r="1.8" fill="#C15065"></circle><circle cx="260.3" cy="486.3" r="1.8" fill="#C15065"></circle><circle cx="265.5" cy="476.2" r="1.8" fill="#C15065"></circle><circle cx="270.6" cy="465.2" r="1.8" fill="#C15065"></circle><circle cx="275.8" cy="457" r="1.8" fill="#C15065"></circle><circle cx="280.9" cy="464.4" r="1.8" fill="#C15065"></circle><circle cx="286" cy="490.4" r="1.8" fill="#C15065"></circle><circle cx="291.2" cy="461.1" r="1.8" fill="#C15065"></circle><circle cx="296.3" cy="462.9" r="1.8" fill="#C15065"></circle><circle cx="301.4" cy="466.2" r="1.8" fill="#C15065"></circle><circle cx="306.6" cy="476.2" r="1.8" fill="#C15065"></circle><circle cx="311.7" cy="487.1" r="1.8" fill="#C15065"></circle><circle cx="316.9" cy="474.2" r="1.8" fill="#C15065"></circle><circle cx="322" cy="479.3" r="1.8" fill="#C15065"></circle><circle cx="327.1" cy="477.3" r="1.8" fill="#C15065"></circle><circle cx="332.3" cy="475.6" r="1.8" fill="#C15065"></circle><circle cx="337.4" cy="468.9" r="1.8" fill="#C15065"></circle><circle cx="342.5" cy="461.3" r="1.8" fill="#C15065"></circle><circle cx="347.7" cy="448" r="1.8" fill="#C15065"></circle><circle cx="352.8" cy="422.2" r="1.8" fill="#C15065"></circle><circle cx="358" cy="411.9" r="1.8" fill="#C15065"></circle><circle cx="363.1" cy="421" r="1.8" fill="#C15065"></circle><circle cx="368.2" cy="413.4" r="1.8" fill="#C15065"></circle><circle cx="373.4" cy="404.4" r="1.8" fill="#C15065"></circle><circle cx="378.5" cy="393.9" r="1.8" fill="#C15065"></circle><circle cx="383.6" cy="398.8" r="1.8" fill="#C15065"></circle><circle cx="388.8" cy="393.7" r="1.8" fill="#C15065"></circle><circle cx="393.9" cy="387.8" r="1.8" fill="#C15065"></circle><circle cx="399.1" cy="388" r="1.8" fill="#C15065"></circle><circle cx="404.2" cy="382.1" r="1.8" fill="#C15065"></circle><circle cx="409.3" cy="377.3" r="1.8" fill="#C15065"></circle><circle cx="414.5" cy="364.9" r="1.8" fill="#C15065"></circle><circle cx="419.6" cy="349.7" r="1.8" fill="#C15065"></circle><circle cx="424.7" cy="346.2" r="1.8" fill="#C15065"></circle><circle cx="429.9" cy="359.3" r="1.8" fill="#C15065"></circle><circle cx="435" cy="353.4" r="1.8" fill="#C15065"></circle><circle cx="440.2" cy="340.7" r="1.8" fill="#C15065"></circle><circle cx="445.3" cy="345.2" r="1.8" fill="#C15065"></circle><circle cx="450.4" cy="327.4" r="1.8" fill="#C15065"></circle><circle cx="455.6" cy="327.2" r="1.8" fill="#C15065"></circle><circle cx="460.7" cy="313.7" r="1.8" fill="#C15065"></circle><circle cx="465.9" cy="323.3" r="1.8" fill="#C15065"></circle><circle cx="471" cy="312.2" r="1.8" fill="#C15065"></circle><circle cx="476.1" cy="308.3" r="1.8" fill="#C15065"></circle><circle cx="481.3" cy="335.2" r="1.8" fill="#C15065"></circle><circle cx="486.4" cy="335.2" r="1.8" fill="#C15065"></circle><circle cx="491.5" cy="312.4" r="1.8" fill="#C15065"></circle><circle cx="496.7" cy="315.1" r="1.8" fill="#C15065"></circle><circle cx="501.8" cy="341.1" r="1.8" fill="#C15065"></circle><circle cx="507" cy="337.4" r="1.8" fill="#C15065"></circle><circle cx="512.1" cy="353.8" r="1.8" fill="#C15065"></circle><circle cx="517.2" cy="337" r="1.8" fill="#C15065"></circle><circle cx="522.4" cy="335.2" r="1.8" fill="#C15065"></circle><circle cx="527.5" cy="332.3" r="1.8" fill="#C15065"></circle><circle cx="532.6" cy="342.3" r="1.8" fill="#C15065"></circle><circle cx="537.8" cy="336" r="1.8" fill="#C15065"></circle><circle cx="542.9" cy="323.7" r="1.8" fill="#C15065"></circle><circle cx="548.1" cy="327.2" r="1.8" fill="#C15065"></circle><circle cx="553.2" cy="357.5" r="1.8" fill="#C15065"></circle><circle cx="558.3" cy="364.4" r="1.8" fill="#C15065"></circle><circle cx="563.5" cy="368.3" r="1.8" fill="#C15065"></circle><circle cx="568.6" cy="379.4" r="1.8" fill="#C15065"></circle><circle cx="573.7" cy="349.9" r="1.8" fill="#C15065"></circle><circle cx="578.9" cy="345.6" r="1.8" fill="#C15065"></circle><circle cx="584" cy="359.1" r="1.8" fill="#C15065"></circle><circle cx="589.2" cy="363" r="1.8" fill="#C15065"></circle><circle cx="594.3" cy="382.3" r="1.8" fill="#C15065"></circle><circle cx="599.4" cy="370.6" r="1.8" fill="#C15065"></circle><circle cx="604.6" cy="357.9" r="1.8" fill="#C15065"></circle><circle cx="609.7" cy="353.4" r="1.8" fill="#C15065"></circle><circle cx="614.8" cy="333.1" r="1.8" fill="#C15065"></circle><circle cx="620" cy="310.4" r="1.8" fill="#C15065"></circle><circle cx="625.1" cy="287.9" r="1.8" fill="#C15065"></circle><circle cx="630.3" cy="277.6" r="1.8" fill="#C15065"></circle><circle cx="635.4" cy="267.4" r="1.8" fill="#C15065"></circle><circle cx="640.5" cy="238.7" r="1.8" fill="#C15065"></circle><circle cx="645.7" cy="281.7" r="1.8" fill="#C15065"></circle><circle cx="650.8" cy="212.1" r="1.8" fill="#C15065"></circle><circle cx="655.9" cy="197.8" r="1.8" fill="#C15065"></circle><circle cx="661.1" cy="181.4" r="1.8" fill="#C15065"></circle><circle cx="666.2" cy="160.9" r="1.8" fill="#C15065"></circle><circle cx="671.4" cy="138.4" r="1.8" fill="#C15065"></circle><circle cx="676.5" cy="199.8" r="1.8" fill="#C15065"></circle><circle cx="681.6" cy="208" r="1.8" fill="#C15065"></circle><circle cx="686.8" cy="130.2" r="1.8" fill="#C15065"></circle><circle cx="691.9" cy="111.8" r="1.8" fill="#C15065"></circle><circle cx="697" cy="89.3" r="1.8" fill="#C15065"></circle><circle cx="702.2" cy="126.1" r="1.8" fill="#C15065"></circle><circle cx="707.3" cy="101.5" r="1.8" fill="#C15065"></circle><circle cx="712.5" cy="107.7" r="1.8" fill="#C15065"></circle><circle cx="717.6" cy="103.6" r="1.8" fill="#C15065"></circle></g></g><g id="line__United-States"><path id="outline" fill="none" stroke-linecap="butt" stroke-linejoin="round" stroke="#fff" stroke-width="2.5" d="M85.7 512.5L90.8 512.5L95.9 512.7L101.1 512.7L106.2 512.7L111.4 512.5L116.5 512.5L121.6 512.2L126.8 512.4L131.9 512.2L137 512.2L142.2 512.4L147.3 512.4L152.5 512.4L157.6 512.2L162.7 511.4L167.9 509.5L173 507.3L178.1 504.5L183.3 510.5L188.4 508.8L193.6 512.7L198.7 510.3L203.8 508.8L209 509.6L214.1 508.4L219.2 508.8L224.4 509.3L229.5 510.4L234.7 509.9L239.8 510.6L244.9 511.7L250.1 512.7L255.2 512.6L260.3 512.2L265.5 511.3L270.6 510.6L275.8 509.7L280.9 512.1L286 510.3L291.2 509.3L296.3 508.8L301.4 507.3L306.6 507.1L311.7 507.2L316.9 508.3L322 509.3L327.1 509.3L332.3 509L337.4 509.9L342.5 509.6L347.7 508.5L352.8 509.2L358 508.1L363.1 509.8L368.2 508.2L373.4 508.5L378.5 508.3L383.6 509.5L388.8 510.3L393.9 510.9L399.1 511.7L404.2 511.7L409.3 511.4L414.5 511.6L419.6 511.6L424.7 511.5L429.9 511.7L435 512.2L440.2 511.4L445.3 511.9L450.4 512.4L455.6 512.6L460.7 512.5L465.9 512.4L471 512.7L476.1 512.5L481.3 512.6L486.4 512.4L491.5 512.5L496.7 512.7L501.8 512.7L507 513L512.1 513L517.2 512.9L522.4 513.1L527.5 513.1L532.6 513.1L537.8 513.1L542.9 513.1L548.1 513.1L553.2 513.1L558.3 513.1L563.5 513.1L568.6 513.1L573.7 513.1L578.9 513.1L584 513.1L589.2 513.1L594.3 513.1L599.4 513.1L604.6 513.1L609.7 513.1L614.8 513.1L620 513.1L625.1 513.1L630.3 513.1L635.4 513.1L640.5 513.1L645.7 513.1L650.8 513.1L655.9 513.1L661.1 513.1L666.2 513.1L671.4 513.1L676.5 513.1L681.6 513.1L686.8 513.1L691.9 513.1L697 513.1L702.2 513.1L707.3 513.1L712.5 513.1L717.6 513.1"></path><g id="polyline"><polyline id="polyline" points="85.70,512.50 90.80,512.50 95.90,512.70 101.10,512.70 106.20,512.70 111.40,512.50 116.50,512.50 121.60,512.20 126.80,512.40 131.90,512.20 137.00,512.20 142.20,512.40 147.30,512.40 152.50,512.40 157.60,512.20 162.70,511.40 167.90,509.50 173.00,507.30 178.10,504.50 183.30,510.50 188.40,508.80 193.60,512.70 198.70,510.30 203.80,508.80 209.00,509.60 214.10,508.40 219.20,508.80 224.40,509.30 229.50,510.40 234.70,509.90 239.80,510.60 244.90,511.70 250.10,512.70 255.20,512.60 260.30,512.20 265.50,511.30 270.60,510.60 275.80,509.70 280.90,512.10 286.00,510.30 291.20,509.30 296.30,508.80 301.40,507.30 306.60,507.10 311.70,507.20 316.90,508.30 322.00,509.30 327.10,509.30 332.30,509.00 337.40,509.90 342.50,509.60 347.70,508.50 352.80,509.20 358.00,508.10 363.10,509.80 368.20,508.20 373.40,508.50 378.50,508.30 383.60,509.50 388.80,510.30 393.90,510.90 399.10,511.70 404.20,511.70 409.30,511.40 414.50,511.60 419.60,511.60 424.70,511.50 429.90,511.70 435.00,512.20 440.20,511.40 445.30,511.90 450.40,512.40 455.60,512.60 460.70,512.50 465.90,512.40 471.00,512.70 476.10,512.50 481.30,512.60 486.40,512.40 491.50,512.50 496.70,512.70 501.80,512.70 507.00,513.00 512.10,513.00 517.20,512.90 522.40,513.10 527.50,513.10 532.60,513.10 537.80,513.10 542.90,513.10 548.10,513.10 553.20,513.10 558.30,513.10 563.50,513.10 568.60,513.10 573.70,513.10 578.90,513.10 584.00,513.10 589.20,513.10 594.30,513.10 599.40,513.10 604.60,513.10 609.70,513.10 614.80,513.10 620.00,513.10 625.10,513.10 630.30,513.10 635.40,513.10 640.50,513.10 645.70,513.10 650.80,513.10 655.90,513.10 661.10,513.10 666.20,513.10 671.40,513.10 676.50,513.10 681.60,513.10 686.80,513.10 691.90,513.10 697.00,513.10 702.20,513.10 707.30,513.10 712.50,513.10 717.60,513.10" stroke-linejoin="round" stroke-width="1.5" stroke="#6D3E91" fill="none" stroke-linecap="butt"></polyline></g><g id="markers"><circle cx="85.7" cy="512.5" r="1.8" fill="#6D3E91"></circle><circle cx="90.8" cy="512.5" r="1.8" fill="#6D3E91"></circle><circle cx="95.9" cy="512.7" r="1.8" fill="#6D3E91"></circle><circle cx="101.1" cy="512.7" r="1.8" fill="#6D3E91"></circle><circle cx="106.2" cy="512.7" r="1.8" fill="#6D3E91"></circle><circle cx="111.4" cy="512.5" r="1.8" fill="#6D3E91"></circle><circle cx="116.5" cy="512.5" r="1.8" fill="#6D3E91"></circle><circle cx="121.6" cy="512.2" r="1.8" fill="#6D3E91"></circle><circle cx="126.8" cy="512.4" r="1.8" fill="#6D3E91"></circle><circle cx="131.9" cy="512.2" r="1.8" fill="#6D3E91"></circle><circle cx="137" cy="512.2" r="1.8" fill="#6D3E91"></circle><circle cx="142.2" cy="512.4" r="1.8" fill="#6D3E91"></circle><circle cx="147.3" cy="512.4" r="1.8" fill="#6D3E91"></circle><circle cx="152.5" cy="512.4" r="1.8" fill="#6D3E91"></circle><circle cx="157.6" cy="512.2" r="1.8" fill="#6D3E91"></circle><circle cx="162.7" cy="511.4" r="1.8" fill="#6D3E91"></circle><circle cx="167.9" cy="509.5" r="1.8" fill="#6D3E91"></circle><circle cx="173" cy="507.3" r="1.8" fill="#6D3E91"></circle><circle cx="178.1" cy="504.5" r="1.8" fill="#6D3E91"></circle><circle cx="183.3" cy="510.5" r="1.8" fill="#6D3E91"></circle><circle cx="188.4" cy="508.8" r="1.8" fill="#6D3E91"></circle><circle cx="193.6" cy="512.7" r="1.8" fill="#6D3E91"></circle><circle cx="198.7" cy="510.3" r="1.8" fill="#6D3E91"></circle><circle cx="203.8" cy="508.8" r="1.8" fill="#6D3E91"></circle><circle cx="209" cy="509.6" r="1.8" fill="#6D3E91"></circle><circle cx="214.1" cy="508.4" r="1.8" fill="#6D3E91"></circle><circle cx="219.2" cy="508.8" r="1.8" fill="#6D3E91"></circle><circle cx="224.4" cy="509.3" r="1.8" fill="#6D3E91"></circle><circle cx="229.5" cy="510.4" r="1.8" fill="#6D3E91"></circle><circle cx="234.7" cy="509.9" r="1.8" fill="#6D3E91"></circle><circle cx="239.8" cy="510.6" r="1.8" fill="#6D3E91"></circle><circle cx="244.9" cy="511.7" r="1.8" fill="#6D3E91"></circle><circle cx="250.1" cy="512.7" r="1.8" fill="#6D3E91"></circle><circle cx="255.2" cy="512.6" r="1.8" fill="#6D3E91"></circle><circle cx="260.3" cy="512.2" r="1.8" fill="#6D3E91"></circle><circle cx="265.5" cy="511.3" r="1.8" fill="#6D3E91"></circle><circle cx="270.6" cy="510.6" r="1.8" fill="#6D3E91"></circle><circle cx="275.8" cy="509.7" r="1.8" fill="#6D3E91"></circle><circle cx="280.9" cy="512.1" r="1.8" fill="#6D3E91"></circle><circle cx="286" cy="510.3" r="1.8" fill="#6D3E91"></circle><circle cx="291.2" cy="509.3" r="1.8" fill="#6D3E91"></circle><circle cx="296.3" cy="508.8" r="1.8" fill="#6D3E91"></circle><circle cx="301.4" cy="507.3" r="1.8" fill="#6D3E91"></circle><circle cx="306.6" cy="507.1" r="1.8" fill="#6D3E91"></circle><circle cx="311.7" cy="507.2" r="1.8" fill="#6D3E91"></circle><circle cx="316.9" cy="508.3" r="1.8" fill="#6D3E91"></circle><circle cx="322" cy="509.3" r="1.8" fill="#6D3E91"></circle><circle cx="327.1" cy="509.3" r="1.8" fill="#6D3E91"></circle><circle cx="332.3" cy="509" r="1.8" fill="#6D3E91"></circle><circle cx="337.4" cy="509.9" r="1.8" fill="#6D3E91"></circle><circle cx="342.5" cy="509.6" r="1.8" fill="#6D3E91"></circle><circle cx="347.7" cy="508.5" r="1.8" fill="#6D3E91"></circle><circle cx="352.8" cy="509.2" r="1.8" fill="#6D3E91"></circle><circle cx="358" cy="508.1" r="1.8" fill="#6D3E91"></circle><circle cx="363.1" cy="509.8" r="1.8" fill="#6D3E91"></circle><circle cx="368.2" cy="508.2" r="1.8" fill="#6D3E91"></circle><circle cx="373.4" cy="508.5" r="1.8" fill="#6D3E91"></circle><circle cx="378.5" cy="508.3" r="1.8" fill="#6D3E91"></circle><circle cx="383.6" cy="509.5" r="1.8" fill="#6D3E91"></circle><circle cx="388.8" cy="510.3" r="1.8" fill="#6D3E91"></circle><circle cx="393.9" cy="510.9" r="1.8" fill="#6D3E91"></circle><circle cx="399.1" cy="511.7" r="1.8" fill="#6D3E91"></circle><circle cx="404.2" cy="511.7" r="1.8" fill="#6D3E91"></circle><circle cx="409.3" cy="511.4" r="1.8" fill="#6D3E91"></circle><circle cx="414.5" cy="511.6" r="1.8" fill="#6D3E91"></circle><circle cx="419.6" cy="511.6" r="1.8" fill="#6D3E91"></circle><circle cx="424.7" cy="511.5" r="1.8" fill="#6D3E91"></circle><circle cx="429.9" cy="511.7" r="1.8" fill="#6D3E91"></circle><circle cx="435" cy="512.2" r="1.8" fill="#6D3E91"></circle><circle cx="440.2" cy="511.4" r="1.8" fill="#6D3E91"></circle><circle cx="445.3" cy="511.9" r="1.8" fill="#6D3E91"></circle><circle cx="450.4" cy="512.4" r="1.8" fill="#6D3E91"></circle><circle cx="455.6" cy="512.6" r="1.8" fill="#6D3E91"></circle><circle cx="460.7" cy="512.5" r="1.8" fill="#6D3E91"></circle><circle cx="465.9" cy="512.4" r="1.8" fill="#6D3E91"></circle><circle cx="471" cy="512.7" r="1.8" fill="#6D3E91"></circle><circle cx="476.1" cy="512.5" r="1.8" fill="#6D3E91"></circle><circle cx="481.3" cy="512.6" r="1.8" fill="#6D3E91"></circle><circle cx="486.4" cy="512.4" r="1.8" fill="#6D3E91"></circle><circle cx="491.5" cy="512.5" r="1.8" fill="#6D3E91"></circle><circle cx="496.7" cy="512.7" r="1.8" fill="#6D3E91"></circle><circle cx="501.8" cy="512.7" r="1.8" fill="#6D3E91"></circle><circle cx="507" cy="513" r="1.8" fill="#6D3E91"></circle><circle cx="512.1" cy="513" r="1.8" fill="#6D3E91"></circle><circle cx="517.2" cy="512.9" r="1.8" fill="#6D3E91"></circle><circle cx="522.4" cy="513.1" r="1.8" fill="#6D3E91"></circle><circle cx="527.5" cy="513.1" r="1.8" fill="#6D3E91"></circle><circle cx="532.6" cy="513.1" r="1.8" fill="#6D3E91"></circle><circle cx="537.8" cy="513.1" r="1.8" fill="#6D3E91"></circle><circle cx="542.9" cy="513.1" r="1.8" fill="#6D3E91"></circle><circle cx="548.1" cy="513.1" r="1.8" fill="#6D3E91"></circle><circle cx="553.2" cy="513.1" r="1.8" fill="#6D3E91"></circle><circle cx="558.3" cy="513.1" r="1.8" fill="#6D3E91"></circle><circle cx="563.5" cy="513.1" r="1.8" fill="#6D3E91"></circle><circle cx="568.6" cy="513.1" r="1.8" fill="#6D3E91"></circle><circle cx="573.7" cy="513.1" r="1.8" fill="#6D3E91"></circle><circle cx="578.9" cy="513.1" r="1.8" fill="#6D3E91"></circle><circle cx="584" cy="513.1" r="1.8" fill="#6D3E91"></circle><circle cx="589.2" cy="513.1" r="1.8" fill="#6D3E91"></circle><circle cx="594.3" cy="513.1" r="1.8" fill="#6D3E91"></circle><circle cx="599.4" cy="513.1" r="1.8" fill="#6D3E91"></circle><circle cx="604.6" cy="513.1" r="1.8" fill="#6D3E91"></circle><circle cx="609.7" cy="513.1" r="1.8" fill="#6D3E91"></circle><circle cx="614.8" cy="513.1" r="1.8" fill="#6D3E91"></circle><circle cx="620" cy="513.1" r="1.8" fill="#6D3E91"></circle><circle cx="625.1" cy="513.1" r="1.8" fill="#6D3E91"></circle><circle cx="630.3" cy="513.1" r="1.8" fill="#6D3E91"></circle><circle cx="635.4" cy="513.1" r="1.8" fill="#6D3E91"></circle><circle cx="640.5" cy="513.1" r="1.8" fill="#6D3E91"></circle><circle cx="645.7" cy="513.1" r="1.8" fill="#6D3E91"></circle><circle cx="650.8" cy="513.1" r="1.8" fill="#6D3E91"></circle><circle cx="655.9" cy="513.1" r="1.8" fill="#6D3E91"></circle><circle cx="661.1" cy="513.1" r="1.8" fill="#6D3E91"></circle><circle cx="666.2" cy="513.1" r="1.8" fill="#6D3E91"></circle><circle cx="671.4" cy="513.1" r="1.8" fill="#6D3E91"></circle><circle cx="676.5" cy="513.1" r="1.8" fill="#6D3E91"></circle><circle cx="681.6" cy="513.1" r="1.8" fill="#6D3E91"></circle><circle cx="686.8" cy="513.1" r="1.8" fill="#6D3E91"></circle><circle cx="691.9" cy="513.1" r="1.8" fill="#6D3E91"></circle><circle cx="697" cy="513.1" r="1.8" fill="#6D3E91"></circle><circle cx="702.2" cy="513.1" r="1.8" fill="#6D3E91"></circle><circle cx="707.3" cy="513.1" r="1.8" fill="#6D3E91"></circle><circle cx="712.5" cy="513.1" r="1.8" fill="#6D3E91"></circle><circle cx="717.6" cy="513.1" r="1.8" fill="#6D3E91"></circle></g></g></g></g></g></g><g id="footer" class="SourcesFooter" style="fill:#5b5b5b"><g id="sources" class="markdown-text-wrap"><text x="16.0" y="562.7" style="font-size:13.5px;line-height:1.2"><tspan x="16" y="562.7"><tspan style="font-weight:700">Data source:</tspan> USGS - Mineral Commodity Summaries (2024); USGS - Historical Statistics for Mineral and Material Commodities (2023)</tspan></text></g><text id="origin-url" font-size="13.50" x="16.0" y="580.9"><tspan x="16" y="580.8950000000001"><a target="_blank" style="fill: #5b5b5b;" href="https://creativecommons.org/licenses/by/4.0/">CC BY</a></tspan></text></g><line id="separator-line" x1="16" y1="600" x2="834" y2="600" stroke="#e7e7e7"></line><g id="details" transform="translate(15, 616)"><g class="markdown-text-wrap"><text x="0.0" y="12.0" style="font-size:12.375px;fill:#5b5b5b;line-height:1.2"><tspan x="0" y="12.0"><tspan style="font-weight:700">1.</tspan> <tspan style="font-weight:700">Refined production</tspan>: Refined production is the process of taking raw materials, such as metals extracted from ores, and purifying them to achieve</tspan><tspan x="0" y="26.9">a higher quality or more usable form. After metals are initially extracted from ore through processes like smelting, they often contain impurities or are</tspan><tspan x="0" y="41.7">not in the ideal form for manufacturing. Refining involves further processing these metals to remove impurities and adjust their composition to meet</tspan><tspan x="0" y="56.6">specific standards. Refined production is essential for transforming raw materials into high-quality metals that are crucial for industries and</tspan><tspan x="0" y="71.4">consumers, from manufacturing electronics to constructing buildings.</tspan></text></g></g></svg>