<svg xmlns="http://www.w3.org/2000/svg" version="1.1" style="font-family:Lato, &#x27;Helvetica Neue&#x27;, Helvetica, Arial, &#x27;Liberation Sans&#x27;, sans-serif;font-size:18px;background-color:white;text-rendering:geometricPrecision;-webkit-font-smoothing:antialiased" width="850" height="706.25" viewBox="0 0 850 706.25"><defs><style>@import url(https://ourworldindata.org/fonts.css)</style></defs><defs><pattern id="noDataPattern" patternUnits="userSpaceOnUse" width="4" height="4" patternTransform="rotate(-45 2 2)"><path d="M -1,2 l 6,0" stroke="#ccc" stroke-width="0.7"></path></pattern></defs><rect class="background-fill" fill="white" width="850" height="706.25"></rect><g id="header" class="HeaderView"><g id="logo" transform="translate(769, 16) scale(1)"><svg className="owidLogo" xmlns="http://www.w3.org/2000/svg" width="65" height="36" viewBox="0 0 65 36"  fill="none"><path fill="#002147" d="M0 0h64.8v36H0z"/><path fill="#CE261E" d="M0 33.3h64.8V36H0z"/><path fill="#fff" d="M13.796 10.575c0 .636-.106 1.226-.318 1.77a4.193 4.193 0 0 1-.894 1.404 4.084 4.084 0 0 1-1.386.93c-.54.22-1.138.33-1.794.33-.656 0-1.256-.11-1.8-.33a4.149 4.149 0 0 1-1.392-.93 4.193 4.193 0 0 1-.894-1.404A4.833 4.833 0 0 1 5 10.575c0-.636.106-1.224.318-1.764a4.18 4.18 0 0 1 .894-1.41 4.076 4.076 0 0 1 1.392-.924 4.684 4.684 0 0 1 1.8-.336c.656 0 1.254.112 1.794.336.54.224 1.002.534 1.386.93.384.392.682.86.894 1.404.212.54.318 1.128.318 1.764Zm-1.656 0c0-.476-.064-.902-.192-1.278a2.671 2.671 0 0 0-.54-.966 2.332 2.332 0 0 0-.864-.606 2.94 2.94 0 0 0-1.14-.21c-.424 0-.806.07-1.146.21-.34.14-.63.342-.87.606a2.742 2.742 0 0 0-.546.966 3.955 3.955 0 0 0-.192 1.278c0 .476.064.904.192 1.284.128.376.31.696.546.96.24.26.53.46.87.6.34.14.722.21 1.146.21.424 0 .804-.07 1.14-.21.34-.14.628-.34.864-.6.236-.264.416-.584.54-.96a4.01 4.01 0 0 0 .192-1.284ZM16.104 8.757v3.912c0 .376.086.668.258.876.176.204.438.306.786.306.256 0 .496-.056.72-.168a2.58 2.58 0 0 0 .636-.474V8.757h1.482v6.156h-.906c-.192 0-.318-.09-.378-.27l-.102-.492a4.65 4.65 0 0 1-.396.354 2.577 2.577 0 0 1-.438.27 2.35 2.35 0 0 1-.498.168 2.345 2.345 0 0 1-.57.066c-.336 0-.634-.056-.894-.168a1.821 1.821 0 0 1-.648-.486 2.157 2.157 0 0 1-.402-.738 3.233 3.233 0 0 1-.132-.948V8.757h1.482ZM21.328 14.913V8.757h.87c.152 0 .258.028.318.084.06.056.1.152.12.288l.09.744c.22-.38.478-.68.774-.9.296-.22.628-.33.996-.33.304 0 .556.07.756.21l-.192 1.11c-.012.072-.038.124-.078.156a.278.278 0 0 1-.162.042 1.01 1.01 0 0 1-.246-.042 1.646 1.646 0 0 0-.414-.042c-.308 0-.572.086-.792.258-.22.168-.406.416-.558.744v3.834h-1.482ZM27.347 6.237h1.356a.57.57 0 0 1 .348.102c.096.064.16.152.192.264l1.476 5.19c.036.128.068.268.096.42.032.148.062.306.09.474a5.968 5.968 0 0 1 .228-.894l1.704-5.19a.575.575 0 0 1 .186-.252.543.543 0 0 1 .348-.114h.474a.57.57 0 0 1 .348.102.497.497 0 0 1 .192.264l1.692 5.19c.088.256.164.54.228.852.028-.156.056-.306.084-.45.032-.144.064-.278.096-.402l1.476-5.19c.028-.1.09-.186.186-.258a.563.563 0 0 1 .348-.108h1.266l-2.694 8.676h-1.458l-1.896-5.928-.078-.246a9.504 9.504 0 0 1-.072-.282c-.024.1-.05.194-.078.282-.024.088-.048.17-.072.246l-1.914 5.928H30.04l-2.694-8.676ZM42.771 8.661c.46 0 .876.074 1.248.222.376.148.696.358.96.63s.468.604.612.996c.144.392.216.83.216 1.314 0 .488-.072.928-.216 1.32a2.85 2.85 0 0 1-.612 1.002 2.653 2.653 0 0 1-.96.636 3.35 3.35 0 0 1-1.248.222c-.46 0-.878-.074-1.254-.222a2.712 2.712 0 0 1-.966-.636 2.922 2.922 0 0 1-.618-1.002 3.807 3.807 0 0 1-.216-1.32c0-.484.072-.922.216-1.314.148-.392.354-.724.618-.996.268-.272.59-.482.966-.63a3.397 3.397 0 0 1 1.254-.222Zm0 5.202c.512 0 .89-.172 1.134-.516.248-.344.372-.848.372-1.512s-.124-1.17-.372-1.518c-.244-.348-.622-.522-1.134-.522-.52 0-.904.176-1.152.528-.248.348-.372.852-.372 1.512s.124 1.164.372 1.512c.248.344.632.516 1.152.516ZM46.723 14.913V8.757h.87c.152 0 .258.028.318.084.06.056.1.152.12.288l.09.744c.22-.38.478-.68.774-.9.296-.22.628-.33.996-.33.304 0 .556.07.756.21l-.192 1.11c-.012.072-.038.124-.078.156a.278.278 0 0 1-.162.042 1.01 1.01 0 0 1-.246-.042 1.646 1.646 0 0 0-.414-.042c-.308 0-.572.086-.792.258-.22.168-.406.416-.558.744v3.834h-1.482ZM52.96 5.997v8.916h-1.482V5.997h1.482ZM58.732 14.913c-.192 0-.318-.09-.378-.27l-.12-.594a3.68 3.68 0 0 1-.402.39c-.14.116-.292.216-.456.3-.16.084-.334.148-.522.192a2.372 2.372 0 0 1-.6.072c-.336 0-.644-.07-.924-.21a2.098 2.098 0 0 1-.726-.606 3.033 3.033 0 0 1-.468-.99 5.072 5.072 0 0 1-.162-1.344c0-.456.062-.88.186-1.272s.302-.732.534-1.02c.232-.288.51-.512.834-.672a2.384 2.384 0 0 1 1.092-.246 2.103 2.103 0 0 1 1.536.606V5.997h1.482v8.916h-.906Zm-1.974-1.086c.308 0 .57-.064.786-.192.216-.128.42-.31.612-.546v-2.76a1.452 1.452 0 0 0-.552-.432 1.597 1.597 0 0 0-.636-.126c-.224 0-.428.042-.612.126a1.21 1.21 0 0 0-.462.384c-.124.168-.22.384-.288.648-.068.26-.102.568-.102.924 0 .36.028.666.084.918.06.248.144.452.252.612.108.156.24.27.396.342.156.068.33.102.522.102ZM16.331 20.757v6.156H14.85v-6.156h1.481Zm.223-1.794a.844.844 0 0 1-.078.36.963.963 0 0 1-.21.294.995.995 0 0 1-.3.204.963.963 0 0 1-.372.072.948.948 0 0 1-.367-.072 1.018 1.018 0 0 1-.498-.498.963.963 0 0 1 0-.732.995.995 0 0 1 .205-.3.929.929 0 0 1 .293-.198.899.899 0 0 1 .738 0 .912.912 0 0 1 .3.198.943.943 0 0 1 .288.672ZM17.771 26.913v-6.156h.906c.192 0 .318.09.378.27l.102.486a2.934 2.934 0 0 1 .828-.618c.156-.076.322-.134.498-.174.176-.04.368-.06.576-.06.336 0 .634.058.894.174.26.112.476.272.648.48.176.204.308.45.396.738.092.284.138.598.138.942v3.918h-1.482v-3.918c0-.376-.088-.666-.264-.87-.172-.208-.432-.312-.78-.312-.256 0-.496.058-.72.174a2.58 2.58 0 0 0-.636.474v4.452h-1.482ZM34.22 22.575c0 .636-.106 1.22-.318 1.752-.212.532-.51.99-.894 1.374a4 4 0 0 1-1.386.894 4.87 4.87 0 0 1-1.794.318h-3.312v-8.676h3.312a4.79 4.79 0 0 1 1.794.324 4 4 0 0 1 1.386.894c.384.38.682.836.894 1.368.212.532.318 1.116.318 1.752Zm-1.65 0c0-.476-.064-.902-.192-1.278a2.68 2.68 0 0 0-.546-.96 2.332 2.332 0 0 0-.864-.606 2.94 2.94 0 0 0-1.14-.21h-1.686v6.108h1.686c.424 0 .804-.07 1.14-.21.34-.14.628-.34.864-.6a2.75 2.75 0 0 0 .546-.96 4.01 4.01 0 0 0 .192-1.284ZM39.98 26.913h-.665c-.14 0-.25-.02-.33-.06-.08-.044-.14-.13-.18-.258l-.132-.438c-.156.14-.31.264-.462.372a2.804 2.804 0 0 1-.462.264c-.16.072-.33.126-.51.162-.18.036-.38.054-.6.054-.26 0-.5-.034-.72-.102a1.618 1.618 0 0 1-.57-.318 1.448 1.448 0 0 1-.366-.522 1.852 1.852 0 0 1-.132-.726c0-.232.06-.46.18-.684.124-.228.328-.432.612-.612.284-.184.662-.336 1.134-.456.472-.12 1.058-.188 1.758-.204v-.36c0-.412-.088-.716-.264-.912-.172-.2-.424-.3-.756-.3a1.837 1.837 0 0 0-1.02.276c-.116.068-.224.13-.324.186a.664.664 0 0 1-.33.084.429.429 0 0 1-.258-.078.614.614 0 0 1-.174-.192l-.27-.474c.708-.648 1.562-.972 2.562-.972.36 0 .68.06.96.18.284.116.524.28.72.492.196.208.344.458.444.75.104.292.156.612.156.96v3.888Zm-2.88-.924c.153 0 .293-.014.42-.042.129-.028.249-.07.36-.126.117-.056.227-.124.33-.204.109-.084.217-.182.325-.294v-1.038c-.432.02-.794.058-1.086.114-.288.052-.52.12-.696.204a.923.923 0 0 0-.378.294.664.664 0 0 0-.108.366c0 .26.076.446.228.558.156.112.358.168.606.168ZM43.22 27.01c-.532 0-.942-.15-1.23-.45-.288-.305-.432-.723-.432-1.255v-3.438h-.624a.31.31 0 0 1-.21-.078c-.056-.052-.084-.13-.084-.234v-.588l.99-.162.312-1.68a.302.302 0 0 1 .108-.186.365.365 0 0 1 .222-.066h.768v1.938h1.62v1.056h-1.62v3.336c0 .192.048.342.144.45a.488.488 0 0 0 .384.162c.092 0 .168-.01.228-.03.064-.024.118-.048.162-.072.048-.024.09-.046.126-.066a.194.194 0 0 1 .108-.036.16.16 0 0 1 .108.036c.028.02.058.052.09.096l.444.72c-.216.18-.464.316-.744.408a2.77 2.77 0 0 1-.87.138ZM50.423 26.913h-.666c-.14 0-.25-.02-.33-.06-.08-.044-.14-.13-.18-.258l-.132-.438c-.156.14-.31.264-.462.372a2.804 2.804 0 0 1-.462.264c-.16.072-.33.126-.51.162-.18.036-.38.054-.6.054-.26 0-.5-.034-.72-.102a1.618 1.618 0 0 1-.57-.318 1.448 1.448 0 0 1-.366-.522 1.852 1.852 0 0 1-.132-.726c0-.232.06-.46.18-.684.124-.228.328-.432.612-.612.284-.184.662-.336 1.134-.456.472-.12 1.058-.188 1.758-.204v-.36c0-.412-.088-.716-.264-.912-.172-.2-.424-.3-.756-.3a1.837 1.837 0 0 0-1.02.276c-.116.068-.224.13-.324.186a.664.664 0 0 1-.33.084.429.429 0 0 1-.258-.078.614.614 0 0 1-.174-.192l-.27-.474c.708-.648 1.562-.972 2.562-.972.36 0 .68.06.96.18.284.116.524.28.72.492.196.208.344.458.444.75.104.292.156.612.156.96v3.888Zm-2.88-.924c.152 0 .292-.014.42-.042.128-.028.248-.07.36-.126.116-.056.226-.124.33-.204.108-.084.216-.182.324-.294v-1.038c-.432.02-.794.058-1.086.114-.288.052-.52.12-.696.204a.923.923 0 0 0-.378.294.664.664 0 0 0-.108.366c0 .26.076.446.228.558.156.112.358.168.606.168Z"/></svg></g><a id="title" href="https://ourworldindata.org/explorers/minerals?Mineral=Iron+ore&amp;Metric=Production&amp;Type=Mine%2C+crude+ore&amp;Share+of+global=false&amp;country=AUS~CHL~CHN~USA~CAN~ALB~DZA~ARG~ARM~AUT~AZE~BOL~OWID_WRL~BWA~BRA~BGR~COL~COG~CUB~CYP~OWID_CZS~COD~DOM~OWID_GDR~ZWE~ZMB~OWID_YGS~OWID_GFR~VNM~UZB~GBR~UGA~OWID_USS~TUR~TZA~TJK~TWN~SWE~ESP~KOR~ZAF~SVK~OWID_SRM~SRB~SAU~RUS~ROU~PRT~POL~PHL~PER~PNG~PAN~PAK~OMN~NOR~MKD~PRK~NIC~NZL~NAM~MMR~MOZ~MAR~MNG~MEX~MRT~MYS~LAO~KGZ~KEN~KAZ~JPN~ITA~ISR~IRL~IRN~IDN~IND~HUN~HND~HTI~GTM~GRC~DEU~GEO~FRA~FIN~ERI~ECU~VEN~ARE~UKR~CHE~SUR~LKA~SVN~QAT~NGA~NLD~MNE~ISL~GHA~EGY~HRV~CMR~BIH~BHR~AFG~OWID_KOS~MDG~NCL~SDN~Other~CZE~THA~TUN" style="font-family:&#x27;Playfair Display&#x27;, Georgia, &#x27;Times New Roman&#x27;, &#x27;Liberation Serif&#x27;, serif" target="_blank" rel="noopener"><text font-size="24.75" font-weight="600" x="16.0" y="40.0" fill="#5b5b5b"><tspan x="16" y="40.0075">Iron ore (crude ore) production, 1900 to 2023</tspan></text></a><g id="subtitle" class="markdown-text-wrap"><text x="16.0" y="63.9" style="font-size:14.625px;line-height:1.2" fill="#5b5b5b"><tspan x="16" y="63.9">Based on mined, rather than <tspan class="dod-span" data-id="refined-production">refined<tspan style="font-feature-settings:&quot;sups&quot;">ยน</tspan></tspan>, production. Measured in tonnes.</tspan></text></g></g><g id="chart-area" style="pointer-events:none"><g id="line-chart" class="LineChart"><defs><clipPath id="boundsClip-54"><rect x="83.22500000000001" y="73.25" width="838" height="470.35"></rect></clipPath></defs><rect x="16" y="83.25" width="818" height="450.35" fill="none"></rect><g id="dual-axis" class="DualAxisView"><g id="horizontal-axis" class="HorizontalAxis"><g id="tick__1900"><line x1="93.2" y1="512.6" x2="93.2" y2="518.1" stroke="#999" stroke-width="1"></line><text x="93.22500000000001" y="531.6" fill="#5b5b5b" text-anchor="start" font-size="13.5">1900</text></g><g id="tick__2023"><line x1="717.6" y1="512.6" x2="717.6" y2="518.1" stroke="#999" stroke-width="1"></line><text x="717.595" y="531.6" fill="#5b5b5b" text-anchor="end" font-size="13.5">2023</text></g><g id="tick__1920"><line x1="194.7" y1="512.6" x2="194.7" y2="518.1" stroke="#999" stroke-width="1"></line><text x="194.7" y="531.6" fill="#5b5b5b" text-anchor="middle" font-size="13.5">1920</text></g><g id="tick__1940"><line x1="296.3" y1="512.6" x2="296.3" y2="518.1" stroke="#999" stroke-width="1"></line><text x="296.3" y="531.6" fill="#5b5b5b" text-anchor="middle" font-size="13.5">1940</text></g><g id="tick__1960"><line x1="397.8" y1="512.6" x2="397.8" y2="518.1" stroke="#999" stroke-width="1"></line><text x="397.8" y="531.6" fill="#5b5b5b" text-anchor="middle" font-size="13.5">1960</text></g><g id="tick__1980"><line x1="499.3" y1="512.6" x2="499.3" y2="518.1" stroke="#999" stroke-width="1"></line><text x="499.3" y="531.6" fill="#5b5b5b" text-anchor="middle" font-size="13.5">1980</text></g><g id="tick__2000"><line x1="600.8" y1="512.6" x2="600.8" y2="518.1" stroke="#999" stroke-width="1"></line><text x="600.8" y="531.6" fill="#5b5b5b" text-anchor="middle" font-size="13.5">2000</text></g></g><g id="vertical-axis" class="VerticalAxis"><g id="tick-labels"><text id="tick-label__0-t" x="88.23" y="513.1" dy=".32em" text-anchor="end" fill="#5b5b5b" font-size="13.5">0 t</text><text id="tick-label__500-million-t" x="88.23" y="434" dy=".32em" text-anchor="end" fill="#5b5b5b" font-size="13.5">500 million t</text><text id="tick-label__1-billion-t" x="88.23" y="354.9" dy=".32em" text-anchor="end" fill="#5b5b5b" font-size="13.5">1 billion t</text><text id="tick-label__1__002e5-billion-t" x="88.23" y="275.9" dy=".32em" text-anchor="end" fill="#5b5b5b" font-size="13.5">1.5 billion t</text><text id="tick-label__2-billion-t" x="88.23" y="196.8" dy=".32em" text-anchor="end" fill="#5b5b5b" font-size="13.5">2 billion t</text><text id="tick-label__2__002e5-billion-t" x="88.23" y="117.7" dy=".32em" text-anchor="end" fill="#5b5b5b" font-size="13.5">2.5 billion t</text></g></g><g id="horizontal-grid-lines" class="AxisGridLines horizontalLines"><line id="grid-line__0" x1="93.23" y1="513.1" x2="717.60" y2="513.1" stroke="#999" stroke-width="1"></line><line id="grid-line__500000000" x1="93.23" y1="434" x2="717.60" y2="434" stroke="#ddd" stroke-width="1" stroke-dasharray="3,2"></line><line id="grid-line__1000000000" x1="93.23" y1="354.9" x2="717.60" y2="354.9" stroke="#ddd" stroke-width="1" stroke-dasharray="3,2"></line><line id="grid-line__1500000000" x1="93.23" y1="275.9" x2="717.60" y2="275.9" stroke="#ddd" stroke-width="1" stroke-dasharray="3,2"></line><line id="grid-line__2000000000" x1="93.23" y1="196.8" x2="717.60" y2="196.8" stroke="#ddd" stroke-width="1" stroke-dasharray="3,2"></line><line id="grid-line__2500000000" x1="93.23" y1="117.7" x2="717.60" y2="117.7" stroke="#ddd" stroke-width="1" stroke-dasharray="3,2"></line></g></g><g clip-path="url(#boundsClip-54)"><g id="line-labels" class="LineLabels"><g id="mark__World" class="legendMark" style="cursor:default"><g id="connector" class="indicator"><path d="M721.595,117.7 H735.095 V117.7 H748.595" stroke="#999" stroke-width="0.5" fill="none"></path></g><rect id="background" x="717.595" y="110.95" width="70.235" height="13.5" fill="#fff" opacity="0"></rect><text id="label" font-size="13.50" font-weight="400" x="752.6" y="122.7" fill="#c15065"><tspan x="752.595" y="122.69500000000001">World</tspan></text></g><g id="mark__Australia" class="legendMark" style="cursor:default"><g id="connector" class="indicator"><path d="M721.595,361.3 H723.1832352941177 V263.34999999999997 H748.595" stroke="#999" stroke-width="0.5" fill="none"></path></g><rect id="background" x="717.595" y="256.59999999999997" width="87.65" height="13.5" fill="#fff" opacity="0"></rect><text id="label" font-size="13.50" font-weight="400" x="752.6" y="268.3" fill="#2c8465"><tspan x="752.595" y="268.34499999999997">Australia</tspan></text></g><g id="mark__Brazil" class="legendMark" style="cursor:default"><g id="connector" class="indicator"><path d="M721.595,443.5 H724.7714705882354 V278.84999999999997 H748.595" stroke="#999" stroke-width="0.5" fill="none"></path></g><rect id="background" x="717.595" y="272.09999999999997" width="68.75" height="13.5" fill="#fff" opacity="0"></rect><text id="label" font-size="13.50" font-weight="400" x="752.6" y="283.8" fill="#578145"><tspan x="752.595" y="283.84499999999997">Brazil</tspan></text></g><g id="mark__China" class="legendMark" style="cursor:default"><g id="connector" class="indicator"><path d="M721.595,468.8 H726.359705882353 V294.34999999999997 H748.595" stroke="#999" stroke-width="0.5" fill="none"></path></g><rect id="background" x="717.595" y="287.59999999999997" width="70.37" height="13.5" fill="#fff" opacity="0"></rect><text id="label" font-size="13.50" font-weight="400" x="752.6" y="299.3" fill="#cf0a66"><tspan x="752.595" y="299.34499999999997">China</tspan></text></g><g id="mark__India" class="legendMark" style="cursor:default"><g id="connector" class="indicator"><path d="M721.595,470.4 H727.9479411764706 V309.84999999999997 H748.595" stroke="#999" stroke-width="0.5" fill="none"></path></g><rect id="background" x="717.595" y="303.09999999999997" width="64.43" height="13.5" fill="#fff" opacity="0"></rect><text id="label" font-size="13.50" font-weight="400" x="752.6" y="314.8" fill="#286bbb"><tspan x="752.595" y="314.84499999999997">India</tspan></text></g><g id="mark__Russia" class="legendMark" style="cursor:default"><g id="connector" class="indicator"><path d="M721.595,499.2 H729.5361764705883 V325.34999999999997 H748.595" stroke="#999" stroke-width="0.5" fill="none"></path></g><rect id="background" x="717.595" y="318.59999999999997" width="76.31" height="13.5" fill="#fff" opacity="0"></rect><text id="label" font-size="13.50" font-weight="400" x="752.6" y="330.3" fill="#8c4569"><tspan x="752.595" y="330.34499999999997">Russia</tspan></text></g><g id="mark__Iran" class="legendMark" style="cursor:default"><g id="connector" class="indicator"><path d="M721.595,500.9 H731.124411764706 V340.84999999999997 H748.595" stroke="#999" stroke-width="0.5" fill="none"></path></g><rect id="background" x="717.595" y="334.09999999999997" width="58.355000000000004" height="13.5" fill="#fff" opacity="0"></rect><text id="label" font-size="13.50" font-weight="400" x="752.6" y="345.8" fill="#cf0a66"><tspan x="752.595" y="345.84499999999997">Iran</tspan></text></g><g id="mark__Canada" class="legendMark" style="cursor:default"><g id="connector" class="indicator"><path d="M721.595,502 H732.7126470588236 V356.34999999999997 H748.595" stroke="#999" stroke-width="0.5" fill="none"></path></g><rect id="background" x="717.595" y="349.59999999999997" width="82.52000000000001" height="13.5" fill="#fff" opacity="0"></rect><text id="label" font-size="13.50" font-weight="400" x="752.6" y="361.3" fill="#18470f"><tspan x="752.595" y="361.34499999999997">Canada</tspan></text></g><g id="mark__South-Africa" class="legendMark" style="cursor:default"><g id="connector" class="indicator"><path d="M721.595,503.5 H734.3008823529412 V371.84999999999997 H748.595" stroke="#999" stroke-width="0.5" fill="none"></path></g><rect id="background" x="717.595" y="365.09999999999997" width="108.845" height="13.5" fill="#fff" opacity="0"></rect><text id="label" font-size="13.50" font-weight="400" x="752.6" y="376.8" fill="#00847e"><tspan x="752.595" y="376.84499999999997">South Africa</tspan></text></g><g id="mark__Kazakhstan" class="legendMark" style="cursor:default"><g id="connector" class="indicator"><path d="M721.595,504.7 H735.8891176470589 V387.34999999999997 H748.595" stroke="#999" stroke-width="0.5" fill="none"></path></g><rect id="background" x="717.595" y="380.59999999999997" width="105.875" height="13.5" fill="#fff" opacity="0"></rect><text id="label" font-size="13.50" font-weight="400" x="752.6" y="392.3" fill="#d73c50"><tspan x="752.595" y="392.34499999999997">Kazakhstan</tspan></text></g><g id="mark__Other" class="legendMark" style="cursor:default"><g id="connector" class="indicator"><path d="M721.595,505.5 H737.4773529411765 V402.84999999999997 H748.595" stroke="#999" stroke-width="0.5" fill="none"></path></g><rect id="background" x="717.595" y="396.09999999999997" width="68.885" height="13.5" fill="#fff" opacity="0"></rect><text id="label" font-size="13.50" font-weight="400" x="752.6" y="407.8" fill="#b16214"><tspan x="752.595" y="407.84499999999997">Other</tspan></text></g><g id="mark__United-States" class="legendMark" style="cursor:default"><g id="connector" class="indicator"><path d="M721.595,506.1 H739.0655882352942 V418.34999999999997 H748.595" stroke="#999" stroke-width="0.5" fill="none"></path></g><rect id="background" x="717.595" y="411.59999999999997" width="116.405" height="13.5" fill="#fff" opacity="0"></rect><text id="label" font-size="13.50" font-weight="400" x="752.6" y="423.3" fill="#6d3e91"><tspan x="752.595" y="423.34499999999997">United States</tspan></text></g><g id="mark__Sweden" class="legendMark" style="cursor:default"><g id="connector" class="indicator"><path d="M721.595,507.1 H740.6538235294119 V433.84999999999997 H748.595" stroke="#999" stroke-width="0.5" fill="none"></path></g><rect id="background" x="717.595" y="427.09999999999997" width="84.005" height="13.5" fill="#fff" opacity="0"></rect><text id="label" font-size="13.50" font-weight="400" x="752.6" y="438.8" fill="#008291"><tspan x="752.595" y="438.84499999999997">Sweden</tspan></text></g><g id="mark__Ukraine" class="legendMark" style="cursor:default"><g id="connector" class="indicator"><path d="M721.595,507.4 H742.2420588235294 V449.34999999999997 H748.595" stroke="#999" stroke-width="0.5" fill="none"></path></g><rect id="background" x="717.595" y="442.59999999999997" width="81.575" height="13.5" fill="#fff" opacity="0"></rect><text id="label" font-size="13.50" font-weight="400" x="752.6" y="454.3" fill="#b16214"><tspan x="752.595" y="454.34499999999997">Ukraine</tspan></text></g><g id="mark__Peru" class="legendMark" style="cursor:default"><g id="connector" class="indicator"><path d="M721.595,510.1 H743.8302941176471 V464.84999999999997 H748.595" stroke="#999" stroke-width="0.5" fill="none"></path></g><rect id="background" x="717.595" y="458.09999999999997" width="63.620000000000005" height="13.5" fill="#fff" opacity="0"></rect><text id="label" font-size="13.50" font-weight="400" x="752.6" y="469.8" fill="#be5915"><tspan x="752.595" y="469.84499999999997">Peru</tspan></text></g><g id="mark__Chile" class="legendMark" style="cursor:default"><g id="connector" class="indicator"><path d="M721.595,510.3 H745.4185294117648 V480.34999999999997 H748.595" stroke="#999" stroke-width="0.5" fill="none"></path></g><rect id="background" x="717.595" y="473.59999999999997" width="65.78" height="13.5" fill="#fff" opacity="0"></rect><text id="label" font-size="13.50" font-weight="400" x="752.6" y="485.3" fill="#be5915"><tspan x="752.595" y="485.34499999999997">Chile</tspan></text></g><g id="mark__Turkey" class="legendMark" style="cursor:default"><g id="connector" class="indicator"><path d="M721.595,510.4 H747.0067647058825 V495.84999999999997 H748.595" stroke="#999" stroke-width="0.5" fill="none"></path></g><rect id="background" x="717.595" y="489.09999999999997" width="76.31" height="13.5" fill="#fff" opacity="0"></rect><text id="label" font-size="13.50" font-weight="400" x="752.6" y="500.8" fill="#00295b"><tspan x="752.595" y="500.84499999999997">Turkey</tspan></text></g><g id="mark__Mauritania" class="legendMark" style="cursor:default"><g id="connector" class="indicator"><path d="M721.595,511 H747.0067647058825 V511.34999999999997 H748.595" stroke="#999" stroke-width="0.5" fill="none"></path></g><rect id="background" x="717.595" y="504.59999999999997" width="98.18" height="13.5" fill="#fff" opacity="0"></rect><text id="label" font-size="13.50" font-weight="400" x="752.6" y="516.3" fill="#4c6a9c"><tspan x="752.595" y="516.3449999999999">Mauritania</tspan></text></g><g id="mark__Mexico" class="legendMark" style="cursor:default"><g id="connector" class="indicator"><path d="M721.595,511.2 H745.4185294117648 V526.8499999999999 H748.595" stroke="#999" stroke-width="0.5" fill="none"></path></g><rect id="background" x="717.595" y="520.0999999999999" width="77.795" height="13.5" fill="#fff" opacity="0"></rect><text id="label" font-size="13.50" font-weight="400" x="752.6" y="531.8" fill="#b13507"><tspan x="752.595" y="531.8449999999999">Mexico</tspan></text></g></g><g id="lines" class="Lines"><rect x="93" y="89" width="624" height="424" fill="rgba(255,255,255,0)" opacity="0"></rect><g id="line__Mauritania"><path stroke-linecap="round" stroke-linejoin="round" stroke="#ddd" d="M707.4 511.1L712.5 511.1L717.6 511" fill="none" stroke-width="1"></path></g><g id="line__Ukraine"><path stroke-linecap="round" stroke-linejoin="round" stroke="#ddd" d="M702.4 500.6L707.4 499.8L712.5 507.7L717.6 507.4" fill="none" stroke-width="1"></path></g><g id="line__Turkey"><path stroke-linecap="round" stroke-linejoin="round" stroke="#ddd" d="M702.4 510.7L707.4 510.6L712.5 510.3L717.6 510.4" fill="none" stroke-width="1"></path></g><g id="line__Sweden"><path stroke-linecap="round" stroke-linejoin="round" stroke="#ddd" d="M702.4 507.4L707.4 506.7L712.5 506.9L717.6 507.1" fill="none" stroke-width="1"></path></g><g id="line__South-Africa"><path stroke-linecap="round" stroke-linejoin="round" stroke="#ddd" d="M702.4 504.3L707.4 501.5L712.5 503L717.6 503.5" fill="none" stroke-width="1"></path></g><g id="line__Russia"><path stroke-linecap="round" stroke-linejoin="round" stroke="#ddd" d="M702.4 497.3L707.4 497.9L712.5 499.8L717.6 499.2" fill="none" stroke-width="1"></path></g><g id="line__Peru"><path stroke-linecap="round" stroke-linejoin="round" stroke="#ddd" d="M702.4 511L707.4 510.2L712.5 510L717.6 510.1" fill="none" stroke-width="1"></path></g><g id="line__Other"><path stroke-linecap="round" stroke-linejoin="round" stroke="#ddd" d="M702.4 502.1L707.4 504.1L712.5 504.1L717.6 505.5" fill="none" stroke-width="1"></path></g><g id="line__Mexico"><path stroke-linecap="round" stroke-linejoin="round" stroke="#ddd" d="M702.4 510.7L707.4 511.4L712.5 511.4L717.6 511.2" fill="none" stroke-width="1"></path></g><g id="line__Kazakhstan"><path stroke-linecap="round" stroke-linejoin="round" stroke="#ddd" d="M702.4 503.2L707.4 503L712.5 504.6L717.6 504.7" fill="none" stroke-width="1"></path></g><g id="line__Iran"><path stroke-linecap="round" stroke-linejoin="round" stroke="#ddd" d="M702.4 505.3L707.4 501.6L712.5 500.7L717.6 500.9" fill="none" stroke-width="1"></path></g><g id="line__India"><path stroke-linecap="round" stroke-linejoin="round" stroke="#ddd" d="M702.4 480.8L707.4 469.9L712.5 473.4L717.6 470.4" fill="none" stroke-width="1"></path></g><g id="line__China"><path stroke-linecap="round" stroke-linejoin="round" stroke="#ddd" d="M702.4 456.2L707.4 450.8L712.5 470.1L717.6 468.8" fill="none" stroke-width="1"></path></g><g id="line__Chile"><path stroke-linecap="round" stroke-linejoin="round" stroke="#ddd" d="M702.4 510.6L707.4 510.3L712.5 510.3L717.6 510.3" fill="none" stroke-width="1"></path></g><g id="line__Canada"><path stroke-linecap="round" stroke-linejoin="round" stroke="#ddd" d="M702.4 503.6L707.4 504L712.5 502.2L717.6 502" fill="none" stroke-width="1"></path></g><g id="line__Brazil"><path stroke-linecap="round" stroke-linejoin="round" stroke="#ddd" d="M702.4 451.7L707.4 444.9L712.5 444.3L717.6 443.5" fill="none" stroke-width="1"></path></g><g id="line__Australia"><path stroke-linecap="round" stroke-linejoin="round" stroke="#ddd" d="M702.4 368.9L707.4 368.9L712.5 363.8L717.6 361.3" fill="none" stroke-width="1"></path></g><g id="line__World"><path stroke-linecap="round" stroke-linejoin="round" stroke="#ddd" d="M113.5 498L118.6 494.8L123.7 497.3L128.8 491.7L133.8 495.9L138.9 493.2L144 490.6L149.1 492.1L154.1 489.2L159.2 485.1L164.3 494.4L169.4 494.8L174.4 491.1L179.5 490.6L184.6 493L189.7 495.7L194.7 493.5L199.8 501.6L204.9 496.7L210 491.6L215.1 492.5L220.1 489.2L225.2 488.6L230.3 486.1L235.4 485.6L240.4 481.3L245.5 484.8L250.6 494.3L255.7 501L260.7 498.7L265.8 494.1L270.9 491.3L276 486.2L281 479.6L286.1 487.5L291.2 481.5L296.3 479.6L301.3 476.3L306.4 475.9L311.5 477.2L316.6 481.6L321.7 488L326.7 488.7L331.8 484L336.9 479.7L342 477.8L347 473.6L352.1 466.6L357.2 466L362.3 460.8L367.3 465.5L372.4 455.5L377.5 451.6L382.6 446.2L387.6 450.3L392.7 444.8L397.8 431.8L402.9 434.8L407.9 434.2L413 432.4L418.1 422.5L423.2 416.5L428.3 414.1L433.3 415.7L438.4 407.5L443.5 402.2L448.6 393.4L453.6 391.8L458.7 393.4L463.8 381.5L468.9 373.8L473.9 372.7L479 373L484.1 379.6L489.2 381.4L494.2 371.1L499.3 373.3L504.4 379.8L509.5 389.3L514.5 398L519.6 382.9L524.7 379.5L529.8 377.9L534.9 375.7L539.9 360.2L545 355.1L550.1 357.8L555.2 361.9L560.2 366L565.3 362.4L570.4 357.8L575.5 351.8L580.5 351.8L585.6 348.6L590.7 347L595.8 351.8L600.8 359.8L605.9 364.9L611 357.8L616.1 342.3L621.1 323.3L626.2 304.3L631.3 280.6L636.4 247.4L641.5 239.5L646.5 242.7L651.6 217.4L656.7 192L661.8 185.7L666.8 160.4L671.9 138.3L677 138.3L682.1 138.3L687.1 127.2L692.2 124L697.3 125.6L702.4 122.5L707.4 89.3L712.5 117.7L717.6 117.7" fill="none" stroke-width="1"></path></g><g id="line__United-States"><path stroke-linecap="round" stroke-linejoin="round" stroke="#ddd" d="M93.2 508.7L98.3 508.5L103.4 507.4L108.5 507.5L113.5 508.7L118.6 506.3L123.7 505.4L128.8 504.8L133.8 507.3L138.9 504.9L144 504L149.1 506L154.1 504.2L159.2 503.1L164.3 506.4L169.4 504.2L174.4 501L179.5 501L184.6 501.9L189.7 503.3L194.7 502.2L199.8 508.4L204.9 505.5L210 502L215.1 504.4L220.1 503.2L225.2 502.2L230.3 503.6L235.4 503.1L240.4 501.4L245.5 503.7L250.6 508.1L255.7 511.6L260.7 510.3L265.8 509.1L270.9 508.2L276 505.3L281 501.5L286.1 508.5L291.2 504.8L296.3 501.3L301.3 498.2L306.4 496.2L311.5 496.8L316.6 498L321.7 498.9L326.7 501.7L331.8 498.1L336.9 496.8L342 499.5L347 497.3L352.1 494.4L357.2 497.4L362.3 494.1L367.3 500.5L372.4 496.5L377.5 497.4L382.6 496L387.6 502.2L392.7 503.4L397.8 498.8L402.9 501.6L407.9 501.6L413 501.3L418.1 499.5L423.2 499.1L428.3 498.6L433.3 499.6L438.4 499.3L443.5 498.9L448.6 498.7L453.6 500.1L458.7 501L463.8 499L468.9 499.5L473.9 500.4L479 500.2L484.1 504.1L489.2 500L494.2 499.3L499.3 501.9L504.4 501.3L509.5 507.4L514.5 507.1L519.6 504.9L524.7 505.3L529.8 506.9L534.9 505.6L539.9 504L545 503.8L550.1 504.2L555.2 504.1L560.2 504.3L565.3 504.3L570.4 503.8L575.5 503.2L580.5 503.3L585.6 503.1L590.7 503.2L595.8 504L600.8 503.1L605.9 505.8L611 504.9L616.1 505.4L621.1 504.4L626.2 504.5L631.3 504.8L636.4 504.8L641.5 504.6L646.5 508.9L651.6 505.2L656.7 504.2L661.8 504.4L666.8 504.7L671.9 504.2L677 505.8L682.1 506.5L687.1 505.5L692.2 505.3L697.3 505.7L702.4 507.1L707.4 505.6L712.5 506.9L717.6 506.1" fill="none" stroke-width="1"></path></g><g id="line__Mauritania"><path id="outline" fill="none" stroke-linecap="butt" stroke-linejoin="round" stroke="#fff" stroke-width="2.5" d="M707.4 511.1L712.5 511.1L717.6 511"></path><g id="polyline"><polyline id="polyline" points="707.40,511.10 712.50,511.10 717.60,511.00" stroke-linejoin="round" stroke-width="1.5" stroke="#4C6A9C" fill="none" stroke-linecap="butt"></polyline></g><g id="markers"><circle cx="707.4" cy="511.1" r="1.8" fill="#4C6A9C"></circle><circle cx="712.5" cy="511.1" r="1.8" fill="#4C6A9C"></circle><circle cx="717.6" cy="511" r="1.8" fill="#4C6A9C"></circle></g></g><g id="line__Ukraine"><path id="outline" fill="none" stroke-linecap="butt" stroke-linejoin="round" stroke="#fff" stroke-width="2.5" d="M702.4 500.6L707.4 499.8L712.5 507.7L717.6 507.4"></path><g id="polyline"><polyline id="polyline" points="702.40,500.60 707.40,499.80 712.50,507.70 717.60,507.40" stroke-linejoin="round" stroke-width="1.5" stroke="#B16214" fill="none" stroke-linecap="butt"></polyline></g><g id="markers"><circle cx="702.4" cy="500.6" r="1.8" fill="#B16214"></circle><circle cx="707.4" cy="499.8" r="1.8" fill="#B16214"></circle><circle cx="712.5" cy="507.7" r="1.8" fill="#B16214"></circle><circle cx="717.6" cy="507.4" r="1.8" fill="#B16214"></circle></g></g><g id="line__Turkey"><path id="outline" fill="none" stroke-linecap="butt" stroke-linejoin="round" stroke="#fff" stroke-width="2.5" d="M702.4 510.7L707.4 510.6L712.5 510.3L717.6 510.4"></path><g id="polyline"><polyline id="polyline" points="702.40,510.70 707.40,510.60 712.50,510.30 717.60,510.40" stroke-linejoin="round" stroke-width="1.5" stroke="#00295B" fill="none" stroke-linecap="butt"></polyline></g><g id="markers"><circle cx="702.4" cy="510.7" r="1.8" fill="#00295B"></circle><circle cx="707.4" cy="510.6" r="1.8" fill="#00295B"></circle><circle cx="712.5" cy="510.3" r="1.8" fill="#00295B"></circle><circle cx="717.6" cy="510.4" r="1.8" fill="#00295B"></circle></g></g><g id="line__Sweden"><path id="outline" fill="none" stroke-linecap="butt" stroke-linejoin="round" stroke="#fff" stroke-width="2.5" d="M702.4 507.4L707.4 506.7L712.5 506.9L717.6 507.1"></path><g id="polyline"><polyline id="polyline" points="702.40,507.40 707.40,506.70 712.50,506.90 717.60,507.10" stroke-linejoin="round" stroke-width="1.5" stroke="#008291" fill="none" stroke-linecap="butt"></polyline></g><g id="markers"><circle cx="702.4" cy="507.4" r="1.8" fill="#008291"></circle><circle cx="707.4" cy="506.7" r="1.8" fill="#008291"></circle><circle cx="712.5" cy="506.9" r="1.8" fill="#008291"></circle><circle cx="717.6" cy="507.1" r="1.8" fill="#008291"></circle></g></g><g id="line__South-Africa"><path id="outline" fill="none" stroke-linecap="butt" stroke-linejoin="round" stroke="#fff" stroke-width="2.5" d="M702.4 504.3L707.4 501.5L712.5 503L717.6 503.5"></path><g id="polyline"><polyline id="polyline" points="702.40,504.30 707.40,501.50 712.50,503.00 717.60,503.50" stroke-linejoin="round" stroke-width="1.5" stroke="#00847E" fill="none" stroke-linecap="butt"></polyline></g><g id="markers"><circle cx="702.4" cy="504.3" r="1.8" fill="#00847E"></circle><circle cx="707.4" cy="501.5" r="1.8" fill="#00847E"></circle><circle cx="712.5" cy="503" r="1.8" fill="#00847E"></circle><circle cx="717.6" cy="503.5" r="1.8" fill="#00847E"></circle></g></g><g id="line__Russia"><path id="outline" fill="none" stroke-linecap="butt" stroke-linejoin="round" stroke="#fff" stroke-width="2.5" d="M702.4 497.3L707.4 497.9L712.5 499.8L717.6 499.2"></path><g id="polyline"><polyline id="polyline" points="702.40,497.30 707.40,497.90 712.50,499.80 717.60,499.20" stroke-linejoin="round" stroke-width="1.5" stroke="#8C4569" fill="none" stroke-linecap="butt"></polyline></g><g id="markers"><circle cx="702.4" cy="497.3" r="1.8" fill="#8C4569"></circle><circle cx="707.4" cy="497.9" r="1.8" fill="#8C4569"></circle><circle cx="712.5" cy="499.8" r="1.8" fill="#8C4569"></circle><circle cx="717.6" cy="499.2" r="1.8" fill="#8C4569"></circle></g></g><g id="line__Peru"><path id="outline" fill="none" stroke-linecap="butt" stroke-linejoin="round" stroke="#fff" stroke-width="2.5" d="M702.4 511L707.4 510.2L712.5 510L717.6 510.1"></path><g id="polyline"><polyline id="polyline" points="702.40,511.00 707.40,510.20 712.50,510.00 717.60,510.10" stroke-linejoin="round" stroke-width="1.5" stroke="#BE5915" fill="none" stroke-linecap="butt"></polyline></g><g id="markers"><circle cx="702.4" cy="511" r="1.8" fill="#BE5915"></circle><circle cx="707.4" cy="510.2" r="1.8" fill="#BE5915"></circle><circle cx="712.5" cy="510" r="1.8" fill="#BE5915"></circle><circle cx="717.6" cy="510.1" r="1.8" fill="#BE5915"></circle></g></g><g id="line__Other"><path id="outline" fill="none" stroke-linecap="butt" stroke-linejoin="round" stroke="#fff" stroke-width="2.5" d="M702.4 502.1L707.4 504.1L712.5 504.1L717.6 505.5"></path><g id="polyline"><polyline id="polyline" points="702.40,502.10 707.40,504.10 712.50,504.10 717.60,505.50" stroke-linejoin="round" stroke-width="1.5" stroke="#B16214" fill="none" stroke-linecap="butt"></polyline></g><g id="markers"><circle cx="702.4" cy="502.1" r="1.8" fill="#B16214"></circle><circle cx="707.4" cy="504.1" r="1.8" fill="#B16214"></circle><circle cx="712.5" cy="504.1" r="1.8" fill="#B16214"></circle><circle cx="717.6" cy="505.5" r="1.8" fill="#B16214"></circle></g></g><g id="line__Mexico"><path id="outline" fill="none" stroke-linecap="butt" stroke-linejoin="round" stroke="#fff" stroke-width="2.5" d="M702.4 510.7L707.4 511.4L712.5 511.4L717.6 511.2"></path><g id="polyline"><polyline id="polyline" points="702.40,510.70 707.40,511.40 712.50,511.40 717.60,511.20" stroke-linejoin="round" stroke-width="1.5" stroke="#B13507" fill="none" stroke-linecap="butt"></polyline></g><g id="markers"><circle cx="702.4" cy="510.7" r="1.8" fill="#B13507"></circle><circle cx="707.4" cy="511.4" r="1.8" fill="#B13507"></circle><circle cx="712.5" cy="511.4" r="1.8" fill="#B13507"></circle><circle cx="717.6" cy="511.2" r="1.8" fill="#B13507"></circle></g></g><g id="line__Kazakhstan"><path id="outline" fill="none" stroke-linecap="butt" stroke-linejoin="round" stroke="#fff" stroke-width="2.5" d="M702.4 503.2L707.4 503L712.5 504.6L717.6 504.7"></path><g id="polyline"><polyline id="polyline" points="702.40,503.20 707.40,503.00 712.50,504.60 717.60,504.70" stroke-linejoin="round" stroke-width="1.5" stroke="#D73C50" fill="none" stroke-linecap="butt"></polyline></g><g id="markers"><circle cx="702.4" cy="503.2" r="1.8" fill="#D73C50"></circle><circle cx="707.4" cy="503" r="1.8" fill="#D73C50"></circle><circle cx="712.5" cy="504.6" r="1.8" fill="#D73C50"></circle><circle cx="717.6" cy="504.7" r="1.8" fill="#D73C50"></circle></g></g><g id="line__Iran"><path id="outline" fill="none" stroke-linecap="butt" stroke-linejoin="round" stroke="#fff" stroke-width="2.5" d="M702.4 505.3L707.4 501.6L712.5 500.7L717.6 500.9"></path><g id="polyline"><polyline id="polyline" points="702.40,505.30 707.40,501.60 712.50,500.70 717.60,500.90" stroke-linejoin="round" stroke-width="1.5" stroke="#CF0A66" fill="none" stroke-linecap="butt"></polyline></g><g id="markers"><circle cx="702.4" cy="505.3" r="1.8" fill="#CF0A66"></circle><circle cx="707.4" cy="501.6" r="1.8" fill="#CF0A66"></circle><circle cx="712.5" cy="500.7" r="1.8" fill="#CF0A66"></circle><circle cx="717.6" cy="500.9" r="1.8" fill="#CF0A66"></circle></g></g><g id="line__India"><path id="outline" fill="none" stroke-linecap="butt" stroke-linejoin="round" stroke="#fff" stroke-width="2.5" d="M702.4 480.8L707.4 469.9L712.5 473.4L717.6 470.4"></path><g id="polyline"><polyline id="polyline" points="702.40,480.80 707.40,469.90 712.50,473.40 717.60,470.40" stroke-linejoin="round" stroke-width="1.5" stroke="#286BBB" fill="none" stroke-linecap="butt"></polyline></g><g id="markers"><circle cx="702.4" cy="480.8" r="1.8" fill="#286BBB"></circle><circle cx="707.4" cy="469.9" r="1.8" fill="#286BBB"></circle><circle cx="712.5" cy="473.4" r="1.8" fill="#286BBB"></circle><circle cx="717.6" cy="470.4" r="1.8" fill="#286BBB"></circle></g></g><g id="line__China"><path id="outline" fill="none" stroke-linecap="butt" stroke-linejoin="round" stroke="#fff" stroke-width="2.5" d="M702.4 456.2L707.4 450.8L712.5 470.1L717.6 468.8"></path><g id="polyline"><polyline id="polyline" points="702.40,456.20 707.40,450.80 712.50,470.10 717.60,468.80" stroke-linejoin="round" stroke-width="1.5" stroke="#CF0A66" fill="none" stroke-linecap="butt"></polyline></g><g id="markers"><circle cx="702.4" cy="456.2" r="1.8" fill="#CF0A66"></circle><circle cx="707.4" cy="450.8" r="1.8" fill="#CF0A66"></circle><circle cx="712.5" cy="470.1" r="1.8" fill="#CF0A66"></circle><circle cx="717.6" cy="468.8" r="1.8" fill="#CF0A66"></circle></g></g><g id="line__Chile"><path id="outline" fill="none" stroke-linecap="butt" stroke-linejoin="round" stroke="#fff" stroke-width="2.5" d="M702.4 510.6L707.4 510.3L712.5 510.3L717.6 510.3"></path><g id="polyline"><polyline id="polyline" points="702.40,510.60 707.40,510.30 712.50,510.30 717.60,510.30" stroke-linejoin="round" stroke-width="1.5" stroke="#BE5915" fill="none" stroke-linecap="butt"></polyline></g><g id="markers"><circle cx="702.4" cy="510.6" r="1.8" fill="#BE5915"></circle><circle cx="707.4" cy="510.3" r="1.8" fill="#BE5915"></circle><circle cx="712.5" cy="510.3" r="1.8" fill="#BE5915"></circle><circle cx="717.6" cy="510.3" r="1.8" fill="#BE5915"></circle></g></g><g id="line__Canada"><path id="outline" fill="none" stroke-linecap="butt" stroke-linejoin="round" stroke="#fff" stroke-width="2.5" d="M702.4 503.6L707.4 504L712.5 502.2L717.6 502"></path><g id="polyline"><polyline id="polyline" points="702.40,503.60 707.40,504.00 712.50,502.20 717.60,502.00" stroke-linejoin="round" stroke-width="1.5" stroke="#18470F" fill="none" stroke-linecap="butt"></polyline></g><g id="markers"><circle cx="702.4" cy="503.6" r="1.8" fill="#18470F"></circle><circle cx="707.4" cy="504" r="1.8" fill="#18470F"></circle><circle cx="712.5" cy="502.2" r="1.8" fill="#18470F"></circle><circle cx="717.6" cy="502" r="1.8" fill="#18470F"></circle></g></g><g id="line__Brazil"><path id="outline" fill="none" stroke-linecap="butt" stroke-linejoin="round" stroke="#fff" stroke-width="2.5" d="M702.4 451.7L707.4 444.9L712.5 444.3L717.6 443.5"></path><g id="polyline"><polyline id="polyline" points="702.40,451.70 707.40,444.90 712.50,444.30 717.60,443.50" stroke-linejoin="round" stroke-width="1.5" stroke="#578145" fill="none" stroke-linecap="butt"></polyline></g><g id="markers"><circle cx="702.4" cy="451.7" r="1.8" fill="#578145"></circle><circle cx="707.4" cy="444.9" r="1.8" fill="#578145"></circle><circle cx="712.5" cy="444.3" r="1.8" fill="#578145"></circle><circle cx="717.6" cy="443.5" r="1.8" fill="#578145"></circle></g></g><g id="line__Australia"><path id="outline" fill="none" stroke-linecap="butt" stroke-linejoin="round" stroke="#fff" stroke-width="2.5" d="M702.4 368.9L707.4 368.9L712.5 363.8L717.6 361.3"></path><g id="polyline"><polyline id="polyline" points="702.40,368.90 707.40,368.90 712.50,363.80 717.60,361.30" stroke-linejoin="round" stroke-width="1.5" stroke="#2C8465" fill="none" stroke-linecap="butt"></polyline></g><g id="markers"><circle cx="702.4" cy="368.9" r="1.8" fill="#2C8465"></circle><circle cx="707.4" cy="368.9" r="1.8" fill="#2C8465"></circle><circle cx="712.5" cy="363.8" r="1.8" fill="#2C8465"></circle><circle cx="717.6" cy="361.3" r="1.8" fill="#2C8465"></circle></g></g><g id="line__World"><path id="outline" fill="none" stroke-linecap="butt" stroke-linejoin="round" stroke="#fff" stroke-width="2.5" d="M113.5 498L118.6 494.8L123.7 497.3L128.8 491.7L133.8 495.9L138.9 493.2L144 490.6L149.1 492.1L154.1 489.2L159.2 485.1L164.3 494.4L169.4 494.8L174.4 491.1L179.5 490.6L184.6 493L189.7 495.7L194.7 493.5L199.8 501.6L204.9 496.7L210 491.6L215.1 492.5L220.1 489.2L225.2 488.6L230.3 486.1L235.4 485.6L240.4 481.3L245.5 484.8L250.6 494.3L255.7 501L260.7 498.7L265.8 494.1L270.9 491.3L276 486.2L281 479.6L286.1 487.5L291.2 481.5L296.3 479.6L301.3 476.3L306.4 475.9L311.5 477.2L316.6 481.6L321.7 488L326.7 488.7L331.8 484L336.9 479.7L342 477.8L347 473.6L352.1 466.6L357.2 466L362.3 460.8L367.3 465.5L372.4 455.5L377.5 451.6L382.6 446.2L387.6 450.3L392.7 444.8L397.8 431.8L402.9 434.8L407.9 434.2L413 432.4L418.1 422.5L423.2 416.5L428.3 414.1L433.3 415.7L438.4 407.5L443.5 402.2L448.6 393.4L453.6 391.8L458.7 393.4L463.8 381.5L468.9 373.8L473.9 372.7L479 373L484.1 379.6L489.2 381.4L494.2 371.1L499.3 373.3L504.4 379.8L509.5 389.3L514.5 398L519.6 382.9L524.7 379.5L529.8 377.9L534.9 375.7L539.9 360.2L545 355.1L550.1 357.8L555.2 361.9L560.2 366L565.3 362.4L570.4 357.8L575.5 351.8L580.5 351.8L585.6 348.6L590.7 347L595.8 351.8L600.8 359.8L605.9 364.9L611 357.8L616.1 342.3L621.1 323.3L626.2 304.3L631.3 280.6L636.4 247.4L641.5 239.5L646.5 242.7L651.6 217.4L656.7 192L661.8 185.7L666.8 160.4L671.9 138.3L677 138.3L682.1 138.3L687.1 127.2L692.2 124L697.3 125.6L702.4 122.5L707.4 89.3L712.5 117.7L717.6 117.7"></path><g id="polyline"><polyline id="polyline" points="113.50,498.00 118.60,494.80 123.70,497.30 128.80,491.70 133.80,495.90 138.90,493.20 144.00,490.60 149.10,492.10 154.10,489.20 159.20,485.10 164.30,494.40 169.40,494.80 174.40,491.10 179.50,490.60 184.60,493.00 189.70,495.70 194.70,493.50 199.80,501.60 204.90,496.70 210.00,491.60 215.10,492.50 220.10,489.20 225.20,488.60 230.30,486.10 235.40,485.60 240.40,481.30 245.50,484.80 250.60,494.30 255.70,501.00 260.70,498.70 265.80,494.10 270.90,491.30 276.00,486.20 281.00,479.60 286.10,487.50 291.20,481.50 296.30,479.60 301.30,476.30 306.40,475.90 311.50,477.20 316.60,481.60 321.70,488.00 326.70,488.70 331.80,484.00 336.90,479.70 342.00,477.80 347.00,473.60 352.10,466.60 357.20,466.00 362.30,460.80 367.30,465.50 372.40,455.50 377.50,451.60 382.60,446.20 387.60,450.30 392.70,444.80 397.80,431.80 402.90,434.80 407.90,434.20 413.00,432.40 418.10,422.50 423.20,416.50 428.30,414.10 433.30,415.70 438.40,407.50 443.50,402.20 448.60,393.40 453.60,391.80 458.70,393.40 463.80,381.50 468.90,373.80 473.90,372.70 479.00,373.00 484.10,379.60 489.20,381.40 494.20,371.10 499.30,373.30 504.40,379.80 509.50,389.30 514.50,398.00 519.60,382.90 524.70,379.50 529.80,377.90 534.90,375.70 539.90,360.20 545.00,355.10 550.10,357.80 555.20,361.90 560.20,366.00 565.30,362.40 570.40,357.80 575.50,351.80 580.50,351.80 585.60,348.60 590.70,347.00 595.80,351.80 600.80,359.80 605.90,364.90 611.00,357.80 616.10,342.30 621.10,323.30 626.20,304.30 631.30,280.60 636.40,247.40 641.50,239.50 646.50,242.70 651.60,217.40 656.70,192.00 661.80,185.70 666.80,160.40 671.90,138.30 677.00,138.30 682.10,138.30 687.10,127.20 692.20,124.00 697.30,125.60 702.40,122.50 707.40,89.30 712.50,117.70 717.60,117.70" stroke-linejoin="round" stroke-width="1.5" stroke="#C15065" fill="none" stroke-linecap="butt"></polyline></g><g id="markers"><circle cx="113.5" cy="498" r="1.8" fill="#C15065"></circle><circle cx="118.6" cy="494.8" r="1.8" fill="#C15065"></circle><circle cx="123.7" cy="497.3" r="1.8" fill="#C15065"></circle><circle cx="128.8" cy="491.7" r="1.8" fill="#C15065"></circle><circle cx="133.8" cy="495.9" r="1.8" fill="#C15065"></circle><circle cx="138.9" cy="493.2" r="1.8" fill="#C15065"></circle><circle cx="144" cy="490.6" r="1.8" fill="#C15065"></circle><circle cx="149.1" cy="492.1" r="1.8" fill="#C15065"></circle><circle cx="154.1" cy="489.2" r="1.8" fill="#C15065"></circle><circle cx="159.2" cy="485.1" r="1.8" fill="#C15065"></circle><circle cx="164.3" cy="494.4" r="1.8" fill="#C15065"></circle><circle cx="169.4" cy="494.8" r="1.8" fill="#C15065"></circle><circle cx="174.4" cy="491.1" r="1.8" fill="#C15065"></circle><circle cx="179.5" cy="490.6" r="1.8" fill="#C15065"></circle><circle cx="184.6" cy="493" r="1.8" fill="#C15065"></circle><circle cx="189.7" cy="495.7" r="1.8" fill="#C15065"></circle><circle cx="194.7" cy="493.5" r="1.8" fill="#C15065"></circle><circle cx="199.8" cy="501.6" r="1.8" fill="#C15065"></circle><circle cx="204.9" cy="496.7" r="1.8" fill="#C15065"></circle><circle cx="210" cy="491.6" r="1.8" fill="#C15065"></circle><circle cx="215.1" cy="492.5" r="1.8" fill="#C15065"></circle><circle cx="220.1" cy="489.2" r="1.8" fill="#C15065"></circle><circle cx="225.2" cy="488.6" r="1.8" fill="#C15065"></circle><circle cx="230.3" cy="486.1" r="1.8" fill="#C15065"></circle><circle cx="235.4" cy="485.6" r="1.8" fill="#C15065"></circle><circle cx="240.4" cy="481.3" r="1.8" fill="#C15065"></circle><circle cx="245.5" cy="484.8" r="1.8" fill="#C15065"></circle><circle cx="250.6" cy="494.3" r="1.8" fill="#C15065"></circle><circle cx="255.7" cy="501" r="1.8" fill="#C15065"></circle><circle cx="260.7" cy="498.7" r="1.8" fill="#C15065"></circle><circle cx="265.8" cy="494.1" r="1.8" fill="#C15065"></circle><circle cx="270.9" cy="491.3" r="1.8" fill="#C15065"></circle><circle cx="276" cy="486.2" r="1.8" fill="#C15065"></circle><circle cx="281" cy="479.6" r="1.8" fill="#C15065"></circle><circle cx="286.1" cy="487.5" r="1.8" fill="#C15065"></circle><circle cx="291.2" cy="481.5" r="1.8" fill="#C15065"></circle><circle cx="296.3" cy="479.6" r="1.8" fill="#C15065"></circle><circle cx="301.3" cy="476.3" r="1.8" fill="#C15065"></circle><circle cx="306.4" cy="475.9" r="1.8" fill="#C15065"></circle><circle cx="311.5" cy="477.2" r="1.8" fill="#C15065"></circle><circle cx="316.6" cy="481.6" r="1.8" fill="#C15065"></circle><circle cx="321.7" cy="488" r="1.8" fill="#C15065"></circle><circle cx="326.7" cy="488.7" r="1.8" fill="#C15065"></circle><circle cx="331.8" cy="484" r="1.8" fill="#C15065"></circle><circle cx="336.9" cy="479.7" r="1.8" fill="#C15065"></circle><circle cx="342" cy="477.8" r="1.8" fill="#C15065"></circle><circle cx="347" cy="473.6" r="1.8" fill="#C15065"></circle><circle cx="352.1" cy="466.6" r="1.8" fill="#C15065"></circle><circle cx="357.2" cy="466" r="1.8" fill="#C15065"></circle><circle cx="362.3" cy="460.8" r="1.8" fill="#C15065"></circle><circle cx="367.3" cy="465.5" r="1.8" fill="#C15065"></circle><circle cx="372.4" cy="455.5" r="1.8" fill="#C15065"></circle><circle cx="377.5" cy="451.6" r="1.8" fill="#C15065"></circle><circle cx="382.6" cy="446.2" r="1.8" fill="#C15065"></circle><circle cx="387.6" cy="450.3" r="1.8" fill="#C15065"></circle><circle cx="392.7" cy="444.8" r="1.8" fill="#C15065"></circle><circle cx="397.8" cy="431.8" r="1.8" fill="#C15065"></circle><circle cx="402.9" cy="434.8" r="1.8" fill="#C15065"></circle><circle cx="407.9" cy="434.2" r="1.8" fill="#C15065"></circle><circle cx="413" cy="432.4" r="1.8" fill="#C15065"></circle><circle cx="418.1" cy="422.5" r="1.8" fill="#C15065"></circle><circle cx="423.2" cy="416.5" r="1.8" fill="#C15065"></circle><circle cx="428.3" cy="414.1" r="1.8" fill="#C15065"></circle><circle cx="433.3" cy="415.7" r="1.8" fill="#C15065"></circle><circle cx="438.4" cy="407.5" r="1.8" fill="#C15065"></circle><circle cx="443.5" cy="402.2" r="1.8" fill="#C15065"></circle><circle cx="448.6" cy="393.4" r="1.8" fill="#C15065"></circle><circle cx="453.6" cy="391.8" r="1.8" fill="#C15065"></circle><circle cx="458.7" cy="393.4" r="1.8" fill="#C15065"></circle><circle cx="463.8" cy="381.5" r="1.8" fill="#C15065"></circle><circle cx="468.9" cy="373.8" r="1.8" fill="#C15065"></circle><circle cx="473.9" cy="372.7" r="1.8" fill="#C15065"></circle><circle cx="479" cy="373" r="1.8" fill="#C15065"></circle><circle cx="484.1" cy="379.6" r="1.8" fill="#C15065"></circle><circle cx="489.2" cy="381.4" r="1.8" fill="#C15065"></circle><circle cx="494.2" cy="371.1" r="1.8" fill="#C15065"></circle><circle cx="499.3" cy="373.3" r="1.8" fill="#C15065"></circle><circle cx="504.4" cy="379.8" r="1.8" fill="#C15065"></circle><circle cx="509.5" cy="389.3" r="1.8" fill="#C15065"></circle><circle cx="514.5" cy="398" r="1.8" fill="#C15065"></circle><circle cx="519.6" cy="382.9" r="1.8" fill="#C15065"></circle><circle cx="524.7" cy="379.5" r="1.8" fill="#C15065"></circle><circle cx="529.8" cy="377.9" r="1.8" fill="#C15065"></circle><circle cx="534.9" cy="375.7" r="1.8" fill="#C15065"></circle><circle cx="539.9" cy="360.2" r="1.8" fill="#C15065"></circle><circle cx="545" cy="355.1" r="1.8" fill="#C15065"></circle><circle cx="550.1" cy="357.8" r="1.8" fill="#C15065"></circle><circle cx="555.2" cy="361.9" r="1.8" fill="#C15065"></circle><circle cx="560.2" cy="366" r="1.8" fill="#C15065"></circle><circle cx="565.3" cy="362.4" r="1.8" fill="#C15065"></circle><circle cx="570.4" cy="357.8" r="1.8" fill="#C15065"></circle><circle cx="575.5" cy="351.8" r="1.8" fill="#C15065"></circle><circle cx="580.5" cy="351.8" r="1.8" fill="#C15065"></circle><circle cx="585.6" cy="348.6" r="1.8" fill="#C15065"></circle><circle cx="590.7" cy="347" r="1.8" fill="#C15065"></circle><circle cx="595.8" cy="351.8" r="1.8" fill="#C15065"></circle><circle cx="600.8" cy="359.8" r="1.8" fill="#C15065"></circle><circle cx="605.9" cy="364.9" r="1.8" fill="#C15065"></circle><circle cx="611" cy="357.8" r="1.8" fill="#C15065"></circle><circle cx="616.1" cy="342.3" r="1.8" fill="#C15065"></circle><circle cx="621.1" cy="323.3" r="1.8" fill="#C15065"></circle><circle cx="626.2" cy="304.3" r="1.8" fill="#C15065"></circle><circle cx="631.3" cy="280.6" r="1.8" fill="#C15065"></circle><circle cx="636.4" cy="247.4" r="1.8" fill="#C15065"></circle><circle cx="641.5" cy="239.5" r="1.8" fill="#C15065"></circle><circle cx="646.5" cy="242.7" r="1.8" fill="#C15065"></circle><circle cx="651.6" cy="217.4" r="1.8" fill="#C15065"></circle><circle cx="656.7" cy="192" r="1.8" fill="#C15065"></circle><circle cx="661.8" cy="185.7" r="1.8" fill="#C15065"></circle><circle cx="666.8" cy="160.4" r="1.8" fill="#C15065"></circle><circle cx="671.9" cy="138.3" r="1.8" fill="#C15065"></circle><circle cx="677" cy="138.3" r="1.8" fill="#C15065"></circle><circle cx="682.1" cy="138.3" r="1.8" fill="#C15065"></circle><circle cx="687.1" cy="127.2" r="1.8" fill="#C15065"></circle><circle cx="692.2" cy="124" r="1.8" fill="#C15065"></circle><circle cx="697.3" cy="125.6" r="1.8" fill="#C15065"></circle><circle cx="702.4" cy="122.5" r="1.8" fill="#C15065"></circle><circle cx="707.4" cy="89.3" r="1.8" fill="#C15065"></circle><circle cx="712.5" cy="117.7" r="1.8" fill="#C15065"></circle><circle cx="717.6" cy="117.7" r="1.8" fill="#C15065"></circle></g></g><g id="line__United-States"><path id="outline" fill="none" stroke-linecap="butt" stroke-linejoin="round" stroke="#fff" stroke-width="2.5" d="M93.2 508.7L98.3 508.5L103.4 507.4L108.5 507.5L113.5 508.7L118.6 506.3L123.7 505.4L128.8 504.8L133.8 507.3L138.9 504.9L144 504L149.1 506L154.1 504.2L159.2 503.1L164.3 506.4L169.4 504.2L174.4 501L179.5 501L184.6 501.9L189.7 503.3L194.7 502.2L199.8 508.4L204.9 505.5L210 502L215.1 504.4L220.1 503.2L225.2 502.2L230.3 503.6L235.4 503.1L240.4 501.4L245.5 503.7L250.6 508.1L255.7 511.6L260.7 510.3L265.8 509.1L270.9 508.2L276 505.3L281 501.5L286.1 508.5L291.2 504.8L296.3 501.3L301.3 498.2L306.4 496.2L311.5 496.8L316.6 498L321.7 498.9L326.7 501.7L331.8 498.1L336.9 496.8L342 499.5L347 497.3L352.1 494.4L357.2 497.4L362.3 494.1L367.3 500.5L372.4 496.5L377.5 497.4L382.6 496L387.6 502.2L392.7 503.4L397.8 498.8L402.9 501.6L407.9 501.6L413 501.3L418.1 499.5L423.2 499.1L428.3 498.6L433.3 499.6L438.4 499.3L443.5 498.9L448.6 498.7L453.6 500.1L458.7 501L463.8 499L468.9 499.5L473.9 500.4L479 500.2L484.1 504.1L489.2 500L494.2 499.3L499.3 501.9L504.4 501.3L509.5 507.4L514.5 507.1L519.6 504.9L524.7 505.3L529.8 506.9L534.9 505.6L539.9 504L545 503.8L550.1 504.2L555.2 504.1L560.2 504.3L565.3 504.3L570.4 503.8L575.5 503.2L580.5 503.3L585.6 503.1L590.7 503.2L595.8 504L600.8 503.1L605.9 505.8L611 504.9L616.1 505.4L621.1 504.4L626.2 504.5L631.3 504.8L636.4 504.8L641.5 504.6L646.5 508.9L651.6 505.2L656.7 504.2L661.8 504.4L666.8 504.7L671.9 504.2L677 505.8L682.1 506.5L687.1 505.5L692.2 505.3L697.3 505.7L702.4 507.1L707.4 505.6L712.5 506.9L717.6 506.1"></path><g id="polyline"><polyline id="polyline" points="93.20,508.70 98.30,508.50 103.40,507.40 108.50,507.50 113.50,508.70 118.60,506.30 123.70,505.40 128.80,504.80 133.80,507.30 138.90,504.90 144.00,504.00 149.10,506.00 154.10,504.20 159.20,503.10 164.30,506.40 169.40,504.20 174.40,501.00 179.50,501.00 184.60,501.90 189.70,503.30 194.70,502.20 199.80,508.40 204.90,505.50 210.00,502.00 215.10,504.40 220.10,503.20 225.20,502.20 230.30,503.60 235.40,503.10 240.40,501.40 245.50,503.70 250.60,508.10 255.70,511.60 260.70,510.30 265.80,509.10 270.90,508.20 276.00,505.30 281.00,501.50 286.10,508.50 291.20,504.80 296.30,501.30 301.30,498.20 306.40,496.20 311.50,496.80 316.60,498.00 321.70,498.90 326.70,501.70 331.80,498.10 336.90,496.80 342.00,499.50 347.00,497.30 352.10,494.40 357.20,497.40 362.30,494.10 367.30,500.50 372.40,496.50 377.50,497.40 382.60,496.00 387.60,502.20 392.70,503.40 397.80,498.80 402.90,501.60 407.90,501.60 413.00,501.30 418.10,499.50 423.20,499.10 428.30,498.60 433.30,499.60 438.40,499.30 443.50,498.90 448.60,498.70 453.60,500.10 458.70,501.00 463.80,499.00 468.90,499.50 473.90,500.40 479.00,500.20 484.10,504.10 489.20,500.00 494.20,499.30 499.30,501.90 504.40,501.30 509.50,507.40 514.50,507.10 519.60,504.90 524.70,505.30 529.80,506.90 534.90,505.60 539.90,504.00 545.00,503.80 550.10,504.20 555.20,504.10 560.20,504.30 565.30,504.30 570.40,503.80 575.50,503.20 580.50,503.30 585.60,503.10 590.70,503.20 595.80,504.00 600.80,503.10 605.90,505.80 611.00,504.90 616.10,505.40 621.10,504.40 626.20,504.50 631.30,504.80 636.40,504.80 641.50,504.60 646.50,508.90 651.60,505.20 656.70,504.20 661.80,504.40 666.80,504.70 671.90,504.20 677.00,505.80 682.10,506.50 687.10,505.50 692.20,505.30 697.30,505.70 702.40,507.10 707.40,505.60 712.50,506.90 717.60,506.10" stroke-linejoin="round" stroke-width="1.5" stroke="#6D3E91" fill="none" stroke-linecap="butt"></polyline></g><g id="markers"><circle cx="93.2" cy="508.7" r="1.8" fill="#6D3E91"></circle><circle cx="98.3" cy="508.5" r="1.8" fill="#6D3E91"></circle><circle cx="103.4" cy="507.4" r="1.8" fill="#6D3E91"></circle><circle cx="108.5" cy="507.5" r="1.8" fill="#6D3E91"></circle><circle cx="113.5" cy="508.7" r="1.8" fill="#6D3E91"></circle><circle cx="118.6" cy="506.3" r="1.8" fill="#6D3E91"></circle><circle cx="123.7" cy="505.4" r="1.8" fill="#6D3E91"></circle><circle cx="128.8" cy="504.8" r="1.8" fill="#6D3E91"></circle><circle cx="133.8" cy="507.3" r="1.8" fill="#6D3E91"></circle><circle cx="138.9" cy="504.9" r="1.8" fill="#6D3E91"></circle><circle cx="144" cy="504" r="1.8" fill="#6D3E91"></circle><circle cx="149.1" cy="506" r="1.8" fill="#6D3E91"></circle><circle cx="154.1" cy="504.2" r="1.8" fill="#6D3E91"></circle><circle cx="159.2" cy="503.1" r="1.8" fill="#6D3E91"></circle><circle cx="164.3" cy="506.4" r="1.8" fill="#6D3E91"></circle><circle cx="169.4" cy="504.2" r="1.8" fill="#6D3E91"></circle><circle cx="174.4" cy="501" r="1.8" fill="#6D3E91"></circle><circle cx="179.5" cy="501" r="1.8" fill="#6D3E91"></circle><circle cx="184.6" cy="501.9" r="1.8" fill="#6D3E91"></circle><circle cx="189.7" cy="503.3" r="1.8" fill="#6D3E91"></circle><circle cx="194.7" cy="502.2" r="1.8" fill="#6D3E91"></circle><circle cx="199.8" cy="508.4" r="1.8" fill="#6D3E91"></circle><circle cx="204.9" cy="505.5" r="1.8" fill="#6D3E91"></circle><circle cx="210" cy="502" r="1.8" fill="#6D3E91"></circle><circle cx="215.1" cy="504.4" r="1.8" fill="#6D3E91"></circle><circle cx="220.1" cy="503.2" r="1.8" fill="#6D3E91"></circle><circle cx="225.2" cy="502.2" r="1.8" fill="#6D3E91"></circle><circle cx="230.3" cy="503.6" r="1.8" fill="#6D3E91"></circle><circle cx="235.4" cy="503.1" r="1.8" fill="#6D3E91"></circle><circle cx="240.4" cy="501.4" r="1.8" fill="#6D3E91"></circle><circle cx="245.5" cy="503.7" r="1.8" fill="#6D3E91"></circle><circle cx="250.6" cy="508.1" r="1.8" fill="#6D3E91"></circle><circle cx="255.7" cy="511.6" r="1.8" fill="#6D3E91"></circle><circle cx="260.7" cy="510.3" r="1.8" fill="#6D3E91"></circle><circle cx="265.8" cy="509.1" r="1.8" fill="#6D3E91"></circle><circle cx="270.9" cy="508.2" r="1.8" fill="#6D3E91"></circle><circle cx="276" cy="505.3" r="1.8" fill="#6D3E91"></circle><circle cx="281" cy="501.5" r="1.8" fill="#6D3E91"></circle><circle cx="286.1" cy="508.5" r="1.8" fill="#6D3E91"></circle><circle cx="291.2" cy="504.8" r="1.8" fill="#6D3E91"></circle><circle cx="296.3" cy="501.3" r="1.8" fill="#6D3E91"></circle><circle cx="301.3" cy="498.2" r="1.8" fill="#6D3E91"></circle><circle cx="306.4" cy="496.2" r="1.8" fill="#6D3E91"></circle><circle cx="311.5" cy="496.8" r="1.8" fill="#6D3E91"></circle><circle cx="316.6" cy="498" r="1.8" fill="#6D3E91"></circle><circle cx="321.7" cy="498.9" r="1.8" fill="#6D3E91"></circle><circle cx="326.7" cy="501.7" r="1.8" fill="#6D3E91"></circle><circle cx="331.8" cy="498.1" r="1.8" fill="#6D3E91"></circle><circle cx="336.9" cy="496.8" r="1.8" fill="#6D3E91"></circle><circle cx="342" cy="499.5" r="1.8" fill="#6D3E91"></circle><circle cx="347" cy="497.3" r="1.8" fill="#6D3E91"></circle><circle cx="352.1" cy="494.4" r="1.8" fill="#6D3E91"></circle><circle cx="357.2" cy="497.4" r="1.8" fill="#6D3E91"></circle><circle cx="362.3" cy="494.1" r="1.8" fill="#6D3E91"></circle><circle cx="367.3" cy="500.5" r="1.8" fill="#6D3E91"></circle><circle cx="372.4" cy="496.5" r="1.8" fill="#6D3E91"></circle><circle cx="377.5" cy="497.4" r="1.8" fill="#6D3E91"></circle><circle cx="382.6" cy="496" r="1.8" fill="#6D3E91"></circle><circle cx="387.6" cy="502.2" r="1.8" fill="#6D3E91"></circle><circle cx="392.7" cy="503.4" r="1.8" fill="#6D3E91"></circle><circle cx="397.8" cy="498.8" r="1.8" fill="#6D3E91"></circle><circle cx="402.9" cy="501.6" r="1.8" fill="#6D3E91"></circle><circle cx="407.9" cy="501.6" r="1.8" fill="#6D3E91"></circle><circle cx="413" cy="501.3" r="1.8" fill="#6D3E91"></circle><circle cx="418.1" cy="499.5" r="1.8" fill="#6D3E91"></circle><circle cx="423.2" cy="499.1" r="1.8" fill="#6D3E91"></circle><circle cx="428.3" cy="498.6" r="1.8" fill="#6D3E91"></circle><circle cx="433.3" cy="499.6" r="1.8" fill="#6D3E91"></circle><circle cx="438.4" cy="499.3" r="1.8" fill="#6D3E91"></circle><circle cx="443.5" cy="498.9" r="1.8" fill="#6D3E91"></circle><circle cx="448.6" cy="498.7" r="1.8" fill="#6D3E91"></circle><circle cx="453.6" cy="500.1" r="1.8" fill="#6D3E91"></circle><circle cx="458.7" cy="501" r="1.8" fill="#6D3E91"></circle><circle cx="463.8" cy="499" r="1.8" fill="#6D3E91"></circle><circle cx="468.9" cy="499.5" r="1.8" fill="#6D3E91"></circle><circle cx="473.9" cy="500.4" r="1.8" fill="#6D3E91"></circle><circle cx="479" cy="500.2" r="1.8" fill="#6D3E91"></circle><circle cx="484.1" cy="504.1" r="1.8" fill="#6D3E91"></circle><circle cx="489.2" cy="500" r="1.8" fill="#6D3E91"></circle><circle cx="494.2" cy="499.3" r="1.8" fill="#6D3E91"></circle><circle cx="499.3" cy="501.9" r="1.8" fill="#6D3E91"></circle><circle cx="504.4" cy="501.3" r="1.8" fill="#6D3E91"></circle><circle cx="509.5" cy="507.4" r="1.8" fill="#6D3E91"></circle><circle cx="514.5" cy="507.1" r="1.8" fill="#6D3E91"></circle><circle cx="519.6" cy="504.9" r="1.8" fill="#6D3E91"></circle><circle cx="524.7" cy="505.3" r="1.8" fill="#6D3E91"></circle><circle cx="529.8" cy="506.9" r="1.8" fill="#6D3E91"></circle><circle cx="534.9" cy="505.6" r="1.8" fill="#6D3E91"></circle><circle cx="539.9" cy="504" r="1.8" fill="#6D3E91"></circle><circle cx="545" cy="503.8" r="1.8" fill="#6D3E91"></circle><circle cx="550.1" cy="504.2" r="1.8" fill="#6D3E91"></circle><circle cx="555.2" cy="504.1" r="1.8" fill="#6D3E91"></circle><circle cx="560.2" cy="504.3" r="1.8" fill="#6D3E91"></circle><circle cx="565.3" cy="504.3" r="1.8" fill="#6D3E91"></circle><circle cx="570.4" cy="503.8" r="1.8" fill="#6D3E91"></circle><circle cx="575.5" cy="503.2" r="1.8" fill="#6D3E91"></circle><circle cx="580.5" cy="503.3" r="1.8" fill="#6D3E91"></circle><circle cx="585.6" cy="503.1" r="1.8" fill="#6D3E91"></circle><circle cx="590.7" cy="503.2" r="1.8" fill="#6D3E91"></circle><circle cx="595.8" cy="504" r="1.8" fill="#6D3E91"></circle><circle cx="600.8" cy="503.1" r="1.8" fill="#6D3E91"></circle><circle cx="605.9" cy="505.8" r="1.8" fill="#6D3E91"></circle><circle cx="611" cy="504.9" r="1.8" fill="#6D3E91"></circle><circle cx="616.1" cy="505.4" r="1.8" fill="#6D3E91"></circle><circle cx="621.1" cy="504.4" r="1.8" fill="#6D3E91"></circle><circle cx="626.2" cy="504.5" r="1.8" fill="#6D3E91"></circle><circle cx="631.3" cy="504.8" r="1.8" fill="#6D3E91"></circle><circle cx="636.4" cy="504.8" r="1.8" fill="#6D3E91"></circle><circle cx="641.5" cy="504.6" r="1.8" fill="#6D3E91"></circle><circle cx="646.5" cy="508.9" r="1.8" fill="#6D3E91"></circle><circle cx="651.6" cy="505.2" r="1.8" fill="#6D3E91"></circle><circle cx="656.7" cy="504.2" r="1.8" fill="#6D3E91"></circle><circle cx="661.8" cy="504.4" r="1.8" fill="#6D3E91"></circle><circle cx="666.8" cy="504.7" r="1.8" fill="#6D3E91"></circle><circle cx="671.9" cy="504.2" r="1.8" fill="#6D3E91"></circle><circle cx="677" cy="505.8" r="1.8" fill="#6D3E91"></circle><circle cx="682.1" cy="506.5" r="1.8" fill="#6D3E91"></circle><circle cx="687.1" cy="505.5" r="1.8" fill="#6D3E91"></circle><circle cx="692.2" cy="505.3" r="1.8" fill="#6D3E91"></circle><circle cx="697.3" cy="505.7" r="1.8" fill="#6D3E91"></circle><circle cx="702.4" cy="507.1" r="1.8" fill="#6D3E91"></circle><circle cx="707.4" cy="505.6" r="1.8" fill="#6D3E91"></circle><circle cx="712.5" cy="506.9" r="1.8" fill="#6D3E91"></circle><circle cx="717.6" cy="506.1" r="1.8" fill="#6D3E91"></circle></g></g></g></g></g></g><g id="footer" class="SourcesFooter" style="fill:#5b5b5b"><g id="sources" class="markdown-text-wrap"><text x="16.0" y="562.7" style="font-size:13.5px;line-height:1.2"><tspan x="16" y="562.7"><tspan style="font-weight:700">Data source:</tspan> USGS - Mineral Commodity Summaries (2024); USGS - Historical Statistics for Mineral and Material Commodities (2023)</tspan></text></g><text id="origin-url" font-size="13.50" x="16.0" y="580.9"><tspan x="16" y="580.8950000000001"><a target="_blank" style="fill: #5b5b5b;" href="https://creativecommons.org/licenses/by/4.0/">CC BY</a></tspan></text></g><line id="separator-line" x1="16" y1="600" x2="834" y2="600" stroke="#e7e7e7"></line><g id="details" transform="translate(15, 616)"><g class="markdown-text-wrap"><text x="0.0" y="12.0" style="font-size:12.375px;fill:#5b5b5b;line-height:1.2"><tspan x="0" y="12.0"><tspan style="font-weight:700">1.</tspan> <tspan style="font-weight:700">Refined production</tspan>: Refined production is the process of taking raw materials, such as metals extracted from ores, and purifying them to achieve</tspan><tspan x="0" y="26.9">a higher quality or more usable form. After metals are initially extracted from ore through processes like smelting, they often contain impurities or are</tspan><tspan x="0" y="41.7">not in the ideal form for manufacturing. Refining involves further processing these metals to remove impurities and adjust their composition to meet</tspan><tspan x="0" y="56.6">specific standards. Refined production is essential for transforming raw materials into high-quality metals that are crucial for industries and</tspan><tspan x="0" y="71.4">consumers, from manufacturing electronics to constructing buildings.</tspan></text></g></g></svg>