<svg xmlns="http://www.w3.org/2000/svg" version="1.1" style="font-family:Lato, &#x27;Helvetica Neue&#x27;, Helvetica, Arial, &#x27;Liberation Sans&#x27;, sans-serif;font-size:18px;background-color:white;text-rendering:geometricPrecision;-webkit-font-smoothing:antialiased" width="850" height="661.7" viewBox="0 0 850 661.7"><defs><style>@import url(https://ourworldindata.org/fonts.css)</style></defs><defs><pattern id="noDataPattern" patternUnits="userSpaceOnUse" width="4" height="4" patternTransform="rotate(-45 2 2)"><path d="M -1,2 l 6,0" stroke="#ccc" stroke-width="0.7"></path></pattern></defs><rect class="background-fill" fill="white" width="850" height="661.7"></rect><g id="header" class="HeaderView"><g id="logo" transform="translate(769, 16) scale(1)"><svg className="owidLogo" xmlns="http://www.w3.org/2000/svg" width="65" height="36" viewBox="0 0 65 36"  fill="none"><path fill="#002147" d="M0 0h64.8v36H0z"/><path fill="#CE261E" d="M0 33.3h64.8V36H0z"/><path fill="#fff" d="M13.796 10.575c0 .636-.106 1.226-.318 1.77a4.193 4.193 0 0 1-.894 1.404 4.084 4.084 0 0 1-1.386.93c-.54.22-1.138.33-1.794.33-.656 0-1.256-.11-1.8-.33a4.149 4.149 0 0 1-1.392-.93 4.193 4.193 0 0 1-.894-1.404A4.833 4.833 0 0 1 5 10.575c0-.636.106-1.224.318-1.764a4.18 4.18 0 0 1 .894-1.41 4.076 4.076 0 0 1 1.392-.924 4.684 4.684 0 0 1 1.8-.336c.656 0 1.254.112 1.794.336.54.224 1.002.534 1.386.93.384.392.682.86.894 1.404.212.54.318 1.128.318 1.764Zm-1.656 0c0-.476-.064-.902-.192-1.278a2.671 2.671 0 0 0-.54-.966 2.332 2.332 0 0 0-.864-.606 2.94 2.94 0 0 0-1.14-.21c-.424 0-.806.07-1.146.21-.34.14-.63.342-.87.606a2.742 2.742 0 0 0-.546.966 3.955 3.955 0 0 0-.192 1.278c0 .476.064.904.192 1.284.128.376.31.696.546.96.24.26.53.46.87.6.34.14.722.21 1.146.21.424 0 .804-.07 1.14-.21.34-.14.628-.34.864-.6.236-.264.416-.584.54-.96a4.01 4.01 0 0 0 .192-1.284ZM16.104 8.757v3.912c0 .376.086.668.258.876.176.204.438.306.786.306.256 0 .496-.056.72-.168a2.58 2.58 0 0 0 .636-.474V8.757h1.482v6.156h-.906c-.192 0-.318-.09-.378-.27l-.102-.492a4.65 4.65 0 0 1-.396.354 2.577 2.577 0 0 1-.438.27 2.35 2.35 0 0 1-.498.168 2.345 2.345 0 0 1-.57.066c-.336 0-.634-.056-.894-.168a1.821 1.821 0 0 1-.648-.486 2.157 2.157 0 0 1-.402-.738 3.233 3.233 0 0 1-.132-.948V8.757h1.482ZM21.328 14.913V8.757h.87c.152 0 .258.028.318.084.06.056.1.152.12.288l.09.744c.22-.38.478-.68.774-.9.296-.22.628-.33.996-.33.304 0 .556.07.756.21l-.192 1.11c-.012.072-.038.124-.078.156a.278.278 0 0 1-.162.042 1.01 1.01 0 0 1-.246-.042 1.646 1.646 0 0 0-.414-.042c-.308 0-.572.086-.792.258-.22.168-.406.416-.558.744v3.834h-1.482ZM27.347 6.237h1.356a.57.57 0 0 1 .348.102c.096.064.16.152.192.264l1.476 5.19c.036.128.068.268.096.42.032.148.062.306.09.474a5.968 5.968 0 0 1 .228-.894l1.704-5.19a.575.575 0 0 1 .186-.252.543.543 0 0 1 .348-.114h.474a.57.57 0 0 1 .348.102.497.497 0 0 1 .192.264l1.692 5.19c.088.256.164.54.228.852.028-.156.056-.306.084-.45.032-.144.064-.278.096-.402l1.476-5.19c.028-.1.09-.186.186-.258a.563.563 0 0 1 .348-.108h1.266l-2.694 8.676h-1.458l-1.896-5.928-.078-.246a9.504 9.504 0 0 1-.072-.282c-.024.1-.05.194-.078.282-.024.088-.048.17-.072.246l-1.914 5.928H30.04l-2.694-8.676ZM42.771 8.661c.46 0 .876.074 1.248.222.376.148.696.358.96.63s.468.604.612.996c.144.392.216.83.216 1.314 0 .488-.072.928-.216 1.32a2.85 2.85 0 0 1-.612 1.002 2.653 2.653 0 0 1-.96.636 3.35 3.35 0 0 1-1.248.222c-.46 0-.878-.074-1.254-.222a2.712 2.712 0 0 1-.966-.636 2.922 2.922 0 0 1-.618-1.002 3.807 3.807 0 0 1-.216-1.32c0-.484.072-.922.216-1.314.148-.392.354-.724.618-.996.268-.272.59-.482.966-.63a3.397 3.397 0 0 1 1.254-.222Zm0 5.202c.512 0 .89-.172 1.134-.516.248-.344.372-.848.372-1.512s-.124-1.17-.372-1.518c-.244-.348-.622-.522-1.134-.522-.52 0-.904.176-1.152.528-.248.348-.372.852-.372 1.512s.124 1.164.372 1.512c.248.344.632.516 1.152.516ZM46.723 14.913V8.757h.87c.152 0 .258.028.318.084.06.056.1.152.12.288l.09.744c.22-.38.478-.68.774-.9.296-.22.628-.33.996-.33.304 0 .556.07.756.21l-.192 1.11c-.012.072-.038.124-.078.156a.278.278 0 0 1-.162.042 1.01 1.01 0 0 1-.246-.042 1.646 1.646 0 0 0-.414-.042c-.308 0-.572.086-.792.258-.22.168-.406.416-.558.744v3.834h-1.482ZM52.96 5.997v8.916h-1.482V5.997h1.482ZM58.732 14.913c-.192 0-.318-.09-.378-.27l-.12-.594a3.68 3.68 0 0 1-.402.39c-.14.116-.292.216-.456.3-.16.084-.334.148-.522.192a2.372 2.372 0 0 1-.6.072c-.336 0-.644-.07-.924-.21a2.098 2.098 0 0 1-.726-.606 3.033 3.033 0 0 1-.468-.99 5.072 5.072 0 0 1-.162-1.344c0-.456.062-.88.186-1.272s.302-.732.534-1.02c.232-.288.51-.512.834-.672a2.384 2.384 0 0 1 1.092-.246 2.103 2.103 0 0 1 1.536.606V5.997h1.482v8.916h-.906Zm-1.974-1.086c.308 0 .57-.064.786-.192.216-.128.42-.31.612-.546v-2.76a1.452 1.452 0 0 0-.552-.432 1.597 1.597 0 0 0-.636-.126c-.224 0-.428.042-.612.126a1.21 1.21 0 0 0-.462.384c-.124.168-.22.384-.288.648-.068.26-.102.568-.102.924 0 .36.028.666.084.918.06.248.144.452.252.612.108.156.24.27.396.342.156.068.33.102.522.102ZM16.331 20.757v6.156H14.85v-6.156h1.481Zm.223-1.794a.844.844 0 0 1-.078.36.963.963 0 0 1-.21.294.995.995 0 0 1-.3.204.963.963 0 0 1-.372.072.948.948 0 0 1-.367-.072 1.018 1.018 0 0 1-.498-.498.963.963 0 0 1 0-.732.995.995 0 0 1 .205-.3.929.929 0 0 1 .293-.198.899.899 0 0 1 .738 0 .912.912 0 0 1 .3.198.943.943 0 0 1 .288.672ZM17.771 26.913v-6.156h.906c.192 0 .318.09.378.27l.102.486a2.934 2.934 0 0 1 .828-.618c.156-.076.322-.134.498-.174.176-.04.368-.06.576-.06.336 0 .634.058.894.174.26.112.476.272.648.48.176.204.308.45.396.738.092.284.138.598.138.942v3.918h-1.482v-3.918c0-.376-.088-.666-.264-.87-.172-.208-.432-.312-.78-.312-.256 0-.496.058-.72.174a2.58 2.58 0 0 0-.636.474v4.452h-1.482ZM34.22 22.575c0 .636-.106 1.22-.318 1.752-.212.532-.51.99-.894 1.374a4 4 0 0 1-1.386.894 4.87 4.87 0 0 1-1.794.318h-3.312v-8.676h3.312a4.79 4.79 0 0 1 1.794.324 4 4 0 0 1 1.386.894c.384.38.682.836.894 1.368.212.532.318 1.116.318 1.752Zm-1.65 0c0-.476-.064-.902-.192-1.278a2.68 2.68 0 0 0-.546-.96 2.332 2.332 0 0 0-.864-.606 2.94 2.94 0 0 0-1.14-.21h-1.686v6.108h1.686c.424 0 .804-.07 1.14-.21.34-.14.628-.34.864-.6a2.75 2.75 0 0 0 .546-.96 4.01 4.01 0 0 0 .192-1.284ZM39.98 26.913h-.665c-.14 0-.25-.02-.33-.06-.08-.044-.14-.13-.18-.258l-.132-.438c-.156.14-.31.264-.462.372a2.804 2.804 0 0 1-.462.264c-.16.072-.33.126-.51.162-.18.036-.38.054-.6.054-.26 0-.5-.034-.72-.102a1.618 1.618 0 0 1-.57-.318 1.448 1.448 0 0 1-.366-.522 1.852 1.852 0 0 1-.132-.726c0-.232.06-.46.18-.684.124-.228.328-.432.612-.612.284-.184.662-.336 1.134-.456.472-.12 1.058-.188 1.758-.204v-.36c0-.412-.088-.716-.264-.912-.172-.2-.424-.3-.756-.3a1.837 1.837 0 0 0-1.02.276c-.116.068-.224.13-.324.186a.664.664 0 0 1-.33.084.429.429 0 0 1-.258-.078.614.614 0 0 1-.174-.192l-.27-.474c.708-.648 1.562-.972 2.562-.972.36 0 .68.06.96.18.284.116.524.28.72.492.196.208.344.458.444.75.104.292.156.612.156.96v3.888Zm-2.88-.924c.153 0 .293-.014.42-.042.129-.028.249-.07.36-.126.117-.056.227-.124.33-.204.109-.084.217-.182.325-.294v-1.038c-.432.02-.794.058-1.086.114-.288.052-.52.12-.696.204a.923.923 0 0 0-.378.294.664.664 0 0 0-.108.366c0 .26.076.446.228.558.156.112.358.168.606.168ZM43.22 27.01c-.532 0-.942-.15-1.23-.45-.288-.305-.432-.723-.432-1.255v-3.438h-.624a.31.31 0 0 1-.21-.078c-.056-.052-.084-.13-.084-.234v-.588l.99-.162.312-1.68a.302.302 0 0 1 .108-.186.365.365 0 0 1 .222-.066h.768v1.938h1.62v1.056h-1.62v3.336c0 .192.048.342.144.45a.488.488 0 0 0 .384.162c.092 0 .168-.01.228-.03.064-.024.118-.048.162-.072.048-.024.09-.046.126-.066a.194.194 0 0 1 .108-.036.16.16 0 0 1 .108.036c.028.02.058.052.09.096l.444.72c-.216.18-.464.316-.744.408a2.77 2.77 0 0 1-.87.138ZM50.423 26.913h-.666c-.14 0-.25-.02-.33-.06-.08-.044-.14-.13-.18-.258l-.132-.438c-.156.14-.31.264-.462.372a2.804 2.804 0 0 1-.462.264c-.16.072-.33.126-.51.162-.18.036-.38.054-.6.054-.26 0-.5-.034-.72-.102a1.618 1.618 0 0 1-.57-.318 1.448 1.448 0 0 1-.366-.522 1.852 1.852 0 0 1-.132-.726c0-.232.06-.46.18-.684.124-.228.328-.432.612-.612.284-.184.662-.336 1.134-.456.472-.12 1.058-.188 1.758-.204v-.36c0-.412-.088-.716-.264-.912-.172-.2-.424-.3-.756-.3a1.837 1.837 0 0 0-1.02.276c-.116.068-.224.13-.324.186a.664.664 0 0 1-.33.084.429.429 0 0 1-.258-.078.614.614 0 0 1-.174-.192l-.27-.474c.708-.648 1.562-.972 2.562-.972.36 0 .68.06.96.18.284.116.524.28.72.492.196.208.344.458.444.75.104.292.156.612.156.96v3.888Zm-2.88-.924c.152 0 .292-.014.42-.042.128-.028.248-.07.36-.126.116-.056.226-.124.33-.204.108-.084.216-.182.324-.294v-1.038c-.432.02-.794.058-1.086.114-.288.052-.52.12-.696.204a.923.923 0 0 0-.378.294.664.664 0 0 0-.108.366c0 .26.076.446.228.558.156.112.358.168.606.168Z"/></svg></g><a id="title" href="https://ourworldindata.org/explorers/minerals?Mineral=Bismuth&amp;Metric=Unit+value&amp;Type=Refinery&amp;Share+of+global=false&amp;country=AUS~CHL~CHN~USA~CAN~ALB~DZA~ARG~ARM~AUT~AZE~BOL~OWID_WRL~BWA~BRA~BGR~COL~COG~CUB~CYP~OWID_CZS~COD~DOM~OWID_GDR~ZWE~ZMB~OWID_YGS~OWID_GFR~VNM~UZB~GBR~UGA~OWID_USS~TUR~TZA~TJK~TWN~SWE~ESP~KOR~ZAF~SVK~OWID_SRM~SRB~SAU~RUS~ROU~PRT~POL~PHL~PER~PNG~PAN~PAK~OMN~NOR~MKD~PRK~NIC~NZL~NAM~MMR~MOZ~MAR~MNG~MEX~MRT~MYS~LAO~KGZ~KEN~KAZ~JPN~ITA~ISR~IRL~IRN~IDN~IND~HUN~HND~HTI~GTM~GRC~DEU~GEO~FRA~FIN~ERI~ECU~VEN~ARE~UKR~CHE~SUR~LKA~SVN~QAT~NGA~NLD~MNE~ISL~GHA~EGY~HRV~CMR~BIH~BHR" style="font-family:&#x27;Playfair Display&#x27;, Georgia, &#x27;Times New Roman&#x27;, &#x27;Liberation Serif&#x27;, serif" target="_blank" rel="noopener"><text font-size="24.75" font-weight="600" x="16.0" y="40.0" fill="#5b5b5b"><tspan x="16" y="40.0075">Bismuth unit value, 1900 to 2022</tspan></text></a><g id="subtitle" class="markdown-text-wrap"><text x="16.0" y="63.9" style="font-size:14.625px;line-height:1.2" fill="#5b5b5b"><tspan x="16" y="63.9">Value of 1 tonne of <tspan class="dod-span" data-id="bismuth">bismuth<tspan style="font-feature-settings:&quot;sups&quot;">¹</tspan></tspan>, in constant 1998 US$ per tonne.</tspan></text></g></g><g id="chart-area" style="pointer-events:none"><g id="line-chart" class="LineChart"><defs><clipPath id="boundsClip-18"><rect x="79.04" y="73.25" width="838" height="470.35"></rect></clipPath></defs><rect x="16" y="83.25" width="818" height="450.35" fill="none"></rect><g id="dual-axis" class="DualAxisView"><g id="horizontal-axis" class="HorizontalAxis"><g id="tick__1900"><line x1="89" y1="512.6" x2="89" y2="518.1" stroke="#999" stroke-width="1"></line><text x="89.04" y="531.6" fill="#5b5b5b" text-anchor="start" font-size="13.5">1900</text></g><g id="tick__2022"><line x1="763.8" y1="512.6" x2="763.8" y2="518.1" stroke="#999" stroke-width="1"></line><text x="763.765" y="531.6" fill="#5b5b5b" text-anchor="end" font-size="13.5">2022</text></g><g id="tick__1920"><line x1="199.7" y1="512.6" x2="199.7" y2="518.1" stroke="#999" stroke-width="1"></line><text x="199.7" y="531.6" fill="#5b5b5b" text-anchor="middle" font-size="13.5">1920</text></g><g id="tick__1940"><line x1="310.3" y1="512.6" x2="310.3" y2="518.1" stroke="#999" stroke-width="1"></line><text x="310.3" y="531.6" fill="#5b5b5b" text-anchor="middle" font-size="13.5">1940</text></g><g id="tick__1960"><line x1="420.9" y1="512.6" x2="420.9" y2="518.1" stroke="#999" stroke-width="1"></line><text x="420.9" y="531.6" fill="#5b5b5b" text-anchor="middle" font-size="13.5">1960</text></g><g id="tick__1980"><line x1="531.5" y1="512.6" x2="531.5" y2="518.1" stroke="#999" stroke-width="1"></line><text x="531.5" y="531.6" fill="#5b5b5b" text-anchor="middle" font-size="13.5">1980</text></g><g id="tick__2000"><line x1="642.1" y1="512.6" x2="642.1" y2="518.1" stroke="#999" stroke-width="1"></line><text x="642.1" y="531.6" fill="#5b5b5b" text-anchor="middle" font-size="13.5">2000</text></g></g><g id="vertical-axis" class="VerticalAxis"><g id="tick-labels"><text id="tick-label__0-__0024__002ft" x="84.04" y="513.1" dy=".32em" text-anchor="end" fill="#5b5b5b" font-size="13.5">0 $/t</text><text id="tick-label__20__002c000-__0024__002ft" x="84.04" y="442.5" dy=".32em" text-anchor="end" fill="#5b5b5b" font-size="13.5">20,000 $/t</text><text id="tick-label__40__002c000-__0024__002ft" x="84.04" y="371.8" dy=".32em" text-anchor="end" fill="#5b5b5b" font-size="13.5">40,000 $/t</text><text id="tick-label__60__002c000-__0024__002ft" x="84.04" y="301.2" dy=".32em" text-anchor="end" fill="#5b5b5b" font-size="13.5">60,000 $/t</text><text id="tick-label__80__002c000-__0024__002ft" x="84.04" y="230.5" dy=".32em" text-anchor="end" fill="#5b5b5b" font-size="13.5">80,000 $/t</text><text id="tick-label__100__002c000-__0024__002ft" x="84.04" y="159.9" dy=".32em" text-anchor="end" fill="#5b5b5b" font-size="13.5">100,000 $/t</text><text id="tick-label__120__002c000-__0024__002ft" x="84.04" y="89.3" dy=".32em" text-anchor="end" fill="#5b5b5b" font-size="13.5">120,000 $/t</text></g></g><g id="horizontal-grid-lines" class="AxisGridLines horizontalLines"><line id="grid-line__0" x1="89.04" y1="513.1" x2="763.76" y2="513.1" stroke="#999" stroke-width="1"></line><line id="grid-line__20000" x1="89.04" y1="442.5" x2="763.76" y2="442.5" stroke="#ddd" stroke-width="1" stroke-dasharray="3,2"></line><line id="grid-line__40000" x1="89.04" y1="371.8" x2="763.76" y2="371.8" stroke="#ddd" stroke-width="1" stroke-dasharray="3,2"></line><line id="grid-line__60000" x1="89.04" y1="301.2" x2="763.76" y2="301.2" stroke="#ddd" stroke-width="1" stroke-dasharray="3,2"></line><line id="grid-line__80000" x1="89.04" y1="230.5" x2="763.76" y2="230.5" stroke="#ddd" stroke-width="1" stroke-dasharray="3,2"></line><line id="grid-line__100000" x1="89.04" y1="159.9" x2="763.76" y2="159.9" stroke="#ddd" stroke-width="1" stroke-dasharray="3,2"></line><line id="grid-line__120000" x1="89.04" y1="89.3" x2="763.76" y2="89.3" stroke="#ddd" stroke-width="1" stroke-dasharray="3,2"></line></g></g><g clip-path="url(#boundsClip-18)"><g id="line-labels" class="LineLabels"><g id="mark__World" class="legendMark" style="cursor:default"><rect id="background" x="763.765" y="489.45" width="70.235" height="13.5" fill="#fff" opacity="0"></rect><text id="label" font-size="13.50" font-weight="400" x="767.8" y="501.2" fill="#c15065"><tspan x="767.765" y="501.195">World</tspan></text></g></g><g id="lines" class="Lines"><rect x="89" y="89" width="675" height="424" fill="rgba(255,255,255,0)" opacity="0"></rect><g id="line__World"><path stroke-linecap="round" stroke-linejoin="round" stroke="#ddd" d="M89 170.5L94.6 237.6L100.1 294.1L105.6 301.2L111.2 301.2L116.7 333L122.2 336.5L127.8 343.6L133.3 265.9L138.8 265.9L144.3 248.2L149.9 223.5L155.4 244.7L160.9 256.3L166.5 145.8L172 152.8L177.5 89.3L183.1 173L188.6 224.9L194.1 287L199.7 351.3L205.2 374.6L210.7 363.3L216.2 327.7L221.8 362.3L227.3 367.9L232.8 295.9L238.4 345.3L243.9 365.8L249.4 387L255 410.3L260.5 408.6L266 434.3L271.5 407.8L277.1 399.4L282.6 416L288.1 422L293.7 425.2L299.2 418.8L304.7 412.4L310.3 399.7L315.8 405L321.3 415.6L326.9 421.3L332.4 422.7L337.9 424.8L343.4 419.5L349 400.4L354.5 407.8L360 406.4L365.6 404.7L371.1 403.3L376.6 405.4L382.2 406.1L387.7 406.8L393.2 406.4L398.7 408.2L404.3 411.4L409.8 414.2L415.3 414.9L420.9 416.7L426.4 417.7L431.9 418.4L437.5 419.9L443 418.8L448.5 375L454.1 356.3L459.6 361.2L465.1 367.2L470.6 353.1L476.2 317.1L481.7 348.2L487.2 402.9L492.8 362.6L498.3 275L503.8 318.5L509.4 346L514.9 386.7L520.4 447.4L526 460.5L531.5 472.5L537 477.9L542.5 491.9L548.1 491.2L553.6 460.8L559.1 452L564.7 475.3L570.2 472.1L575.7 451.3L581.3 454.1L586.8 478.5L592.3 485.2L597.8 489L603.4 491.1L608.9 485.2L614.4 481L620 483.6L625.5 485.4L631 485.1L636.6 483.7L642.1 485.8L647.6 486.3L653.2 491L658.7 493.3L664.2 490.6L669.7 487.7L675.3 481.4L680.8 426.9L686.3 437.9L691.9 466.8L697.4 462.2L702.9 448.5L708.5 457.3L714 465.8L719.5 453.4L725.1 478.6L730.6 489.3L736.1 487.5L741.6 489.8L747.2 497.3L752.7 499.7L758.2 495.6L763.8 496.2" fill="none" stroke-width="1"></path></g><g id="line__World"><path id="outline" fill="none" stroke-linecap="butt" stroke-linejoin="round" stroke="#fff" stroke-width="2.5" d="M89 170.5L94.6 237.6L100.1 294.1L105.6 301.2L111.2 301.2L116.7 333L122.2 336.5L127.8 343.6L133.3 265.9L138.8 265.9L144.3 248.2L149.9 223.5L155.4 244.7L160.9 256.3L166.5 145.8L172 152.8L177.5 89.3L183.1 173L188.6 224.9L194.1 287L199.7 351.3L205.2 374.6L210.7 363.3L216.2 327.7L221.8 362.3L227.3 367.9L232.8 295.9L238.4 345.3L243.9 365.8L249.4 387L255 410.3L260.5 408.6L266 434.3L271.5 407.8L277.1 399.4L282.6 416L288.1 422L293.7 425.2L299.2 418.8L304.7 412.4L310.3 399.7L315.8 405L321.3 415.6L326.9 421.3L332.4 422.7L337.9 424.8L343.4 419.5L349 400.4L354.5 407.8L360 406.4L365.6 404.7L371.1 403.3L376.6 405.4L382.2 406.1L387.7 406.8L393.2 406.4L398.7 408.2L404.3 411.4L409.8 414.2L415.3 414.9L420.9 416.7L426.4 417.7L431.9 418.4L437.5 419.9L443 418.8L448.5 375L454.1 356.3L459.6 361.2L465.1 367.2L470.6 353.1L476.2 317.1L481.7 348.2L487.2 402.9L492.8 362.6L498.3 275L503.8 318.5L509.4 346L514.9 386.7L520.4 447.4L526 460.5L531.5 472.5L537 477.9L542.5 491.9L548.1 491.2L553.6 460.8L559.1 452L564.7 475.3L570.2 472.1L575.7 451.3L581.3 454.1L586.8 478.5L592.3 485.2L597.8 489L603.4 491.1L608.9 485.2L614.4 481L620 483.6L625.5 485.4L631 485.1L636.6 483.7L642.1 485.8L647.6 486.3L653.2 491L658.7 493.3L664.2 490.6L669.7 487.7L675.3 481.4L680.8 426.9L686.3 437.9L691.9 466.8L697.4 462.2L702.9 448.5L708.5 457.3L714 465.8L719.5 453.4L725.1 478.6L730.6 489.3L736.1 487.5L741.6 489.8L747.2 497.3L752.7 499.7L758.2 495.6L763.8 496.2"></path><g id="polyline"><polyline id="polyline" points="89.00,170.50 94.60,237.60 100.10,294.10 105.60,301.20 111.20,301.20 116.70,333.00 122.20,336.50 127.80,343.60 133.30,265.90 138.80,265.90 144.30,248.20 149.90,223.50 155.40,244.70 160.90,256.30 166.50,145.80 172.00,152.80 177.50,89.30 183.10,173.00 188.60,224.90 194.10,287.00 199.70,351.30 205.20,374.60 210.70,363.30 216.20,327.70 221.80,362.30 227.30,367.90 232.80,295.90 238.40,345.30 243.90,365.80 249.40,387.00 255.00,410.30 260.50,408.60 266.00,434.30 271.50,407.80 277.10,399.40 282.60,416.00 288.10,422.00 293.70,425.20 299.20,418.80 304.70,412.40 310.30,399.70 315.80,405.00 321.30,415.60 326.90,421.30 332.40,422.70 337.90,424.80 343.40,419.50 349.00,400.40 354.50,407.80 360.00,406.40 365.60,404.70 371.10,403.30 376.60,405.40 382.20,406.10 387.70,406.80 393.20,406.40 398.70,408.20 404.30,411.40 409.80,414.20 415.30,414.90 420.90,416.70 426.40,417.70 431.90,418.40 437.50,419.90 443.00,418.80 448.50,375.00 454.10,356.30 459.60,361.20 465.10,367.20 470.60,353.10 476.20,317.10 481.70,348.20 487.20,402.90 492.80,362.60 498.30,275.00 503.80,318.50 509.40,346.00 514.90,386.70 520.40,447.40 526.00,460.50 531.50,472.50 537.00,477.90 542.50,491.90 548.10,491.20 553.60,460.80 559.10,452.00 564.70,475.30 570.20,472.10 575.70,451.30 581.30,454.10 586.80,478.50 592.30,485.20 597.80,489.00 603.40,491.10 608.90,485.20 614.40,481.00 620.00,483.60 625.50,485.40 631.00,485.10 636.60,483.70 642.10,485.80 647.60,486.30 653.20,491.00 658.70,493.30 664.20,490.60 669.70,487.70 675.30,481.40 680.80,426.90 686.30,437.90 691.90,466.80 697.40,462.20 702.90,448.50 708.50,457.30 714.00,465.80 719.50,453.40 725.10,478.60 730.60,489.30 736.10,487.50 741.60,489.80 747.20,497.30 752.70,499.70 758.20,495.60 763.80,496.20" stroke-linejoin="round" stroke-width="1.5" stroke="#C15065" fill="none" stroke-linecap="butt"></polyline></g><g id="markers"><circle cx="89" cy="170.5" r="1.8" fill="#C15065"></circle><circle cx="94.6" cy="237.6" r="1.8" fill="#C15065"></circle><circle cx="100.1" cy="294.1" r="1.8" fill="#C15065"></circle><circle cx="105.6" cy="301.2" r="1.8" fill="#C15065"></circle><circle cx="111.2" cy="301.2" r="1.8" fill="#C15065"></circle><circle cx="116.7" cy="333" r="1.8" fill="#C15065"></circle><circle cx="122.2" cy="336.5" r="1.8" fill="#C15065"></circle><circle cx="127.8" cy="343.6" r="1.8" fill="#C15065"></circle><circle cx="133.3" cy="265.9" r="1.8" fill="#C15065"></circle><circle cx="138.8" cy="265.9" r="1.8" fill="#C15065"></circle><circle cx="144.3" cy="248.2" r="1.8" fill="#C15065"></circle><circle cx="149.9" cy="223.5" r="1.8" fill="#C15065"></circle><circle cx="155.4" cy="244.7" r="1.8" fill="#C15065"></circle><circle cx="160.9" cy="256.3" r="1.8" fill="#C15065"></circle><circle cx="166.5" cy="145.8" r="1.8" fill="#C15065"></circle><circle cx="172" cy="152.8" r="1.8" fill="#C15065"></circle><circle cx="177.5" cy="89.3" r="1.8" fill="#C15065"></circle><circle cx="183.1" cy="173" r="1.8" fill="#C15065"></circle><circle cx="188.6" cy="224.9" r="1.8" fill="#C15065"></circle><circle cx="194.1" cy="287" r="1.8" fill="#C15065"></circle><circle cx="199.7" cy="351.3" r="1.8" fill="#C15065"></circle><circle cx="205.2" cy="374.6" r="1.8" fill="#C15065"></circle><circle cx="210.7" cy="363.3" r="1.8" fill="#C15065"></circle><circle cx="216.2" cy="327.7" r="1.8" fill="#C15065"></circle><circle cx="221.8" cy="362.3" r="1.8" fill="#C15065"></circle><circle cx="227.3" cy="367.9" r="1.8" fill="#C15065"></circle><circle cx="232.8" cy="295.9" r="1.8" fill="#C15065"></circle><circle cx="238.4" cy="345.3" r="1.8" fill="#C15065"></circle><circle cx="243.9" cy="365.8" r="1.8" fill="#C15065"></circle><circle cx="249.4" cy="387" r="1.8" fill="#C15065"></circle><circle cx="255" cy="410.3" r="1.8" fill="#C15065"></circle><circle cx="260.5" cy="408.6" r="1.8" fill="#C15065"></circle><circle cx="266" cy="434.3" r="1.8" fill="#C15065"></circle><circle cx="271.5" cy="407.8" r="1.8" fill="#C15065"></circle><circle cx="277.1" cy="399.4" r="1.8" fill="#C15065"></circle><circle cx="282.6" cy="416" r="1.8" fill="#C15065"></circle><circle cx="288.1" cy="422" r="1.8" fill="#C15065"></circle><circle cx="293.7" cy="425.2" r="1.8" fill="#C15065"></circle><circle cx="299.2" cy="418.8" r="1.8" fill="#C15065"></circle><circle cx="304.7" cy="412.4" r="1.8" fill="#C15065"></circle><circle cx="310.3" cy="399.7" r="1.8" fill="#C15065"></circle><circle cx="315.8" cy="405" r="1.8" fill="#C15065"></circle><circle cx="321.3" cy="415.6" r="1.8" fill="#C15065"></circle><circle cx="326.9" cy="421.3" r="1.8" fill="#C15065"></circle><circle cx="332.4" cy="422.7" r="1.8" fill="#C15065"></circle><circle cx="337.9" cy="424.8" r="1.8" fill="#C15065"></circle><circle cx="343.4" cy="419.5" r="1.8" fill="#C15065"></circle><circle cx="349" cy="400.4" r="1.8" fill="#C15065"></circle><circle cx="354.5" cy="407.8" r="1.8" fill="#C15065"></circle><circle cx="360" cy="406.4" r="1.8" fill="#C15065"></circle><circle cx="365.6" cy="404.7" r="1.8" fill="#C15065"></circle><circle cx="371.1" cy="403.3" r="1.8" fill="#C15065"></circle><circle cx="376.6" cy="405.4" r="1.8" fill="#C15065"></circle><circle cx="382.2" cy="406.1" r="1.8" fill="#C15065"></circle><circle cx="387.7" cy="406.8" r="1.8" fill="#C15065"></circle><circle cx="393.2" cy="406.4" r="1.8" fill="#C15065"></circle><circle cx="398.7" cy="408.2" r="1.8" fill="#C15065"></circle><circle cx="404.3" cy="411.4" r="1.8" fill="#C15065"></circle><circle cx="409.8" cy="414.2" r="1.8" fill="#C15065"></circle><circle cx="415.3" cy="414.9" r="1.8" fill="#C15065"></circle><circle cx="420.9" cy="416.7" r="1.8" fill="#C15065"></circle><circle cx="426.4" cy="417.7" r="1.8" fill="#C15065"></circle><circle cx="431.9" cy="418.4" r="1.8" fill="#C15065"></circle><circle cx="437.5" cy="419.9" r="1.8" fill="#C15065"></circle><circle cx="443" cy="418.8" r="1.8" fill="#C15065"></circle><circle cx="448.5" cy="375" r="1.8" fill="#C15065"></circle><circle cx="454.1" cy="356.3" r="1.8" fill="#C15065"></circle><circle cx="459.6" cy="361.2" r="1.8" fill="#C15065"></circle><circle cx="465.1" cy="367.2" r="1.8" fill="#C15065"></circle><circle cx="470.6" cy="353.1" r="1.8" fill="#C15065"></circle><circle cx="476.2" cy="317.1" r="1.8" fill="#C15065"></circle><circle cx="481.7" cy="348.2" r="1.8" fill="#C15065"></circle><circle cx="487.2" cy="402.9" r="1.8" fill="#C15065"></circle><circle cx="492.8" cy="362.6" r="1.8" fill="#C15065"></circle><circle cx="498.3" cy="275" r="1.8" fill="#C15065"></circle><circle cx="503.8" cy="318.5" r="1.8" fill="#C15065"></circle><circle cx="509.4" cy="346" r="1.8" fill="#C15065"></circle><circle cx="514.9" cy="386.7" r="1.8" fill="#C15065"></circle><circle cx="520.4" cy="447.4" r="1.8" fill="#C15065"></circle><circle cx="526" cy="460.5" r="1.8" fill="#C15065"></circle><circle cx="531.5" cy="472.5" r="1.8" fill="#C15065"></circle><circle cx="537" cy="477.9" r="1.8" fill="#C15065"></circle><circle cx="542.5" cy="491.9" r="1.8" fill="#C15065"></circle><circle cx="548.1" cy="491.2" r="1.8" fill="#C15065"></circle><circle cx="553.6" cy="460.8" r="1.8" fill="#C15065"></circle><circle cx="559.1" cy="452" r="1.8" fill="#C15065"></circle><circle cx="564.7" cy="475.3" r="1.8" fill="#C15065"></circle><circle cx="570.2" cy="472.1" r="1.8" fill="#C15065"></circle><circle cx="575.7" cy="451.3" r="1.8" fill="#C15065"></circle><circle cx="581.3" cy="454.1" r="1.8" fill="#C15065"></circle><circle cx="586.8" cy="478.5" r="1.8" fill="#C15065"></circle><circle cx="592.3" cy="485.2" r="1.8" fill="#C15065"></circle><circle cx="597.8" cy="489" r="1.8" fill="#C15065"></circle><circle cx="603.4" cy="491.1" r="1.8" fill="#C15065"></circle><circle cx="608.9" cy="485.2" r="1.8" fill="#C15065"></circle><circle cx="614.4" cy="481" r="1.8" fill="#C15065"></circle><circle cx="620" cy="483.6" r="1.8" fill="#C15065"></circle><circle cx="625.5" cy="485.4" r="1.8" fill="#C15065"></circle><circle cx="631" cy="485.1" r="1.8" fill="#C15065"></circle><circle cx="636.6" cy="483.7" r="1.8" fill="#C15065"></circle><circle cx="642.1" cy="485.8" r="1.8" fill="#C15065"></circle><circle cx="647.6" cy="486.3" r="1.8" fill="#C15065"></circle><circle cx="653.2" cy="491" r="1.8" fill="#C15065"></circle><circle cx="658.7" cy="493.3" r="1.8" fill="#C15065"></circle><circle cx="664.2" cy="490.6" r="1.8" fill="#C15065"></circle><circle cx="669.7" cy="487.7" r="1.8" fill="#C15065"></circle><circle cx="675.3" cy="481.4" r="1.8" fill="#C15065"></circle><circle cx="680.8" cy="426.9" r="1.8" fill="#C15065"></circle><circle cx="686.3" cy="437.9" r="1.8" fill="#C15065"></circle><circle cx="691.9" cy="466.8" r="1.8" fill="#C15065"></circle><circle cx="697.4" cy="462.2" r="1.8" fill="#C15065"></circle><circle cx="702.9" cy="448.5" r="1.8" fill="#C15065"></circle><circle cx="708.5" cy="457.3" r="1.8" fill="#C15065"></circle><circle cx="714" cy="465.8" r="1.8" fill="#C15065"></circle><circle cx="719.5" cy="453.4" r="1.8" fill="#C15065"></circle><circle cx="725.1" cy="478.6" r="1.8" fill="#C15065"></circle><circle cx="730.6" cy="489.3" r="1.8" fill="#C15065"></circle><circle cx="736.1" cy="487.5" r="1.8" fill="#C15065"></circle><circle cx="741.6" cy="489.8" r="1.8" fill="#C15065"></circle><circle cx="747.2" cy="497.3" r="1.8" fill="#C15065"></circle><circle cx="752.7" cy="499.7" r="1.8" fill="#C15065"></circle><circle cx="758.2" cy="495.6" r="1.8" fill="#C15065"></circle><circle cx="763.8" cy="496.2" r="1.8" fill="#C15065"></circle></g></g></g></g></g></g><g id="footer" class="SourcesFooter" style="fill:#5b5b5b"><g id="sources" class="markdown-text-wrap"><text x="16.0" y="562.7" style="font-size:13.5px;line-height:1.2"><tspan x="16" y="562.7"><tspan style="font-weight:700">Data source:</tspan> USGS - Historical Statistics for Mineral and Material Commodities (2023)</tspan></text></g><g id="note" class="markdown-text-wrap"><text x="16.0" y="580.9" style="font-size:13.5px;line-height:1.2"><tspan x="16" y="580.9"><tspan style="font-weight:700">Note:</tspan> This data is adjusted for inflation.</tspan></text></g><text id="origin-url" font-size="13.50" x="792.7" y="562.7"><tspan x="792.69" y="562.695"><a target="_blank" style="fill: #5b5b5b;" href="https://creativecommons.org/licenses/by/4.0/">CC BY</a></tspan></text></g><line id="separator-line" x1="16" y1="600" x2="834" y2="600" stroke="#e7e7e7"></line><g id="details" transform="translate(15, 616)"><g class="markdown-text-wrap"><text x="0.0" y="12.0" style="font-size:12.375px;fill:#5b5b5b;line-height:1.2"><tspan x="0" y="12.0"><tspan style="font-weight:700">1.</tspan> <tspan style="font-weight:700">Bismuth</tspan>: Bismuth is a metal that is often paired with other metals to form alloys. It’s found in electronic components such as semiconductors, and</tspan><tspan x="0" y="26.9">used in fuses and sprinkler systems. Bismuth compounds are also used in cosmetics and pharmaceuticals.</tspan></text></g></g></svg>