<svg xmlns="http://www.w3.org/2000/svg" version="1.1" style="font-family:Lato, &#x27;Helvetica Neue&#x27;, Helvetica, Arial, &#x27;Liberation Sans&#x27;, sans-serif;font-size:18px;background-color:white;text-rendering:geometricPrecision;-webkit-font-smoothing:antialiased" width="850" height="743.95" viewBox="0 0 850 743.95"><defs><style>@import url(https://ourworldindata.org/fonts.css)</style></defs><defs><pattern id="noDataPattern" patternUnits="userSpaceOnUse" width="4" height="4" patternTransform="rotate(-45 2 2)"><path d="M -1,2 l 6,0" stroke="#ccc" stroke-width="0.7"></path></pattern></defs><rect class="background-fill" fill="white" width="850" height="743.95"></rect><g id="header" class="HeaderView"><g id="logo" transform="translate(769, 16) scale(1)"><svg className="owidLogo" xmlns="http://www.w3.org/2000/svg" width="65" height="36" viewBox="0 0 65 36"  fill="none"><path fill="#002147" d="M0 0h64.8v36H0z"/><path fill="#CE261E" d="M0 33.3h64.8V36H0z"/><path fill="#fff" d="M13.796 10.575c0 .636-.106 1.226-.318 1.77a4.193 4.193 0 0 1-.894 1.404 4.084 4.084 0 0 1-1.386.93c-.54.22-1.138.33-1.794.33-.656 0-1.256-.11-1.8-.33a4.149 4.149 0 0 1-1.392-.93 4.193 4.193 0 0 1-.894-1.404A4.833 4.833 0 0 1 5 10.575c0-.636.106-1.224.318-1.764a4.18 4.18 0 0 1 .894-1.41 4.076 4.076 0 0 1 1.392-.924 4.684 4.684 0 0 1 1.8-.336c.656 0 1.254.112 1.794.336.54.224 1.002.534 1.386.93.384.392.682.86.894 1.404.212.54.318 1.128.318 1.764Zm-1.656 0c0-.476-.064-.902-.192-1.278a2.671 2.671 0 0 0-.54-.966 2.332 2.332 0 0 0-.864-.606 2.94 2.94 0 0 0-1.14-.21c-.424 0-.806.07-1.146.21-.34.14-.63.342-.87.606a2.742 2.742 0 0 0-.546.966 3.955 3.955 0 0 0-.192 1.278c0 .476.064.904.192 1.284.128.376.31.696.546.96.24.26.53.46.87.6.34.14.722.21 1.146.21.424 0 .804-.07 1.14-.21.34-.14.628-.34.864-.6.236-.264.416-.584.54-.96a4.01 4.01 0 0 0 .192-1.284ZM16.104 8.757v3.912c0 .376.086.668.258.876.176.204.438.306.786.306.256 0 .496-.056.72-.168a2.58 2.58 0 0 0 .636-.474V8.757h1.482v6.156h-.906c-.192 0-.318-.09-.378-.27l-.102-.492a4.65 4.65 0 0 1-.396.354 2.577 2.577 0 0 1-.438.27 2.35 2.35 0 0 1-.498.168 2.345 2.345 0 0 1-.57.066c-.336 0-.634-.056-.894-.168a1.821 1.821 0 0 1-.648-.486 2.157 2.157 0 0 1-.402-.738 3.233 3.233 0 0 1-.132-.948V8.757h1.482ZM21.328 14.913V8.757h.87c.152 0 .258.028.318.084.06.056.1.152.12.288l.09.744c.22-.38.478-.68.774-.9.296-.22.628-.33.996-.33.304 0 .556.07.756.21l-.192 1.11c-.012.072-.038.124-.078.156a.278.278 0 0 1-.162.042 1.01 1.01 0 0 1-.246-.042 1.646 1.646 0 0 0-.414-.042c-.308 0-.572.086-.792.258-.22.168-.406.416-.558.744v3.834h-1.482ZM27.347 6.237h1.356a.57.57 0 0 1 .348.102c.096.064.16.152.192.264l1.476 5.19c.036.128.068.268.096.42.032.148.062.306.09.474a5.968 5.968 0 0 1 .228-.894l1.704-5.19a.575.575 0 0 1 .186-.252.543.543 0 0 1 .348-.114h.474a.57.57 0 0 1 .348.102.497.497 0 0 1 .192.264l1.692 5.19c.088.256.164.54.228.852.028-.156.056-.306.084-.45.032-.144.064-.278.096-.402l1.476-5.19c.028-.1.09-.186.186-.258a.563.563 0 0 1 .348-.108h1.266l-2.694 8.676h-1.458l-1.896-5.928-.078-.246a9.504 9.504 0 0 1-.072-.282c-.024.1-.05.194-.078.282-.024.088-.048.17-.072.246l-1.914 5.928H30.04l-2.694-8.676ZM42.771 8.661c.46 0 .876.074 1.248.222.376.148.696.358.96.63s.468.604.612.996c.144.392.216.83.216 1.314 0 .488-.072.928-.216 1.32a2.85 2.85 0 0 1-.612 1.002 2.653 2.653 0 0 1-.96.636 3.35 3.35 0 0 1-1.248.222c-.46 0-.878-.074-1.254-.222a2.712 2.712 0 0 1-.966-.636 2.922 2.922 0 0 1-.618-1.002 3.807 3.807 0 0 1-.216-1.32c0-.484.072-.922.216-1.314.148-.392.354-.724.618-.996.268-.272.59-.482.966-.63a3.397 3.397 0 0 1 1.254-.222Zm0 5.202c.512 0 .89-.172 1.134-.516.248-.344.372-.848.372-1.512s-.124-1.17-.372-1.518c-.244-.348-.622-.522-1.134-.522-.52 0-.904.176-1.152.528-.248.348-.372.852-.372 1.512s.124 1.164.372 1.512c.248.344.632.516 1.152.516ZM46.723 14.913V8.757h.87c.152 0 .258.028.318.084.06.056.1.152.12.288l.09.744c.22-.38.478-.68.774-.9.296-.22.628-.33.996-.33.304 0 .556.07.756.21l-.192 1.11c-.012.072-.038.124-.078.156a.278.278 0 0 1-.162.042 1.01 1.01 0 0 1-.246-.042 1.646 1.646 0 0 0-.414-.042c-.308 0-.572.086-.792.258-.22.168-.406.416-.558.744v3.834h-1.482ZM52.96 5.997v8.916h-1.482V5.997h1.482ZM58.732 14.913c-.192 0-.318-.09-.378-.27l-.12-.594a3.68 3.68 0 0 1-.402.39c-.14.116-.292.216-.456.3-.16.084-.334.148-.522.192a2.372 2.372 0 0 1-.6.072c-.336 0-.644-.07-.924-.21a2.098 2.098 0 0 1-.726-.606 3.033 3.033 0 0 1-.468-.99 5.072 5.072 0 0 1-.162-1.344c0-.456.062-.88.186-1.272s.302-.732.534-1.02c.232-.288.51-.512.834-.672a2.384 2.384 0 0 1 1.092-.246 2.103 2.103 0 0 1 1.536.606V5.997h1.482v8.916h-.906Zm-1.974-1.086c.308 0 .57-.064.786-.192.216-.128.42-.31.612-.546v-2.76a1.452 1.452 0 0 0-.552-.432 1.597 1.597 0 0 0-.636-.126c-.224 0-.428.042-.612.126a1.21 1.21 0 0 0-.462.384c-.124.168-.22.384-.288.648-.068.26-.102.568-.102.924 0 .36.028.666.084.918.06.248.144.452.252.612.108.156.24.27.396.342.156.068.33.102.522.102ZM16.331 20.757v6.156H14.85v-6.156h1.481Zm.223-1.794a.844.844 0 0 1-.078.36.963.963 0 0 1-.21.294.995.995 0 0 1-.3.204.963.963 0 0 1-.372.072.948.948 0 0 1-.367-.072 1.018 1.018 0 0 1-.498-.498.963.963 0 0 1 0-.732.995.995 0 0 1 .205-.3.929.929 0 0 1 .293-.198.899.899 0 0 1 .738 0 .912.912 0 0 1 .3.198.943.943 0 0 1 .288.672ZM17.771 26.913v-6.156h.906c.192 0 .318.09.378.27l.102.486a2.934 2.934 0 0 1 .828-.618c.156-.076.322-.134.498-.174.176-.04.368-.06.576-.06.336 0 .634.058.894.174.26.112.476.272.648.48.176.204.308.45.396.738.092.284.138.598.138.942v3.918h-1.482v-3.918c0-.376-.088-.666-.264-.87-.172-.208-.432-.312-.78-.312-.256 0-.496.058-.72.174a2.58 2.58 0 0 0-.636.474v4.452h-1.482ZM34.22 22.575c0 .636-.106 1.22-.318 1.752-.212.532-.51.99-.894 1.374a4 4 0 0 1-1.386.894 4.87 4.87 0 0 1-1.794.318h-3.312v-8.676h3.312a4.79 4.79 0 0 1 1.794.324 4 4 0 0 1 1.386.894c.384.38.682.836.894 1.368.212.532.318 1.116.318 1.752Zm-1.65 0c0-.476-.064-.902-.192-1.278a2.68 2.68 0 0 0-.546-.96 2.332 2.332 0 0 0-.864-.606 2.94 2.94 0 0 0-1.14-.21h-1.686v6.108h1.686c.424 0 .804-.07 1.14-.21.34-.14.628-.34.864-.6a2.75 2.75 0 0 0 .546-.96 4.01 4.01 0 0 0 .192-1.284ZM39.98 26.913h-.665c-.14 0-.25-.02-.33-.06-.08-.044-.14-.13-.18-.258l-.132-.438c-.156.14-.31.264-.462.372a2.804 2.804 0 0 1-.462.264c-.16.072-.33.126-.51.162-.18.036-.38.054-.6.054-.26 0-.5-.034-.72-.102a1.618 1.618 0 0 1-.57-.318 1.448 1.448 0 0 1-.366-.522 1.852 1.852 0 0 1-.132-.726c0-.232.06-.46.18-.684.124-.228.328-.432.612-.612.284-.184.662-.336 1.134-.456.472-.12 1.058-.188 1.758-.204v-.36c0-.412-.088-.716-.264-.912-.172-.2-.424-.3-.756-.3a1.837 1.837 0 0 0-1.02.276c-.116.068-.224.13-.324.186a.664.664 0 0 1-.33.084.429.429 0 0 1-.258-.078.614.614 0 0 1-.174-.192l-.27-.474c.708-.648 1.562-.972 2.562-.972.36 0 .68.06.96.18.284.116.524.28.72.492.196.208.344.458.444.75.104.292.156.612.156.96v3.888Zm-2.88-.924c.153 0 .293-.014.42-.042.129-.028.249-.07.36-.126.117-.056.227-.124.33-.204.109-.084.217-.182.325-.294v-1.038c-.432.02-.794.058-1.086.114-.288.052-.52.12-.696.204a.923.923 0 0 0-.378.294.664.664 0 0 0-.108.366c0 .26.076.446.228.558.156.112.358.168.606.168ZM43.22 27.01c-.532 0-.942-.15-1.23-.45-.288-.305-.432-.723-.432-1.255v-3.438h-.624a.31.31 0 0 1-.21-.078c-.056-.052-.084-.13-.084-.234v-.588l.99-.162.312-1.68a.302.302 0 0 1 .108-.186.365.365 0 0 1 .222-.066h.768v1.938h1.62v1.056h-1.62v3.336c0 .192.048.342.144.45a.488.488 0 0 0 .384.162c.092 0 .168-.01.228-.03.064-.024.118-.048.162-.072.048-.024.09-.046.126-.066a.194.194 0 0 1 .108-.036.16.16 0 0 1 .108.036c.028.02.058.052.09.096l.444.72c-.216.18-.464.316-.744.408a2.77 2.77 0 0 1-.87.138ZM50.423 26.913h-.666c-.14 0-.25-.02-.33-.06-.08-.044-.14-.13-.18-.258l-.132-.438c-.156.14-.31.264-.462.372a2.804 2.804 0 0 1-.462.264c-.16.072-.33.126-.51.162-.18.036-.38.054-.6.054-.26 0-.5-.034-.72-.102a1.618 1.618 0 0 1-.57-.318 1.448 1.448 0 0 1-.366-.522 1.852 1.852 0 0 1-.132-.726c0-.232.06-.46.18-.684.124-.228.328-.432.612-.612.284-.184.662-.336 1.134-.456.472-.12 1.058-.188 1.758-.204v-.36c0-.412-.088-.716-.264-.912-.172-.2-.424-.3-.756-.3a1.837 1.837 0 0 0-1.02.276c-.116.068-.224.13-.324.186a.664.664 0 0 1-.33.084.429.429 0 0 1-.258-.078.614.614 0 0 1-.174-.192l-.27-.474c.708-.648 1.562-.972 2.562-.972.36 0 .68.06.96.18.284.116.524.28.72.492.196.208.344.458.444.75.104.292.156.612.156.96v3.888Zm-2.88-.924c.152 0 .292-.014.42-.042.128-.028.248-.07.36-.126.116-.056.226-.124.33-.204.108-.084.216-.182.324-.294v-1.038c-.432.02-.794.058-1.086.114-.288.052-.52.12-.696.204a.923.923 0 0 0-.378.294.664.664 0 0 0-.108.366c0 .26.076.446.228.558.156.112.358.168.606.168Z"/></svg></g><a id="title" href="https://ourworldindata.org/explorers/minerals?Mineral=Bismuth&amp;Metric=Production&amp;Type=Refinery&amp;Share+of+global=false&amp;country=AUS~CHL~CHN~USA~CAN~ALB~DZA~ARG~ARM~AUT~AZE~BOL~OWID_WRL~BWA~BRA~BGR~COL~COG~CUB~CYP~OWID_CZS~COD~DOM~OWID_GDR~ZWE~ZMB~OWID_YGS~OWID_GFR~VNM~UZB~GBR~UGA~OWID_USS~TUR~TZA~TJK~TWN~SWE~ESP~KOR~ZAF~SVK~OWID_SRM~SRB~SAU~RUS~ROU~PRT~POL~PHL~PER~PNG~PAN~PAK~OMN~NOR~MKD~PRK~NIC~NZL~NAM~MMR~MOZ~MAR~MNG~MEX~MRT~MYS~LAO~KGZ~KEN~KAZ~JPN~ITA~ISR~IRL~IRN~IDN~IND~HUN~HND~HTI~GTM~GRC~DEU~GEO~FRA~FIN~ERI~ECU~VEN~ARE~UKR~CHE~SUR~LKA~SVN~QAT~NGA~NLD~MNE~ISL~GHA~EGY~HRV~CMR~BIH~BHR" style="font-family:&#x27;Playfair Display&#x27;, Georgia, &#x27;Times New Roman&#x27;, &#x27;Liberation Serif&#x27;, serif" target="_blank" rel="noopener"><text font-size="24.75" font-weight="600" x="16.0" y="40.0" fill="#5b5b5b"><tspan x="16" y="40.0075">Refined bismuth production, 1984 to 2023</tspan></text></a><g id="subtitle" class="markdown-text-wrap"><text x="16.0" y="63.9" style="font-size:14.625px;line-height:1.2" fill="#5b5b5b"><tspan x="16" y="63.9">Production of refined <tspan class="dod-span" data-id="bismuth">bismuth<tspan style="font-feature-settings:&quot;sups&quot;">¹</tspan></tspan>, measured in tonnes. The amounts of <tspan class="dod-span" data-id="refined-production">refined<tspan style="font-feature-settings:&quot;sups&quot;">²</tspan></tspan> and raw materials differ because</tspan><tspan x="16" y="81.4">refining removes impurities and adjusts the composition to meet specific standards.</tspan></text></g></g><g id="chart-area" style="pointer-events:none"><g id="line-chart" class="LineChart"><defs><clipPath id="boundsClip-16"><rect x="60.14" y="90.8" width="838" height="434.6"></rect></clipPath></defs><rect x="16" y="100.8" width="818" height="414.6" fill="none"></rect><g id="dual-axis" class="DualAxisView"><g id="horizontal-axis" class="HorizontalAxis"><g id="tick__1984"><line x1="70.1" y1="494.40000000000003" x2="70.1" y2="499.90000000000003" stroke="#999" stroke-width="1"></line><text x="70.14" y="513.4" fill="#5b5b5b" text-anchor="start" font-size="13.5">1984</text></g><g id="tick__2023"><line x1="717.6" y1="494.40000000000003" x2="717.6" y2="499.90000000000003" stroke="#999" stroke-width="1"></line><text x="717.595" y="513.4" fill="#5b5b5b" text-anchor="end" font-size="13.5">2023</text></g><g id="tick__1990"><line x1="169.7" y1="494.40000000000003" x2="169.7" y2="499.90000000000003" stroke="#999" stroke-width="1"></line><text x="169.7" y="513.4" fill="#5b5b5b" text-anchor="middle" font-size="13.5">1990</text></g><g id="tick__1995"><line x1="252.8" y1="494.40000000000003" x2="252.8" y2="499.90000000000003" stroke="#999" stroke-width="1"></line><text x="252.8" y="513.4" fill="#5b5b5b" text-anchor="middle" font-size="13.5">1995</text></g><g id="tick__2000"><line x1="335.8" y1="494.40000000000003" x2="335.8" y2="499.90000000000003" stroke="#999" stroke-width="1"></line><text x="335.8" y="513.4" fill="#5b5b5b" text-anchor="middle" font-size="13.5">2000</text></g><g id="tick__2005"><line x1="418.8" y1="494.40000000000003" x2="418.8" y2="499.90000000000003" stroke="#999" stroke-width="1"></line><text x="418.8" y="513.4" fill="#5b5b5b" text-anchor="middle" font-size="13.5">2005</text></g><g id="tick__2010"><line x1="501.8" y1="494.40000000000003" x2="501.8" y2="499.90000000000003" stroke="#999" stroke-width="1"></line><text x="501.8" y="513.4" fill="#5b5b5b" text-anchor="middle" font-size="13.5">2010</text></g><g id="tick__2015"><line x1="584.8" y1="494.40000000000003" x2="584.8" y2="499.90000000000003" stroke="#999" stroke-width="1"></line><text x="584.8" y="513.4" fill="#5b5b5b" text-anchor="middle" font-size="13.5">2015</text></g></g><g id="vertical-axis" class="VerticalAxis"><g id="tick-labels"><text id="tick-label__0-t" x="65.14" y="494.9" dy=".32em" text-anchor="end" fill="#5b5b5b" font-size="13.5">0 t</text><text id="tick-label__5__002c000-t" x="65.14" y="399.8" dy=".32em" text-anchor="end" fill="#5b5b5b" font-size="13.5">5,000 t</text><text id="tick-label__10__002c000-t" x="65.14" y="304.7" dy=".32em" text-anchor="end" fill="#5b5b5b" font-size="13.5">10,000 t</text><text id="tick-label__15__002c000-t" x="65.14" y="209.5" dy=".32em" text-anchor="end" fill="#5b5b5b" font-size="13.5">15,000 t</text><text id="tick-label__20__002c000-t" x="65.14" y="114.4" dy=".32em" text-anchor="end" fill="#5b5b5b" font-size="13.5">20,000 t</text></g></g><g id="horizontal-grid-lines" class="AxisGridLines horizontalLines"><line id="grid-line__0" x1="70.14" y1="494.9" x2="717.60" y2="494.9" stroke="#999" stroke-width="1"></line><line id="grid-line__5000" x1="70.14" y1="399.8" x2="717.60" y2="399.8" stroke="#ddd" stroke-width="1" stroke-dasharray="3,2"></line><line id="grid-line__10000" x1="70.14" y1="304.7" x2="717.60" y2="304.7" stroke="#ddd" stroke-width="1" stroke-dasharray="3,2"></line><line id="grid-line__15000" x1="70.14" y1="209.5" x2="717.60" y2="209.5" stroke="#ddd" stroke-width="1" stroke-dasharray="3,2"></line><line id="grid-line__20000" x1="70.14" y1="114.4" x2="717.60" y2="114.4" stroke="#ddd" stroke-width="1" stroke-dasharray="3,2"></line></g></g><g clip-path="url(#boundsClip-16)"><g id="line-labels" class="LineLabels"><g id="mark__World" class="legendMark" style="cursor:default"><g id="connector" class="indicator"><path d="M721.595,114.4 H735.095 V114.4 H748.595" stroke="#999" stroke-width="0.5" fill="none"></path></g><rect id="background" x="717.595" y="107.65" width="70.235" height="13.5" fill="#fff" opacity="0"></rect><text id="label" font-size="13.50" font-weight="400" x="752.6" y="119.4" fill="#c15065"><tspan x="752.595" y="119.39500000000001">World</tspan></text></g><g id="mark__China" class="legendMark" style="cursor:default"><g id="connector" class="indicator"><path d="M721.595,190.5 H735.095 V190.5 H748.595" stroke="#999" stroke-width="0.5" fill="none"></path></g><rect id="background" x="717.595" y="183.75" width="70.37" height="13.5" fill="#fff" opacity="0"></rect><text id="label" font-size="13.50" font-weight="400" x="752.6" y="195.5" fill="#cf0a66"><tspan x="752.595" y="195.495">China</tspan></text></g><g id="mark__Laos" class="legendMark" style="cursor:default"><g id="connector" class="indicator"><path d="M721.595,456.9 H724.595 V384.6499999999999 H748.595" stroke="#999" stroke-width="0.5" fill="none"></path></g><rect id="background" x="717.595" y="377.8999999999999" width="64.43" height="13.5" fill="#fff" opacity="0"></rect><text id="label" font-size="13.50" font-weight="400" x="752.6" y="389.6" fill="#b16214"><tspan x="752.595" y="389.6449999999999">Laos</tspan></text></g><g id="mark__South-Korea" class="legendMark" style="cursor:default"><g id="connector" class="indicator"><path d="M721.595,478.7 H727.595 V400.1499999999999 H748.595" stroke="#999" stroke-width="0.5" fill="none"></path></g><rect id="background" x="717.595" y="393.3999999999999" width="110.465" height="13.5" fill="#fff" opacity="0"></rect><text id="label" font-size="13.50" font-weight="400" x="752.6" y="405.1" fill="#970046"><tspan x="752.595" y="405.1449999999999">South Korea</tspan></text></g><g id="mark__Japan" class="legendMark" style="cursor:default"><g id="connector" class="indicator"><path d="M721.595,485.4 H730.595 V415.6499999999999 H748.595" stroke="#999" stroke-width="0.5" fill="none"></path></g><rect id="background" x="717.595" y="408.8999999999999" width="71.99000000000001" height="13.5" fill="#fff" opacity="0"></rect><text id="label" font-size="13.50" font-weight="400" x="752.6" y="420.6" fill="#c15065"><tspan x="752.595" y="420.6449999999999">Japan</tspan></text></g><g id="mark__Kazakhstan" class="legendMark" style="cursor:default"><g id="connector" class="indicator"><path d="M721.595,491.9 H733.595 V431.1499999999999 H748.595" stroke="#999" stroke-width="0.5" fill="none"></path></g><rect id="background" x="717.595" y="424.3999999999999" width="105.875" height="13.5" fill="#fff" opacity="0"></rect><text id="label" font-size="13.50" font-weight="400" x="752.6" y="436.1" fill="#d73c50"><tspan x="752.595" y="436.1449999999999">Kazakhstan</tspan></text></g><g id="mark__Bulgaria" class="legendMark" style="cursor:default"><g id="connector" class="indicator"><path d="M721.595,493.9 H736.595 V446.6499999999999 H748.595" stroke="#999" stroke-width="0.5" fill="none"></path></g><rect id="background" x="717.595" y="439.8999999999999" width="84.68" height="13.5" fill="#fff" opacity="0"></rect><text id="label" font-size="13.50" font-weight="400" x="752.6" y="451.6" fill="#970046"><tspan x="752.595" y="451.6449999999999">Bulgaria</tspan></text></g><g id="mark__Canada" class="legendMark" style="cursor:default"><g id="connector" class="indicator"><path d="M721.595,493.9 H739.595 V462.1499999999999 H748.595" stroke="#999" stroke-width="0.5" fill="none"></path></g><rect id="background" x="717.595" y="455.3999999999999" width="82.52000000000001" height="13.5" fill="#fff" opacity="0"></rect><text id="label" font-size="13.50" font-weight="400" x="752.6" y="467.1" fill="#18470f"><tspan x="752.595" y="467.1449999999999">Canada</tspan></text></g><g id="mark__Bolivia" class="legendMark" style="cursor:default"><g id="connector" class="indicator"><path d="M721.595,494.1 H742.595 V477.6499999999999 H748.595" stroke="#999" stroke-width="0.5" fill="none"></path></g><rect id="background" x="717.595" y="470.8999999999999" width="74.825" height="13.5" fill="#fff" opacity="0"></rect><text id="label" font-size="13.50" font-weight="400" x="752.6" y="482.6" fill="#a2559c"><tspan x="752.595" y="482.6449999999999">Bolivia</tspan></text></g><g id="mark__Mexico" class="legendMark" style="cursor:default"><g id="connector" class="indicator"><path d="M721.595,494.7 H745.595 V493.1499999999999 H748.595" stroke="#999" stroke-width="0.5" fill="none"></path></g><rect id="background" x="717.595" y="486.3999999999999" width="77.795" height="13.5" fill="#fff" opacity="0"></rect><text id="label" font-size="13.50" font-weight="400" x="752.6" y="498.1" fill="#b13507"><tspan x="752.595" y="498.1449999999999">Mexico</tspan></text></g><g id="mark__United-States" class="legendMark" style="cursor:default"><g id="connector" class="indicator"><path d="M721.595,494.9 H745.595 V508.6499999999999 H748.595" stroke="#999" stroke-width="0.5" fill="none"></path></g><rect id="background" x="717.595" y="501.8999999999999" width="116.405" height="13.5" fill="#fff" opacity="0"></rect><text id="label" font-size="13.50" font-weight="400" x="752.6" y="513.6" fill="#6d3e91"><tspan x="752.595" y="513.6449999999999">United States</tspan></text></g></g><g id="lines" class="Lines"><rect x="70" y="107" width="647" height="388" fill="rgba(255,255,255,0)" opacity="0"></rect><g id="line__United-States"><path stroke-linecap="round" stroke-linejoin="round" stroke="#ddd" d="M684.4 494.9L701 494.9L717.6 494.9" fill="none" stroke-width="1"></path></g><g id="line__South-Korea"><path stroke-linecap="round" stroke-linejoin="round" stroke="#ddd" d="M684.4 475.9L701 479.5L717.6 478.7" fill="none" stroke-width="1"></path></g><g id="line__Mexico"><path stroke-linecap="round" stroke-linejoin="round" stroke="#ddd" d="M684.4 494.7L701 494.7" fill="none" stroke-width="1"></path></g><g id="line__Laos"><path stroke-linecap="round" stroke-linejoin="round" stroke="#ddd" d="M684.4 455.5L701 458L717.6 456.9" fill="none" stroke-width="1"></path></g><g id="line__Kazakhstan"><path stroke-linecap="round" stroke-linejoin="round" stroke="#ddd" d="M684.4 490.5L701 491.3L717.6 491.9" fill="none" stroke-width="1"></path></g><g id="line__Japan"><path stroke-linecap="round" stroke-linejoin="round" stroke="#ddd" d="M684.4 485.4L701 485.6L717.6 485.4" fill="none" stroke-width="1"></path></g><g id="line__China"><path stroke-linecap="round" stroke-linejoin="round" stroke="#ddd" d="M684.4 190.5L701 200L717.6 190.5" fill="none" stroke-width="1"></path></g><g id="line__Canada"><path stroke-linecap="round" stroke-linejoin="round" stroke="#ddd" d="M684.4 493.9L701 493.9" fill="none" stroke-width="1"></path></g><g id="line__Bulgaria"><path stroke-linecap="round" stroke-linejoin="round" stroke="#ddd" d="M684.4 493.9L701 493.9L717.6 493.9" fill="none" stroke-width="1"></path></g><g id="line__Bolivia"><path stroke-linecap="round" stroke-linejoin="round" stroke="#ddd" d="M684.4 493.8L701 494.9L717.6 494.1" fill="none" stroke-width="1"></path></g><g id="line__World"><path stroke-linecap="round" stroke-linejoin="round" stroke="#ddd" d="M70.1 434.3L86.7 412.6L103.3 417.3L119.9 417.3L136.5 416.9L153.1 415.1L169.7 415.2L186.3 422.2L203 424.3L219.6 411.4L236.2 415.4L252.8 421.8L269.4 415.4L286 417.5L302.6 412.5L319.2 427L335.8 414.4L352.4 384.6L369 367.4L385.6 329.4L402.2 209.5L418.8 228.6L435.4 209.5L452 201.9L468.6 190.5L485.2 228.6L501.8 190.5L518.4 177.2L535 177.2L551.6 169.6L568.2 133.4L584.8 125.8L601.4 120.1L618 118.2L634.6 106.8L651.2 146.8L667.8 144.8L684.4 114.4L701 133.4L717.6 114.4" fill="none" stroke-width="1"></path></g><g id="line__United-States"><path id="outline" fill="none" stroke-linecap="butt" stroke-linejoin="round" stroke="#fff" stroke-width="2.5" d="M684.4 494.9L701 494.9L717.6 494.9"></path><g id="polyline"><polyline id="polyline" points="684.40,494.90 701.00,494.90 717.60,494.90" stroke-linejoin="round" stroke-width="1.5" stroke="#6D3E91" fill="none" stroke-linecap="butt"></polyline></g><g id="markers"><circle cx="684.4" cy="494.9" r="1.8" fill="#6D3E91"></circle><circle cx="701" cy="494.9" r="1.8" fill="#6D3E91"></circle><circle cx="717.6" cy="494.9" r="1.8" fill="#6D3E91"></circle></g></g><g id="line__South-Korea"><path id="outline" fill="none" stroke-linecap="butt" stroke-linejoin="round" stroke="#fff" stroke-width="2.5" d="M684.4 475.9L701 479.5L717.6 478.7"></path><g id="polyline"><polyline id="polyline" points="684.40,475.90 701.00,479.50 717.60,478.70" stroke-linejoin="round" stroke-width="1.5" stroke="#970046" fill="none" stroke-linecap="butt"></polyline></g><g id="markers"><circle cx="684.4" cy="475.9" r="1.8" fill="#970046"></circle><circle cx="701" cy="479.5" r="1.8" fill="#970046"></circle><circle cx="717.6" cy="478.7" r="1.8" fill="#970046"></circle></g></g><g id="line__Mexico"><path id="outline" fill="none" stroke-linecap="butt" stroke-linejoin="round" stroke="#fff" stroke-width="2.5" d="M684.4 494.7L701 494.7"></path><g id="polyline"><polyline id="polyline" points="684.40,494.70 701.00,494.70" stroke-linejoin="round" stroke-width="1.5" stroke="#B13507" fill="none" stroke-linecap="butt"></polyline></g><g id="markers"><circle cx="684.4" cy="494.7" r="1.8" fill="#B13507"></circle><circle cx="701" cy="494.7" r="1.8" fill="#B13507"></circle></g></g><g id="line__Laos"><path id="outline" fill="none" stroke-linecap="butt" stroke-linejoin="round" stroke="#fff" stroke-width="2.5" d="M684.4 455.5L701 458L717.6 456.9"></path><g id="polyline"><polyline id="polyline" points="684.40,455.50 701.00,458.00 717.60,456.90" stroke-linejoin="round" stroke-width="1.5" stroke="#B16214" fill="none" stroke-linecap="butt"></polyline></g><g id="markers"><circle cx="684.4" cy="455.5" r="1.8" fill="#B16214"></circle><circle cx="701" cy="458" r="1.8" fill="#B16214"></circle><circle cx="717.6" cy="456.9" r="1.8" fill="#B16214"></circle></g></g><g id="line__Kazakhstan"><path id="outline" fill="none" stroke-linecap="butt" stroke-linejoin="round" stroke="#fff" stroke-width="2.5" d="M684.4 490.5L701 491.3L717.6 491.9"></path><g id="polyline"><polyline id="polyline" points="684.40,490.50 701.00,491.30 717.60,491.90" stroke-linejoin="round" stroke-width="1.5" stroke="#D73C50" fill="none" stroke-linecap="butt"></polyline></g><g id="markers"><circle cx="684.4" cy="490.5" r="1.8" fill="#D73C50"></circle><circle cx="701" cy="491.3" r="1.8" fill="#D73C50"></circle><circle cx="717.6" cy="491.9" r="1.8" fill="#D73C50"></circle></g></g><g id="line__Japan"><path id="outline" fill="none" stroke-linecap="butt" stroke-linejoin="round" stroke="#fff" stroke-width="2.5" d="M684.4 485.4L701 485.6L717.6 485.4"></path><g id="polyline"><polyline id="polyline" points="684.40,485.40 701.00,485.60 717.60,485.40" stroke-linejoin="round" stroke-width="1.5" stroke="#C15065" fill="none" stroke-linecap="butt"></polyline></g><g id="markers"><circle cx="684.4" cy="485.4" r="1.8" fill="#C15065"></circle><circle cx="701" cy="485.6" r="1.8" fill="#C15065"></circle><circle cx="717.6" cy="485.4" r="1.8" fill="#C15065"></circle></g></g><g id="line__China"><path id="outline" fill="none" stroke-linecap="butt" stroke-linejoin="round" stroke="#fff" stroke-width="2.5" d="M684.4 190.5L701 200L717.6 190.5"></path><g id="polyline"><polyline id="polyline" points="684.40,190.50 701.00,200.00 717.60,190.50" stroke-linejoin="round" stroke-width="1.5" stroke="#CF0A66" fill="none" stroke-linecap="butt"></polyline></g><g id="markers"><circle cx="684.4" cy="190.5" r="1.8" fill="#CF0A66"></circle><circle cx="701" cy="200" r="1.8" fill="#CF0A66"></circle><circle cx="717.6" cy="190.5" r="1.8" fill="#CF0A66"></circle></g></g><g id="line__Canada"><path id="outline" fill="none" stroke-linecap="butt" stroke-linejoin="round" stroke="#fff" stroke-width="2.5" d="M684.4 493.9L701 493.9"></path><g id="polyline"><polyline id="polyline" points="684.40,493.90 701.00,493.90" stroke-linejoin="round" stroke-width="1.5" stroke="#18470F" fill="none" stroke-linecap="butt"></polyline></g><g id="markers"><circle cx="684.4" cy="493.9" r="1.8" fill="#18470F"></circle><circle cx="701" cy="493.9" r="1.8" fill="#18470F"></circle></g></g><g id="line__Bulgaria"><path id="outline" fill="none" stroke-linecap="butt" stroke-linejoin="round" stroke="#fff" stroke-width="2.5" d="M684.4 493.9L701 493.9L717.6 493.9"></path><g id="polyline"><polyline id="polyline" points="684.40,493.90 701.00,493.90 717.60,493.90" stroke-linejoin="round" stroke-width="1.5" stroke="#970046" fill="none" stroke-linecap="butt"></polyline></g><g id="markers"><circle cx="684.4" cy="493.9" r="1.8" fill="#970046"></circle><circle cx="701" cy="493.9" r="1.8" fill="#970046"></circle><circle cx="717.6" cy="493.9" r="1.8" fill="#970046"></circle></g></g><g id="line__Bolivia"><path id="outline" fill="none" stroke-linecap="butt" stroke-linejoin="round" stroke="#fff" stroke-width="2.5" d="M684.4 493.8L701 494.9L717.6 494.1"></path><g id="polyline"><polyline id="polyline" points="684.40,493.80 701.00,494.90 717.60,494.10" stroke-linejoin="round" stroke-width="1.5" stroke="#A2559C" fill="none" stroke-linecap="butt"></polyline></g><g id="markers"><circle cx="684.4" cy="493.8" r="1.8" fill="#A2559C"></circle><circle cx="701" cy="494.9" r="1.8" fill="#A2559C"></circle><circle cx="717.6" cy="494.1" r="1.8" fill="#A2559C"></circle></g></g><g id="line__World"><path id="outline" fill="none" stroke-linecap="butt" stroke-linejoin="round" stroke="#fff" stroke-width="2.5" d="M70.1 434.3L86.7 412.6L103.3 417.3L119.9 417.3L136.5 416.9L153.1 415.1L169.7 415.2L186.3 422.2L203 424.3L219.6 411.4L236.2 415.4L252.8 421.8L269.4 415.4L286 417.5L302.6 412.5L319.2 427L335.8 414.4L352.4 384.6L369 367.4L385.6 329.4L402.2 209.5L418.8 228.6L435.4 209.5L452 201.9L468.6 190.5L485.2 228.6L501.8 190.5L518.4 177.2L535 177.2L551.6 169.6L568.2 133.4L584.8 125.8L601.4 120.1L618 118.2L634.6 106.8L651.2 146.8L667.8 144.8L684.4 114.4L701 133.4L717.6 114.4"></path><g id="polyline"><polyline id="polyline" points="70.10,434.30 86.70,412.60 103.30,417.30 119.90,417.30 136.50,416.90 153.10,415.10 169.70,415.20 186.30,422.20 203.00,424.30 219.60,411.40 236.20,415.40 252.80,421.80 269.40,415.40 286.00,417.50 302.60,412.50 319.20,427.00 335.80,414.40 352.40,384.60 369.00,367.40 385.60,329.40 402.20,209.50 418.80,228.60 435.40,209.50 452.00,201.90 468.60,190.50 485.20,228.60 501.80,190.50 518.40,177.20 535.00,177.20 551.60,169.60 568.20,133.40 584.80,125.80 601.40,120.10 618.00,118.20 634.60,106.80 651.20,146.80 667.80,144.80 684.40,114.40 701.00,133.40 717.60,114.40" stroke-linejoin="round" stroke-width="1.5" stroke="#C15065" fill="none" stroke-linecap="butt"></polyline></g><g id="markers"><circle cx="70.1" cy="434.3" r="1.8" fill="#C15065"></circle><circle cx="86.7" cy="412.6" r="1.8" fill="#C15065"></circle><circle cx="103.3" cy="417.3" r="1.8" fill="#C15065"></circle><circle cx="119.9" cy="417.3" r="1.8" fill="#C15065"></circle><circle cx="136.5" cy="416.9" r="1.8" fill="#C15065"></circle><circle cx="153.1" cy="415.1" r="1.8" fill="#C15065"></circle><circle cx="169.7" cy="415.2" r="1.8" fill="#C15065"></circle><circle cx="186.3" cy="422.2" r="1.8" fill="#C15065"></circle><circle cx="203" cy="424.3" r="1.8" fill="#C15065"></circle><circle cx="219.6" cy="411.4" r="1.8" fill="#C15065"></circle><circle cx="236.2" cy="415.4" r="1.8" fill="#C15065"></circle><circle cx="252.8" cy="421.8" r="1.8" fill="#C15065"></circle><circle cx="269.4" cy="415.4" r="1.8" fill="#C15065"></circle><circle cx="286" cy="417.5" r="1.8" fill="#C15065"></circle><circle cx="302.6" cy="412.5" r="1.8" fill="#C15065"></circle><circle cx="319.2" cy="427" r="1.8" fill="#C15065"></circle><circle cx="335.8" cy="414.4" r="1.8" fill="#C15065"></circle><circle cx="352.4" cy="384.6" r="1.8" fill="#C15065"></circle><circle cx="369" cy="367.4" r="1.8" fill="#C15065"></circle><circle cx="385.6" cy="329.4" r="1.8" fill="#C15065"></circle><circle cx="402.2" cy="209.5" r="1.8" fill="#C15065"></circle><circle cx="418.8" cy="228.6" r="1.8" fill="#C15065"></circle><circle cx="435.4" cy="209.5" r="1.8" fill="#C15065"></circle><circle cx="452" cy="201.9" r="1.8" fill="#C15065"></circle><circle cx="468.6" cy="190.5" r="1.8" fill="#C15065"></circle><circle cx="485.2" cy="228.6" r="1.8" fill="#C15065"></circle><circle cx="501.8" cy="190.5" r="1.8" fill="#C15065"></circle><circle cx="518.4" cy="177.2" r="1.8" fill="#C15065"></circle><circle cx="535" cy="177.2" r="1.8" fill="#C15065"></circle><circle cx="551.6" cy="169.6" r="1.8" fill="#C15065"></circle><circle cx="568.2" cy="133.4" r="1.8" fill="#C15065"></circle><circle cx="584.8" cy="125.8" r="1.8" fill="#C15065"></circle><circle cx="601.4" cy="120.1" r="1.8" fill="#C15065"></circle><circle cx="618" cy="118.2" r="1.8" fill="#C15065"></circle><circle cx="634.6" cy="106.8" r="1.8" fill="#C15065"></circle><circle cx="651.2" cy="146.8" r="1.8" fill="#C15065"></circle><circle cx="667.8" cy="144.8" r="1.8" fill="#C15065"></circle><circle cx="684.4" cy="114.4" r="1.8" fill="#C15065"></circle><circle cx="701" cy="133.4" r="1.8" fill="#C15065"></circle><circle cx="717.6" cy="114.4" r="1.8" fill="#C15065"></circle></g></g></g></g></g></g><g id="footer" class="SourcesFooter" style="fill:#5b5b5b"><g id="sources" class="markdown-text-wrap"><text x="16.0" y="544.5" style="font-size:13.5px;line-height:1.2"><tspan x="16" y="544.5"><tspan style="font-weight:700">Data source:</tspan> USGS - Mineral Commodity Summaries (2024); USGS - Historical Statistics for Mineral and Material Commodities (2023)</tspan></text></g><g id="note" class="markdown-text-wrap"><text x="16.0" y="562.7" style="font-size:13.5px;line-height:1.2"><tspan x="16" y="562.7"><tspan style="font-weight:700">Note:</tspan> Values are reported in tonnes of metal content.</tspan></text></g><text id="origin-url" font-size="13.50" x="16.0" y="580.9"><tspan x="16" y="580.8950000000001"><a target="_blank" style="fill: #5b5b5b;" href="https://creativecommons.org/licenses/by/4.0/">CC BY</a></tspan></text></g><line id="separator-line" x1="16" y1="600" x2="834" y2="600" stroke="#e7e7e7"></line><g id="details" transform="translate(15, 616)"><g class="markdown-text-wrap"><text x="0.0" y="12.0" style="font-size:12.375px;fill:#5b5b5b;line-height:1.2"><tspan x="0" y="12.0"><tspan style="font-weight:700">1.</tspan> <tspan style="font-weight:700">Bismuth</tspan>: Bismuth is a metal that is often paired with other metals to form alloys. It’s found in electronic components such as semiconductors, and</tspan><tspan x="0" y="26.9">used in fuses and sprinkler systems. Bismuth compounds are also used in cosmetics and pharmaceuticals.</tspan></text></g><g class="markdown-text-wrap"><text x="0.0" y="49.7" style="font-size:12.375px;fill:#5b5b5b;line-height:1.2"><tspan x="0" y="49.7"><tspan style="font-weight:700">2.</tspan> <tspan style="font-weight:700">Refined production</tspan>: Refined production is the process of taking raw materials, such as metals extracted from ores, and purifying them to achieve</tspan><tspan x="0" y="64.6">a higher quality or more usable form. After metals are initially extracted from ore through processes like smelting, they often contain impurities or are</tspan><tspan x="0" y="79.4">not in the ideal form for manufacturing. Refining involves further processing these metals to remove impurities and adjust their composition to meet</tspan><tspan x="0" y="94.3">specific standards. Refined production is essential for transforming raw materials into high-quality metals that are crucial for industries and</tspan><tspan x="0" y="109.1">consumers, from manufacturing electronics to constructing buildings.</tspan></text></g></g></svg>