<svg xmlns="http://www.w3.org/2000/svg" version="1.1" style="font-family:Lato, &#x27;Helvetica Neue&#x27;, Helvetica, Arial, &#x27;Liberation Sans&#x27;, sans-serif;font-size:18px;background-color:white;text-rendering:geometricPrecision;-webkit-font-smoothing:antialiased" width="850" height="706.25" viewBox="0 0 850 706.25"><defs><style>@import url(https://ourworldindata.org/fonts.css)</style></defs><defs><pattern id="noDataPattern" patternUnits="userSpaceOnUse" width="4" height="4" patternTransform="rotate(-45 2 2)"><path d="M -1,2 l 6,0" stroke="#ccc" stroke-width="0.7"></path></pattern></defs><rect class="background-fill" fill="white" width="850" height="706.25"></rect><g id="header" class="HeaderView"><g id="logo" transform="translate(769, 16) scale(1)"><svg className="owidLogo" xmlns="http://www.w3.org/2000/svg" width="65" height="36" viewBox="0 0 65 36"  fill="none"><path fill="#002147" d="M0 0h64.8v36H0z"/><path fill="#CE261E" d="M0 33.3h64.8V36H0z"/><path fill="#fff" d="M13.796 10.575c0 .636-.106 1.226-.318 1.77a4.193 4.193 0 0 1-.894 1.404 4.084 4.084 0 0 1-1.386.93c-.54.22-1.138.33-1.794.33-.656 0-1.256-.11-1.8-.33a4.149 4.149 0 0 1-1.392-.93 4.193 4.193 0 0 1-.894-1.404A4.833 4.833 0 0 1 5 10.575c0-.636.106-1.224.318-1.764a4.18 4.18 0 0 1 .894-1.41 4.076 4.076 0 0 1 1.392-.924 4.684 4.684 0 0 1 1.8-.336c.656 0 1.254.112 1.794.336.54.224 1.002.534 1.386.93.384.392.682.86.894 1.404.212.54.318 1.128.318 1.764Zm-1.656 0c0-.476-.064-.902-.192-1.278a2.671 2.671 0 0 0-.54-.966 2.332 2.332 0 0 0-.864-.606 2.94 2.94 0 0 0-1.14-.21c-.424 0-.806.07-1.146.21-.34.14-.63.342-.87.606a2.742 2.742 0 0 0-.546.966 3.955 3.955 0 0 0-.192 1.278c0 .476.064.904.192 1.284.128.376.31.696.546.96.24.26.53.46.87.6.34.14.722.21 1.146.21.424 0 .804-.07 1.14-.21.34-.14.628-.34.864-.6.236-.264.416-.584.54-.96a4.01 4.01 0 0 0 .192-1.284ZM16.104 8.757v3.912c0 .376.086.668.258.876.176.204.438.306.786.306.256 0 .496-.056.72-.168a2.58 2.58 0 0 0 .636-.474V8.757h1.482v6.156h-.906c-.192 0-.318-.09-.378-.27l-.102-.492a4.65 4.65 0 0 1-.396.354 2.577 2.577 0 0 1-.438.27 2.35 2.35 0 0 1-.498.168 2.345 2.345 0 0 1-.57.066c-.336 0-.634-.056-.894-.168a1.821 1.821 0 0 1-.648-.486 2.157 2.157 0 0 1-.402-.738 3.233 3.233 0 0 1-.132-.948V8.757h1.482ZM21.328 14.913V8.757h.87c.152 0 .258.028.318.084.06.056.1.152.12.288l.09.744c.22-.38.478-.68.774-.9.296-.22.628-.33.996-.33.304 0 .556.07.756.21l-.192 1.11c-.012.072-.038.124-.078.156a.278.278 0 0 1-.162.042 1.01 1.01 0 0 1-.246-.042 1.646 1.646 0 0 0-.414-.042c-.308 0-.572.086-.792.258-.22.168-.406.416-.558.744v3.834h-1.482ZM27.347 6.237h1.356a.57.57 0 0 1 .348.102c.096.064.16.152.192.264l1.476 5.19c.036.128.068.268.096.42.032.148.062.306.09.474a5.968 5.968 0 0 1 .228-.894l1.704-5.19a.575.575 0 0 1 .186-.252.543.543 0 0 1 .348-.114h.474a.57.57 0 0 1 .348.102.497.497 0 0 1 .192.264l1.692 5.19c.088.256.164.54.228.852.028-.156.056-.306.084-.45.032-.144.064-.278.096-.402l1.476-5.19c.028-.1.09-.186.186-.258a.563.563 0 0 1 .348-.108h1.266l-2.694 8.676h-1.458l-1.896-5.928-.078-.246a9.504 9.504 0 0 1-.072-.282c-.024.1-.05.194-.078.282-.024.088-.048.17-.072.246l-1.914 5.928H30.04l-2.694-8.676ZM42.771 8.661c.46 0 .876.074 1.248.222.376.148.696.358.96.63s.468.604.612.996c.144.392.216.83.216 1.314 0 .488-.072.928-.216 1.32a2.85 2.85 0 0 1-.612 1.002 2.653 2.653 0 0 1-.96.636 3.35 3.35 0 0 1-1.248.222c-.46 0-.878-.074-1.254-.222a2.712 2.712 0 0 1-.966-.636 2.922 2.922 0 0 1-.618-1.002 3.807 3.807 0 0 1-.216-1.32c0-.484.072-.922.216-1.314.148-.392.354-.724.618-.996.268-.272.59-.482.966-.63a3.397 3.397 0 0 1 1.254-.222Zm0 5.202c.512 0 .89-.172 1.134-.516.248-.344.372-.848.372-1.512s-.124-1.17-.372-1.518c-.244-.348-.622-.522-1.134-.522-.52 0-.904.176-1.152.528-.248.348-.372.852-.372 1.512s.124 1.164.372 1.512c.248.344.632.516 1.152.516ZM46.723 14.913V8.757h.87c.152 0 .258.028.318.084.06.056.1.152.12.288l.09.744c.22-.38.478-.68.774-.9.296-.22.628-.33.996-.33.304 0 .556.07.756.21l-.192 1.11c-.012.072-.038.124-.078.156a.278.278 0 0 1-.162.042 1.01 1.01 0 0 1-.246-.042 1.646 1.646 0 0 0-.414-.042c-.308 0-.572.086-.792.258-.22.168-.406.416-.558.744v3.834h-1.482ZM52.96 5.997v8.916h-1.482V5.997h1.482ZM58.732 14.913c-.192 0-.318-.09-.378-.27l-.12-.594a3.68 3.68 0 0 1-.402.39c-.14.116-.292.216-.456.3-.16.084-.334.148-.522.192a2.372 2.372 0 0 1-.6.072c-.336 0-.644-.07-.924-.21a2.098 2.098 0 0 1-.726-.606 3.033 3.033 0 0 1-.468-.99 5.072 5.072 0 0 1-.162-1.344c0-.456.062-.88.186-1.272s.302-.732.534-1.02c.232-.288.51-.512.834-.672a2.384 2.384 0 0 1 1.092-.246 2.103 2.103 0 0 1 1.536.606V5.997h1.482v8.916h-.906Zm-1.974-1.086c.308 0 .57-.064.786-.192.216-.128.42-.31.612-.546v-2.76a1.452 1.452 0 0 0-.552-.432 1.597 1.597 0 0 0-.636-.126c-.224 0-.428.042-.612.126a1.21 1.21 0 0 0-.462.384c-.124.168-.22.384-.288.648-.068.26-.102.568-.102.924 0 .36.028.666.084.918.06.248.144.452.252.612.108.156.24.27.396.342.156.068.33.102.522.102ZM16.331 20.757v6.156H14.85v-6.156h1.481Zm.223-1.794a.844.844 0 0 1-.078.36.963.963 0 0 1-.21.294.995.995 0 0 1-.3.204.963.963 0 0 1-.372.072.948.948 0 0 1-.367-.072 1.018 1.018 0 0 1-.498-.498.963.963 0 0 1 0-.732.995.995 0 0 1 .205-.3.929.929 0 0 1 .293-.198.899.899 0 0 1 .738 0 .912.912 0 0 1 .3.198.943.943 0 0 1 .288.672ZM17.771 26.913v-6.156h.906c.192 0 .318.09.378.27l.102.486a2.934 2.934 0 0 1 .828-.618c.156-.076.322-.134.498-.174.176-.04.368-.06.576-.06.336 0 .634.058.894.174.26.112.476.272.648.48.176.204.308.45.396.738.092.284.138.598.138.942v3.918h-1.482v-3.918c0-.376-.088-.666-.264-.87-.172-.208-.432-.312-.78-.312-.256 0-.496.058-.72.174a2.58 2.58 0 0 0-.636.474v4.452h-1.482ZM34.22 22.575c0 .636-.106 1.22-.318 1.752-.212.532-.51.99-.894 1.374a4 4 0 0 1-1.386.894 4.87 4.87 0 0 1-1.794.318h-3.312v-8.676h3.312a4.79 4.79 0 0 1 1.794.324 4 4 0 0 1 1.386.894c.384.38.682.836.894 1.368.212.532.318 1.116.318 1.752Zm-1.65 0c0-.476-.064-.902-.192-1.278a2.68 2.68 0 0 0-.546-.96 2.332 2.332 0 0 0-.864-.606 2.94 2.94 0 0 0-1.14-.21h-1.686v6.108h1.686c.424 0 .804-.07 1.14-.21.34-.14.628-.34.864-.6a2.75 2.75 0 0 0 .546-.96 4.01 4.01 0 0 0 .192-1.284ZM39.98 26.913h-.665c-.14 0-.25-.02-.33-.06-.08-.044-.14-.13-.18-.258l-.132-.438c-.156.14-.31.264-.462.372a2.804 2.804 0 0 1-.462.264c-.16.072-.33.126-.51.162-.18.036-.38.054-.6.054-.26 0-.5-.034-.72-.102a1.618 1.618 0 0 1-.57-.318 1.448 1.448 0 0 1-.366-.522 1.852 1.852 0 0 1-.132-.726c0-.232.06-.46.18-.684.124-.228.328-.432.612-.612.284-.184.662-.336 1.134-.456.472-.12 1.058-.188 1.758-.204v-.36c0-.412-.088-.716-.264-.912-.172-.2-.424-.3-.756-.3a1.837 1.837 0 0 0-1.02.276c-.116.068-.224.13-.324.186a.664.664 0 0 1-.33.084.429.429 0 0 1-.258-.078.614.614 0 0 1-.174-.192l-.27-.474c.708-.648 1.562-.972 2.562-.972.36 0 .68.06.96.18.284.116.524.28.72.492.196.208.344.458.444.75.104.292.156.612.156.96v3.888Zm-2.88-.924c.153 0 .293-.014.42-.042.129-.028.249-.07.36-.126.117-.056.227-.124.33-.204.109-.084.217-.182.325-.294v-1.038c-.432.02-.794.058-1.086.114-.288.052-.52.12-.696.204a.923.923 0 0 0-.378.294.664.664 0 0 0-.108.366c0 .26.076.446.228.558.156.112.358.168.606.168ZM43.22 27.01c-.532 0-.942-.15-1.23-.45-.288-.305-.432-.723-.432-1.255v-3.438h-.624a.31.31 0 0 1-.21-.078c-.056-.052-.084-.13-.084-.234v-.588l.99-.162.312-1.68a.302.302 0 0 1 .108-.186.365.365 0 0 1 .222-.066h.768v1.938h1.62v1.056h-1.62v3.336c0 .192.048.342.144.45a.488.488 0 0 0 .384.162c.092 0 .168-.01.228-.03.064-.024.118-.048.162-.072.048-.024.09-.046.126-.066a.194.194 0 0 1 .108-.036.16.16 0 0 1 .108.036c.028.02.058.052.09.096l.444.72c-.216.18-.464.316-.744.408a2.77 2.77 0 0 1-.87.138ZM50.423 26.913h-.666c-.14 0-.25-.02-.33-.06-.08-.044-.14-.13-.18-.258l-.132-.438c-.156.14-.31.264-.462.372a2.804 2.804 0 0 1-.462.264c-.16.072-.33.126-.51.162-.18.036-.38.054-.6.054-.26 0-.5-.034-.72-.102a1.618 1.618 0 0 1-.57-.318 1.448 1.448 0 0 1-.366-.522 1.852 1.852 0 0 1-.132-.726c0-.232.06-.46.18-.684.124-.228.328-.432.612-.612.284-.184.662-.336 1.134-.456.472-.12 1.058-.188 1.758-.204v-.36c0-.412-.088-.716-.264-.912-.172-.2-.424-.3-.756-.3a1.837 1.837 0 0 0-1.02.276c-.116.068-.224.13-.324.186a.664.664 0 0 1-.33.084.429.429 0 0 1-.258-.078.614.614 0 0 1-.174-.192l-.27-.474c.708-.648 1.562-.972 2.562-.972.36 0 .68.06.96.18.284.116.524.28.72.492.196.208.344.458.444.75.104.292.156.612.156.96v3.888Zm-2.88-.924c.152 0 .292-.014.42-.042.128-.028.248-.07.36-.126.116-.056.226-.124.33-.204.108-.084.216-.182.324-.294v-1.038c-.432.02-.794.058-1.086.114-.288.052-.52.12-.696.204a.923.923 0 0 0-.378.294.664.664 0 0 0-.108.366c0 .26.076.446.228.558.156.112.358.168.606.168Z"/></svg></g><a id="title" href="https://ourworldindata.org/explorers/minerals?Mineral=Platinum+group+metals&amp;Metric=Production&amp;Type=Mine%2C+palladium&amp;Share+of+global=false&amp;country=AUS~CHL~CHN~USA~CAN~ALB~DZA~ARG~ARM~AUT~AZE~BOL~OWID_WRL~BWA~BRA~BGR~COL~COG~CUB~CYP~OWID_CZS~COD~DOM~OWID_GDR~ZWE~ZMB~OWID_YGS~OWID_GFR~VNM~UZB~GBR~UGA~OWID_USS~TUR~TZA~TJK~TWN~SWE~ESP~KOR~ZAF~SVK~OWID_SRM~SRB~SAU~RUS~ROU~PRT~POL~PHL~PER~PNG~PAN~PAK~OMN~NOR~MKD~PRK~NIC~NZL~NAM~MMR~MOZ~MAR~MNG~MEX~MRT~MYS~LAO~KGZ~KEN~KAZ~JPN~ITA~ISR~IRL~IRN~IDN~IND~HUN~HND~HTI~GTM~GRC~DEU~GEO~FRA~FIN~ERI~ECU~VEN~ARE~UKR~CHE~SUR~LKA~SVN~QAT~NGA~NLD~MNE~ISL~GHA~EGY~HRV~CMR~BIH~BHR~AFG~OWID_KOS~MDG~NCL~SDN~Other~CZE~THA~TUN~CIV~GAB~RWA~NER" style="font-family:&#x27;Playfair Display&#x27;, Georgia, &#x27;Times New Roman&#x27;, &#x27;Liberation Serif&#x27;, serif" target="_blank" rel="noopener"><text font-size="24.75" font-weight="600" x="16.0" y="40.0" fill="#5b5b5b"><tspan x="16" y="40.0075">Platinum group metals (palladium) production, 1970 to 2023</tspan></text></a><g id="subtitle" class="markdown-text-wrap"><text x="16.0" y="63.9" style="font-size:14.625px;line-height:1.2" fill="#5b5b5b"><tspan x="16" y="63.9">Based on mined, rather than <tspan class="dod-span" data-id="refined-production">refined<tspan style="font-feature-settings:&quot;sups&quot;">ยน</tspan></tspan>, production. Measured in tonnes.</tspan></text></g></g><g id="chart-area" style="pointer-events:none"><g id="line-chart" class="LineChart"><defs><clipPath id="boundsClip-85"><rect x="41.24" y="73.25" width="838" height="454.15"></rect></clipPath></defs><rect x="16" y="83.25" width="818" height="434.15" fill="none"></rect><g id="dual-axis" class="DualAxisView"><g id="horizontal-axis" class="HorizontalAxis"><g id="tick__1970"><line x1="51.2" y1="496.4" x2="51.2" y2="501.9" stroke="#999" stroke-width="1"></line><text x="51.24" y="515.4" fill="#5b5b5b" text-anchor="start" font-size="13.5">1970</text></g><g id="tick__2023"><line x1="712.5" y1="496.4" x2="712.5" y2="501.9" stroke="#999" stroke-width="1"></line><text x="712.465" y="515.4" fill="#5b5b5b" text-anchor="end" font-size="13.5">2023</text></g><g id="tick__1980"><line x1="176" y1="496.4" x2="176" y2="501.9" stroke="#999" stroke-width="1"></line><text x="176" y="515.4" fill="#5b5b5b" text-anchor="middle" font-size="13.5">1980</text></g><g id="tick__1990"><line x1="300.8" y1="496.4" x2="300.8" y2="501.9" stroke="#999" stroke-width="1"></line><text x="300.8" y="515.4" fill="#5b5b5b" text-anchor="middle" font-size="13.5">1990</text></g><g id="tick__2000"><line x1="425.5" y1="496.4" x2="425.5" y2="501.9" stroke="#999" stroke-width="1"></line><text x="425.5" y="515.4" fill="#5b5b5b" text-anchor="middle" font-size="13.5">2000</text></g><g id="tick__2010"><line x1="550.3" y1="496.4" x2="550.3" y2="501.9" stroke="#999" stroke-width="1"></line><text x="550.3" y="515.4" fill="#5b5b5b" text-anchor="middle" font-size="13.5">2010</text></g></g><g id="vertical-axis" class="VerticalAxis"><g id="tick-labels"><text id="tick-label__0-t" x="46.24" y="496.9" dy=".32em" text-anchor="end" fill="#5b5b5b" font-size="13.5">0 t</text><text id="tick-label__50-t" x="46.24" y="403" dy=".32em" text-anchor="end" fill="#5b5b5b" font-size="13.5">50 t</text><text id="tick-label__100-t" x="46.24" y="309" dy=".32em" text-anchor="end" fill="#5b5b5b" font-size="13.5">100 t</text><text id="tick-label__150-t" x="46.24" y="215.1" dy=".32em" text-anchor="end" fill="#5b5b5b" font-size="13.5">150 t</text><text id="tick-label__200-t" x="46.24" y="121.2" dy=".32em" text-anchor="end" fill="#5b5b5b" font-size="13.5">200 t</text></g></g><g id="horizontal-grid-lines" class="AxisGridLines horizontalLines"><line id="grid-line__0" x1="51.24" y1="496.9" x2="712.47" y2="496.9" stroke="#999" stroke-width="1"></line><line id="grid-line__50" x1="51.24" y1="403" x2="712.47" y2="403" stroke="#ddd" stroke-width="1" stroke-dasharray="3,2"></line><line id="grid-line__100" x1="51.24" y1="309" x2="712.47" y2="309" stroke="#ddd" stroke-width="1" stroke-dasharray="3,2"></line><line id="grid-line__150" x1="51.24" y1="215.1" x2="712.47" y2="215.1" stroke="#ddd" stroke-width="1" stroke-dasharray="3,2"></line><line id="grid-line__200" x1="51.24" y1="121.2" x2="712.47" y2="121.2" stroke="#ddd" stroke-width="1" stroke-dasharray="3,2"></line></g></g><g clip-path="url(#boundsClip-85)"><g id="line-labels" class="LineLabels"><g id="mark__World" class="legendMark" style="cursor:default"><g id="connector" class="indicator"><path d="M716.465,102.4 H729.965 V102.4 H743.465" stroke="#999" stroke-width="0.5" fill="none"></path></g><rect id="background" x="712.465" y="95.65" width="70.235" height="13.5" fill="#fff" opacity="0"></rect><text id="label" font-size="13.50" font-weight="400" x="747.5" y="107.4" fill="#c15065"><tspan x="747.465" y="107.39500000000001">World</tspan></text></g><g id="mark__Russia" class="legendMark" style="cursor:default"><g id="connector" class="indicator"><path d="M716.465,324.1 H718.0532352941177 V262.6499999999999 H743.465" stroke="#999" stroke-width="0.5" fill="none"></path></g><rect id="background" x="712.465" y="255.89999999999992" width="76.31" height="13.5" fill="#fff" opacity="0"></rect><text id="label" font-size="13.50" font-weight="400" x="747.5" y="267.6" fill="#8c4569"><tspan x="747.465" y="267.6449999999999">Russia</tspan></text></g><g id="mark__USSR" class="legendMark" style="cursor:default"><g id="connector" class="indicator"><path d="M716.465,325 H719.6414705882354 V278.1499999999999 H743.465" stroke="#999" stroke-width="0.5" fill="none"></path></g><rect id="background" x="712.465" y="271.3999999999999" width="72.53" height="13.5" fill="#fff" opacity="0"></rect><text id="label" font-size="13.50" font-weight="400" x="747.5" y="283.1" fill="#996d39"><tspan x="747.465" y="283.1449999999999">USSR</tspan></text></g><g id="mark__South-Africa" class="legendMark" style="cursor:default"><g id="connector" class="indicator"><path d="M716.465,363.5 H721.229705882353 V293.6499999999999 H743.465" stroke="#999" stroke-width="0.5" fill="none"></path></g><rect id="background" x="712.465" y="286.8999999999999" width="108.845" height="13.5" fill="#fff" opacity="0"></rect><text id="label" font-size="13.50" font-weight="400" x="747.5" y="298.6" fill="#00847e"><tspan x="747.465" y="298.6449999999999">South Africa</tspan></text></g><g id="mark__Canada" class="legendMark" style="cursor:default"><g id="connector" class="indicator"><path d="M716.465,466.8 H722.8179411764706 V309.1499999999999 H743.465" stroke="#999" stroke-width="0.5" fill="none"></path></g><rect id="background" x="712.465" y="302.3999999999999" width="82.52000000000001" height="13.5" fill="#fff" opacity="0"></rect><text id="label" font-size="13.50" font-weight="400" x="747.5" y="314.1" fill="#18470f"><tspan x="747.465" y="314.1449999999999">Canada</tspan></text></g><g id="mark__Zimbabwe" class="legendMark" style="cursor:default"><g id="connector" class="indicator"><path d="M716.465,468.7 H724.4061764705883 V324.6499999999999 H743.465" stroke="#999" stroke-width="0.5" fill="none"></path></g><rect id="background" x="712.465" y="317.8999999999999" width="97.37" height="13.5" fill="#fff" opacity="0"></rect><text id="label" font-size="13.50" font-weight="400" x="747.5" y="329.6" fill="#c15065"><tspan x="747.465" y="329.6449999999999">Zimbabwe</tspan></text></g><g id="mark__United-States" class="legendMark" style="cursor:default"><g id="connector" class="indicator"><path d="M716.465,478.5 H725.994411764706 V340.1499999999999 H743.465" stroke="#999" stroke-width="0.5" fill="none"></path></g><rect id="background" x="712.465" y="333.3999999999999" width="116.405" height="13.5" fill="#fff" opacity="0"></rect><text id="label" font-size="13.50" font-weight="400" x="747.5" y="345.1" fill="#6d3e91"><tspan x="747.465" y="345.1449999999999">United States</tspan></text></g><g id="mark__China" class="legendMark" style="cursor:default"><g id="connector" class="indicator"><path d="M716.465,494.5 H727.5826470588236 V355.6499999999999 H743.465" stroke="#999" stroke-width="0.5" fill="none"></path></g><rect id="background" x="712.465" y="348.8999999999999" width="70.37" height="13.5" fill="#fff" opacity="0"></rect><text id="label" font-size="13.50" font-weight="400" x="747.5" y="360.6" fill="#cf0a66"><tspan x="747.465" y="360.6449999999999">China</tspan></text></g><g id="mark__Japan" class="legendMark" style="cursor:default"><g id="connector" class="indicator"><path d="M716.465,494.9 H729.1708823529412 V371.1499999999999 H743.465" stroke="#999" stroke-width="0.5" fill="none"></path></g><rect id="background" x="712.465" y="364.3999999999999" width="71.99000000000001" height="13.5" fill="#fff" opacity="0"></rect><text id="label" font-size="13.50" font-weight="400" x="747.5" y="376.1" fill="#c15065"><tspan x="747.465" y="376.1449999999999">Japan</tspan></text></g><g id="mark__Finland" class="legendMark" style="cursor:default"><g id="connector" class="indicator"><path d="M716.465,495.1 H730.7591176470589 V386.6499999999999 H743.465" stroke="#999" stroke-width="0.5" fill="none"></path></g><rect id="background" x="712.465" y="379.8999999999999" width="79.415" height="13.5" fill="#fff" opacity="0"></rect><text id="label" font-size="13.50" font-weight="400" x="747.5" y="391.6" fill="#970046"><tspan x="747.465" y="391.6449999999999">Finland</tspan></text></g><g id="mark__Australia" class="legendMark" style="cursor:default"><g id="connector" class="indicator"><path d="M716.465,496.2 H732.3473529411765 V402.1499999999999 H743.465" stroke="#999" stroke-width="0.5" fill="none"></path></g><rect id="background" x="712.465" y="395.3999999999999" width="87.65" height="13.5" fill="#fff" opacity="0"></rect><text id="label" font-size="13.50" font-weight="400" x="747.5" y="407.1" fill="#2c8465"><tspan x="747.465" y="407.1449999999999">Australia</tspan></text></g><g id="mark__East-Germany" class="legendMark" style="cursor:default"><g id="connector" class="indicator"><path d="M716.465,496.2 H733.9355882352942 V417.6499999999999 H743.465" stroke="#999" stroke-width="0.5" fill="none"></path></g><rect id="background" x="712.465" y="410.8999999999999" width="121.53500000000001" height="13.5" fill="#fff" opacity="0"></rect><text id="label" font-size="13.50" font-weight="400" x="747.5" y="422.6" fill="#d73c50"><tspan x="747.465" y="422.6449999999999">East Germany</tspan></text></g><g id="mark__Yugoslavia" class="legendMark" style="cursor:default"><g id="connector" class="indicator"><path d="M716.465,496.6 H735.5238235294119 V433.1499999999999 H743.465" stroke="#999" stroke-width="0.5" fill="none"></path></g><rect id="background" x="712.465" y="426.3999999999999" width="101.28500000000001" height="13.5" fill="#fff" opacity="0"></rect><text id="label" font-size="13.50" font-weight="400" x="747.5" y="438.1" fill="#be5915"><tspan x="747.465" y="438.1449999999999">Yugoslavia</tspan></text></g><g id="mark__Botswana" class="legendMark" style="cursor:default"><g id="connector" class="indicator"><path d="M716.465,496.6 H737.1120588235294 V448.6499999999999 H743.465" stroke="#999" stroke-width="0.5" fill="none"></path></g><rect id="background" x="712.465" y="441.8999999999999" width="94.535" height="13.5" fill="#fff" opacity="0"></rect><text id="label" font-size="13.50" font-weight="400" x="747.5" y="453.6" fill="#008291"><tspan x="747.465" y="453.6449999999999">Botswana</tspan></text></g><g id="mark__Serbia" class="legendMark" style="cursor:default"><g id="connector" class="indicator"><path d="M716.465,496.7 H738.7002941176471 V464.1499999999999 H743.465" stroke="#999" stroke-width="0.5" fill="none"></path></g><rect id="background" x="712.465" y="457.3999999999999" width="74.15" height="13.5" fill="#fff" opacity="0"></rect><text id="label" font-size="13.50" font-weight="400" x="747.5" y="469.1" fill="#00875e"><tspan x="747.465" y="469.1449999999999">Serbia</tspan></text></g><g id="mark__Uzbekistan" class="legendMark" style="cursor:default"><g id="connector" class="indicator"><path d="M716.465,496.7 H740.2885294117648 V479.6499999999999 H743.465" stroke="#999" stroke-width="0.5" fill="none"></path></g><rect id="background" x="712.465" y="472.8999999999999" width="101.96000000000001" height="13.5" fill="#fff" opacity="0"></rect><text id="label" font-size="13.50" font-weight="400" x="747.5" y="484.6" fill="#18470f"><tspan x="747.465" y="484.6449999999999">Uzbekistan</tspan></text></g><g id="mark__Philippines" class="legendMark" style="cursor:default"><g id="connector" class="indicator"><path d="M716.465,496.9 H741.8767647058825 V495.1499999999999 H743.465" stroke="#999" stroke-width="0.5" fill="none"></path></g><rect id="background" x="712.465" y="488.3999999999999" width="100.47500000000001" height="13.5" fill="#fff" opacity="0"></rect><text id="label" font-size="13.50" font-weight="400" x="747.5" y="500.1" fill="#2c8465"><tspan x="747.465" y="500.1449999999999">Philippines</tspan></text></g><g id="mark__Poland" class="legendMark" style="cursor:default"><g id="connector" class="indicator"><path d="M716.465,496.9 H741.8767647058825 V510.6499999999999 H743.465" stroke="#999" stroke-width="0.5" fill="none"></path></g><rect id="background" x="712.465" y="503.8999999999999" width="77.255" height="13.5" fill="#fff" opacity="0"></rect><text id="label" font-size="13.50" font-weight="400" x="747.5" y="515.6" fill="#c15065"><tspan x="747.465" y="515.6449999999999">Poland</tspan></text></g></g><g id="lines" class="Lines"><rect x="51" y="89" width="661" height="408" fill="rgba(255,255,255,0)" opacity="0"></rect><g id="line__World"><path stroke-linecap="round" stroke-linejoin="round" stroke="#ddd" d="M675 89.3L687.5 94.9L700 115.6L712.5 102.4" fill="none" stroke-width="1"></path></g><g id="line__Uzbekistan"><path stroke-linecap="round" stroke-linejoin="round" stroke="#ddd" d="M650.1 496.9L662.6 496.8L675 496.7L687.5 496.6L700 496.7" fill="none" stroke-width="1"></path></g><g id="line__Serbia"><path stroke-linecap="round" stroke-linejoin="round" stroke="#ddd" d="M500.4 496.9L512.8 496.9L525.3 496.8L537.8 496.8L550.3 496.9L562.8 496.9L575.2 496.9L587.7 496.9L600.2 496.9L612.7 496.9L625.1 496.8L637.6 496.8L650.1 496.8L662.6 496.7L675 496.7L687.5 496.7L700 496.7" fill="none" stroke-width="1"></path></g><g id="line__Poland"><path stroke-linecap="round" stroke-linejoin="round" stroke="#ddd" d="M487.9 496.9L500.4 496.9L512.8 496.9L525.3 496.9L537.8 496.9L550.3 496.9L562.8 496.9L575.2 496.9L587.7 496.8L600.2 496.9L612.7 496.9L625.1 496.8L637.6 496.9L650.1 496.9L662.6 496.9L675 496.9L687.5 496.9L700 496.9" fill="none" stroke-width="1"></path></g><g id="line__Botswana"><path stroke-linecap="round" stroke-linejoin="round" stroke="#ddd" d="M438 495.2L450.5 494.5L462.9 492.8L475.4 492.2L487.9 493.3L500.4 493.1L512.8 491.1L525.3 491.3L537.8 488L550.3 491.6L562.8 492.9L575.2 492L587.7 494.4L600.2 495.8L612.7 496.6" fill="none" stroke-width="1"></path></g><g id="line__China"><path stroke-linecap="round" stroke-linejoin="round" stroke="#ddd" d="M425.5 496.5L438 496.2L450.5 496.1L462.9 496.1L475.4 495.8L487.9 495.8L500.4 495.9L512.8 495.7L525.3 495.6L537.8 495.6L550.3 495.6L562.8 495.3L575.2 495.5L587.7 495.3L600.2 495L612.7 494.6L625.1 494.3L637.6 494.3L650.1 494.5L662.6 494.5L675 494.5L687.5 494.5L700 494.5" fill="none" stroke-width="1"></path></g><g id="line__South-Africa"><path stroke-linecap="round" stroke-linejoin="round" stroke="#ddd" d="M388.1 392.3L400.6 390.6L413 387.6L425.5 392L438 380.2L450.5 376.2L462.9 363.6L475.4 353.4L487.9 337.4L500.4 334.8L512.8 334.5L525.3 355L537.8 355.8L550.3 342.4L562.8 341.5L575.2 356.5L587.7 354.1L600.2 387.2L612.7 341.6L625.1 353.6L637.6 346.4L650.1 345.4L662.6 345.3L675 358.8L687.5 338.5L700 359.6L712.5 363.5" fill="none" stroke-width="1"></path></g><g id="line__Russia"><path stroke-linecap="round" stroke-linejoin="round" stroke="#ddd" d="M325.7 374.2L338.2 356.8L350.7 304.2L363.1 251.6L375.6 169.7L388.1 216.4L400.6 158L413 181.3L425.5 193.1L438 243.3L450.5 384.2L462.9 324.4L475.4 216.4L487.9 226.9L500.4 267.9L512.8 231.6L525.3 283.1L537.8 284.4L550.3 279.5L562.8 295L575.2 328L587.7 339.1L600.2 344.2L612.7 355.1L625.1 349.8L637.6 334.8L650.1 336.7L662.6 334.2L675 322.2L687.5 335.3L700 333.5L712.5 324.1" fill="none" stroke-width="1"></path></g><g id="line__Canada"><path stroke-linecap="round" stroke-linejoin="round" stroke="#ddd" d="M250.9 486.6L263.3 485.8L275.8 485.5L288.3 488.1L300.8 487L313.2 484.8L325.7 486L338.2 485.6L350.7 484.3L363.1 478.5L375.6 480.9L388.1 483.4L400.6 480.7L413 480.9L425.5 479.1L438 472.9L450.5 468.5L462.9 475.3L475.4 466.8L487.9 471L500.4 468.9L512.8 470.4L525.3 469.3L537.8 483.9L550.3 485.4L562.8 469.8L575.2 469.8L587.7 459.7L600.2 457.4L612.7 457.8L625.1 459.9L637.6 464.8L650.1 457.7L662.6 451.4L675 459.3L687.5 468.7L700 466.7L712.5 466.8" fill="none" stroke-width="1"></path></g><g id="line__East-Germany"><path stroke-linecap="round" stroke-linejoin="round" stroke="#ddd" d="M238.4 496.2L250.9 496.2L263.3 496.2" fill="none" stroke-width="1"></path></g><g id="line__USSR"><path stroke-linecap="round" stroke-linejoin="round" stroke="#ddd" d="M213.4 356L225.9 352.3L238.4 348.5L250.9 325.9L263.3 321.6L275.8 317.5L288.3 317.5L300.8 320.3L313.2 325" fill="none" stroke-width="1"></path></g><g id="line__Finland"><path stroke-linecap="round" stroke-linejoin="round" stroke="#ddd" d="M213.4 496.8L225.9 496.8L238.4 496.8L250.9 496.7L263.3 496.7L275.8 496.7L288.3 496.7L300.8 496.7L313.2 496.7L525.3 496.9L537.8 496.9L550.3 496.9L562.8 496.9L575.2 496.2L587.7 495.5L600.2 495.4L612.7 495.4L625.1 495.2L637.6 495L650.1 494.7L662.6 495.6L675 495.3L687.5 495L700 495.1" fill="none" stroke-width="1"></path></g><g id="line__Zimbabwe"><path stroke-linecap="round" stroke-linejoin="round" stroke="#ddd" d="M151 496.9L163.5 496.9L176 496.5L188.5 496.6L201 496.7L213.4 496.8L225.9 496.8L238.4 496.8L250.9 496.8L263.3 496.8L275.8 496.8L288.3 496.8L300.8 496.8L313.2 496.8L325.7 496.9L338.2 496.9L350.7 496.9L363.1 496.9L375.6 496.9L388.1 496.4L400.6 493.4L413 496.4L425.5 496.2L438 496.2L450.5 493.7L462.9 493.6L475.4 490.2L487.9 489.6L500.4 489.3L512.8 489.4L525.3 488.9L537.8 486.8L550.3 483.9L562.8 481.1L575.2 477.1L587.7 477.8L600.2 477.9L612.7 478L625.1 473.9L637.6 474.7L650.1 474.2L662.6 475L675 472.7L687.5 473.6L700 470L712.5 468.7" fill="none" stroke-width="1"></path></g><g id="line__Yugoslavia"><path stroke-linecap="round" stroke-linejoin="round" stroke="#ddd" d="M126.1 496.7L138.6 496.6L151 496.6L163.5 496.6L176 496.6L188.5 496.7L201 496.7L213.4 496.7L225.9 496.7L238.4 496.7L250.9 496.7L263.3 496.7L275.8 496.6L288.3 496.5L300.8 496.7L313.2 496.6" fill="none" stroke-width="1"></path></g><g id="line__United-States"><path stroke-linecap="round" stroke-linejoin="round" stroke="#ddd" d="M51.2 496.3L63.7 496.3L76.2 496.3L88.7 496.1L101.1 496.4L113.6 496.3L126.1 496.7L263.3 492.1L275.8 489.4L288.3 487.3L300.8 485.3L313.2 485.5L325.7 486.7L338.2 484.2L350.7 484.8L363.1 487L375.6 485.4L388.1 481.1L400.6 477L413 478.5L425.5 477.6L438 473.2L450.5 469.1L462.9 470.6L475.4 471.2L487.9 471.9L500.4 469.8L512.8 471.9L525.3 474.5L537.8 473.1L550.3 475.1L562.8 473.6L575.2 473.8L587.7 473.2L600.2 473.4L612.7 473.4L625.1 472.3L637.6 471.4L650.1 470L662.6 470L675 469.5L687.5 471.2L700 477.9L712.5 478.5" fill="none" stroke-width="1"></path></g><g id="line__Philippines"><path stroke-linecap="round" stroke-linejoin="round" stroke="#ddd" d="M51.2 496.8L63.7 496.8L76.2 496.6L88.7 496.7L101.1 496.8L113.6 496.9" fill="none" stroke-width="1"></path></g><g id="line__Japan"><path stroke-linecap="round" stroke-linejoin="round" stroke="#ddd" d="M51.2 496.6L63.7 496.6L76.2 496.6L88.7 496.3L101.1 496.1L113.6 496L126.1 495.8L138.6 495.6L151 495.5L163.5 495.6L176 495.2L188.5 495.4L201 495.3L213.4 494.7L225.9 494.9L238.4 494.3L250.9 494.2L263.3 494.2L275.8 494.7L288.3 495.4L300.8 494.9L313.2 494.9" fill="none" stroke-width="1"></path></g><g id="line__Australia"><path stroke-linecap="round" stroke-linejoin="round" stroke="#ddd" d="M51.2 496.9L63.7 496.9L76.2 496.9L101.1 496.6L113.6 496.3L126.1 496.4L138.6 496.3L151 496.5L163.5 496.5L176 496.3L188.5 496.1L201 496.1L213.4 496.1L225.9 495.9L238.4 496L250.9 496.1L263.3 496.1L275.8 496.2L288.3 496.1L300.8 496.1L313.2 496.1L325.7 495.9L338.2 496.1L350.7 496.1L363.1 495.9L375.6 495.8L388.1 496.1L400.6 495.3L413 495.4L425.5 495.4L438 495.3L450.5 495.4L462.9 496L475.4 495.3L487.9 495.8L500.4 495.1L512.8 495.5L525.3 495.6L537.8 495L550.3 495.4L562.8 496.1L575.2 495.6L587.7 495.4L600.2 495.5L612.7 495.9L625.1 495.5L637.6 495.5L650.1 496.1L662.6 496.2L675 496.1L687.5 496.2L700 496.2" fill="none" stroke-width="1"></path></g><g id="line__World"><path id="outline" fill="none" stroke-linecap="butt" stroke-linejoin="round" stroke="#fff" stroke-width="2.5" d="M675 89.3L687.5 94.9L700 115.6L712.5 102.4"></path><g id="polyline"><polyline id="polyline" points="675.00,89.30 687.50,94.90 700.00,115.60 712.50,102.40" stroke-linejoin="round" stroke-width="1.5" stroke="#C15065" fill="none" stroke-linecap="butt"></polyline></g><g id="markers"><circle cx="675" cy="89.3" r="1.8" fill="#C15065"></circle><circle cx="687.5" cy="94.9" r="1.8" fill="#C15065"></circle><circle cx="700" cy="115.6" r="1.8" fill="#C15065"></circle><circle cx="712.5" cy="102.4" r="1.8" fill="#C15065"></circle></g></g><g id="line__Uzbekistan"><path id="outline" fill="none" stroke-linecap="butt" stroke-linejoin="round" stroke="#fff" stroke-width="2.5" d="M650.1 496.9L662.6 496.8L675 496.7L687.5 496.6L700 496.7"></path><g id="polyline"><polyline id="polyline" points="650.10,496.90 662.60,496.80 675.00,496.70 687.50,496.60 700.00,496.70" stroke-linejoin="round" stroke-width="1.5" stroke="#18470F" fill="none" stroke-linecap="butt"></polyline></g><g id="markers"><circle cx="650.1" cy="496.9" r="1.8" fill="#18470F"></circle><circle cx="662.6" cy="496.8" r="1.8" fill="#18470F"></circle><circle cx="675" cy="496.7" r="1.8" fill="#18470F"></circle><circle cx="687.5" cy="496.6" r="1.8" fill="#18470F"></circle><circle cx="700" cy="496.7" r="1.8" fill="#18470F"></circle></g></g><g id="line__Serbia"><path id="outline" fill="none" stroke-linecap="butt" stroke-linejoin="round" stroke="#fff" stroke-width="2.5" d="M500.4 496.9L512.8 496.9L525.3 496.8L537.8 496.8L550.3 496.9L562.8 496.9L575.2 496.9L587.7 496.9L600.2 496.9L612.7 496.9L625.1 496.8L637.6 496.8L650.1 496.8L662.6 496.7L675 496.7L687.5 496.7L700 496.7"></path><g id="polyline"><polyline id="polyline" points="500.40,496.90 512.80,496.90 525.30,496.80 537.80,496.80 550.30,496.90 562.80,496.90 575.20,496.90 587.70,496.90 600.20,496.90 612.70,496.90 625.10,496.80 637.60,496.80 650.10,496.80 662.60,496.70 675.00,496.70 687.50,496.70 700.00,496.70" stroke-linejoin="round" stroke-width="1.5" stroke="#00875E" fill="none" stroke-linecap="butt"></polyline></g><g id="markers"><circle cx="500.4" cy="496.9" r="1.8" fill="#00875E"></circle><circle cx="512.8" cy="496.9" r="1.8" fill="#00875E"></circle><circle cx="525.3" cy="496.8" r="1.8" fill="#00875E"></circle><circle cx="537.8" cy="496.8" r="1.8" fill="#00875E"></circle><circle cx="550.3" cy="496.9" r="1.8" fill="#00875E"></circle><circle cx="562.8" cy="496.9" r="1.8" fill="#00875E"></circle><circle cx="575.2" cy="496.9" r="1.8" fill="#00875E"></circle><circle cx="587.7" cy="496.9" r="1.8" fill="#00875E"></circle><circle cx="600.2" cy="496.9" r="1.8" fill="#00875E"></circle><circle cx="612.7" cy="496.9" r="1.8" fill="#00875E"></circle><circle cx="625.1" cy="496.8" r="1.8" fill="#00875E"></circle><circle cx="637.6" cy="496.8" r="1.8" fill="#00875E"></circle><circle cx="650.1" cy="496.8" r="1.8" fill="#00875E"></circle><circle cx="662.6" cy="496.7" r="1.8" fill="#00875E"></circle><circle cx="675" cy="496.7" r="1.8" fill="#00875E"></circle><circle cx="687.5" cy="496.7" r="1.8" fill="#00875E"></circle><circle cx="700" cy="496.7" r="1.8" fill="#00875E"></circle></g></g><g id="line__Poland"><path id="outline" fill="none" stroke-linecap="butt" stroke-linejoin="round" stroke="#fff" stroke-width="2.5" d="M487.9 496.9L500.4 496.9L512.8 496.9L525.3 496.9L537.8 496.9L550.3 496.9L562.8 496.9L575.2 496.9L587.7 496.8L600.2 496.9L612.7 496.9L625.1 496.8L637.6 496.9L650.1 496.9L662.6 496.9L675 496.9L687.5 496.9L700 496.9"></path><g id="polyline"><polyline id="polyline" points="487.90,496.90 500.40,496.90 512.80,496.90 525.30,496.90 537.80,496.90 550.30,496.90 562.80,496.90 575.20,496.90 587.70,496.80 600.20,496.90 612.70,496.90 625.10,496.80 637.60,496.90 650.10,496.90 662.60,496.90 675.00,496.90 687.50,496.90 700.00,496.90" stroke-linejoin="round" stroke-width="1.5" stroke="#C15065" fill="none" stroke-linecap="butt"></polyline></g><g id="markers"><circle cx="487.9" cy="496.9" r="1.8" fill="#C15065"></circle><circle cx="500.4" cy="496.9" r="1.8" fill="#C15065"></circle><circle cx="512.8" cy="496.9" r="1.8" fill="#C15065"></circle><circle cx="525.3" cy="496.9" r="1.8" fill="#C15065"></circle><circle cx="537.8" cy="496.9" r="1.8" fill="#C15065"></circle><circle cx="550.3" cy="496.9" r="1.8" fill="#C15065"></circle><circle cx="562.8" cy="496.9" r="1.8" fill="#C15065"></circle><circle cx="575.2" cy="496.9" r="1.8" fill="#C15065"></circle><circle cx="587.7" cy="496.8" r="1.8" fill="#C15065"></circle><circle cx="600.2" cy="496.9" r="1.8" fill="#C15065"></circle><circle cx="612.7" cy="496.9" r="1.8" fill="#C15065"></circle><circle cx="625.1" cy="496.8" r="1.8" fill="#C15065"></circle><circle cx="637.6" cy="496.9" r="1.8" fill="#C15065"></circle><circle cx="650.1" cy="496.9" r="1.8" fill="#C15065"></circle><circle cx="662.6" cy="496.9" r="1.8" fill="#C15065"></circle><circle cx="675" cy="496.9" r="1.8" fill="#C15065"></circle><circle cx="687.5" cy="496.9" r="1.8" fill="#C15065"></circle><circle cx="700" cy="496.9" r="1.8" fill="#C15065"></circle></g></g><g id="line__Botswana"><path id="outline" fill="none" stroke-linecap="butt" stroke-linejoin="round" stroke="#fff" stroke-width="2.5" d="M438 495.2L450.5 494.5L462.9 492.8L475.4 492.2L487.9 493.3L500.4 493.1L512.8 491.1L525.3 491.3L537.8 488L550.3 491.6L562.8 492.9L575.2 492L587.7 494.4L600.2 495.8L612.7 496.6"></path><g id="polyline"><polyline id="polyline" points="438.00,495.20 450.50,494.50 462.90,492.80 475.40,492.20 487.90,493.30 500.40,493.10 512.80,491.10 525.30,491.30 537.80,488.00 550.30,491.60 562.80,492.90 575.20,492.00 587.70,494.40 600.20,495.80 612.70,496.60" stroke-linejoin="round" stroke-width="1.5" stroke="#008291" fill="none" stroke-linecap="butt"></polyline></g><g id="markers"><circle cx="438" cy="495.2" r="1.8" fill="#008291"></circle><circle cx="450.5" cy="494.5" r="1.8" fill="#008291"></circle><circle cx="462.9" cy="492.8" r="1.8" fill="#008291"></circle><circle cx="475.4" cy="492.2" r="1.8" fill="#008291"></circle><circle cx="487.9" cy="493.3" r="1.8" fill="#008291"></circle><circle cx="500.4" cy="493.1" r="1.8" fill="#008291"></circle><circle cx="512.8" cy="491.1" r="1.8" fill="#008291"></circle><circle cx="525.3" cy="491.3" r="1.8" fill="#008291"></circle><circle cx="537.8" cy="488" r="1.8" fill="#008291"></circle><circle cx="550.3" cy="491.6" r="1.8" fill="#008291"></circle><circle cx="562.8" cy="492.9" r="1.8" fill="#008291"></circle><circle cx="575.2" cy="492" r="1.8" fill="#008291"></circle><circle cx="587.7" cy="494.4" r="1.8" fill="#008291"></circle><circle cx="600.2" cy="495.8" r="1.8" fill="#008291"></circle><circle cx="612.7" cy="496.6" r="1.8" fill="#008291"></circle></g></g><g id="line__China"><path id="outline" fill="none" stroke-linecap="butt" stroke-linejoin="round" stroke="#fff" stroke-width="2.5" d="M425.5 496.5L438 496.2L450.5 496.1L462.9 496.1L475.4 495.8L487.9 495.8L500.4 495.9L512.8 495.7L525.3 495.6L537.8 495.6L550.3 495.6L562.8 495.3L575.2 495.5L587.7 495.3L600.2 495L612.7 494.6L625.1 494.3L637.6 494.3L650.1 494.5L662.6 494.5L675 494.5L687.5 494.5L700 494.5"></path><g id="polyline"><polyline id="polyline" points="425.50,496.50 438.00,496.20 450.50,496.10 462.90,496.10 475.40,495.80 487.90,495.80 500.40,495.90 512.80,495.70 525.30,495.60 537.80,495.60 550.30,495.60 562.80,495.30 575.20,495.50 587.70,495.30 600.20,495.00 612.70,494.60 625.10,494.30 637.60,494.30 650.10,494.50 662.60,494.50 675.00,494.50 687.50,494.50 700.00,494.50" stroke-linejoin="round" stroke-width="1.5" stroke="#CF0A66" fill="none" stroke-linecap="butt"></polyline></g><g id="markers"><circle cx="425.5" cy="496.5" r="1.8" fill="#CF0A66"></circle><circle cx="438" cy="496.2" r="1.8" fill="#CF0A66"></circle><circle cx="450.5" cy="496.1" r="1.8" fill="#CF0A66"></circle><circle cx="462.9" cy="496.1" r="1.8" fill="#CF0A66"></circle><circle cx="475.4" cy="495.8" r="1.8" fill="#CF0A66"></circle><circle cx="487.9" cy="495.8" r="1.8" fill="#CF0A66"></circle><circle cx="500.4" cy="495.9" r="1.8" fill="#CF0A66"></circle><circle cx="512.8" cy="495.7" r="1.8" fill="#CF0A66"></circle><circle cx="525.3" cy="495.6" r="1.8" fill="#CF0A66"></circle><circle cx="537.8" cy="495.6" r="1.8" fill="#CF0A66"></circle><circle cx="550.3" cy="495.6" r="1.8" fill="#CF0A66"></circle><circle cx="562.8" cy="495.3" r="1.8" fill="#CF0A66"></circle><circle cx="575.2" cy="495.5" r="1.8" fill="#CF0A66"></circle><circle cx="587.7" cy="495.3" r="1.8" fill="#CF0A66"></circle><circle cx="600.2" cy="495" r="1.8" fill="#CF0A66"></circle><circle cx="612.7" cy="494.6" r="1.8" fill="#CF0A66"></circle><circle cx="625.1" cy="494.3" r="1.8" fill="#CF0A66"></circle><circle cx="637.6" cy="494.3" r="1.8" fill="#CF0A66"></circle><circle cx="650.1" cy="494.5" r="1.8" fill="#CF0A66"></circle><circle cx="662.6" cy="494.5" r="1.8" fill="#CF0A66"></circle><circle cx="675" cy="494.5" r="1.8" fill="#CF0A66"></circle><circle cx="687.5" cy="494.5" r="1.8" fill="#CF0A66"></circle><circle cx="700" cy="494.5" r="1.8" fill="#CF0A66"></circle></g></g><g id="line__South-Africa"><path id="outline" fill="none" stroke-linecap="butt" stroke-linejoin="round" stroke="#fff" stroke-width="2.5" d="M388.1 392.3L400.6 390.6L413 387.6L425.5 392L438 380.2L450.5 376.2L462.9 363.6L475.4 353.4L487.9 337.4L500.4 334.8L512.8 334.5L525.3 355L537.8 355.8L550.3 342.4L562.8 341.5L575.2 356.5L587.7 354.1L600.2 387.2L612.7 341.6L625.1 353.6L637.6 346.4L650.1 345.4L662.6 345.3L675 358.8L687.5 338.5L700 359.6L712.5 363.5"></path><g id="polyline"><polyline id="polyline" points="388.10,392.30 400.60,390.60 413.00,387.60 425.50,392.00 438.00,380.20 450.50,376.20 462.90,363.60 475.40,353.40 487.90,337.40 500.40,334.80 512.80,334.50 525.30,355.00 537.80,355.80 550.30,342.40 562.80,341.50 575.20,356.50 587.70,354.10 600.20,387.20 612.70,341.60 625.10,353.60 637.60,346.40 650.10,345.40 662.60,345.30 675.00,358.80 687.50,338.50 700.00,359.60 712.50,363.50" stroke-linejoin="round" stroke-width="1.5" stroke="#00847E" fill="none" stroke-linecap="butt"></polyline></g><g id="markers"><circle cx="388.1" cy="392.3" r="1.8" fill="#00847E"></circle><circle cx="400.6" cy="390.6" r="1.8" fill="#00847E"></circle><circle cx="413" cy="387.6" r="1.8" fill="#00847E"></circle><circle cx="425.5" cy="392" r="1.8" fill="#00847E"></circle><circle cx="438" cy="380.2" r="1.8" fill="#00847E"></circle><circle cx="450.5" cy="376.2" r="1.8" fill="#00847E"></circle><circle cx="462.9" cy="363.6" r="1.8" fill="#00847E"></circle><circle cx="475.4" cy="353.4" r="1.8" fill="#00847E"></circle><circle cx="487.9" cy="337.4" r="1.8" fill="#00847E"></circle><circle cx="500.4" cy="334.8" r="1.8" fill="#00847E"></circle><circle cx="512.8" cy="334.5" r="1.8" fill="#00847E"></circle><circle cx="525.3" cy="355" r="1.8" fill="#00847E"></circle><circle cx="537.8" cy="355.8" r="1.8" fill="#00847E"></circle><circle cx="550.3" cy="342.4" r="1.8" fill="#00847E"></circle><circle cx="562.8" cy="341.5" r="1.8" fill="#00847E"></circle><circle cx="575.2" cy="356.5" r="1.8" fill="#00847E"></circle><circle cx="587.7" cy="354.1" r="1.8" fill="#00847E"></circle><circle cx="600.2" cy="387.2" r="1.8" fill="#00847E"></circle><circle cx="612.7" cy="341.6" r="1.8" fill="#00847E"></circle><circle cx="625.1" cy="353.6" r="1.8" fill="#00847E"></circle><circle cx="637.6" cy="346.4" r="1.8" fill="#00847E"></circle><circle cx="650.1" cy="345.4" r="1.8" fill="#00847E"></circle><circle cx="662.6" cy="345.3" r="1.8" fill="#00847E"></circle><circle cx="675" cy="358.8" r="1.8" fill="#00847E"></circle><circle cx="687.5" cy="338.5" r="1.8" fill="#00847E"></circle><circle cx="700" cy="359.6" r="1.8" fill="#00847E"></circle><circle cx="712.5" cy="363.5" r="1.8" fill="#00847E"></circle></g></g><g id="line__Russia"><path id="outline" fill="none" stroke-linecap="butt" stroke-linejoin="round" stroke="#fff" stroke-width="2.5" d="M325.7 374.2L338.2 356.8L350.7 304.2L363.1 251.6L375.6 169.7L388.1 216.4L400.6 158L413 181.3L425.5 193.1L438 243.3L450.5 384.2L462.9 324.4L475.4 216.4L487.9 226.9L500.4 267.9L512.8 231.6L525.3 283.1L537.8 284.4L550.3 279.5L562.8 295L575.2 328L587.7 339.1L600.2 344.2L612.7 355.1L625.1 349.8L637.6 334.8L650.1 336.7L662.6 334.2L675 322.2L687.5 335.3L700 333.5L712.5 324.1"></path><g id="polyline"><polyline id="polyline" points="325.70,374.20 338.20,356.80 350.70,304.20 363.10,251.60 375.60,169.70 388.10,216.40 400.60,158.00 413.00,181.30 425.50,193.10 438.00,243.30 450.50,384.20 462.90,324.40 475.40,216.40 487.90,226.90 500.40,267.90 512.80,231.60 525.30,283.10 537.80,284.40 550.30,279.50 562.80,295.00 575.20,328.00 587.70,339.10 600.20,344.20 612.70,355.10 625.10,349.80 637.60,334.80 650.10,336.70 662.60,334.20 675.00,322.20 687.50,335.30 700.00,333.50 712.50,324.10" stroke-linejoin="round" stroke-width="1.5" stroke="#8C4569" fill="none" stroke-linecap="butt"></polyline></g><g id="markers"><circle cx="325.7" cy="374.2" r="1.8" fill="#8C4569"></circle><circle cx="338.2" cy="356.8" r="1.8" fill="#8C4569"></circle><circle cx="350.7" cy="304.2" r="1.8" fill="#8C4569"></circle><circle cx="363.1" cy="251.6" r="1.8" fill="#8C4569"></circle><circle cx="375.6" cy="169.7" r="1.8" fill="#8C4569"></circle><circle cx="388.1" cy="216.4" r="1.8" fill="#8C4569"></circle><circle cx="400.6" cy="158" r="1.8" fill="#8C4569"></circle><circle cx="413" cy="181.3" r="1.8" fill="#8C4569"></circle><circle cx="425.5" cy="193.1" r="1.8" fill="#8C4569"></circle><circle cx="438" cy="243.3" r="1.8" fill="#8C4569"></circle><circle cx="450.5" cy="384.2" r="1.8" fill="#8C4569"></circle><circle cx="462.9" cy="324.4" r="1.8" fill="#8C4569"></circle><circle cx="475.4" cy="216.4" r="1.8" fill="#8C4569"></circle><circle cx="487.9" cy="226.9" r="1.8" fill="#8C4569"></circle><circle cx="500.4" cy="267.9" r="1.8" fill="#8C4569"></circle><circle cx="512.8" cy="231.6" r="1.8" fill="#8C4569"></circle><circle cx="525.3" cy="283.1" r="1.8" fill="#8C4569"></circle><circle cx="537.8" cy="284.4" r="1.8" fill="#8C4569"></circle><circle cx="550.3" cy="279.5" r="1.8" fill="#8C4569"></circle><circle cx="562.8" cy="295" r="1.8" fill="#8C4569"></circle><circle cx="575.2" cy="328" r="1.8" fill="#8C4569"></circle><circle cx="587.7" cy="339.1" r="1.8" fill="#8C4569"></circle><circle cx="600.2" cy="344.2" r="1.8" fill="#8C4569"></circle><circle cx="612.7" cy="355.1" r="1.8" fill="#8C4569"></circle><circle cx="625.1" cy="349.8" r="1.8" fill="#8C4569"></circle><circle cx="637.6" cy="334.8" r="1.8" fill="#8C4569"></circle><circle cx="650.1" cy="336.7" r="1.8" fill="#8C4569"></circle><circle cx="662.6" cy="334.2" r="1.8" fill="#8C4569"></circle><circle cx="675" cy="322.2" r="1.8" fill="#8C4569"></circle><circle cx="687.5" cy="335.3" r="1.8" fill="#8C4569"></circle><circle cx="700" cy="333.5" r="1.8" fill="#8C4569"></circle><circle cx="712.5" cy="324.1" r="1.8" fill="#8C4569"></circle></g></g><g id="line__Canada"><path id="outline" fill="none" stroke-linecap="butt" stroke-linejoin="round" stroke="#fff" stroke-width="2.5" d="M250.9 486.6L263.3 485.8L275.8 485.5L288.3 488.1L300.8 487L313.2 484.8L325.7 486L338.2 485.6L350.7 484.3L363.1 478.5L375.6 480.9L388.1 483.4L400.6 480.7L413 480.9L425.5 479.1L438 472.9L450.5 468.5L462.9 475.3L475.4 466.8L487.9 471L500.4 468.9L512.8 470.4L525.3 469.3L537.8 483.9L550.3 485.4L562.8 469.8L575.2 469.8L587.7 459.7L600.2 457.4L612.7 457.8L625.1 459.9L637.6 464.8L650.1 457.7L662.6 451.4L675 459.3L687.5 468.7L700 466.7L712.5 466.8"></path><g id="polyline"><polyline id="polyline" points="250.90,486.60 263.30,485.80 275.80,485.50 288.30,488.10 300.80,487.00 313.20,484.80 325.70,486.00 338.20,485.60 350.70,484.30 363.10,478.50 375.60,480.90 388.10,483.40 400.60,480.70 413.00,480.90 425.50,479.10 438.00,472.90 450.50,468.50 462.90,475.30 475.40,466.80 487.90,471.00 500.40,468.90 512.80,470.40 525.30,469.30 537.80,483.90 550.30,485.40 562.80,469.80 575.20,469.80 587.70,459.70 600.20,457.40 612.70,457.80 625.10,459.90 637.60,464.80 650.10,457.70 662.60,451.40 675.00,459.30 687.50,468.70 700.00,466.70 712.50,466.80" stroke-linejoin="round" stroke-width="1.5" stroke="#18470F" fill="none" stroke-linecap="butt"></polyline></g><g id="markers"><circle cx="250.9" cy="486.6" r="1.8" fill="#18470F"></circle><circle cx="263.3" cy="485.8" r="1.8" fill="#18470F"></circle><circle cx="275.8" cy="485.5" r="1.8" fill="#18470F"></circle><circle cx="288.3" cy="488.1" r="1.8" fill="#18470F"></circle><circle cx="300.8" cy="487" r="1.8" fill="#18470F"></circle><circle cx="313.2" cy="484.8" r="1.8" fill="#18470F"></circle><circle cx="325.7" cy="486" r="1.8" fill="#18470F"></circle><circle cx="338.2" cy="485.6" r="1.8" fill="#18470F"></circle><circle cx="350.7" cy="484.3" r="1.8" fill="#18470F"></circle><circle cx="363.1" cy="478.5" r="1.8" fill="#18470F"></circle><circle cx="375.6" cy="480.9" r="1.8" fill="#18470F"></circle><circle cx="388.1" cy="483.4" r="1.8" fill="#18470F"></circle><circle cx="400.6" cy="480.7" r="1.8" fill="#18470F"></circle><circle cx="413" cy="480.9" r="1.8" fill="#18470F"></circle><circle cx="425.5" cy="479.1" r="1.8" fill="#18470F"></circle><circle cx="438" cy="472.9" r="1.8" fill="#18470F"></circle><circle cx="450.5" cy="468.5" r="1.8" fill="#18470F"></circle><circle cx="462.9" cy="475.3" r="1.8" fill="#18470F"></circle><circle cx="475.4" cy="466.8" r="1.8" fill="#18470F"></circle><circle cx="487.9" cy="471" r="1.8" fill="#18470F"></circle><circle cx="500.4" cy="468.9" r="1.8" fill="#18470F"></circle><circle cx="512.8" cy="470.4" r="1.8" fill="#18470F"></circle><circle cx="525.3" cy="469.3" r="1.8" fill="#18470F"></circle><circle cx="537.8" cy="483.9" r="1.8" fill="#18470F"></circle><circle cx="550.3" cy="485.4" r="1.8" fill="#18470F"></circle><circle cx="562.8" cy="469.8" r="1.8" fill="#18470F"></circle><circle cx="575.2" cy="469.8" r="1.8" fill="#18470F"></circle><circle cx="587.7" cy="459.7" r="1.8" fill="#18470F"></circle><circle cx="600.2" cy="457.4" r="1.8" fill="#18470F"></circle><circle cx="612.7" cy="457.8" r="1.8" fill="#18470F"></circle><circle cx="625.1" cy="459.9" r="1.8" fill="#18470F"></circle><circle cx="637.6" cy="464.8" r="1.8" fill="#18470F"></circle><circle cx="650.1" cy="457.7" r="1.8" fill="#18470F"></circle><circle cx="662.6" cy="451.4" r="1.8" fill="#18470F"></circle><circle cx="675" cy="459.3" r="1.8" fill="#18470F"></circle><circle cx="687.5" cy="468.7" r="1.8" fill="#18470F"></circle><circle cx="700" cy="466.7" r="1.8" fill="#18470F"></circle><circle cx="712.5" cy="466.8" r="1.8" fill="#18470F"></circle></g></g><g id="line__East-Germany"><path id="outline" fill="none" stroke-linecap="butt" stroke-linejoin="round" stroke="#fff" stroke-width="2.5" d="M238.4 496.2L250.9 496.2L263.3 496.2"></path><g id="polyline"><polyline id="polyline" points="238.40,496.20 250.90,496.20 263.30,496.20" stroke-linejoin="round" stroke-width="1.5" stroke="#D73C50" fill="none" stroke-linecap="butt"></polyline></g><g id="markers"><circle cx="238.4" cy="496.2" r="1.8" fill="#D73C50"></circle><circle cx="250.9" cy="496.2" r="1.8" fill="#D73C50"></circle><circle cx="263.3" cy="496.2" r="1.8" fill="#D73C50"></circle></g></g><g id="line__USSR"><path id="outline" fill="none" stroke-linecap="butt" stroke-linejoin="round" stroke="#fff" stroke-width="2.5" d="M213.4 356L225.9 352.3L238.4 348.5L250.9 325.9L263.3 321.6L275.8 317.5L288.3 317.5L300.8 320.3L313.2 325"></path><g id="polyline"><polyline id="polyline" points="213.40,356.00 225.90,352.30 238.40,348.50 250.90,325.90 263.30,321.60 275.80,317.50 288.30,317.50 300.80,320.30 313.20,325.00" stroke-linejoin="round" stroke-width="1.5" stroke="#996D39" fill="none" stroke-linecap="butt"></polyline></g><g id="markers"><circle cx="213.4" cy="356" r="1.8" fill="#996D39"></circle><circle cx="225.9" cy="352.3" r="1.8" fill="#996D39"></circle><circle cx="238.4" cy="348.5" r="1.8" fill="#996D39"></circle><circle cx="250.9" cy="325.9" r="1.8" fill="#996D39"></circle><circle cx="263.3" cy="321.6" r="1.8" fill="#996D39"></circle><circle cx="275.8" cy="317.5" r="1.8" fill="#996D39"></circle><circle cx="288.3" cy="317.5" r="1.8" fill="#996D39"></circle><circle cx="300.8" cy="320.3" r="1.8" fill="#996D39"></circle><circle cx="313.2" cy="325" r="1.8" fill="#996D39"></circle></g></g><g id="line__Finland"><path id="outline" fill="none" stroke-linecap="butt" stroke-linejoin="round" stroke="#fff" stroke-width="2.5" d="M213.4 496.8L225.9 496.8L238.4 496.8L250.9 496.7L263.3 496.7L275.8 496.7L288.3 496.7L300.8 496.7L313.2 496.7L525.3 496.9L537.8 496.9L550.3 496.9L562.8 496.9L575.2 496.2L587.7 495.5L600.2 495.4L612.7 495.4L625.1 495.2L637.6 495L650.1 494.7L662.6 495.6L675 495.3L687.5 495L700 495.1"></path><g id="polyline"><polyline id="polyline" points="213.40,496.80 225.90,496.80 238.40,496.80 250.90,496.70 263.30,496.70 275.80,496.70 288.30,496.70 300.80,496.70 313.20,496.70 525.30,496.90 537.80,496.90 550.30,496.90 562.80,496.90 575.20,496.20 587.70,495.50 600.20,495.40 612.70,495.40 625.10,495.20 637.60,495.00 650.10,494.70 662.60,495.60 675.00,495.30 687.50,495.00 700.00,495.10" stroke-linejoin="round" stroke-width="1.5" stroke="#970046" fill="none" stroke-linecap="butt"></polyline></g><g id="markers"><circle cx="213.4" cy="496.8" r="1.8" fill="#970046"></circle><circle cx="225.9" cy="496.8" r="1.8" fill="#970046"></circle><circle cx="238.4" cy="496.8" r="1.8" fill="#970046"></circle><circle cx="250.9" cy="496.7" r="1.8" fill="#970046"></circle><circle cx="263.3" cy="496.7" r="1.8" fill="#970046"></circle><circle cx="275.8" cy="496.7" r="1.8" fill="#970046"></circle><circle cx="288.3" cy="496.7" r="1.8" fill="#970046"></circle><circle cx="300.8" cy="496.7" r="1.8" fill="#970046"></circle><circle cx="313.2" cy="496.7" r="1.8" fill="#970046"></circle><circle cx="525.3" cy="496.9" r="1.8" fill="#970046"></circle><circle cx="537.8" cy="496.9" r="1.8" fill="#970046"></circle><circle cx="550.3" cy="496.9" r="1.8" fill="#970046"></circle><circle cx="562.8" cy="496.9" r="1.8" fill="#970046"></circle><circle cx="575.2" cy="496.2" r="1.8" fill="#970046"></circle><circle cx="587.7" cy="495.5" r="1.8" fill="#970046"></circle><circle cx="600.2" cy="495.4" r="1.8" fill="#970046"></circle><circle cx="612.7" cy="495.4" r="1.8" fill="#970046"></circle><circle cx="625.1" cy="495.2" r="1.8" fill="#970046"></circle><circle cx="637.6" cy="495" r="1.8" fill="#970046"></circle><circle cx="650.1" cy="494.7" r="1.8" fill="#970046"></circle><circle cx="662.6" cy="495.6" r="1.8" fill="#970046"></circle><circle cx="675" cy="495.3" r="1.8" fill="#970046"></circle><circle cx="687.5" cy="495" r="1.8" fill="#970046"></circle><circle cx="700" cy="495.1" r="1.8" fill="#970046"></circle></g></g><g id="line__Zimbabwe"><path id="outline" fill="none" stroke-linecap="butt" stroke-linejoin="round" stroke="#fff" stroke-width="2.5" d="M151 496.9L163.5 496.9L176 496.5L188.5 496.6L201 496.7L213.4 496.8L225.9 496.8L238.4 496.8L250.9 496.8L263.3 496.8L275.8 496.8L288.3 496.8L300.8 496.8L313.2 496.8L325.7 496.9L338.2 496.9L350.7 496.9L363.1 496.9L375.6 496.9L388.1 496.4L400.6 493.4L413 496.4L425.5 496.2L438 496.2L450.5 493.7L462.9 493.6L475.4 490.2L487.9 489.6L500.4 489.3L512.8 489.4L525.3 488.9L537.8 486.8L550.3 483.9L562.8 481.1L575.2 477.1L587.7 477.8L600.2 477.9L612.7 478L625.1 473.9L637.6 474.7L650.1 474.2L662.6 475L675 472.7L687.5 473.6L700 470L712.5 468.7"></path><g id="polyline"><polyline id="polyline" points="151.00,496.90 163.50,496.90 176.00,496.50 188.50,496.60 201.00,496.70 213.40,496.80 225.90,496.80 238.40,496.80 250.90,496.80 263.30,496.80 275.80,496.80 288.30,496.80 300.80,496.80 313.20,496.80 325.70,496.90 338.20,496.90 350.70,496.90 363.10,496.90 375.60,496.90 388.10,496.40 400.60,493.40 413.00,496.40 425.50,496.20 438.00,496.20 450.50,493.70 462.90,493.60 475.40,490.20 487.90,489.60 500.40,489.30 512.80,489.40 525.30,488.90 537.80,486.80 550.30,483.90 562.80,481.10 575.20,477.10 587.70,477.80 600.20,477.90 612.70,478.00 625.10,473.90 637.60,474.70 650.10,474.20 662.60,475.00 675.00,472.70 687.50,473.60 700.00,470.00 712.50,468.70" stroke-linejoin="round" stroke-width="1.5" stroke="#C15065" fill="none" stroke-linecap="butt"></polyline></g><g id="markers"><circle cx="151" cy="496.9" r="1.8" fill="#C15065"></circle><circle cx="163.5" cy="496.9" r="1.8" fill="#C15065"></circle><circle cx="176" cy="496.5" r="1.8" fill="#C15065"></circle><circle cx="188.5" cy="496.6" r="1.8" fill="#C15065"></circle><circle cx="201" cy="496.7" r="1.8" fill="#C15065"></circle><circle cx="213.4" cy="496.8" r="1.8" fill="#C15065"></circle><circle cx="225.9" cy="496.8" r="1.8" fill="#C15065"></circle><circle cx="238.4" cy="496.8" r="1.8" fill="#C15065"></circle><circle cx="250.9" cy="496.8" r="1.8" fill="#C15065"></circle><circle cx="263.3" cy="496.8" r="1.8" fill="#C15065"></circle><circle cx="275.8" cy="496.8" r="1.8" fill="#C15065"></circle><circle cx="288.3" cy="496.8" r="1.8" fill="#C15065"></circle><circle cx="300.8" cy="496.8" r="1.8" fill="#C15065"></circle><circle cx="313.2" cy="496.8" r="1.8" fill="#C15065"></circle><circle cx="325.7" cy="496.9" r="1.8" fill="#C15065"></circle><circle cx="338.2" cy="496.9" r="1.8" fill="#C15065"></circle><circle cx="350.7" cy="496.9" r="1.8" fill="#C15065"></circle><circle cx="363.1" cy="496.9" r="1.8" fill="#C15065"></circle><circle cx="375.6" cy="496.9" r="1.8" fill="#C15065"></circle><circle cx="388.1" cy="496.4" r="1.8" fill="#C15065"></circle><circle cx="400.6" cy="493.4" r="1.8" fill="#C15065"></circle><circle cx="413" cy="496.4" r="1.8" fill="#C15065"></circle><circle cx="425.5" cy="496.2" r="1.8" fill="#C15065"></circle><circle cx="438" cy="496.2" r="1.8" fill="#C15065"></circle><circle cx="450.5" cy="493.7" r="1.8" fill="#C15065"></circle><circle cx="462.9" cy="493.6" r="1.8" fill="#C15065"></circle><circle cx="475.4" cy="490.2" r="1.8" fill="#C15065"></circle><circle cx="487.9" cy="489.6" r="1.8" fill="#C15065"></circle><circle cx="500.4" cy="489.3" r="1.8" fill="#C15065"></circle><circle cx="512.8" cy="489.4" r="1.8" fill="#C15065"></circle><circle cx="525.3" cy="488.9" r="1.8" fill="#C15065"></circle><circle cx="537.8" cy="486.8" r="1.8" fill="#C15065"></circle><circle cx="550.3" cy="483.9" r="1.8" fill="#C15065"></circle><circle cx="562.8" cy="481.1" r="1.8" fill="#C15065"></circle><circle cx="575.2" cy="477.1" r="1.8" fill="#C15065"></circle><circle cx="587.7" cy="477.8" r="1.8" fill="#C15065"></circle><circle cx="600.2" cy="477.9" r="1.8" fill="#C15065"></circle><circle cx="612.7" cy="478" r="1.8" fill="#C15065"></circle><circle cx="625.1" cy="473.9" r="1.8" fill="#C15065"></circle><circle cx="637.6" cy="474.7" r="1.8" fill="#C15065"></circle><circle cx="650.1" cy="474.2" r="1.8" fill="#C15065"></circle><circle cx="662.6" cy="475" r="1.8" fill="#C15065"></circle><circle cx="675" cy="472.7" r="1.8" fill="#C15065"></circle><circle cx="687.5" cy="473.6" r="1.8" fill="#C15065"></circle><circle cx="700" cy="470" r="1.8" fill="#C15065"></circle><circle cx="712.5" cy="468.7" r="1.8" fill="#C15065"></circle></g></g><g id="line__Yugoslavia"><path id="outline" fill="none" stroke-linecap="butt" stroke-linejoin="round" stroke="#fff" stroke-width="2.5" d="M126.1 496.7L138.6 496.6L151 496.6L163.5 496.6L176 496.6L188.5 496.7L201 496.7L213.4 496.7L225.9 496.7L238.4 496.7L250.9 496.7L263.3 496.7L275.8 496.6L288.3 496.5L300.8 496.7L313.2 496.6"></path><g id="polyline"><polyline id="polyline" points="126.10,496.70 138.60,496.60 151.00,496.60 163.50,496.60 176.00,496.60 188.50,496.70 201.00,496.70 213.40,496.70 225.90,496.70 238.40,496.70 250.90,496.70 263.30,496.70 275.80,496.60 288.30,496.50 300.80,496.70 313.20,496.60" stroke-linejoin="round" stroke-width="1.5" stroke="#BE5915" fill="none" stroke-linecap="butt"></polyline></g><g id="markers"><circle cx="126.1" cy="496.7" r="1.8" fill="#BE5915"></circle><circle cx="138.6" cy="496.6" r="1.8" fill="#BE5915"></circle><circle cx="151" cy="496.6" r="1.8" fill="#BE5915"></circle><circle cx="163.5" cy="496.6" r="1.8" fill="#BE5915"></circle><circle cx="176" cy="496.6" r="1.8" fill="#BE5915"></circle><circle cx="188.5" cy="496.7" r="1.8" fill="#BE5915"></circle><circle cx="201" cy="496.7" r="1.8" fill="#BE5915"></circle><circle cx="213.4" cy="496.7" r="1.8" fill="#BE5915"></circle><circle cx="225.9" cy="496.7" r="1.8" fill="#BE5915"></circle><circle cx="238.4" cy="496.7" r="1.8" fill="#BE5915"></circle><circle cx="250.9" cy="496.7" r="1.8" fill="#BE5915"></circle><circle cx="263.3" cy="496.7" r="1.8" fill="#BE5915"></circle><circle cx="275.8" cy="496.6" r="1.8" fill="#BE5915"></circle><circle cx="288.3" cy="496.5" r="1.8" fill="#BE5915"></circle><circle cx="300.8" cy="496.7" r="1.8" fill="#BE5915"></circle><circle cx="313.2" cy="496.6" r="1.8" fill="#BE5915"></circle></g></g><g id="line__United-States"><path id="outline" fill="none" stroke-linecap="butt" stroke-linejoin="round" stroke="#fff" stroke-width="2.5" d="M51.2 496.3L63.7 496.3L76.2 496.3L88.7 496.1L101.1 496.4L113.6 496.3L126.1 496.7L263.3 492.1L275.8 489.4L288.3 487.3L300.8 485.3L313.2 485.5L325.7 486.7L338.2 484.2L350.7 484.8L363.1 487L375.6 485.4L388.1 481.1L400.6 477L413 478.5L425.5 477.6L438 473.2L450.5 469.1L462.9 470.6L475.4 471.2L487.9 471.9L500.4 469.8L512.8 471.9L525.3 474.5L537.8 473.1L550.3 475.1L562.8 473.6L575.2 473.8L587.7 473.2L600.2 473.4L612.7 473.4L625.1 472.3L637.6 471.4L650.1 470L662.6 470L675 469.5L687.5 471.2L700 477.9L712.5 478.5"></path><g id="polyline"><polyline id="polyline" points="51.20,496.30 63.70,496.30 76.20,496.30 88.70,496.10 101.10,496.40 113.60,496.30 126.10,496.70 263.30,492.10 275.80,489.40 288.30,487.30 300.80,485.30 313.20,485.50 325.70,486.70 338.20,484.20 350.70,484.80 363.10,487.00 375.60,485.40 388.10,481.10 400.60,477.00 413.00,478.50 425.50,477.60 438.00,473.20 450.50,469.10 462.90,470.60 475.40,471.20 487.90,471.90 500.40,469.80 512.80,471.90 525.30,474.50 537.80,473.10 550.30,475.10 562.80,473.60 575.20,473.80 587.70,473.20 600.20,473.40 612.70,473.40 625.10,472.30 637.60,471.40 650.10,470.00 662.60,470.00 675.00,469.50 687.50,471.20 700.00,477.90 712.50,478.50" stroke-linejoin="round" stroke-width="1.5" stroke="#6D3E91" fill="none" stroke-linecap="butt"></polyline></g><g id="markers"><circle cx="51.2" cy="496.3" r="1.8" fill="#6D3E91"></circle><circle cx="63.7" cy="496.3" r="1.8" fill="#6D3E91"></circle><circle cx="76.2" cy="496.3" r="1.8" fill="#6D3E91"></circle><circle cx="88.7" cy="496.1" r="1.8" fill="#6D3E91"></circle><circle cx="101.1" cy="496.4" r="1.8" fill="#6D3E91"></circle><circle cx="113.6" cy="496.3" r="1.8" fill="#6D3E91"></circle><circle cx="126.1" cy="496.7" r="1.8" fill="#6D3E91"></circle><circle cx="263.3" cy="492.1" r="1.8" fill="#6D3E91"></circle><circle cx="275.8" cy="489.4" r="1.8" fill="#6D3E91"></circle><circle cx="288.3" cy="487.3" r="1.8" fill="#6D3E91"></circle><circle cx="300.8" cy="485.3" r="1.8" fill="#6D3E91"></circle><circle cx="313.2" cy="485.5" r="1.8" fill="#6D3E91"></circle><circle cx="325.7" cy="486.7" r="1.8" fill="#6D3E91"></circle><circle cx="338.2" cy="484.2" r="1.8" fill="#6D3E91"></circle><circle cx="350.7" cy="484.8" r="1.8" fill="#6D3E91"></circle><circle cx="363.1" cy="487" r="1.8" fill="#6D3E91"></circle><circle cx="375.6" cy="485.4" r="1.8" fill="#6D3E91"></circle><circle cx="388.1" cy="481.1" r="1.8" fill="#6D3E91"></circle><circle cx="400.6" cy="477" r="1.8" fill="#6D3E91"></circle><circle cx="413" cy="478.5" r="1.8" fill="#6D3E91"></circle><circle cx="425.5" cy="477.6" r="1.8" fill="#6D3E91"></circle><circle cx="438" cy="473.2" r="1.8" fill="#6D3E91"></circle><circle cx="450.5" cy="469.1" r="1.8" fill="#6D3E91"></circle><circle cx="462.9" cy="470.6" r="1.8" fill="#6D3E91"></circle><circle cx="475.4" cy="471.2" r="1.8" fill="#6D3E91"></circle><circle cx="487.9" cy="471.9" r="1.8" fill="#6D3E91"></circle><circle cx="500.4" cy="469.8" r="1.8" fill="#6D3E91"></circle><circle cx="512.8" cy="471.9" r="1.8" fill="#6D3E91"></circle><circle cx="525.3" cy="474.5" r="1.8" fill="#6D3E91"></circle><circle cx="537.8" cy="473.1" r="1.8" fill="#6D3E91"></circle><circle cx="550.3" cy="475.1" r="1.8" fill="#6D3E91"></circle><circle cx="562.8" cy="473.6" r="1.8" fill="#6D3E91"></circle><circle cx="575.2" cy="473.8" r="1.8" fill="#6D3E91"></circle><circle cx="587.7" cy="473.2" r="1.8" fill="#6D3E91"></circle><circle cx="600.2" cy="473.4" r="1.8" fill="#6D3E91"></circle><circle cx="612.7" cy="473.4" r="1.8" fill="#6D3E91"></circle><circle cx="625.1" cy="472.3" r="1.8" fill="#6D3E91"></circle><circle cx="637.6" cy="471.4" r="1.8" fill="#6D3E91"></circle><circle cx="650.1" cy="470" r="1.8" fill="#6D3E91"></circle><circle cx="662.6" cy="470" r="1.8" fill="#6D3E91"></circle><circle cx="675" cy="469.5" r="1.8" fill="#6D3E91"></circle><circle cx="687.5" cy="471.2" r="1.8" fill="#6D3E91"></circle><circle cx="700" cy="477.9" r="1.8" fill="#6D3E91"></circle><circle cx="712.5" cy="478.5" r="1.8" fill="#6D3E91"></circle></g></g><g id="line__Philippines"><path id="outline" fill="none" stroke-linecap="butt" stroke-linejoin="round" stroke="#fff" stroke-width="2.5" d="M51.2 496.8L63.7 496.8L76.2 496.6L88.7 496.7L101.1 496.8L113.6 496.9"></path><g id="polyline"><polyline id="polyline" points="51.20,496.80 63.70,496.80 76.20,496.60 88.70,496.70 101.10,496.80 113.60,496.90" stroke-linejoin="round" stroke-width="1.5" stroke="#2C8465" fill="none" stroke-linecap="butt"></polyline></g><g id="markers"><circle cx="51.2" cy="496.8" r="1.8" fill="#2C8465"></circle><circle cx="63.7" cy="496.8" r="1.8" fill="#2C8465"></circle><circle cx="76.2" cy="496.6" r="1.8" fill="#2C8465"></circle><circle cx="88.7" cy="496.7" r="1.8" fill="#2C8465"></circle><circle cx="101.1" cy="496.8" r="1.8" fill="#2C8465"></circle><circle cx="113.6" cy="496.9" r="1.8" fill="#2C8465"></circle></g></g><g id="line__Japan"><path id="outline" fill="none" stroke-linecap="butt" stroke-linejoin="round" stroke="#fff" stroke-width="2.5" d="M51.2 496.6L63.7 496.6L76.2 496.6L88.7 496.3L101.1 496.1L113.6 496L126.1 495.8L138.6 495.6L151 495.5L163.5 495.6L176 495.2L188.5 495.4L201 495.3L213.4 494.7L225.9 494.9L238.4 494.3L250.9 494.2L263.3 494.2L275.8 494.7L288.3 495.4L300.8 494.9L313.2 494.9"></path><g id="polyline"><polyline id="polyline" points="51.20,496.60 63.70,496.60 76.20,496.60 88.70,496.30 101.10,496.10 113.60,496.00 126.10,495.80 138.60,495.60 151.00,495.50 163.50,495.60 176.00,495.20 188.50,495.40 201.00,495.30 213.40,494.70 225.90,494.90 238.40,494.30 250.90,494.20 263.30,494.20 275.80,494.70 288.30,495.40 300.80,494.90 313.20,494.90" stroke-linejoin="round" stroke-width="1.5" stroke="#C15065" fill="none" stroke-linecap="butt"></polyline></g><g id="markers"><circle cx="51.2" cy="496.6" r="1.8" fill="#C15065"></circle><circle cx="63.7" cy="496.6" r="1.8" fill="#C15065"></circle><circle cx="76.2" cy="496.6" r="1.8" fill="#C15065"></circle><circle cx="88.7" cy="496.3" r="1.8" fill="#C15065"></circle><circle cx="101.1" cy="496.1" r="1.8" fill="#C15065"></circle><circle cx="113.6" cy="496" r="1.8" fill="#C15065"></circle><circle cx="126.1" cy="495.8" r="1.8" fill="#C15065"></circle><circle cx="138.6" cy="495.6" r="1.8" fill="#C15065"></circle><circle cx="151" cy="495.5" r="1.8" fill="#C15065"></circle><circle cx="163.5" cy="495.6" r="1.8" fill="#C15065"></circle><circle cx="176" cy="495.2" r="1.8" fill="#C15065"></circle><circle cx="188.5" cy="495.4" r="1.8" fill="#C15065"></circle><circle cx="201" cy="495.3" r="1.8" fill="#C15065"></circle><circle cx="213.4" cy="494.7" r="1.8" fill="#C15065"></circle><circle cx="225.9" cy="494.9" r="1.8" fill="#C15065"></circle><circle cx="238.4" cy="494.3" r="1.8" fill="#C15065"></circle><circle cx="250.9" cy="494.2" r="1.8" fill="#C15065"></circle><circle cx="263.3" cy="494.2" r="1.8" fill="#C15065"></circle><circle cx="275.8" cy="494.7" r="1.8" fill="#C15065"></circle><circle cx="288.3" cy="495.4" r="1.8" fill="#C15065"></circle><circle cx="300.8" cy="494.9" r="1.8" fill="#C15065"></circle><circle cx="313.2" cy="494.9" r="1.8" fill="#C15065"></circle></g></g><g id="line__Australia"><path id="outline" fill="none" stroke-linecap="butt" stroke-linejoin="round" stroke="#fff" stroke-width="2.5" d="M51.2 496.9L63.7 496.9L76.2 496.9L101.1 496.6L113.6 496.3L126.1 496.4L138.6 496.3L151 496.5L163.5 496.5L176 496.3L188.5 496.1L201 496.1L213.4 496.1L225.9 495.9L238.4 496L250.9 496.1L263.3 496.1L275.8 496.2L288.3 496.1L300.8 496.1L313.2 496.1L325.7 495.9L338.2 496.1L350.7 496.1L363.1 495.9L375.6 495.8L388.1 496.1L400.6 495.3L413 495.4L425.5 495.4L438 495.3L450.5 495.4L462.9 496L475.4 495.3L487.9 495.8L500.4 495.1L512.8 495.5L525.3 495.6L537.8 495L550.3 495.4L562.8 496.1L575.2 495.6L587.7 495.4L600.2 495.5L612.7 495.9L625.1 495.5L637.6 495.5L650.1 496.1L662.6 496.2L675 496.1L687.5 496.2L700 496.2"></path><g id="polyline"><polyline id="polyline" points="51.20,496.90 63.70,496.90 76.20,496.90 101.10,496.60 113.60,496.30 126.10,496.40 138.60,496.30 151.00,496.50 163.50,496.50 176.00,496.30 188.50,496.10 201.00,496.10 213.40,496.10 225.90,495.90 238.40,496.00 250.90,496.10 263.30,496.10 275.80,496.20 288.30,496.10 300.80,496.10 313.20,496.10 325.70,495.90 338.20,496.10 350.70,496.10 363.10,495.90 375.60,495.80 388.10,496.10 400.60,495.30 413.00,495.40 425.50,495.40 438.00,495.30 450.50,495.40 462.90,496.00 475.40,495.30 487.90,495.80 500.40,495.10 512.80,495.50 525.30,495.60 537.80,495.00 550.30,495.40 562.80,496.10 575.20,495.60 587.70,495.40 600.20,495.50 612.70,495.90 625.10,495.50 637.60,495.50 650.10,496.10 662.60,496.20 675.00,496.10 687.50,496.20 700.00,496.20" stroke-linejoin="round" stroke-width="1.5" stroke="#2C8465" fill="none" stroke-linecap="butt"></polyline></g><g id="markers"><circle cx="51.2" cy="496.9" r="1.8" fill="#2C8465"></circle><circle cx="63.7" cy="496.9" r="1.8" fill="#2C8465"></circle><circle cx="76.2" cy="496.9" r="1.8" fill="#2C8465"></circle><circle cx="101.1" cy="496.6" r="1.8" fill="#2C8465"></circle><circle cx="113.6" cy="496.3" r="1.8" fill="#2C8465"></circle><circle cx="126.1" cy="496.4" r="1.8" fill="#2C8465"></circle><circle cx="138.6" cy="496.3" r="1.8" fill="#2C8465"></circle><circle cx="151" cy="496.5" r="1.8" fill="#2C8465"></circle><circle cx="163.5" cy="496.5" r="1.8" fill="#2C8465"></circle><circle cx="176" cy="496.3" r="1.8" fill="#2C8465"></circle><circle cx="188.5" cy="496.1" r="1.8" fill="#2C8465"></circle><circle cx="201" cy="496.1" r="1.8" fill="#2C8465"></circle><circle cx="213.4" cy="496.1" r="1.8" fill="#2C8465"></circle><circle cx="225.9" cy="495.9" r="1.8" fill="#2C8465"></circle><circle cx="238.4" cy="496" r="1.8" fill="#2C8465"></circle><circle cx="250.9" cy="496.1" r="1.8" fill="#2C8465"></circle><circle cx="263.3" cy="496.1" r="1.8" fill="#2C8465"></circle><circle cx="275.8" cy="496.2" r="1.8" fill="#2C8465"></circle><circle cx="288.3" cy="496.1" r="1.8" fill="#2C8465"></circle><circle cx="300.8" cy="496.1" r="1.8" fill="#2C8465"></circle><circle cx="313.2" cy="496.1" r="1.8" fill="#2C8465"></circle><circle cx="325.7" cy="495.9" r="1.8" fill="#2C8465"></circle><circle cx="338.2" cy="496.1" r="1.8" fill="#2C8465"></circle><circle cx="350.7" cy="496.1" r="1.8" fill="#2C8465"></circle><circle cx="363.1" cy="495.9" r="1.8" fill="#2C8465"></circle><circle cx="375.6" cy="495.8" r="1.8" fill="#2C8465"></circle><circle cx="388.1" cy="496.1" r="1.8" fill="#2C8465"></circle><circle cx="400.6" cy="495.3" r="1.8" fill="#2C8465"></circle><circle cx="413" cy="495.4" r="1.8" fill="#2C8465"></circle><circle cx="425.5" cy="495.4" r="1.8" fill="#2C8465"></circle><circle cx="438" cy="495.3" r="1.8" fill="#2C8465"></circle><circle cx="450.5" cy="495.4" r="1.8" fill="#2C8465"></circle><circle cx="462.9" cy="496" r="1.8" fill="#2C8465"></circle><circle cx="475.4" cy="495.3" r="1.8" fill="#2C8465"></circle><circle cx="487.9" cy="495.8" r="1.8" fill="#2C8465"></circle><circle cx="500.4" cy="495.1" r="1.8" fill="#2C8465"></circle><circle cx="512.8" cy="495.5" r="1.8" fill="#2C8465"></circle><circle cx="525.3" cy="495.6" r="1.8" fill="#2C8465"></circle><circle cx="537.8" cy="495" r="1.8" fill="#2C8465"></circle><circle cx="550.3" cy="495.4" r="1.8" fill="#2C8465"></circle><circle cx="562.8" cy="496.1" r="1.8" fill="#2C8465"></circle><circle cx="575.2" cy="495.6" r="1.8" fill="#2C8465"></circle><circle cx="587.7" cy="495.4" r="1.8" fill="#2C8465"></circle><circle cx="600.2" cy="495.5" r="1.8" fill="#2C8465"></circle><circle cx="612.7" cy="495.9" r="1.8" fill="#2C8465"></circle><circle cx="625.1" cy="495.5" r="1.8" fill="#2C8465"></circle><circle cx="637.6" cy="495.5" r="1.8" fill="#2C8465"></circle><circle cx="650.1" cy="496.1" r="1.8" fill="#2C8465"></circle><circle cx="662.6" cy="496.2" r="1.8" fill="#2C8465"></circle><circle cx="675" cy="496.1" r="1.8" fill="#2C8465"></circle><circle cx="687.5" cy="496.2" r="1.8" fill="#2C8465"></circle><circle cx="700" cy="496.2" r="1.8" fill="#2C8465"></circle></g></g></g></g></g></g><g id="footer" class="SourcesFooter" style="fill:#5b5b5b"><g id="sources" class="markdown-text-wrap"><text x="16.0" y="546.5" style="font-size:13.5px;line-height:1.2"><tspan x="16" y="546.5"><tspan style="font-weight:700">Data source:</tspan> USGS - Mineral Commodity Summaries (2024); BGS - World Mineral Statistics (2023)</tspan></text></g><g id="note" class="markdown-text-wrap"><text x="16.0" y="564.7" style="font-size:13.5px;line-height:1.2"><tspan x="16" y="564.7"><tspan style="font-weight:700">Note:</tspan> Values are reported as tonnes of metal content. The sum of all countries may exceed World data on certain years (by up to 10%),</tspan><tspan x="16" y="580.9">due to discrepancies between data sources.</tspan></text></g><text id="origin-url" font-size="13.50" x="792.7" y="546.5"><tspan x="792.69" y="546.495"><a target="_blank" style="fill: #5b5b5b;" href="https://creativecommons.org/licenses/by/4.0/">CC BY</a></tspan></text></g><line id="separator-line" x1="16" y1="600" x2="834" y2="600" stroke="#e7e7e7"></line><g id="details" transform="translate(15, 616)"><g class="markdown-text-wrap"><text x="0.0" y="12.0" style="font-size:12.375px;fill:#5b5b5b;line-height:1.2"><tspan x="0" y="12.0"><tspan style="font-weight:700">1.</tspan> <tspan style="font-weight:700">Refined production</tspan>: Refined production is the process of taking raw materials, such as metals extracted from ores, and purifying them to achieve</tspan><tspan x="0" y="26.9">a higher quality or more usable form. After metals are initially extracted from ore through processes like smelting, they often contain impurities or are</tspan><tspan x="0" y="41.7">not in the ideal form for manufacturing. Refining involves further processing these metals to remove impurities and adjust their composition to meet</tspan><tspan x="0" y="56.6">specific standards. Refined production is essential for transforming raw materials into high-quality metals that are crucial for industries and</tspan><tspan x="0" y="71.4">consumers, from manufacturing electronics to constructing buildings.</tspan></text></g></g></svg>