<svg xmlns="http://www.w3.org/2000/svg" version="1.1" style="font-family:Lato, &#x27;Helvetica Neue&#x27;, Helvetica, Arial, &#x27;Liberation Sans&#x27;, sans-serif;font-size:18px;background-color:white;text-rendering:geometricPrecision;-webkit-font-smoothing:antialiased" width="850" height="706.25" viewBox="0 0 850 706.25"><defs><style>@import url(https://ourworldindata.org/fonts.css)</style></defs><defs><pattern id="noDataPattern" patternUnits="userSpaceOnUse" width="4" height="4" patternTransform="rotate(-45 2 2)"><path d="M -1,2 l 6,0" stroke="#ccc" stroke-width="0.7"></path></pattern></defs><rect class="background-fill" fill="white" width="850" height="706.25"></rect><g id="header" class="HeaderView"><g id="logo" transform="translate(769, 16) scale(1)"><svg className="owidLogo" xmlns="http://www.w3.org/2000/svg" width="65" height="36" viewBox="0 0 65 36"  fill="none"><path fill="#002147" d="M0 0h64.8v36H0z"/><path fill="#CE261E" d="M0 33.3h64.8V36H0z"/><path fill="#fff" d="M13.796 10.575c0 .636-.106 1.226-.318 1.77a4.193 4.193 0 0 1-.894 1.404 4.084 4.084 0 0 1-1.386.93c-.54.22-1.138.33-1.794.33-.656 0-1.256-.11-1.8-.33a4.149 4.149 0 0 1-1.392-.93 4.193 4.193 0 0 1-.894-1.404A4.833 4.833 0 0 1 5 10.575c0-.636.106-1.224.318-1.764a4.18 4.18 0 0 1 .894-1.41 4.076 4.076 0 0 1 1.392-.924 4.684 4.684 0 0 1 1.8-.336c.656 0 1.254.112 1.794.336.54.224 1.002.534 1.386.93.384.392.682.86.894 1.404.212.54.318 1.128.318 1.764Zm-1.656 0c0-.476-.064-.902-.192-1.278a2.671 2.671 0 0 0-.54-.966 2.332 2.332 0 0 0-.864-.606 2.94 2.94 0 0 0-1.14-.21c-.424 0-.806.07-1.146.21-.34.14-.63.342-.87.606a2.742 2.742 0 0 0-.546.966 3.955 3.955 0 0 0-.192 1.278c0 .476.064.904.192 1.284.128.376.31.696.546.96.24.26.53.46.87.6.34.14.722.21 1.146.21.424 0 .804-.07 1.14-.21.34-.14.628-.34.864-.6.236-.264.416-.584.54-.96a4.01 4.01 0 0 0 .192-1.284ZM16.104 8.757v3.912c0 .376.086.668.258.876.176.204.438.306.786.306.256 0 .496-.056.72-.168a2.58 2.58 0 0 0 .636-.474V8.757h1.482v6.156h-.906c-.192 0-.318-.09-.378-.27l-.102-.492a4.65 4.65 0 0 1-.396.354 2.577 2.577 0 0 1-.438.27 2.35 2.35 0 0 1-.498.168 2.345 2.345 0 0 1-.57.066c-.336 0-.634-.056-.894-.168a1.821 1.821 0 0 1-.648-.486 2.157 2.157 0 0 1-.402-.738 3.233 3.233 0 0 1-.132-.948V8.757h1.482ZM21.328 14.913V8.757h.87c.152 0 .258.028.318.084.06.056.1.152.12.288l.09.744c.22-.38.478-.68.774-.9.296-.22.628-.33.996-.33.304 0 .556.07.756.21l-.192 1.11c-.012.072-.038.124-.078.156a.278.278 0 0 1-.162.042 1.01 1.01 0 0 1-.246-.042 1.646 1.646 0 0 0-.414-.042c-.308 0-.572.086-.792.258-.22.168-.406.416-.558.744v3.834h-1.482ZM27.347 6.237h1.356a.57.57 0 0 1 .348.102c.096.064.16.152.192.264l1.476 5.19c.036.128.068.268.096.42.032.148.062.306.09.474a5.968 5.968 0 0 1 .228-.894l1.704-5.19a.575.575 0 0 1 .186-.252.543.543 0 0 1 .348-.114h.474a.57.57 0 0 1 .348.102.497.497 0 0 1 .192.264l1.692 5.19c.088.256.164.54.228.852.028-.156.056-.306.084-.45.032-.144.064-.278.096-.402l1.476-5.19c.028-.1.09-.186.186-.258a.563.563 0 0 1 .348-.108h1.266l-2.694 8.676h-1.458l-1.896-5.928-.078-.246a9.504 9.504 0 0 1-.072-.282c-.024.1-.05.194-.078.282-.024.088-.048.17-.072.246l-1.914 5.928H30.04l-2.694-8.676ZM42.771 8.661c.46 0 .876.074 1.248.222.376.148.696.358.96.63s.468.604.612.996c.144.392.216.83.216 1.314 0 .488-.072.928-.216 1.32a2.85 2.85 0 0 1-.612 1.002 2.653 2.653 0 0 1-.96.636 3.35 3.35 0 0 1-1.248.222c-.46 0-.878-.074-1.254-.222a2.712 2.712 0 0 1-.966-.636 2.922 2.922 0 0 1-.618-1.002 3.807 3.807 0 0 1-.216-1.32c0-.484.072-.922.216-1.314.148-.392.354-.724.618-.996.268-.272.59-.482.966-.63a3.397 3.397 0 0 1 1.254-.222Zm0 5.202c.512 0 .89-.172 1.134-.516.248-.344.372-.848.372-1.512s-.124-1.17-.372-1.518c-.244-.348-.622-.522-1.134-.522-.52 0-.904.176-1.152.528-.248.348-.372.852-.372 1.512s.124 1.164.372 1.512c.248.344.632.516 1.152.516ZM46.723 14.913V8.757h.87c.152 0 .258.028.318.084.06.056.1.152.12.288l.09.744c.22-.38.478-.68.774-.9.296-.22.628-.33.996-.33.304 0 .556.07.756.21l-.192 1.11c-.012.072-.038.124-.078.156a.278.278 0 0 1-.162.042 1.01 1.01 0 0 1-.246-.042 1.646 1.646 0 0 0-.414-.042c-.308 0-.572.086-.792.258-.22.168-.406.416-.558.744v3.834h-1.482ZM52.96 5.997v8.916h-1.482V5.997h1.482ZM58.732 14.913c-.192 0-.318-.09-.378-.27l-.12-.594a3.68 3.68 0 0 1-.402.39c-.14.116-.292.216-.456.3-.16.084-.334.148-.522.192a2.372 2.372 0 0 1-.6.072c-.336 0-.644-.07-.924-.21a2.098 2.098 0 0 1-.726-.606 3.033 3.033 0 0 1-.468-.99 5.072 5.072 0 0 1-.162-1.344c0-.456.062-.88.186-1.272s.302-.732.534-1.02c.232-.288.51-.512.834-.672a2.384 2.384 0 0 1 1.092-.246 2.103 2.103 0 0 1 1.536.606V5.997h1.482v8.916h-.906Zm-1.974-1.086c.308 0 .57-.064.786-.192.216-.128.42-.31.612-.546v-2.76a1.452 1.452 0 0 0-.552-.432 1.597 1.597 0 0 0-.636-.126c-.224 0-.428.042-.612.126a1.21 1.21 0 0 0-.462.384c-.124.168-.22.384-.288.648-.068.26-.102.568-.102.924 0 .36.028.666.084.918.06.248.144.452.252.612.108.156.24.27.396.342.156.068.33.102.522.102ZM16.331 20.757v6.156H14.85v-6.156h1.481Zm.223-1.794a.844.844 0 0 1-.078.36.963.963 0 0 1-.21.294.995.995 0 0 1-.3.204.963.963 0 0 1-.372.072.948.948 0 0 1-.367-.072 1.018 1.018 0 0 1-.498-.498.963.963 0 0 1 0-.732.995.995 0 0 1 .205-.3.929.929 0 0 1 .293-.198.899.899 0 0 1 .738 0 .912.912 0 0 1 .3.198.943.943 0 0 1 .288.672ZM17.771 26.913v-6.156h.906c.192 0 .318.09.378.27l.102.486a2.934 2.934 0 0 1 .828-.618c.156-.076.322-.134.498-.174.176-.04.368-.06.576-.06.336 0 .634.058.894.174.26.112.476.272.648.48.176.204.308.45.396.738.092.284.138.598.138.942v3.918h-1.482v-3.918c0-.376-.088-.666-.264-.87-.172-.208-.432-.312-.78-.312-.256 0-.496.058-.72.174a2.58 2.58 0 0 0-.636.474v4.452h-1.482ZM34.22 22.575c0 .636-.106 1.22-.318 1.752-.212.532-.51.99-.894 1.374a4 4 0 0 1-1.386.894 4.87 4.87 0 0 1-1.794.318h-3.312v-8.676h3.312a4.79 4.79 0 0 1 1.794.324 4 4 0 0 1 1.386.894c.384.38.682.836.894 1.368.212.532.318 1.116.318 1.752Zm-1.65 0c0-.476-.064-.902-.192-1.278a2.68 2.68 0 0 0-.546-.96 2.332 2.332 0 0 0-.864-.606 2.94 2.94 0 0 0-1.14-.21h-1.686v6.108h1.686c.424 0 .804-.07 1.14-.21.34-.14.628-.34.864-.6a2.75 2.75 0 0 0 .546-.96 4.01 4.01 0 0 0 .192-1.284ZM39.98 26.913h-.665c-.14 0-.25-.02-.33-.06-.08-.044-.14-.13-.18-.258l-.132-.438c-.156.14-.31.264-.462.372a2.804 2.804 0 0 1-.462.264c-.16.072-.33.126-.51.162-.18.036-.38.054-.6.054-.26 0-.5-.034-.72-.102a1.618 1.618 0 0 1-.57-.318 1.448 1.448 0 0 1-.366-.522 1.852 1.852 0 0 1-.132-.726c0-.232.06-.46.18-.684.124-.228.328-.432.612-.612.284-.184.662-.336 1.134-.456.472-.12 1.058-.188 1.758-.204v-.36c0-.412-.088-.716-.264-.912-.172-.2-.424-.3-.756-.3a1.837 1.837 0 0 0-1.02.276c-.116.068-.224.13-.324.186a.664.664 0 0 1-.33.084.429.429 0 0 1-.258-.078.614.614 0 0 1-.174-.192l-.27-.474c.708-.648 1.562-.972 2.562-.972.36 0 .68.06.96.18.284.116.524.28.72.492.196.208.344.458.444.75.104.292.156.612.156.96v3.888Zm-2.88-.924c.153 0 .293-.014.42-.042.129-.028.249-.07.36-.126.117-.056.227-.124.33-.204.109-.084.217-.182.325-.294v-1.038c-.432.02-.794.058-1.086.114-.288.052-.52.12-.696.204a.923.923 0 0 0-.378.294.664.664 0 0 0-.108.366c0 .26.076.446.228.558.156.112.358.168.606.168ZM43.22 27.01c-.532 0-.942-.15-1.23-.45-.288-.305-.432-.723-.432-1.255v-3.438h-.624a.31.31 0 0 1-.21-.078c-.056-.052-.084-.13-.084-.234v-.588l.99-.162.312-1.68a.302.302 0 0 1 .108-.186.365.365 0 0 1 .222-.066h.768v1.938h1.62v1.056h-1.62v3.336c0 .192.048.342.144.45a.488.488 0 0 0 .384.162c.092 0 .168-.01.228-.03.064-.024.118-.048.162-.072.048-.024.09-.046.126-.066a.194.194 0 0 1 .108-.036.16.16 0 0 1 .108.036c.028.02.058.052.09.096l.444.72c-.216.18-.464.316-.744.408a2.77 2.77 0 0 1-.87.138ZM50.423 26.913h-.666c-.14 0-.25-.02-.33-.06-.08-.044-.14-.13-.18-.258l-.132-.438c-.156.14-.31.264-.462.372a2.804 2.804 0 0 1-.462.264c-.16.072-.33.126-.51.162-.18.036-.38.054-.6.054-.26 0-.5-.034-.72-.102a1.618 1.618 0 0 1-.57-.318 1.448 1.448 0 0 1-.366-.522 1.852 1.852 0 0 1-.132-.726c0-.232.06-.46.18-.684.124-.228.328-.432.612-.612.284-.184.662-.336 1.134-.456.472-.12 1.058-.188 1.758-.204v-.36c0-.412-.088-.716-.264-.912-.172-.2-.424-.3-.756-.3a1.837 1.837 0 0 0-1.02.276c-.116.068-.224.13-.324.186a.664.664 0 0 1-.33.084.429.429 0 0 1-.258-.078.614.614 0 0 1-.174-.192l-.27-.474c.708-.648 1.562-.972 2.562-.972.36 0 .68.06.96.18.284.116.524.28.72.492.196.208.344.458.444.75.104.292.156.612.156.96v3.888Zm-2.88-.924c.152 0 .292-.014.42-.042.128-.028.248-.07.36-.126.116-.056.226-.124.33-.204.108-.084.216-.182.324-.294v-1.038c-.432.02-.794.058-1.086.114-.288.052-.52.12-.696.204a.923.923 0 0 0-.378.294.664.664 0 0 0-.108.366c0 .26.076.446.228.558.156.112.358.168.606.168Z"/></svg></g><a id="title" href="https://ourworldindata.org/explorers/minerals?Mineral=Magnesium+compounds&amp;Metric=Production&amp;Type=Mine%2C+iron+content&amp;Share+of+global=false&amp;country=AUS~CHL~CHN~USA~CAN~ALB~DZA~ARG~ARM~AUT~AZE~BOL~OWID_WRL~BWA~BRA~BGR~COL~COG~CUB~CYP~OWID_CZS~COD~DOM~OWID_GDR~ZWE~ZMB~OWID_YGS~OWID_GFR~VNM~UZB~GBR~UGA~OWID_USS~TUR~TZA~TJK~TWN~SWE~ESP~KOR~ZAF~SVK~OWID_SRM~SRB~SAU~RUS~ROU~PRT~POL~PHL~PER~PNG~PAN~PAK~OMN~NOR~MKD~PRK~NIC~NZL~NAM~MMR~MOZ~MAR~MNG~MEX~MRT~MYS~LAO~KGZ~KEN~KAZ~JPN~ITA~ISR~IRL~IRN~IDN~IND~HUN~HND~HTI~GTM~GRC~DEU~GEO~FRA~FIN~ERI~ECU~VEN~ARE~UKR~CHE~SUR~LKA~SVN~QAT~NGA~NLD~MNE~ISL~GHA~EGY~HRV~CMR~BIH~BHR~AFG~OWID_KOS~MDG~NCL~SDN~Other~CZE~THA~TUN" style="font-family:&#x27;Playfair Display&#x27;, Georgia, &#x27;Times New Roman&#x27;, &#x27;Liberation Serif&#x27;, serif" target="_blank" rel="noopener"><text font-size="24.75" font-weight="600" x="16.0" y="40.0" fill="#5b5b5b"><tspan x="16" y="40.0075">Magnesium compounds production, 1900 to 2023</tspan></text></a><g id="subtitle" class="markdown-text-wrap"><text x="16.0" y="63.9" style="font-size:14.625px;line-height:1.2" fill="#5b5b5b"><tspan x="16" y="63.9">Based on mined, rather than <tspan class="dod-span" data-id="refined-production">refined<tspan style="font-feature-settings:&quot;sups&quot;">ยน</tspan></tspan>, production. Measured in tonnes.</tspan></text></g></g><g id="chart-area" style="pointer-events:none"><g id="line-chart" class="LineChart"><defs><clipPath id="boundsClip-58"><rect x="75.665" y="73.25" width="838" height="470.35"></rect></clipPath></defs><rect x="16" y="83.25" width="818" height="450.35" fill="none"></rect><g id="dual-axis" class="DualAxisView"><g id="horizontal-axis" class="HorizontalAxis"><g id="tick__1900"><line x1="85.7" y1="512.6" x2="85.7" y2="518.1" stroke="#999" stroke-width="1"></line><text x="85.665" y="531.6" fill="#5b5b5b" text-anchor="start" font-size="13.5">1900</text></g><g id="tick__2023"><line x1="717.6" y1="512.6" x2="717.6" y2="518.1" stroke="#999" stroke-width="1"></line><text x="717.595" y="531.6" fill="#5b5b5b" text-anchor="end" font-size="13.5">2023</text></g><g id="tick__1920"><line x1="188.4" y1="512.6" x2="188.4" y2="518.1" stroke="#999" stroke-width="1"></line><text x="188.4" y="531.6" fill="#5b5b5b" text-anchor="middle" font-size="13.5">1920</text></g><g id="tick__1940"><line x1="291.2" y1="512.6" x2="291.2" y2="518.1" stroke="#999" stroke-width="1"></line><text x="291.2" y="531.6" fill="#5b5b5b" text-anchor="middle" font-size="13.5">1940</text></g><g id="tick__1960"><line x1="393.9" y1="512.6" x2="393.9" y2="518.1" stroke="#999" stroke-width="1"></line><text x="393.9" y="531.6" fill="#5b5b5b" text-anchor="middle" font-size="13.5">1960</text></g><g id="tick__1980"><line x1="496.7" y1="512.6" x2="496.7" y2="518.1" stroke="#999" stroke-width="1"></line><text x="496.7" y="531.6" fill="#5b5b5b" text-anchor="middle" font-size="13.5">1980</text></g><g id="tick__2000"><line x1="599.4" y1="512.6" x2="599.4" y2="518.1" stroke="#999" stroke-width="1"></line><text x="599.4" y="531.6" fill="#5b5b5b" text-anchor="middle" font-size="13.5">2000</text></g></g><g id="vertical-axis" class="VerticalAxis"><g id="tick-labels"><text id="tick-label__0-t" x="80.67" y="513.1" dy=".32em" text-anchor="end" fill="#5b5b5b" font-size="13.5">0 t</text><text id="tick-label__5-million-t" x="80.67" y="442.5" dy=".32em" text-anchor="end" fill="#5b5b5b" font-size="13.5">5 million t</text><text id="tick-label__10-million-t" x="80.67" y="371.8" dy=".32em" text-anchor="end" fill="#5b5b5b" font-size="13.5">10 million t</text><text id="tick-label__15-million-t" x="80.67" y="301.2" dy=".32em" text-anchor="end" fill="#5b5b5b" font-size="13.5">15 million t</text><text id="tick-label__20-million-t" x="80.67" y="230.5" dy=".32em" text-anchor="end" fill="#5b5b5b" font-size="13.5">20 million t</text><text id="tick-label__25-million-t" x="80.67" y="159.9" dy=".32em" text-anchor="end" fill="#5b5b5b" font-size="13.5">25 million t</text><text id="tick-label__30-million-t" x="80.67" y="89.3" dy=".32em" text-anchor="end" fill="#5b5b5b" font-size="13.5">30 million t</text></g></g><g id="horizontal-grid-lines" class="AxisGridLines horizontalLines"><line id="grid-line__0" x1="85.67" y1="513.1" x2="717.60" y2="513.1" stroke="#999" stroke-width="1"></line><line id="grid-line__5000000" x1="85.67" y1="442.5" x2="717.60" y2="442.5" stroke="#ddd" stroke-width="1" stroke-dasharray="3,2"></line><line id="grid-line__10000000" x1="85.67" y1="371.8" x2="717.60" y2="371.8" stroke="#ddd" stroke-width="1" stroke-dasharray="3,2"></line><line id="grid-line__15000000" x1="85.67" y1="301.2" x2="717.60" y2="301.2" stroke="#ddd" stroke-width="1" stroke-dasharray="3,2"></line><line id="grid-line__20000000" x1="85.67" y1="230.5" x2="717.60" y2="230.5" stroke="#ddd" stroke-width="1" stroke-dasharray="3,2"></line><line id="grid-line__25000000" x1="85.67" y1="159.9" x2="717.60" y2="159.9" stroke="#ddd" stroke-width="1" stroke-dasharray="3,2"></line><line id="grid-line__30000000" x1="85.67" y1="89.3" x2="717.60" y2="89.3" stroke="#ddd" stroke-width="1" stroke-dasharray="3,2"></line></g></g><g clip-path="url(#boundsClip-58)"><g id="line-labels" class="LineLabels"><g id="mark__World" class="legendMark" style="cursor:default"><g id="connector" class="indicator"><path d="M721.595,202.3 H735.095 V202.3 H748.595" stroke="#999" stroke-width="0.5" fill="none"></path></g><rect id="background" x="717.595" y="195.55" width="70.235" height="13.5" fill="#fff" opacity="0"></rect><text id="label" font-size="13.50" font-weight="400" x="752.6" y="207.3" fill="#c15065"><tspan x="752.595" y="207.29500000000002">World</tspan></text></g><g id="mark__China" class="legendMark" style="cursor:default"><g id="connector" class="indicator"><path d="M721.595,329.4 H723.5235714285715 V309.8499999999999 H748.595" stroke="#999" stroke-width="0.5" fill="none"></path></g><rect id="background" x="717.595" y="303.0999999999999" width="70.37" height="13.5" fill="#fff" opacity="0"></rect><text id="label" font-size="13.50" font-weight="400" x="752.6" y="314.8" fill="#cf0a66"><tspan x="752.595" y="314.8449999999999">China</tspan></text></g><g id="mark__Turkey" class="legendMark" style="cursor:default"><g id="connector" class="indicator"><path d="M721.595,487.7 H725.4521428571429 V325.3499999999999 H748.595" stroke="#999" stroke-width="0.5" fill="none"></path></g><rect id="background" x="717.595" y="318.5999999999999" width="76.31" height="13.5" fill="#fff" opacity="0"></rect><text id="label" font-size="13.50" font-weight="400" x="752.6" y="330.3" fill="#00295b"><tspan x="752.595" y="330.3449999999999">Turkey</tspan></text></g><g id="mark__Brazil" class="legendMark" style="cursor:default"><g id="connector" class="indicator"><path d="M721.595,489.1 H727.3807142857144 V340.8499999999999 H748.595" stroke="#999" stroke-width="0.5" fill="none"></path></g><rect id="background" x="717.595" y="334.0999999999999" width="68.75" height="13.5" fill="#fff" opacity="0"></rect><text id="label" font-size="13.50" font-weight="400" x="752.6" y="345.8" fill="#578145"><tspan x="752.595" y="345.8449999999999">Brazil</tspan></text></g><g id="mark__Russia" class="legendMark" style="cursor:default"><g id="connector" class="indicator"><path d="M721.595,499.5 H729.3092857142858 V356.3499999999999 H748.595" stroke="#999" stroke-width="0.5" fill="none"></path></g><rect id="background" x="717.595" y="349.5999999999999" width="76.31" height="13.5" fill="#fff" opacity="0"></rect><text id="label" font-size="13.50" font-weight="400" x="752.6" y="361.3" fill="#8c4569"><tspan x="752.595" y="361.3449999999999">Russia</tspan></text></g><g id="mark__Australia" class="legendMark" style="cursor:default"><g id="connector" class="indicator"><path d="M721.595,500.9 H731.2378571428571 V371.8499999999999 H748.595" stroke="#999" stroke-width="0.5" fill="none"></path></g><rect id="background" x="717.595" y="365.0999999999999" width="87.65" height="13.5" fill="#fff" opacity="0"></rect><text id="label" font-size="13.50" font-weight="400" x="752.6" y="376.8" fill="#2c8465"><tspan x="752.595" y="376.8449999999999">Australia</tspan></text></g><g id="mark__Austria" class="legendMark" style="cursor:default"><g id="connector" class="indicator"><path d="M721.595,501.7 H733.1664285714286 V387.3499999999999 H748.595" stroke="#999" stroke-width="0.5" fill="none"></path></g><rect id="background" x="717.595" y="380.5999999999999" width="77.12" height="13.5" fill="#fff" opacity="0"></rect><text id="label" font-size="13.50" font-weight="400" x="752.6" y="392.3" fill="#9a5129"><tspan x="752.595" y="392.3449999999999">Austria</tspan></text></g><g id="mark__Spain" class="legendMark" style="cursor:default"><g id="connector" class="indicator"><path d="M721.595,503.6 H735.095 V402.8499999999999 H748.595" stroke="#999" stroke-width="0.5" fill="none"></path></g><rect id="background" x="717.595" y="396.0999999999999" width="69.695" height="13.5" fill="#fff" opacity="0"></rect><text id="label" font-size="13.50" font-weight="400" x="752.6" y="407.8" fill="#578145"><tspan x="752.595" y="407.8449999999999">Spain</tspan></text></g><g id="mark__Slovakia" class="legendMark" style="cursor:default"><g id="connector" class="indicator"><path d="M721.595,505.9 H737.0235714285715 V418.3499999999999 H748.595" stroke="#999" stroke-width="0.5" fill="none"></path></g><rect id="background" x="717.595" y="411.5999999999999" width="86.165" height="13.5" fill="#fff" opacity="0"></rect><text id="label" font-size="13.50" font-weight="400" x="752.6" y="423.3" fill="#b13507"><tspan x="752.595" y="423.3449999999999">Slovakia</tspan></text></g><g id="mark__United-States" class="legendMark" style="cursor:default"><g id="connector" class="indicator"><path d="M721.595,507.3 H738.9521428571429 V433.8499999999999 H748.595" stroke="#999" stroke-width="0.5" fill="none"></path></g><rect id="background" x="717.595" y="427.0999999999999" width="116.405" height="13.5" fill="#fff" opacity="0"></rect><text id="label" font-size="13.50" font-weight="400" x="752.6" y="438.8" fill="#6d3e91"><tspan x="752.595" y="438.8449999999999">United States</tspan></text></g><g id="mark__Greece" class="legendMark" style="cursor:default"><g id="connector" class="indicator"><path d="M721.595,507.7 H740.8807142857144 V449.3499999999999 H748.595" stroke="#999" stroke-width="0.5" fill="none"></path></g><rect id="background" x="717.595" y="442.5999999999999" width="79.415" height="13.5" fill="#fff" opacity="0"></rect><text id="label" font-size="13.50" font-weight="400" x="752.6" y="454.3" fill="#c4523e"><tspan x="752.595" y="454.3449999999999">Greece</tspan></text></g><g id="mark__Saudi-Arabia" class="legendMark" style="cursor:default"><g id="connector" class="indicator"><path d="M721.595,508.3 H742.8092857142858 V464.8499999999999 H748.595" stroke="#999" stroke-width="0.5" fill="none"></path></g><rect id="background" x="717.595" y="458.0999999999999" width="112.625" height="13.5" fill="#fff" opacity="0"></rect><text id="label" font-size="13.50" font-weight="400" x="752.6" y="469.8" fill="#b16214"><tspan x="752.595" y="469.8449999999999">Saudi Arabia</tspan></text></g><g id="mark__Other" class="legendMark" style="cursor:default"><g id="connector" class="indicator"><path d="M721.595,508.6 H744.7378571428571 V480.3499999999999 H748.595" stroke="#999" stroke-width="0.5" fill="none"></path></g><rect id="background" x="717.595" y="473.5999999999999" width="68.885" height="13.5" fill="#fff" opacity="0"></rect><text id="label" font-size="13.50" font-weight="400" x="752.6" y="485.3" fill="#b16214"><tspan x="752.595" y="485.3449999999999">Other</tspan></text></g><g id="mark__Iran" class="legendMark" style="cursor:default"><g id="connector" class="indicator"><path d="M721.595,509.3 H746.6664285714286 V495.8499999999999 H748.595" stroke="#999" stroke-width="0.5" fill="none"></path></g><rect id="background" x="717.595" y="489.0999999999999" width="58.355000000000004" height="13.5" fill="#fff" opacity="0"></rect><text id="label" font-size="13.50" font-weight="400" x="752.6" y="500.8" fill="#cf0a66"><tspan x="752.595" y="500.8449999999999">Iran</tspan></text></g><g id="mark__Canada" class="legendMark" style="cursor:default"><g id="connector" class="indicator"><path d="M721.595,511 H746.6664285714286 V511.3499999999999 H748.595" stroke="#999" stroke-width="0.5" fill="none"></path></g><rect id="background" x="717.595" y="504.5999999999999" width="82.52000000000001" height="13.5" fill="#fff" opacity="0"></rect><text id="label" font-size="13.50" font-weight="400" x="752.6" y="516.3" fill="#18470f"><tspan x="752.595" y="516.3449999999999">Canada</tspan></text></g><g id="mark__India" class="legendMark" style="cursor:default"><g id="connector" class="indicator"><path d="M721.595,511.7 H744.7378571428571 V526.8499999999999 H748.595" stroke="#999" stroke-width="0.5" fill="none"></path></g><rect id="background" x="717.595" y="520.0999999999999" width="64.43" height="13.5" fill="#fff" opacity="0"></rect><text id="label" font-size="13.50" font-weight="400" x="752.6" y="531.8" fill="#286bbb"><tspan x="752.595" y="531.8449999999999">India</tspan></text></g></g><g id="lines" class="Lines"><rect x="86" y="89" width="632" height="424" fill="rgba(255,255,255,0)" opacity="0"></rect><g id="line__Saudi-Arabia"><path stroke-linecap="round" stroke-linejoin="round" stroke="#ddd" d="M712.5 508.3L717.6 508.3" fill="none" stroke-width="1"></path></g><g id="line__Iran"><path stroke-linecap="round" stroke-linejoin="round" stroke="#ddd" d="M707.3 510.3L712.5 509.3L717.6 509.3" fill="none" stroke-width="1"></path></g><g id="line__India"><path stroke-linecap="round" stroke-linejoin="round" stroke="#ddd" d="M707.3 511.7L712.5 511.7L717.6 511.7" fill="none" stroke-width="1"></path></g><g id="line__Canada"><path stroke-linecap="round" stroke-linejoin="round" stroke="#ddd" d="M707.3 510.4L712.5 511L717.6 511" fill="none" stroke-width="1"></path></g><g id="line__Turkey"><path stroke-linecap="round" stroke-linejoin="round" stroke="#ddd" d="M702.2 492.3L707.3 486.3L712.5 487.4L717.6 487.7" fill="none" stroke-width="1"></path></g><g id="line__Spain"><path stroke-linecap="round" stroke-linejoin="round" stroke="#ddd" d="M702.2 503.9L707.3 503.9L712.5 503.6L717.6 503.6" fill="none" stroke-width="1"></path></g><g id="line__Slovakia"><path stroke-linecap="round" stroke-linejoin="round" stroke="#ddd" d="M702.2 506.3L707.3 506L712.5 505.9L717.6 505.9" fill="none" stroke-width="1"></path></g><g id="line__Russia"><path stroke-linecap="round" stroke-linejoin="round" stroke="#ddd" d="M702.2 499L707.3 499L712.5 499.5L717.6 499.5" fill="none" stroke-width="1"></path></g><g id="line__Other"><path stroke-linecap="round" stroke-linejoin="round" stroke="#ddd" d="M702.2 500.1L707.3 507.4L712.5 508.5L717.6 508.6" fill="none" stroke-width="1"></path></g><g id="line__Greece"><path stroke-linecap="round" stroke-linejoin="round" stroke="#ddd" d="M702.2 506L707.3 505.5L712.5 507.7L717.6 507.7" fill="none" stroke-width="1"></path></g><g id="line__China"><path stroke-linecap="round" stroke-linejoin="round" stroke="#ddd" d="M702.2 244.7L707.3 258.8L712.5 329.4L717.6 329.4" fill="none" stroke-width="1"></path></g><g id="line__Brazil"><path stroke-linecap="round" stroke-linejoin="round" stroke="#ddd" d="M702.2 487.7L707.3 490.5L712.5 489.1L717.6 489.1" fill="none" stroke-width="1"></path></g><g id="line__Austria"><path stroke-linecap="round" stroke-linejoin="round" stroke="#ddd" d="M702.2 501.9L707.3 501.8L712.5 501.7L717.6 501.7" fill="none" stroke-width="1"></path></g><g id="line__Australia"><path stroke-linecap="round" stroke-linejoin="round" stroke="#ddd" d="M702.2 503.2L707.3 475L712.5 500.9L717.6 500.9" fill="none" stroke-width="1"></path></g><g id="line__World"><path stroke-linecap="round" stroke-linejoin="round" stroke="#ddd" d="M152.5 505.2L157.6 507L162.7 508.8L167.9 504.6L173 502.5L178.1 508L183.3 509.1L188.4 505L193.6 507.7L198.7 505.5L203.8 505.8L209 506.2L214.1 503L219.2 503L224.4 501.3L229.5 501.4L234.7 498.1L239.8 501.3L244.9 503.3L250.1 503.3L255.2 500.6L260.3 496.7L265.5 492.8L270.6 490.6L275.8 484.8L280.9 489.1L286 484.8L291.2 484.8L296.3 484.8L301.4 480.6L306.6 479.2L311.7 484.8L316.9 496.1L322 496.1L327.1 490.5L332.3 479.2L337.4 475L342.5 494.3L347.7 489.8L352.8 491.6L358 488L363.1 489.8L368.2 485.8L373.4 479.8L378.5 478.2L383.6 480.2L388.8 460.3L393.9 416.7L399.1 410.7L404.2 408L409.3 386.2L414.5 378.3L419.6 371.8L424.7 370.4L429.9 369L435 361.9L440.2 377L445.3 389.9L450.4 386.4L455.6 388.3L460.7 385L465.9 373.7L471 376.9L476.1 385L481.3 372.4L486.4 369L491.5 359.1L496.7 350.6L501.8 353.4L507 352L512.1 353.4L517.2 346.4L522.4 340.7L527.5 339.3L532.6 343.6L537.8 343.6L542.9 343.6L548.1 364.8L553.2 374.8L558.3 369L563.5 396.1L568.6 385.7L573.7 363.3L578.9 357.7L584 370.4L589.2 352L594.3 374.2L599.4 333.7L604.6 356.3L609.7 313.9L614.8 313.9L620 280L625.1 292.7L630.3 309.7L635.4 226.3L640.5 213.6L645.7 254.6L650.8 207.9L655.9 121.7L661.1 168.4L666.2 147.2L671.4 159.9L676.5 117.5L681.6 107.6L686.8 109L691.9 118.9L697 253.1L702.2 131.6L707.3 89.3L712.5 203.7L717.6 202.3" fill="none" stroke-width="1"></path></g><g id="line__United-States"><path stroke-linecap="round" stroke-linejoin="round" stroke="#ddd" d="M85.7 513.1L90.8 513.1L95.9 513.1L101.1 513.1L106.2 513.1L111.4 513.1L116.5 513.1L121.6 513.1L126.8 513.1L131.9 513L137 513L142.2 513L147.3 513L152.5 513L157.6 513L162.7 512.9L167.9 512.2L173 511.2L178.1 511.7L183.3 512.1L188.4 511.2L193.6 512.8L198.7 512.8L203.8 512.2L209 512.4L214.1 512.4L219.2 512.2L224.4 512.4L229.5 512.3L234.7 511.9L239.8 512.4L244.9 512.7L250.1 512.9L255.2 512.4L260.3 512.4L265.5 512L270.6 511.8L275.8 511.9L280.9 512.5L286 511.9L291.2 511.1L296.3 510.1L301.4 508.1L306.6 504.7L311.7 506L316.9 508.9L322 509.1L327.1 508.4L332.3 508.1L337.4 509.1L342.5 507.9L347.7 506.5L352.8 507.4L358 507.1L363.1 508.3L368.2 506.1L373.4 505.6L378.5 503.6L383.6 496L388.8 492.2L393.9 492.6L399.1 490.6L404.2 491.9L409.3 489.6L414.5 488.1L419.6 487.1L424.7 486.8L429.9 490.8L435 491.1L440.2 489.5L445.3 491.2L450.4 494.5L455.6 492.9L460.7 492.8L465.9 492.9L471 494.6L476.1 493.5L481.3 493.5L486.4 492.8L491.5 491.8L496.7 496L501.8 497L507 501.1L512.1 499.8L517.2 499.6L522.4 503.3L527.5 503.5L532.6 502.2L537.8 499.7L542.9 501.1L548.1 501.4L553.2 502.7L558.3 503.3L563.5 504.1L568.6 505L573.7 504.7L578.9 504L584 503.7L589.2 504.5L594.3 503.8L599.4 504.4L604.6 504L609.7 505.8L614.8 505.4L620 506.3L625.1 506L630.3 506.5L635.4 505.1L640.5 506.7L645.7 507.5L650.8 507L655.9 507.4L661.1 507.9L666.2 507.6L671.4 507.5L676.5 507.5L681.6 507.3L686.8 506.9L691.9 507.4L697 507.8L702.2 508L707.3 507L712.5 507.3" fill="none" stroke-width="1"></path></g><g id="line__Saudi-Arabia"><path id="outline" fill="none" stroke-linecap="butt" stroke-linejoin="round" stroke="#fff" stroke-width="2.5" d="M712.5 508.3L717.6 508.3"></path><g id="polyline"><polyline id="polyline" points="712.50,508.30 717.60,508.30" stroke-linejoin="round" stroke-width="1.5" stroke="#B16214" fill="none" stroke-linecap="butt"></polyline></g><g id="markers"><circle cx="712.5" cy="508.3" r="1.8" fill="#B16214"></circle><circle cx="717.6" cy="508.3" r="1.8" fill="#B16214"></circle></g></g><g id="line__Iran"><path id="outline" fill="none" stroke-linecap="butt" stroke-linejoin="round" stroke="#fff" stroke-width="2.5" d="M707.3 510.3L712.5 509.3L717.6 509.3"></path><g id="polyline"><polyline id="polyline" points="707.30,510.30 712.50,509.30 717.60,509.30" stroke-linejoin="round" stroke-width="1.5" stroke="#CF0A66" fill="none" stroke-linecap="butt"></polyline></g><g id="markers"><circle cx="707.3" cy="510.3" r="1.8" fill="#CF0A66"></circle><circle cx="712.5" cy="509.3" r="1.8" fill="#CF0A66"></circle><circle cx="717.6" cy="509.3" r="1.8" fill="#CF0A66"></circle></g></g><g id="line__India"><path id="outline" fill="none" stroke-linecap="butt" stroke-linejoin="round" stroke="#fff" stroke-width="2.5" d="M707.3 511.7L712.5 511.7L717.6 511.7"></path><g id="polyline"><polyline id="polyline" points="707.30,511.70 712.50,511.70 717.60,511.70" stroke-linejoin="round" stroke-width="1.5" stroke="#286BBB" fill="none" stroke-linecap="butt"></polyline></g><g id="markers"><circle cx="707.3" cy="511.7" r="1.8" fill="#286BBB"></circle><circle cx="712.5" cy="511.7" r="1.8" fill="#286BBB"></circle><circle cx="717.6" cy="511.7" r="1.8" fill="#286BBB"></circle></g></g><g id="line__Canada"><path id="outline" fill="none" stroke-linecap="butt" stroke-linejoin="round" stroke="#fff" stroke-width="2.5" d="M707.3 510.4L712.5 511L717.6 511"></path><g id="polyline"><polyline id="polyline" points="707.30,510.40 712.50,511.00 717.60,511.00" stroke-linejoin="round" stroke-width="1.5" stroke="#18470F" fill="none" stroke-linecap="butt"></polyline></g><g id="markers"><circle cx="707.3" cy="510.4" r="1.8" fill="#18470F"></circle><circle cx="712.5" cy="511" r="1.8" fill="#18470F"></circle><circle cx="717.6" cy="511" r="1.8" fill="#18470F"></circle></g></g><g id="line__Turkey"><path id="outline" fill="none" stroke-linecap="butt" stroke-linejoin="round" stroke="#fff" stroke-width="2.5" d="M702.2 492.3L707.3 486.3L712.5 487.4L717.6 487.7"></path><g id="polyline"><polyline id="polyline" points="702.20,492.30 707.30,486.30 712.50,487.40 717.60,487.70" stroke-linejoin="round" stroke-width="1.5" stroke="#00295B" fill="none" stroke-linecap="butt"></polyline></g><g id="markers"><circle cx="702.2" cy="492.3" r="1.8" fill="#00295B"></circle><circle cx="707.3" cy="486.3" r="1.8" fill="#00295B"></circle><circle cx="712.5" cy="487.4" r="1.8" fill="#00295B"></circle><circle cx="717.6" cy="487.7" r="1.8" fill="#00295B"></circle></g></g><g id="line__Spain"><path id="outline" fill="none" stroke-linecap="butt" stroke-linejoin="round" stroke="#fff" stroke-width="2.5" d="M702.2 503.9L707.3 503.9L712.5 503.6L717.6 503.6"></path><g id="polyline"><polyline id="polyline" points="702.20,503.90 707.30,503.90 712.50,503.60 717.60,503.60" stroke-linejoin="round" stroke-width="1.5" stroke="#578145" fill="none" stroke-linecap="butt"></polyline></g><g id="markers"><circle cx="702.2" cy="503.9" r="1.8" fill="#578145"></circle><circle cx="707.3" cy="503.9" r="1.8" fill="#578145"></circle><circle cx="712.5" cy="503.6" r="1.8" fill="#578145"></circle><circle cx="717.6" cy="503.6" r="1.8" fill="#578145"></circle></g></g><g id="line__Slovakia"><path id="outline" fill="none" stroke-linecap="butt" stroke-linejoin="round" stroke="#fff" stroke-width="2.5" d="M702.2 506.3L707.3 506L712.5 505.9L717.6 505.9"></path><g id="polyline"><polyline id="polyline" points="702.20,506.30 707.30,506.00 712.50,505.90 717.60,505.90" stroke-linejoin="round" stroke-width="1.5" stroke="#B13507" fill="none" stroke-linecap="butt"></polyline></g><g id="markers"><circle cx="702.2" cy="506.3" r="1.8" fill="#B13507"></circle><circle cx="707.3" cy="506" r="1.8" fill="#B13507"></circle><circle cx="712.5" cy="505.9" r="1.8" fill="#B13507"></circle><circle cx="717.6" cy="505.9" r="1.8" fill="#B13507"></circle></g></g><g id="line__Russia"><path id="outline" fill="none" stroke-linecap="butt" stroke-linejoin="round" stroke="#fff" stroke-width="2.5" d="M702.2 499L707.3 499L712.5 499.5L717.6 499.5"></path><g id="polyline"><polyline id="polyline" points="702.20,499.00 707.30,499.00 712.50,499.50 717.60,499.50" stroke-linejoin="round" stroke-width="1.5" stroke="#8C4569" fill="none" stroke-linecap="butt"></polyline></g><g id="markers"><circle cx="702.2" cy="499" r="1.8" fill="#8C4569"></circle><circle cx="707.3" cy="499" r="1.8" fill="#8C4569"></circle><circle cx="712.5" cy="499.5" r="1.8" fill="#8C4569"></circle><circle cx="717.6" cy="499.5" r="1.8" fill="#8C4569"></circle></g></g><g id="line__Other"><path id="outline" fill="none" stroke-linecap="butt" stroke-linejoin="round" stroke="#fff" stroke-width="2.5" d="M702.2 500.1L707.3 507.4L712.5 508.5L717.6 508.6"></path><g id="polyline"><polyline id="polyline" points="702.20,500.10 707.30,507.40 712.50,508.50 717.60,508.60" stroke-linejoin="round" stroke-width="1.5" stroke="#B16214" fill="none" stroke-linecap="butt"></polyline></g><g id="markers"><circle cx="702.2" cy="500.1" r="1.8" fill="#B16214"></circle><circle cx="707.3" cy="507.4" r="1.8" fill="#B16214"></circle><circle cx="712.5" cy="508.5" r="1.8" fill="#B16214"></circle><circle cx="717.6" cy="508.6" r="1.8" fill="#B16214"></circle></g></g><g id="line__Greece"><path id="outline" fill="none" stroke-linecap="butt" stroke-linejoin="round" stroke="#fff" stroke-width="2.5" d="M702.2 506L707.3 505.5L712.5 507.7L717.6 507.7"></path><g id="polyline"><polyline id="polyline" points="702.20,506.00 707.30,505.50 712.50,507.70 717.60,507.70" stroke-linejoin="round" stroke-width="1.5" stroke="#C4523E" fill="none" stroke-linecap="butt"></polyline></g><g id="markers"><circle cx="702.2" cy="506" r="1.8" fill="#C4523E"></circle><circle cx="707.3" cy="505.5" r="1.8" fill="#C4523E"></circle><circle cx="712.5" cy="507.7" r="1.8" fill="#C4523E"></circle><circle cx="717.6" cy="507.7" r="1.8" fill="#C4523E"></circle></g></g><g id="line__China"><path id="outline" fill="none" stroke-linecap="butt" stroke-linejoin="round" stroke="#fff" stroke-width="2.5" d="M702.2 244.7L707.3 258.8L712.5 329.4L717.6 329.4"></path><g id="polyline"><polyline id="polyline" points="702.20,244.70 707.30,258.80 712.50,329.40 717.60,329.40" stroke-linejoin="round" stroke-width="1.5" stroke="#CF0A66" fill="none" stroke-linecap="butt"></polyline></g><g id="markers"><circle cx="702.2" cy="244.7" r="1.8" fill="#CF0A66"></circle><circle cx="707.3" cy="258.8" r="1.8" fill="#CF0A66"></circle><circle cx="712.5" cy="329.4" r="1.8" fill="#CF0A66"></circle><circle cx="717.6" cy="329.4" r="1.8" fill="#CF0A66"></circle></g></g><g id="line__Brazil"><path id="outline" fill="none" stroke-linecap="butt" stroke-linejoin="round" stroke="#fff" stroke-width="2.5" d="M702.2 487.7L707.3 490.5L712.5 489.1L717.6 489.1"></path><g id="polyline"><polyline id="polyline" points="702.20,487.70 707.30,490.50 712.50,489.10 717.60,489.10" stroke-linejoin="round" stroke-width="1.5" stroke="#578145" fill="none" stroke-linecap="butt"></polyline></g><g id="markers"><circle cx="702.2" cy="487.7" r="1.8" fill="#578145"></circle><circle cx="707.3" cy="490.5" r="1.8" fill="#578145"></circle><circle cx="712.5" cy="489.1" r="1.8" fill="#578145"></circle><circle cx="717.6" cy="489.1" r="1.8" fill="#578145"></circle></g></g><g id="line__Austria"><path id="outline" fill="none" stroke-linecap="butt" stroke-linejoin="round" stroke="#fff" stroke-width="2.5" d="M702.2 501.9L707.3 501.8L712.5 501.7L717.6 501.7"></path><g id="polyline"><polyline id="polyline" points="702.20,501.90 707.30,501.80 712.50,501.70 717.60,501.70" stroke-linejoin="round" stroke-width="1.5" stroke="#9A5129" fill="none" stroke-linecap="butt"></polyline></g><g id="markers"><circle cx="702.2" cy="501.9" r="1.8" fill="#9A5129"></circle><circle cx="707.3" cy="501.8" r="1.8" fill="#9A5129"></circle><circle cx="712.5" cy="501.7" r="1.8" fill="#9A5129"></circle><circle cx="717.6" cy="501.7" r="1.8" fill="#9A5129"></circle></g></g><g id="line__Australia"><path id="outline" fill="none" stroke-linecap="butt" stroke-linejoin="round" stroke="#fff" stroke-width="2.5" d="M702.2 503.2L707.3 475L712.5 500.9L717.6 500.9"></path><g id="polyline"><polyline id="polyline" points="702.20,503.20 707.30,475.00 712.50,500.90 717.60,500.90" stroke-linejoin="round" stroke-width="1.5" stroke="#2C8465" fill="none" stroke-linecap="butt"></polyline></g><g id="markers"><circle cx="702.2" cy="503.2" r="1.8" fill="#2C8465"></circle><circle cx="707.3" cy="475" r="1.8" fill="#2C8465"></circle><circle cx="712.5" cy="500.9" r="1.8" fill="#2C8465"></circle><circle cx="717.6" cy="500.9" r="1.8" fill="#2C8465"></circle></g></g><g id="line__World"><path id="outline" fill="none" stroke-linecap="butt" stroke-linejoin="round" stroke="#fff" stroke-width="2.5" d="M152.5 505.2L157.6 507L162.7 508.8L167.9 504.6L173 502.5L178.1 508L183.3 509.1L188.4 505L193.6 507.7L198.7 505.5L203.8 505.8L209 506.2L214.1 503L219.2 503L224.4 501.3L229.5 501.4L234.7 498.1L239.8 501.3L244.9 503.3L250.1 503.3L255.2 500.6L260.3 496.7L265.5 492.8L270.6 490.6L275.8 484.8L280.9 489.1L286 484.8L291.2 484.8L296.3 484.8L301.4 480.6L306.6 479.2L311.7 484.8L316.9 496.1L322 496.1L327.1 490.5L332.3 479.2L337.4 475L342.5 494.3L347.7 489.8L352.8 491.6L358 488L363.1 489.8L368.2 485.8L373.4 479.8L378.5 478.2L383.6 480.2L388.8 460.3L393.9 416.7L399.1 410.7L404.2 408L409.3 386.2L414.5 378.3L419.6 371.8L424.7 370.4L429.9 369L435 361.9L440.2 377L445.3 389.9L450.4 386.4L455.6 388.3L460.7 385L465.9 373.7L471 376.9L476.1 385L481.3 372.4L486.4 369L491.5 359.1L496.7 350.6L501.8 353.4L507 352L512.1 353.4L517.2 346.4L522.4 340.7L527.5 339.3L532.6 343.6L537.8 343.6L542.9 343.6L548.1 364.8L553.2 374.8L558.3 369L563.5 396.1L568.6 385.7L573.7 363.3L578.9 357.7L584 370.4L589.2 352L594.3 374.2L599.4 333.7L604.6 356.3L609.7 313.9L614.8 313.9L620 280L625.1 292.7L630.3 309.7L635.4 226.3L640.5 213.6L645.7 254.6L650.8 207.9L655.9 121.7L661.1 168.4L666.2 147.2L671.4 159.9L676.5 117.5L681.6 107.6L686.8 109L691.9 118.9L697 253.1L702.2 131.6L707.3 89.3L712.5 203.7L717.6 202.3"></path><g id="polyline"><polyline id="polyline" points="152.50,505.20 157.60,507.00 162.70,508.80 167.90,504.60 173.00,502.50 178.10,508.00 183.30,509.10 188.40,505.00 193.60,507.70 198.70,505.50 203.80,505.80 209.00,506.20 214.10,503.00 219.20,503.00 224.40,501.30 229.50,501.40 234.70,498.10 239.80,501.30 244.90,503.30 250.10,503.30 255.20,500.60 260.30,496.70 265.50,492.80 270.60,490.60 275.80,484.80 280.90,489.10 286.00,484.80 291.20,484.80 296.30,484.80 301.40,480.60 306.60,479.20 311.70,484.80 316.90,496.10 322.00,496.10 327.10,490.50 332.30,479.20 337.40,475.00 342.50,494.30 347.70,489.80 352.80,491.60 358.00,488.00 363.10,489.80 368.20,485.80 373.40,479.80 378.50,478.20 383.60,480.20 388.80,460.30 393.90,416.70 399.10,410.70 404.20,408.00 409.30,386.20 414.50,378.30 419.60,371.80 424.70,370.40 429.90,369.00 435.00,361.90 440.20,377.00 445.30,389.90 450.40,386.40 455.60,388.30 460.70,385.00 465.90,373.70 471.00,376.90 476.10,385.00 481.30,372.40 486.40,369.00 491.50,359.10 496.70,350.60 501.80,353.40 507.00,352.00 512.10,353.40 517.20,346.40 522.40,340.70 527.50,339.30 532.60,343.60 537.80,343.60 542.90,343.60 548.10,364.80 553.20,374.80 558.30,369.00 563.50,396.10 568.60,385.70 573.70,363.30 578.90,357.70 584.00,370.40 589.20,352.00 594.30,374.20 599.40,333.70 604.60,356.30 609.70,313.90 614.80,313.90 620.00,280.00 625.10,292.70 630.30,309.70 635.40,226.30 640.50,213.60 645.70,254.60 650.80,207.90 655.90,121.70 661.10,168.40 666.20,147.20 671.40,159.90 676.50,117.50 681.60,107.60 686.80,109.00 691.90,118.90 697.00,253.10 702.20,131.60 707.30,89.30 712.50,203.70 717.60,202.30" stroke-linejoin="round" stroke-width="1.5" stroke="#C15065" fill="none" stroke-linecap="butt"></polyline></g><g id="markers"><circle cx="152.5" cy="505.2" r="1.8" fill="#C15065"></circle><circle cx="157.6" cy="507" r="1.8" fill="#C15065"></circle><circle cx="162.7" cy="508.8" r="1.8" fill="#C15065"></circle><circle cx="167.9" cy="504.6" r="1.8" fill="#C15065"></circle><circle cx="173" cy="502.5" r="1.8" fill="#C15065"></circle><circle cx="178.1" cy="508" r="1.8" fill="#C15065"></circle><circle cx="183.3" cy="509.1" r="1.8" fill="#C15065"></circle><circle cx="188.4" cy="505" r="1.8" fill="#C15065"></circle><circle cx="193.6" cy="507.7" r="1.8" fill="#C15065"></circle><circle cx="198.7" cy="505.5" r="1.8" fill="#C15065"></circle><circle cx="203.8" cy="505.8" r="1.8" fill="#C15065"></circle><circle cx="209" cy="506.2" r="1.8" fill="#C15065"></circle><circle cx="214.1" cy="503" r="1.8" fill="#C15065"></circle><circle cx="219.2" cy="503" r="1.8" fill="#C15065"></circle><circle cx="224.4" cy="501.3" r="1.8" fill="#C15065"></circle><circle cx="229.5" cy="501.4" r="1.8" fill="#C15065"></circle><circle cx="234.7" cy="498.1" r="1.8" fill="#C15065"></circle><circle cx="239.8" cy="501.3" r="1.8" fill="#C15065"></circle><circle cx="244.9" cy="503.3" r="1.8" fill="#C15065"></circle><circle cx="250.1" cy="503.3" r="1.8" fill="#C15065"></circle><circle cx="255.2" cy="500.6" r="1.8" fill="#C15065"></circle><circle cx="260.3" cy="496.7" r="1.8" fill="#C15065"></circle><circle cx="265.5" cy="492.8" r="1.8" fill="#C15065"></circle><circle cx="270.6" cy="490.6" r="1.8" fill="#C15065"></circle><circle cx="275.8" cy="484.8" r="1.8" fill="#C15065"></circle><circle cx="280.9" cy="489.1" r="1.8" fill="#C15065"></circle><circle cx="286" cy="484.8" r="1.8" fill="#C15065"></circle><circle cx="291.2" cy="484.8" r="1.8" fill="#C15065"></circle><circle cx="296.3" cy="484.8" r="1.8" fill="#C15065"></circle><circle cx="301.4" cy="480.6" r="1.8" fill="#C15065"></circle><circle cx="306.6" cy="479.2" r="1.8" fill="#C15065"></circle><circle cx="311.7" cy="484.8" r="1.8" fill="#C15065"></circle><circle cx="316.9" cy="496.1" r="1.8" fill="#C15065"></circle><circle cx="322" cy="496.1" r="1.8" fill="#C15065"></circle><circle cx="327.1" cy="490.5" r="1.8" fill="#C15065"></circle><circle cx="332.3" cy="479.2" r="1.8" fill="#C15065"></circle><circle cx="337.4" cy="475" r="1.8" fill="#C15065"></circle><circle cx="342.5" cy="494.3" r="1.8" fill="#C15065"></circle><circle cx="347.7" cy="489.8" r="1.8" fill="#C15065"></circle><circle cx="352.8" cy="491.6" r="1.8" fill="#C15065"></circle><circle cx="358" cy="488" r="1.8" fill="#C15065"></circle><circle cx="363.1" cy="489.8" r="1.8" fill="#C15065"></circle><circle cx="368.2" cy="485.8" r="1.8" fill="#C15065"></circle><circle cx="373.4" cy="479.8" r="1.8" fill="#C15065"></circle><circle cx="378.5" cy="478.2" r="1.8" fill="#C15065"></circle><circle cx="383.6" cy="480.2" r="1.8" fill="#C15065"></circle><circle cx="388.8" cy="460.3" r="1.8" fill="#C15065"></circle><circle cx="393.9" cy="416.7" r="1.8" fill="#C15065"></circle><circle cx="399.1" cy="410.7" r="1.8" fill="#C15065"></circle><circle cx="404.2" cy="408" r="1.8" fill="#C15065"></circle><circle cx="409.3" cy="386.2" r="1.8" fill="#C15065"></circle><circle cx="414.5" cy="378.3" r="1.8" fill="#C15065"></circle><circle cx="419.6" cy="371.8" r="1.8" fill="#C15065"></circle><circle cx="424.7" cy="370.4" r="1.8" fill="#C15065"></circle><circle cx="429.9" cy="369" r="1.8" fill="#C15065"></circle><circle cx="435" cy="361.9" r="1.8" fill="#C15065"></circle><circle cx="440.2" cy="377" r="1.8" fill="#C15065"></circle><circle cx="445.3" cy="389.9" r="1.8" fill="#C15065"></circle><circle cx="450.4" cy="386.4" r="1.8" fill="#C15065"></circle><circle cx="455.6" cy="388.3" r="1.8" fill="#C15065"></circle><circle cx="460.7" cy="385" r="1.8" fill="#C15065"></circle><circle cx="465.9" cy="373.7" r="1.8" fill="#C15065"></circle><circle cx="471" cy="376.9" r="1.8" fill="#C15065"></circle><circle cx="476.1" cy="385" r="1.8" fill="#C15065"></circle><circle cx="481.3" cy="372.4" r="1.8" fill="#C15065"></circle><circle cx="486.4" cy="369" r="1.8" fill="#C15065"></circle><circle cx="491.5" cy="359.1" r="1.8" fill="#C15065"></circle><circle cx="496.7" cy="350.6" r="1.8" fill="#C15065"></circle><circle cx="501.8" cy="353.4" r="1.8" fill="#C15065"></circle><circle cx="507" cy="352" r="1.8" fill="#C15065"></circle><circle cx="512.1" cy="353.4" r="1.8" fill="#C15065"></circle><circle cx="517.2" cy="346.4" r="1.8" fill="#C15065"></circle><circle cx="522.4" cy="340.7" r="1.8" fill="#C15065"></circle><circle cx="527.5" cy="339.3" r="1.8" fill="#C15065"></circle><circle cx="532.6" cy="343.6" r="1.8" fill="#C15065"></circle><circle cx="537.8" cy="343.6" r="1.8" fill="#C15065"></circle><circle cx="542.9" cy="343.6" r="1.8" fill="#C15065"></circle><circle cx="548.1" cy="364.8" r="1.8" fill="#C15065"></circle><circle cx="553.2" cy="374.8" r="1.8" fill="#C15065"></circle><circle cx="558.3" cy="369" r="1.8" fill="#C15065"></circle><circle cx="563.5" cy="396.1" r="1.8" fill="#C15065"></circle><circle cx="568.6" cy="385.7" r="1.8" fill="#C15065"></circle><circle cx="573.7" cy="363.3" r="1.8" fill="#C15065"></circle><circle cx="578.9" cy="357.7" r="1.8" fill="#C15065"></circle><circle cx="584" cy="370.4" r="1.8" fill="#C15065"></circle><circle cx="589.2" cy="352" r="1.8" fill="#C15065"></circle><circle cx="594.3" cy="374.2" r="1.8" fill="#C15065"></circle><circle cx="599.4" cy="333.7" r="1.8" fill="#C15065"></circle><circle cx="604.6" cy="356.3" r="1.8" fill="#C15065"></circle><circle cx="609.7" cy="313.9" r="1.8" fill="#C15065"></circle><circle cx="614.8" cy="313.9" r="1.8" fill="#C15065"></circle><circle cx="620" cy="280" r="1.8" fill="#C15065"></circle><circle cx="625.1" cy="292.7" r="1.8" fill="#C15065"></circle><circle cx="630.3" cy="309.7" r="1.8" fill="#C15065"></circle><circle cx="635.4" cy="226.3" r="1.8" fill="#C15065"></circle><circle cx="640.5" cy="213.6" r="1.8" fill="#C15065"></circle><circle cx="645.7" cy="254.6" r="1.8" fill="#C15065"></circle><circle cx="650.8" cy="207.9" r="1.8" fill="#C15065"></circle><circle cx="655.9" cy="121.7" r="1.8" fill="#C15065"></circle><circle cx="661.1" cy="168.4" r="1.8" fill="#C15065"></circle><circle cx="666.2" cy="147.2" r="1.8" fill="#C15065"></circle><circle cx="671.4" cy="159.9" r="1.8" fill="#C15065"></circle><circle cx="676.5" cy="117.5" r="1.8" fill="#C15065"></circle><circle cx="681.6" cy="107.6" r="1.8" fill="#C15065"></circle><circle cx="686.8" cy="109" r="1.8" fill="#C15065"></circle><circle cx="691.9" cy="118.9" r="1.8" fill="#C15065"></circle><circle cx="697" cy="253.1" r="1.8" fill="#C15065"></circle><circle cx="702.2" cy="131.6" r="1.8" fill="#C15065"></circle><circle cx="707.3" cy="89.3" r="1.8" fill="#C15065"></circle><circle cx="712.5" cy="203.7" r="1.8" fill="#C15065"></circle><circle cx="717.6" cy="202.3" r="1.8" fill="#C15065"></circle></g></g><g id="line__United-States"><path id="outline" fill="none" stroke-linecap="butt" stroke-linejoin="round" stroke="#fff" stroke-width="2.5" d="M85.7 513.1L90.8 513.1L95.9 513.1L101.1 513.1L106.2 513.1L111.4 513.1L116.5 513.1L121.6 513.1L126.8 513.1L131.9 513L137 513L142.2 513L147.3 513L152.5 513L157.6 513L162.7 512.9L167.9 512.2L173 511.2L178.1 511.7L183.3 512.1L188.4 511.2L193.6 512.8L198.7 512.8L203.8 512.2L209 512.4L214.1 512.4L219.2 512.2L224.4 512.4L229.5 512.3L234.7 511.9L239.8 512.4L244.9 512.7L250.1 512.9L255.2 512.4L260.3 512.4L265.5 512L270.6 511.8L275.8 511.9L280.9 512.5L286 511.9L291.2 511.1L296.3 510.1L301.4 508.1L306.6 504.7L311.7 506L316.9 508.9L322 509.1L327.1 508.4L332.3 508.1L337.4 509.1L342.5 507.9L347.7 506.5L352.8 507.4L358 507.1L363.1 508.3L368.2 506.1L373.4 505.6L378.5 503.6L383.6 496L388.8 492.2L393.9 492.6L399.1 490.6L404.2 491.9L409.3 489.6L414.5 488.1L419.6 487.1L424.7 486.8L429.9 490.8L435 491.1L440.2 489.5L445.3 491.2L450.4 494.5L455.6 492.9L460.7 492.8L465.9 492.9L471 494.6L476.1 493.5L481.3 493.5L486.4 492.8L491.5 491.8L496.7 496L501.8 497L507 501.1L512.1 499.8L517.2 499.6L522.4 503.3L527.5 503.5L532.6 502.2L537.8 499.7L542.9 501.1L548.1 501.4L553.2 502.7L558.3 503.3L563.5 504.1L568.6 505L573.7 504.7L578.9 504L584 503.7L589.2 504.5L594.3 503.8L599.4 504.4L604.6 504L609.7 505.8L614.8 505.4L620 506.3L625.1 506L630.3 506.5L635.4 505.1L640.5 506.7L645.7 507.5L650.8 507L655.9 507.4L661.1 507.9L666.2 507.6L671.4 507.5L676.5 507.5L681.6 507.3L686.8 506.9L691.9 507.4L697 507.8L702.2 508L707.3 507L712.5 507.3"></path><g id="polyline"><polyline id="polyline" points="85.70,513.10 90.80,513.10 95.90,513.10 101.10,513.10 106.20,513.10 111.40,513.10 116.50,513.10 121.60,513.10 126.80,513.10 131.90,513.00 137.00,513.00 142.20,513.00 147.30,513.00 152.50,513.00 157.60,513.00 162.70,512.90 167.90,512.20 173.00,511.20 178.10,511.70 183.30,512.10 188.40,511.20 193.60,512.80 198.70,512.80 203.80,512.20 209.00,512.40 214.10,512.40 219.20,512.20 224.40,512.40 229.50,512.30 234.70,511.90 239.80,512.40 244.90,512.70 250.10,512.90 255.20,512.40 260.30,512.40 265.50,512.00 270.60,511.80 275.80,511.90 280.90,512.50 286.00,511.90 291.20,511.10 296.30,510.10 301.40,508.10 306.60,504.70 311.70,506.00 316.90,508.90 322.00,509.10 327.10,508.40 332.30,508.10 337.40,509.10 342.50,507.90 347.70,506.50 352.80,507.40 358.00,507.10 363.10,508.30 368.20,506.10 373.40,505.60 378.50,503.60 383.60,496.00 388.80,492.20 393.90,492.60 399.10,490.60 404.20,491.90 409.30,489.60 414.50,488.10 419.60,487.10 424.70,486.80 429.90,490.80 435.00,491.10 440.20,489.50 445.30,491.20 450.40,494.50 455.60,492.90 460.70,492.80 465.90,492.90 471.00,494.60 476.10,493.50 481.30,493.50 486.40,492.80 491.50,491.80 496.70,496.00 501.80,497.00 507.00,501.10 512.10,499.80 517.20,499.60 522.40,503.30 527.50,503.50 532.60,502.20 537.80,499.70 542.90,501.10 548.10,501.40 553.20,502.70 558.30,503.30 563.50,504.10 568.60,505.00 573.70,504.70 578.90,504.00 584.00,503.70 589.20,504.50 594.30,503.80 599.40,504.40 604.60,504.00 609.70,505.80 614.80,505.40 620.00,506.30 625.10,506.00 630.30,506.50 635.40,505.10 640.50,506.70 645.70,507.50 650.80,507.00 655.90,507.40 661.10,507.90 666.20,507.60 671.40,507.50 676.50,507.50 681.60,507.30 686.80,506.90 691.90,507.40 697.00,507.80 702.20,508.00 707.30,507.00 712.50,507.30" stroke-linejoin="round" stroke-width="1.5" stroke="#6D3E91" fill="none" stroke-linecap="butt"></polyline></g><g id="markers"><circle cx="85.7" cy="513.1" r="1.8" fill="#6D3E91"></circle><circle cx="90.8" cy="513.1" r="1.8" fill="#6D3E91"></circle><circle cx="95.9" cy="513.1" r="1.8" fill="#6D3E91"></circle><circle cx="101.1" cy="513.1" r="1.8" fill="#6D3E91"></circle><circle cx="106.2" cy="513.1" r="1.8" fill="#6D3E91"></circle><circle cx="111.4" cy="513.1" r="1.8" fill="#6D3E91"></circle><circle cx="116.5" cy="513.1" r="1.8" fill="#6D3E91"></circle><circle cx="121.6" cy="513.1" r="1.8" fill="#6D3E91"></circle><circle cx="126.8" cy="513.1" r="1.8" fill="#6D3E91"></circle><circle cx="131.9" cy="513" r="1.8" fill="#6D3E91"></circle><circle cx="137" cy="513" r="1.8" fill="#6D3E91"></circle><circle cx="142.2" cy="513" r="1.8" fill="#6D3E91"></circle><circle cx="147.3" cy="513" r="1.8" fill="#6D3E91"></circle><circle cx="152.5" cy="513" r="1.8" fill="#6D3E91"></circle><circle cx="157.6" cy="513" r="1.8" fill="#6D3E91"></circle><circle cx="162.7" cy="512.9" r="1.8" fill="#6D3E91"></circle><circle cx="167.9" cy="512.2" r="1.8" fill="#6D3E91"></circle><circle cx="173" cy="511.2" r="1.8" fill="#6D3E91"></circle><circle cx="178.1" cy="511.7" r="1.8" fill="#6D3E91"></circle><circle cx="183.3" cy="512.1" r="1.8" fill="#6D3E91"></circle><circle cx="188.4" cy="511.2" r="1.8" fill="#6D3E91"></circle><circle cx="193.6" cy="512.8" r="1.8" fill="#6D3E91"></circle><circle cx="198.7" cy="512.8" r="1.8" fill="#6D3E91"></circle><circle cx="203.8" cy="512.2" r="1.8" fill="#6D3E91"></circle><circle cx="209" cy="512.4" r="1.8" fill="#6D3E91"></circle><circle cx="214.1" cy="512.4" r="1.8" fill="#6D3E91"></circle><circle cx="219.2" cy="512.2" r="1.8" fill="#6D3E91"></circle><circle cx="224.4" cy="512.4" r="1.8" fill="#6D3E91"></circle><circle cx="229.5" cy="512.3" r="1.8" fill="#6D3E91"></circle><circle cx="234.7" cy="511.9" r="1.8" fill="#6D3E91"></circle><circle cx="239.8" cy="512.4" r="1.8" fill="#6D3E91"></circle><circle cx="244.9" cy="512.7" r="1.8" fill="#6D3E91"></circle><circle cx="250.1" cy="512.9" r="1.8" fill="#6D3E91"></circle><circle cx="255.2" cy="512.4" r="1.8" fill="#6D3E91"></circle><circle cx="260.3" cy="512.4" r="1.8" fill="#6D3E91"></circle><circle cx="265.5" cy="512" r="1.8" fill="#6D3E91"></circle><circle cx="270.6" cy="511.8" r="1.8" fill="#6D3E91"></circle><circle cx="275.8" cy="511.9" r="1.8" fill="#6D3E91"></circle><circle cx="280.9" cy="512.5" r="1.8" fill="#6D3E91"></circle><circle cx="286" cy="511.9" r="1.8" fill="#6D3E91"></circle><circle cx="291.2" cy="511.1" r="1.8" fill="#6D3E91"></circle><circle cx="296.3" cy="510.1" r="1.8" fill="#6D3E91"></circle><circle cx="301.4" cy="508.1" r="1.8" fill="#6D3E91"></circle><circle cx="306.6" cy="504.7" r="1.8" fill="#6D3E91"></circle><circle cx="311.7" cy="506" r="1.8" fill="#6D3E91"></circle><circle cx="316.9" cy="508.9" r="1.8" fill="#6D3E91"></circle><circle cx="322" cy="509.1" r="1.8" fill="#6D3E91"></circle><circle cx="327.1" cy="508.4" r="1.8" fill="#6D3E91"></circle><circle cx="332.3" cy="508.1" r="1.8" fill="#6D3E91"></circle><circle cx="337.4" cy="509.1" r="1.8" fill="#6D3E91"></circle><circle cx="342.5" cy="507.9" r="1.8" fill="#6D3E91"></circle><circle cx="347.7" cy="506.5" r="1.8" fill="#6D3E91"></circle><circle cx="352.8" cy="507.4" r="1.8" fill="#6D3E91"></circle><circle cx="358" cy="507.1" r="1.8" fill="#6D3E91"></circle><circle cx="363.1" cy="508.3" r="1.8" fill="#6D3E91"></circle><circle cx="368.2" cy="506.1" r="1.8" fill="#6D3E91"></circle><circle cx="373.4" cy="505.6" r="1.8" fill="#6D3E91"></circle><circle cx="378.5" cy="503.6" r="1.8" fill="#6D3E91"></circle><circle cx="383.6" cy="496" r="1.8" fill="#6D3E91"></circle><circle cx="388.8" cy="492.2" r="1.8" fill="#6D3E91"></circle><circle cx="393.9" cy="492.6" r="1.8" fill="#6D3E91"></circle><circle cx="399.1" cy="490.6" r="1.8" fill="#6D3E91"></circle><circle cx="404.2" cy="491.9" r="1.8" fill="#6D3E91"></circle><circle cx="409.3" cy="489.6" r="1.8" fill="#6D3E91"></circle><circle cx="414.5" cy="488.1" r="1.8" fill="#6D3E91"></circle><circle cx="419.6" cy="487.1" r="1.8" fill="#6D3E91"></circle><circle cx="424.7" cy="486.8" r="1.8" fill="#6D3E91"></circle><circle cx="429.9" cy="490.8" r="1.8" fill="#6D3E91"></circle><circle cx="435" cy="491.1" r="1.8" fill="#6D3E91"></circle><circle cx="440.2" cy="489.5" r="1.8" fill="#6D3E91"></circle><circle cx="445.3" cy="491.2" r="1.8" fill="#6D3E91"></circle><circle cx="450.4" cy="494.5" r="1.8" fill="#6D3E91"></circle><circle cx="455.6" cy="492.9" r="1.8" fill="#6D3E91"></circle><circle cx="460.7" cy="492.8" r="1.8" fill="#6D3E91"></circle><circle cx="465.9" cy="492.9" r="1.8" fill="#6D3E91"></circle><circle cx="471" cy="494.6" r="1.8" fill="#6D3E91"></circle><circle cx="476.1" cy="493.5" r="1.8" fill="#6D3E91"></circle><circle cx="481.3" cy="493.5" r="1.8" fill="#6D3E91"></circle><circle cx="486.4" cy="492.8" r="1.8" fill="#6D3E91"></circle><circle cx="491.5" cy="491.8" r="1.8" fill="#6D3E91"></circle><circle cx="496.7" cy="496" r="1.8" fill="#6D3E91"></circle><circle cx="501.8" cy="497" r="1.8" fill="#6D3E91"></circle><circle cx="507" cy="501.1" r="1.8" fill="#6D3E91"></circle><circle cx="512.1" cy="499.8" r="1.8" fill="#6D3E91"></circle><circle cx="517.2" cy="499.6" r="1.8" fill="#6D3E91"></circle><circle cx="522.4" cy="503.3" r="1.8" fill="#6D3E91"></circle><circle cx="527.5" cy="503.5" r="1.8" fill="#6D3E91"></circle><circle cx="532.6" cy="502.2" r="1.8" fill="#6D3E91"></circle><circle cx="537.8" cy="499.7" r="1.8" fill="#6D3E91"></circle><circle cx="542.9" cy="501.1" r="1.8" fill="#6D3E91"></circle><circle cx="548.1" cy="501.4" r="1.8" fill="#6D3E91"></circle><circle cx="553.2" cy="502.7" r="1.8" fill="#6D3E91"></circle><circle cx="558.3" cy="503.3" r="1.8" fill="#6D3E91"></circle><circle cx="563.5" cy="504.1" r="1.8" fill="#6D3E91"></circle><circle cx="568.6" cy="505" r="1.8" fill="#6D3E91"></circle><circle cx="573.7" cy="504.7" r="1.8" fill="#6D3E91"></circle><circle cx="578.9" cy="504" r="1.8" fill="#6D3E91"></circle><circle cx="584" cy="503.7" r="1.8" fill="#6D3E91"></circle><circle cx="589.2" cy="504.5" r="1.8" fill="#6D3E91"></circle><circle cx="594.3" cy="503.8" r="1.8" fill="#6D3E91"></circle><circle cx="599.4" cy="504.4" r="1.8" fill="#6D3E91"></circle><circle cx="604.6" cy="504" r="1.8" fill="#6D3E91"></circle><circle cx="609.7" cy="505.8" r="1.8" fill="#6D3E91"></circle><circle cx="614.8" cy="505.4" r="1.8" fill="#6D3E91"></circle><circle cx="620" cy="506.3" r="1.8" fill="#6D3E91"></circle><circle cx="625.1" cy="506" r="1.8" fill="#6D3E91"></circle><circle cx="630.3" cy="506.5" r="1.8" fill="#6D3E91"></circle><circle cx="635.4" cy="505.1" r="1.8" fill="#6D3E91"></circle><circle cx="640.5" cy="506.7" r="1.8" fill="#6D3E91"></circle><circle cx="645.7" cy="507.5" r="1.8" fill="#6D3E91"></circle><circle cx="650.8" cy="507" r="1.8" fill="#6D3E91"></circle><circle cx="655.9" cy="507.4" r="1.8" fill="#6D3E91"></circle><circle cx="661.1" cy="507.9" r="1.8" fill="#6D3E91"></circle><circle cx="666.2" cy="507.6" r="1.8" fill="#6D3E91"></circle><circle cx="671.4" cy="507.5" r="1.8" fill="#6D3E91"></circle><circle cx="676.5" cy="507.5" r="1.8" fill="#6D3E91"></circle><circle cx="681.6" cy="507.3" r="1.8" fill="#6D3E91"></circle><circle cx="686.8" cy="506.9" r="1.8" fill="#6D3E91"></circle><circle cx="691.9" cy="507.4" r="1.8" fill="#6D3E91"></circle><circle cx="697" cy="507.8" r="1.8" fill="#6D3E91"></circle><circle cx="702.2" cy="508" r="1.8" fill="#6D3E91"></circle><circle cx="707.3" cy="507" r="1.8" fill="#6D3E91"></circle><circle cx="712.5" cy="507.3" r="1.8" fill="#6D3E91"></circle></g></g></g></g></g></g><g id="footer" class="SourcesFooter" style="fill:#5b5b5b"><g id="sources" class="markdown-text-wrap"><text x="16.0" y="562.7" style="font-size:13.5px;line-height:1.2"><tspan x="16" y="562.7"><tspan style="font-weight:700">Data source:</tspan> USGS - Mineral Commodity Summaries (2024); USGS - Historical Statistics for Mineral and Material Commodities (2023)</tspan></text></g><text id="origin-url" font-size="13.50" x="16.0" y="580.9"><tspan x="16" y="580.8950000000001"><a target="_blank" style="fill: #5b5b5b;" href="https://creativecommons.org/licenses/by/4.0/">CC BY</a></tspan></text></g><line id="separator-line" x1="16" y1="600" x2="834" y2="600" stroke="#e7e7e7"></line><g id="details" transform="translate(15, 616)"><g class="markdown-text-wrap"><text x="0.0" y="12.0" style="font-size:12.375px;fill:#5b5b5b;line-height:1.2"><tspan x="0" y="12.0"><tspan style="font-weight:700">1.</tspan> <tspan style="font-weight:700">Refined production</tspan>: Refined production is the process of taking raw materials, such as metals extracted from ores, and purifying them to achieve</tspan><tspan x="0" y="26.9">a higher quality or more usable form. After metals are initially extracted from ore through processes like smelting, they often contain impurities or are</tspan><tspan x="0" y="41.7">not in the ideal form for manufacturing. Refining involves further processing these metals to remove impurities and adjust their composition to meet</tspan><tspan x="0" y="56.6">specific standards. Refined production is essential for transforming raw materials into high-quality metals that are crucial for industries and</tspan><tspan x="0" y="71.4">consumers, from manufacturing electronics to constructing buildings.</tspan></text></g></g></svg>