<svg xmlns="http://www.w3.org/2000/svg" version="1.1" style="font-family:Lato, &#x27;Helvetica Neue&#x27;, Helvetica, Arial, &#x27;Liberation Sans&#x27;, sans-serif;font-size:18px;background-color:white;text-rendering:geometricPrecision;-webkit-font-smoothing:antialiased" width="850" height="600" viewBox="0 0 850 600"><defs><style>@import url(https://ourworldindata.org/fonts.css)</style></defs><defs><pattern id="noDataPattern" patternUnits="userSpaceOnUse" width="4" height="4" patternTransform="rotate(-45 2 2)"><path d="M -1,2 l 6,0" stroke="#ccc" stroke-width="0.7"></path></pattern></defs><rect class="background-fill" fill="white" width="850" height="600"></rect><g id="header" class="HeaderView"><g id="logo" transform="translate(769, 16) scale(1)"><svg className="owidLogo" xmlns="http://www.w3.org/2000/svg" width="65" height="36" viewBox="0 0 65 36"  fill="none"><path fill="#002147" d="M0 0h64.8v36H0z"/><path fill="#CE261E" d="M0 33.3h64.8V36H0z"/><path fill="#fff" d="M13.796 10.575c0 .636-.106 1.226-.318 1.77a4.193 4.193 0 0 1-.894 1.404 4.084 4.084 0 0 1-1.386.93c-.54.22-1.138.33-1.794.33-.656 0-1.256-.11-1.8-.33a4.149 4.149 0 0 1-1.392-.93 4.193 4.193 0 0 1-.894-1.404A4.833 4.833 0 0 1 5 10.575c0-.636.106-1.224.318-1.764a4.18 4.18 0 0 1 .894-1.41 4.076 4.076 0 0 1 1.392-.924 4.684 4.684 0 0 1 1.8-.336c.656 0 1.254.112 1.794.336.54.224 1.002.534 1.386.93.384.392.682.86.894 1.404.212.54.318 1.128.318 1.764Zm-1.656 0c0-.476-.064-.902-.192-1.278a2.671 2.671 0 0 0-.54-.966 2.332 2.332 0 0 0-.864-.606 2.94 2.94 0 0 0-1.14-.21c-.424 0-.806.07-1.146.21-.34.14-.63.342-.87.606a2.742 2.742 0 0 0-.546.966 3.955 3.955 0 0 0-.192 1.278c0 .476.064.904.192 1.284.128.376.31.696.546.96.24.26.53.46.87.6.34.14.722.21 1.146.21.424 0 .804-.07 1.14-.21.34-.14.628-.34.864-.6.236-.264.416-.584.54-.96a4.01 4.01 0 0 0 .192-1.284ZM16.104 8.757v3.912c0 .376.086.668.258.876.176.204.438.306.786.306.256 0 .496-.056.72-.168a2.58 2.58 0 0 0 .636-.474V8.757h1.482v6.156h-.906c-.192 0-.318-.09-.378-.27l-.102-.492a4.65 4.65 0 0 1-.396.354 2.577 2.577 0 0 1-.438.27 2.35 2.35 0 0 1-.498.168 2.345 2.345 0 0 1-.57.066c-.336 0-.634-.056-.894-.168a1.821 1.821 0 0 1-.648-.486 2.157 2.157 0 0 1-.402-.738 3.233 3.233 0 0 1-.132-.948V8.757h1.482ZM21.328 14.913V8.757h.87c.152 0 .258.028.318.084.06.056.1.152.12.288l.09.744c.22-.38.478-.68.774-.9.296-.22.628-.33.996-.33.304 0 .556.07.756.21l-.192 1.11c-.012.072-.038.124-.078.156a.278.278 0 0 1-.162.042 1.01 1.01 0 0 1-.246-.042 1.646 1.646 0 0 0-.414-.042c-.308 0-.572.086-.792.258-.22.168-.406.416-.558.744v3.834h-1.482ZM27.347 6.237h1.356a.57.57 0 0 1 .348.102c.096.064.16.152.192.264l1.476 5.19c.036.128.068.268.096.42.032.148.062.306.09.474a5.968 5.968 0 0 1 .228-.894l1.704-5.19a.575.575 0 0 1 .186-.252.543.543 0 0 1 .348-.114h.474a.57.57 0 0 1 .348.102.497.497 0 0 1 .192.264l1.692 5.19c.088.256.164.54.228.852.028-.156.056-.306.084-.45.032-.144.064-.278.096-.402l1.476-5.19c.028-.1.09-.186.186-.258a.563.563 0 0 1 .348-.108h1.266l-2.694 8.676h-1.458l-1.896-5.928-.078-.246a9.504 9.504 0 0 1-.072-.282c-.024.1-.05.194-.078.282-.024.088-.048.17-.072.246l-1.914 5.928H30.04l-2.694-8.676ZM42.771 8.661c.46 0 .876.074 1.248.222.376.148.696.358.96.63s.468.604.612.996c.144.392.216.83.216 1.314 0 .488-.072.928-.216 1.32a2.85 2.85 0 0 1-.612 1.002 2.653 2.653 0 0 1-.96.636 3.35 3.35 0 0 1-1.248.222c-.46 0-.878-.074-1.254-.222a2.712 2.712 0 0 1-.966-.636 2.922 2.922 0 0 1-.618-1.002 3.807 3.807 0 0 1-.216-1.32c0-.484.072-.922.216-1.314.148-.392.354-.724.618-.996.268-.272.59-.482.966-.63a3.397 3.397 0 0 1 1.254-.222Zm0 5.202c.512 0 .89-.172 1.134-.516.248-.344.372-.848.372-1.512s-.124-1.17-.372-1.518c-.244-.348-.622-.522-1.134-.522-.52 0-.904.176-1.152.528-.248.348-.372.852-.372 1.512s.124 1.164.372 1.512c.248.344.632.516 1.152.516ZM46.723 14.913V8.757h.87c.152 0 .258.028.318.084.06.056.1.152.12.288l.09.744c.22-.38.478-.68.774-.9.296-.22.628-.33.996-.33.304 0 .556.07.756.21l-.192 1.11c-.012.072-.038.124-.078.156a.278.278 0 0 1-.162.042 1.01 1.01 0 0 1-.246-.042 1.646 1.646 0 0 0-.414-.042c-.308 0-.572.086-.792.258-.22.168-.406.416-.558.744v3.834h-1.482ZM52.96 5.997v8.916h-1.482V5.997h1.482ZM58.732 14.913c-.192 0-.318-.09-.378-.27l-.12-.594a3.68 3.68 0 0 1-.402.39c-.14.116-.292.216-.456.3-.16.084-.334.148-.522.192a2.372 2.372 0 0 1-.6.072c-.336 0-.644-.07-.924-.21a2.098 2.098 0 0 1-.726-.606 3.033 3.033 0 0 1-.468-.99 5.072 5.072 0 0 1-.162-1.344c0-.456.062-.88.186-1.272s.302-.732.534-1.02c.232-.288.51-.512.834-.672a2.384 2.384 0 0 1 1.092-.246 2.103 2.103 0 0 1 1.536.606V5.997h1.482v8.916h-.906Zm-1.974-1.086c.308 0 .57-.064.786-.192.216-.128.42-.31.612-.546v-2.76a1.452 1.452 0 0 0-.552-.432 1.597 1.597 0 0 0-.636-.126c-.224 0-.428.042-.612.126a1.21 1.21 0 0 0-.462.384c-.124.168-.22.384-.288.648-.068.26-.102.568-.102.924 0 .36.028.666.084.918.06.248.144.452.252.612.108.156.24.27.396.342.156.068.33.102.522.102ZM16.331 20.757v6.156H14.85v-6.156h1.481Zm.223-1.794a.844.844 0 0 1-.078.36.963.963 0 0 1-.21.294.995.995 0 0 1-.3.204.963.963 0 0 1-.372.072.948.948 0 0 1-.367-.072 1.018 1.018 0 0 1-.498-.498.963.963 0 0 1 0-.732.995.995 0 0 1 .205-.3.929.929 0 0 1 .293-.198.899.899 0 0 1 .738 0 .912.912 0 0 1 .3.198.943.943 0 0 1 .288.672ZM17.771 26.913v-6.156h.906c.192 0 .318.09.378.27l.102.486a2.934 2.934 0 0 1 .828-.618c.156-.076.322-.134.498-.174.176-.04.368-.06.576-.06.336 0 .634.058.894.174.26.112.476.272.648.48.176.204.308.45.396.738.092.284.138.598.138.942v3.918h-1.482v-3.918c0-.376-.088-.666-.264-.87-.172-.208-.432-.312-.78-.312-.256 0-.496.058-.72.174a2.58 2.58 0 0 0-.636.474v4.452h-1.482ZM34.22 22.575c0 .636-.106 1.22-.318 1.752-.212.532-.51.99-.894 1.374a4 4 0 0 1-1.386.894 4.87 4.87 0 0 1-1.794.318h-3.312v-8.676h3.312a4.79 4.79 0 0 1 1.794.324 4 4 0 0 1 1.386.894c.384.38.682.836.894 1.368.212.532.318 1.116.318 1.752Zm-1.65 0c0-.476-.064-.902-.192-1.278a2.68 2.68 0 0 0-.546-.96 2.332 2.332 0 0 0-.864-.606 2.94 2.94 0 0 0-1.14-.21h-1.686v6.108h1.686c.424 0 .804-.07 1.14-.21.34-.14.628-.34.864-.6a2.75 2.75 0 0 0 .546-.96 4.01 4.01 0 0 0 .192-1.284ZM39.98 26.913h-.665c-.14 0-.25-.02-.33-.06-.08-.044-.14-.13-.18-.258l-.132-.438c-.156.14-.31.264-.462.372a2.804 2.804 0 0 1-.462.264c-.16.072-.33.126-.51.162-.18.036-.38.054-.6.054-.26 0-.5-.034-.72-.102a1.618 1.618 0 0 1-.57-.318 1.448 1.448 0 0 1-.366-.522 1.852 1.852 0 0 1-.132-.726c0-.232.06-.46.18-.684.124-.228.328-.432.612-.612.284-.184.662-.336 1.134-.456.472-.12 1.058-.188 1.758-.204v-.36c0-.412-.088-.716-.264-.912-.172-.2-.424-.3-.756-.3a1.837 1.837 0 0 0-1.02.276c-.116.068-.224.13-.324.186a.664.664 0 0 1-.33.084.429.429 0 0 1-.258-.078.614.614 0 0 1-.174-.192l-.27-.474c.708-.648 1.562-.972 2.562-.972.36 0 .68.06.96.18.284.116.524.28.72.492.196.208.344.458.444.75.104.292.156.612.156.96v3.888Zm-2.88-.924c.153 0 .293-.014.42-.042.129-.028.249-.07.36-.126.117-.056.227-.124.33-.204.109-.084.217-.182.325-.294v-1.038c-.432.02-.794.058-1.086.114-.288.052-.52.12-.696.204a.923.923 0 0 0-.378.294.664.664 0 0 0-.108.366c0 .26.076.446.228.558.156.112.358.168.606.168ZM43.22 27.01c-.532 0-.942-.15-1.23-.45-.288-.305-.432-.723-.432-1.255v-3.438h-.624a.31.31 0 0 1-.21-.078c-.056-.052-.084-.13-.084-.234v-.588l.99-.162.312-1.68a.302.302 0 0 1 .108-.186.365.365 0 0 1 .222-.066h.768v1.938h1.62v1.056h-1.62v3.336c0 .192.048.342.144.45a.488.488 0 0 0 .384.162c.092 0 .168-.01.228-.03.064-.024.118-.048.162-.072.048-.024.09-.046.126-.066a.194.194 0 0 1 .108-.036.16.16 0 0 1 .108.036c.028.02.058.052.09.096l.444.72c-.216.18-.464.316-.744.408a2.77 2.77 0 0 1-.87.138ZM50.423 26.913h-.666c-.14 0-.25-.02-.33-.06-.08-.044-.14-.13-.18-.258l-.132-.438c-.156.14-.31.264-.462.372a2.804 2.804 0 0 1-.462.264c-.16.072-.33.126-.51.162-.18.036-.38.054-.6.054-.26 0-.5-.034-.72-.102a1.618 1.618 0 0 1-.57-.318 1.448 1.448 0 0 1-.366-.522 1.852 1.852 0 0 1-.132-.726c0-.232.06-.46.18-.684.124-.228.328-.432.612-.612.284-.184.662-.336 1.134-.456.472-.12 1.058-.188 1.758-.204v-.36c0-.412-.088-.716-.264-.912-.172-.2-.424-.3-.756-.3a1.837 1.837 0 0 0-1.02.276c-.116.068-.224.13-.324.186a.664.664 0 0 1-.33.084.429.429 0 0 1-.258-.078.614.614 0 0 1-.174-.192l-.27-.474c.708-.648 1.562-.972 2.562-.972.36 0 .68.06.96.18.284.116.524.28.72.492.196.208.344.458.444.75.104.292.156.612.156.96v3.888Zm-2.88-.924c.152 0 .292-.014.42-.042.128-.028.248-.07.36-.126.116-.056.226-.124.33-.204.108-.084.216-.182.324-.294v-1.038c-.432.02-.794.058-1.086.114-.288.052-.52.12-.696.204a.923.923 0 0 0-.378.294.664.664 0 0 0-.108.366c0 .26.076.446.228.558.156.112.358.168.606.168Z"/></svg></g><a id="title" href="https://ourworldindata.org/explorers/minerals?Mineral=Magnesium+compounds&amp;Metric=Unit+value&amp;Type=Mine%2C+iron+content&amp;Share+of+global=false&amp;country=AUS~CHL~CHN~USA~CAN~ALB~DZA~ARG~ARM~AUT~AZE~BOL~OWID_WRL~BWA~BRA~BGR~COL~COG~CUB~CYP~OWID_CZS~COD~DOM~OWID_GDR~ZWE~ZMB~OWID_YGS~OWID_GFR~VNM~UZB~GBR~UGA~OWID_USS~TUR~TZA~TJK~TWN~SWE~ESP~KOR~ZAF~SVK~OWID_SRM~SRB~SAU~RUS~ROU~PRT~POL~PHL~PER~PNG~PAN~PAK~OMN~NOR~MKD~PRK~NIC~NZL~NAM~MMR~MOZ~MAR~MNG~MEX~MRT~MYS~LAO~KGZ~KEN~KAZ~JPN~ITA~ISR~IRL~IRN~IDN~IND~HUN~HND~HTI~GTM~GRC~DEU~GEO~FRA~FIN~ERI~ECU~VEN~ARE~UKR~CHE~SUR~LKA~SVN~QAT~NGA~NLD~MNE~ISL~GHA~EGY~HRV~CMR~BIH~BHR~AFG~OWID_KOS~MDG~NCL~SDN~Other~CZE~THA~TUN" style="font-family:&#x27;Playfair Display&#x27;, Georgia, &#x27;Times New Roman&#x27;, &#x27;Liberation Serif&#x27;, serif" target="_blank" rel="noopener"><text font-size="24.75" font-weight="600" x="16.0" y="40.0" fill="#5b5b5b"><tspan x="16" y="40.0075">Magnesium compounds unit value, 1900 to 2022</tspan></text></a><g id="subtitle" class="markdown-text-wrap"><text x="16.0" y="63.9" style="font-size:14.625px;line-height:1.2" fill="#5b5b5b"><tspan x="16" y="63.9">Value of 1 tonne of magnesium compounds, in constant 1998 US$ per tonne.</tspan></text></g></g><g id="chart-area" style="pointer-events:none"><g id="line-chart" class="LineChart"><defs><clipPath id="boundsClip-60"><rect x="52.580000000000005" y="73.25" width="838" height="470.35"></rect></clipPath></defs><rect x="16" y="83.25" width="818" height="450.35" fill="none"></rect><g id="dual-axis" class="DualAxisView"><g id="horizontal-axis" class="HorizontalAxis"><g id="tick__1900"><line x1="62.6" y1="512.6" x2="62.6" y2="518.1" stroke="#999" stroke-width="1"></line><text x="62.580000000000005" y="531.6" fill="#5b5b5b" text-anchor="start" font-size="13.5">1900</text></g><g id="tick__2022"><line x1="763.8" y1="512.6" x2="763.8" y2="518.1" stroke="#999" stroke-width="1"></line><text x="763.765" y="531.6" fill="#5b5b5b" text-anchor="end" font-size="13.5">2022</text></g><g id="tick__1920"><line x1="177.5" y1="512.6" x2="177.5" y2="518.1" stroke="#999" stroke-width="1"></line><text x="177.5" y="531.6" fill="#5b5b5b" text-anchor="middle" font-size="13.5">1920</text></g><g id="tick__1940"><line x1="292.5" y1="512.6" x2="292.5" y2="518.1" stroke="#999" stroke-width="1"></line><text x="292.5" y="531.6" fill="#5b5b5b" text-anchor="middle" font-size="13.5">1940</text></g><g id="tick__1960"><line x1="407.4" y1="512.6" x2="407.4" y2="518.1" stroke="#999" stroke-width="1"></line><text x="407.4" y="531.6" fill="#5b5b5b" text-anchor="middle" font-size="13.5">1960</text></g><g id="tick__1980"><line x1="522.4" y1="512.6" x2="522.4" y2="518.1" stroke="#999" stroke-width="1"></line><text x="522.4" y="531.6" fill="#5b5b5b" text-anchor="middle" font-size="13.5">1980</text></g><g id="tick__2000"><line x1="637.3" y1="512.6" x2="637.3" y2="518.1" stroke="#999" stroke-width="1"></line><text x="637.3" y="531.6" fill="#5b5b5b" text-anchor="middle" font-size="13.5">2000</text></g></g><g id="vertical-axis" class="VerticalAxis"><g id="tick-labels"><text id="tick-label__0-__0024__002ft" x="57.58" y="513.1" dy=".32em" text-anchor="end" fill="#5b5b5b" font-size="13.5">0 $/t</text><text id="tick-label__100-__0024__002ft" x="57.58" y="459" dy=".32em" text-anchor="end" fill="#5b5b5b" font-size="13.5">100 $/t</text><text id="tick-label__200-__0024__002ft" x="57.58" y="405" dy=".32em" text-anchor="end" fill="#5b5b5b" font-size="13.5">200 $/t</text><text id="tick-label__300-__0024__002ft" x="57.58" y="350.9" dy=".32em" text-anchor="end" fill="#5b5b5b" font-size="13.5">300 $/t</text><text id="tick-label__400-__0024__002ft" x="57.58" y="296.9" dy=".32em" text-anchor="end" fill="#5b5b5b" font-size="13.5">400 $/t</text><text id="tick-label__500-__0024__002ft" x="57.58" y="242.8" dy=".32em" text-anchor="end" fill="#5b5b5b" font-size="13.5">500 $/t</text><text id="tick-label__600-__0024__002ft" x="57.58" y="188.7" dy=".32em" text-anchor="end" fill="#5b5b5b" font-size="13.5">600 $/t</text><text id="tick-label__700-__0024__002ft" x="57.58" y="134.7" dy=".32em" text-anchor="end" fill="#5b5b5b" font-size="13.5">700 $/t</text></g></g><g id="horizontal-grid-lines" class="AxisGridLines horizontalLines"><line id="grid-line__0" x1="62.58" y1="513.1" x2="763.76" y2="513.1" stroke="#999" stroke-width="1"></line><line id="grid-line__100" x1="62.58" y1="459" x2="763.76" y2="459" stroke="#ddd" stroke-width="1" stroke-dasharray="3,2"></line><line id="grid-line__200" x1="62.58" y1="405" x2="763.76" y2="405" stroke="#ddd" stroke-width="1" stroke-dasharray="3,2"></line><line id="grid-line__300" x1="62.58" y1="350.9" x2="763.76" y2="350.9" stroke="#ddd" stroke-width="1" stroke-dasharray="3,2"></line><line id="grid-line__400" x1="62.58" y1="296.9" x2="763.76" y2="296.9" stroke="#ddd" stroke-width="1" stroke-dasharray="3,2"></line><line id="grid-line__500" x1="62.58" y1="242.8" x2="763.76" y2="242.8" stroke="#ddd" stroke-width="1" stroke-dasharray="3,2"></line><line id="grid-line__600" x1="62.58" y1="188.7" x2="763.76" y2="188.7" stroke="#ddd" stroke-width="1" stroke-dasharray="3,2"></line><line id="grid-line__700" x1="62.58" y1="134.7" x2="763.76" y2="134.7" stroke="#ddd" stroke-width="1" stroke-dasharray="3,2"></line></g></g><g clip-path="url(#boundsClip-60)"><g id="line-labels" class="LineLabels"><g id="mark__World" class="legendMark" style="cursor:default"><rect id="background" x="763.765" y="166.25" width="70.235" height="13.5" fill="#fff" opacity="0"></rect><text id="label" font-size="13.50" font-weight="400" x="767.8" y="178.0" fill="#c15065"><tspan x="767.765" y="177.995">World</tspan></text></g></g><g id="lines" class="Lines"><rect x="63" y="89" width="701" height="424" fill="rgba(255,255,255,0)" opacity="0"></rect><g id="line__World"><path stroke-linecap="round" stroke-linejoin="round" stroke="#ddd" d="M62.6 307.7L68.3 437.4L74.1 448.2L79.8 448.2L85.6 442.8L91.3 426.6L97.1 448.2L102.8 448.2L108.6 442.8L114.3 421.2L120.1 383.4L125.8 340.1L131.5 345.5L137.3 349.3L143 289.8L148.8 332.5L154.5 346L160.3 367.7L166 408.2L171.8 419L177.5 421.2L183.3 392L189 306L194.8 365L200.5 320.6L206.3 305L212 294.7L217.8 364.4L223.5 365L229.3 390.4L235 395.8L240.7 377.4L246.5 353.1L252.2 365.5L258 216.3L263.7 316.9L269.5 374.7L275.2 374.7L281 369.8L286.7 367.1L292.5 366.6L298.2 339L304 150.3L309.7 89.3L315.5 103.8L321.2 247.1L327 277.9L332.7 289.3L338.5 261.2L344.2 240.1L350 239L355.7 282.3L361.4 283.3L367.2 282.8L372.9 218.5L378.7 253.1L384.4 251.4L390.2 195.8L395.9 269.3L401.7 283.9L407.4 283.9L413.2 292.5L418.9 265L424.7 280.1L430.4 252.5L436.2 252L441.9 270.4L447.7 251.4L453.4 251.4L459.2 261.2L464.9 238.5L470.6 230.4L476.4 287.7L482.1 285L487.9 282.8L493.6 237.9L499.4 239L505.1 247.1L510.9 262.8L516.6 285L522.4 248.7L528.1 251.4L533.9 253.1L539.6 268.7L545.4 289.3L551.1 213.6L556.9 219L562.6 269.3L568.4 288.2L574.1 292.5L579.8 311.4L585.6 290.9L591.3 312L597.1 311.4L602.8 310.9L608.6 277.9L614.3 281.7L620.1 275.8L625.8 301.7L631.6 312L637.3 305.5L643.1 301.7L648.8 297.9L654.6 268.2L660.3 235.8L666.1 244.9L671.8 249.8L677.6 287.7L683.3 301.7L689 274.1L694.8 270.4L700.5 266.6L706.3 320.6L712 318.5L717.8 287.7L723.5 351.5L729.3 354.7L735 288.7L740.8 290.3L746.5 260.1L752.3 169.8L758 184.9L763.8 173" fill="none" stroke-width="1"></path></g><g id="line__World"><path id="outline" fill="none" stroke-linecap="butt" stroke-linejoin="round" stroke="#fff" stroke-width="2.5" d="M62.6 307.7L68.3 437.4L74.1 448.2L79.8 448.2L85.6 442.8L91.3 426.6L97.1 448.2L102.8 448.2L108.6 442.8L114.3 421.2L120.1 383.4L125.8 340.1L131.5 345.5L137.3 349.3L143 289.8L148.8 332.5L154.5 346L160.3 367.7L166 408.2L171.8 419L177.5 421.2L183.3 392L189 306L194.8 365L200.5 320.6L206.3 305L212 294.7L217.8 364.4L223.5 365L229.3 390.4L235 395.8L240.7 377.4L246.5 353.1L252.2 365.5L258 216.3L263.7 316.9L269.5 374.7L275.2 374.7L281 369.8L286.7 367.1L292.5 366.6L298.2 339L304 150.3L309.7 89.3L315.5 103.8L321.2 247.1L327 277.9L332.7 289.3L338.5 261.2L344.2 240.1L350 239L355.7 282.3L361.4 283.3L367.2 282.8L372.9 218.5L378.7 253.1L384.4 251.4L390.2 195.8L395.9 269.3L401.7 283.9L407.4 283.9L413.2 292.5L418.9 265L424.7 280.1L430.4 252.5L436.2 252L441.9 270.4L447.7 251.4L453.4 251.4L459.2 261.2L464.9 238.5L470.6 230.4L476.4 287.7L482.1 285L487.9 282.8L493.6 237.9L499.4 239L505.1 247.1L510.9 262.8L516.6 285L522.4 248.7L528.1 251.4L533.9 253.1L539.6 268.7L545.4 289.3L551.1 213.6L556.9 219L562.6 269.3L568.4 288.2L574.1 292.5L579.8 311.4L585.6 290.9L591.3 312L597.1 311.4L602.8 310.9L608.6 277.9L614.3 281.7L620.1 275.8L625.8 301.7L631.6 312L637.3 305.5L643.1 301.7L648.8 297.9L654.6 268.2L660.3 235.8L666.1 244.9L671.8 249.8L677.6 287.7L683.3 301.7L689 274.1L694.8 270.4L700.5 266.6L706.3 320.6L712 318.5L717.8 287.7L723.5 351.5L729.3 354.7L735 288.7L740.8 290.3L746.5 260.1L752.3 169.8L758 184.9L763.8 173"></path><g id="polyline"><polyline id="polyline" points="62.60,307.70 68.30,437.40 74.10,448.20 79.80,448.20 85.60,442.80 91.30,426.60 97.10,448.20 102.80,448.20 108.60,442.80 114.30,421.20 120.10,383.40 125.80,340.10 131.50,345.50 137.30,349.30 143.00,289.80 148.80,332.50 154.50,346.00 160.30,367.70 166.00,408.20 171.80,419.00 177.50,421.20 183.30,392.00 189.00,306.00 194.80,365.00 200.50,320.60 206.30,305.00 212.00,294.70 217.80,364.40 223.50,365.00 229.30,390.40 235.00,395.80 240.70,377.40 246.50,353.10 252.20,365.50 258.00,216.30 263.70,316.90 269.50,374.70 275.20,374.70 281.00,369.80 286.70,367.10 292.50,366.60 298.20,339.00 304.00,150.30 309.70,89.30 315.50,103.80 321.20,247.10 327.00,277.90 332.70,289.30 338.50,261.20 344.20,240.10 350.00,239.00 355.70,282.30 361.40,283.30 367.20,282.80 372.90,218.50 378.70,253.10 384.40,251.40 390.20,195.80 395.90,269.30 401.70,283.90 407.40,283.90 413.20,292.50 418.90,265.00 424.70,280.10 430.40,252.50 436.20,252.00 441.90,270.40 447.70,251.40 453.40,251.40 459.20,261.20 464.90,238.50 470.60,230.40 476.40,287.70 482.10,285.00 487.90,282.80 493.60,237.90 499.40,239.00 505.10,247.10 510.90,262.80 516.60,285.00 522.40,248.70 528.10,251.40 533.90,253.10 539.60,268.70 545.40,289.30 551.10,213.60 556.90,219.00 562.60,269.30 568.40,288.20 574.10,292.50 579.80,311.40 585.60,290.90 591.30,312.00 597.10,311.40 602.80,310.90 608.60,277.90 614.30,281.70 620.10,275.80 625.80,301.70 631.60,312.00 637.30,305.50 643.10,301.70 648.80,297.90 654.60,268.20 660.30,235.80 666.10,244.90 671.80,249.80 677.60,287.70 683.30,301.70 689.00,274.10 694.80,270.40 700.50,266.60 706.30,320.60 712.00,318.50 717.80,287.70 723.50,351.50 729.30,354.70 735.00,288.70 740.80,290.30 746.50,260.10 752.30,169.80 758.00,184.90 763.80,173.00" stroke-linejoin="round" stroke-width="1.5" stroke="#C15065" fill="none" stroke-linecap="butt"></polyline></g><g id="markers"><circle cx="62.6" cy="307.7" r="1.8" fill="#C15065"></circle><circle cx="68.3" cy="437.4" r="1.8" fill="#C15065"></circle><circle cx="74.1" cy="448.2" r="1.8" fill="#C15065"></circle><circle cx="79.8" cy="448.2" r="1.8" fill="#C15065"></circle><circle cx="85.6" cy="442.8" r="1.8" fill="#C15065"></circle><circle cx="91.3" cy="426.6" r="1.8" fill="#C15065"></circle><circle cx="97.1" cy="448.2" r="1.8" fill="#C15065"></circle><circle cx="102.8" cy="448.2" r="1.8" fill="#C15065"></circle><circle cx="108.6" cy="442.8" r="1.8" fill="#C15065"></circle><circle cx="114.3" cy="421.2" r="1.8" fill="#C15065"></circle><circle cx="120.1" cy="383.4" r="1.8" fill="#C15065"></circle><circle cx="125.8" cy="340.1" r="1.8" fill="#C15065"></circle><circle cx="131.5" cy="345.5" r="1.8" fill="#C15065"></circle><circle cx="137.3" cy="349.3" r="1.8" fill="#C15065"></circle><circle cx="143" cy="289.8" r="1.8" fill="#C15065"></circle><circle cx="148.8" cy="332.5" r="1.8" fill="#C15065"></circle><circle cx="154.5" cy="346" r="1.8" fill="#C15065"></circle><circle cx="160.3" cy="367.7" r="1.8" fill="#C15065"></circle><circle cx="166" cy="408.2" r="1.8" fill="#C15065"></circle><circle cx="171.8" cy="419" r="1.8" fill="#C15065"></circle><circle cx="177.5" cy="421.2" r="1.8" fill="#C15065"></circle><circle cx="183.3" cy="392" r="1.8" fill="#C15065"></circle><circle cx="189" cy="306" r="1.8" fill="#C15065"></circle><circle cx="194.8" cy="365" r="1.8" fill="#C15065"></circle><circle cx="200.5" cy="320.6" r="1.8" fill="#C15065"></circle><circle cx="206.3" cy="305" r="1.8" fill="#C15065"></circle><circle cx="212" cy="294.7" r="1.8" fill="#C15065"></circle><circle cx="217.8" cy="364.4" r="1.8" fill="#C15065"></circle><circle cx="223.5" cy="365" r="1.8" fill="#C15065"></circle><circle cx="229.3" cy="390.4" r="1.8" fill="#C15065"></circle><circle cx="235" cy="395.8" r="1.8" fill="#C15065"></circle><circle cx="240.7" cy="377.4" r="1.8" fill="#C15065"></circle><circle cx="246.5" cy="353.1" r="1.8" fill="#C15065"></circle><circle cx="252.2" cy="365.5" r="1.8" fill="#C15065"></circle><circle cx="258" cy="216.3" r="1.8" fill="#C15065"></circle><circle cx="263.7" cy="316.9" r="1.8" fill="#C15065"></circle><circle cx="269.5" cy="374.7" r="1.8" fill="#C15065"></circle><circle cx="275.2" cy="374.7" r="1.8" fill="#C15065"></circle><circle cx="281" cy="369.8" r="1.8" fill="#C15065"></circle><circle cx="286.7" cy="367.1" r="1.8" fill="#C15065"></circle><circle cx="292.5" cy="366.6" r="1.8" fill="#C15065"></circle><circle cx="298.2" cy="339" r="1.8" fill="#C15065"></circle><circle cx="304" cy="150.3" r="1.8" fill="#C15065"></circle><circle cx="309.7" cy="89.3" r="1.8" fill="#C15065"></circle><circle cx="315.5" cy="103.8" r="1.8" fill="#C15065"></circle><circle cx="321.2" cy="247.1" r="1.8" fill="#C15065"></circle><circle cx="327" cy="277.9" r="1.8" fill="#C15065"></circle><circle cx="332.7" cy="289.3" r="1.8" fill="#C15065"></circle><circle cx="338.5" cy="261.2" r="1.8" fill="#C15065"></circle><circle cx="344.2" cy="240.1" r="1.8" fill="#C15065"></circle><circle cx="350" cy="239" r="1.8" fill="#C15065"></circle><circle cx="355.7" cy="282.3" r="1.8" fill="#C15065"></circle><circle cx="361.4" cy="283.3" r="1.8" fill="#C15065"></circle><circle cx="367.2" cy="282.8" r="1.8" fill="#C15065"></circle><circle cx="372.9" cy="218.5" r="1.8" fill="#C15065"></circle><circle cx="378.7" cy="253.1" r="1.8" fill="#C15065"></circle><circle cx="384.4" cy="251.4" r="1.8" fill="#C15065"></circle><circle cx="390.2" cy="195.8" r="1.8" fill="#C15065"></circle><circle cx="395.9" cy="269.3" r="1.8" fill="#C15065"></circle><circle cx="401.7" cy="283.9" r="1.8" fill="#C15065"></circle><circle cx="407.4" cy="283.9" r="1.8" fill="#C15065"></circle><circle cx="413.2" cy="292.5" r="1.8" fill="#C15065"></circle><circle cx="418.9" cy="265" r="1.8" fill="#C15065"></circle><circle cx="424.7" cy="280.1" r="1.8" fill="#C15065"></circle><circle cx="430.4" cy="252.5" r="1.8" fill="#C15065"></circle><circle cx="436.2" cy="252" r="1.8" fill="#C15065"></circle><circle cx="441.9" cy="270.4" r="1.8" fill="#C15065"></circle><circle cx="447.7" cy="251.4" r="1.8" fill="#C15065"></circle><circle cx="453.4" cy="251.4" r="1.8" fill="#C15065"></circle><circle cx="459.2" cy="261.2" r="1.8" fill="#C15065"></circle><circle cx="464.9" cy="238.5" r="1.8" fill="#C15065"></circle><circle cx="470.6" cy="230.4" r="1.8" fill="#C15065"></circle><circle cx="476.4" cy="287.7" r="1.8" fill="#C15065"></circle><circle cx="482.1" cy="285" r="1.8" fill="#C15065"></circle><circle cx="487.9" cy="282.8" r="1.8" fill="#C15065"></circle><circle cx="493.6" cy="237.9" r="1.8" fill="#C15065"></circle><circle cx="499.4" cy="239" r="1.8" fill="#C15065"></circle><circle cx="505.1" cy="247.1" r="1.8" fill="#C15065"></circle><circle cx="510.9" cy="262.8" r="1.8" fill="#C15065"></circle><circle cx="516.6" cy="285" r="1.8" fill="#C15065"></circle><circle cx="522.4" cy="248.7" r="1.8" fill="#C15065"></circle><circle cx="528.1" cy="251.4" r="1.8" fill="#C15065"></circle><circle cx="533.9" cy="253.1" r="1.8" fill="#C15065"></circle><circle cx="539.6" cy="268.7" r="1.8" fill="#C15065"></circle><circle cx="545.4" cy="289.3" r="1.8" fill="#C15065"></circle><circle cx="551.1" cy="213.6" r="1.8" fill="#C15065"></circle><circle cx="556.9" cy="219" r="1.8" fill="#C15065"></circle><circle cx="562.6" cy="269.3" r="1.8" fill="#C15065"></circle><circle cx="568.4" cy="288.2" r="1.8" fill="#C15065"></circle><circle cx="574.1" cy="292.5" r="1.8" fill="#C15065"></circle><circle cx="579.8" cy="311.4" r="1.8" fill="#C15065"></circle><circle cx="585.6" cy="290.9" r="1.8" fill="#C15065"></circle><circle cx="591.3" cy="312" r="1.8" fill="#C15065"></circle><circle cx="597.1" cy="311.4" r="1.8" fill="#C15065"></circle><circle cx="602.8" cy="310.9" r="1.8" fill="#C15065"></circle><circle cx="608.6" cy="277.9" r="1.8" fill="#C15065"></circle><circle cx="614.3" cy="281.7" r="1.8" fill="#C15065"></circle><circle cx="620.1" cy="275.8" r="1.8" fill="#C15065"></circle><circle cx="625.8" cy="301.7" r="1.8" fill="#C15065"></circle><circle cx="631.6" cy="312" r="1.8" fill="#C15065"></circle><circle cx="637.3" cy="305.5" r="1.8" fill="#C15065"></circle><circle cx="643.1" cy="301.7" r="1.8" fill="#C15065"></circle><circle cx="648.8" cy="297.9" r="1.8" fill="#C15065"></circle><circle cx="654.6" cy="268.2" r="1.8" fill="#C15065"></circle><circle cx="660.3" cy="235.8" r="1.8" fill="#C15065"></circle><circle cx="666.1" cy="244.9" r="1.8" fill="#C15065"></circle><circle cx="671.8" cy="249.8" r="1.8" fill="#C15065"></circle><circle cx="677.6" cy="287.7" r="1.8" fill="#C15065"></circle><circle cx="683.3" cy="301.7" r="1.8" fill="#C15065"></circle><circle cx="689" cy="274.1" r="1.8" fill="#C15065"></circle><circle cx="694.8" cy="270.4" r="1.8" fill="#C15065"></circle><circle cx="700.5" cy="266.6" r="1.8" fill="#C15065"></circle><circle cx="706.3" cy="320.6" r="1.8" fill="#C15065"></circle><circle cx="712" cy="318.5" r="1.8" fill="#C15065"></circle><circle cx="717.8" cy="287.7" r="1.8" fill="#C15065"></circle><circle cx="723.5" cy="351.5" r="1.8" fill="#C15065"></circle><circle cx="729.3" cy="354.7" r="1.8" fill="#C15065"></circle><circle cx="735" cy="288.7" r="1.8" fill="#C15065"></circle><circle cx="740.8" cy="290.3" r="1.8" fill="#C15065"></circle><circle cx="746.5" cy="260.1" r="1.8" fill="#C15065"></circle><circle cx="752.3" cy="169.8" r="1.8" fill="#C15065"></circle><circle cx="758" cy="184.9" r="1.8" fill="#C15065"></circle><circle cx="763.8" cy="173" r="1.8" fill="#C15065"></circle></g></g></g></g></g></g><g id="footer" class="SourcesFooter" style="fill:#5b5b5b"><g id="sources" class="markdown-text-wrap"><text x="16.0" y="562.7" style="font-size:13.5px;line-height:1.2"><tspan x="16" y="562.7"><tspan style="font-weight:700">Data source:</tspan> USGS - Historical Statistics for Mineral and Material Commodities (2023)</tspan></text></g><g id="note" class="markdown-text-wrap"><text x="16.0" y="580.9" style="font-size:13.5px;line-height:1.2"><tspan x="16" y="580.9"><tspan style="font-weight:700">Note:</tspan> This data is adjusted for inflation.</tspan></text></g><text id="origin-url" font-size="13.50" x="792.7" y="562.7"><tspan x="792.69" y="562.695"><a target="_blank" style="fill: #5b5b5b;" href="https://creativecommons.org/licenses/by/4.0/">CC BY</a></tspan></text></g></svg>