<svg xmlns="http://www.w3.org/2000/svg" version="1.1" style="font-family:Lato, &#x27;Helvetica Neue&#x27;, Helvetica, Arial, &#x27;Liberation Sans&#x27;, sans-serif;font-size:18px;background-color:white;text-rendering:geometricPrecision;-webkit-font-smoothing:antialiased" width="850" height="758.8" viewBox="0 0 850 758.8"><defs><style>@import url(https://ourworldindata.org/fonts.css)</style></defs><defs><pattern id="noDataPattern" patternUnits="userSpaceOnUse" width="4" height="4" patternTransform="rotate(-45 2 2)"><path d="M -1,2 l 6,0" stroke="#ccc" stroke-width="0.7"></path></pattern></defs><rect class="background-fill" fill="white" width="850" height="758.8"></rect><g id="header" class="HeaderView"><g id="logo" transform="translate(769, 16) scale(1)"><svg className="owidLogo" xmlns="http://www.w3.org/2000/svg" width="65" height="36" viewBox="0 0 65 36"  fill="none"><path fill="#002147" d="M0 0h64.8v36H0z"/><path fill="#CE261E" d="M0 33.3h64.8V36H0z"/><path fill="#fff" d="M13.796 10.575c0 .636-.106 1.226-.318 1.77a4.193 4.193 0 0 1-.894 1.404 4.084 4.084 0 0 1-1.386.93c-.54.22-1.138.33-1.794.33-.656 0-1.256-.11-1.8-.33a4.149 4.149 0 0 1-1.392-.93 4.193 4.193 0 0 1-.894-1.404A4.833 4.833 0 0 1 5 10.575c0-.636.106-1.224.318-1.764a4.18 4.18 0 0 1 .894-1.41 4.076 4.076 0 0 1 1.392-.924 4.684 4.684 0 0 1 1.8-.336c.656 0 1.254.112 1.794.336.54.224 1.002.534 1.386.93.384.392.682.86.894 1.404.212.54.318 1.128.318 1.764Zm-1.656 0c0-.476-.064-.902-.192-1.278a2.671 2.671 0 0 0-.54-.966 2.332 2.332 0 0 0-.864-.606 2.94 2.94 0 0 0-1.14-.21c-.424 0-.806.07-1.146.21-.34.14-.63.342-.87.606a2.742 2.742 0 0 0-.546.966 3.955 3.955 0 0 0-.192 1.278c0 .476.064.904.192 1.284.128.376.31.696.546.96.24.26.53.46.87.6.34.14.722.21 1.146.21.424 0 .804-.07 1.14-.21.34-.14.628-.34.864-.6.236-.264.416-.584.54-.96a4.01 4.01 0 0 0 .192-1.284ZM16.104 8.757v3.912c0 .376.086.668.258.876.176.204.438.306.786.306.256 0 .496-.056.72-.168a2.58 2.58 0 0 0 .636-.474V8.757h1.482v6.156h-.906c-.192 0-.318-.09-.378-.27l-.102-.492a4.65 4.65 0 0 1-.396.354 2.577 2.577 0 0 1-.438.27 2.35 2.35 0 0 1-.498.168 2.345 2.345 0 0 1-.57.066c-.336 0-.634-.056-.894-.168a1.821 1.821 0 0 1-.648-.486 2.157 2.157 0 0 1-.402-.738 3.233 3.233 0 0 1-.132-.948V8.757h1.482ZM21.328 14.913V8.757h.87c.152 0 .258.028.318.084.06.056.1.152.12.288l.09.744c.22-.38.478-.68.774-.9.296-.22.628-.33.996-.33.304 0 .556.07.756.21l-.192 1.11c-.012.072-.038.124-.078.156a.278.278 0 0 1-.162.042 1.01 1.01 0 0 1-.246-.042 1.646 1.646 0 0 0-.414-.042c-.308 0-.572.086-.792.258-.22.168-.406.416-.558.744v3.834h-1.482ZM27.347 6.237h1.356a.57.57 0 0 1 .348.102c.096.064.16.152.192.264l1.476 5.19c.036.128.068.268.096.42.032.148.062.306.09.474a5.968 5.968 0 0 1 .228-.894l1.704-5.19a.575.575 0 0 1 .186-.252.543.543 0 0 1 .348-.114h.474a.57.57 0 0 1 .348.102.497.497 0 0 1 .192.264l1.692 5.19c.088.256.164.54.228.852.028-.156.056-.306.084-.45.032-.144.064-.278.096-.402l1.476-5.19c.028-.1.09-.186.186-.258a.563.563 0 0 1 .348-.108h1.266l-2.694 8.676h-1.458l-1.896-5.928-.078-.246a9.504 9.504 0 0 1-.072-.282c-.024.1-.05.194-.078.282-.024.088-.048.17-.072.246l-1.914 5.928H30.04l-2.694-8.676ZM42.771 8.661c.46 0 .876.074 1.248.222.376.148.696.358.96.63s.468.604.612.996c.144.392.216.83.216 1.314 0 .488-.072.928-.216 1.32a2.85 2.85 0 0 1-.612 1.002 2.653 2.653 0 0 1-.96.636 3.35 3.35 0 0 1-1.248.222c-.46 0-.878-.074-1.254-.222a2.712 2.712 0 0 1-.966-.636 2.922 2.922 0 0 1-.618-1.002 3.807 3.807 0 0 1-.216-1.32c0-.484.072-.922.216-1.314.148-.392.354-.724.618-.996.268-.272.59-.482.966-.63a3.397 3.397 0 0 1 1.254-.222Zm0 5.202c.512 0 .89-.172 1.134-.516.248-.344.372-.848.372-1.512s-.124-1.17-.372-1.518c-.244-.348-.622-.522-1.134-.522-.52 0-.904.176-1.152.528-.248.348-.372.852-.372 1.512s.124 1.164.372 1.512c.248.344.632.516 1.152.516ZM46.723 14.913V8.757h.87c.152 0 .258.028.318.084.06.056.1.152.12.288l.09.744c.22-.38.478-.68.774-.9.296-.22.628-.33.996-.33.304 0 .556.07.756.21l-.192 1.11c-.012.072-.038.124-.078.156a.278.278 0 0 1-.162.042 1.01 1.01 0 0 1-.246-.042 1.646 1.646 0 0 0-.414-.042c-.308 0-.572.086-.792.258-.22.168-.406.416-.558.744v3.834h-1.482ZM52.96 5.997v8.916h-1.482V5.997h1.482ZM58.732 14.913c-.192 0-.318-.09-.378-.27l-.12-.594a3.68 3.68 0 0 1-.402.39c-.14.116-.292.216-.456.3-.16.084-.334.148-.522.192a2.372 2.372 0 0 1-.6.072c-.336 0-.644-.07-.924-.21a2.098 2.098 0 0 1-.726-.606 3.033 3.033 0 0 1-.468-.99 5.072 5.072 0 0 1-.162-1.344c0-.456.062-.88.186-1.272s.302-.732.534-1.02c.232-.288.51-.512.834-.672a2.384 2.384 0 0 1 1.092-.246 2.103 2.103 0 0 1 1.536.606V5.997h1.482v8.916h-.906Zm-1.974-1.086c.308 0 .57-.064.786-.192.216-.128.42-.31.612-.546v-2.76a1.452 1.452 0 0 0-.552-.432 1.597 1.597 0 0 0-.636-.126c-.224 0-.428.042-.612.126a1.21 1.21 0 0 0-.462.384c-.124.168-.22.384-.288.648-.068.26-.102.568-.102.924 0 .36.028.666.084.918.06.248.144.452.252.612.108.156.24.27.396.342.156.068.33.102.522.102ZM16.331 20.757v6.156H14.85v-6.156h1.481Zm.223-1.794a.844.844 0 0 1-.078.36.963.963 0 0 1-.21.294.995.995 0 0 1-.3.204.963.963 0 0 1-.372.072.948.948 0 0 1-.367-.072 1.018 1.018 0 0 1-.498-.498.963.963 0 0 1 0-.732.995.995 0 0 1 .205-.3.929.929 0 0 1 .293-.198.899.899 0 0 1 .738 0 .912.912 0 0 1 .3.198.943.943 0 0 1 .288.672ZM17.771 26.913v-6.156h.906c.192 0 .318.09.378.27l.102.486a2.934 2.934 0 0 1 .828-.618c.156-.076.322-.134.498-.174.176-.04.368-.06.576-.06.336 0 .634.058.894.174.26.112.476.272.648.48.176.204.308.45.396.738.092.284.138.598.138.942v3.918h-1.482v-3.918c0-.376-.088-.666-.264-.87-.172-.208-.432-.312-.78-.312-.256 0-.496.058-.72.174a2.58 2.58 0 0 0-.636.474v4.452h-1.482ZM34.22 22.575c0 .636-.106 1.22-.318 1.752-.212.532-.51.99-.894 1.374a4 4 0 0 1-1.386.894 4.87 4.87 0 0 1-1.794.318h-3.312v-8.676h3.312a4.79 4.79 0 0 1 1.794.324 4 4 0 0 1 1.386.894c.384.38.682.836.894 1.368.212.532.318 1.116.318 1.752Zm-1.65 0c0-.476-.064-.902-.192-1.278a2.68 2.68 0 0 0-.546-.96 2.332 2.332 0 0 0-.864-.606 2.94 2.94 0 0 0-1.14-.21h-1.686v6.108h1.686c.424 0 .804-.07 1.14-.21.34-.14.628-.34.864-.6a2.75 2.75 0 0 0 .546-.96 4.01 4.01 0 0 0 .192-1.284ZM39.98 26.913h-.665c-.14 0-.25-.02-.33-.06-.08-.044-.14-.13-.18-.258l-.132-.438c-.156.14-.31.264-.462.372a2.804 2.804 0 0 1-.462.264c-.16.072-.33.126-.51.162-.18.036-.38.054-.6.054-.26 0-.5-.034-.72-.102a1.618 1.618 0 0 1-.57-.318 1.448 1.448 0 0 1-.366-.522 1.852 1.852 0 0 1-.132-.726c0-.232.06-.46.18-.684.124-.228.328-.432.612-.612.284-.184.662-.336 1.134-.456.472-.12 1.058-.188 1.758-.204v-.36c0-.412-.088-.716-.264-.912-.172-.2-.424-.3-.756-.3a1.837 1.837 0 0 0-1.02.276c-.116.068-.224.13-.324.186a.664.664 0 0 1-.33.084.429.429 0 0 1-.258-.078.614.614 0 0 1-.174-.192l-.27-.474c.708-.648 1.562-.972 2.562-.972.36 0 .68.06.96.18.284.116.524.28.72.492.196.208.344.458.444.75.104.292.156.612.156.96v3.888Zm-2.88-.924c.153 0 .293-.014.42-.042.129-.028.249-.07.36-.126.117-.056.227-.124.33-.204.109-.084.217-.182.325-.294v-1.038c-.432.02-.794.058-1.086.114-.288.052-.52.12-.696.204a.923.923 0 0 0-.378.294.664.664 0 0 0-.108.366c0 .26.076.446.228.558.156.112.358.168.606.168ZM43.22 27.01c-.532 0-.942-.15-1.23-.45-.288-.305-.432-.723-.432-1.255v-3.438h-.624a.31.31 0 0 1-.21-.078c-.056-.052-.084-.13-.084-.234v-.588l.99-.162.312-1.68a.302.302 0 0 1 .108-.186.365.365 0 0 1 .222-.066h.768v1.938h1.62v1.056h-1.62v3.336c0 .192.048.342.144.45a.488.488 0 0 0 .384.162c.092 0 .168-.01.228-.03.064-.024.118-.048.162-.072.048-.024.09-.046.126-.066a.194.194 0 0 1 .108-.036.16.16 0 0 1 .108.036c.028.02.058.052.09.096l.444.72c-.216.18-.464.316-.744.408a2.77 2.77 0 0 1-.87.138ZM50.423 26.913h-.666c-.14 0-.25-.02-.33-.06-.08-.044-.14-.13-.18-.258l-.132-.438c-.156.14-.31.264-.462.372a2.804 2.804 0 0 1-.462.264c-.16.072-.33.126-.51.162-.18.036-.38.054-.6.054-.26 0-.5-.034-.72-.102a1.618 1.618 0 0 1-.57-.318 1.448 1.448 0 0 1-.366-.522 1.852 1.852 0 0 1-.132-.726c0-.232.06-.46.18-.684.124-.228.328-.432.612-.612.284-.184.662-.336 1.134-.456.472-.12 1.058-.188 1.758-.204v-.36c0-.412-.088-.716-.264-.912-.172-.2-.424-.3-.756-.3a1.837 1.837 0 0 0-1.02.276c-.116.068-.224.13-.324.186a.664.664 0 0 1-.33.084.429.429 0 0 1-.258-.078.614.614 0 0 1-.174-.192l-.27-.474c.708-.648 1.562-.972 2.562-.972.36 0 .68.06.96.18.284.116.524.28.72.492.196.208.344.458.444.75.104.292.156.612.156.96v3.888Zm-2.88-.924c.152 0 .292-.014.42-.042.128-.028.248-.07.36-.126.116-.056.226-.124.33-.204.108-.084.216-.182.324-.294v-1.038c-.432.02-.794.058-1.086.114-.288.052-.52.12-.696.204a.923.923 0 0 0-.378.294.664.664 0 0 0-.108.366c0 .26.076.446.228.558.156.112.358.168.606.168Z"/></svg></g><a id="title" href="https://ourworldindata.org/explorers/minerals?country=OWID_WRL~AUS~CHL~CHN~USA~ZWE~CAN~ALB~DZA~ARG~ARM~AUT~AZE~BOL~BWA~BRA~BGR~COL~COG~CUB~CYP~OWID_CZS~COD~DOM~OWID_GDR~ECU~ERI~FIN~FRA~GEO~DEU~GRC~GTM~HTI~HND~HUN~IND~IDN~IRN~IRL~ZMB~OWID_GFR~OWID_YGS~VNM~GBR~UGA~UZB~OWID_USS~TUR~TZA~TJK~TWN~SWE~ESP~KOR~ZAF~SVK~OWID_SRM~SRB~SAU~RUS~ROU~PRT~POL~PHL~PER~PNG~PAN~PAK~OMN~NOR~MKD~PRK~NIC~NZL~NAM~MMR~MOZ~MAR~MNG~MEX~MRT~MYS~LAO~KGZ~KEN~KAZ~JPN~ITA~ISR~BEL~THA~EGY~UKR~Other~MDG~NCL&amp;Mineral=Cobalt&amp;Metric=Production&amp;Type=Refinery&amp;Share+of+global=false" style="font-family:&#x27;Playfair Display&#x27;, Georgia, &#x27;Times New Roman&#x27;, &#x27;Liberation Serif&#x27;, serif" target="_blank" rel="noopener"><text font-size="24.75" font-weight="600" x="16.0" y="40.0" fill="#5b5b5b"><tspan x="16" y="40.0075">Refined cobalt production, 1968 to 2022</tspan></text></a><g id="subtitle" class="markdown-text-wrap"><text x="16.0" y="63.9" style="font-size:14.625px;line-height:1.2" fill="#5b5b5b"><tspan x="16" y="63.9">Production of refined <tspan class="dod-span" data-id="cobalt">cobalt<tspan style="font-feature-settings:&quot;sups&quot;">¹</tspan></tspan>, in tonnes. The amounts of <tspan class="dod-span" data-id="refined-production">refined<tspan style="font-feature-settings:&quot;sups&quot;">²</tspan></tspan> and raw materials differ because refining</tspan><tspan x="16" y="81.4">removes impurities and adjusts the composition to meet specific standards.</tspan></text></g></g><g id="chart-area" style="pointer-events:none"><g id="line-chart" class="LineChart"><defs><clipPath id="boundsClip-114"><rect x="67.7" y="90.8" width="838" height="436.6"></rect></clipPath></defs><rect x="16" y="100.8" width="818" height="416.6" fill="none"></rect><g id="dual-axis" class="DualAxisView"><g id="horizontal-axis" class="HorizontalAxis"><g id="tick__1968"><line x1="77.7" y1="496.40000000000003" x2="77.7" y2="501.90000000000003" stroke="#999" stroke-width="1"></line><text x="77.7" y="515.4" fill="#5b5b5b" text-anchor="start" font-size="13.5">1968</text></g><g id="tick__2022"><line x1="615.4" y1="496.40000000000003" x2="615.4" y2="501.90000000000003" stroke="#999" stroke-width="1"></line><text x="615.4" y="515.4" fill="#5b5b5b" text-anchor="end" font-size="13.5">2022</text></g><g id="tick__1980"><line x1="197.2" y1="496.40000000000003" x2="197.2" y2="501.90000000000003" stroke="#999" stroke-width="1"></line><text x="197.2" y="515.4" fill="#5b5b5b" text-anchor="middle" font-size="13.5">1980</text></g><g id="tick__1990"><line x1="296.8" y1="496.40000000000003" x2="296.8" y2="501.90000000000003" stroke="#999" stroke-width="1"></line><text x="296.8" y="515.4" fill="#5b5b5b" text-anchor="middle" font-size="13.5">1990</text></g><g id="tick__2000"><line x1="396.3" y1="496.40000000000003" x2="396.3" y2="501.90000000000003" stroke="#999" stroke-width="1"></line><text x="396.3" y="515.4" fill="#5b5b5b" text-anchor="middle" font-size="13.5">2000</text></g><g id="tick__2010"><line x1="495.9" y1="496.40000000000003" x2="495.9" y2="501.90000000000003" stroke="#999" stroke-width="1"></line><text x="495.9" y="515.4" fill="#5b5b5b" text-anchor="middle" font-size="13.5">2010</text></g></g><g id="vertical-axis" class="VerticalAxis"><g id="tick-labels"><text id="tick-label__0-t" x="72.70" y="496.9" dy=".32em" text-anchor="end" fill="#5b5b5b" font-size="13.5">0 t</text><text id="tick-label__20__002c000-t" x="72.70" y="444.2" dy=".32em" text-anchor="end" fill="#5b5b5b" font-size="13.5">20,000 t</text><text id="tick-label__40__002c000-t" x="72.70" y="391.5" dy=".32em" text-anchor="end" fill="#5b5b5b" font-size="13.5">40,000 t</text><text id="tick-label__60__002c000-t" x="72.70" y="338.8" dy=".32em" text-anchor="end" fill="#5b5b5b" font-size="13.5">60,000 t</text><text id="tick-label__80__002c000-t" x="72.70" y="286" dy=".32em" text-anchor="end" fill="#5b5b5b" font-size="13.5">80,000 t</text><text id="tick-label__100__002c000-t" x="72.70" y="233.3" dy=".32em" text-anchor="end" fill="#5b5b5b" font-size="13.5">100,000 t</text><text id="tick-label__120__002c000-t" x="72.70" y="180.6" dy=".32em" text-anchor="end" fill="#5b5b5b" font-size="13.5">120,000 t</text><text id="tick-label__140__002c000-t" x="72.70" y="127.9" dy=".32em" text-anchor="end" fill="#5b5b5b" font-size="13.5">140,000 t</text></g></g><g id="horizontal-grid-lines" class="AxisGridLines horizontalLines"><line id="grid-line__0" x1="77.70" y1="496.9" x2="615.40" y2="496.9" stroke="#999" stroke-width="1"></line><line id="grid-line__20000" x1="77.70" y1="444.2" x2="615.40" y2="444.2" stroke="#ddd" stroke-width="1" stroke-dasharray="3,2"></line><line id="grid-line__40000" x1="77.70" y1="391.5" x2="615.40" y2="391.5" stroke="#ddd" stroke-width="1" stroke-dasharray="3,2"></line><line id="grid-line__60000" x1="77.70" y1="338.8" x2="615.40" y2="338.8" stroke="#ddd" stroke-width="1" stroke-dasharray="3,2"></line><line id="grid-line__80000" x1="77.70" y1="286" x2="615.40" y2="286" stroke="#ddd" stroke-width="1" stroke-dasharray="3,2"></line><line id="grid-line__100000" x1="77.70" y1="233.3" x2="615.40" y2="233.3" stroke="#ddd" stroke-width="1" stroke-dasharray="3,2"></line><line id="grid-line__120000" x1="77.70" y1="180.6" x2="615.40" y2="180.6" stroke="#ddd" stroke-width="1" stroke-dasharray="3,2"></line><line id="grid-line__140000" x1="77.70" y1="127.9" x2="615.40" y2="127.9" stroke="#ddd" stroke-width="1" stroke-dasharray="3,2"></line></g></g><g clip-path="url(#boundsClip-114)"><g id="line-labels" class="LineLabels"><g id="mark__World" class="legendMark" style="cursor:default"><g id="connector" class="indicator"><path d="M619.4,106.8 H632.9 V107.55 H646.4" stroke="#999" stroke-width="0.5" fill="none"></path></g><rect id="background" x="615.4" y="100.8" width="70.235" height="13.5" fill="#fff" opacity="0"></rect><text id="label" font-size="13.50" font-weight="400" x="650.4" y="112.5" fill="#c15065"><tspan x="650.4" y="112.545">World</tspan></text></g><g id="mark__China" class="legendMark" style="cursor:default"><g id="connector" class="indicator"><path d="M619.4,167.4 H620.525 V154.14999999999995 H646.4" stroke="#999" stroke-width="0.5" fill="none"></path></g><rect id="background" x="615.4" y="147.39999999999995" width="70.37" height="13.5" fill="#fff" opacity="0"></rect><text id="label" font-size="13.50" font-weight="400" x="650.4" y="159.1" fill="#cf0a66"><tspan x="650.4" y="159.14499999999995">China</tspan></text></g><g id="mark__Finland" class="legendMark" style="cursor:default"><g id="connector" class="indicator"><path d="M619.4,463.2 H621.65 V169.64999999999995 H646.4" stroke="#999" stroke-width="0.5" fill="none"></path></g><rect id="background" x="615.4" y="162.89999999999995" width="79.415" height="13.5" fill="#fff" opacity="0"></rect><text id="label" font-size="13.50" font-weight="400" x="650.4" y="174.6" fill="#6d3e91"><tspan x="650.4" y="174.64499999999995">Finland</tspan></text></g><g id="mark__USSR" class="legendMark" style="cursor:default"><g id="connector" class="indicator"><path d="M619.4,479.9 H622.775 V185.14999999999995 H646.4" stroke="#999" stroke-width="0.5" fill="none"></path></g><rect id="background" x="615.4" y="178.39999999999995" width="72.53" height="13.5" fill="#fff" opacity="0"></rect><text id="label" font-size="13.50" font-weight="400" x="650.4" y="190.1" fill="#d73c50"><tspan x="650.4" y="190.14499999999995">USSR</tspan></text></g><g id="mark__Canada" class="legendMark" style="cursor:default"><g id="connector" class="indicator"><path d="M619.4,482.4 H623.9 V200.64999999999995 H646.4" stroke="#999" stroke-width="0.5" fill="none"></path></g><rect id="background" x="615.4" y="193.89999999999995" width="82.52000000000001" height="13.5" fill="#fff" opacity="0"></rect><text id="label" font-size="13.50" font-weight="400" x="650.4" y="205.6" fill="#286bbb"><tspan x="650.4" y="205.64499999999995">Canada</tspan></text></g><g id="mark__Japan" class="legendMark" style="cursor:default"><g id="connector" class="indicator"><path d="M619.4,487.1 H625.025 V216.14999999999995 H646.4" stroke="#999" stroke-width="0.5" fill="none"></path></g><rect id="background" x="615.4" y="209.39999999999995" width="71.99000000000001" height="13.5" fill="#fff" opacity="0"></rect><text id="label" font-size="13.50" font-weight="400" x="650.4" y="221.1" fill="#970046"><tspan x="650.4" y="221.14499999999995">Japan</tspan></text></g><g id="mark__Madagascar" class="legendMark" style="cursor:default"><g id="connector" class="indicator"><path d="M619.4,487.9 H626.15 V231.64999999999995 H646.4" stroke="#999" stroke-width="0.5" fill="none"></path></g><rect id="background" x="615.4" y="224.89999999999995" width="109.52000000000001" height="13.5" fill="#fff" opacity="0"></rect><text id="label" font-size="13.50" font-weight="400" x="650.4" y="236.6" fill="#d73c50"><tspan x="650.4" y="236.64499999999995">Madagascar</tspan></text></g><g id="mark__Norway" class="legendMark" style="cursor:default"><g id="connector" class="indicator"><path d="M619.4,488.7 H627.275 V247.14999999999995 H646.4" stroke="#999" stroke-width="0.5" fill="none"></path></g><rect id="background" x="615.4" y="240.39999999999995" width="80.765" height="13.5" fill="#fff" opacity="0"></rect><text id="label" font-size="13.50" font-weight="400" x="650.4" y="252.1" fill="#338711"><tspan x="650.4" y="252.14499999999995">Norway</tspan></text></g><g id="mark__Australia" class="legendMark" style="cursor:default"><g id="connector" class="indicator"><path d="M619.4,489 H628.4 V262.65 H646.4" stroke="#999" stroke-width="0.5" fill="none"></path></g><rect id="background" x="615.4" y="255.89999999999995" width="87.65" height="13.5" fill="#fff" opacity="0"></rect><text id="label" font-size="13.50" font-weight="400" x="650.4" y="267.6" fill="#2c8465"><tspan x="650.4" y="267.6449999999999">Australia</tspan></text></g><g id="mark__Russia" class="legendMark" style="cursor:default"><g id="connector" class="indicator"><path d="M619.4,492.2 H629.525 V278.15 H646.4" stroke="#999" stroke-width="0.5" fill="none"></path></g><rect id="background" x="615.4" y="271.4" width="76.31" height="13.5" fill="#fff" opacity="0"></rect><text id="label" font-size="13.50" font-weight="400" x="650.4" y="283.1" fill="#a2559c"><tspan x="650.4" y="283.145">Russia</tspan></text></g><g id="mark__Morocco" class="legendMark" style="cursor:default"><g id="connector" class="indicator"><path d="M619.4,492.4 H630.65 V293.65 H646.4" stroke="#999" stroke-width="0.5" fill="none"></path></g><rect id="background" x="615.4" y="286.9" width="86.84" height="13.5" fill="#fff" opacity="0"></rect><text id="label" font-size="13.50" font-weight="400" x="650.4" y="298.6" fill="#286bbb"><tspan x="650.4" y="298.645">Morocco</tspan></text></g><g id="mark__West-Germany" class="legendMark" style="cursor:default"><g id="connector" class="indicator"><path d="M619.4,493.5 H631.775 V309.15 H646.4" stroke="#999" stroke-width="0.5" fill="none"></path></g><rect id="background" x="615.4" y="302.4" width="125.18" height="13.5" fill="#fff" opacity="0"></rect><text id="label" font-size="13.50" font-weight="400" x="650.4" y="314.1" fill="#b13507"><tspan x="650.4" y="314.145">West Germany</tspan></text></g><g id="mark__Belgium" class="legendMark" style="cursor:default"><g id="connector" class="indicator"><path d="M619.4,494.3 H632.9 V324.65 H646.4" stroke="#999" stroke-width="0.5" fill="none"></path></g><rect id="background" x="615.4" y="317.9" width="83.87" height="13.5" fill="#fff" opacity="0"></rect><text id="label" font-size="13.50" font-weight="400" x="650.4" y="329.6" fill="#00875e"><tspan x="650.4" y="329.645">Belgium</tspan></text></g><g id="mark__Germany" class="legendMark" style="cursor:default"><g id="connector" class="indicator"><path d="M619.4,494.3 H634.025 V340.15 H646.4" stroke="#999" stroke-width="0.5" fill="none"></path></g><rect id="background" x="615.4" y="333.4" width="90.62" height="13.5" fill="#fff" opacity="0"></rect><text id="label" font-size="13.50" font-weight="400" x="650.4" y="345.1" fill="#286bbb"><tspan x="650.4" y="345.145">Germany</tspan></text></g><g id="mark__Uganda" class="legendMark" style="cursor:default"><g id="connector" class="indicator"><path d="M619.4,496.1 H635.15 V355.65 H646.4" stroke="#999" stroke-width="0.5" fill="none"></path></g><rect id="background" x="615.4" y="348.9" width="82.52000000000001" height="13.5" fill="#fff" opacity="0"></rect><text id="label" font-size="13.50" font-weight="400" x="650.4" y="360.6" fill="#8c4569"><tspan x="650.4" y="360.645">Uganda</tspan></text></g><g id="mark__South-Africa" class="legendMark" style="cursor:default"><g id="connector" class="indicator"><path d="M619.4,496.4 H636.275 V371.15 H646.4" stroke="#999" stroke-width="0.5" fill="none"></path></g><rect id="background" x="615.4" y="364.4" width="108.845" height="13.5" fill="#fff" opacity="0"></rect><text id="label" font-size="13.50" font-weight="400" x="650.4" y="376.1" fill="#883039"><tspan x="650.4" y="376.145">South Africa</tspan></text></g><g id="mark__India" class="legendMark" style="cursor:default"><g id="connector" class="indicator"><path d="M619.4,496.6 H637.4 V386.65 H646.4" stroke="#999" stroke-width="0.5" fill="none"></path></g><rect id="background" x="615.4" y="379.9" width="64.43" height="13.5" fill="#fff" opacity="0"></rect><text id="label" font-size="13.50" font-weight="400" x="650.4" y="391.6" fill="#a2559c"><tspan x="650.4" y="391.645">India</tspan></text></g><g id="mark__Czechoslovakia" class="legendMark" style="cursor:default"><g id="connector" class="indicator"><path d="M619.4,496.7 H638.525 V402.15 H646.4" stroke="#999" stroke-width="0.5" fill="none"></path></g><rect id="background" x="615.4" y="395.4" width="129.77" height="13.5" fill="#fff" opacity="0"></rect><text id="label" font-size="13.50" font-weight="400" x="650.4" y="407.1" fill="#8c4569"><tspan x="650.4" y="407.145">Czechoslovakia</tspan></text></g><g id="mark__Albania" class="legendMark" style="cursor:default"><g id="connector" class="indicator"><path d="M619.4,496.8 H639.65 V417.65 H646.4" stroke="#999" stroke-width="0.5" fill="none"></path></g><rect id="background" x="615.4" y="410.9" width="80.225" height="13.5" fill="#fff" opacity="0"></rect><text id="label" font-size="13.50" font-weight="400" x="650.4" y="422.6" fill="#883039"><tspan x="650.4" y="422.645">Albania</tspan></text></g><g id="mark__Democratic-Republic-of-Congo" class="legendMark" style="cursor:default"><g id="connector" class="indicator"><path d="M619.4,496.9 H640.775 V433.15 H646.4" stroke="#999" stroke-width="0.5" fill="none"></path></g><rect id="background" x="615.4" y="426.4" width="218.60000000000002" height="13.5" fill="#fff" opacity="0"></rect><text id="label" font-size="13.50" font-weight="400" x="650.4" y="438.1" fill="#338711"><tspan x="650.4" y="438.145">Democratic Republic of Congo</tspan></text></g><g id="mark__France" class="legendMark" style="cursor:default"><g id="connector" class="indicator"><path d="M619.4,496.9 H641.9 V448.65 H646.4" stroke="#999" stroke-width="0.5" fill="none"></path></g><rect id="background" x="615.4" y="441.9" width="77.12" height="13.5" fill="#fff" opacity="0"></rect><text id="label" font-size="13.50" font-weight="400" x="650.4" y="453.6" fill="#cf0a66"><tspan x="650.4" y="453.645">France</tspan></text></g><g id="mark__United-States" class="legendMark" style="cursor:default"><g id="connector" class="indicator"><path d="M619.4,496.9 H643.025 V464.15 H646.4" stroke="#999" stroke-width="0.5" fill="none"></path></g><rect id="background" x="615.4" y="457.4" width="116.405" height="13.5" fill="#fff" opacity="0"></rect><text id="label" font-size="13.50" font-weight="400" x="650.4" y="469.1" fill="#6d3e91"><tspan x="650.4" y="469.145">United States</tspan></text></g><g id="mark__Zambia" class="legendMark" style="cursor:default"><g id="connector" class="indicator"><path d="M619.4,496.9 H644.15 V479.65 H646.4" stroke="#999" stroke-width="0.5" fill="none"></path></g><rect id="background" x="615.4" y="472.9" width="80.09" height="13.5" fill="#fff" opacity="0"></rect><text id="label" font-size="13.50" font-weight="400" x="650.4" y="484.6" fill="#00847e"><tspan x="650.4" y="484.645">Zambia</tspan></text></g><g id="mark__Brazil" class="legendMark" style="cursor:default"><g id="connector" class="indicator"><path d="M619.4,496.9 H645.275 V495.15 H646.4" stroke="#999" stroke-width="0.5" fill="none"></path></g><rect id="background" x="615.4" y="488.4" width="68.75" height="13.5" fill="#fff" opacity="0"></rect><text id="label" font-size="13.50" font-weight="400" x="650.4" y="500.1" fill="#970046"><tspan x="650.4" y="500.145">Brazil</tspan></text></g><g id="mark__New-Caledonia" class="legendMark" style="cursor:default"><g id="connector" class="indicator"><path d="M619.4,496.9 H645.275 V510.65 H646.4" stroke="#999" stroke-width="0.5" fill="none"></path></g><rect id="background" x="615.4" y="503.9" width="126.80000000000001" height="13.5" fill="#fff" opacity="0"></rect><text id="label" font-size="13.50" font-weight="400" x="650.4" y="515.6" fill="#c15065"><tspan x="650.4" y="515.645">New Caledonia</tspan></text></g></g><g id="lines" class="Lines"><rect x="78" y="107" width="538" height="390" fill="rgba(255,255,255,0)" opacity="0"></rect><g id="line__New-Caledonia"><path stroke-linecap="round" stroke-linejoin="round" stroke="#ddd" d="M515.8 496.5L525.8 495.6L535.7 495.8L545.7 492.8L555.7 490.2L565.6 490.8L575.6 492.5L585.5 493.6L595.5 495.1L605.4 496.9L615.4 496.9" fill="none" stroke-width="1"></path></g><g id="line__Madagascar"><path stroke-linecap="round" stroke-linejoin="round" stroke="#ddd" d="M495.9 496.9L505.9 496.9L515.8 495.6L525.8 491.4L535.7 489.2L545.7 487.8L555.7 488.3L565.6 488.9L575.6 489.4L585.5 489.3L595.5 494.4L605.4 491.3L615.4 487.9" fill="none" stroke-width="1"></path></g><g id="line__India"><path stroke-linecap="round" stroke-linejoin="round" stroke="#ddd" d="M386.4 496.4L396.3 496.4L406.3 496.2L416.3 496.2L426.2 496.2L436.2 495.5L446.1 493.7L456.1 493.8L466 494.3L476 494.6L486 494.3L495.9 493.8L505.9 493.5L515.8 494.8L525.8 496.1L535.7 496.6L545.7 496.5L555.7 496.6L565.6 496.6" fill="none" stroke-width="1"></path></g><g id="line__Australia"><path stroke-linecap="round" stroke-linejoin="round" stroke="#ddd" d="M366.5 495.3L376.4 493.2L386.4 492.4L396.3 489.9L406.3 487.7L416.3 487.1L426.2 486.8L436.2 486.7L446.1 488.6L456.1 487.2L466 487.2L476 487.4L486 486.2L495.9 486L505.9 484.5L515.8 484.3L525.8 483.8L535.7 482.6L545.7 483.3L555.7 488.5L565.6 488.9L575.6 488.3L585.5 487.1L595.5 488.2L605.4 489.5L615.4 489" fill="none" stroke-width="1"></path></g><g id="line__Uganda"><path stroke-linecap="round" stroke-linejoin="round" stroke="#ddd" d="M346.6 496.9L356.5 496.9L366.5 496.9L376.4 496.9L386.4 496.7L396.3 495.8L406.3 495.6L416.3 495.7L426.2 496.9L436.2 495.7L446.1 495.2L456.1 495.1L466 495.1L476 495.2L486 495.1L495.9 495.4L505.9 495.1L515.8 495.4L525.8 496.1" fill="none" stroke-width="1"></path></g><g id="line__Russia"><path stroke-linecap="round" stroke-linejoin="round" stroke="#ddd" d="M326.6 489L336.6 485.5L346.6 486.3L356.5 485.8L366.5 486.4L376.4 487.1L386.4 486.4L396.3 486.1L406.3 484.8L416.3 485.8L426.2 484.6L436.2 485L446.1 484.4L456.1 484.4L466 487.4L476 490.3L486 490.7L495.9 490.4L505.9 490.7L515.8 491.1L525.8 490.7L535.7 490.8L545.7 491.5L555.7 488.8L565.6 491.4L575.6 492.2L585.5 491.9L595.5 492.2L605.4 492.2L615.4 492.2" fill="none" stroke-width="1"></path></g><g id="line__Morocco"><path stroke-linecap="round" stroke-linejoin="round" stroke="#ddd" d="M326.6 496.9L336.6 496.9L346.6 496.9L356.5 496.7L366.5 496.3L376.4 496.3L386.4 495.7L396.3 493.7L406.3 493.4L416.3 493.3L426.2 493.4L436.2 492.7L446.1 492.6L456.1 493.2L466 492.8L476 492.2L486 492.7L495.9 492.7L505.9 492.9L515.8 493.4L525.8 493.3L535.7 493.2L545.7 491.7L555.7 491.4L565.6 491.8L575.6 492.1L585.5 490.6L595.5 490.5L605.4 492.2L615.4 492.4" fill="none" stroke-width="1"></path></g><g id="line__Germany"><path stroke-linecap="round" stroke-linejoin="round" stroke="#ddd" d="M306.7 494.3" fill="none" stroke-width="1"></path></g><g id="line__Brazil"><path stroke-linecap="round" stroke-linejoin="round" stroke="#ddd" d="M296.8 496.7L306.7 496.8L326.6 496.5L336.6 496.5L346.6 496.5L356.5 496.4L366.5 496.2L376.4 495.9L386.4 495.2L396.3 494.8L406.3 494.6L416.3 494.4L426.2 494L436.2 493.9L446.1 493.9L456.1 494.5L466 493.9L476 494.3L486 494.2L495.9 493.3L505.9 492.6L515.8 492.3L525.8 492L535.7 493.3L545.7 493.5L555.7 495.8L565.6 496.4L575.6 496.9L585.5 496.9L595.5 496.9L605.4 496.9L615.4 496.9" fill="none" stroke-width="1"></path></g><g id="line__Albania"><path stroke-linecap="round" stroke-linejoin="round" stroke="#ddd" d="M266.9 496.9L276.8 496.9L286.8 496.9L296.8 496.8" fill="none" stroke-width="1"></path></g><g id="line__South-Africa"><path stroke-linecap="round" stroke-linejoin="round" stroke="#ddd" d="M227.1 496.1L237 495.6L247 495.6L256.9 496.4L266.9 496.2L276.8 496.4L286.8 496.4L296.8 496.2L306.7 496.3L326.6 496.4L336.6 496.2L346.6 496.4L356.5 496.3L366.5 496.1L376.4 496.1L386.4 496.1L396.3 495.9L406.3 495.9L416.3 495.9L426.2 496.2L436.2 496L446.1 496.2L456.1 496.2L466 496.1L476 496.3L486 496.3L495.9 494.7L505.9 494.6L515.8 494L525.8 493.5L535.7 493.4L545.7 493.3L555.7 494L565.6 494.1L575.6 494.2L585.5 494.2L595.5 494.5L605.4 495.5L615.4 496.4" fill="none" stroke-width="1"></path></g><g id="line__China"><path stroke-linecap="round" stroke-linejoin="round" stroke="#ddd" d="M227.1 496.2L237 496.2L247 496.2L256.9 496.2L266.9 496.2L276.8 496.2L286.8 496.2L296.8 496L306.7 496L326.6 494.4L336.6 494.8L346.6 494.5L356.5 493.7L366.5 493.7L376.4 493.7L386.4 493.7L396.3 493.7L406.3 493L416.3 492L426.2 484.8L436.2 475.8L446.1 463.4L456.1 463.4L466 462L476 448.8L486 429.6L495.9 402.2L505.9 404.7L515.8 418.4L525.8 401.8L535.7 393.3L545.7 368.5L555.7 378.2L565.6 313.4L575.6 290.4L585.5 270.2L595.5 270.2L605.4 199.1L615.4 167.4" fill="none" stroke-width="1"></path></g><g id="line__Czechoslovakia"><path stroke-linecap="round" stroke-linejoin="round" stroke="#ddd" d="M187.2 496.9L276.8 496.8L286.8 496.8L296.8 496.7L306.7 496.7" fill="none" stroke-width="1"></path></g><g id="line__Belgium"><path stroke-linecap="round" stroke-linejoin="round" stroke="#ddd" d="M187.2 496.9L326.6 493.7L336.6 493.7L346.6 493.7L356.5 493.7L366.5 493.7L376.4 493.7L386.4 494.4L396.3 494L406.3 494L416.3 493.9L426.2 492.4L436.2 489.1L446.1 488.2L456.1 489.4L466 489.5L476 488.9L486 491.2L495.9 490L505.9 488.5L515.8 485.8L525.8 482.6L535.7 481.5L545.7 480.3L555.7 480.2L565.6 492.7L575.6 492.6L585.5 492.9L595.5 493.5L605.4 493.5L615.4 494.3" fill="none" stroke-width="1"></path></g><g id="line__Canada"><path stroke-linecap="round" stroke-linejoin="round" stroke="#ddd" d="M127.5 495.3L137.4 496L147.4 496.2L157.4 496.1L167.3 495.7L177.3 495.5L187.2 495.3L197.2 495.1L207.1 494.5L217.1 494.8L227.1 493.9L237 491.9L247 491.5L256.9 490.9L266.9 490.2L276.8 490.7L286.8 491.3L296.8 491.5L306.7 491L326.6 489.8L336.6 489.1L346.6 488.3L356.5 487.4L366.5 486.9L376.4 485.3L386.4 485.8L396.3 485.4L406.3 485.4L416.3 484.7L426.2 485.7L436.2 483.3L446.1 483.5L456.1 483.2L466 482.1L476 482L486 483.9L495.9 484.5L505.9 481L515.8 481.1L525.8 482.1L535.7 482.4L545.7 480.8L555.7 480.3L565.6 483.3L575.6 480.2L585.5 480.9L595.5 481.2L605.4 481.1L615.4 482.4" fill="none" stroke-width="1"></path></g><g id="line__Zambia"><path stroke-linecap="round" stroke-linejoin="round" stroke="#ddd" d="M117.5 491.5L127.5 491.8L137.4 491.7L147.4 492L157.4 491.2L167.3 492.4L177.3 491.5L187.2 488.5L197.2 488.2L207.1 490.1L217.1 490.5L227.1 490.6L237 487.7L247 485.3L256.9 485.5L266.9 485.1L276.8 483.7L286.8 485.1L296.8 484.7L306.7 484.2L326.6 485.8L336.6 490L346.6 489.2L356.5 484.3L366.5 486.5L376.4 483.7L386.4 486.5L396.3 488.1L406.3 484.6L416.3 480.7L426.2 479.5L436.2 481.6L446.1 482.6L456.1 484.6L466 485.2L476 486.2L486 492.9L495.9 483.4L505.9 481.2L515.8 482L525.8 482L535.7 484.9L545.7 489L555.7 484.4L565.6 489.9L575.6 492.2L585.5 493.5L595.5 496.9L605.4 496.9L615.4 496.9" fill="none" stroke-width="1"></path></g><g id="line__West-Germany"><path stroke-linecap="round" stroke-linejoin="round" stroke="#ddd" d="M117.5 495.8L127.5 496.1L137.4 496L147.4 496.1L157.4 495.9L167.3 495.8L177.3 496L187.2 495.9L197.2 496.1L207.1 496.5L217.1 496.5L256.9 495.6L266.9 495.6L276.8 495.2L286.8 495L296.8 493.5" fill="none" stroke-width="1"></path></g><g id="line__United-States"><path stroke-linecap="round" stroke-linejoin="round" stroke="#ddd" d="M117.5 496.9L127.5 496.9L137.4 496.9L147.4 496.8L157.4 496.5L167.3 496.3L177.3 496.1L187.2 495.8L197.2 495.7L207.1 495.8L217.1 495.7L227.1 496.7L237 496.9L247 496.9L256.9 496.9" fill="none" stroke-width="1"></path></g><g id="line__USSR"><path stroke-linecap="round" stroke-linejoin="round" stroke="#ddd" d="M117.5 492.7L127.5 492.4L137.4 492.3L147.4 492.2L157.4 492.2L167.3 487.9L177.3 487.7L187.2 486.9L197.2 485.8L207.1 485.6L217.1 485.6L227.1 485L237 484.5L247 484.2L256.9 482.9L266.9 481.1L276.8 481.1L286.8 479.8L296.8 479.4L306.7 479.9" fill="none" stroke-width="1"></path></g><g id="line__Norway"><path stroke-linecap="round" stroke-linejoin="round" stroke="#ddd" d="M117.5 496.1L127.5 494.5L137.4 493.6L147.4 494.9L157.4 495.4L167.3 495L177.3 495.5L187.2 494.4L197.2 493.5L207.1 493.1L217.1 494.3L227.1 494.6L237 493.8L247 492.9L256.9 492.9L266.9 492.7L276.8 492L286.8 491.8L296.8 492.1L306.7 491.7L326.6 490.5L336.6 489.5L346.6 489.5L356.5 488.7L366.5 487.9L376.4 486.8L386.4 486.4L396.3 487.9L406.3 488.2L416.3 486.4L426.2 484.9L436.2 484.6L446.1 483.7L456.1 483.9L466 486.5L476 487.1L486 487.6L495.9 488.4L505.9 488.8L515.8 489.1L525.8 488.1L535.7 487.5L545.7 488.7L555.7 487.6L565.6 487.7L575.6 485.9L585.5 485.4L595.5 485.3L605.4 486.4L615.4 488.7" fill="none" stroke-width="1"></path></g><g id="line__Japan"><path stroke-linecap="round" stroke-linejoin="round" stroke="#ddd" d="M117.5 496.9L127.5 496.9L137.4 496.9L147.4 496.8L157.4 495.5L167.3 494L177.3 492L187.2 489.9L197.2 489.3L207.1 490.5L217.1 491.8L227.1 493.3L237 494.5L247 493.4L256.9 493.4L266.9 496.6L276.8 496.6L286.8 496.6L296.8 496.4L306.7 496.4L326.6 496.4L336.6 496.5L346.6 496.3L356.5 496.3L366.5 496.2L376.4 496L386.4 496.3L396.3 496.1L406.3 496L416.3 496L426.2 495.9L436.2 495.8L446.1 495.7L456.1 494.5L466 494L476 494.1L486 493.4L495.9 491.8L505.9 491.6L515.8 490.2L525.8 489.7L535.7 487.3L545.7 485.7L555.7 485.6L565.6 485.9L575.6 487.2L585.5 487.2L595.5 487.8L605.4 486.7L615.4 487.1" fill="none" stroke-width="1"></path></g><g id="line__France"><path stroke-linecap="round" stroke-linejoin="round" stroke="#ddd" d="M117.5 494.9L127.5 494.7L137.4 494.6L147.4 494.9L157.4 494.7L167.3 494.9L177.3 494.6L187.2 495.2L197.2 494.2L207.1 494.8L217.1 495.6L227.1 496.6L237 496.6L247 496.6L256.9 496.6L456.1 496.2L466 496.1L476 496.1L486 495.9L495.9 496.1L505.9 496L515.8 496L525.8 496.1L535.7 496.3L545.7 496.5L555.7 496.6L565.6 496.2L575.6 496.8L585.5 496.9L595.5 496.9L605.4 496.9L615.4 496.9" fill="none" stroke-width="1"></path></g><g id="line__Finland"><path stroke-linecap="round" stroke-linejoin="round" stroke="#ddd" d="M117.5 494.8L127.5 494.2L137.4 494.8L147.4 494.7L157.4 494.2L167.3 494L177.3 494.1L187.2 493.9L197.2 491.9L207.1 491.8L217.1 491.2L227.1 493.1L237 490.6L247 491L256.9 494.4L266.9 495.5L276.8 495.8L286.8 495.8L296.8 495.6L306.7 495.5L326.6 491.1L336.6 489L346.6 487.4L356.5 485.9L366.5 483.7L376.4 483.1L386.4 480.6L396.3 476.6L406.3 475.5L416.3 475.2L426.2 475.8L436.2 476.1L446.1 475.4L456.1 474.3L466 472.7L476 471.5L486 473.3L495.9 472L505.9 468.9L515.8 469.1L525.8 468.4L535.7 463.8L545.7 471.6L555.7 464.2L565.6 461.1L575.6 459.2L585.5 459.3L595.5 457L605.4 459.2L615.4 463.2" fill="none" stroke-width="1"></path></g><g id="line__Democratic-Republic-of-Congo"><path stroke-linecap="round" stroke-linejoin="round" stroke="#ddd" d="M117.5 462.5L127.5 457.2L137.4 450.7L147.4 461L157.4 468.7L167.3 470L177.3 462.2L187.2 459.9L197.2 458.7L207.1 467.6L217.1 482.2L227.1 482.7L237 473L247 469L256.9 458.6L266.9 465.6L276.8 470.5L286.8 472.4L296.8 470.5L306.7 473.7L326.6 494.7L336.6 490.8L346.6 487.9L356.5 490.7L366.5 489.5L376.4 485.1L386.4 483.2L396.3 485.5L406.3 488.5L416.3 491.2L426.2 493.7L436.2 495L446.1 495.3L456.1 495.5L466 495.3L476 494.1L486 489.1L495.9 485.9L505.9 488.8L515.8 489L525.8 489.6L535.7 489.4L545.7 488.5L555.7 496.7L565.6 496.6L575.6 496.7L585.5 496.9L595.5 496.9L605.4 496.9L615.4 496.9" fill="none" stroke-width="1"></path></g><g id="line__World"><path stroke-linecap="round" stroke-linejoin="round" stroke="#ddd" d="M77.7 451.8L87.7 449.5L97.6 440.8L107.6 437.9L117.5 443.4L127.5 436L137.4 431.5L147.4 442.1L157.4 447.3L167.3 442.1L177.3 431.8L187.2 421.8L197.2 417.3L207.1 428.9L217.1 446L227.1 449.2L237 434.4L247 424.4L256.9 414.1L266.9 423.1L276.8 427.3L286.8 427.3L296.8 424.9L306.7 430.5L316.7 440.2L326.6 453.1L336.6 444.2L346.6 435.5L356.5 429.4L366.5 425.5L376.4 414.1L386.4 409.7L396.3 402L406.3 394.9L416.3 389.4L426.2 383L436.2 369.1L446.1 354.3L456.1 355.1L466 355.9L476 345.1L486 333.2L495.9 287.4L505.9 279.7L515.8 291.6L525.8 268.4L535.7 252.8L545.7 233.8L555.7 242L565.6 183.2L575.6 164.8L585.5 130.5L595.5 109.4L605.4 106.8" fill="none" stroke-width="1"></path></g><g id="line__New-Caledonia"><path id="outline" fill="none" stroke-linecap="butt" stroke-linejoin="round" stroke="#fff" stroke-width="2.5" d="M515.8 496.5L525.8 495.6L535.7 495.8L545.7 492.8L555.7 490.2L565.6 490.8L575.6 492.5L585.5 493.6L595.5 495.1L605.4 496.9L615.4 496.9"></path><g id="polyline"><polyline id="polyline" points="515.80,496.50 525.80,495.60 535.70,495.80 545.70,492.80 555.70,490.20 565.60,490.80 575.60,492.50 585.50,493.60 595.50,495.10 605.40,496.90 615.40,496.90" stroke-linejoin="round" stroke-width="1.5" stroke="#C15065" fill="none" stroke-linecap="butt"></polyline></g></g><g id="line__Madagascar"><path id="outline" fill="none" stroke-linecap="butt" stroke-linejoin="round" stroke="#fff" stroke-width="2.5" d="M495.9 496.9L505.9 496.9L515.8 495.6L525.8 491.4L535.7 489.2L545.7 487.8L555.7 488.3L565.6 488.9L575.6 489.4L585.5 489.3L595.5 494.4L605.4 491.3L615.4 487.9"></path><g id="polyline"><polyline id="polyline" points="495.90,496.90 505.90,496.90 515.80,495.60 525.80,491.40 535.70,489.20 545.70,487.80 555.70,488.30 565.60,488.90 575.60,489.40 585.50,489.30 595.50,494.40 605.40,491.30 615.40,487.90" stroke-linejoin="round" stroke-width="1.5" stroke="#D73C50" fill="none" stroke-linecap="butt"></polyline></g></g><g id="line__India"><path id="outline" fill="none" stroke-linecap="butt" stroke-linejoin="round" stroke="#fff" stroke-width="2.5" d="M386.4 496.4L396.3 496.4L406.3 496.2L416.3 496.2L426.2 496.2L436.2 495.5L446.1 493.7L456.1 493.8L466 494.3L476 494.6L486 494.3L495.9 493.8L505.9 493.5L515.8 494.8L525.8 496.1L535.7 496.6L545.7 496.5L555.7 496.6L565.6 496.6"></path><g id="polyline"><polyline id="polyline" points="386.40,496.40 396.30,496.40 406.30,496.20 416.30,496.20 426.20,496.20 436.20,495.50 446.10,493.70 456.10,493.80 466.00,494.30 476.00,494.60 486.00,494.30 495.90,493.80 505.90,493.50 515.80,494.80 525.80,496.10 535.70,496.60 545.70,496.50 555.70,496.60 565.60,496.60" stroke-linejoin="round" stroke-width="1.5" stroke="#A2559C" fill="none" stroke-linecap="butt"></polyline></g></g><g id="line__Australia"><path id="outline" fill="none" stroke-linecap="butt" stroke-linejoin="round" stroke="#fff" stroke-width="2.5" d="M366.5 495.3L376.4 493.2L386.4 492.4L396.3 489.9L406.3 487.7L416.3 487.1L426.2 486.8L436.2 486.7L446.1 488.6L456.1 487.2L466 487.2L476 487.4L486 486.2L495.9 486L505.9 484.5L515.8 484.3L525.8 483.8L535.7 482.6L545.7 483.3L555.7 488.5L565.6 488.9L575.6 488.3L585.5 487.1L595.5 488.2L605.4 489.5L615.4 489"></path><g id="polyline"><polyline id="polyline" points="366.50,495.30 376.40,493.20 386.40,492.40 396.30,489.90 406.30,487.70 416.30,487.10 426.20,486.80 436.20,486.70 446.10,488.60 456.10,487.20 466.00,487.20 476.00,487.40 486.00,486.20 495.90,486.00 505.90,484.50 515.80,484.30 525.80,483.80 535.70,482.60 545.70,483.30 555.70,488.50 565.60,488.90 575.60,488.30 585.50,487.10 595.50,488.20 605.40,489.50 615.40,489.00" stroke-linejoin="round" stroke-width="1.5" stroke="#2C8465" fill="none" stroke-linecap="butt"></polyline></g></g><g id="line__Uganda"><path id="outline" fill="none" stroke-linecap="butt" stroke-linejoin="round" stroke="#fff" stroke-width="2.5" d="M346.6 496.9L356.5 496.9L366.5 496.9L376.4 496.9L386.4 496.7L396.3 495.8L406.3 495.6L416.3 495.7L426.2 496.9L436.2 495.7L446.1 495.2L456.1 495.1L466 495.1L476 495.2L486 495.1L495.9 495.4L505.9 495.1L515.8 495.4L525.8 496.1"></path><g id="polyline"><polyline id="polyline" points="346.60,496.90 356.50,496.90 366.50,496.90 376.40,496.90 386.40,496.70 396.30,495.80 406.30,495.60 416.30,495.70 426.20,496.90 436.20,495.70 446.10,495.20 456.10,495.10 466.00,495.10 476.00,495.20 486.00,495.10 495.90,495.40 505.90,495.10 515.80,495.40 525.80,496.10" stroke-linejoin="round" stroke-width="1.5" stroke="#8C4569" fill="none" stroke-linecap="butt"></polyline></g></g><g id="line__Russia"><path id="outline" fill="none" stroke-linecap="butt" stroke-linejoin="round" stroke="#fff" stroke-width="2.5" d="M326.6 489L336.6 485.5L346.6 486.3L356.5 485.8L366.5 486.4L376.4 487.1L386.4 486.4L396.3 486.1L406.3 484.8L416.3 485.8L426.2 484.6L436.2 485L446.1 484.4L456.1 484.4L466 487.4L476 490.3L486 490.7L495.9 490.4L505.9 490.7L515.8 491.1L525.8 490.7L535.7 490.8L545.7 491.5L555.7 488.8L565.6 491.4L575.6 492.2L585.5 491.9L595.5 492.2L605.4 492.2L615.4 492.2"></path><g id="polyline"><polyline id="polyline" points="326.60,489.00 336.60,485.50 346.60,486.30 356.50,485.80 366.50,486.40 376.40,487.10 386.40,486.40 396.30,486.10 406.30,484.80 416.30,485.80 426.20,484.60 436.20,485.00 446.10,484.40 456.10,484.40 466.00,487.40 476.00,490.30 486.00,490.70 495.90,490.40 505.90,490.70 515.80,491.10 525.80,490.70 535.70,490.80 545.70,491.50 555.70,488.80 565.60,491.40 575.60,492.20 585.50,491.90 595.50,492.20 605.40,492.20 615.40,492.20" stroke-linejoin="round" stroke-width="1.5" stroke="#A2559C" fill="none" stroke-linecap="butt"></polyline></g></g><g id="line__Morocco"><path id="outline" fill="none" stroke-linecap="butt" stroke-linejoin="round" stroke="#fff" stroke-width="2.5" d="M326.6 496.9L336.6 496.9L346.6 496.9L356.5 496.7L366.5 496.3L376.4 496.3L386.4 495.7L396.3 493.7L406.3 493.4L416.3 493.3L426.2 493.4L436.2 492.7L446.1 492.6L456.1 493.2L466 492.8L476 492.2L486 492.7L495.9 492.7L505.9 492.9L515.8 493.4L525.8 493.3L535.7 493.2L545.7 491.7L555.7 491.4L565.6 491.8L575.6 492.1L585.5 490.6L595.5 490.5L605.4 492.2L615.4 492.4"></path><g id="polyline"><polyline id="polyline" points="326.60,496.90 336.60,496.90 346.60,496.90 356.50,496.70 366.50,496.30 376.40,496.30 386.40,495.70 396.30,493.70 406.30,493.40 416.30,493.30 426.20,493.40 436.20,492.70 446.10,492.60 456.10,493.20 466.00,492.80 476.00,492.20 486.00,492.70 495.90,492.70 505.90,492.90 515.80,493.40 525.80,493.30 535.70,493.20 545.70,491.70 555.70,491.40 565.60,491.80 575.60,492.10 585.50,490.60 595.50,490.50 605.40,492.20 615.40,492.40" stroke-linejoin="round" stroke-width="1.5" stroke="#286BBB" fill="none" stroke-linecap="butt"></polyline></g></g><g id="line__Germany"><path id="outline" fill="none" stroke-linecap="butt" stroke-linejoin="round" stroke="#fff" stroke-width="2.5" d="M306.7 494.3"></path><g id="polyline"><polyline id="polyline" points="306.70,494.30" stroke-linejoin="round" stroke-width="1.5" stroke="#286BBB" fill="none" stroke-linecap="butt"></polyline></g><g id="markers"><circle cx="306.7" cy="494.3" r="1.8" fill="#286BBB"></circle></g></g><g id="line__Brazil"><path id="outline" fill="none" stroke-linecap="butt" stroke-linejoin="round" stroke="#fff" stroke-width="2.5" d="M296.8 496.7L306.7 496.8L326.6 496.5L336.6 496.5L346.6 496.5L356.5 496.4L366.5 496.2L376.4 495.9L386.4 495.2L396.3 494.8L406.3 494.6L416.3 494.4L426.2 494L436.2 493.9L446.1 493.9L456.1 494.5L466 493.9L476 494.3L486 494.2L495.9 493.3L505.9 492.6L515.8 492.3L525.8 492L535.7 493.3L545.7 493.5L555.7 495.8L565.6 496.4L575.6 496.9L585.5 496.9L595.5 496.9L605.4 496.9L615.4 496.9"></path><g id="polyline"><polyline id="polyline" points="296.80,496.70 306.70,496.80 326.60,496.50 336.60,496.50 346.60,496.50 356.50,496.40 366.50,496.20 376.40,495.90 386.40,495.20 396.30,494.80 406.30,494.60 416.30,494.40 426.20,494.00 436.20,493.90 446.10,493.90 456.10,494.50 466.00,493.90 476.00,494.30 486.00,494.20 495.90,493.30 505.90,492.60 515.80,492.30 525.80,492.00 535.70,493.30 545.70,493.50 555.70,495.80 565.60,496.40 575.60,496.90 585.50,496.90 595.50,496.90 605.40,496.90 615.40,496.90" stroke-linejoin="round" stroke-width="1.5" stroke="#970046" fill="none" stroke-linecap="butt"></polyline></g></g><g id="line__Albania"><path id="outline" fill="none" stroke-linecap="butt" stroke-linejoin="round" stroke="#fff" stroke-width="2.5" d="M266.9 496.9L276.8 496.9L286.8 496.9L296.8 496.8"></path><g id="polyline"><polyline id="polyline" points="266.90,496.90 276.80,496.90 286.80,496.90 296.80,496.80" stroke-linejoin="round" stroke-width="1.5" stroke="#883039" fill="none" stroke-linecap="butt"></polyline></g></g><g id="line__South-Africa"><path id="outline" fill="none" stroke-linecap="butt" stroke-linejoin="round" stroke="#fff" stroke-width="2.5" d="M227.1 496.1L237 495.6L247 495.6L256.9 496.4L266.9 496.2L276.8 496.4L286.8 496.4L296.8 496.2L306.7 496.3L326.6 496.4L336.6 496.2L346.6 496.4L356.5 496.3L366.5 496.1L376.4 496.1L386.4 496.1L396.3 495.9L406.3 495.9L416.3 495.9L426.2 496.2L436.2 496L446.1 496.2L456.1 496.2L466 496.1L476 496.3L486 496.3L495.9 494.7L505.9 494.6L515.8 494L525.8 493.5L535.7 493.4L545.7 493.3L555.7 494L565.6 494.1L575.6 494.2L585.5 494.2L595.5 494.5L605.4 495.5L615.4 496.4"></path><g id="polyline"><polyline id="polyline" points="227.10,496.10 237.00,495.60 247.00,495.60 256.90,496.40 266.90,496.20 276.80,496.40 286.80,496.40 296.80,496.20 306.70,496.30 326.60,496.40 336.60,496.20 346.60,496.40 356.50,496.30 366.50,496.10 376.40,496.10 386.40,496.10 396.30,495.90 406.30,495.90 416.30,495.90 426.20,496.20 436.20,496.00 446.10,496.20 456.10,496.20 466.00,496.10 476.00,496.30 486.00,496.30 495.90,494.70 505.90,494.60 515.80,494.00 525.80,493.50 535.70,493.40 545.70,493.30 555.70,494.00 565.60,494.10 575.60,494.20 585.50,494.20 595.50,494.50 605.40,495.50 615.40,496.40" stroke-linejoin="round" stroke-width="1.5" stroke="#883039" fill="none" stroke-linecap="butt"></polyline></g></g><g id="line__China"><path id="outline" fill="none" stroke-linecap="butt" stroke-linejoin="round" stroke="#fff" stroke-width="2.5" d="M227.1 496.2L237 496.2L247 496.2L256.9 496.2L266.9 496.2L276.8 496.2L286.8 496.2L296.8 496L306.7 496L326.6 494.4L336.6 494.8L346.6 494.5L356.5 493.7L366.5 493.7L376.4 493.7L386.4 493.7L396.3 493.7L406.3 493L416.3 492L426.2 484.8L436.2 475.8L446.1 463.4L456.1 463.4L466 462L476 448.8L486 429.6L495.9 402.2L505.9 404.7L515.8 418.4L525.8 401.8L535.7 393.3L545.7 368.5L555.7 378.2L565.6 313.4L575.6 290.4L585.5 270.2L595.5 270.2L605.4 199.1L615.4 167.4"></path><g id="polyline"><polyline id="polyline" points="227.10,496.20 237.00,496.20 247.00,496.20 256.90,496.20 266.90,496.20 276.80,496.20 286.80,496.20 296.80,496.00 306.70,496.00 326.60,494.40 336.60,494.80 346.60,494.50 356.50,493.70 366.50,493.70 376.40,493.70 386.40,493.70 396.30,493.70 406.30,493.00 416.30,492.00 426.20,484.80 436.20,475.80 446.10,463.40 456.10,463.40 466.00,462.00 476.00,448.80 486.00,429.60 495.90,402.20 505.90,404.70 515.80,418.40 525.80,401.80 535.70,393.30 545.70,368.50 555.70,378.20 565.60,313.40 575.60,290.40 585.50,270.20 595.50,270.20 605.40,199.10 615.40,167.40" stroke-linejoin="round" stroke-width="1.5" stroke="#CF0A66" fill="none" stroke-linecap="butt"></polyline></g></g><g id="line__Czechoslovakia"><path id="outline" fill="none" stroke-linecap="butt" stroke-linejoin="round" stroke="#fff" stroke-width="2.5" d="M187.2 496.9L276.8 496.8L286.8 496.8L296.8 496.7L306.7 496.7"></path><g id="polyline"><polyline id="polyline" points="187.20,496.90 276.80,496.80 286.80,496.80 296.80,496.70 306.70,496.70" stroke-linejoin="round" stroke-width="1.5" stroke="#8C4569" fill="none" stroke-linecap="butt"></polyline></g></g><g id="line__Belgium"><path id="outline" fill="none" stroke-linecap="butt" stroke-linejoin="round" stroke="#fff" stroke-width="2.5" d="M187.2 496.9L326.6 493.7L336.6 493.7L346.6 493.7L356.5 493.7L366.5 493.7L376.4 493.7L386.4 494.4L396.3 494L406.3 494L416.3 493.9L426.2 492.4L436.2 489.1L446.1 488.2L456.1 489.4L466 489.5L476 488.9L486 491.2L495.9 490L505.9 488.5L515.8 485.8L525.8 482.6L535.7 481.5L545.7 480.3L555.7 480.2L565.6 492.7L575.6 492.6L585.5 492.9L595.5 493.5L605.4 493.5L615.4 494.3"></path><g id="polyline"><polyline id="polyline" points="187.20,496.90 326.60,493.70 336.60,493.70 346.60,493.70 356.50,493.70 366.50,493.70 376.40,493.70 386.40,494.40 396.30,494.00 406.30,494.00 416.30,493.90 426.20,492.40 436.20,489.10 446.10,488.20 456.10,489.40 466.00,489.50 476.00,488.90 486.00,491.20 495.90,490.00 505.90,488.50 515.80,485.80 525.80,482.60 535.70,481.50 545.70,480.30 555.70,480.20 565.60,492.70 575.60,492.60 585.50,492.90 595.50,493.50 605.40,493.50 615.40,494.30" stroke-linejoin="round" stroke-width="1.5" stroke="#00875E" fill="none" stroke-linecap="butt"></polyline></g></g><g id="line__Canada"><path id="outline" fill="none" stroke-linecap="butt" stroke-linejoin="round" stroke="#fff" stroke-width="2.5" d="M127.5 495.3L137.4 496L147.4 496.2L157.4 496.1L167.3 495.7L177.3 495.5L187.2 495.3L197.2 495.1L207.1 494.5L217.1 494.8L227.1 493.9L237 491.9L247 491.5L256.9 490.9L266.9 490.2L276.8 490.7L286.8 491.3L296.8 491.5L306.7 491L326.6 489.8L336.6 489.1L346.6 488.3L356.5 487.4L366.5 486.9L376.4 485.3L386.4 485.8L396.3 485.4L406.3 485.4L416.3 484.7L426.2 485.7L436.2 483.3L446.1 483.5L456.1 483.2L466 482.1L476 482L486 483.9L495.9 484.5L505.9 481L515.8 481.1L525.8 482.1L535.7 482.4L545.7 480.8L555.7 480.3L565.6 483.3L575.6 480.2L585.5 480.9L595.5 481.2L605.4 481.1L615.4 482.4"></path><g id="polyline"><polyline id="polyline" points="127.50,495.30 137.40,496.00 147.40,496.20 157.40,496.10 167.30,495.70 177.30,495.50 187.20,495.30 197.20,495.10 207.10,494.50 217.10,494.80 227.10,493.90 237.00,491.90 247.00,491.50 256.90,490.90 266.90,490.20 276.80,490.70 286.80,491.30 296.80,491.50 306.70,491.00 326.60,489.80 336.60,489.10 346.60,488.30 356.50,487.40 366.50,486.90 376.40,485.30 386.40,485.80 396.30,485.40 406.30,485.40 416.30,484.70 426.20,485.70 436.20,483.30 446.10,483.50 456.10,483.20 466.00,482.10 476.00,482.00 486.00,483.90 495.90,484.50 505.90,481.00 515.80,481.10 525.80,482.10 535.70,482.40 545.70,480.80 555.70,480.30 565.60,483.30 575.60,480.20 585.50,480.90 595.50,481.20 605.40,481.10 615.40,482.40" stroke-linejoin="round" stroke-width="1.5" stroke="#286BBB" fill="none" stroke-linecap="butt"></polyline></g></g><g id="line__Zambia"><path id="outline" fill="none" stroke-linecap="butt" stroke-linejoin="round" stroke="#fff" stroke-width="2.5" d="M117.5 491.5L127.5 491.8L137.4 491.7L147.4 492L157.4 491.2L167.3 492.4L177.3 491.5L187.2 488.5L197.2 488.2L207.1 490.1L217.1 490.5L227.1 490.6L237 487.7L247 485.3L256.9 485.5L266.9 485.1L276.8 483.7L286.8 485.1L296.8 484.7L306.7 484.2L326.6 485.8L336.6 490L346.6 489.2L356.5 484.3L366.5 486.5L376.4 483.7L386.4 486.5L396.3 488.1L406.3 484.6L416.3 480.7L426.2 479.5L436.2 481.6L446.1 482.6L456.1 484.6L466 485.2L476 486.2L486 492.9L495.9 483.4L505.9 481.2L515.8 482L525.8 482L535.7 484.9L545.7 489L555.7 484.4L565.6 489.9L575.6 492.2L585.5 493.5L595.5 496.9L605.4 496.9L615.4 496.9"></path><g id="polyline"><polyline id="polyline" points="117.50,491.50 127.50,491.80 137.40,491.70 147.40,492.00 157.40,491.20 167.30,492.40 177.30,491.50 187.20,488.50 197.20,488.20 207.10,490.10 217.10,490.50 227.10,490.60 237.00,487.70 247.00,485.30 256.90,485.50 266.90,485.10 276.80,483.70 286.80,485.10 296.80,484.70 306.70,484.20 326.60,485.80 336.60,490.00 346.60,489.20 356.50,484.30 366.50,486.50 376.40,483.70 386.40,486.50 396.30,488.10 406.30,484.60 416.30,480.70 426.20,479.50 436.20,481.60 446.10,482.60 456.10,484.60 466.00,485.20 476.00,486.20 486.00,492.90 495.90,483.40 505.90,481.20 515.80,482.00 525.80,482.00 535.70,484.90 545.70,489.00 555.70,484.40 565.60,489.90 575.60,492.20 585.50,493.50 595.50,496.90 605.40,496.90 615.40,496.90" stroke-linejoin="round" stroke-width="1.5" stroke="#00847E" fill="none" stroke-linecap="butt"></polyline></g></g><g id="line__West-Germany"><path id="outline" fill="none" stroke-linecap="butt" stroke-linejoin="round" stroke="#fff" stroke-width="2.5" d="M117.5 495.8L127.5 496.1L137.4 496L147.4 496.1L157.4 495.9L167.3 495.8L177.3 496L187.2 495.9L197.2 496.1L207.1 496.5L217.1 496.5L256.9 495.6L266.9 495.6L276.8 495.2L286.8 495L296.8 493.5"></path><g id="polyline"><polyline id="polyline" points="117.50,495.80 127.50,496.10 137.40,496.00 147.40,496.10 157.40,495.90 167.30,495.80 177.30,496.00 187.20,495.90 197.20,496.10 207.10,496.50 217.10,496.50 256.90,495.60 266.90,495.60 276.80,495.20 286.80,495.00 296.80,493.50" stroke-linejoin="round" stroke-width="1.5" stroke="#B13507" fill="none" stroke-linecap="butt"></polyline></g></g><g id="line__United-States"><path id="outline" fill="none" stroke-linecap="butt" stroke-linejoin="round" stroke="#fff" stroke-width="2.5" d="M117.5 496.9L127.5 496.9L137.4 496.9L147.4 496.8L157.4 496.5L167.3 496.3L177.3 496.1L187.2 495.8L197.2 495.7L207.1 495.8L217.1 495.7L227.1 496.7L237 496.9L247 496.9L256.9 496.9"></path><g id="polyline"><polyline id="polyline" points="117.50,496.90 127.50,496.90 137.40,496.90 147.40,496.80 157.40,496.50 167.30,496.30 177.30,496.10 187.20,495.80 197.20,495.70 207.10,495.80 217.10,495.70 227.10,496.70 237.00,496.90 247.00,496.90 256.90,496.90" stroke-linejoin="round" stroke-width="1.5" stroke="#6D3E91" fill="none" stroke-linecap="butt"></polyline></g></g><g id="line__USSR"><path id="outline" fill="none" stroke-linecap="butt" stroke-linejoin="round" stroke="#fff" stroke-width="2.5" d="M117.5 492.7L127.5 492.4L137.4 492.3L147.4 492.2L157.4 492.2L167.3 487.9L177.3 487.7L187.2 486.9L197.2 485.8L207.1 485.6L217.1 485.6L227.1 485L237 484.5L247 484.2L256.9 482.9L266.9 481.1L276.8 481.1L286.8 479.8L296.8 479.4L306.7 479.9"></path><g id="polyline"><polyline id="polyline" points="117.50,492.70 127.50,492.40 137.40,492.30 147.40,492.20 157.40,492.20 167.30,487.90 177.30,487.70 187.20,486.90 197.20,485.80 207.10,485.60 217.10,485.60 227.10,485.00 237.00,484.50 247.00,484.20 256.90,482.90 266.90,481.10 276.80,481.10 286.80,479.80 296.80,479.40 306.70,479.90" stroke-linejoin="round" stroke-width="1.5" stroke="#D73C50" fill="none" stroke-linecap="butt"></polyline></g></g><g id="line__Norway"><path id="outline" fill="none" stroke-linecap="butt" stroke-linejoin="round" stroke="#fff" stroke-width="2.5" d="M117.5 496.1L127.5 494.5L137.4 493.6L147.4 494.9L157.4 495.4L167.3 495L177.3 495.5L187.2 494.4L197.2 493.5L207.1 493.1L217.1 494.3L227.1 494.6L237 493.8L247 492.9L256.9 492.9L266.9 492.7L276.8 492L286.8 491.8L296.8 492.1L306.7 491.7L326.6 490.5L336.6 489.5L346.6 489.5L356.5 488.7L366.5 487.9L376.4 486.8L386.4 486.4L396.3 487.9L406.3 488.2L416.3 486.4L426.2 484.9L436.2 484.6L446.1 483.7L456.1 483.9L466 486.5L476 487.1L486 487.6L495.9 488.4L505.9 488.8L515.8 489.1L525.8 488.1L535.7 487.5L545.7 488.7L555.7 487.6L565.6 487.7L575.6 485.9L585.5 485.4L595.5 485.3L605.4 486.4L615.4 488.7"></path><g id="polyline"><polyline id="polyline" points="117.50,496.10 127.50,494.50 137.40,493.60 147.40,494.90 157.40,495.40 167.30,495.00 177.30,495.50 187.20,494.40 197.20,493.50 207.10,493.10 217.10,494.30 227.10,494.60 237.00,493.80 247.00,492.90 256.90,492.90 266.90,492.70 276.80,492.00 286.80,491.80 296.80,492.10 306.70,491.70 326.60,490.50 336.60,489.50 346.60,489.50 356.50,488.70 366.50,487.90 376.40,486.80 386.40,486.40 396.30,487.90 406.30,488.20 416.30,486.40 426.20,484.90 436.20,484.60 446.10,483.70 456.10,483.90 466.00,486.50 476.00,487.10 486.00,487.60 495.90,488.40 505.90,488.80 515.80,489.10 525.80,488.10 535.70,487.50 545.70,488.70 555.70,487.60 565.60,487.70 575.60,485.90 585.50,485.40 595.50,485.30 605.40,486.40 615.40,488.70" stroke-linejoin="round" stroke-width="1.5" stroke="#338711" fill="none" stroke-linecap="butt"></polyline></g></g><g id="line__Japan"><path id="outline" fill="none" stroke-linecap="butt" stroke-linejoin="round" stroke="#fff" stroke-width="2.5" d="M117.5 496.9L127.5 496.9L137.4 496.9L147.4 496.8L157.4 495.5L167.3 494L177.3 492L187.2 489.9L197.2 489.3L207.1 490.5L217.1 491.8L227.1 493.3L237 494.5L247 493.4L256.9 493.4L266.9 496.6L276.8 496.6L286.8 496.6L296.8 496.4L306.7 496.4L326.6 496.4L336.6 496.5L346.6 496.3L356.5 496.3L366.5 496.2L376.4 496L386.4 496.3L396.3 496.1L406.3 496L416.3 496L426.2 495.9L436.2 495.8L446.1 495.7L456.1 494.5L466 494L476 494.1L486 493.4L495.9 491.8L505.9 491.6L515.8 490.2L525.8 489.7L535.7 487.3L545.7 485.7L555.7 485.6L565.6 485.9L575.6 487.2L585.5 487.2L595.5 487.8L605.4 486.7L615.4 487.1"></path><g id="polyline"><polyline id="polyline" points="117.50,496.90 127.50,496.90 137.40,496.90 147.40,496.80 157.40,495.50 167.30,494.00 177.30,492.00 187.20,489.90 197.20,489.30 207.10,490.50 217.10,491.80 227.10,493.30 237.00,494.50 247.00,493.40 256.90,493.40 266.90,496.60 276.80,496.60 286.80,496.60 296.80,496.40 306.70,496.40 326.60,496.40 336.60,496.50 346.60,496.30 356.50,496.30 366.50,496.20 376.40,496.00 386.40,496.30 396.30,496.10 406.30,496.00 416.30,496.00 426.20,495.90 436.20,495.80 446.10,495.70 456.10,494.50 466.00,494.00 476.00,494.10 486.00,493.40 495.90,491.80 505.90,491.60 515.80,490.20 525.80,489.70 535.70,487.30 545.70,485.70 555.70,485.60 565.60,485.90 575.60,487.20 585.50,487.20 595.50,487.80 605.40,486.70 615.40,487.10" stroke-linejoin="round" stroke-width="1.5" stroke="#970046" fill="none" stroke-linecap="butt"></polyline></g></g><g id="line__France"><path id="outline" fill="none" stroke-linecap="butt" stroke-linejoin="round" stroke="#fff" stroke-width="2.5" d="M117.5 494.9L127.5 494.7L137.4 494.6L147.4 494.9L157.4 494.7L167.3 494.9L177.3 494.6L187.2 495.2L197.2 494.2L207.1 494.8L217.1 495.6L227.1 496.6L237 496.6L247 496.6L256.9 496.6L456.1 496.2L466 496.1L476 496.1L486 495.9L495.9 496.1L505.9 496L515.8 496L525.8 496.1L535.7 496.3L545.7 496.5L555.7 496.6L565.6 496.2L575.6 496.8L585.5 496.9L595.5 496.9L605.4 496.9L615.4 496.9"></path><g id="polyline"><polyline id="polyline" points="117.50,494.90 127.50,494.70 137.40,494.60 147.40,494.90 157.40,494.70 167.30,494.90 177.30,494.60 187.20,495.20 197.20,494.20 207.10,494.80 217.10,495.60 227.10,496.60 237.00,496.60 247.00,496.60 256.90,496.60 456.10,496.20 466.00,496.10 476.00,496.10 486.00,495.90 495.90,496.10 505.90,496.00 515.80,496.00 525.80,496.10 535.70,496.30 545.70,496.50 555.70,496.60 565.60,496.20 575.60,496.80 585.50,496.90 595.50,496.90 605.40,496.90 615.40,496.90" stroke-linejoin="round" stroke-width="1.5" stroke="#CF0A66" fill="none" stroke-linecap="butt"></polyline></g></g><g id="line__Finland"><path id="outline" fill="none" stroke-linecap="butt" stroke-linejoin="round" stroke="#fff" stroke-width="2.5" d="M117.5 494.8L127.5 494.2L137.4 494.8L147.4 494.7L157.4 494.2L167.3 494L177.3 494.1L187.2 493.9L197.2 491.9L207.1 491.8L217.1 491.2L227.1 493.1L237 490.6L247 491L256.9 494.4L266.9 495.5L276.8 495.8L286.8 495.8L296.8 495.6L306.7 495.5L326.6 491.1L336.6 489L346.6 487.4L356.5 485.9L366.5 483.7L376.4 483.1L386.4 480.6L396.3 476.6L406.3 475.5L416.3 475.2L426.2 475.8L436.2 476.1L446.1 475.4L456.1 474.3L466 472.7L476 471.5L486 473.3L495.9 472L505.9 468.9L515.8 469.1L525.8 468.4L535.7 463.8L545.7 471.6L555.7 464.2L565.6 461.1L575.6 459.2L585.5 459.3L595.5 457L605.4 459.2L615.4 463.2"></path><g id="polyline"><polyline id="polyline" points="117.50,494.80 127.50,494.20 137.40,494.80 147.40,494.70 157.40,494.20 167.30,494.00 177.30,494.10 187.20,493.90 197.20,491.90 207.10,491.80 217.10,491.20 227.10,493.10 237.00,490.60 247.00,491.00 256.90,494.40 266.90,495.50 276.80,495.80 286.80,495.80 296.80,495.60 306.70,495.50 326.60,491.10 336.60,489.00 346.60,487.40 356.50,485.90 366.50,483.70 376.40,483.10 386.40,480.60 396.30,476.60 406.30,475.50 416.30,475.20 426.20,475.80 436.20,476.10 446.10,475.40 456.10,474.30 466.00,472.70 476.00,471.50 486.00,473.30 495.90,472.00 505.90,468.90 515.80,469.10 525.80,468.40 535.70,463.80 545.70,471.60 555.70,464.20 565.60,461.10 575.60,459.20 585.50,459.30 595.50,457.00 605.40,459.20 615.40,463.20" stroke-linejoin="round" stroke-width="1.5" stroke="#6D3E91" fill="none" stroke-linecap="butt"></polyline></g></g><g id="line__Democratic-Republic-of-Congo"><path id="outline" fill="none" stroke-linecap="butt" stroke-linejoin="round" stroke="#fff" stroke-width="2.5" d="M117.5 462.5L127.5 457.2L137.4 450.7L147.4 461L157.4 468.7L167.3 470L177.3 462.2L187.2 459.9L197.2 458.7L207.1 467.6L217.1 482.2L227.1 482.7L237 473L247 469L256.9 458.6L266.9 465.6L276.8 470.5L286.8 472.4L296.8 470.5L306.7 473.7L326.6 494.7L336.6 490.8L346.6 487.9L356.5 490.7L366.5 489.5L376.4 485.1L386.4 483.2L396.3 485.5L406.3 488.5L416.3 491.2L426.2 493.7L436.2 495L446.1 495.3L456.1 495.5L466 495.3L476 494.1L486 489.1L495.9 485.9L505.9 488.8L515.8 489L525.8 489.6L535.7 489.4L545.7 488.5L555.7 496.7L565.6 496.6L575.6 496.7L585.5 496.9L595.5 496.9L605.4 496.9L615.4 496.9"></path><g id="polyline"><polyline id="polyline" points="117.50,462.50 127.50,457.20 137.40,450.70 147.40,461.00 157.40,468.70 167.30,470.00 177.30,462.20 187.20,459.90 197.20,458.70 207.10,467.60 217.10,482.20 227.10,482.70 237.00,473.00 247.00,469.00 256.90,458.60 266.90,465.60 276.80,470.50 286.80,472.40 296.80,470.50 306.70,473.70 326.60,494.70 336.60,490.80 346.60,487.90 356.50,490.70 366.50,489.50 376.40,485.10 386.40,483.20 396.30,485.50 406.30,488.50 416.30,491.20 426.20,493.70 436.20,495.00 446.10,495.30 456.10,495.50 466.00,495.30 476.00,494.10 486.00,489.10 495.90,485.90 505.90,488.80 515.80,489.00 525.80,489.60 535.70,489.40 545.70,488.50 555.70,496.70 565.60,496.60 575.60,496.70 585.50,496.90 595.50,496.90 605.40,496.90 615.40,496.90" stroke-linejoin="round" stroke-width="1.5" stroke="#338711" fill="none" stroke-linecap="butt"></polyline></g></g><g id="line__World"><path id="outline" fill="none" stroke-linecap="butt" stroke-linejoin="round" stroke="#fff" stroke-width="2.5" d="M77.7 451.8L87.7 449.5L97.6 440.8L107.6 437.9L117.5 443.4L127.5 436L137.4 431.5L147.4 442.1L157.4 447.3L167.3 442.1L177.3 431.8L187.2 421.8L197.2 417.3L207.1 428.9L217.1 446L227.1 449.2L237 434.4L247 424.4L256.9 414.1L266.9 423.1L276.8 427.3L286.8 427.3L296.8 424.9L306.7 430.5L316.7 440.2L326.6 453.1L336.6 444.2L346.6 435.5L356.5 429.4L366.5 425.5L376.4 414.1L386.4 409.7L396.3 402L406.3 394.9L416.3 389.4L426.2 383L436.2 369.1L446.1 354.3L456.1 355.1L466 355.9L476 345.1L486 333.2L495.9 287.4L505.9 279.7L515.8 291.6L525.8 268.4L535.7 252.8L545.7 233.8L555.7 242L565.6 183.2L575.6 164.8L585.5 130.5L595.5 109.4L605.4 106.8"></path><g id="polyline"><polyline id="polyline" points="77.70,451.80 87.70,449.50 97.60,440.80 107.60,437.90 117.50,443.40 127.50,436.00 137.40,431.50 147.40,442.10 157.40,447.30 167.30,442.10 177.30,431.80 187.20,421.80 197.20,417.30 207.10,428.90 217.10,446.00 227.10,449.20 237.00,434.40 247.00,424.40 256.90,414.10 266.90,423.10 276.80,427.30 286.80,427.30 296.80,424.90 306.70,430.50 316.70,440.20 326.60,453.10 336.60,444.20 346.60,435.50 356.50,429.40 366.50,425.50 376.40,414.10 386.40,409.70 396.30,402.00 406.30,394.90 416.30,389.40 426.20,383.00 436.20,369.10 446.10,354.30 456.10,355.10 466.00,355.90 476.00,345.10 486.00,333.20 495.90,287.40 505.90,279.70 515.80,291.60 525.80,268.40 535.70,252.80 545.70,233.80 555.70,242.00 565.60,183.20 575.60,164.80 585.50,130.50 595.50,109.40 605.40,106.80" stroke-linejoin="round" stroke-width="1.5" stroke="#C15065" fill="none" stroke-linecap="butt"></polyline></g></g></g></g></g></g><g id="footer" class="SourcesFooter" style="fill:#5b5b5b"><g id="sources" class="markdown-text-wrap"><text x="16.0" y="546.5" style="font-size:13.5px;line-height:1.2"><tspan x="16" y="546.5"><tspan style="font-weight:700">Data source:</tspan> USGS - Historical Statistics for Mineral and Material Commodities (2023); BGS - World Mineral Statistics (2023)</tspan></text></g><g id="note" class="markdown-text-wrap"><text x="16.0" y="564.7" style="font-size:13.5px;line-height:1.2"><tspan x="16" y="564.7"><tspan style="font-weight:700">Note:</tspan> Values are reported as tonnes of cobalt content. The sum of all countries may exceed World data on certain years (by up to 10%),</tspan><tspan x="16" y="580.9">due to discrepancies between data sources.</tspan></text></g><text id="origin-url" font-size="13.50" x="792.7" y="546.5"><tspan x="792.69" y="546.495"><a target="_blank" style="fill: #5b5b5b;" href="https://creativecommons.org/licenses/by/4.0/">CC BY</a></tspan></text></g><line id="separator-line" x1="16" y1="600" x2="834" y2="600" stroke="#e7e7e7"></line><g id="details" transform="translate(15, 616)"><g class="markdown-text-wrap"><text x="0.0" y="12.0" style="font-size:12.375px;fill:#5b5b5b;line-height:1.2"><tspan x="0" y="12.0"><tspan style="font-weight:700">1.</tspan> <tspan style="font-weight:700">Cobalt</tspan>: Cobalt is used in a number of industries: consumer electronics (it’s in most mobile phones and laptops), catalysts for the oil industry,</tspan><tspan x="0" y="26.9">resistant metal alloys, and ceramics. In clean energy, it’s mostly used in electric vehicles. Cobalt is a critical element in lithium-ion batteries, which</tspan><tspan x="0" y="41.7">are the dominant battery technology today.</tspan></text></g><g class="markdown-text-wrap"><text x="0.0" y="64.6" style="font-size:12.375px;fill:#5b5b5b;line-height:1.2"><tspan x="0" y="64.6"><tspan style="font-weight:700">2.</tspan> <tspan style="font-weight:700">Refined production</tspan>: Refined production is the process of taking raw materials, such as metals extracted from ores, and purifying them to achieve</tspan><tspan x="0" y="79.4">a higher quality or more usable form. After metals are initially extracted from ore through processes like smelting, they often contain impurities or are</tspan><tspan x="0" y="94.3">not in the ideal form for manufacturing. Refining involves further processing these metals to remove impurities and adjust their composition to meet</tspan><tspan x="0" y="109.1">specific standards. Refined production is essential for transforming raw materials into high-quality metals that are crucial for industries and</tspan><tspan x="0" y="124.0">consumers, from manufacturing electronics to constructing buildings.</tspan></text></g></g></svg>