<svg xmlns="http://www.w3.org/2000/svg" version="1.1" style="font-family:Lato, &#x27;Helvetica Neue&#x27;, Helvetica, Arial, &#x27;Liberation Sans&#x27;, sans-serif;font-size:18px;background-color:white;text-rendering:geometricPrecision;-webkit-font-smoothing:antialiased" width="850" height="758.8" viewBox="0 0 850 758.8"><defs><style>@import url(https://ourworldindata.org/fonts.css)</style></defs><defs><pattern id="noDataPattern" patternUnits="userSpaceOnUse" width="4" height="4" patternTransform="rotate(-45 2 2)"><path d="M -1,2 l 6,0" stroke="#ccc" stroke-width="0.7"></path></pattern></defs><rect class="background-fill" fill="white" width="850" height="758.8"></rect><g id="header" class="HeaderView"><g id="logo" transform="translate(769, 16) scale(1)"><svg className="owidLogo" xmlns="http://www.w3.org/2000/svg" width="65" height="36" viewBox="0 0 65 36"  fill="none"><path fill="#002147" d="M0 0h64.8v36H0z"/><path fill="#CE261E" d="M0 33.3h64.8V36H0z"/><path fill="#fff" d="M13.796 10.575c0 .636-.106 1.226-.318 1.77a4.193 4.193 0 0 1-.894 1.404 4.084 4.084 0 0 1-1.386.93c-.54.22-1.138.33-1.794.33-.656 0-1.256-.11-1.8-.33a4.149 4.149 0 0 1-1.392-.93 4.193 4.193 0 0 1-.894-1.404A4.833 4.833 0 0 1 5 10.575c0-.636.106-1.224.318-1.764a4.18 4.18 0 0 1 .894-1.41 4.076 4.076 0 0 1 1.392-.924 4.684 4.684 0 0 1 1.8-.336c.656 0 1.254.112 1.794.336.54.224 1.002.534 1.386.93.384.392.682.86.894 1.404.212.54.318 1.128.318 1.764Zm-1.656 0c0-.476-.064-.902-.192-1.278a2.671 2.671 0 0 0-.54-.966 2.332 2.332 0 0 0-.864-.606 2.94 2.94 0 0 0-1.14-.21c-.424 0-.806.07-1.146.21-.34.14-.63.342-.87.606a2.742 2.742 0 0 0-.546.966 3.955 3.955 0 0 0-.192 1.278c0 .476.064.904.192 1.284.128.376.31.696.546.96.24.26.53.46.87.6.34.14.722.21 1.146.21.424 0 .804-.07 1.14-.21.34-.14.628-.34.864-.6.236-.264.416-.584.54-.96a4.01 4.01 0 0 0 .192-1.284ZM16.104 8.757v3.912c0 .376.086.668.258.876.176.204.438.306.786.306.256 0 .496-.056.72-.168a2.58 2.58 0 0 0 .636-.474V8.757h1.482v6.156h-.906c-.192 0-.318-.09-.378-.27l-.102-.492a4.65 4.65 0 0 1-.396.354 2.577 2.577 0 0 1-.438.27 2.35 2.35 0 0 1-.498.168 2.345 2.345 0 0 1-.57.066c-.336 0-.634-.056-.894-.168a1.821 1.821 0 0 1-.648-.486 2.157 2.157 0 0 1-.402-.738 3.233 3.233 0 0 1-.132-.948V8.757h1.482ZM21.328 14.913V8.757h.87c.152 0 .258.028.318.084.06.056.1.152.12.288l.09.744c.22-.38.478-.68.774-.9.296-.22.628-.33.996-.33.304 0 .556.07.756.21l-.192 1.11c-.012.072-.038.124-.078.156a.278.278 0 0 1-.162.042 1.01 1.01 0 0 1-.246-.042 1.646 1.646 0 0 0-.414-.042c-.308 0-.572.086-.792.258-.22.168-.406.416-.558.744v3.834h-1.482ZM27.347 6.237h1.356a.57.57 0 0 1 .348.102c.096.064.16.152.192.264l1.476 5.19c.036.128.068.268.096.42.032.148.062.306.09.474a5.968 5.968 0 0 1 .228-.894l1.704-5.19a.575.575 0 0 1 .186-.252.543.543 0 0 1 .348-.114h.474a.57.57 0 0 1 .348.102.497.497 0 0 1 .192.264l1.692 5.19c.088.256.164.54.228.852.028-.156.056-.306.084-.45.032-.144.064-.278.096-.402l1.476-5.19c.028-.1.09-.186.186-.258a.563.563 0 0 1 .348-.108h1.266l-2.694 8.676h-1.458l-1.896-5.928-.078-.246a9.504 9.504 0 0 1-.072-.282c-.024.1-.05.194-.078.282-.024.088-.048.17-.072.246l-1.914 5.928H30.04l-2.694-8.676ZM42.771 8.661c.46 0 .876.074 1.248.222.376.148.696.358.96.63s.468.604.612.996c.144.392.216.83.216 1.314 0 .488-.072.928-.216 1.32a2.85 2.85 0 0 1-.612 1.002 2.653 2.653 0 0 1-.96.636 3.35 3.35 0 0 1-1.248.222c-.46 0-.878-.074-1.254-.222a2.712 2.712 0 0 1-.966-.636 2.922 2.922 0 0 1-.618-1.002 3.807 3.807 0 0 1-.216-1.32c0-.484.072-.922.216-1.314.148-.392.354-.724.618-.996.268-.272.59-.482.966-.63a3.397 3.397 0 0 1 1.254-.222Zm0 5.202c.512 0 .89-.172 1.134-.516.248-.344.372-.848.372-1.512s-.124-1.17-.372-1.518c-.244-.348-.622-.522-1.134-.522-.52 0-.904.176-1.152.528-.248.348-.372.852-.372 1.512s.124 1.164.372 1.512c.248.344.632.516 1.152.516ZM46.723 14.913V8.757h.87c.152 0 .258.028.318.084.06.056.1.152.12.288l.09.744c.22-.38.478-.68.774-.9.296-.22.628-.33.996-.33.304 0 .556.07.756.21l-.192 1.11c-.012.072-.038.124-.078.156a.278.278 0 0 1-.162.042 1.01 1.01 0 0 1-.246-.042 1.646 1.646 0 0 0-.414-.042c-.308 0-.572.086-.792.258-.22.168-.406.416-.558.744v3.834h-1.482ZM52.96 5.997v8.916h-1.482V5.997h1.482ZM58.732 14.913c-.192 0-.318-.09-.378-.27l-.12-.594a3.68 3.68 0 0 1-.402.39c-.14.116-.292.216-.456.3-.16.084-.334.148-.522.192a2.372 2.372 0 0 1-.6.072c-.336 0-.644-.07-.924-.21a2.098 2.098 0 0 1-.726-.606 3.033 3.033 0 0 1-.468-.99 5.072 5.072 0 0 1-.162-1.344c0-.456.062-.88.186-1.272s.302-.732.534-1.02c.232-.288.51-.512.834-.672a2.384 2.384 0 0 1 1.092-.246 2.103 2.103 0 0 1 1.536.606V5.997h1.482v8.916h-.906Zm-1.974-1.086c.308 0 .57-.064.786-.192.216-.128.42-.31.612-.546v-2.76a1.452 1.452 0 0 0-.552-.432 1.597 1.597 0 0 0-.636-.126c-.224 0-.428.042-.612.126a1.21 1.21 0 0 0-.462.384c-.124.168-.22.384-.288.648-.068.26-.102.568-.102.924 0 .36.028.666.084.918.06.248.144.452.252.612.108.156.24.27.396.342.156.068.33.102.522.102ZM16.331 20.757v6.156H14.85v-6.156h1.481Zm.223-1.794a.844.844 0 0 1-.078.36.963.963 0 0 1-.21.294.995.995 0 0 1-.3.204.963.963 0 0 1-.372.072.948.948 0 0 1-.367-.072 1.018 1.018 0 0 1-.498-.498.963.963 0 0 1 0-.732.995.995 0 0 1 .205-.3.929.929 0 0 1 .293-.198.899.899 0 0 1 .738 0 .912.912 0 0 1 .3.198.943.943 0 0 1 .288.672ZM17.771 26.913v-6.156h.906c.192 0 .318.09.378.27l.102.486a2.934 2.934 0 0 1 .828-.618c.156-.076.322-.134.498-.174.176-.04.368-.06.576-.06.336 0 .634.058.894.174.26.112.476.272.648.48.176.204.308.45.396.738.092.284.138.598.138.942v3.918h-1.482v-3.918c0-.376-.088-.666-.264-.87-.172-.208-.432-.312-.78-.312-.256 0-.496.058-.72.174a2.58 2.58 0 0 0-.636.474v4.452h-1.482ZM34.22 22.575c0 .636-.106 1.22-.318 1.752-.212.532-.51.99-.894 1.374a4 4 0 0 1-1.386.894 4.87 4.87 0 0 1-1.794.318h-3.312v-8.676h3.312a4.79 4.79 0 0 1 1.794.324 4 4 0 0 1 1.386.894c.384.38.682.836.894 1.368.212.532.318 1.116.318 1.752Zm-1.65 0c0-.476-.064-.902-.192-1.278a2.68 2.68 0 0 0-.546-.96 2.332 2.332 0 0 0-.864-.606 2.94 2.94 0 0 0-1.14-.21h-1.686v6.108h1.686c.424 0 .804-.07 1.14-.21.34-.14.628-.34.864-.6a2.75 2.75 0 0 0 .546-.96 4.01 4.01 0 0 0 .192-1.284ZM39.98 26.913h-.665c-.14 0-.25-.02-.33-.06-.08-.044-.14-.13-.18-.258l-.132-.438c-.156.14-.31.264-.462.372a2.804 2.804 0 0 1-.462.264c-.16.072-.33.126-.51.162-.18.036-.38.054-.6.054-.26 0-.5-.034-.72-.102a1.618 1.618 0 0 1-.57-.318 1.448 1.448 0 0 1-.366-.522 1.852 1.852 0 0 1-.132-.726c0-.232.06-.46.18-.684.124-.228.328-.432.612-.612.284-.184.662-.336 1.134-.456.472-.12 1.058-.188 1.758-.204v-.36c0-.412-.088-.716-.264-.912-.172-.2-.424-.3-.756-.3a1.837 1.837 0 0 0-1.02.276c-.116.068-.224.13-.324.186a.664.664 0 0 1-.33.084.429.429 0 0 1-.258-.078.614.614 0 0 1-.174-.192l-.27-.474c.708-.648 1.562-.972 2.562-.972.36 0 .68.06.96.18.284.116.524.28.72.492.196.208.344.458.444.75.104.292.156.612.156.96v3.888Zm-2.88-.924c.153 0 .293-.014.42-.042.129-.028.249-.07.36-.126.117-.056.227-.124.33-.204.109-.084.217-.182.325-.294v-1.038c-.432.02-.794.058-1.086.114-.288.052-.52.12-.696.204a.923.923 0 0 0-.378.294.664.664 0 0 0-.108.366c0 .26.076.446.228.558.156.112.358.168.606.168ZM43.22 27.01c-.532 0-.942-.15-1.23-.45-.288-.305-.432-.723-.432-1.255v-3.438h-.624a.31.31 0 0 1-.21-.078c-.056-.052-.084-.13-.084-.234v-.588l.99-.162.312-1.68a.302.302 0 0 1 .108-.186.365.365 0 0 1 .222-.066h.768v1.938h1.62v1.056h-1.62v3.336c0 .192.048.342.144.45a.488.488 0 0 0 .384.162c.092 0 .168-.01.228-.03.064-.024.118-.048.162-.072.048-.024.09-.046.126-.066a.194.194 0 0 1 .108-.036.16.16 0 0 1 .108.036c.028.02.058.052.09.096l.444.72c-.216.18-.464.316-.744.408a2.77 2.77 0 0 1-.87.138ZM50.423 26.913h-.666c-.14 0-.25-.02-.33-.06-.08-.044-.14-.13-.18-.258l-.132-.438c-.156.14-.31.264-.462.372a2.804 2.804 0 0 1-.462.264c-.16.072-.33.126-.51.162-.18.036-.38.054-.6.054-.26 0-.5-.034-.72-.102a1.618 1.618 0 0 1-.57-.318 1.448 1.448 0 0 1-.366-.522 1.852 1.852 0 0 1-.132-.726c0-.232.06-.46.18-.684.124-.228.328-.432.612-.612.284-.184.662-.336 1.134-.456.472-.12 1.058-.188 1.758-.204v-.36c0-.412-.088-.716-.264-.912-.172-.2-.424-.3-.756-.3a1.837 1.837 0 0 0-1.02.276c-.116.068-.224.13-.324.186a.664.664 0 0 1-.33.084.429.429 0 0 1-.258-.078.614.614 0 0 1-.174-.192l-.27-.474c.708-.648 1.562-.972 2.562-.972.36 0 .68.06.96.18.284.116.524.28.72.492.196.208.344.458.444.75.104.292.156.612.156.96v3.888Zm-2.88-.924c.152 0 .292-.014.42-.042.128-.028.248-.07.36-.126.116-.056.226-.124.33-.204.108-.084.216-.182.324-.294v-1.038c-.432.02-.794.058-1.086.114-.288.052-.52.12-.696.204a.923.923 0 0 0-.378.294.664.664 0 0 0-.108.366c0 .26.076.446.228.558.156.112.358.168.606.168Z"/></svg></g><a id="title" href="https://ourworldindata.org/explorers/minerals?Mineral=Cobalt&amp;Metric=Production&amp;Type=Mine&amp;Share+of+global=false&amp;country=OWID_WRL~AUS~CHL~CHN~USA~ZWE~CAN~ALB~DZA~ARG~ARM~AUT~AZE~BOL~BWA~BRA~BGR~COL~COG~CUB~CYP~OWID_CZS~COD~DOM~OWID_GDR~ECU~ERI~FIN~FRA~GEO~DEU~GRC~GTM~HTI~HND~HUN~IND~IDN~IRN~IRL~ZMB~OWID_GFR~OWID_YGS~VNM~GBR~UGA~UZB~OWID_USS~TUR~TZA~TJK~TWN~SWE~ESP~KOR~ZAF~SVK~OWID_SRM~SRB~SAU~RUS~ROU~PRT~POL~PHL~PER~PNG~PAN~PAK~OMN~NOR~MKD~PRK~NIC~NZL~NAM~MMR~MOZ~MAR~MNG~MEX~MRT~MYS~LAO~KGZ~KEN~KAZ~JPN~ITA~ISR~BEL~THA~EGY~UKR~Other~MDG~NCL" style="font-family:&#x27;Playfair Display&#x27;, Georgia, &#x27;Times New Roman&#x27;, &#x27;Liberation Serif&#x27;, serif" target="_blank" rel="noopener"><text font-size="24.75" font-weight="600" x="16.0" y="40.0" fill="#5b5b5b"><tspan x="16" y="40.0075">Cobalt production, 1901 to 2023</tspan></text></a><g id="subtitle" class="markdown-text-wrap"><text x="16.0" y="63.9" style="font-size:14.625px;line-height:1.2" fill="#5b5b5b"><tspan x="16" y="63.9">Production of <tspan class="dod-span" data-id="cobalt">cobalt<tspan style="font-feature-settings:&quot;sups&quot;">¹</tspan></tspan>, in tonnes. Based on mined, rather than <tspan class="dod-span" data-id="refined-production">refined<tspan style="font-feature-settings:&quot;sups&quot;">²</tspan></tspan>, production.</tspan></text></g></g><g id="chart-area" style="pointer-events:none"><g id="line-chart" class="LineChart"><defs><clipPath id="boundsClip-116"><rect x="67.7" y="73.25" width="838" height="470.35"></rect></clipPath></defs><rect x="16" y="83.25" width="818" height="450.35" fill="none"></rect><g id="dual-axis" class="DualAxisView"><g id="horizontal-axis" class="HorizontalAxis"><g id="tick__1901"><line x1="77.7" y1="512.6" x2="77.7" y2="518.1" stroke="#999" stroke-width="1"></line><text x="77.7" y="531.6" fill="#5b5b5b" text-anchor="start" font-size="13.5">1901</text></g><g id="tick__2023"><line x1="615.4" y1="512.6" x2="615.4" y2="518.1" stroke="#999" stroke-width="1"></line><text x="615.4" y="531.6" fill="#5b5b5b" text-anchor="end" font-size="13.5">2023</text></g><g id="tick__1920"><line x1="161.4" y1="512.6" x2="161.4" y2="518.1" stroke="#999" stroke-width="1"></line><text x="161.4" y="531.6" fill="#5b5b5b" text-anchor="middle" font-size="13.5">1920</text></g><g id="tick__1940"><line x1="249.6" y1="512.6" x2="249.6" y2="518.1" stroke="#999" stroke-width="1"></line><text x="249.6" y="531.6" fill="#5b5b5b" text-anchor="middle" font-size="13.5">1940</text></g><g id="tick__1960"><line x1="337.7" y1="512.6" x2="337.7" y2="518.1" stroke="#999" stroke-width="1"></line><text x="337.7" y="531.6" fill="#5b5b5b" text-anchor="middle" font-size="13.5">1960</text></g><g id="tick__1980"><line x1="425.9" y1="512.6" x2="425.9" y2="518.1" stroke="#999" stroke-width="1"></line><text x="425.9" y="531.6" fill="#5b5b5b" text-anchor="middle" font-size="13.5">1980</text></g><g id="tick__2000"><line x1="514" y1="512.6" x2="514" y2="518.1" stroke="#999" stroke-width="1"></line><text x="514" y="531.6" fill="#5b5b5b" text-anchor="middle" font-size="13.5">2000</text></g></g><g id="vertical-axis" class="VerticalAxis"><g id="tick-labels"><text id="tick-label__0-t" x="72.70" y="513.1" dy=".32em" text-anchor="end" fill="#5b5b5b" font-size="13.5">0 t</text><text id="tick-label__50__002c000-t" x="72.70" y="421" dy=".32em" text-anchor="end" fill="#5b5b5b" font-size="13.5">50,000 t</text><text id="tick-label__100__002c000-t" x="72.70" y="328.8" dy=".32em" text-anchor="end" fill="#5b5b5b" font-size="13.5">100,000 t</text><text id="tick-label__150__002c000-t" x="72.70" y="236.7" dy=".32em" text-anchor="end" fill="#5b5b5b" font-size="13.5">150,000 t</text><text id="tick-label__200__002c000-t" x="72.70" y="144.5" dy=".32em" text-anchor="end" fill="#5b5b5b" font-size="13.5">200,000 t</text></g></g><g id="horizontal-grid-lines" class="AxisGridLines horizontalLines"><line id="grid-line__0" x1="77.70" y1="513.1" x2="615.40" y2="513.1" stroke="#999" stroke-width="1"></line><line id="grid-line__50000" x1="77.70" y1="421" x2="615.40" y2="421" stroke="#ddd" stroke-width="1" stroke-dasharray="3,2"></line><line id="grid-line__100000" x1="77.70" y1="328.8" x2="615.40" y2="328.8" stroke="#ddd" stroke-width="1" stroke-dasharray="3,2"></line><line id="grid-line__150000" x1="77.70" y1="236.7" x2="615.40" y2="236.7" stroke="#ddd" stroke-width="1" stroke-dasharray="3,2"></line><line id="grid-line__200000" x1="77.70" y1="144.5" x2="615.40" y2="144.5" stroke="#ddd" stroke-width="1" stroke-dasharray="3,2"></line></g></g><g clip-path="url(#boundsClip-116)"><g id="line-labels" class="LineLabels"><g id="mark__World" class="legendMark" style="cursor:default"><g id="connector" class="indicator"><path d="M619.4,89.3 H632.9 V90 H646.4" stroke="#999" stroke-width="0.5" fill="none"></path></g><rect id="background" x="615.4" y="83.25" width="70.235" height="13.5" fill="#fff" opacity="0"></rect><text id="label" font-size="13.50" font-weight="400" x="650.4" y="95.0" fill="#c15065"><tspan x="650.4" y="94.995">World</tspan></text></g><g id="mark__Democratic-Republic-of-Congo" class="legendMark" style="cursor:default"><g id="connector" class="indicator"><path d="M619.4,199.8 H632.9 V199.8 H646.4" stroke="#999" stroke-width="0.5" fill="none"></path></g><rect id="background" x="615.4" y="193.05" width="218.60000000000002" height="13.5" fill="#fff" opacity="0"></rect><text id="label" font-size="13.50" font-weight="400" x="650.4" y="204.8" fill="#338711"><tspan x="650.4" y="204.79500000000002">Democratic Republic of Congo</tspan></text></g><g id="mark__Indonesia" class="legendMark" style="cursor:default"><g id="connector" class="indicator"><path d="M619.4,481.8 H621.4769230769231 V325.35000000000014 H646.4" stroke="#999" stroke-width="0.5" fill="none"></path></g><rect id="background" x="615.4" y="318.60000000000014" width="93.86000000000001" height="13.5" fill="#fff" opacity="0"></rect><text id="label" font-size="13.50" font-weight="400" x="650.4" y="330.3" fill="#008291"><tspan x="650.4" y="330.34500000000014">Indonesia</tspan></text></g><g id="mark__Russia" class="legendMark" style="cursor:default"><g id="connector" class="indicator"><path d="M619.4,496.9 H623.5538461538462 V340.85000000000014 H646.4" stroke="#999" stroke-width="0.5" fill="none"></path></g><rect id="background" x="615.4" y="334.10000000000014" width="76.31" height="13.5" fill="#fff" opacity="0"></rect><text id="label" font-size="13.50" font-weight="400" x="650.4" y="345.8" fill="#a2559c"><tspan x="650.4" y="345.84500000000014">Russia</tspan></text></g><g id="mark__Other" class="legendMark" style="cursor:default"><g id="connector" class="indicator"><path d="M619.4,500.9 H625.6307692307693 V356.35000000000014 H646.4" stroke="#999" stroke-width="0.5" fill="none"></path></g><rect id="background" x="615.4" y="349.60000000000014" width="68.885" height="13.5" fill="#fff" opacity="0"></rect><text id="label" font-size="13.50" font-weight="400" x="650.4" y="361.3" fill="#2c8465"><tspan x="650.4" y="361.34500000000014">Other</tspan></text></g><g id="mark__Australia" class="legendMark" style="cursor:default"><g id="connector" class="indicator"><path d="M619.4,504.6 H627.7076923076924 V371.85000000000014 H646.4" stroke="#999" stroke-width="0.5" fill="none"></path></g><rect id="background" x="615.4" y="365.10000000000014" width="87.65" height="13.5" fill="#fff" opacity="0"></rect><text id="label" font-size="13.50" font-weight="400" x="650.4" y="376.8" fill="#2c8465"><tspan x="650.4" y="376.84500000000014">Australia</tspan></text></g><g id="mark__Madagascar" class="legendMark" style="cursor:default"><g id="connector" class="indicator"><path d="M619.4,505.7 H629.7846153846153 V387.35000000000014 H646.4" stroke="#999" stroke-width="0.5" fill="none"></path></g><rect id="background" x="615.4" y="380.60000000000014" width="109.52000000000001" height="13.5" fill="#fff" opacity="0"></rect><text id="label" font-size="13.50" font-weight="400" x="650.4" y="392.3" fill="#d73c50"><tspan x="650.4" y="392.34500000000014">Madagascar</tspan></text></g><g id="mark__Philippines" class="legendMark" style="cursor:default"><g id="connector" class="indicator"><path d="M619.4,506.1 H631.8615384615384 V402.85000000000014 H646.4" stroke="#999" stroke-width="0.5" fill="none"></path></g><rect id="background" x="615.4" y="396.10000000000014" width="100.47500000000001" height="13.5" fill="#fff" opacity="0"></rect><text id="label" font-size="13.50" font-weight="400" x="650.4" y="407.8" fill="#00847e"><tspan x="650.4" y="407.84500000000014">Philippines</tspan></text></g><g id="mark__Cuba" class="legendMark" style="cursor:default"><g id="connector" class="indicator"><path d="M619.4,507.2 H633.9384615384615 V418.35000000000014 H646.4" stroke="#999" stroke-width="0.5" fill="none"></path></g><rect id="background" x="615.4" y="411.60000000000014" width="67.4" height="13.5" fill="#fff" opacity="0"></rect><text id="label" font-size="13.50" font-weight="400" x="650.4" y="423.3" fill="#00875e"><tspan x="650.4" y="423.34500000000014">Cuba</tspan></text></g><g id="mark__New-Caledonia" class="legendMark" style="cursor:default"><g id="connector" class="indicator"><path d="M619.4,507.6 H636.0153846153846 V433.85000000000014 H646.4" stroke="#999" stroke-width="0.5" fill="none"></path></g><rect id="background" x="615.4" y="427.10000000000014" width="126.80000000000001" height="13.5" fill="#fff" opacity="0"></rect><text id="label" font-size="13.50" font-weight="400" x="650.4" y="438.8" fill="#c15065"><tspan x="650.4" y="438.84500000000014">New Caledonia</tspan></text></g><g id="mark__Papua-New-Guinea" class="legendMark" style="cursor:default"><g id="connector" class="indicator"><path d="M619.4,507.8 H638.0923076923077 V449.35000000000014 H646.4" stroke="#999" stroke-width="0.5" fill="none"></path></g><rect id="background" x="615.4" y="442.60000000000014" width="152.585" height="13.5" fill="#fff" opacity="0"></rect><text id="label" font-size="13.50" font-weight="400" x="650.4" y="454.3" fill="#4c6a9c"><tspan x="650.4" y="454.34500000000014">Papua New Guinea</tspan></text></g><g id="mark__Turkey" class="legendMark" style="cursor:default"><g id="connector" class="indicator"><path d="M619.4,507.9 H640.1692307692308 V464.85000000000014 H646.4" stroke="#999" stroke-width="0.5" fill="none"></path></g><rect id="background" x="615.4" y="458.10000000000014" width="76.31" height="13.5" fill="#fff" opacity="0"></rect><text id="label" font-size="13.50" font-weight="400" x="650.4" y="469.8" fill="#c15065"><tspan x="650.4" y="469.84500000000014">Turkey</tspan></text></g><g id="mark__Morocco" class="legendMark" style="cursor:default"><g id="connector" class="indicator"><path d="M619.4,508.9 H642.2461538461538 V480.35000000000014 H646.4" stroke="#999" stroke-width="0.5" fill="none"></path></g><rect id="background" x="615.4" y="473.60000000000014" width="86.84" height="13.5" fill="#fff" opacity="0"></rect><text id="label" font-size="13.50" font-weight="400" x="650.4" y="485.3" fill="#286bbb"><tspan x="650.4" y="485.34500000000014">Morocco</tspan></text></g><g id="mark__China" class="legendMark" style="cursor:default"><g id="connector" class="indicator"><path d="M619.4,509 H644.3230769230769 V495.85000000000014 H646.4" stroke="#999" stroke-width="0.5" fill="none"></path></g><rect id="background" x="615.4" y="489.10000000000014" width="70.37" height="13.5" fill="#fff" opacity="0"></rect><text id="label" font-size="13.50" font-weight="400" x="650.4" y="500.8" fill="#cf0a66"><tspan x="650.4" y="500.84500000000014">China</tspan></text></g><g id="mark__Canada" class="legendMark" style="cursor:default"><g id="connector" class="indicator"><path d="M619.4,509.2 H644.3230769230769 V511.35000000000014 H646.4" stroke="#999" stroke-width="0.5" fill="none"></path></g><rect id="background" x="615.4" y="504.60000000000014" width="82.52000000000001" height="13.5" fill="#fff" opacity="0"></rect><text id="label" font-size="13.50" font-weight="400" x="650.4" y="516.3" fill="#286bbb"><tspan x="650.4" y="516.3450000000001">Canada</tspan></text></g><g id="mark__United-States" class="legendMark" style="cursor:default"><g id="connector" class="indicator"><path d="M619.4,512.2 H642.2461538461538 V526.8500000000001 H646.4" stroke="#999" stroke-width="0.5" fill="none"></path></g><rect id="background" x="615.4" y="520.1000000000001" width="116.405" height="13.5" fill="#fff" opacity="0"></rect><text id="label" font-size="13.50" font-weight="400" x="650.4" y="531.8" fill="#6d3e91"><tspan x="650.4" y="531.8450000000001">United States</tspan></text></g></g><g id="lines" class="Lines"><rect x="78" y="89" width="538" height="424" fill="rgba(255,255,255,0)" opacity="0"></rect><g id="line__New-Caledonia"><path stroke-linecap="round" stroke-linejoin="round" stroke="#ddd" d="M611 509.4L615.4 507.6" fill="none" stroke-width="1"></path></g><g id="line__Turkey"><path stroke-linecap="round" stroke-linejoin="round" stroke="#ddd" d="M606.6 508.7L611 509.2L615.4 507.9" fill="none" stroke-width="1"></path></g><g id="line__United-States"><path stroke-linecap="round" stroke-linejoin="round" stroke="#ddd" d="M602.2 512L606.6 511.9L611 512.2L615.4 512.2" fill="none" stroke-width="1"></path></g><g id="line__Russia"><path stroke-linecap="round" stroke-linejoin="round" stroke="#ddd" d="M602.2 496.5L606.6 498.4L611 496.1L615.4 496.9" fill="none" stroke-width="1"></path></g><g id="line__Philippines"><path stroke-linecap="round" stroke-linejoin="round" stroke="#ddd" d="M602.2 504.8L606.6 506.5L611 505.9L615.4 506.1" fill="none" stroke-width="1"></path></g><g id="line__Papua-New-Guinea"><path stroke-linecap="round" stroke-linejoin="round" stroke="#ddd" d="M602.2 507.7L606.6 507.7L611 507.6L615.4 507.8" fill="none" stroke-width="1"></path></g><g id="line__Other"><path stroke-linecap="round" stroke-linejoin="round" stroke="#ddd" d="M602.2 499L606.6 504.7L611 500.9L615.4 500.9" fill="none" stroke-width="1"></path></g><g id="line__Morocco"><path stroke-linecap="round" stroke-linejoin="round" stroke="#ddd" d="M602.2 508.9L606.6 508.9L611 508.9" fill="none" stroke-width="1"></path></g><g id="line__Madagascar"><path stroke-linecap="round" stroke-linejoin="round" stroke="#ddd" d="M602.2 511.5L606.6 507.9L611 506.7L615.4 505.7" fill="none" stroke-width="1"></path></g><g id="line__Indonesia"><path stroke-linecap="round" stroke-linejoin="round" stroke="#ddd" d="M602.2 511.1L606.6 508.1L611 495.4L615.4 481.8" fill="none" stroke-width="1"></path></g><g id="line__Democratic-Republic-of-Congo"><path stroke-linecap="round" stroke-linejoin="round" stroke="#ddd" d="M602.2 332.5L606.6 293.8L611 247.7L615.4 199.8" fill="none" stroke-width="1"></path></g><g id="line__Cuba"><path stroke-linecap="round" stroke-linejoin="round" stroke="#ddd" d="M602.2 506.1L606.6 505.7L611 506.3L615.4 507.2" fill="none" stroke-width="1"></path></g><g id="line__China"><path stroke-linecap="round" stroke-linejoin="round" stroke="#ddd" d="M602.2 509L606.6 509L611 509" fill="none" stroke-width="1"></path></g><g id="line__Canada"><path stroke-linecap="round" stroke-linejoin="round" stroke="#ddd" d="M602.2 506.3L606.6 505.1L611 507.5L615.4 509.2" fill="none" stroke-width="1"></path></g><g id="line__Australia"><path stroke-linecap="round" stroke-linejoin="round" stroke="#ddd" d="M602.2 502.7L606.6 503.3L611 502.4L615.4 504.6" fill="none" stroke-width="1"></path></g><g id="line__World"><path stroke-linecap="round" stroke-linejoin="round" stroke="#ddd" d="M77.7 512.8L82.1 512.1L86.5 511.9L90.9 512.1L95.3 512.3L99.7 512.3L104.1 511.4L108.6 510.6L113 510.4L117.4 511.3L121.8 511.6L126.2 511.5L130.6 511.6L135 512.4L139.4 512.7L143.8 512.3L148.2 512.4L152.6 512.3L157 512.4L161.4 512.4L165.8 512.8L170.3 511.6L174.7 511.9L179.1 511.1L183.5 511.1L187.9 511.6L192.3 510.9L196.7 510.9L201.1 510.6L205.5 510.8L209.9 511.4L214.3 511.1L218.7 510.8L223.1 510.4L227.6 509.4L232 508.1L236.4 506.1L240.8 504.8L245.2 504.8L249.6 503.9L254 505.7L258.4 506.7L262.8 505.4L267.2 505.9L271.6 504.4L276 506.7L280.4 503.9L284.8 501.9L289.3 502.2L293.7 499.9L298.1 497.5L302.5 494.5L306.9 492.3L311.3 489L315.7 488.6L320.1 486.6L324.5 486.6L328.9 489.9L333.3 485.8L337.7 486.9L342.1 486.6L346.6 481.6L351 486.4L355.4 480.3L359.8 478.1L364.2 472.9L368.6 475.3L373 477L377.4 475.9L381.8 468.5L386.2 466.8L390.6 467.4L395 458.9L399.4 456.2L403.8 456.3L408.3 473.7L412.7 473.5L417.1 463.7L421.5 458L425.9 455.4L430.3 456.5L434.7 467.8L439.1 443.3L443.5 437.7L447.9 425.8L452.3 420.6L456.7 437.2L461.1 432.4L465.5 434L470 435.1L474.4 451.7L478.8 461.5L483.2 472.7L487.6 479.9L492 468L496.4 464.8L500.8 462.6L505.2 446.2L509.6 450.6L514 441.2L518.4 428.3L522.8 414.7L527.3 412.5L531.7 402L536.1 392.9L540.5 384.1L544.9 377.3L549.3 365.9L553.7 363.5L558.1 310.4L562.5 325.1L566.9 334.7L571.3 323.3L575.7 301.2L580.1 288.3L584.5 301.2L589 277.2L593.4 238.5L597.8 227.5L602.2 251.4L606.6 209L611 150.1L615.4 89.3" fill="none" stroke-width="1"></path></g><g id="line__New-Caledonia"><path id="outline" fill="none" stroke-linecap="butt" stroke-linejoin="round" stroke="#fff" stroke-width="2.5" d="M611 509.4L615.4 507.6"></path><g id="polyline"><polyline id="polyline" points="611.00,509.40 615.40,507.60" stroke-linejoin="round" stroke-width="1.5" stroke="#C15065" fill="none" stroke-linecap="butt"></polyline></g><g id="markers"><circle cx="611" cy="509.4" r="1.8" fill="#C15065"></circle><circle cx="615.4" cy="507.6" r="1.8" fill="#C15065"></circle></g></g><g id="line__Turkey"><path id="outline" fill="none" stroke-linecap="butt" stroke-linejoin="round" stroke="#fff" stroke-width="2.5" d="M606.6 508.7L611 509.2L615.4 507.9"></path><g id="polyline"><polyline id="polyline" points="606.60,508.70 611.00,509.20 615.40,507.90" stroke-linejoin="round" stroke-width="1.5" stroke="#C15065" fill="none" stroke-linecap="butt"></polyline></g><g id="markers"><circle cx="606.6" cy="508.7" r="1.8" fill="#C15065"></circle><circle cx="611" cy="509.2" r="1.8" fill="#C15065"></circle><circle cx="615.4" cy="507.9" r="1.8" fill="#C15065"></circle></g></g><g id="line__United-States"><path id="outline" fill="none" stroke-linecap="butt" stroke-linejoin="round" stroke="#fff" stroke-width="2.5" d="M602.2 512L606.6 511.9L611 512.2L615.4 512.2"></path><g id="polyline"><polyline id="polyline" points="602.20,512.00 606.60,511.90 611.00,512.20 615.40,512.20" stroke-linejoin="round" stroke-width="1.5" stroke="#6D3E91" fill="none" stroke-linecap="butt"></polyline></g><g id="markers"><circle cx="602.2" cy="512" r="1.8" fill="#6D3E91"></circle><circle cx="606.6" cy="511.9" r="1.8" fill="#6D3E91"></circle><circle cx="611" cy="512.2" r="1.8" fill="#6D3E91"></circle><circle cx="615.4" cy="512.2" r="1.8" fill="#6D3E91"></circle></g></g><g id="line__Russia"><path id="outline" fill="none" stroke-linecap="butt" stroke-linejoin="round" stroke="#fff" stroke-width="2.5" d="M602.2 496.5L606.6 498.4L611 496.1L615.4 496.9"></path><g id="polyline"><polyline id="polyline" points="602.20,496.50 606.60,498.40 611.00,496.10 615.40,496.90" stroke-linejoin="round" stroke-width="1.5" stroke="#A2559C" fill="none" stroke-linecap="butt"></polyline></g><g id="markers"><circle cx="602.2" cy="496.5" r="1.8" fill="#A2559C"></circle><circle cx="606.6" cy="498.4" r="1.8" fill="#A2559C"></circle><circle cx="611" cy="496.1" r="1.8" fill="#A2559C"></circle><circle cx="615.4" cy="496.9" r="1.8" fill="#A2559C"></circle></g></g><g id="line__Philippines"><path id="outline" fill="none" stroke-linecap="butt" stroke-linejoin="round" stroke="#fff" stroke-width="2.5" d="M602.2 504.8L606.6 506.5L611 505.9L615.4 506.1"></path><g id="polyline"><polyline id="polyline" points="602.20,504.80 606.60,506.50 611.00,505.90 615.40,506.10" stroke-linejoin="round" stroke-width="1.5" stroke="#00847E" fill="none" stroke-linecap="butt"></polyline></g><g id="markers"><circle cx="602.2" cy="504.8" r="1.8" fill="#00847E"></circle><circle cx="606.6" cy="506.5" r="1.8" fill="#00847E"></circle><circle cx="611" cy="505.9" r="1.8" fill="#00847E"></circle><circle cx="615.4" cy="506.1" r="1.8" fill="#00847E"></circle></g></g><g id="line__Papua-New-Guinea"><path id="outline" fill="none" stroke-linecap="butt" stroke-linejoin="round" stroke="#fff" stroke-width="2.5" d="M602.2 507.7L606.6 507.7L611 507.6L615.4 507.8"></path><g id="polyline"><polyline id="polyline" points="602.20,507.70 606.60,507.70 611.00,507.60 615.40,507.80" stroke-linejoin="round" stroke-width="1.5" stroke="#4C6A9C" fill="none" stroke-linecap="butt"></polyline></g><g id="markers"><circle cx="602.2" cy="507.7" r="1.8" fill="#4C6A9C"></circle><circle cx="606.6" cy="507.7" r="1.8" fill="#4C6A9C"></circle><circle cx="611" cy="507.6" r="1.8" fill="#4C6A9C"></circle><circle cx="615.4" cy="507.8" r="1.8" fill="#4C6A9C"></circle></g></g><g id="line__Other"><path id="outline" fill="none" stroke-linecap="butt" stroke-linejoin="round" stroke="#fff" stroke-width="2.5" d="M602.2 499L606.6 504.7L611 500.9L615.4 500.9"></path><g id="polyline"><polyline id="polyline" points="602.20,499.00 606.60,504.70 611.00,500.90 615.40,500.90" stroke-linejoin="round" stroke-width="1.5" stroke="#2C8465" fill="none" stroke-linecap="butt"></polyline></g><g id="markers"><circle cx="602.2" cy="499" r="1.8" fill="#2C8465"></circle><circle cx="606.6" cy="504.7" r="1.8" fill="#2C8465"></circle><circle cx="611" cy="500.9" r="1.8" fill="#2C8465"></circle><circle cx="615.4" cy="500.9" r="1.8" fill="#2C8465"></circle></g></g><g id="line__Morocco"><path id="outline" fill="none" stroke-linecap="butt" stroke-linejoin="round" stroke="#fff" stroke-width="2.5" d="M602.2 508.9L606.6 508.9L611 508.9"></path><g id="polyline"><polyline id="polyline" points="602.20,508.90 606.60,508.90 611.00,508.90" stroke-linejoin="round" stroke-width="1.5" stroke="#286BBB" fill="none" stroke-linecap="butt"></polyline></g><g id="markers"><circle cx="602.2" cy="508.9" r="1.8" fill="#286BBB"></circle><circle cx="606.6" cy="508.9" r="1.8" fill="#286BBB"></circle><circle cx="611" cy="508.9" r="1.8" fill="#286BBB"></circle></g></g><g id="line__Madagascar"><path id="outline" fill="none" stroke-linecap="butt" stroke-linejoin="round" stroke="#fff" stroke-width="2.5" d="M602.2 511.5L606.6 507.9L611 506.7L615.4 505.7"></path><g id="polyline"><polyline id="polyline" points="602.20,511.50 606.60,507.90 611.00,506.70 615.40,505.70" stroke-linejoin="round" stroke-width="1.5" stroke="#D73C50" fill="none" stroke-linecap="butt"></polyline></g><g id="markers"><circle cx="602.2" cy="511.5" r="1.8" fill="#D73C50"></circle><circle cx="606.6" cy="507.9" r="1.8" fill="#D73C50"></circle><circle cx="611" cy="506.7" r="1.8" fill="#D73C50"></circle><circle cx="615.4" cy="505.7" r="1.8" fill="#D73C50"></circle></g></g><g id="line__Indonesia"><path id="outline" fill="none" stroke-linecap="butt" stroke-linejoin="round" stroke="#fff" stroke-width="2.5" d="M602.2 511.1L606.6 508.1L611 495.4L615.4 481.8"></path><g id="polyline"><polyline id="polyline" points="602.20,511.10 606.60,508.10 611.00,495.40 615.40,481.80" stroke-linejoin="round" stroke-width="1.5" stroke="#008291" fill="none" stroke-linecap="butt"></polyline></g><g id="markers"><circle cx="602.2" cy="511.1" r="1.8" fill="#008291"></circle><circle cx="606.6" cy="508.1" r="1.8" fill="#008291"></circle><circle cx="611" cy="495.4" r="1.8" fill="#008291"></circle><circle cx="615.4" cy="481.8" r="1.8" fill="#008291"></circle></g></g><g id="line__Democratic-Republic-of-Congo"><path id="outline" fill="none" stroke-linecap="butt" stroke-linejoin="round" stroke="#fff" stroke-width="2.5" d="M602.2 332.5L606.6 293.8L611 247.7L615.4 199.8"></path><g id="polyline"><polyline id="polyline" points="602.20,332.50 606.60,293.80 611.00,247.70 615.40,199.80" stroke-linejoin="round" stroke-width="1.5" stroke="#338711" fill="none" stroke-linecap="butt"></polyline></g><g id="markers"><circle cx="602.2" cy="332.5" r="1.8" fill="#338711"></circle><circle cx="606.6" cy="293.8" r="1.8" fill="#338711"></circle><circle cx="611" cy="247.7" r="1.8" fill="#338711"></circle><circle cx="615.4" cy="199.8" r="1.8" fill="#338711"></circle></g></g><g id="line__Cuba"><path id="outline" fill="none" stroke-linecap="butt" stroke-linejoin="round" stroke="#fff" stroke-width="2.5" d="M602.2 506.1L606.6 505.7L611 506.3L615.4 507.2"></path><g id="polyline"><polyline id="polyline" points="602.20,506.10 606.60,505.70 611.00,506.30 615.40,507.20" stroke-linejoin="round" stroke-width="1.5" stroke="#00875E" fill="none" stroke-linecap="butt"></polyline></g><g id="markers"><circle cx="602.2" cy="506.1" r="1.8" fill="#00875E"></circle><circle cx="606.6" cy="505.7" r="1.8" fill="#00875E"></circle><circle cx="611" cy="506.3" r="1.8" fill="#00875E"></circle><circle cx="615.4" cy="507.2" r="1.8" fill="#00875E"></circle></g></g><g id="line__China"><path id="outline" fill="none" stroke-linecap="butt" stroke-linejoin="round" stroke="#fff" stroke-width="2.5" d="M602.2 509L606.6 509L611 509"></path><g id="polyline"><polyline id="polyline" points="602.20,509.00 606.60,509.00 611.00,509.00" stroke-linejoin="round" stroke-width="1.5" stroke="#CF0A66" fill="none" stroke-linecap="butt"></polyline></g><g id="markers"><circle cx="602.2" cy="509" r="1.8" fill="#CF0A66"></circle><circle cx="606.6" cy="509" r="1.8" fill="#CF0A66"></circle><circle cx="611" cy="509" r="1.8" fill="#CF0A66"></circle></g></g><g id="line__Canada"><path id="outline" fill="none" stroke-linecap="butt" stroke-linejoin="round" stroke="#fff" stroke-width="2.5" d="M602.2 506.3L606.6 505.1L611 507.5L615.4 509.2"></path><g id="polyline"><polyline id="polyline" points="602.20,506.30 606.60,505.10 611.00,507.50 615.40,509.20" stroke-linejoin="round" stroke-width="1.5" stroke="#286BBB" fill="none" stroke-linecap="butt"></polyline></g><g id="markers"><circle cx="602.2" cy="506.3" r="1.8" fill="#286BBB"></circle><circle cx="606.6" cy="505.1" r="1.8" fill="#286BBB"></circle><circle cx="611" cy="507.5" r="1.8" fill="#286BBB"></circle><circle cx="615.4" cy="509.2" r="1.8" fill="#286BBB"></circle></g></g><g id="line__Australia"><path id="outline" fill="none" stroke-linecap="butt" stroke-linejoin="round" stroke="#fff" stroke-width="2.5" d="M602.2 502.7L606.6 503.3L611 502.4L615.4 504.6"></path><g id="polyline"><polyline id="polyline" points="602.20,502.70 606.60,503.30 611.00,502.40 615.40,504.60" stroke-linejoin="round" stroke-width="1.5" stroke="#2C8465" fill="none" stroke-linecap="butt"></polyline></g><g id="markers"><circle cx="602.2" cy="502.7" r="1.8" fill="#2C8465"></circle><circle cx="606.6" cy="503.3" r="1.8" fill="#2C8465"></circle><circle cx="611" cy="502.4" r="1.8" fill="#2C8465"></circle><circle cx="615.4" cy="504.6" r="1.8" fill="#2C8465"></circle></g></g><g id="line__World"><path id="outline" fill="none" stroke-linecap="butt" stroke-linejoin="round" stroke="#fff" stroke-width="2.5" d="M77.7 512.8L82.1 512.1L86.5 511.9L90.9 512.1L95.3 512.3L99.7 512.3L104.1 511.4L108.6 510.6L113 510.4L117.4 511.3L121.8 511.6L126.2 511.5L130.6 511.6L135 512.4L139.4 512.7L143.8 512.3L148.2 512.4L152.6 512.3L157 512.4L161.4 512.4L165.8 512.8L170.3 511.6L174.7 511.9L179.1 511.1L183.5 511.1L187.9 511.6L192.3 510.9L196.7 510.9L201.1 510.6L205.5 510.8L209.9 511.4L214.3 511.1L218.7 510.8L223.1 510.4L227.6 509.4L232 508.1L236.4 506.1L240.8 504.8L245.2 504.8L249.6 503.9L254 505.7L258.4 506.7L262.8 505.4L267.2 505.9L271.6 504.4L276 506.7L280.4 503.9L284.8 501.9L289.3 502.2L293.7 499.9L298.1 497.5L302.5 494.5L306.9 492.3L311.3 489L315.7 488.6L320.1 486.6L324.5 486.6L328.9 489.9L333.3 485.8L337.7 486.9L342.1 486.6L346.6 481.6L351 486.4L355.4 480.3L359.8 478.1L364.2 472.9L368.6 475.3L373 477L377.4 475.9L381.8 468.5L386.2 466.8L390.6 467.4L395 458.9L399.4 456.2L403.8 456.3L408.3 473.7L412.7 473.5L417.1 463.7L421.5 458L425.9 455.4L430.3 456.5L434.7 467.8L439.1 443.3L443.5 437.7L447.9 425.8L452.3 420.6L456.7 437.2L461.1 432.4L465.5 434L470 435.1L474.4 451.7L478.8 461.5L483.2 472.7L487.6 479.9L492 468L496.4 464.8L500.8 462.6L505.2 446.2L509.6 450.6L514 441.2L518.4 428.3L522.8 414.7L527.3 412.5L531.7 402L536.1 392.9L540.5 384.1L544.9 377.3L549.3 365.9L553.7 363.5L558.1 310.4L562.5 325.1L566.9 334.7L571.3 323.3L575.7 301.2L580.1 288.3L584.5 301.2L589 277.2L593.4 238.5L597.8 227.5L602.2 251.4L606.6 209L611 150.1L615.4 89.3"></path><g id="polyline"><polyline id="polyline" points="77.70,512.80 82.10,512.10 86.50,511.90 90.90,512.10 95.30,512.30 99.70,512.30 104.10,511.40 108.60,510.60 113.00,510.40 117.40,511.30 121.80,511.60 126.20,511.50 130.60,511.60 135.00,512.40 139.40,512.70 143.80,512.30 148.20,512.40 152.60,512.30 157.00,512.40 161.40,512.40 165.80,512.80 170.30,511.60 174.70,511.90 179.10,511.10 183.50,511.10 187.90,511.60 192.30,510.90 196.70,510.90 201.10,510.60 205.50,510.80 209.90,511.40 214.30,511.10 218.70,510.80 223.10,510.40 227.60,509.40 232.00,508.10 236.40,506.10 240.80,504.80 245.20,504.80 249.60,503.90 254.00,505.70 258.40,506.70 262.80,505.40 267.20,505.90 271.60,504.40 276.00,506.70 280.40,503.90 284.80,501.90 289.30,502.20 293.70,499.90 298.10,497.50 302.50,494.50 306.90,492.30 311.30,489.00 315.70,488.60 320.10,486.60 324.50,486.60 328.90,489.90 333.30,485.80 337.70,486.90 342.10,486.60 346.60,481.60 351.00,486.40 355.40,480.30 359.80,478.10 364.20,472.90 368.60,475.30 373.00,477.00 377.40,475.90 381.80,468.50 386.20,466.80 390.60,467.40 395.00,458.90 399.40,456.20 403.80,456.30 408.30,473.70 412.70,473.50 417.10,463.70 421.50,458.00 425.90,455.40 430.30,456.50 434.70,467.80 439.10,443.30 443.50,437.70 447.90,425.80 452.30,420.60 456.70,437.20 461.10,432.40 465.50,434.00 470.00,435.10 474.40,451.70 478.80,461.50 483.20,472.70 487.60,479.90 492.00,468.00 496.40,464.80 500.80,462.60 505.20,446.20 509.60,450.60 514.00,441.20 518.40,428.30 522.80,414.70 527.30,412.50 531.70,402.00 536.10,392.90 540.50,384.10 544.90,377.30 549.30,365.90 553.70,363.50 558.10,310.40 562.50,325.10 566.90,334.70 571.30,323.30 575.70,301.20 580.10,288.30 584.50,301.20 589.00,277.20 593.40,238.50 597.80,227.50 602.20,251.40 606.60,209.00 611.00,150.10 615.40,89.30" stroke-linejoin="round" stroke-width="1.5" stroke="#C15065" fill="none" stroke-linecap="butt"></polyline></g><g id="markers"><circle cx="77.7" cy="512.8" r="1.8" fill="#C15065"></circle><circle cx="82.1" cy="512.1" r="1.8" fill="#C15065"></circle><circle cx="86.5" cy="511.9" r="1.8" fill="#C15065"></circle><circle cx="90.9" cy="512.1" r="1.8" fill="#C15065"></circle><circle cx="95.3" cy="512.3" r="1.8" fill="#C15065"></circle><circle cx="99.7" cy="512.3" r="1.8" fill="#C15065"></circle><circle cx="104.1" cy="511.4" r="1.8" fill="#C15065"></circle><circle cx="108.6" cy="510.6" r="1.8" fill="#C15065"></circle><circle cx="113" cy="510.4" r="1.8" fill="#C15065"></circle><circle cx="117.4" cy="511.3" r="1.8" fill="#C15065"></circle><circle cx="121.8" cy="511.6" r="1.8" fill="#C15065"></circle><circle cx="126.2" cy="511.5" r="1.8" fill="#C15065"></circle><circle cx="130.6" cy="511.6" r="1.8" fill="#C15065"></circle><circle cx="135" cy="512.4" r="1.8" fill="#C15065"></circle><circle cx="139.4" cy="512.7" r="1.8" fill="#C15065"></circle><circle cx="143.8" cy="512.3" r="1.8" fill="#C15065"></circle><circle cx="148.2" cy="512.4" r="1.8" fill="#C15065"></circle><circle cx="152.6" cy="512.3" r="1.8" fill="#C15065"></circle><circle cx="157" cy="512.4" r="1.8" fill="#C15065"></circle><circle cx="161.4" cy="512.4" r="1.8" fill="#C15065"></circle><circle cx="165.8" cy="512.8" r="1.8" fill="#C15065"></circle><circle cx="170.3" cy="511.6" r="1.8" fill="#C15065"></circle><circle cx="174.7" cy="511.9" r="1.8" fill="#C15065"></circle><circle cx="179.1" cy="511.1" r="1.8" fill="#C15065"></circle><circle cx="183.5" cy="511.1" r="1.8" fill="#C15065"></circle><circle cx="187.9" cy="511.6" r="1.8" fill="#C15065"></circle><circle cx="192.3" cy="510.9" r="1.8" fill="#C15065"></circle><circle cx="196.7" cy="510.9" r="1.8" fill="#C15065"></circle><circle cx="201.1" cy="510.6" r="1.8" fill="#C15065"></circle><circle cx="205.5" cy="510.8" r="1.8" fill="#C15065"></circle><circle cx="209.9" cy="511.4" r="1.8" fill="#C15065"></circle><circle cx="214.3" cy="511.1" r="1.8" fill="#C15065"></circle><circle cx="218.7" cy="510.8" r="1.8" fill="#C15065"></circle><circle cx="223.1" cy="510.4" r="1.8" fill="#C15065"></circle><circle cx="227.6" cy="509.4" r="1.8" fill="#C15065"></circle><circle cx="232" cy="508.1" r="1.8" fill="#C15065"></circle><circle cx="236.4" cy="506.1" r="1.8" fill="#C15065"></circle><circle cx="240.8" cy="504.8" r="1.8" fill="#C15065"></circle><circle cx="245.2" cy="504.8" r="1.8" fill="#C15065"></circle><circle cx="249.6" cy="503.9" r="1.8" fill="#C15065"></circle><circle cx="254" cy="505.7" r="1.8" fill="#C15065"></circle><circle cx="258.4" cy="506.7" r="1.8" fill="#C15065"></circle><circle cx="262.8" cy="505.4" r="1.8" fill="#C15065"></circle><circle cx="267.2" cy="505.9" r="1.8" fill="#C15065"></circle><circle cx="271.6" cy="504.4" r="1.8" fill="#C15065"></circle><circle cx="276" cy="506.7" r="1.8" fill="#C15065"></circle><circle cx="280.4" cy="503.9" r="1.8" fill="#C15065"></circle><circle cx="284.8" cy="501.9" r="1.8" fill="#C15065"></circle><circle cx="289.3" cy="502.2" r="1.8" fill="#C15065"></circle><circle cx="293.7" cy="499.9" r="1.8" fill="#C15065"></circle><circle cx="298.1" cy="497.5" r="1.8" fill="#C15065"></circle><circle cx="302.5" cy="494.5" r="1.8" fill="#C15065"></circle><circle cx="306.9" cy="492.3" r="1.8" fill="#C15065"></circle><circle cx="311.3" cy="489" r="1.8" fill="#C15065"></circle><circle cx="315.7" cy="488.6" r="1.8" fill="#C15065"></circle><circle cx="320.1" cy="486.6" r="1.8" fill="#C15065"></circle><circle cx="324.5" cy="486.6" r="1.8" fill="#C15065"></circle><circle cx="328.9" cy="489.9" r="1.8" fill="#C15065"></circle><circle cx="333.3" cy="485.8" r="1.8" fill="#C15065"></circle><circle cx="337.7" cy="486.9" r="1.8" fill="#C15065"></circle><circle cx="342.1" cy="486.6" r="1.8" fill="#C15065"></circle><circle cx="346.6" cy="481.6" r="1.8" fill="#C15065"></circle><circle cx="351" cy="486.4" r="1.8" fill="#C15065"></circle><circle cx="355.4" cy="480.3" r="1.8" fill="#C15065"></circle><circle cx="359.8" cy="478.1" r="1.8" fill="#C15065"></circle><circle cx="364.2" cy="472.9" r="1.8" fill="#C15065"></circle><circle cx="368.6" cy="475.3" r="1.8" fill="#C15065"></circle><circle cx="373" cy="477" r="1.8" fill="#C15065"></circle><circle cx="377.4" cy="475.9" r="1.8" fill="#C15065"></circle><circle cx="381.8" cy="468.5" r="1.8" fill="#C15065"></circle><circle cx="386.2" cy="466.8" r="1.8" fill="#C15065"></circle><circle cx="390.6" cy="467.4" r="1.8" fill="#C15065"></circle><circle cx="395" cy="458.9" r="1.8" fill="#C15065"></circle><circle cx="399.4" cy="456.2" r="1.8" fill="#C15065"></circle><circle cx="403.8" cy="456.3" r="1.8" fill="#C15065"></circle><circle cx="408.3" cy="473.7" r="1.8" fill="#C15065"></circle><circle cx="412.7" cy="473.5" r="1.8" fill="#C15065"></circle><circle cx="417.1" cy="463.7" r="1.8" fill="#C15065"></circle><circle cx="421.5" cy="458" r="1.8" fill="#C15065"></circle><circle cx="425.9" cy="455.4" r="1.8" fill="#C15065"></circle><circle cx="430.3" cy="456.5" r="1.8" fill="#C15065"></circle><circle cx="434.7" cy="467.8" r="1.8" fill="#C15065"></circle><circle cx="439.1" cy="443.3" r="1.8" fill="#C15065"></circle><circle cx="443.5" cy="437.7" r="1.8" fill="#C15065"></circle><circle cx="447.9" cy="425.8" r="1.8" fill="#C15065"></circle><circle cx="452.3" cy="420.6" r="1.8" fill="#C15065"></circle><circle cx="456.7" cy="437.2" r="1.8" fill="#C15065"></circle><circle cx="461.1" cy="432.4" r="1.8" fill="#C15065"></circle><circle cx="465.5" cy="434" r="1.8" fill="#C15065"></circle><circle cx="470" cy="435.1" r="1.8" fill="#C15065"></circle><circle cx="474.4" cy="451.7" r="1.8" fill="#C15065"></circle><circle cx="478.8" cy="461.5" r="1.8" fill="#C15065"></circle><circle cx="483.2" cy="472.7" r="1.8" fill="#C15065"></circle><circle cx="487.6" cy="479.9" r="1.8" fill="#C15065"></circle><circle cx="492" cy="468" r="1.8" fill="#C15065"></circle><circle cx="496.4" cy="464.8" r="1.8" fill="#C15065"></circle><circle cx="500.8" cy="462.6" r="1.8" fill="#C15065"></circle><circle cx="505.2" cy="446.2" r="1.8" fill="#C15065"></circle><circle cx="509.6" cy="450.6" r="1.8" fill="#C15065"></circle><circle cx="514" cy="441.2" r="1.8" fill="#C15065"></circle><circle cx="518.4" cy="428.3" r="1.8" fill="#C15065"></circle><circle cx="522.8" cy="414.7" r="1.8" fill="#C15065"></circle><circle cx="527.3" cy="412.5" r="1.8" fill="#C15065"></circle><circle cx="531.7" cy="402" r="1.8" fill="#C15065"></circle><circle cx="536.1" cy="392.9" r="1.8" fill="#C15065"></circle><circle cx="540.5" cy="384.1" r="1.8" fill="#C15065"></circle><circle cx="544.9" cy="377.3" r="1.8" fill="#C15065"></circle><circle cx="549.3" cy="365.9" r="1.8" fill="#C15065"></circle><circle cx="553.7" cy="363.5" r="1.8" fill="#C15065"></circle><circle cx="558.1" cy="310.4" r="1.8" fill="#C15065"></circle><circle cx="562.5" cy="325.1" r="1.8" fill="#C15065"></circle><circle cx="566.9" cy="334.7" r="1.8" fill="#C15065"></circle><circle cx="571.3" cy="323.3" r="1.8" fill="#C15065"></circle><circle cx="575.7" cy="301.2" r="1.8" fill="#C15065"></circle><circle cx="580.1" cy="288.3" r="1.8" fill="#C15065"></circle><circle cx="584.5" cy="301.2" r="1.8" fill="#C15065"></circle><circle cx="589" cy="277.2" r="1.8" fill="#C15065"></circle><circle cx="593.4" cy="238.5" r="1.8" fill="#C15065"></circle><circle cx="597.8" cy="227.5" r="1.8" fill="#C15065"></circle><circle cx="602.2" cy="251.4" r="1.8" fill="#C15065"></circle><circle cx="606.6" cy="209" r="1.8" fill="#C15065"></circle><circle cx="611" cy="150.1" r="1.8" fill="#C15065"></circle><circle cx="615.4" cy="89.3" r="1.8" fill="#C15065"></circle></g></g></g></g></g></g><g id="footer" class="SourcesFooter" style="fill:#5b5b5b"><g id="sources" class="markdown-text-wrap"><text x="16.0" y="562.7" style="font-size:13.5px;line-height:1.2"><tspan x="16" y="562.7"><tspan style="font-weight:700">Data source:</tspan> USGS - Mineral Commodity Summaries (2024); USGS - Historical Statistics for Mineral and Material Commodities (2023)</tspan></text></g><text id="origin-url" font-size="13.50" x="16.0" y="580.9"><tspan x="16" y="580.8950000000001"><a target="_blank" style="fill: #5b5b5b;" href="https://creativecommons.org/licenses/by/4.0/">CC BY</a></tspan></text></g><line id="separator-line" x1="16" y1="600" x2="834" y2="600" stroke="#e7e7e7"></line><g id="details" transform="translate(15, 616)"><g class="markdown-text-wrap"><text x="0.0" y="12.0" style="font-size:12.375px;fill:#5b5b5b;line-height:1.2"><tspan x="0" y="12.0"><tspan style="font-weight:700">1.</tspan> <tspan style="font-weight:700">Cobalt</tspan>: Cobalt is used in a number of industries: consumer electronics (it’s in most mobile phones and laptops), catalysts for the oil industry,</tspan><tspan x="0" y="26.9">resistant metal alloys, and ceramics. In clean energy, it’s mostly used in electric vehicles. Cobalt is a critical element in lithium-ion batteries, which</tspan><tspan x="0" y="41.7">are the dominant battery technology today.</tspan></text></g><g class="markdown-text-wrap"><text x="0.0" y="64.6" style="font-size:12.375px;fill:#5b5b5b;line-height:1.2"><tspan x="0" y="64.6"><tspan style="font-weight:700">2.</tspan> <tspan style="font-weight:700">Refined production</tspan>: Refined production is the process of taking raw materials, such as metals extracted from ores, and purifying them to achieve</tspan><tspan x="0" y="79.4">a higher quality or more usable form. After metals are initially extracted from ore through processes like smelting, they often contain impurities or are</tspan><tspan x="0" y="94.3">not in the ideal form for manufacturing. Refining involves further processing these metals to remove impurities and adjust their composition to meet</tspan><tspan x="0" y="109.1">specific standards. Refined production is essential for transforming raw materials into high-quality metals that are crucial for industries and</tspan><tspan x="0" y="124.0">consumers, from manufacturing electronics to constructing buildings.</tspan></text></g></g></svg>