<svg xmlns="http://www.w3.org/2000/svg" version="1.1" style="font-family:Lato, &#x27;Helvetica Neue&#x27;, Helvetica, Arial, &#x27;Liberation Sans&#x27;, sans-serif;font-size:18px;background-color:white;text-rendering:geometricPrecision;-webkit-font-smoothing:antialiased" width="850" height="706.25" viewBox="0 0 850 706.25"><defs><style>@import url(https://ourworldindata.org/fonts.css)</style></defs><defs><pattern id="noDataPattern" patternUnits="userSpaceOnUse" width="4" height="4" patternTransform="rotate(-45 2 2)"><path d="M -1,2 l 6,0" stroke="#ccc" stroke-width="0.7"></path></pattern></defs><rect class="background-fill" fill="white" width="850" height="706.25"></rect><g id="header" class="HeaderView"><g id="logo" transform="translate(769, 16) scale(1)"><svg className="owidLogo" xmlns="http://www.w3.org/2000/svg" width="65" height="36" viewBox="0 0 65 36"  fill="none"><path fill="#002147" d="M0 0h64.8v36H0z"/><path fill="#CE261E" d="M0 33.3h64.8V36H0z"/><path fill="#fff" d="M13.796 10.575c0 .636-.106 1.226-.318 1.77a4.193 4.193 0 0 1-.894 1.404 4.084 4.084 0 0 1-1.386.93c-.54.22-1.138.33-1.794.33-.656 0-1.256-.11-1.8-.33a4.149 4.149 0 0 1-1.392-.93 4.193 4.193 0 0 1-.894-1.404A4.833 4.833 0 0 1 5 10.575c0-.636.106-1.224.318-1.764a4.18 4.18 0 0 1 .894-1.41 4.076 4.076 0 0 1 1.392-.924 4.684 4.684 0 0 1 1.8-.336c.656 0 1.254.112 1.794.336.54.224 1.002.534 1.386.93.384.392.682.86.894 1.404.212.54.318 1.128.318 1.764Zm-1.656 0c0-.476-.064-.902-.192-1.278a2.671 2.671 0 0 0-.54-.966 2.332 2.332 0 0 0-.864-.606 2.94 2.94 0 0 0-1.14-.21c-.424 0-.806.07-1.146.21-.34.14-.63.342-.87.606a2.742 2.742 0 0 0-.546.966 3.955 3.955 0 0 0-.192 1.278c0 .476.064.904.192 1.284.128.376.31.696.546.96.24.26.53.46.87.6.34.14.722.21 1.146.21.424 0 .804-.07 1.14-.21.34-.14.628-.34.864-.6.236-.264.416-.584.54-.96a4.01 4.01 0 0 0 .192-1.284ZM16.104 8.757v3.912c0 .376.086.668.258.876.176.204.438.306.786.306.256 0 .496-.056.72-.168a2.58 2.58 0 0 0 .636-.474V8.757h1.482v6.156h-.906c-.192 0-.318-.09-.378-.27l-.102-.492a4.65 4.65 0 0 1-.396.354 2.577 2.577 0 0 1-.438.27 2.35 2.35 0 0 1-.498.168 2.345 2.345 0 0 1-.57.066c-.336 0-.634-.056-.894-.168a1.821 1.821 0 0 1-.648-.486 2.157 2.157 0 0 1-.402-.738 3.233 3.233 0 0 1-.132-.948V8.757h1.482ZM21.328 14.913V8.757h.87c.152 0 .258.028.318.084.06.056.1.152.12.288l.09.744c.22-.38.478-.68.774-.9.296-.22.628-.33.996-.33.304 0 .556.07.756.21l-.192 1.11c-.012.072-.038.124-.078.156a.278.278 0 0 1-.162.042 1.01 1.01 0 0 1-.246-.042 1.646 1.646 0 0 0-.414-.042c-.308 0-.572.086-.792.258-.22.168-.406.416-.558.744v3.834h-1.482ZM27.347 6.237h1.356a.57.57 0 0 1 .348.102c.096.064.16.152.192.264l1.476 5.19c.036.128.068.268.096.42.032.148.062.306.09.474a5.968 5.968 0 0 1 .228-.894l1.704-5.19a.575.575 0 0 1 .186-.252.543.543 0 0 1 .348-.114h.474a.57.57 0 0 1 .348.102.497.497 0 0 1 .192.264l1.692 5.19c.088.256.164.54.228.852.028-.156.056-.306.084-.45.032-.144.064-.278.096-.402l1.476-5.19c.028-.1.09-.186.186-.258a.563.563 0 0 1 .348-.108h1.266l-2.694 8.676h-1.458l-1.896-5.928-.078-.246a9.504 9.504 0 0 1-.072-.282c-.024.1-.05.194-.078.282-.024.088-.048.17-.072.246l-1.914 5.928H30.04l-2.694-8.676ZM42.771 8.661c.46 0 .876.074 1.248.222.376.148.696.358.96.63s.468.604.612.996c.144.392.216.83.216 1.314 0 .488-.072.928-.216 1.32a2.85 2.85 0 0 1-.612 1.002 2.653 2.653 0 0 1-.96.636 3.35 3.35 0 0 1-1.248.222c-.46 0-.878-.074-1.254-.222a2.712 2.712 0 0 1-.966-.636 2.922 2.922 0 0 1-.618-1.002 3.807 3.807 0 0 1-.216-1.32c0-.484.072-.922.216-1.314.148-.392.354-.724.618-.996.268-.272.59-.482.966-.63a3.397 3.397 0 0 1 1.254-.222Zm0 5.202c.512 0 .89-.172 1.134-.516.248-.344.372-.848.372-1.512s-.124-1.17-.372-1.518c-.244-.348-.622-.522-1.134-.522-.52 0-.904.176-1.152.528-.248.348-.372.852-.372 1.512s.124 1.164.372 1.512c.248.344.632.516 1.152.516ZM46.723 14.913V8.757h.87c.152 0 .258.028.318.084.06.056.1.152.12.288l.09.744c.22-.38.478-.68.774-.9.296-.22.628-.33.996-.33.304 0 .556.07.756.21l-.192 1.11c-.012.072-.038.124-.078.156a.278.278 0 0 1-.162.042 1.01 1.01 0 0 1-.246-.042 1.646 1.646 0 0 0-.414-.042c-.308 0-.572.086-.792.258-.22.168-.406.416-.558.744v3.834h-1.482ZM52.96 5.997v8.916h-1.482V5.997h1.482ZM58.732 14.913c-.192 0-.318-.09-.378-.27l-.12-.594a3.68 3.68 0 0 1-.402.39c-.14.116-.292.216-.456.3-.16.084-.334.148-.522.192a2.372 2.372 0 0 1-.6.072c-.336 0-.644-.07-.924-.21a2.098 2.098 0 0 1-.726-.606 3.033 3.033 0 0 1-.468-.99 5.072 5.072 0 0 1-.162-1.344c0-.456.062-.88.186-1.272s.302-.732.534-1.02c.232-.288.51-.512.834-.672a2.384 2.384 0 0 1 1.092-.246 2.103 2.103 0 0 1 1.536.606V5.997h1.482v8.916h-.906Zm-1.974-1.086c.308 0 .57-.064.786-.192.216-.128.42-.31.612-.546v-2.76a1.452 1.452 0 0 0-.552-.432 1.597 1.597 0 0 0-.636-.126c-.224 0-.428.042-.612.126a1.21 1.21 0 0 0-.462.384c-.124.168-.22.384-.288.648-.068.26-.102.568-.102.924 0 .36.028.666.084.918.06.248.144.452.252.612.108.156.24.27.396.342.156.068.33.102.522.102ZM16.331 20.757v6.156H14.85v-6.156h1.481Zm.223-1.794a.844.844 0 0 1-.078.36.963.963 0 0 1-.21.294.995.995 0 0 1-.3.204.963.963 0 0 1-.372.072.948.948 0 0 1-.367-.072 1.018 1.018 0 0 1-.498-.498.963.963 0 0 1 0-.732.995.995 0 0 1 .205-.3.929.929 0 0 1 .293-.198.899.899 0 0 1 .738 0 .912.912 0 0 1 .3.198.943.943 0 0 1 .288.672ZM17.771 26.913v-6.156h.906c.192 0 .318.09.378.27l.102.486a2.934 2.934 0 0 1 .828-.618c.156-.076.322-.134.498-.174.176-.04.368-.06.576-.06.336 0 .634.058.894.174.26.112.476.272.648.48.176.204.308.45.396.738.092.284.138.598.138.942v3.918h-1.482v-3.918c0-.376-.088-.666-.264-.87-.172-.208-.432-.312-.78-.312-.256 0-.496.058-.72.174a2.58 2.58 0 0 0-.636.474v4.452h-1.482ZM34.22 22.575c0 .636-.106 1.22-.318 1.752-.212.532-.51.99-.894 1.374a4 4 0 0 1-1.386.894 4.87 4.87 0 0 1-1.794.318h-3.312v-8.676h3.312a4.79 4.79 0 0 1 1.794.324 4 4 0 0 1 1.386.894c.384.38.682.836.894 1.368.212.532.318 1.116.318 1.752Zm-1.65 0c0-.476-.064-.902-.192-1.278a2.68 2.68 0 0 0-.546-.96 2.332 2.332 0 0 0-.864-.606 2.94 2.94 0 0 0-1.14-.21h-1.686v6.108h1.686c.424 0 .804-.07 1.14-.21.34-.14.628-.34.864-.6a2.75 2.75 0 0 0 .546-.96 4.01 4.01 0 0 0 .192-1.284ZM39.98 26.913h-.665c-.14 0-.25-.02-.33-.06-.08-.044-.14-.13-.18-.258l-.132-.438c-.156.14-.31.264-.462.372a2.804 2.804 0 0 1-.462.264c-.16.072-.33.126-.51.162-.18.036-.38.054-.6.054-.26 0-.5-.034-.72-.102a1.618 1.618 0 0 1-.57-.318 1.448 1.448 0 0 1-.366-.522 1.852 1.852 0 0 1-.132-.726c0-.232.06-.46.18-.684.124-.228.328-.432.612-.612.284-.184.662-.336 1.134-.456.472-.12 1.058-.188 1.758-.204v-.36c0-.412-.088-.716-.264-.912-.172-.2-.424-.3-.756-.3a1.837 1.837 0 0 0-1.02.276c-.116.068-.224.13-.324.186a.664.664 0 0 1-.33.084.429.429 0 0 1-.258-.078.614.614 0 0 1-.174-.192l-.27-.474c.708-.648 1.562-.972 2.562-.972.36 0 .68.06.96.18.284.116.524.28.72.492.196.208.344.458.444.75.104.292.156.612.156.96v3.888Zm-2.88-.924c.153 0 .293-.014.42-.042.129-.028.249-.07.36-.126.117-.056.227-.124.33-.204.109-.084.217-.182.325-.294v-1.038c-.432.02-.794.058-1.086.114-.288.052-.52.12-.696.204a.923.923 0 0 0-.378.294.664.664 0 0 0-.108.366c0 .26.076.446.228.558.156.112.358.168.606.168ZM43.22 27.01c-.532 0-.942-.15-1.23-.45-.288-.305-.432-.723-.432-1.255v-3.438h-.624a.31.31 0 0 1-.21-.078c-.056-.052-.084-.13-.084-.234v-.588l.99-.162.312-1.68a.302.302 0 0 1 .108-.186.365.365 0 0 1 .222-.066h.768v1.938h1.62v1.056h-1.62v3.336c0 .192.048.342.144.45a.488.488 0 0 0 .384.162c.092 0 .168-.01.228-.03.064-.024.118-.048.162-.072.048-.024.09-.046.126-.066a.194.194 0 0 1 .108-.036.16.16 0 0 1 .108.036c.028.02.058.052.09.096l.444.72c-.216.18-.464.316-.744.408a2.77 2.77 0 0 1-.87.138ZM50.423 26.913h-.666c-.14 0-.25-.02-.33-.06-.08-.044-.14-.13-.18-.258l-.132-.438c-.156.14-.31.264-.462.372a2.804 2.804 0 0 1-.462.264c-.16.072-.33.126-.51.162-.18.036-.38.054-.6.054-.26 0-.5-.034-.72-.102a1.618 1.618 0 0 1-.57-.318 1.448 1.448 0 0 1-.366-.522 1.852 1.852 0 0 1-.132-.726c0-.232.06-.46.18-.684.124-.228.328-.432.612-.612.284-.184.662-.336 1.134-.456.472-.12 1.058-.188 1.758-.204v-.36c0-.412-.088-.716-.264-.912-.172-.2-.424-.3-.756-.3a1.837 1.837 0 0 0-1.02.276c-.116.068-.224.13-.324.186a.664.664 0 0 1-.33.084.429.429 0 0 1-.258-.078.614.614 0 0 1-.174-.192l-.27-.474c.708-.648 1.562-.972 2.562-.972.36 0 .68.06.96.18.284.116.524.28.72.492.196.208.344.458.444.75.104.292.156.612.156.96v3.888Zm-2.88-.924c.152 0 .292-.014.42-.042.128-.028.248-.07.36-.126.116-.056.226-.124.33-.204.108-.084.216-.182.324-.294v-1.038c-.432.02-.794.058-1.086.114-.288.052-.52.12-.696.204a.923.923 0 0 0-.378.294.664.664 0 0 0-.108.366c0 .26.076.446.228.558.156.112.358.168.606.168Z"/></svg></g><a id="title" href="https://ourworldindata.org/explorers/minerals?Mineral=Tin&amp;Metric=Production&amp;Type=Smelter&amp;Share+of+global=false&amp;country=AUS~CHL~CHN~USA~CAN~ALB~DZA~ARG~ARM~AUT~AZE~BOL~OWID_WRL~BWA~BRA~BGR~COL~COG~CUB~CYP~OWID_CZS~COD~DOM~OWID_GDR~ZWE~ZMB~OWID_YGS~OWID_GFR~VNM~UZB~GBR~UGA~OWID_USS~TUR~TZA~TJK~TWN~SWE~ESP~KOR~ZAF~SVK~OWID_SRM~SRB~SAU~RUS~ROU~PRT~POL~PHL~PER~PNG~PAN~PAK~OMN~NOR~MKD~PRK~NIC~NZL~NAM~MMR~MOZ~MAR~MNG~MEX~MRT~MYS~LAO~KGZ~KEN~KAZ~JPN~ITA~ISR~IRL~IRN~IDN~IND~HUN~HND~HTI~GTM~GRC~DEU~GEO~FRA~FIN~ERI~ECU~VEN~ARE~UKR~CHE~SUR~LKA~SVN~QAT~NGA~NLD~MNE~ISL~GHA~EGY~HRV~CMR~BIH~BHR~AFG~OWID_KOS~MDG~NCL~SDN~Other~CZE~THA~TUN~CIV~GAB~RWA~NER~ETH~BDI~GRL~BLR~JOR~BEL" style="font-family:&#x27;Playfair Display&#x27;, Georgia, &#x27;Times New Roman&#x27;, &#x27;Liberation Serif&#x27;, serif" target="_blank" rel="noopener"><text font-size="24.75" font-weight="600" x="16.0" y="40.0" fill="#5b5b5b"><tspan x="16" y="40.0075">Tin production, 1970 to 2022</tspan></text></a><g id="subtitle" class="markdown-text-wrap"><text x="16.0" y="63.9" style="font-size:14.625px;line-height:1.2" fill="#5b5b5b"><tspan x="16" y="63.9">Measured in tonnes. <tspan class="dod-span" data-id="smelting">Smelting<tspan style="font-feature-settings:&quot;sups&quot;">ยน</tspan></tspan> takes raw minerals and produces metals through high-temperature processes.</tspan></text></g></g><g id="chart-area" style="pointer-events:none"><g id="line-chart" class="LineChart"><defs><clipPath id="boundsClip-107"><rect x="67.7" y="73.25" width="838" height="488.55"></rect></clipPath></defs><rect x="16" y="83.25" width="818" height="468.55" fill="none"></rect><g id="dual-axis" class="DualAxisView"><g id="horizontal-axis" class="HorizontalAxis"><g id="tick__1970"><line x1="77.7" y1="530.8" x2="77.7" y2="536.3" stroke="#999" stroke-width="1"></line><text x="77.7" y="549.8" fill="#5b5b5b" text-anchor="start" font-size="13.5">1970</text></g><g id="tick__2022"><line x1="615.4" y1="530.8" x2="615.4" y2="536.3" stroke="#999" stroke-width="1"></line><text x="615.4" y="549.8" fill="#5b5b5b" text-anchor="end" font-size="13.5">2022</text></g><g id="tick__1980"><line x1="181.1" y1="530.8" x2="181.1" y2="536.3" stroke="#999" stroke-width="1"></line><text x="181.1" y="549.8" fill="#5b5b5b" text-anchor="middle" font-size="13.5">1980</text></g><g id="tick__1990"><line x1="284.5" y1="530.8" x2="284.5" y2="536.3" stroke="#999" stroke-width="1"></line><text x="284.5" y="549.8" fill="#5b5b5b" text-anchor="middle" font-size="13.5">1990</text></g><g id="tick__2000"><line x1="387.9" y1="530.8" x2="387.9" y2="536.3" stroke="#999" stroke-width="1"></line><text x="387.9" y="549.8" fill="#5b5b5b" text-anchor="middle" font-size="13.5">2000</text></g><g id="tick__2010"><line x1="491.3" y1="530.8" x2="491.3" y2="536.3" stroke="#999" stroke-width="1"></line><text x="491.3" y="549.8" fill="#5b5b5b" text-anchor="middle" font-size="13.5">2010</text></g></g><g id="vertical-axis" class="VerticalAxis"><g id="tick-labels"><text id="tick-label__0-t" x="72.70" y="531.3" dy=".32em" text-anchor="end" fill="#5b5b5b" font-size="13.5">0 t</text><text id="tick-label__50__002c000-t" x="72.70" y="422.4" dy=".32em" text-anchor="end" fill="#5b5b5b" font-size="13.5">50,000 t</text><text id="tick-label__100__002c000-t" x="72.70" y="313.4" dy=".32em" text-anchor="end" fill="#5b5b5b" font-size="13.5">100,000 t</text><text id="tick-label__150__002c000-t" x="72.70" y="204.5" dy=".32em" text-anchor="end" fill="#5b5b5b" font-size="13.5">150,000 t</text><text id="tick-label__200__002c000-t" x="72.70" y="95.6" dy=".32em" text-anchor="end" fill="#5b5b5b" font-size="13.5">200,000 t</text></g></g><g id="horizontal-grid-lines" class="AxisGridLines horizontalLines"><line id="grid-line__0" x1="77.70" y1="531.3" x2="615.40" y2="531.3" stroke="#999" stroke-width="1"></line><line id="grid-line__50000" x1="77.70" y1="422.4" x2="615.40" y2="422.4" stroke="#ddd" stroke-width="1" stroke-dasharray="3,2"></line><line id="grid-line__100000" x1="77.70" y1="313.4" x2="615.40" y2="313.4" stroke="#ddd" stroke-width="1" stroke-dasharray="3,2"></line><line id="grid-line__150000" x1="77.70" y1="204.5" x2="615.40" y2="204.5" stroke="#ddd" stroke-width="1" stroke-dasharray="3,2"></line><line id="grid-line__200000" x1="77.70" y1="95.6" x2="615.40" y2="95.6" stroke="#ddd" stroke-width="1" stroke-dasharray="3,2"></line></g></g><g clip-path="url(#boundsClip-107)"><g id="line-labels" class="LineLabels"><g id="mark__China" class="legendMark" style="cursor:default"><g id="connector" class="indicator"><path d="M619.4,94.5 H632.9 V94.5 H646.4" stroke="#999" stroke-width="0.5" fill="none"></path></g><rect id="background" x="615.4" y="87.75" width="70.37" height="13.5" fill="#fff" opacity="0"></rect><text id="label" font-size="13.50" font-weight="400" x="650.4" y="99.5" fill="#cf0a66"><tspan x="650.4" y="99.495">China</tspan></text></g><g id="mark__Indonesia" class="legendMark" style="cursor:default"><g id="connector" class="indicator"><path d="M619.4,370.1 H620.3310344827586 V111.04999999999998 H646.4" stroke="#999" stroke-width="0.5" fill="none"></path></g><rect id="background" x="615.4" y="104.29999999999998" width="93.86000000000001" height="13.5" fill="#fff" opacity="0"></rect><text id="label" font-size="13.50" font-weight="400" x="650.4" y="116.0" fill="#18470f"><tspan x="650.4" y="116.04499999999999">Indonesia</tspan></text></g><g id="mark__Peru" class="legendMark" style="cursor:default"><g id="connector" class="indicator"><path d="M619.4,473.3 H621.2620689655172 V126.54999999999998 H646.4" stroke="#999" stroke-width="0.5" fill="none"></path></g><rect id="background" x="615.4" y="119.79999999999998" width="63.620000000000005" height="13.5" fill="#fff" opacity="0"></rect><text id="label" font-size="13.50" font-weight="400" x="650.4" y="131.5" fill="#be5915"><tspan x="650.4" y="131.545">Peru</tspan></text></g><g id="mark__Malaysia" class="legendMark" style="cursor:default"><g id="connector" class="indicator"><path d="M619.4,489.1 H622.1931034482758 V142.04999999999998 H646.4" stroke="#999" stroke-width="0.5" fill="none"></path></g><rect id="background" x="615.4" y="135.29999999999998" width="88.325" height="13.5" fill="#fff" opacity="0"></rect><text id="label" font-size="13.50" font-weight="400" x="650.4" y="147.0" fill="#00875e"><tspan x="650.4" y="147.045">Malaysia</tspan></text></g><g id="mark__USSR" class="legendMark" style="cursor:default"><g id="connector" class="indicator"><path d="M619.4,492.1 H623.1241379310344 V157.54999999999998 H646.4" stroke="#999" stroke-width="0.5" fill="none"></path></g><rect id="background" x="615.4" y="150.79999999999998" width="72.53" height="13.5" fill="#fff" opacity="0"></rect><text id="label" font-size="13.50" font-weight="400" x="650.4" y="162.5" fill="#996d39"><tspan x="650.4" y="162.545">USSR</tspan></text></g><g id="mark__Brazil" class="legendMark" style="cursor:default"><g id="connector" class="indicator"><path d="M619.4,493.8 H624.0551724137931 V173.04999999999998 H646.4" stroke="#999" stroke-width="0.5" fill="none"></path></g><rect id="background" x="615.4" y="166.29999999999998" width="68.75" height="13.5" fill="#fff" opacity="0"></rect><text id="label" font-size="13.50" font-weight="400" x="650.4" y="178.0" fill="#578145"><tspan x="650.4" y="178.045">Brazil</tspan></text></g><g id="mark__Bolivia" class="legendMark" style="cursor:default"><g id="connector" class="indicator"><path d="M619.4,499 H624.9862068965517 V188.54999999999998 H646.4" stroke="#999" stroke-width="0.5" fill="none"></path></g><rect id="background" x="615.4" y="181.79999999999998" width="74.825" height="13.5" fill="#fff" opacity="0"></rect><text id="label" font-size="13.50" font-weight="400" x="650.4" y="193.5" fill="#a2559c"><tspan x="650.4" y="193.545">Bolivia</tspan></text></g><g id="mark__Thailand" class="legendMark" style="cursor:default"><g id="connector" class="indicator"><path d="M619.4,510.5 H625.9172413793103 V204.04999999999998 H646.4" stroke="#999" stroke-width="0.5" fill="none"></path></g><rect id="background" x="615.4" y="197.29999999999998" width="86.975" height="13.5" fill="#fff" opacity="0"></rect><text id="label" font-size="13.50" font-weight="400" x="650.4" y="209.0" fill="#b13507"><tspan x="650.4" y="209.045">Thailand</tspan></text></g><g id="mark__Belgium" class="legendMark" style="cursor:default"><g id="connector" class="indicator"><path d="M619.4,513.4 H626.8482758620689 V219.54999999999998 H646.4" stroke="#999" stroke-width="0.5" fill="none"></path></g><rect id="background" x="615.4" y="212.79999999999998" width="83.87" height="13.5" fill="#fff" opacity="0"></rect><text id="label" font-size="13.50" font-weight="400" x="650.4" y="224.5" fill="#c15065"><tspan x="650.4" y="224.545">Belgium</tspan></text></g><g id="mark__Vietnam" class="legendMark" style="cursor:default"><g id="connector" class="indicator"><path d="M619.4,519.3 H627.7793103448275 V235.04999999999998 H646.4" stroke="#999" stroke-width="0.5" fill="none"></path></g><rect id="background" x="615.4" y="228.29999999999998" width="84.68" height="13.5" fill="#fff" opacity="0"></rect><text id="label" font-size="13.50" font-weight="400" x="650.4" y="240.0" fill="#cf0a66"><tspan x="650.4" y="240.045">Vietnam</tspan></text></g><g id="mark__Netherlands" class="legendMark" style="cursor:default"><g id="connector" class="indicator"><path d="M619.4,520.4 H628.7103448275861 V250.54999999999998 H646.4" stroke="#999" stroke-width="0.5" fill="none"></path></g><rect id="background" x="615.4" y="243.79999999999998" width="108.03500000000001" height="13.5" fill="#fff" opacity="0"></rect><text id="label" font-size="13.50" font-weight="400" x="650.4" y="255.5" fill="#6d3e91"><tspan x="650.4" y="255.545">Netherlands</tspan></text></g><g id="mark__Poland" class="legendMark" style="cursor:default"><g id="connector" class="indicator"><path d="M619.4,522 H629.6413793103447 V266.04999999999995 H646.4" stroke="#999" stroke-width="0.5" fill="none"></path></g><rect id="background" x="615.4" y="259.29999999999995" width="77.255" height="13.5" fill="#fff" opacity="0"></rect><text id="label" font-size="13.50" font-weight="400" x="650.4" y="271.0" fill="#c15065"><tspan x="650.4" y="271.04499999999996">Poland</tspan></text></g><g id="mark__Taiwan" class="legendMark" style="cursor:default"><g id="connector" class="indicator"><path d="M619.4,522.2 H630.5724137931035 V281.54999999999995 H646.4" stroke="#999" stroke-width="0.5" fill="none"></path></g><rect id="background" x="615.4" y="274.79999999999995" width="78.605" height="13.5" fill="#fff" opacity="0"></rect><text id="label" font-size="13.50" font-weight="400" x="650.4" y="286.5" fill="#a2559c"><tspan x="650.4" y="286.54499999999996">Taiwan</tspan></text></g><g id="mark__Kazakhstan" class="legendMark" style="cursor:default"><g id="connector" class="indicator"><path d="M619.4,523.5 H631.5034482758621 V297.04999999999995 H646.4" stroke="#999" stroke-width="0.5" fill="none"></path></g><rect id="background" x="615.4" y="290.29999999999995" width="105.875" height="13.5" fill="#fff" opacity="0"></rect><text id="label" font-size="13.50" font-weight="400" x="650.4" y="302.0" fill="#d73c50"><tspan x="650.4" y="302.04499999999996">Kazakhstan</tspan></text></g><g id="mark__East-Germany" class="legendMark" style="cursor:default"><g id="connector" class="indicator"><path d="M619.4,525.1 H632.4344827586207 V312.54999999999995 H646.4" stroke="#999" stroke-width="0.5" fill="none"></path></g><rect id="background" x="615.4" y="305.79999999999995" width="121.53500000000001" height="13.5" fill="#fff" opacity="0"></rect><text id="label" font-size="13.50" font-weight="400" x="650.4" y="317.5" fill="#d73c50"><tspan x="650.4" y="317.54499999999996">East Germany</tspan></text></g><g id="mark__Russia" class="legendMark" style="cursor:default"><g id="connector" class="indicator"><path d="M619.4,525.9 H633.3655172413793 V328.04999999999995 H646.4" stroke="#999" stroke-width="0.5" fill="none"></path></g><rect id="background" x="615.4" y="321.29999999999995" width="76.31" height="13.5" fill="#fff" opacity="0"></rect><text id="label" font-size="13.50" font-weight="400" x="650.4" y="333.0" fill="#8c4569"><tspan x="650.4" y="333.04499999999996">Russia</tspan></text></g><g id="mark__United-Kingdom" class="legendMark" style="cursor:default"><g id="connector" class="indicator"><path d="M619.4,527.7 H634.2965517241379 V343.54999999999995 H646.4" stroke="#999" stroke-width="0.5" fill="none"></path></g><rect id="background" x="615.4" y="336.79999999999995" width="131.39" height="13.5" fill="#fff" opacity="0"></rect><text id="label" font-size="13.50" font-weight="400" x="650.4" y="348.5" fill="#286bbb"><tspan x="650.4" y="348.54499999999996">United Kingdom</tspan></text></g><g id="mark__Japan" class="legendMark" style="cursor:default"><g id="connector" class="indicator"><path d="M619.4,527.9 H635.2275862068965 V359.04999999999995 H646.4" stroke="#999" stroke-width="0.5" fill="none"></path></g><rect id="background" x="615.4" y="352.29999999999995" width="71.99000000000001" height="13.5" fill="#fff" opacity="0"></rect><text id="label" font-size="13.50" font-weight="400" x="650.4" y="364.0" fill="#c15065"><tspan x="650.4" y="364.04499999999996">Japan</tspan></text></g><g id="mark__Nigeria" class="legendMark" style="cursor:default"><g id="connector" class="indicator"><path d="M619.4,529.6 H636.1586206896551 V374.54999999999995 H646.4" stroke="#999" stroke-width="0.5" fill="none"></path></g><rect id="background" x="615.4" y="367.79999999999995" width="77.795" height="13.5" fill="#fff" opacity="0"></rect><text id="label" font-size="13.50" font-weight="400" x="650.4" y="379.5" fill="#be5915"><tspan x="650.4" y="379.54499999999996">Nigeria</tspan></text></g><g id="mark__Rwanda" class="legendMark" style="cursor:default"><g id="connector" class="indicator"><path d="M619.4,529.9 H637.0896551724137 V390.04999999999995 H646.4" stroke="#999" stroke-width="0.5" fill="none"></path></g><rect id="background" x="615.4" y="383.29999999999995" width="84.68" height="13.5" fill="#fff" opacity="0"></rect><text id="label" font-size="13.50" font-weight="400" x="650.4" y="395.0" fill="#8c4569"><tspan x="650.4" y="395.04499999999996">Rwanda</tspan></text></g><g id="mark__West-Germany" class="legendMark" style="cursor:default"><g id="connector" class="indicator"><path d="M619.4,530.1 H638.0206896551724 V405.54999999999995 H646.4" stroke="#999" stroke-width="0.5" fill="none"></path></g><rect id="background" x="615.4" y="398.79999999999995" width="125.18" height="13.5" fill="#fff" opacity="0"></rect><text id="label" font-size="13.50" font-weight="400" x="650.4" y="410.5" fill="#6d3e91"><tspan x="650.4" y="410.54499999999996">West Germany</tspan></text></g><g id="mark__South-Korea" class="legendMark" style="cursor:default"><g id="connector" class="indicator"><path d="M619.4,530.4 H638.951724137931 V421.04999999999995 H646.4" stroke="#999" stroke-width="0.5" fill="none"></path></g><rect id="background" x="615.4" y="414.29999999999995" width="110.465" height="13.5" fill="#fff" opacity="0"></rect><text id="label" font-size="13.50" font-weight="400" x="650.4" y="426.0" fill="#970046"><tspan x="650.4" y="426.04499999999996">South Korea</tspan></text></g><g id="mark__Spain" class="legendMark" style="cursor:default"><g id="connector" class="indicator"><path d="M619.4,530.9 H639.8827586206896 V436.54999999999995 H646.4" stroke="#999" stroke-width="0.5" fill="none"></path></g><rect id="background" x="615.4" y="429.79999999999995" width="69.695" height="13.5" fill="#fff" opacity="0"></rect><text id="label" font-size="13.50" font-weight="400" x="650.4" y="441.5" fill="#578145"><tspan x="650.4" y="441.54499999999996">Spain</tspan></text></g><g id="mark__Czechoslovakia" class="legendMark" style="cursor:default"><g id="connector" class="indicator"><path d="M619.4,531 H640.8137931034482 V452.04999999999995 H646.4" stroke="#999" stroke-width="0.5" fill="none"></path></g><rect id="background" x="615.4" y="445.29999999999995" width="129.77" height="13.5" fill="#fff" opacity="0"></rect><text id="label" font-size="13.50" font-weight="400" x="650.4" y="457.0" fill="#b16214"><tspan x="650.4" y="457.04499999999996">Czechoslovakia</tspan></text></g><g id="mark__Argentina" class="legendMark" style="cursor:default"><g id="connector" class="indicator"><path d="M619.4,531 H641.7448275862068 V467.54999999999995 H646.4" stroke="#999" stroke-width="0.5" fill="none"></path></g><rect id="background" x="615.4" y="460.79999999999995" width="93.05000000000001" height="13.5" fill="#fff" opacity="0"></rect><text id="label" font-size="13.50" font-weight="400" x="650.4" y="472.5" fill="#996d39"><tspan x="650.4" y="472.54499999999996">Argentina</tspan></text></g><g id="mark__South-Africa" class="legendMark" style="cursor:default"><g id="connector" class="indicator"><path d="M619.4,531.1 H642.6758620689654 V483.04999999999995 H646.4" stroke="#999" stroke-width="0.5" fill="none"></path></g><rect id="background" x="615.4" y="476.29999999999995" width="108.845" height="13.5" fill="#fff" opacity="0"></rect><text id="label" font-size="13.50" font-weight="400" x="650.4" y="488.0" fill="#00847e"><tspan x="650.4" y="488.04499999999996">South Africa</tspan></text></g><g id="mark__Portugal" class="legendMark" style="cursor:default"><g id="connector" class="indicator"><path d="M619.4,531.1 H643.606896551724 V498.54999999999995 H646.4" stroke="#999" stroke-width="0.5" fill="none"></path></g><rect id="background" x="615.4" y="491.79999999999995" width="85.49000000000001" height="13.5" fill="#fff" opacity="0"></rect><text id="label" font-size="13.50" font-weight="400" x="650.4" y="503.5" fill="#d73c50"><tspan x="650.4" y="503.54499999999996">Portugal</tspan></text></g><g id="mark__Australia" class="legendMark" style="cursor:default"><g id="connector" class="indicator"><path d="M619.4,531.1 H644.5379310344828 V514.05 H646.4" stroke="#999" stroke-width="0.5" fill="none"></path></g><rect id="background" x="615.4" y="507.29999999999995" width="87.65" height="13.5" fill="#fff" opacity="0"></rect><text id="label" font-size="13.50" font-weight="400" x="650.4" y="519.0" fill="#2c8465"><tspan x="650.4" y="519.045">Australia</tspan></text></g><g id="mark__Democratic-Republic-of-Congo" class="legendMark" style="cursor:default"><g id="connector" class="indicator"><path d="M619.4,531.2 H645.4689655172414 V529.55 H646.4" stroke="#999" stroke-width="0.5" fill="none"></path></g><rect id="background" x="615.4" y="522.8" width="218.60000000000002" height="13.5" fill="#fff" opacity="0"></rect><text id="label" font-size="13.50" font-weight="400" x="650.4" y="534.5" fill="#8c4569"><tspan x="650.4" y="534.545">Democratic Republic of Congo</tspan></text></g><g id="mark__India" class="legendMark" style="cursor:default"><g id="connector" class="indicator"><path d="M619.4,531.3 H645.4689655172414 V545.05 H646.4" stroke="#999" stroke-width="0.5" fill="none"></path></g><rect id="background" x="615.4" y="538.3" width="64.43" height="13.5" fill="#fff" opacity="0"></rect><text id="label" font-size="13.50" font-weight="400" x="650.4" y="550.0" fill="#286bbb"><tspan x="650.4" y="550.045">India</tspan></text></g></g><g id="lines" class="Lines"><rect x="78" y="89" width="538" height="442" fill="rgba(255,255,255,0)" opacity="0"></rect><g id="line__Taiwan"><path stroke-linecap="round" stroke-linejoin="round" stroke="#ddd" d="M522.3 526.1L532.7 525.6L543 525.4L553.4 525.2L563.7 525.2L574 525.2L584.4 523L594.7 523.2L605.1 522.6L615.4 522.2" fill="none" stroke-width="1"></path></g><g id="line__Poland"><path stroke-linecap="round" stroke-linejoin="round" stroke="#ddd" d="M491.3 530L501.7 531.1L512 528.3L522.3 527.2L532.7 526.4L543 526.8L553.4 525L563.7 523.9L574 523L584.4 522.4L594.7 522.8L605.1 521.2L615.4 522" fill="none" stroke-width="1"></path></g><g id="line__India"><path stroke-linecap="round" stroke-linejoin="round" stroke="#ddd" d="M356.9 523.2L367.2 523.2L377.6 523.5L470.6 531.2L481 531.2L491.3 531.2L501.7 531.2L512 531.3L522.3 531.2L532.7 531.3L543 531.3L553.4 531.3L563.7 531.3L574 531.3L584.4 531.3L594.7 531.3L605.1 531.3L615.4 531.3" fill="none" stroke-width="1"></path></g><g id="line__Peru"><path stroke-linecap="round" stroke-linejoin="round" stroke="#ddd" d="M346.6 529.6L356.9 512.2L367.2 501L377.6 493.5L387.9 493.5L398.3 476.7L408.6 453.2L418.9 445.9L429.3 442.8L439.6 451.3L450 443.1L460.3 452.9L470.6 446.6L481 456.4L491.3 451.9L501.7 461L512 477.2L522.3 478.6L532.7 478L543 486.9L553.4 489.1L563.7 492.3L574 491.5L584.4 488.7L594.7 488.6L605.1 474.8L615.4 473.3" fill="none" stroke-width="1"></path></g><g id="line__Kazakhstan"><path stroke-linecap="round" stroke-linejoin="round" stroke="#ddd" d="M325.9 501L336.2 523.5" fill="none" stroke-width="1"></path></g><g id="line__Russia"><path stroke-linecap="round" stroke-linejoin="round" stroke="#ddd" d="M305.2 475.1L315.5 499.7L325.9 504.7L336.2 505.2L346.6 504.3L356.9 511.3L367.2 522.4L377.6 522.6L387.9 520L398.3 520.3L408.6 520.2L418.9 523.2L429.3 522.2L439.6 523.2L450 523.2L460.3 525L470.6 527.5L481 528.2L491.3 528.3L501.7 529.7L512 529.3L522.3 529.6L532.7 531.3L543 531.3L553.4 531.3L563.7 529.6L574 528.9L584.4 527.7L594.7 527.8L605.1 526.1L615.4 525.9" fill="none" stroke-width="1"></path></g><g id="line__Greece"><path stroke-linecap="round" stroke-linejoin="round" stroke="#ddd" d="M294.8 530.9" fill="none" stroke-width="1"></path></g><g id="line__Rwanda"><path stroke-linecap="round" stroke-linejoin="round" stroke="#ddd" d="M201.8 529.3L212.1 528.9L222.5 529L232.8 529.2L243.1 531.3L501.7 531.3L512 531.3L522.3 531.3L543 531.3L553.4 531.3L563.7 531.3L574 531.3L584.4 531.1L594.7 530.1L605.1 530.4L615.4 529.9" fill="none" stroke-width="1"></path></g><g id="line__Vietnam"><path stroke-linecap="round" stroke-linejoin="round" stroke="#ddd" d="M181.1 531.3L191.4 531.3L201.8 530.3L212.1 530.2L222.5 530.3L232.8 530.1L243.1 529.9L253.5 530.2L263.8 530.1L274.2 529.9L284.5 527.4L294.8 523.8L305.2 523.2L315.5 526.2L325.9 526.3L336.2 526.3L346.6 524.7L356.9 525.2L367.2 526.2L377.6 527.6L387.9 527.4L398.3 527.5L408.6 527.9L418.9 527.1L429.3 526.2L439.6 525.8L450 525.5L460.3 524L470.6 523.5L481 525.3L491.3 524.7L501.7 522.8L512 524.6L522.3 520.5L532.7 521.1L543 519.3L553.4 519.3L563.7 519.3L574 519.3L584.4 519.3L594.7 519.3L605.1 519.3L615.4 519.3" fill="none" stroke-width="1"></path></g><g id="line__South-Korea"><path stroke-linecap="round" stroke-linejoin="round" stroke="#ddd" d="M181.1 530.4L191.4 530.9L201.8 531.3L212.1 530.4L222.5 528.7L232.8 527.8L243.1 528.5L253.5 527.3L263.8 525.9L274.2 526.1L284.5 525.9L294.8 526.3L305.2 530.4L315.5 530.4" fill="none" stroke-width="1"></path></g><g id="line__Myanmar"><path stroke-linecap="round" stroke-linejoin="round" stroke="#ddd" d="M181.1 531.3L191.4 531.3L201.8 530.2L212.1 530.2L222.5 529.8L232.8 530.2L243.1 529.9L253.5 530.6L263.8 531.1L274.2 530.9L284.5 530.7L294.8 531L305.2 530.9L315.5 530.9L325.9 530.9L336.2 530.9" fill="none" stroke-width="1"></path></g><g id="line__Bolivia"><path stroke-linecap="round" stroke-linejoin="round" stroke="#ddd" d="M139.7 509.8L150.1 502.9L160.4 496L170.8 497.1L181.1 493.1L191.4 487.9L201.8 490L212.1 500.4L222.5 496.8L232.8 503.3L243.1 514.6L253.5 525.5L263.8 519.4L274.2 510.1L284.5 502.2L294.8 499.4L305.2 499.9L315.5 490.9L325.9 487.7L336.2 492.7L346.6 494.8L356.9 494.6L367.2 507.1L377.6 507L387.9 510.9L398.3 506.7L408.6 507.4L418.9 503.3L429.3 501.6L439.6 501.1L450 500.6L460.3 504.6L470.6 503.7L481 499.2L491.3 498.7L501.7 499.7L512 500.2L522.3 498.9L532.7 497.7L543 497.6L553.4 494.7L563.7 495L574 497.3L584.4 498.4L594.7 508.6L605.1 495.9L615.4 499" fill="none" stroke-width="1"></path></g><g id="line__USSR"><path stroke-linecap="round" stroke-linejoin="round" stroke="#ddd" d="M129.4 465.9L139.7 494.3L150.1 493.2L160.4 492.1L170.8 492.1L181.1 494.3L191.4 496.4L201.8 494.3L212.1 491L222.5 491L232.8 491L243.1 494.3L253.5 494.3L263.8 496.4L274.2 500.8L284.5 500.8L294.8 492.1" fill="none" stroke-width="1"></path></g><g id="line__Zimbabwe"><path stroke-linecap="round" stroke-linejoin="round" stroke="#ddd" d="M77.7 530L88 530L98.4 530L108.7 530L119.1 530L129.4 530L139.7 529.6L150.1 529.4L160.4 529.3L170.8 529.2L181.1 529.3L191.4 528.8L201.8 528.7L212.1 528.6L222.5 528.7L232.8 528.7L243.1 528.9L253.5 529L263.8 529.4L274.2 529.5L284.5 529.5L294.8 529.6L305.2 529.7L315.5 529.9L325.9 531.1" fill="none" stroke-width="1"></path></g><g id="line__West-Germany"><path stroke-linecap="round" stroke-linejoin="round" stroke="#ddd" d="M77.7 528.7L88 528.8L98.4 529.4L108.7 529L119.1 528.3L129.4 528.5L139.7 528.1L150.1 525L160.4 524.2L170.8 525.9L181.1 529.9L191.4 530.1" fill="none" stroke-width="1"></path></g><g id="line__United-States"><path stroke-linecap="round" stroke-linejoin="round" stroke="#ddd" d="M77.7 521.4L88 521.6L98.4 521.8L108.7 520.7L119.1 518L129.4 517.1L139.7 518.9L150.1 516.7L160.4 518.4L170.8 521.3L181.1 524.8L191.4 526.9L201.8 523.7L212.1 525.9L222.5 522.6L232.8 524.8L243.1 524.3L253.5 522.8L263.8 528.1L274.2 529.1L284.5 531.3" fill="none" stroke-width="1"></path></g><g id="line__United-Kingdom"><path stroke-linecap="round" stroke-linejoin="round" stroke="#ddd" d="M77.7 483.3L88 480.9L98.4 484.8L108.7 486.8L119.1 505.3L129.4 506.1L139.7 507L150.1 508.5L160.4 512.9L170.8 513.8L181.1 518.6L191.4 516.3L201.8 513.5L212.1 517.2L222.5 515.8L232.8 514.9L243.1 511.2L253.5 504.9L263.8 511.7L274.2 523.5L284.5 518L294.8 527.7" fill="none" stroke-width="1"></path></g><g id="line__Thailand"><path stroke-linecap="round" stroke-linejoin="round" stroke="#ddd" d="M77.7 483.3L88 483.9L98.4 482.8L108.7 481.4L119.1 488.1L129.4 495.1L139.7 487L150.1 481L160.4 468.2L170.8 459.3L181.1 455.7L191.4 460.2L201.8 475.8L212.1 491.1L222.5 488.3L232.8 492.1L243.1 488.4L253.5 497.7L263.8 499.3L274.2 499.6L284.5 497.5L294.8 506.8L305.2 508L315.5 513.7L325.9 514.4L336.2 513.3L346.6 507.4L356.9 505.2L367.2 497.9L377.6 493.6L387.9 494.1L398.3 482.5L408.6 493.2L418.9 498.2L429.3 486L439.6 462.5L450 471.3L460.3 481L470.6 483.7L481 489L491.3 480L501.7 479.1L512 481.2L522.3 481L532.7 495L543 508.4L553.4 507.1L563.7 508.2L574 507.6L584.4 510.4L594.7 506.7L605.1 505L615.4 510.5" fill="none" stroke-width="1"></path></g><g id="line__Spain"><path stroke-linecap="round" stroke-linejoin="round" stroke="#ddd" d="M77.7 522.8L88 522.3L98.4 520.9L108.7 518.6L119.1 518.5L129.4 519.9L139.7 521.8L150.1 519.7L160.4 524.2L170.8 523.6L181.1 524L191.4 524.5L201.8 525.4L212.1 523.7L222.5 525L232.8 524.1L243.1 527.5L253.5 527.7L263.8 530.8L274.2 528.2L284.5 528.4L294.8 527.6L305.2 526.1L315.5 526.9L325.9 530.9" fill="none" stroke-width="1"></path></g><g id="line__South-Africa"><path stroke-linecap="round" stroke-linejoin="round" stroke="#ddd" d="M77.7 530L88 529.7L98.4 529.6L108.7 529.4L119.1 529.4L129.4 529.6L139.7 529.8L150.1 530L160.4 529.9L170.8 529.5L181.1 528.9L191.4 525.6L201.8 525L212.1 525.5L222.5 526.1L232.8 525.5L243.1 525.2L253.5 527.6L263.8 526L274.2 526.3L284.5 526.7L294.8 527.8L305.2 530L315.5 530.2L325.9 531.1" fill="none" stroke-width="1"></path></g><g id="line__Portugal"><path stroke-linecap="round" stroke-linejoin="round" stroke="#ddd" d="M77.7 530.4L88 530.2L98.4 530L108.7 530.2L119.1 530.3L129.4 530.4L139.7 530.6L150.1 530L160.4 530.2L170.8 530.3L181.1 530.2L191.4 530.4L201.8 530.2L212.1 530.4L222.5 530.4L232.8 530.3L243.1 531L253.5 531.3L263.8 531.3L274.2 531.2L284.5 531.1L294.8 531.1L305.2 531.1L315.5 531.1L325.9 531.1L336.2 531.1" fill="none" stroke-width="1"></path></g><g id="line__Nigeria"><path stroke-linecap="round" stroke-linejoin="round" stroke="#ddd" d="M77.7 513.7L88 515.3L98.4 516.6L108.7 518.3L119.1 519.2L129.4 521.1L139.7 523.3L150.1 524.1L160.4 524.8L170.8 525.1L181.1 525.5L191.4 525.9L201.8 527.4L212.1 528.6L222.5 528.4L232.8 528.9L243.1 531.1L253.5 530.1L263.8 530.4L274.2 530.5L284.5 530.6L294.8 530.4L315.5 530.9L325.9 530.6L336.2 530.7L346.6 531.2L356.9 525.9L367.2 527.1L377.6 526.5L387.9 525.3L398.3 525L408.6 529.7L418.9 529.6" fill="none" stroke-width="1"></path></g><g id="line__Netherlands"><path stroke-linecap="round" stroke-linejoin="round" stroke="#ddd" d="M77.7 518.4L88 529.5L139.7 526.9L150.1 526.7L160.4 527.8L170.8 527.6L181.1 528.8L191.4 523.7L201.8 525.3L212.1 519.5L222.5 517.1L232.8 518.2L243.1 520.2L253.5 522.9L263.8 523.7L274.2 521.4L284.5 518L294.8 520.4" fill="none" stroke-width="1"></path></g><g id="line__Morocco"><path stroke-linecap="round" stroke-linejoin="round" stroke="#ddd" d="M77.7 531.3L88 531.3L98.4 531.3L108.7 531.3" fill="none" stroke-width="1"></path></g><g id="line__Mexico"><path stroke-linecap="round" stroke-linejoin="round" stroke="#ddd" d="M77.7 529.2L88 529.2L98.4 529.2L108.7 529.2L119.1 529.1L129.4 529.1L139.7 529.6L150.1 529.1L160.4 529.1L170.8 528.5L181.1 528.3L191.4 529.4L201.8 529.2L212.1 528.5L222.5 527.8L232.8 528L243.1 528.1L253.5 527.5L263.8 528.2L274.2 520.9L284.5 520.4L294.8 526.4L305.2 525.6L315.5 527.7L325.9 529.6L336.2 530.4L346.6 528.6L356.9 528.7L367.2 528.9L377.6 528.6L387.9 528.7L398.3 527.4L418.9 531.3L429.3 531.3" fill="none" stroke-width="1"></path></g><g id="line__Malaysia"><path stroke-linecap="round" stroke-linejoin="round" stroke="#ddd" d="M77.7 330.6L88 341.6L98.4 333L108.7 351.6L119.1 347.4L129.4 350.3L139.7 361.3L150.1 386.9L160.4 374.5L170.8 372.1L181.1 375.9L191.4 380.6L201.8 394.4L212.1 415.1L222.5 434.5L232.8 432.2L243.1 435.9L253.5 434.7L263.8 428L274.2 420.4L284.5 424.5L294.8 438.2L305.2 432L315.5 444L325.9 448.5L336.2 445.4L346.6 448.4L356.9 455.4L367.2 472L377.6 468.3L387.9 474.2L398.3 465L408.6 464L418.9 491.6L429.3 457.4L439.6 449L450 481.5L460.3 475.8L470.6 462.4L481 452L491.3 446.9L501.7 443.6L512 449L522.3 460.1L532.7 455.1L543 465.5L553.4 472.9L563.7 472.1L574 472.3L584.4 475.2L594.7 482.7L605.1 495.1L615.4 489.1" fill="none" stroke-width="1"></path></g><g id="line__Japan"><path stroke-linecap="round" stroke-linejoin="round" stroke="#ddd" d="M77.7 528.3L88 528.5L98.4 528.4L108.7 528.2L119.1 528.4L129.4 528.6L139.7 528.8L150.1 528.5L160.4 528.8L170.8 528.6L181.1 528.4L191.4 528.4L201.8 528.5L212.1 528.6L222.5 528.4L232.8 528.3L243.1 528.5L253.5 529.4L263.8 529.5L274.2 529.5L284.5 529.5L294.8 529.7L305.2 529.5L315.5 529.5L429.3 529.8L439.6 529.7L450 529.4L460.3 529.4L470.6 529.2L481 529.7L491.3 529.5L501.7 529.2L512 528.8L522.3 527.4L532.7 527.5L543 527.6L553.4 527.8L563.7 527.8L574 527.7L584.4 527.9L594.7 528L605.1 527.2L615.4 527.9" fill="none" stroke-width="1"></path></g><g id="line__Indonesia"><path stroke-linecap="round" stroke-linejoin="round" stroke="#ddd" d="M77.7 520L88 511.2L98.4 505.1L108.7 499.4L119.1 498.5L129.4 492.5L139.7 480.5L150.1 479L160.4 475L170.8 470.8L181.1 464.9L191.4 460.7L201.8 466.5L212.1 469.5L222.5 482.3L232.8 486.8L243.1 483.2L253.5 478.6L263.8 469.5L274.2 466.1L284.5 465.1L294.8 465L305.2 470L315.5 469L325.9 446.3L336.2 435L346.6 424.6L356.9 416.8L367.2 413.7L377.6 426L387.9 430.1L398.3 414.8L408.6 403.2L418.9 386.9L429.3 399.1L439.6 384L450 388.9L460.3 391.6L470.6 411.8L481 420.5L491.3 391.4L501.7 372.3L512 357.5L522.3 411.9L532.7 379.2L543 384.5L553.4 385.6L563.7 361.2L574 350.4L584.4 364.9L594.7 403.2L605.1 373.6L615.4 370.1" fill="none" stroke-width="1"></path></g><g id="line__East-Germany"><path stroke-linecap="round" stroke-linejoin="round" stroke="#ddd" d="M77.7 528.9L88 528.9L98.4 528.9L108.7 528.9L119.1 528.9L129.4 528.5L139.7 528.3L150.1 528.3L160.4 528L170.8 527.8L181.1 527.4L191.4 526.9L201.8 526.5L212.1 525.6L222.5 524.8L232.8 526.3L243.1 524.3L253.5 524.3L263.8 524.1L274.2 523.7L284.5 525.1" fill="none" stroke-width="1"></path></g><g id="line__Democratic-Republic-of-Congo"><path stroke-linecap="round" stroke-linejoin="round" stroke="#ddd" d="M77.7 528.3L88 528.4L98.4 528.3L108.7 529.2L119.1 529.8L129.4 529.9L139.7 530.3L150.1 529.9L160.4 530.2L170.8 530.3L181.1 530.8L191.4 530.3L201.8 530.5L212.1 530.9L222.5 530.9L232.8 531.1L243.1 531.2L253.5 531.1L263.8 531L274.2 531.2" fill="none" stroke-width="1"></path></g><g id="line__Czechoslovakia"><path stroke-linecap="round" stroke-linejoin="round" stroke="#ddd" d="M77.7 531.2L88 531.1L98.4 531.1L108.7 531.1L119.1 531L129.4 531.1L139.7 531L150.1 531L160.4 531L170.8 531L181.1 530.8L191.4 530.7L201.8 530.7L212.1 530.6L222.5 530.4L232.8 530.2L243.1 530.8L253.5 530.1L263.8 530.2L274.2 530.1L284.5 530L294.8 531" fill="none" stroke-width="1"></path></g><g id="line__China"><path stroke-linecap="round" stroke-linejoin="round" stroke="#ddd" d="M77.7 487.7L88 487.7L98.4 487.7L108.7 487.7L119.1 487.7L129.4 483.4L139.7 507.3L150.1 503L160.4 500.8L170.8 500.8L181.1 496.4L191.4 496.4L201.8 495.4L212.1 495.4L222.5 476.8L232.8 477.7L243.1 474.7L253.5 476.8L263.8 479L274.2 464.9L284.5 453.3L294.8 452.9L305.2 445L315.5 418.9L325.9 383.6L336.2 383.8L346.6 375.5L356.9 383.8L367.2 358.5L377.6 333.5L387.9 291.2L398.3 302.8L408.6 353.1L418.9 317.6L429.3 280.1L439.6 266L450 243.5L460.3 207.1L470.6 226.5L481 225.4L491.3 206.7L501.7 192.5L512 209.2L522.3 183.6L532.7 123.7L543 167L553.4 133.7L563.7 142.6L574 144.8L584.4 133.1L594.7 89.3L605.1 94.5L615.4 94.5" fill="none" stroke-width="1"></path></g><g id="line__Brazil"><path stroke-linecap="round" stroke-linejoin="round" stroke="#ddd" d="M77.7 524.5L88 523.8L98.4 523.5L108.7 521.6L119.1 520.7L129.4 519.5L139.7 517.3L150.1 515.1L160.4 511L170.8 509.2L181.1 512.1L191.4 514.3L201.8 511L212.1 503.1L222.5 490.2L232.8 477.5L243.1 476.5L253.5 468.5L263.8 440.1L274.2 434.9L284.5 449.4L294.8 467L305.2 472.5L315.5 472.7L325.9 486.9L336.2 494.7L346.6 491.3L356.9 493.1L367.2 500.1L377.6 503.4L387.9 501.2L398.3 504.9L408.6 506.2L418.9 507.9L429.3 506.2L439.6 511.7L450 512.2L460.3 509.5L470.6 507.3L481 513.2L491.3 511.5L501.7 510.9L512 505.3L522.3 499.2L532.7 482.6L543 495.3L553.4 493.8L563.7 495.4L574 495.4L584.4 496.4L594.7 496.4L605.1 495.6L615.4 493.8" fill="none" stroke-width="1"></path></g><g id="line__Belgium"><path stroke-linecap="round" stroke-linejoin="round" stroke="#ddd" d="M77.7 522L88 522.7L98.4 522.8L108.7 523.3L119.1 523.9L129.4 521.4L139.7 522.4L150.1 523.6L160.4 524.1L170.8 526.6L181.1 525.2L325.9 514.3L336.2 517.6L346.6 513.4L356.9 513.9L367.2 513.9L377.6 513.7L387.9 512.8L398.3 512.8L408.6 511.9L418.9 514.5L429.3 511.9L439.6 514.5L450 513.9L460.3 513L470.6 511.3L481 512.3L491.3 509.6L501.7 509.5L512 506.6L522.3 508.8L532.7 510.1L543 512.2L553.4 512.8L563.7 510.3L574 511L584.4 511L594.7 511.7L605.1 509.5L615.4 513.4" fill="none" stroke-width="1"></path></g><g id="line__Australia"><path stroke-linecap="round" stroke-linejoin="round" stroke="#ddd" d="M77.7 519.9L88 517.5L98.4 516L108.7 516.3L119.1 516.7L129.4 519.9L139.7 519.1L150.1 519.2L160.4 520.1L170.8 519.5L181.1 520.8L191.4 522L201.8 524.5L212.1 525L222.5 525L232.8 525.5L243.1 528.3L253.5 530.1L263.8 530.3L274.2 530.4L284.5 530.6L294.8 530.7L305.2 530.8L315.5 530.8L325.9 530.6L336.2 530.1L346.6 530.3L356.9 530L367.2 529.8L377.6 530L387.9 529.7L398.3 528.9L408.6 529.6L418.9 530L429.3 530.3L439.6 530L450 530.1L460.3 531L522.3 531.3L532.7 531.3L543 531.3L553.4 531.2L563.7 531.3L574 531.1L584.4 531.1L594.7 531.1L605.1 531.1L615.4 531.1" fill="none" stroke-width="1"></path></g><g id="line__Argentina"><path stroke-linecap="round" stroke-linejoin="round" stroke="#ddd" d="M77.7 531L88 531L98.4 531L108.7 531L119.1 531L129.4 531L139.7 531L150.1 531L160.4 531L170.8 531L181.1 530.9L191.4 530.9L201.8 530.9L212.1 531L222.5 531L232.8 530.8L243.1 530.7L253.5 531L263.8 530.9L274.2 530.9L284.5 531.1L294.8 531.1L305.2 531" fill="none" stroke-width="1"></path></g><g id="line__Taiwan"><path id="outline" fill="none" stroke-linecap="butt" stroke-linejoin="round" stroke="#fff" stroke-width="2.5" d="M522.3 526.1L532.7 525.6L543 525.4L553.4 525.2L563.7 525.2L574 525.2L584.4 523L594.7 523.2L605.1 522.6L615.4 522.2"></path><g id="polyline"><polyline id="polyline" points="522.30,526.10 532.70,525.60 543.00,525.40 553.40,525.20 563.70,525.20 574.00,525.20 584.40,523.00 594.70,523.20 605.10,522.60 615.40,522.20" stroke-linejoin="round" stroke-width="1.5" stroke="#A2559C" fill="none" stroke-linecap="butt"></polyline></g></g><g id="line__Poland"><path id="outline" fill="none" stroke-linecap="butt" stroke-linejoin="round" stroke="#fff" stroke-width="2.5" d="M491.3 530L501.7 531.1L512 528.3L522.3 527.2L532.7 526.4L543 526.8L553.4 525L563.7 523.9L574 523L584.4 522.4L594.7 522.8L605.1 521.2L615.4 522"></path><g id="polyline"><polyline id="polyline" points="491.30,530.00 501.70,531.10 512.00,528.30 522.30,527.20 532.70,526.40 543.00,526.80 553.40,525.00 563.70,523.90 574.00,523.00 584.40,522.40 594.70,522.80 605.10,521.20 615.40,522.00" stroke-linejoin="round" stroke-width="1.5" stroke="#C15065" fill="none" stroke-linecap="butt"></polyline></g></g><g id="line__India"><path id="outline" fill="none" stroke-linecap="butt" stroke-linejoin="round" stroke="#fff" stroke-width="2.5" d="M356.9 523.2L367.2 523.2L377.6 523.5L470.6 531.2L481 531.2L491.3 531.2L501.7 531.2L512 531.3L522.3 531.2L532.7 531.3L543 531.3L553.4 531.3L563.7 531.3L574 531.3L584.4 531.3L594.7 531.3L605.1 531.3L615.4 531.3"></path><g id="polyline"><polyline id="polyline" points="356.90,523.20 367.20,523.20 377.60,523.50 470.60,531.20 481.00,531.20 491.30,531.20 501.70,531.20 512.00,531.30 522.30,531.20 532.70,531.30 543.00,531.30 553.40,531.30 563.70,531.30 574.00,531.30 584.40,531.30 594.70,531.30 605.10,531.30 615.40,531.30" stroke-linejoin="round" stroke-width="1.5" stroke="#286BBB" fill="none" stroke-linecap="butt"></polyline></g></g><g id="line__Peru"><path id="outline" fill="none" stroke-linecap="butt" stroke-linejoin="round" stroke="#fff" stroke-width="2.5" d="M346.6 529.6L356.9 512.2L367.2 501L377.6 493.5L387.9 493.5L398.3 476.7L408.6 453.2L418.9 445.9L429.3 442.8L439.6 451.3L450 443.1L460.3 452.9L470.6 446.6L481 456.4L491.3 451.9L501.7 461L512 477.2L522.3 478.6L532.7 478L543 486.9L553.4 489.1L563.7 492.3L574 491.5L584.4 488.7L594.7 488.6L605.1 474.8L615.4 473.3"></path><g id="polyline"><polyline id="polyline" points="346.60,529.60 356.90,512.20 367.20,501.00 377.60,493.50 387.90,493.50 398.30,476.70 408.60,453.20 418.90,445.90 429.30,442.80 439.60,451.30 450.00,443.10 460.30,452.90 470.60,446.60 481.00,456.40 491.30,451.90 501.70,461.00 512.00,477.20 522.30,478.60 532.70,478.00 543.00,486.90 553.40,489.10 563.70,492.30 574.00,491.50 584.40,488.70 594.70,488.60 605.10,474.80 615.40,473.30" stroke-linejoin="round" stroke-width="1.5" stroke="#BE5915" fill="none" stroke-linecap="butt"></polyline></g></g><g id="line__Kazakhstan"><path id="outline" fill="none" stroke-linecap="butt" stroke-linejoin="round" stroke="#fff" stroke-width="2.5" d="M325.9 501L336.2 523.5"></path><g id="polyline"><polyline id="polyline" points="325.90,501.00 336.20,523.50" stroke-linejoin="round" stroke-width="1.5" stroke="#D73C50" fill="none" stroke-linecap="butt"></polyline></g></g><g id="line__Russia"><path id="outline" fill="none" stroke-linecap="butt" stroke-linejoin="round" stroke="#fff" stroke-width="2.5" d="M305.2 475.1L315.5 499.7L325.9 504.7L336.2 505.2L346.6 504.3L356.9 511.3L367.2 522.4L377.6 522.6L387.9 520L398.3 520.3L408.6 520.2L418.9 523.2L429.3 522.2L439.6 523.2L450 523.2L460.3 525L470.6 527.5L481 528.2L491.3 528.3L501.7 529.7L512 529.3L522.3 529.6L532.7 531.3L543 531.3L553.4 531.3L563.7 529.6L574 528.9L584.4 527.7L594.7 527.8L605.1 526.1L615.4 525.9"></path><g id="polyline"><polyline id="polyline" points="305.20,475.10 315.50,499.70 325.90,504.70 336.20,505.20 346.60,504.30 356.90,511.30 367.20,522.40 377.60,522.60 387.90,520.00 398.30,520.30 408.60,520.20 418.90,523.20 429.30,522.20 439.60,523.20 450.00,523.20 460.30,525.00 470.60,527.50 481.00,528.20 491.30,528.30 501.70,529.70 512.00,529.30 522.30,529.60 532.70,531.30 543.00,531.30 553.40,531.30 563.70,529.60 574.00,528.90 584.40,527.70 594.70,527.80 605.10,526.10 615.40,525.90" stroke-linejoin="round" stroke-width="1.5" stroke="#8C4569" fill="none" stroke-linecap="butt"></polyline></g></g><g id="line__Greece"><path id="outline" fill="none" stroke-linecap="butt" stroke-linejoin="round" stroke="#fff" stroke-width="2.5" d="M294.8 530.9"></path><g id="polyline"><polyline id="polyline" points="294.80,530.90" stroke-linejoin="round" stroke-width="1.5" stroke="#C4523E" fill="none" stroke-linecap="butt"></polyline></g><g id="markers"><circle cx="294.8" cy="530.9" r="1.8" fill="#C4523E"></circle></g></g><g id="line__Rwanda"><path id="outline" fill="none" stroke-linecap="butt" stroke-linejoin="round" stroke="#fff" stroke-width="2.5" d="M201.8 529.3L212.1 528.9L222.5 529L232.8 529.2L243.1 531.3L501.7 531.3L512 531.3L522.3 531.3L543 531.3L553.4 531.3L563.7 531.3L574 531.3L584.4 531.1L594.7 530.1L605.1 530.4L615.4 529.9"></path><g id="polyline"><polyline id="polyline" points="201.80,529.30 212.10,528.90 222.50,529.00 232.80,529.20 243.10,531.30 501.70,531.30 512.00,531.30 522.30,531.30 543.00,531.30 553.40,531.30 563.70,531.30 574.00,531.30 584.40,531.10 594.70,530.10 605.10,530.40 615.40,529.90" stroke-linejoin="round" stroke-width="1.5" stroke="#8C4569" fill="none" stroke-linecap="butt"></polyline></g></g><g id="line__Vietnam"><path id="outline" fill="none" stroke-linecap="butt" stroke-linejoin="round" stroke="#fff" stroke-width="2.5" d="M181.1 531.3L191.4 531.3L201.8 530.3L212.1 530.2L222.5 530.3L232.8 530.1L243.1 529.9L253.5 530.2L263.8 530.1L274.2 529.9L284.5 527.4L294.8 523.8L305.2 523.2L315.5 526.2L325.9 526.3L336.2 526.3L346.6 524.7L356.9 525.2L367.2 526.2L377.6 527.6L387.9 527.4L398.3 527.5L408.6 527.9L418.9 527.1L429.3 526.2L439.6 525.8L450 525.5L460.3 524L470.6 523.5L481 525.3L491.3 524.7L501.7 522.8L512 524.6L522.3 520.5L532.7 521.1L543 519.3L553.4 519.3L563.7 519.3L574 519.3L584.4 519.3L594.7 519.3L605.1 519.3L615.4 519.3"></path><g id="polyline"><polyline id="polyline" points="181.10,531.30 191.40,531.30 201.80,530.30 212.10,530.20 222.50,530.30 232.80,530.10 243.10,529.90 253.50,530.20 263.80,530.10 274.20,529.90 284.50,527.40 294.80,523.80 305.20,523.20 315.50,526.20 325.90,526.30 336.20,526.30 346.60,524.70 356.90,525.20 367.20,526.20 377.60,527.60 387.90,527.40 398.30,527.50 408.60,527.90 418.90,527.10 429.30,526.20 439.60,525.80 450.00,525.50 460.30,524.00 470.60,523.50 481.00,525.30 491.30,524.70 501.70,522.80 512.00,524.60 522.30,520.50 532.70,521.10 543.00,519.30 553.40,519.30 563.70,519.30 574.00,519.30 584.40,519.30 594.70,519.30 605.10,519.30 615.40,519.30" stroke-linejoin="round" stroke-width="1.5" stroke="#CF0A66" fill="none" stroke-linecap="butt"></polyline></g></g><g id="line__South-Korea"><path id="outline" fill="none" stroke-linecap="butt" stroke-linejoin="round" stroke="#fff" stroke-width="2.5" d="M181.1 530.4L191.4 530.9L201.8 531.3L212.1 530.4L222.5 528.7L232.8 527.8L243.1 528.5L253.5 527.3L263.8 525.9L274.2 526.1L284.5 525.9L294.8 526.3L305.2 530.4L315.5 530.4"></path><g id="polyline"><polyline id="polyline" points="181.10,530.40 191.40,530.90 201.80,531.30 212.10,530.40 222.50,528.70 232.80,527.80 243.10,528.50 253.50,527.30 263.80,525.90 274.20,526.10 284.50,525.90 294.80,526.30 305.20,530.40 315.50,530.40" stroke-linejoin="round" stroke-width="1.5" stroke="#970046" fill="none" stroke-linecap="butt"></polyline></g></g><g id="line__Myanmar"><path id="outline" fill="none" stroke-linecap="butt" stroke-linejoin="round" stroke="#fff" stroke-width="2.5" d="M181.1 531.3L191.4 531.3L201.8 530.2L212.1 530.2L222.5 529.8L232.8 530.2L243.1 529.9L253.5 530.6L263.8 531.1L274.2 530.9L284.5 530.7L294.8 531L305.2 530.9L315.5 530.9L325.9 530.9L336.2 530.9"></path><g id="polyline"><polyline id="polyline" points="181.10,531.30 191.40,531.30 201.80,530.20 212.10,530.20 222.50,529.80 232.80,530.20 243.10,529.90 253.50,530.60 263.80,531.10 274.20,530.90 284.50,530.70 294.80,531.00 305.20,530.90 315.50,530.90 325.90,530.90 336.20,530.90" stroke-linejoin="round" stroke-width="1.5" stroke="#008291" fill="none" stroke-linecap="butt"></polyline></g></g><g id="line__Bolivia"><path id="outline" fill="none" stroke-linecap="butt" stroke-linejoin="round" stroke="#fff" stroke-width="2.5" d="M139.7 509.8L150.1 502.9L160.4 496L170.8 497.1L181.1 493.1L191.4 487.9L201.8 490L212.1 500.4L222.5 496.8L232.8 503.3L243.1 514.6L253.5 525.5L263.8 519.4L274.2 510.1L284.5 502.2L294.8 499.4L305.2 499.9L315.5 490.9L325.9 487.7L336.2 492.7L346.6 494.8L356.9 494.6L367.2 507.1L377.6 507L387.9 510.9L398.3 506.7L408.6 507.4L418.9 503.3L429.3 501.6L439.6 501.1L450 500.6L460.3 504.6L470.6 503.7L481 499.2L491.3 498.7L501.7 499.7L512 500.2L522.3 498.9L532.7 497.7L543 497.6L553.4 494.7L563.7 495L574 497.3L584.4 498.4L594.7 508.6L605.1 495.9L615.4 499"></path><g id="polyline"><polyline id="polyline" points="139.70,509.80 150.10,502.90 160.40,496.00 170.80,497.10 181.10,493.10 191.40,487.90 201.80,490.00 212.10,500.40 222.50,496.80 232.80,503.30 243.10,514.60 253.50,525.50 263.80,519.40 274.20,510.10 284.50,502.20 294.80,499.40 305.20,499.90 315.50,490.90 325.90,487.70 336.20,492.70 346.60,494.80 356.90,494.60 367.20,507.10 377.60,507.00 387.90,510.90 398.30,506.70 408.60,507.40 418.90,503.30 429.30,501.60 439.60,501.10 450.00,500.60 460.30,504.60 470.60,503.70 481.00,499.20 491.30,498.70 501.70,499.70 512.00,500.20 522.30,498.90 532.70,497.70 543.00,497.60 553.40,494.70 563.70,495.00 574.00,497.30 584.40,498.40 594.70,508.60 605.10,495.90 615.40,499.00" stroke-linejoin="round" stroke-width="1.5" stroke="#A2559C" fill="none" stroke-linecap="butt"></polyline></g></g><g id="line__USSR"><path id="outline" fill="none" stroke-linecap="butt" stroke-linejoin="round" stroke="#fff" stroke-width="2.5" d="M129.4 465.9L139.7 494.3L150.1 493.2L160.4 492.1L170.8 492.1L181.1 494.3L191.4 496.4L201.8 494.3L212.1 491L222.5 491L232.8 491L243.1 494.3L253.5 494.3L263.8 496.4L274.2 500.8L284.5 500.8L294.8 492.1"></path><g id="polyline"><polyline id="polyline" points="129.40,465.90 139.70,494.30 150.10,493.20 160.40,492.10 170.80,492.10 181.10,494.30 191.40,496.40 201.80,494.30 212.10,491.00 222.50,491.00 232.80,491.00 243.10,494.30 253.50,494.30 263.80,496.40 274.20,500.80 284.50,500.80 294.80,492.10" stroke-linejoin="round" stroke-width="1.5" stroke="#996D39" fill="none" stroke-linecap="butt"></polyline></g></g><g id="line__Zimbabwe"><path id="outline" fill="none" stroke-linecap="butt" stroke-linejoin="round" stroke="#fff" stroke-width="2.5" d="M77.7 530L88 530L98.4 530L108.7 530L119.1 530L129.4 530L139.7 529.6L150.1 529.4L160.4 529.3L170.8 529.2L181.1 529.3L191.4 528.8L201.8 528.7L212.1 528.6L222.5 528.7L232.8 528.7L243.1 528.9L253.5 529L263.8 529.4L274.2 529.5L284.5 529.5L294.8 529.6L305.2 529.7L315.5 529.9L325.9 531.1"></path><g id="polyline"><polyline id="polyline" points="77.70,530.00 88.00,530.00 98.40,530.00 108.70,530.00 119.10,530.00 129.40,530.00 139.70,529.60 150.10,529.40 160.40,529.30 170.80,529.20 181.10,529.30 191.40,528.80 201.80,528.70 212.10,528.60 222.50,528.70 232.80,528.70 243.10,528.90 253.50,529.00 263.80,529.40 274.20,529.50 284.50,529.50 294.80,529.60 305.20,529.70 315.50,529.90 325.90,531.10" stroke-linejoin="round" stroke-width="1.5" stroke="#C15065" fill="none" stroke-linecap="butt"></polyline></g></g><g id="line__West-Germany"><path id="outline" fill="none" stroke-linecap="butt" stroke-linejoin="round" stroke="#fff" stroke-width="2.5" d="M77.7 528.7L88 528.8L98.4 529.4L108.7 529L119.1 528.3L129.4 528.5L139.7 528.1L150.1 525L160.4 524.2L170.8 525.9L181.1 529.9L191.4 530.1"></path><g id="polyline"><polyline id="polyline" points="77.70,528.70 88.00,528.80 98.40,529.40 108.70,529.00 119.10,528.30 129.40,528.50 139.70,528.10 150.10,525.00 160.40,524.20 170.80,525.90 181.10,529.90 191.40,530.10" stroke-linejoin="round" stroke-width="1.5" stroke="#6D3E91" fill="none" stroke-linecap="butt"></polyline></g></g><g id="line__United-States"><path id="outline" fill="none" stroke-linecap="butt" stroke-linejoin="round" stroke="#fff" stroke-width="2.5" d="M77.7 521.4L88 521.6L98.4 521.8L108.7 520.7L119.1 518L129.4 517.1L139.7 518.9L150.1 516.7L160.4 518.4L170.8 521.3L181.1 524.8L191.4 526.9L201.8 523.7L212.1 525.9L222.5 522.6L232.8 524.8L243.1 524.3L253.5 522.8L263.8 528.1L274.2 529.1L284.5 531.3"></path><g id="polyline"><polyline id="polyline" points="77.70,521.40 88.00,521.60 98.40,521.80 108.70,520.70 119.10,518.00 129.40,517.10 139.70,518.90 150.10,516.70 160.40,518.40 170.80,521.30 181.10,524.80 191.40,526.90 201.80,523.70 212.10,525.90 222.50,522.60 232.80,524.80 243.10,524.30 253.50,522.80 263.80,528.10 274.20,529.10 284.50,531.30" stroke-linejoin="round" stroke-width="1.5" stroke="#6D3E91" fill="none" stroke-linecap="butt"></polyline></g></g><g id="line__United-Kingdom"><path id="outline" fill="none" stroke-linecap="butt" stroke-linejoin="round" stroke="#fff" stroke-width="2.5" d="M77.7 483.3L88 480.9L98.4 484.8L108.7 486.8L119.1 505.3L129.4 506.1L139.7 507L150.1 508.5L160.4 512.9L170.8 513.8L181.1 518.6L191.4 516.3L201.8 513.5L212.1 517.2L222.5 515.8L232.8 514.9L243.1 511.2L253.5 504.9L263.8 511.7L274.2 523.5L284.5 518L294.8 527.7"></path><g id="polyline"><polyline id="polyline" points="77.70,483.30 88.00,480.90 98.40,484.80 108.70,486.80 119.10,505.30 129.40,506.10 139.70,507.00 150.10,508.50 160.40,512.90 170.80,513.80 181.10,518.60 191.40,516.30 201.80,513.50 212.10,517.20 222.50,515.80 232.80,514.90 243.10,511.20 253.50,504.90 263.80,511.70 274.20,523.50 284.50,518.00 294.80,527.70" stroke-linejoin="round" stroke-width="1.5" stroke="#286BBB" fill="none" stroke-linecap="butt"></polyline></g></g><g id="line__Thailand"><path id="outline" fill="none" stroke-linecap="butt" stroke-linejoin="round" stroke="#fff" stroke-width="2.5" d="M77.7 483.3L88 483.9L98.4 482.8L108.7 481.4L119.1 488.1L129.4 495.1L139.7 487L150.1 481L160.4 468.2L170.8 459.3L181.1 455.7L191.4 460.2L201.8 475.8L212.1 491.1L222.5 488.3L232.8 492.1L243.1 488.4L253.5 497.7L263.8 499.3L274.2 499.6L284.5 497.5L294.8 506.8L305.2 508L315.5 513.7L325.9 514.4L336.2 513.3L346.6 507.4L356.9 505.2L367.2 497.9L377.6 493.6L387.9 494.1L398.3 482.5L408.6 493.2L418.9 498.2L429.3 486L439.6 462.5L450 471.3L460.3 481L470.6 483.7L481 489L491.3 480L501.7 479.1L512 481.2L522.3 481L532.7 495L543 508.4L553.4 507.1L563.7 508.2L574 507.6L584.4 510.4L594.7 506.7L605.1 505L615.4 510.5"></path><g id="polyline"><polyline id="polyline" points="77.70,483.30 88.00,483.90 98.40,482.80 108.70,481.40 119.10,488.10 129.40,495.10 139.70,487.00 150.10,481.00 160.40,468.20 170.80,459.30 181.10,455.70 191.40,460.20 201.80,475.80 212.10,491.10 222.50,488.30 232.80,492.10 243.10,488.40 253.50,497.70 263.80,499.30 274.20,499.60 284.50,497.50 294.80,506.80 305.20,508.00 315.50,513.70 325.90,514.40 336.20,513.30 346.60,507.40 356.90,505.20 367.20,497.90 377.60,493.60 387.90,494.10 398.30,482.50 408.60,493.20 418.90,498.20 429.30,486.00 439.60,462.50 450.00,471.30 460.30,481.00 470.60,483.70 481.00,489.00 491.30,480.00 501.70,479.10 512.00,481.20 522.30,481.00 532.70,495.00 543.00,508.40 553.40,507.10 563.70,508.20 574.00,507.60 584.40,510.40 594.70,506.70 605.10,505.00 615.40,510.50" stroke-linejoin="round" stroke-width="1.5" stroke="#B13507" fill="none" stroke-linecap="butt"></polyline></g></g><g id="line__Spain"><path id="outline" fill="none" stroke-linecap="butt" stroke-linejoin="round" stroke="#fff" stroke-width="2.5" d="M77.7 522.8L88 522.3L98.4 520.9L108.7 518.6L119.1 518.5L129.4 519.9L139.7 521.8L150.1 519.7L160.4 524.2L170.8 523.6L181.1 524L191.4 524.5L201.8 525.4L212.1 523.7L222.5 525L232.8 524.1L243.1 527.5L253.5 527.7L263.8 530.8L274.2 528.2L284.5 528.4L294.8 527.6L305.2 526.1L315.5 526.9L325.9 530.9"></path><g id="polyline"><polyline id="polyline" points="77.70,522.80 88.00,522.30 98.40,520.90 108.70,518.60 119.10,518.50 129.40,519.90 139.70,521.80 150.10,519.70 160.40,524.20 170.80,523.60 181.10,524.00 191.40,524.50 201.80,525.40 212.10,523.70 222.50,525.00 232.80,524.10 243.10,527.50 253.50,527.70 263.80,530.80 274.20,528.20 284.50,528.40 294.80,527.60 305.20,526.10 315.50,526.90 325.90,530.90" stroke-linejoin="round" stroke-width="1.5" stroke="#578145" fill="none" stroke-linecap="butt"></polyline></g></g><g id="line__South-Africa"><path id="outline" fill="none" stroke-linecap="butt" stroke-linejoin="round" stroke="#fff" stroke-width="2.5" d="M77.7 530L88 529.7L98.4 529.6L108.7 529.4L119.1 529.4L129.4 529.6L139.7 529.8L150.1 530L160.4 529.9L170.8 529.5L181.1 528.9L191.4 525.6L201.8 525L212.1 525.5L222.5 526.1L232.8 525.5L243.1 525.2L253.5 527.6L263.8 526L274.2 526.3L284.5 526.7L294.8 527.8L305.2 530L315.5 530.2L325.9 531.1"></path><g id="polyline"><polyline id="polyline" points="77.70,530.00 88.00,529.70 98.40,529.60 108.70,529.40 119.10,529.40 129.40,529.60 139.70,529.80 150.10,530.00 160.40,529.90 170.80,529.50 181.10,528.90 191.40,525.60 201.80,525.00 212.10,525.50 222.50,526.10 232.80,525.50 243.10,525.20 253.50,527.60 263.80,526.00 274.20,526.30 284.50,526.70 294.80,527.80 305.20,530.00 315.50,530.20 325.90,531.10" stroke-linejoin="round" stroke-width="1.5" stroke="#00847E" fill="none" stroke-linecap="butt"></polyline></g></g><g id="line__Portugal"><path id="outline" fill="none" stroke-linecap="butt" stroke-linejoin="round" stroke="#fff" stroke-width="2.5" d="M77.7 530.4L88 530.2L98.4 530L108.7 530.2L119.1 530.3L129.4 530.4L139.7 530.6L150.1 530L160.4 530.2L170.8 530.3L181.1 530.2L191.4 530.4L201.8 530.2L212.1 530.4L222.5 530.4L232.8 530.3L243.1 531L253.5 531.3L263.8 531.3L274.2 531.2L284.5 531.1L294.8 531.1L305.2 531.1L315.5 531.1L325.9 531.1L336.2 531.1"></path><g id="polyline"><polyline id="polyline" points="77.70,530.40 88.00,530.20 98.40,530.00 108.70,530.20 119.10,530.30 129.40,530.40 139.70,530.60 150.10,530.00 160.40,530.20 170.80,530.30 181.10,530.20 191.40,530.40 201.80,530.20 212.10,530.40 222.50,530.40 232.80,530.30 243.10,531.00 253.50,531.30 263.80,531.30 274.20,531.20 284.50,531.10 294.80,531.10 305.20,531.10 315.50,531.10 325.90,531.10 336.20,531.10" stroke-linejoin="round" stroke-width="1.5" stroke="#D73C50" fill="none" stroke-linecap="butt"></polyline></g></g><g id="line__Nigeria"><path id="outline" fill="none" stroke-linecap="butt" stroke-linejoin="round" stroke="#fff" stroke-width="2.5" d="M77.7 513.7L88 515.3L98.4 516.6L108.7 518.3L119.1 519.2L129.4 521.1L139.7 523.3L150.1 524.1L160.4 524.8L170.8 525.1L181.1 525.5L191.4 525.9L201.8 527.4L212.1 528.6L222.5 528.4L232.8 528.9L243.1 531.1L253.5 530.1L263.8 530.4L274.2 530.5L284.5 530.6L294.8 530.4L315.5 530.9L325.9 530.6L336.2 530.7L346.6 531.2L356.9 525.9L367.2 527.1L377.6 526.5L387.9 525.3L398.3 525L408.6 529.7L418.9 529.6"></path><g id="polyline"><polyline id="polyline" points="77.70,513.70 88.00,515.30 98.40,516.60 108.70,518.30 119.10,519.20 129.40,521.10 139.70,523.30 150.10,524.10 160.40,524.80 170.80,525.10 181.10,525.50 191.40,525.90 201.80,527.40 212.10,528.60 222.50,528.40 232.80,528.90 243.10,531.10 253.50,530.10 263.80,530.40 274.20,530.50 284.50,530.60 294.80,530.40 315.50,530.90 325.90,530.60 336.20,530.70 346.60,531.20 356.90,525.90 367.20,527.10 377.60,526.50 387.90,525.30 398.30,525.00 408.60,529.70 418.90,529.60" stroke-linejoin="round" stroke-width="1.5" stroke="#BE5915" fill="none" stroke-linecap="butt"></polyline></g></g><g id="line__Netherlands"><path id="outline" fill="none" stroke-linecap="butt" stroke-linejoin="round" stroke="#fff" stroke-width="2.5" d="M77.7 518.4L88 529.5L139.7 526.9L150.1 526.7L160.4 527.8L170.8 527.6L181.1 528.8L191.4 523.7L201.8 525.3L212.1 519.5L222.5 517.1L232.8 518.2L243.1 520.2L253.5 522.9L263.8 523.7L274.2 521.4L284.5 518L294.8 520.4"></path><g id="polyline"><polyline id="polyline" points="77.70,518.40 88.00,529.50 139.70,526.90 150.10,526.70 160.40,527.80 170.80,527.60 181.10,528.80 191.40,523.70 201.80,525.30 212.10,519.50 222.50,517.10 232.80,518.20 243.10,520.20 253.50,522.90 263.80,523.70 274.20,521.40 284.50,518.00 294.80,520.40" stroke-linejoin="round" stroke-width="1.5" stroke="#6D3E91" fill="none" stroke-linecap="butt"></polyline></g></g><g id="line__Morocco"><path id="outline" fill="none" stroke-linecap="butt" stroke-linejoin="round" stroke="#fff" stroke-width="2.5" d="M77.7 531.3L88 531.3L98.4 531.3L108.7 531.3"></path><g id="polyline"><polyline id="polyline" points="77.70,531.30 88.00,531.30 98.40,531.30 108.70,531.30" stroke-linejoin="round" stroke-width="1.5" stroke="#970046" fill="none" stroke-linecap="butt"></polyline></g></g><g id="line__Mexico"><path id="outline" fill="none" stroke-linecap="butt" stroke-linejoin="round" stroke="#fff" stroke-width="2.5" d="M77.7 529.2L88 529.2L98.4 529.2L108.7 529.2L119.1 529.1L129.4 529.1L139.7 529.6L150.1 529.1L160.4 529.1L170.8 528.5L181.1 528.3L191.4 529.4L201.8 529.2L212.1 528.5L222.5 527.8L232.8 528L243.1 528.1L253.5 527.5L263.8 528.2L274.2 520.9L284.5 520.4L294.8 526.4L305.2 525.6L315.5 527.7L325.9 529.6L336.2 530.4L346.6 528.6L356.9 528.7L367.2 528.9L377.6 528.6L387.9 528.7L398.3 527.4L418.9 531.3L429.3 531.3"></path><g id="polyline"><polyline id="polyline" points="77.70,529.20 88.00,529.20 98.40,529.20 108.70,529.20 119.10,529.10 129.40,529.10 139.70,529.60 150.10,529.10 160.40,529.10 170.80,528.50 181.10,528.30 191.40,529.40 201.80,529.20 212.10,528.50 222.50,527.80 232.80,528.00 243.10,528.10 253.50,527.50 263.80,528.20 274.20,520.90 284.50,520.40 294.80,526.40 305.20,525.60 315.50,527.70 325.90,529.60 336.20,530.40 346.60,528.60 356.90,528.70 367.20,528.90 377.60,528.60 387.90,528.70 398.30,527.40 418.90,531.30 429.30,531.30" stroke-linejoin="round" stroke-width="1.5" stroke="#B13507" fill="none" stroke-linecap="butt"></polyline></g></g><g id="line__Malaysia"><path id="outline" fill="none" stroke-linecap="butt" stroke-linejoin="round" stroke="#fff" stroke-width="2.5" d="M77.7 330.6L88 341.6L98.4 333L108.7 351.6L119.1 347.4L129.4 350.3L139.7 361.3L150.1 386.9L160.4 374.5L170.8 372.1L181.1 375.9L191.4 380.6L201.8 394.4L212.1 415.1L222.5 434.5L232.8 432.2L243.1 435.9L253.5 434.7L263.8 428L274.2 420.4L284.5 424.5L294.8 438.2L305.2 432L315.5 444L325.9 448.5L336.2 445.4L346.6 448.4L356.9 455.4L367.2 472L377.6 468.3L387.9 474.2L398.3 465L408.6 464L418.9 491.6L429.3 457.4L439.6 449L450 481.5L460.3 475.8L470.6 462.4L481 452L491.3 446.9L501.7 443.6L512 449L522.3 460.1L532.7 455.1L543 465.5L553.4 472.9L563.7 472.1L574 472.3L584.4 475.2L594.7 482.7L605.1 495.1L615.4 489.1"></path><g id="polyline"><polyline id="polyline" points="77.70,330.60 88.00,341.60 98.40,333.00 108.70,351.60 119.10,347.40 129.40,350.30 139.70,361.30 150.10,386.90 160.40,374.50 170.80,372.10 181.10,375.90 191.40,380.60 201.80,394.40 212.10,415.10 222.50,434.50 232.80,432.20 243.10,435.90 253.50,434.70 263.80,428.00 274.20,420.40 284.50,424.50 294.80,438.20 305.20,432.00 315.50,444.00 325.90,448.50 336.20,445.40 346.60,448.40 356.90,455.40 367.20,472.00 377.60,468.30 387.90,474.20 398.30,465.00 408.60,464.00 418.90,491.60 429.30,457.40 439.60,449.00 450.00,481.50 460.30,475.80 470.60,462.40 481.00,452.00 491.30,446.90 501.70,443.60 512.00,449.00 522.30,460.10 532.70,455.10 543.00,465.50 553.40,472.90 563.70,472.10 574.00,472.30 584.40,475.20 594.70,482.70 605.10,495.10 615.40,489.10" stroke-linejoin="round" stroke-width="1.5" stroke="#00875E" fill="none" stroke-linecap="butt"></polyline></g></g><g id="line__Japan"><path id="outline" fill="none" stroke-linecap="butt" stroke-linejoin="round" stroke="#fff" stroke-width="2.5" d="M77.7 528.3L88 528.5L98.4 528.4L108.7 528.2L119.1 528.4L129.4 528.6L139.7 528.8L150.1 528.5L160.4 528.8L170.8 528.6L181.1 528.4L191.4 528.4L201.8 528.5L212.1 528.6L222.5 528.4L232.8 528.3L243.1 528.5L253.5 529.4L263.8 529.5L274.2 529.5L284.5 529.5L294.8 529.7L305.2 529.5L315.5 529.5L429.3 529.8L439.6 529.7L450 529.4L460.3 529.4L470.6 529.2L481 529.7L491.3 529.5L501.7 529.2L512 528.8L522.3 527.4L532.7 527.5L543 527.6L553.4 527.8L563.7 527.8L574 527.7L584.4 527.9L594.7 528L605.1 527.2L615.4 527.9"></path><g id="polyline"><polyline id="polyline" points="77.70,528.30 88.00,528.50 98.40,528.40 108.70,528.20 119.10,528.40 129.40,528.60 139.70,528.80 150.10,528.50 160.40,528.80 170.80,528.60 181.10,528.40 191.40,528.40 201.80,528.50 212.10,528.60 222.50,528.40 232.80,528.30 243.10,528.50 253.50,529.40 263.80,529.50 274.20,529.50 284.50,529.50 294.80,529.70 305.20,529.50 315.50,529.50 429.30,529.80 439.60,529.70 450.00,529.40 460.30,529.40 470.60,529.20 481.00,529.70 491.30,529.50 501.70,529.20 512.00,528.80 522.30,527.40 532.70,527.50 543.00,527.60 553.40,527.80 563.70,527.80 574.00,527.70 584.40,527.90 594.70,528.00 605.10,527.20 615.40,527.90" stroke-linejoin="round" stroke-width="1.5" stroke="#C15065" fill="none" stroke-linecap="butt"></polyline></g></g><g id="line__Indonesia"><path id="outline" fill="none" stroke-linecap="butt" stroke-linejoin="round" stroke="#fff" stroke-width="2.5" d="M77.7 520L88 511.2L98.4 505.1L108.7 499.4L119.1 498.5L129.4 492.5L139.7 480.5L150.1 479L160.4 475L170.8 470.8L181.1 464.9L191.4 460.7L201.8 466.5L212.1 469.5L222.5 482.3L232.8 486.8L243.1 483.2L253.5 478.6L263.8 469.5L274.2 466.1L284.5 465.1L294.8 465L305.2 470L315.5 469L325.9 446.3L336.2 435L346.6 424.6L356.9 416.8L367.2 413.7L377.6 426L387.9 430.1L398.3 414.8L408.6 403.2L418.9 386.9L429.3 399.1L439.6 384L450 388.9L460.3 391.6L470.6 411.8L481 420.5L491.3 391.4L501.7 372.3L512 357.5L522.3 411.9L532.7 379.2L543 384.5L553.4 385.6L563.7 361.2L574 350.4L584.4 364.9L594.7 403.2L605.1 373.6L615.4 370.1"></path><g id="polyline"><polyline id="polyline" points="77.70,520.00 88.00,511.20 98.40,505.10 108.70,499.40 119.10,498.50 129.40,492.50 139.70,480.50 150.10,479.00 160.40,475.00 170.80,470.80 181.10,464.90 191.40,460.70 201.80,466.50 212.10,469.50 222.50,482.30 232.80,486.80 243.10,483.20 253.50,478.60 263.80,469.50 274.20,466.10 284.50,465.10 294.80,465.00 305.20,470.00 315.50,469.00 325.90,446.30 336.20,435.00 346.60,424.60 356.90,416.80 367.20,413.70 377.60,426.00 387.90,430.10 398.30,414.80 408.60,403.20 418.90,386.90 429.30,399.10 439.60,384.00 450.00,388.90 460.30,391.60 470.60,411.80 481.00,420.50 491.30,391.40 501.70,372.30 512.00,357.50 522.30,411.90 532.70,379.20 543.00,384.50 553.40,385.60 563.70,361.20 574.00,350.40 584.40,364.90 594.70,403.20 605.10,373.60 615.40,370.10" stroke-linejoin="round" stroke-width="1.5" stroke="#18470F" fill="none" stroke-linecap="butt"></polyline></g></g><g id="line__East-Germany"><path id="outline" fill="none" stroke-linecap="butt" stroke-linejoin="round" stroke="#fff" stroke-width="2.5" d="M77.7 528.9L88 528.9L98.4 528.9L108.7 528.9L119.1 528.9L129.4 528.5L139.7 528.3L150.1 528.3L160.4 528L170.8 527.8L181.1 527.4L191.4 526.9L201.8 526.5L212.1 525.6L222.5 524.8L232.8 526.3L243.1 524.3L253.5 524.3L263.8 524.1L274.2 523.7L284.5 525.1"></path><g id="polyline"><polyline id="polyline" points="77.70,528.90 88.00,528.90 98.40,528.90 108.70,528.90 119.10,528.90 129.40,528.50 139.70,528.30 150.10,528.30 160.40,528.00 170.80,527.80 181.10,527.40 191.40,526.90 201.80,526.50 212.10,525.60 222.50,524.80 232.80,526.30 243.10,524.30 253.50,524.30 263.80,524.10 274.20,523.70 284.50,525.10" stroke-linejoin="round" stroke-width="1.5" stroke="#D73C50" fill="none" stroke-linecap="butt"></polyline></g></g><g id="line__Democratic-Republic-of-Congo"><path id="outline" fill="none" stroke-linecap="butt" stroke-linejoin="round" stroke="#fff" stroke-width="2.5" d="M77.7 528.3L88 528.4L98.4 528.3L108.7 529.2L119.1 529.8L129.4 529.9L139.7 530.3L150.1 529.9L160.4 530.2L170.8 530.3L181.1 530.8L191.4 530.3L201.8 530.5L212.1 530.9L222.5 530.9L232.8 531.1L243.1 531.2L253.5 531.1L263.8 531L274.2 531.2"></path><g id="polyline"><polyline id="polyline" points="77.70,528.30 88.00,528.40 98.40,528.30 108.70,529.20 119.10,529.80 129.40,529.90 139.70,530.30 150.10,529.90 160.40,530.20 170.80,530.30 181.10,530.80 191.40,530.30 201.80,530.50 212.10,530.90 222.50,530.90 232.80,531.10 243.10,531.20 253.50,531.10 263.80,531.00 274.20,531.20" stroke-linejoin="round" stroke-width="1.5" stroke="#8C4569" fill="none" stroke-linecap="butt"></polyline></g></g><g id="line__Czechoslovakia"><path id="outline" fill="none" stroke-linecap="butt" stroke-linejoin="round" stroke="#fff" stroke-width="2.5" d="M77.7 531.2L88 531.1L98.4 531.1L108.7 531.1L119.1 531L129.4 531.1L139.7 531L150.1 531L160.4 531L170.8 531L181.1 530.8L191.4 530.7L201.8 530.7L212.1 530.6L222.5 530.4L232.8 530.2L243.1 530.8L253.5 530.1L263.8 530.2L274.2 530.1L284.5 530L294.8 531"></path><g id="polyline"><polyline id="polyline" points="77.70,531.20 88.00,531.10 98.40,531.10 108.70,531.10 119.10,531.00 129.40,531.10 139.70,531.00 150.10,531.00 160.40,531.00 170.80,531.00 181.10,530.80 191.40,530.70 201.80,530.70 212.10,530.60 222.50,530.40 232.80,530.20 243.10,530.80 253.50,530.10 263.80,530.20 274.20,530.10 284.50,530.00 294.80,531.00" stroke-linejoin="round" stroke-width="1.5" stroke="#B16214" fill="none" stroke-linecap="butt"></polyline></g></g><g id="line__China"><path id="outline" fill="none" stroke-linecap="butt" stroke-linejoin="round" stroke="#fff" stroke-width="2.5" d="M77.7 487.7L88 487.7L98.4 487.7L108.7 487.7L119.1 487.7L129.4 483.4L139.7 507.3L150.1 503L160.4 500.8L170.8 500.8L181.1 496.4L191.4 496.4L201.8 495.4L212.1 495.4L222.5 476.8L232.8 477.7L243.1 474.7L253.5 476.8L263.8 479L274.2 464.9L284.5 453.3L294.8 452.9L305.2 445L315.5 418.9L325.9 383.6L336.2 383.8L346.6 375.5L356.9 383.8L367.2 358.5L377.6 333.5L387.9 291.2L398.3 302.8L408.6 353.1L418.9 317.6L429.3 280.1L439.6 266L450 243.5L460.3 207.1L470.6 226.5L481 225.4L491.3 206.7L501.7 192.5L512 209.2L522.3 183.6L532.7 123.7L543 167L553.4 133.7L563.7 142.6L574 144.8L584.4 133.1L594.7 89.3L605.1 94.5L615.4 94.5"></path><g id="polyline"><polyline id="polyline" points="77.70,487.70 88.00,487.70 98.40,487.70 108.70,487.70 119.10,487.70 129.40,483.40 139.70,507.30 150.10,503.00 160.40,500.80 170.80,500.80 181.10,496.40 191.40,496.40 201.80,495.40 212.10,495.40 222.50,476.80 232.80,477.70 243.10,474.70 253.50,476.80 263.80,479.00 274.20,464.90 284.50,453.30 294.80,452.90 305.20,445.00 315.50,418.90 325.90,383.60 336.20,383.80 346.60,375.50 356.90,383.80 367.20,358.50 377.60,333.50 387.90,291.20 398.30,302.80 408.60,353.10 418.90,317.60 429.30,280.10 439.60,266.00 450.00,243.50 460.30,207.10 470.60,226.50 481.00,225.40 491.30,206.70 501.70,192.50 512.00,209.20 522.30,183.60 532.70,123.70 543.00,167.00 553.40,133.70 563.70,142.60 574.00,144.80 584.40,133.10 594.70,89.30 605.10,94.50 615.40,94.50" stroke-linejoin="round" stroke-width="1.5" stroke="#CF0A66" fill="none" stroke-linecap="butt"></polyline></g></g><g id="line__Brazil"><path id="outline" fill="none" stroke-linecap="butt" stroke-linejoin="round" stroke="#fff" stroke-width="2.5" d="M77.7 524.5L88 523.8L98.4 523.5L108.7 521.6L119.1 520.7L129.4 519.5L139.7 517.3L150.1 515.1L160.4 511L170.8 509.2L181.1 512.1L191.4 514.3L201.8 511L212.1 503.1L222.5 490.2L232.8 477.5L243.1 476.5L253.5 468.5L263.8 440.1L274.2 434.9L284.5 449.4L294.8 467L305.2 472.5L315.5 472.7L325.9 486.9L336.2 494.7L346.6 491.3L356.9 493.1L367.2 500.1L377.6 503.4L387.9 501.2L398.3 504.9L408.6 506.2L418.9 507.9L429.3 506.2L439.6 511.7L450 512.2L460.3 509.5L470.6 507.3L481 513.2L491.3 511.5L501.7 510.9L512 505.3L522.3 499.2L532.7 482.6L543 495.3L553.4 493.8L563.7 495.4L574 495.4L584.4 496.4L594.7 496.4L605.1 495.6L615.4 493.8"></path><g id="polyline"><polyline id="polyline" points="77.70,524.50 88.00,523.80 98.40,523.50 108.70,521.60 119.10,520.70 129.40,519.50 139.70,517.30 150.10,515.10 160.40,511.00 170.80,509.20 181.10,512.10 191.40,514.30 201.80,511.00 212.10,503.10 222.50,490.20 232.80,477.50 243.10,476.50 253.50,468.50 263.80,440.10 274.20,434.90 284.50,449.40 294.80,467.00 305.20,472.50 315.50,472.70 325.90,486.90 336.20,494.70 346.60,491.30 356.90,493.10 367.20,500.10 377.60,503.40 387.90,501.20 398.30,504.90 408.60,506.20 418.90,507.90 429.30,506.20 439.60,511.70 450.00,512.20 460.30,509.50 470.60,507.30 481.00,513.20 491.30,511.50 501.70,510.90 512.00,505.30 522.30,499.20 532.70,482.60 543.00,495.30 553.40,493.80 563.70,495.40 574.00,495.40 584.40,496.40 594.70,496.40 605.10,495.60 615.40,493.80" stroke-linejoin="round" stroke-width="1.5" stroke="#578145" fill="none" stroke-linecap="butt"></polyline></g></g><g id="line__Belgium"><path id="outline" fill="none" stroke-linecap="butt" stroke-linejoin="round" stroke="#fff" stroke-width="2.5" d="M77.7 522L88 522.7L98.4 522.8L108.7 523.3L119.1 523.9L129.4 521.4L139.7 522.4L150.1 523.6L160.4 524.1L170.8 526.6L181.1 525.2L325.9 514.3L336.2 517.6L346.6 513.4L356.9 513.9L367.2 513.9L377.6 513.7L387.9 512.8L398.3 512.8L408.6 511.9L418.9 514.5L429.3 511.9L439.6 514.5L450 513.9L460.3 513L470.6 511.3L481 512.3L491.3 509.6L501.7 509.5L512 506.6L522.3 508.8L532.7 510.1L543 512.2L553.4 512.8L563.7 510.3L574 511L584.4 511L594.7 511.7L605.1 509.5L615.4 513.4"></path><g id="polyline"><polyline id="polyline" points="77.70,522.00 88.00,522.70 98.40,522.80 108.70,523.30 119.10,523.90 129.40,521.40 139.70,522.40 150.10,523.60 160.40,524.10 170.80,526.60 181.10,525.20 325.90,514.30 336.20,517.60 346.60,513.40 356.90,513.90 367.20,513.90 377.60,513.70 387.90,512.80 398.30,512.80 408.60,511.90 418.90,514.50 429.30,511.90 439.60,514.50 450.00,513.90 460.30,513.00 470.60,511.30 481.00,512.30 491.30,509.60 501.70,509.50 512.00,506.60 522.30,508.80 532.70,510.10 543.00,512.20 553.40,512.80 563.70,510.30 574.00,511.00 584.40,511.00 594.70,511.70 605.10,509.50 615.40,513.40" stroke-linejoin="round" stroke-width="1.5" stroke="#C15065" fill="none" stroke-linecap="butt"></polyline></g></g><g id="line__Australia"><path id="outline" fill="none" stroke-linecap="butt" stroke-linejoin="round" stroke="#fff" stroke-width="2.5" d="M77.7 519.9L88 517.5L98.4 516L108.7 516.3L119.1 516.7L129.4 519.9L139.7 519.1L150.1 519.2L160.4 520.1L170.8 519.5L181.1 520.8L191.4 522L201.8 524.5L212.1 525L222.5 525L232.8 525.5L243.1 528.3L253.5 530.1L263.8 530.3L274.2 530.4L284.5 530.6L294.8 530.7L305.2 530.8L315.5 530.8L325.9 530.6L336.2 530.1L346.6 530.3L356.9 530L367.2 529.8L377.6 530L387.9 529.7L398.3 528.9L408.6 529.6L418.9 530L429.3 530.3L439.6 530L450 530.1L460.3 531L522.3 531.3L532.7 531.3L543 531.3L553.4 531.2L563.7 531.3L574 531.1L584.4 531.1L594.7 531.1L605.1 531.1L615.4 531.1"></path><g id="polyline"><polyline id="polyline" points="77.70,519.90 88.00,517.50 98.40,516.00 108.70,516.30 119.10,516.70 129.40,519.90 139.70,519.10 150.10,519.20 160.40,520.10 170.80,519.50 181.10,520.80 191.40,522.00 201.80,524.50 212.10,525.00 222.50,525.00 232.80,525.50 243.10,528.30 253.50,530.10 263.80,530.30 274.20,530.40 284.50,530.60 294.80,530.70 305.20,530.80 315.50,530.80 325.90,530.60 336.20,530.10 346.60,530.30 356.90,530.00 367.20,529.80 377.60,530.00 387.90,529.70 398.30,528.90 408.60,529.60 418.90,530.00 429.30,530.30 439.60,530.00 450.00,530.10 460.30,531.00 522.30,531.30 532.70,531.30 543.00,531.30 553.40,531.20 563.70,531.30 574.00,531.10 584.40,531.10 594.70,531.10 605.10,531.10 615.40,531.10" stroke-linejoin="round" stroke-width="1.5" stroke="#2C8465" fill="none" stroke-linecap="butt"></polyline></g></g><g id="line__Argentina"><path id="outline" fill="none" stroke-linecap="butt" stroke-linejoin="round" stroke="#fff" stroke-width="2.5" d="M77.7 531L88 531L98.4 531L108.7 531L119.1 531L129.4 531L139.7 531L150.1 531L160.4 531L170.8 531L181.1 530.9L191.4 530.9L201.8 530.9L212.1 531L222.5 531L232.8 530.8L243.1 530.7L253.5 531L263.8 530.9L274.2 530.9L284.5 531.1L294.8 531.1L305.2 531"></path><g id="polyline"><polyline id="polyline" points="77.70,531.00 88.00,531.00 98.40,531.00 108.70,531.00 119.10,531.00 129.40,531.00 139.70,531.00 150.10,531.00 160.40,531.00 170.80,531.00 181.10,530.90 191.40,530.90 201.80,530.90 212.10,531.00 222.50,531.00 232.80,530.80 243.10,530.70 253.50,531.00 263.80,530.90 274.20,530.90 284.50,531.10 294.80,531.10 305.20,531.00" stroke-linejoin="round" stroke-width="1.5" stroke="#996D39" fill="none" stroke-linecap="butt"></polyline></g></g></g></g></g></g><g id="footer" class="SourcesFooter" style="fill:#5b5b5b"><g id="sources" class="markdown-text-wrap"><text x="16.0" y="580.9" style="font-size:13.5px;line-height:1.2"><tspan x="16" y="580.9"><tspan style="font-weight:700">Data source:</tspan> BGS - World Mineral Statistics (2023)</tspan></text></g><text id="origin-url" font-size="13.50" x="792.7" y="580.9"><tspan x="792.69" y="580.895"><a target="_blank" style="fill: #5b5b5b;" href="https://creativecommons.org/licenses/by/4.0/">CC BY</a></tspan></text></g><line id="separator-line" x1="16" y1="600" x2="834" y2="600" stroke="#e7e7e7"></line><g id="details" transform="translate(15, 616)"><g class="markdown-text-wrap"><text x="0.0" y="12.0" style="font-size:12.375px;fill:#5b5b5b;line-height:1.2"><tspan x="0" y="12.0"><tspan style="font-weight:700">1.</tspan> <tspan style="font-weight:700">Smelting</tspan>: Smelting is a process used to extract metals from their ores. It involves heating the ore to a very high temperature in a furnace. This</tspan><tspan x="0" y="26.9">heat causes the metal inside the ore to separate from other unwanted materials, like rocks and minerals. Often, a substance called a &quot;reducing</tspan><tspan x="0" y="41.7">agent&quot; such as carbon (in the form of coke), is added to help pull the metal out. The result is a more purified form of the metal, which can then be</tspan><tspan x="0" y="56.6">further refined or used to make products. Smelting is a crucial step in the production of many metals, like iron, copper, and aluminum, transforming</tspan><tspan x="0" y="71.4">raw minerals from the earth into usable materials.</tspan></text></g></g></svg>