<svg xmlns="http://www.w3.org/2000/svg" version="1.1" style="font-family:Lato, &#x27;Helvetica Neue&#x27;, Helvetica, Arial, &#x27;Liberation Sans&#x27;, sans-serif;font-size:18px;background-color:white;text-rendering:geometricPrecision;-webkit-font-smoothing:antialiased" width="850" height="600" viewBox="0 0 850 600"><defs><style>@import url(https://ourworldindata.org/fonts.css)</style></defs><defs><pattern id="noDataPattern" patternUnits="userSpaceOnUse" width="4" height="4" patternTransform="rotate(-45 2 2)"><path d="M -1,2 l 6,0" stroke="#ccc" stroke-width="0.7"></path></pattern></defs><rect class="background-fill" fill="white" width="850" height="600"></rect><g id="header" class="HeaderView"><g id="logo" transform="translate(769, 16) scale(1)"><svg className="owidLogo" xmlns="http://www.w3.org/2000/svg" width="65" height="36" viewBox="0 0 65 36"  fill="none"><path fill="#002147" d="M0 0h64.8v36H0z"/><path fill="#CE261E" d="M0 33.3h64.8V36H0z"/><path fill="#fff" d="M13.796 10.575c0 .636-.106 1.226-.318 1.77a4.193 4.193 0 0 1-.894 1.404 4.084 4.084 0 0 1-1.386.93c-.54.22-1.138.33-1.794.33-.656 0-1.256-.11-1.8-.33a4.149 4.149 0 0 1-1.392-.93 4.193 4.193 0 0 1-.894-1.404A4.833 4.833 0 0 1 5 10.575c0-.636.106-1.224.318-1.764a4.18 4.18 0 0 1 .894-1.41 4.076 4.076 0 0 1 1.392-.924 4.684 4.684 0 0 1 1.8-.336c.656 0 1.254.112 1.794.336.54.224 1.002.534 1.386.93.384.392.682.86.894 1.404.212.54.318 1.128.318 1.764Zm-1.656 0c0-.476-.064-.902-.192-1.278a2.671 2.671 0 0 0-.54-.966 2.332 2.332 0 0 0-.864-.606 2.94 2.94 0 0 0-1.14-.21c-.424 0-.806.07-1.146.21-.34.14-.63.342-.87.606a2.742 2.742 0 0 0-.546.966 3.955 3.955 0 0 0-.192 1.278c0 .476.064.904.192 1.284.128.376.31.696.546.96.24.26.53.46.87.6.34.14.722.21 1.146.21.424 0 .804-.07 1.14-.21.34-.14.628-.34.864-.6.236-.264.416-.584.54-.96a4.01 4.01 0 0 0 .192-1.284ZM16.104 8.757v3.912c0 .376.086.668.258.876.176.204.438.306.786.306.256 0 .496-.056.72-.168a2.58 2.58 0 0 0 .636-.474V8.757h1.482v6.156h-.906c-.192 0-.318-.09-.378-.27l-.102-.492a4.65 4.65 0 0 1-.396.354 2.577 2.577 0 0 1-.438.27 2.35 2.35 0 0 1-.498.168 2.345 2.345 0 0 1-.57.066c-.336 0-.634-.056-.894-.168a1.821 1.821 0 0 1-.648-.486 2.157 2.157 0 0 1-.402-.738 3.233 3.233 0 0 1-.132-.948V8.757h1.482ZM21.328 14.913V8.757h.87c.152 0 .258.028.318.084.06.056.1.152.12.288l.09.744c.22-.38.478-.68.774-.9.296-.22.628-.33.996-.33.304 0 .556.07.756.21l-.192 1.11c-.012.072-.038.124-.078.156a.278.278 0 0 1-.162.042 1.01 1.01 0 0 1-.246-.042 1.646 1.646 0 0 0-.414-.042c-.308 0-.572.086-.792.258-.22.168-.406.416-.558.744v3.834h-1.482ZM27.347 6.237h1.356a.57.57 0 0 1 .348.102c.096.064.16.152.192.264l1.476 5.19c.036.128.068.268.096.42.032.148.062.306.09.474a5.968 5.968 0 0 1 .228-.894l1.704-5.19a.575.575 0 0 1 .186-.252.543.543 0 0 1 .348-.114h.474a.57.57 0 0 1 .348.102.497.497 0 0 1 .192.264l1.692 5.19c.088.256.164.54.228.852.028-.156.056-.306.084-.45.032-.144.064-.278.096-.402l1.476-5.19c.028-.1.09-.186.186-.258a.563.563 0 0 1 .348-.108h1.266l-2.694 8.676h-1.458l-1.896-5.928-.078-.246a9.504 9.504 0 0 1-.072-.282c-.024.1-.05.194-.078.282-.024.088-.048.17-.072.246l-1.914 5.928H30.04l-2.694-8.676ZM42.771 8.661c.46 0 .876.074 1.248.222.376.148.696.358.96.63s.468.604.612.996c.144.392.216.83.216 1.314 0 .488-.072.928-.216 1.32a2.85 2.85 0 0 1-.612 1.002 2.653 2.653 0 0 1-.96.636 3.35 3.35 0 0 1-1.248.222c-.46 0-.878-.074-1.254-.222a2.712 2.712 0 0 1-.966-.636 2.922 2.922 0 0 1-.618-1.002 3.807 3.807 0 0 1-.216-1.32c0-.484.072-.922.216-1.314.148-.392.354-.724.618-.996.268-.272.59-.482.966-.63a3.397 3.397 0 0 1 1.254-.222Zm0 5.202c.512 0 .89-.172 1.134-.516.248-.344.372-.848.372-1.512s-.124-1.17-.372-1.518c-.244-.348-.622-.522-1.134-.522-.52 0-.904.176-1.152.528-.248.348-.372.852-.372 1.512s.124 1.164.372 1.512c.248.344.632.516 1.152.516ZM46.723 14.913V8.757h.87c.152 0 .258.028.318.084.06.056.1.152.12.288l.09.744c.22-.38.478-.68.774-.9.296-.22.628-.33.996-.33.304 0 .556.07.756.21l-.192 1.11c-.012.072-.038.124-.078.156a.278.278 0 0 1-.162.042 1.01 1.01 0 0 1-.246-.042 1.646 1.646 0 0 0-.414-.042c-.308 0-.572.086-.792.258-.22.168-.406.416-.558.744v3.834h-1.482ZM52.96 5.997v8.916h-1.482V5.997h1.482ZM58.732 14.913c-.192 0-.318-.09-.378-.27l-.12-.594a3.68 3.68 0 0 1-.402.39c-.14.116-.292.216-.456.3-.16.084-.334.148-.522.192a2.372 2.372 0 0 1-.6.072c-.336 0-.644-.07-.924-.21a2.098 2.098 0 0 1-.726-.606 3.033 3.033 0 0 1-.468-.99 5.072 5.072 0 0 1-.162-1.344c0-.456.062-.88.186-1.272s.302-.732.534-1.02c.232-.288.51-.512.834-.672a2.384 2.384 0 0 1 1.092-.246 2.103 2.103 0 0 1 1.536.606V5.997h1.482v8.916h-.906Zm-1.974-1.086c.308 0 .57-.064.786-.192.216-.128.42-.31.612-.546v-2.76a1.452 1.452 0 0 0-.552-.432 1.597 1.597 0 0 0-.636-.126c-.224 0-.428.042-.612.126a1.21 1.21 0 0 0-.462.384c-.124.168-.22.384-.288.648-.068.26-.102.568-.102.924 0 .36.028.666.084.918.06.248.144.452.252.612.108.156.24.27.396.342.156.068.33.102.522.102ZM16.331 20.757v6.156H14.85v-6.156h1.481Zm.223-1.794a.844.844 0 0 1-.078.36.963.963 0 0 1-.21.294.995.995 0 0 1-.3.204.963.963 0 0 1-.372.072.948.948 0 0 1-.367-.072 1.018 1.018 0 0 1-.498-.498.963.963 0 0 1 0-.732.995.995 0 0 1 .205-.3.929.929 0 0 1 .293-.198.899.899 0 0 1 .738 0 .912.912 0 0 1 .3.198.943.943 0 0 1 .288.672ZM17.771 26.913v-6.156h.906c.192 0 .318.09.378.27l.102.486a2.934 2.934 0 0 1 .828-.618c.156-.076.322-.134.498-.174.176-.04.368-.06.576-.06.336 0 .634.058.894.174.26.112.476.272.648.48.176.204.308.45.396.738.092.284.138.598.138.942v3.918h-1.482v-3.918c0-.376-.088-.666-.264-.87-.172-.208-.432-.312-.78-.312-.256 0-.496.058-.72.174a2.58 2.58 0 0 0-.636.474v4.452h-1.482ZM34.22 22.575c0 .636-.106 1.22-.318 1.752-.212.532-.51.99-.894 1.374a4 4 0 0 1-1.386.894 4.87 4.87 0 0 1-1.794.318h-3.312v-8.676h3.312a4.79 4.79 0 0 1 1.794.324 4 4 0 0 1 1.386.894c.384.38.682.836.894 1.368.212.532.318 1.116.318 1.752Zm-1.65 0c0-.476-.064-.902-.192-1.278a2.68 2.68 0 0 0-.546-.96 2.332 2.332 0 0 0-.864-.606 2.94 2.94 0 0 0-1.14-.21h-1.686v6.108h1.686c.424 0 .804-.07 1.14-.21.34-.14.628-.34.864-.6a2.75 2.75 0 0 0 .546-.96 4.01 4.01 0 0 0 .192-1.284ZM39.98 26.913h-.665c-.14 0-.25-.02-.33-.06-.08-.044-.14-.13-.18-.258l-.132-.438c-.156.14-.31.264-.462.372a2.804 2.804 0 0 1-.462.264c-.16.072-.33.126-.51.162-.18.036-.38.054-.6.054-.26 0-.5-.034-.72-.102a1.618 1.618 0 0 1-.57-.318 1.448 1.448 0 0 1-.366-.522 1.852 1.852 0 0 1-.132-.726c0-.232.06-.46.18-.684.124-.228.328-.432.612-.612.284-.184.662-.336 1.134-.456.472-.12 1.058-.188 1.758-.204v-.36c0-.412-.088-.716-.264-.912-.172-.2-.424-.3-.756-.3a1.837 1.837 0 0 0-1.02.276c-.116.068-.224.13-.324.186a.664.664 0 0 1-.33.084.429.429 0 0 1-.258-.078.614.614 0 0 1-.174-.192l-.27-.474c.708-.648 1.562-.972 2.562-.972.36 0 .68.06.96.18.284.116.524.28.72.492.196.208.344.458.444.75.104.292.156.612.156.96v3.888Zm-2.88-.924c.153 0 .293-.014.42-.042.129-.028.249-.07.36-.126.117-.056.227-.124.33-.204.109-.084.217-.182.325-.294v-1.038c-.432.02-.794.058-1.086.114-.288.052-.52.12-.696.204a.923.923 0 0 0-.378.294.664.664 0 0 0-.108.366c0 .26.076.446.228.558.156.112.358.168.606.168ZM43.22 27.01c-.532 0-.942-.15-1.23-.45-.288-.305-.432-.723-.432-1.255v-3.438h-.624a.31.31 0 0 1-.21-.078c-.056-.052-.084-.13-.084-.234v-.588l.99-.162.312-1.68a.302.302 0 0 1 .108-.186.365.365 0 0 1 .222-.066h.768v1.938h1.62v1.056h-1.62v3.336c0 .192.048.342.144.45a.488.488 0 0 0 .384.162c.092 0 .168-.01.228-.03.064-.024.118-.048.162-.072.048-.024.09-.046.126-.066a.194.194 0 0 1 .108-.036.16.16 0 0 1 .108.036c.028.02.058.052.09.096l.444.72c-.216.18-.464.316-.744.408a2.77 2.77 0 0 1-.87.138ZM50.423 26.913h-.666c-.14 0-.25-.02-.33-.06-.08-.044-.14-.13-.18-.258l-.132-.438c-.156.14-.31.264-.462.372a2.804 2.804 0 0 1-.462.264c-.16.072-.33.126-.51.162-.18.036-.38.054-.6.054-.26 0-.5-.034-.72-.102a1.618 1.618 0 0 1-.57-.318 1.448 1.448 0 0 1-.366-.522 1.852 1.852 0 0 1-.132-.726c0-.232.06-.46.18-.684.124-.228.328-.432.612-.612.284-.184.662-.336 1.134-.456.472-.12 1.058-.188 1.758-.204v-.36c0-.412-.088-.716-.264-.912-.172-.2-.424-.3-.756-.3a1.837 1.837 0 0 0-1.02.276c-.116.068-.224.13-.324.186a.664.664 0 0 1-.33.084.429.429 0 0 1-.258-.078.614.614 0 0 1-.174-.192l-.27-.474c.708-.648 1.562-.972 2.562-.972.36 0 .68.06.96.18.284.116.524.28.72.492.196.208.344.458.444.75.104.292.156.612.156.96v3.888Zm-2.88-.924c.152 0 .292-.014.42-.042.128-.028.248-.07.36-.126.116-.056.226-.124.33-.204.108-.084.216-.182.324-.294v-1.038c-.432.02-.794.058-1.086.114-.288.052-.52.12-.696.204a.923.923 0 0 0-.378.294.664.664 0 0 0-.108.366c0 .26.076.446.228.558.156.112.358.168.606.168Z"/></svg></g><a id="title" href="https://ourworldindata.org/explorers/minerals?Mineral=Tin&amp;Metric=Unit+value&amp;Type=Mine&amp;Share+of+global=false&amp;country=AUS~CHL~CHN~USA~CAN~ALB~DZA~ARG~ARM~AUT~AZE~BOL~OWID_WRL~BWA~BRA~BGR~COL~COG~CUB~CYP~OWID_CZS~COD~DOM~OWID_GDR~ZWE~ZMB~OWID_YGS~OWID_GFR~VNM~UZB~GBR~UGA~OWID_USS~TUR~TZA~TJK~TWN~SWE~ESP~KOR~ZAF~SVK~OWID_SRM~SRB~SAU~RUS~ROU~PRT~POL~PHL~PER~PNG~PAN~PAK~OMN~NOR~MKD~PRK~NIC~NZL~NAM~MMR~MOZ~MAR~MNG~MEX~MRT~MYS~LAO~KGZ~KEN~KAZ~JPN~ITA~ISR~IRL~IRN~IDN~IND~HUN~HND~HTI~GTM~GRC~DEU~GEO~FRA~FIN~ERI~ECU~VEN~ARE~UKR~CHE~SUR~LKA~SVN~QAT~NGA~NLD~MNE~ISL~GHA~EGY~HRV~CMR~BIH~BHR~AFG~OWID_KOS~MDG~NCL~SDN~Other~CZE~THA~TUN~CIV~GAB~RWA~NER~ETH~BDI~GRL~BLR~JOR~BEL" style="font-family:&#x27;Playfair Display&#x27;, Georgia, &#x27;Times New Roman&#x27;, &#x27;Liberation Serif&#x27;, serif" target="_blank" rel="noopener"><text font-size="24.75" font-weight="600" x="16.0" y="40.0" fill="#5b5b5b"><tspan x="16" y="40.0075">Tin unit value, 1900 to 2021</tspan></text></a><g id="subtitle" class="markdown-text-wrap"><text x="16.0" y="63.9" style="font-size:14.625px;line-height:1.2" fill="#5b5b5b"><tspan x="16" y="63.9">Value of 1 tonne of tin, in constant 1998 US$ per tonne.</tspan></text></g></g><g id="chart-area" style="pointer-events:none"><g id="line-chart" class="LineChart"><defs><clipPath id="boundsClip-103"><rect x="71.48" y="73.25" width="838" height="470.35"></rect></clipPath></defs><rect x="16" y="83.25" width="818" height="450.35" fill="none"></rect><g id="dual-axis" class="DualAxisView"><g id="horizontal-axis" class="HorizontalAxis"><g id="tick__1900"><line x1="81.5" y1="512.6" x2="81.5" y2="518.1" stroke="#999" stroke-width="1"></line><text x="81.48" y="531.6" fill="#5b5b5b" text-anchor="start" font-size="13.5">1900</text></g><g id="tick__2021"><line x1="763.8" y1="512.6" x2="763.8" y2="518.1" stroke="#999" stroke-width="1"></line><text x="763.765" y="531.6" fill="#5b5b5b" text-anchor="end" font-size="13.5">2021</text></g><g id="tick__1920"><line x1="194.3" y1="512.6" x2="194.3" y2="518.1" stroke="#999" stroke-width="1"></line><text x="194.3" y="531.6" fill="#5b5b5b" text-anchor="middle" font-size="13.5">1920</text></g><g id="tick__1940"><line x1="307" y1="512.6" x2="307" y2="518.1" stroke="#999" stroke-width="1"></line><text x="307" y="531.6" fill="#5b5b5b" text-anchor="middle" font-size="13.5">1940</text></g><g id="tick__1960"><line x1="419.8" y1="512.6" x2="419.8" y2="518.1" stroke="#999" stroke-width="1"></line><text x="419.8" y="531.6" fill="#5b5b5b" text-anchor="middle" font-size="13.5">1960</text></g><g id="tick__1980"><line x1="532.6" y1="512.6" x2="532.6" y2="518.1" stroke="#999" stroke-width="1"></line><text x="532.6" y="531.6" fill="#5b5b5b" text-anchor="middle" font-size="13.5">1980</text></g><g id="tick__2000"><line x1="645.4" y1="512.6" x2="645.4" y2="518.1" stroke="#999" stroke-width="1"></line><text x="645.4" y="531.6" fill="#5b5b5b" text-anchor="middle" font-size="13.5">2000</text></g></g><g id="vertical-axis" class="VerticalAxis"><g id="tick-labels"><text id="tick-label__0-__0024__002ft" x="76.48" y="513.1" dy=".32em" text-anchor="end" fill="#5b5b5b" font-size="13.5">0 $/t</text><text id="tick-label__5__002c000-__0024__002ft" x="76.48" y="455.7" dy=".32em" text-anchor="end" fill="#5b5b5b" font-size="13.5">5,000 $/t</text><text id="tick-label__10__002c000-__0024__002ft" x="76.48" y="398.2" dy=".32em" text-anchor="end" fill="#5b5b5b" font-size="13.5">10,000 $/t</text><text id="tick-label__15__002c000-__0024__002ft" x="76.48" y="340.8" dy=".32em" text-anchor="end" fill="#5b5b5b" font-size="13.5">15,000 $/t</text><text id="tick-label__20__002c000-__0024__002ft" x="76.48" y="283.4" dy=".32em" text-anchor="end" fill="#5b5b5b" font-size="13.5">20,000 $/t</text><text id="tick-label__25__002c000-__0024__002ft" x="76.48" y="225.9" dy=".32em" text-anchor="end" fill="#5b5b5b" font-size="13.5">25,000 $/t</text><text id="tick-label__30__002c000-__0024__002ft" x="76.48" y="168.5" dy=".32em" text-anchor="end" fill="#5b5b5b" font-size="13.5">30,000 $/t</text><text id="tick-label__35__002c000-__0024__002ft" x="76.48" y="111.1" dy=".32em" text-anchor="end" fill="#5b5b5b" font-size="13.5">35,000 $/t</text></g></g><g id="horizontal-grid-lines" class="AxisGridLines horizontalLines"><line id="grid-line__0" x1="81.48" y1="513.1" x2="763.76" y2="513.1" stroke="#999" stroke-width="1"></line><line id="grid-line__5000" x1="81.48" y1="455.7" x2="763.76" y2="455.7" stroke="#ddd" stroke-width="1" stroke-dasharray="3,2"></line><line id="grid-line__10000" x1="81.48" y1="398.2" x2="763.76" y2="398.2" stroke="#ddd" stroke-width="1" stroke-dasharray="3,2"></line><line id="grid-line__15000" x1="81.48" y1="340.8" x2="763.76" y2="340.8" stroke="#ddd" stroke-width="1" stroke-dasharray="3,2"></line><line id="grid-line__20000" x1="81.48" y1="283.4" x2="763.76" y2="283.4" stroke="#ddd" stroke-width="1" stroke-dasharray="3,2"></line><line id="grid-line__25000" x1="81.48" y1="225.9" x2="763.76" y2="225.9" stroke="#ddd" stroke-width="1" stroke-dasharray="3,2"></line><line id="grid-line__30000" x1="81.48" y1="168.5" x2="763.76" y2="168.5" stroke="#ddd" stroke-width="1" stroke-dasharray="3,2"></line><line id="grid-line__35000" x1="81.48" y1="111.1" x2="763.76" y2="111.1" stroke="#ddd" stroke-width="1" stroke-dasharray="3,2"></line></g></g><g clip-path="url(#boundsClip-103)"><g id="line-labels" class="LineLabels"><g id="mark__World" class="legendMark" style="cursor:default"><rect id="background" x="763.765" y="265.15" width="70.235" height="13.5" fill="#fff" opacity="0"></rect><text id="label" font-size="13.50" font-weight="400" x="767.8" y="276.9" fill="#c15065"><tspan x="767.765" y="276.895">World</tspan></text></g></g><g id="lines" class="Lines"><rect x="81" y="89" width="682" height="424" fill="rgba(255,255,255,0)" opacity="0"></rect><g id="line__World"><path stroke-linecap="round" stroke-linejoin="round" stroke="#ddd" d="M81.5 364.9L87.1 430.2L92.8 384.5L98.4 383.3L104 384.5L109.7 368.4L115.3 330.5L121 343.1L126.6 377.6L132.2 376.4L137.9 361.5L143.5 324.7L149.1 315.5L154.8 328.2L160.4 371.8L166.1 355.7L171.7 348.8L177.3 313.2L183 270.7L188.6 361.5L194.3 413.6L199.9 444.3L205.5 432.9L211.2 410.2L216.8 392.5L222.4 376.4L228.1 361.5L233.7 360.3L239.4 391.3L245 404.1L250.6 434.4L256.3 446.6L261.9 446.8L267.6 389L273.2 352.3L278.8 361.5L284.5 375.3L290.1 356.9L295.8 389L301.4 363.8L307 366.1L312.7 367.2L318.3 381L323.9 389L329.6 391.3L335.2 393.6L340.9 398.2L346.5 369.5L352.1 343.1L357.8 340.8L363.4 350L369.1 312.1L374.7 325.9L380.3 364.9L386 371.8L391.6 367.2L397.2 359.2L402.9 371.8L408.5 377.6L414.2 368.4L419.8 371.8L425.4 355.7L431.1 355.7L436.7 355.7L442.4 302.9L448 278.8L453.6 304L459.3 323.6L464.9 337.4L470.6 328.2L476.2 328.2L481.8 343.1L487.5 337.4L493.1 301.7L498.7 181.1L504.4 252.4L510 237.4L515.7 149L521.3 114.5L526.9 95L532.6 89.3L538.2 180L543.9 232.8L549.5 242L555.1 265L560.8 284.5L566.4 368.4L572 361.5L577.7 359.2L583.3 339.7L589 391.3L594.6 402.8L600.2 394.8L605.9 413.2L611.5 410.3L617.2 400.5L622.8 404.6L628.4 415L634.1 418.6L639.7 422.4L645.4 424.3L651 439.7L656.6 446.1L662.3 436.8L667.9 393.6L673.5 411.4L679.2 397.1L684.8 333.9L690.5 296L696.1 351.1L701.7 278.8L707.4 224.8L713 282.2L718.7 329.3L724.3 335.1L729.9 381L735.6 368.4L741.2 355.7L746.8 359.2L752.5 373L758.1 385.6L763.8 271.9" fill="none" stroke-width="1"></path></g><g id="line__World"><path id="outline" fill="none" stroke-linecap="butt" stroke-linejoin="round" stroke="#fff" stroke-width="2.5" d="M81.5 364.9L87.1 430.2L92.8 384.5L98.4 383.3L104 384.5L109.7 368.4L115.3 330.5L121 343.1L126.6 377.6L132.2 376.4L137.9 361.5L143.5 324.7L149.1 315.5L154.8 328.2L160.4 371.8L166.1 355.7L171.7 348.8L177.3 313.2L183 270.7L188.6 361.5L194.3 413.6L199.9 444.3L205.5 432.9L211.2 410.2L216.8 392.5L222.4 376.4L228.1 361.5L233.7 360.3L239.4 391.3L245 404.1L250.6 434.4L256.3 446.6L261.9 446.8L267.6 389L273.2 352.3L278.8 361.5L284.5 375.3L290.1 356.9L295.8 389L301.4 363.8L307 366.1L312.7 367.2L318.3 381L323.9 389L329.6 391.3L335.2 393.6L340.9 398.2L346.5 369.5L352.1 343.1L357.8 340.8L363.4 350L369.1 312.1L374.7 325.9L380.3 364.9L386 371.8L391.6 367.2L397.2 359.2L402.9 371.8L408.5 377.6L414.2 368.4L419.8 371.8L425.4 355.7L431.1 355.7L436.7 355.7L442.4 302.9L448 278.8L453.6 304L459.3 323.6L464.9 337.4L470.6 328.2L476.2 328.2L481.8 343.1L487.5 337.4L493.1 301.7L498.7 181.1L504.4 252.4L510 237.4L515.7 149L521.3 114.5L526.9 95L532.6 89.3L538.2 180L543.9 232.8L549.5 242L555.1 265L560.8 284.5L566.4 368.4L572 361.5L577.7 359.2L583.3 339.7L589 391.3L594.6 402.8L600.2 394.8L605.9 413.2L611.5 410.3L617.2 400.5L622.8 404.6L628.4 415L634.1 418.6L639.7 422.4L645.4 424.3L651 439.7L656.6 446.1L662.3 436.8L667.9 393.6L673.5 411.4L679.2 397.1L684.8 333.9L690.5 296L696.1 351.1L701.7 278.8L707.4 224.8L713 282.2L718.7 329.3L724.3 335.1L729.9 381L735.6 368.4L741.2 355.7L746.8 359.2L752.5 373L758.1 385.6L763.8 271.9"></path><g id="polyline"><polyline id="polyline" points="81.50,364.90 87.10,430.20 92.80,384.50 98.40,383.30 104.00,384.50 109.70,368.40 115.30,330.50 121.00,343.10 126.60,377.60 132.20,376.40 137.90,361.50 143.50,324.70 149.10,315.50 154.80,328.20 160.40,371.80 166.10,355.70 171.70,348.80 177.30,313.20 183.00,270.70 188.60,361.50 194.30,413.60 199.90,444.30 205.50,432.90 211.20,410.20 216.80,392.50 222.40,376.40 228.10,361.50 233.70,360.30 239.40,391.30 245.00,404.10 250.60,434.40 256.30,446.60 261.90,446.80 267.60,389.00 273.20,352.30 278.80,361.50 284.50,375.30 290.10,356.90 295.80,389.00 301.40,363.80 307.00,366.10 312.70,367.20 318.30,381.00 323.90,389.00 329.60,391.30 335.20,393.60 340.90,398.20 346.50,369.50 352.10,343.10 357.80,340.80 363.40,350.00 369.10,312.10 374.70,325.90 380.30,364.90 386.00,371.80 391.60,367.20 397.20,359.20 402.90,371.80 408.50,377.60 414.20,368.40 419.80,371.80 425.40,355.70 431.10,355.70 436.70,355.70 442.40,302.90 448.00,278.80 453.60,304.00 459.30,323.60 464.90,337.40 470.60,328.20 476.20,328.20 481.80,343.10 487.50,337.40 493.10,301.70 498.70,181.10 504.40,252.40 510.00,237.40 515.70,149.00 521.30,114.50 526.90,95.00 532.60,89.30 538.20,180.00 543.90,232.80 549.50,242.00 555.10,265.00 560.80,284.50 566.40,368.40 572.00,361.50 577.70,359.20 583.30,339.70 589.00,391.30 594.60,402.80 600.20,394.80 605.90,413.20 611.50,410.30 617.20,400.50 622.80,404.60 628.40,415.00 634.10,418.60 639.70,422.40 645.40,424.30 651.00,439.70 656.60,446.10 662.30,436.80 667.90,393.60 673.50,411.40 679.20,397.10 684.80,333.90 690.50,296.00 696.10,351.10 701.70,278.80 707.40,224.80 713.00,282.20 718.70,329.30 724.30,335.10 729.90,381.00 735.60,368.40 741.20,355.70 746.80,359.20 752.50,373.00 758.10,385.60 763.80,271.90" stroke-linejoin="round" stroke-width="1.5" stroke="#C15065" fill="none" stroke-linecap="butt"></polyline></g><g id="markers"><circle cx="81.5" cy="364.9" r="1.8" fill="#C15065"></circle><circle cx="87.1" cy="430.2" r="1.8" fill="#C15065"></circle><circle cx="92.8" cy="384.5" r="1.8" fill="#C15065"></circle><circle cx="98.4" cy="383.3" r="1.8" fill="#C15065"></circle><circle cx="104" cy="384.5" r="1.8" fill="#C15065"></circle><circle cx="109.7" cy="368.4" r="1.8" fill="#C15065"></circle><circle cx="115.3" cy="330.5" r="1.8" fill="#C15065"></circle><circle cx="121" cy="343.1" r="1.8" fill="#C15065"></circle><circle cx="126.6" cy="377.6" r="1.8" fill="#C15065"></circle><circle cx="132.2" cy="376.4" r="1.8" fill="#C15065"></circle><circle cx="137.9" cy="361.5" r="1.8" fill="#C15065"></circle><circle cx="143.5" cy="324.7" r="1.8" fill="#C15065"></circle><circle cx="149.1" cy="315.5" r="1.8" fill="#C15065"></circle><circle cx="154.8" cy="328.2" r="1.8" fill="#C15065"></circle><circle cx="160.4" cy="371.8" r="1.8" fill="#C15065"></circle><circle cx="166.1" cy="355.7" r="1.8" fill="#C15065"></circle><circle cx="171.7" cy="348.8" r="1.8" fill="#C15065"></circle><circle cx="177.3" cy="313.2" r="1.8" fill="#C15065"></circle><circle cx="183" cy="270.7" r="1.8" fill="#C15065"></circle><circle cx="188.6" cy="361.5" r="1.8" fill="#C15065"></circle><circle cx="194.3" cy="413.6" r="1.8" fill="#C15065"></circle><circle cx="199.9" cy="444.3" r="1.8" fill="#C15065"></circle><circle cx="205.5" cy="432.9" r="1.8" fill="#C15065"></circle><circle cx="211.2" cy="410.2" r="1.8" fill="#C15065"></circle><circle cx="216.8" cy="392.5" r="1.8" fill="#C15065"></circle><circle cx="222.4" cy="376.4" r="1.8" fill="#C15065"></circle><circle cx="228.1" cy="361.5" r="1.8" fill="#C15065"></circle><circle cx="233.7" cy="360.3" r="1.8" fill="#C15065"></circle><circle cx="239.4" cy="391.3" r="1.8" fill="#C15065"></circle><circle cx="245" cy="404.1" r="1.8" fill="#C15065"></circle><circle cx="250.6" cy="434.4" r="1.8" fill="#C15065"></circle><circle cx="256.3" cy="446.6" r="1.8" fill="#C15065"></circle><circle cx="261.9" cy="446.8" r="1.8" fill="#C15065"></circle><circle cx="267.6" cy="389" r="1.8" fill="#C15065"></circle><circle cx="273.2" cy="352.3" r="1.8" fill="#C15065"></circle><circle cx="278.8" cy="361.5" r="1.8" fill="#C15065"></circle><circle cx="284.5" cy="375.3" r="1.8" fill="#C15065"></circle><circle cx="290.1" cy="356.9" r="1.8" fill="#C15065"></circle><circle cx="295.8" cy="389" r="1.8" fill="#C15065"></circle><circle cx="301.4" cy="363.8" r="1.8" fill="#C15065"></circle><circle cx="307" cy="366.1" r="1.8" fill="#C15065"></circle><circle cx="312.7" cy="367.2" r="1.8" fill="#C15065"></circle><circle cx="318.3" cy="381" r="1.8" fill="#C15065"></circle><circle cx="323.9" cy="389" r="1.8" fill="#C15065"></circle><circle cx="329.6" cy="391.3" r="1.8" fill="#C15065"></circle><circle cx="335.2" cy="393.6" r="1.8" fill="#C15065"></circle><circle cx="340.9" cy="398.2" r="1.8" fill="#C15065"></circle><circle cx="346.5" cy="369.5" r="1.8" fill="#C15065"></circle><circle cx="352.1" cy="343.1" r="1.8" fill="#C15065"></circle><circle cx="357.8" cy="340.8" r="1.8" fill="#C15065"></circle><circle cx="363.4" cy="350" r="1.8" fill="#C15065"></circle><circle cx="369.1" cy="312.1" r="1.8" fill="#C15065"></circle><circle cx="374.7" cy="325.9" r="1.8" fill="#C15065"></circle><circle cx="380.3" cy="364.9" r="1.8" fill="#C15065"></circle><circle cx="386" cy="371.8" r="1.8" fill="#C15065"></circle><circle cx="391.6" cy="367.2" r="1.8" fill="#C15065"></circle><circle cx="397.2" cy="359.2" r="1.8" fill="#C15065"></circle><circle cx="402.9" cy="371.8" r="1.8" fill="#C15065"></circle><circle cx="408.5" cy="377.6" r="1.8" fill="#C15065"></circle><circle cx="414.2" cy="368.4" r="1.8" fill="#C15065"></circle><circle cx="419.8" cy="371.8" r="1.8" fill="#C15065"></circle><circle cx="425.4" cy="355.7" r="1.8" fill="#C15065"></circle><circle cx="431.1" cy="355.7" r="1.8" fill="#C15065"></circle><circle cx="436.7" cy="355.7" r="1.8" fill="#C15065"></circle><circle cx="442.4" cy="302.9" r="1.8" fill="#C15065"></circle><circle cx="448" cy="278.8" r="1.8" fill="#C15065"></circle><circle cx="453.6" cy="304" r="1.8" fill="#C15065"></circle><circle cx="459.3" cy="323.6" r="1.8" fill="#C15065"></circle><circle cx="464.9" cy="337.4" r="1.8" fill="#C15065"></circle><circle cx="470.6" cy="328.2" r="1.8" fill="#C15065"></circle><circle cx="476.2" cy="328.2" r="1.8" fill="#C15065"></circle><circle cx="481.8" cy="343.1" r="1.8" fill="#C15065"></circle><circle cx="487.5" cy="337.4" r="1.8" fill="#C15065"></circle><circle cx="493.1" cy="301.7" r="1.8" fill="#C15065"></circle><circle cx="498.7" cy="181.1" r="1.8" fill="#C15065"></circle><circle cx="504.4" cy="252.4" r="1.8" fill="#C15065"></circle><circle cx="510" cy="237.4" r="1.8" fill="#C15065"></circle><circle cx="515.7" cy="149" r="1.8" fill="#C15065"></circle><circle cx="521.3" cy="114.5" r="1.8" fill="#C15065"></circle><circle cx="526.9" cy="95" r="1.8" fill="#C15065"></circle><circle cx="532.6" cy="89.3" r="1.8" fill="#C15065"></circle><circle cx="538.2" cy="180" r="1.8" fill="#C15065"></circle><circle cx="543.9" cy="232.8" r="1.8" fill="#C15065"></circle><circle cx="549.5" cy="242" r="1.8" fill="#C15065"></circle><circle cx="555.1" cy="265" r="1.8" fill="#C15065"></circle><circle cx="560.8" cy="284.5" r="1.8" fill="#C15065"></circle><circle cx="566.4" cy="368.4" r="1.8" fill="#C15065"></circle><circle cx="572" cy="361.5" r="1.8" fill="#C15065"></circle><circle cx="577.7" cy="359.2" r="1.8" fill="#C15065"></circle><circle cx="583.3" cy="339.7" r="1.8" fill="#C15065"></circle><circle cx="589" cy="391.3" r="1.8" fill="#C15065"></circle><circle cx="594.6" cy="402.8" r="1.8" fill="#C15065"></circle><circle cx="600.2" cy="394.8" r="1.8" fill="#C15065"></circle><circle cx="605.9" cy="413.2" r="1.8" fill="#C15065"></circle><circle cx="611.5" cy="410.3" r="1.8" fill="#C15065"></circle><circle cx="617.2" cy="400.5" r="1.8" fill="#C15065"></circle><circle cx="622.8" cy="404.6" r="1.8" fill="#C15065"></circle><circle cx="628.4" cy="415" r="1.8" fill="#C15065"></circle><circle cx="634.1" cy="418.6" r="1.8" fill="#C15065"></circle><circle cx="639.7" cy="422.4" r="1.8" fill="#C15065"></circle><circle cx="645.4" cy="424.3" r="1.8" fill="#C15065"></circle><circle cx="651" cy="439.7" r="1.8" fill="#C15065"></circle><circle cx="656.6" cy="446.1" r="1.8" fill="#C15065"></circle><circle cx="662.3" cy="436.8" r="1.8" fill="#C15065"></circle><circle cx="667.9" cy="393.6" r="1.8" fill="#C15065"></circle><circle cx="673.5" cy="411.4" r="1.8" fill="#C15065"></circle><circle cx="679.2" cy="397.1" r="1.8" fill="#C15065"></circle><circle cx="684.8" cy="333.9" r="1.8" fill="#C15065"></circle><circle cx="690.5" cy="296" r="1.8" fill="#C15065"></circle><circle cx="696.1" cy="351.1" r="1.8" fill="#C15065"></circle><circle cx="701.7" cy="278.8" r="1.8" fill="#C15065"></circle><circle cx="707.4" cy="224.8" r="1.8" fill="#C15065"></circle><circle cx="713" cy="282.2" r="1.8" fill="#C15065"></circle><circle cx="718.7" cy="329.3" r="1.8" fill="#C15065"></circle><circle cx="724.3" cy="335.1" r="1.8" fill="#C15065"></circle><circle cx="729.9" cy="381" r="1.8" fill="#C15065"></circle><circle cx="735.6" cy="368.4" r="1.8" fill="#C15065"></circle><circle cx="741.2" cy="355.7" r="1.8" fill="#C15065"></circle><circle cx="746.8" cy="359.2" r="1.8" fill="#C15065"></circle><circle cx="752.5" cy="373" r="1.8" fill="#C15065"></circle><circle cx="758.1" cy="385.6" r="1.8" fill="#C15065"></circle><circle cx="763.8" cy="271.9" r="1.8" fill="#C15065"></circle></g></g></g></g></g></g><g id="footer" class="SourcesFooter" style="fill:#5b5b5b"><g id="sources" class="markdown-text-wrap"><text x="16.0" y="562.7" style="font-size:13.5px;line-height:1.2"><tspan x="16" y="562.7"><tspan style="font-weight:700">Data source:</tspan> USGS - Historical Statistics for Mineral and Material Commodities (2023)</tspan></text></g><g id="note" class="markdown-text-wrap"><text x="16.0" y="580.9" style="font-size:13.5px;line-height:1.2"><tspan x="16" y="580.9"><tspan style="font-weight:700">Note:</tspan> This data is adjusted for inflation.</tspan></text></g><text id="origin-url" font-size="13.50" x="792.7" y="562.7"><tspan x="792.69" y="562.695"><a target="_blank" style="fill: #5b5b5b;" href="https://creativecommons.org/licenses/by/4.0/">CC BY</a></tspan></text></g></svg>