<svg xmlns="http://www.w3.org/2000/svg" version="1.1" style="font-family:Lato, &#x27;Helvetica Neue&#x27;, Helvetica, Arial, &#x27;Liberation Sans&#x27;, sans-serif;font-size:18px;background-color:white;text-rendering:geometricPrecision;-webkit-font-smoothing:antialiased" width="850" height="706.25" viewBox="0 0 850 706.25"><defs><style>@import url(https://ourworldindata.org/fonts.css)</style></defs><defs><pattern id="noDataPattern" patternUnits="userSpaceOnUse" width="4" height="4" patternTransform="rotate(-45 2 2)"><path d="M -1,2 l 6,0" stroke="#ccc" stroke-width="0.7"></path></pattern></defs><rect class="background-fill" fill="white" width="850" height="706.25"></rect><g id="header" class="HeaderView"><g id="logo" transform="translate(769, 16) scale(1)"><svg className="owidLogo" xmlns="http://www.w3.org/2000/svg" width="65" height="36" viewBox="0 0 65 36"  fill="none"><path fill="#002147" d="M0 0h64.8v36H0z"/><path fill="#CE261E" d="M0 33.3h64.8V36H0z"/><path fill="#fff" d="M13.796 10.575c0 .636-.106 1.226-.318 1.77a4.193 4.193 0 0 1-.894 1.404 4.084 4.084 0 0 1-1.386.93c-.54.22-1.138.33-1.794.33-.656 0-1.256-.11-1.8-.33a4.149 4.149 0 0 1-1.392-.93 4.193 4.193 0 0 1-.894-1.404A4.833 4.833 0 0 1 5 10.575c0-.636.106-1.224.318-1.764a4.18 4.18 0 0 1 .894-1.41 4.076 4.076 0 0 1 1.392-.924 4.684 4.684 0 0 1 1.8-.336c.656 0 1.254.112 1.794.336.54.224 1.002.534 1.386.93.384.392.682.86.894 1.404.212.54.318 1.128.318 1.764Zm-1.656 0c0-.476-.064-.902-.192-1.278a2.671 2.671 0 0 0-.54-.966 2.332 2.332 0 0 0-.864-.606 2.94 2.94 0 0 0-1.14-.21c-.424 0-.806.07-1.146.21-.34.14-.63.342-.87.606a2.742 2.742 0 0 0-.546.966 3.955 3.955 0 0 0-.192 1.278c0 .476.064.904.192 1.284.128.376.31.696.546.96.24.26.53.46.87.6.34.14.722.21 1.146.21.424 0 .804-.07 1.14-.21.34-.14.628-.34.864-.6.236-.264.416-.584.54-.96a4.01 4.01 0 0 0 .192-1.284ZM16.104 8.757v3.912c0 .376.086.668.258.876.176.204.438.306.786.306.256 0 .496-.056.72-.168a2.58 2.58 0 0 0 .636-.474V8.757h1.482v6.156h-.906c-.192 0-.318-.09-.378-.27l-.102-.492a4.65 4.65 0 0 1-.396.354 2.577 2.577 0 0 1-.438.27 2.35 2.35 0 0 1-.498.168 2.345 2.345 0 0 1-.57.066c-.336 0-.634-.056-.894-.168a1.821 1.821 0 0 1-.648-.486 2.157 2.157 0 0 1-.402-.738 3.233 3.233 0 0 1-.132-.948V8.757h1.482ZM21.328 14.913V8.757h.87c.152 0 .258.028.318.084.06.056.1.152.12.288l.09.744c.22-.38.478-.68.774-.9.296-.22.628-.33.996-.33.304 0 .556.07.756.21l-.192 1.11c-.012.072-.038.124-.078.156a.278.278 0 0 1-.162.042 1.01 1.01 0 0 1-.246-.042 1.646 1.646 0 0 0-.414-.042c-.308 0-.572.086-.792.258-.22.168-.406.416-.558.744v3.834h-1.482ZM27.347 6.237h1.356a.57.57 0 0 1 .348.102c.096.064.16.152.192.264l1.476 5.19c.036.128.068.268.096.42.032.148.062.306.09.474a5.968 5.968 0 0 1 .228-.894l1.704-5.19a.575.575 0 0 1 .186-.252.543.543 0 0 1 .348-.114h.474a.57.57 0 0 1 .348.102.497.497 0 0 1 .192.264l1.692 5.19c.088.256.164.54.228.852.028-.156.056-.306.084-.45.032-.144.064-.278.096-.402l1.476-5.19c.028-.1.09-.186.186-.258a.563.563 0 0 1 .348-.108h1.266l-2.694 8.676h-1.458l-1.896-5.928-.078-.246a9.504 9.504 0 0 1-.072-.282c-.024.1-.05.194-.078.282-.024.088-.048.17-.072.246l-1.914 5.928H30.04l-2.694-8.676ZM42.771 8.661c.46 0 .876.074 1.248.222.376.148.696.358.96.63s.468.604.612.996c.144.392.216.83.216 1.314 0 .488-.072.928-.216 1.32a2.85 2.85 0 0 1-.612 1.002 2.653 2.653 0 0 1-.96.636 3.35 3.35 0 0 1-1.248.222c-.46 0-.878-.074-1.254-.222a2.712 2.712 0 0 1-.966-.636 2.922 2.922 0 0 1-.618-1.002 3.807 3.807 0 0 1-.216-1.32c0-.484.072-.922.216-1.314.148-.392.354-.724.618-.996.268-.272.59-.482.966-.63a3.397 3.397 0 0 1 1.254-.222Zm0 5.202c.512 0 .89-.172 1.134-.516.248-.344.372-.848.372-1.512s-.124-1.17-.372-1.518c-.244-.348-.622-.522-1.134-.522-.52 0-.904.176-1.152.528-.248.348-.372.852-.372 1.512s.124 1.164.372 1.512c.248.344.632.516 1.152.516ZM46.723 14.913V8.757h.87c.152 0 .258.028.318.084.06.056.1.152.12.288l.09.744c.22-.38.478-.68.774-.9.296-.22.628-.33.996-.33.304 0 .556.07.756.21l-.192 1.11c-.012.072-.038.124-.078.156a.278.278 0 0 1-.162.042 1.01 1.01 0 0 1-.246-.042 1.646 1.646 0 0 0-.414-.042c-.308 0-.572.086-.792.258-.22.168-.406.416-.558.744v3.834h-1.482ZM52.96 5.997v8.916h-1.482V5.997h1.482ZM58.732 14.913c-.192 0-.318-.09-.378-.27l-.12-.594a3.68 3.68 0 0 1-.402.39c-.14.116-.292.216-.456.3-.16.084-.334.148-.522.192a2.372 2.372 0 0 1-.6.072c-.336 0-.644-.07-.924-.21a2.098 2.098 0 0 1-.726-.606 3.033 3.033 0 0 1-.468-.99 5.072 5.072 0 0 1-.162-1.344c0-.456.062-.88.186-1.272s.302-.732.534-1.02c.232-.288.51-.512.834-.672a2.384 2.384 0 0 1 1.092-.246 2.103 2.103 0 0 1 1.536.606V5.997h1.482v8.916h-.906Zm-1.974-1.086c.308 0 .57-.064.786-.192.216-.128.42-.31.612-.546v-2.76a1.452 1.452 0 0 0-.552-.432 1.597 1.597 0 0 0-.636-.126c-.224 0-.428.042-.612.126a1.21 1.21 0 0 0-.462.384c-.124.168-.22.384-.288.648-.068.26-.102.568-.102.924 0 .36.028.666.084.918.06.248.144.452.252.612.108.156.24.27.396.342.156.068.33.102.522.102ZM16.331 20.757v6.156H14.85v-6.156h1.481Zm.223-1.794a.844.844 0 0 1-.078.36.963.963 0 0 1-.21.294.995.995 0 0 1-.3.204.963.963 0 0 1-.372.072.948.948 0 0 1-.367-.072 1.018 1.018 0 0 1-.498-.498.963.963 0 0 1 0-.732.995.995 0 0 1 .205-.3.929.929 0 0 1 .293-.198.899.899 0 0 1 .738 0 .912.912 0 0 1 .3.198.943.943 0 0 1 .288.672ZM17.771 26.913v-6.156h.906c.192 0 .318.09.378.27l.102.486a2.934 2.934 0 0 1 .828-.618c.156-.076.322-.134.498-.174.176-.04.368-.06.576-.06.336 0 .634.058.894.174.26.112.476.272.648.48.176.204.308.45.396.738.092.284.138.598.138.942v3.918h-1.482v-3.918c0-.376-.088-.666-.264-.87-.172-.208-.432-.312-.78-.312-.256 0-.496.058-.72.174a2.58 2.58 0 0 0-.636.474v4.452h-1.482ZM34.22 22.575c0 .636-.106 1.22-.318 1.752-.212.532-.51.99-.894 1.374a4 4 0 0 1-1.386.894 4.87 4.87 0 0 1-1.794.318h-3.312v-8.676h3.312a4.79 4.79 0 0 1 1.794.324 4 4 0 0 1 1.386.894c.384.38.682.836.894 1.368.212.532.318 1.116.318 1.752Zm-1.65 0c0-.476-.064-.902-.192-1.278a2.68 2.68 0 0 0-.546-.96 2.332 2.332 0 0 0-.864-.606 2.94 2.94 0 0 0-1.14-.21h-1.686v6.108h1.686c.424 0 .804-.07 1.14-.21.34-.14.628-.34.864-.6a2.75 2.75 0 0 0 .546-.96 4.01 4.01 0 0 0 .192-1.284ZM39.98 26.913h-.665c-.14 0-.25-.02-.33-.06-.08-.044-.14-.13-.18-.258l-.132-.438c-.156.14-.31.264-.462.372a2.804 2.804 0 0 1-.462.264c-.16.072-.33.126-.51.162-.18.036-.38.054-.6.054-.26 0-.5-.034-.72-.102a1.618 1.618 0 0 1-.57-.318 1.448 1.448 0 0 1-.366-.522 1.852 1.852 0 0 1-.132-.726c0-.232.06-.46.18-.684.124-.228.328-.432.612-.612.284-.184.662-.336 1.134-.456.472-.12 1.058-.188 1.758-.204v-.36c0-.412-.088-.716-.264-.912-.172-.2-.424-.3-.756-.3a1.837 1.837 0 0 0-1.02.276c-.116.068-.224.13-.324.186a.664.664 0 0 1-.33.084.429.429 0 0 1-.258-.078.614.614 0 0 1-.174-.192l-.27-.474c.708-.648 1.562-.972 2.562-.972.36 0 .68.06.96.18.284.116.524.28.72.492.196.208.344.458.444.75.104.292.156.612.156.96v3.888Zm-2.88-.924c.153 0 .293-.014.42-.042.129-.028.249-.07.36-.126.117-.056.227-.124.33-.204.109-.084.217-.182.325-.294v-1.038c-.432.02-.794.058-1.086.114-.288.052-.52.12-.696.204a.923.923 0 0 0-.378.294.664.664 0 0 0-.108.366c0 .26.076.446.228.558.156.112.358.168.606.168ZM43.22 27.01c-.532 0-.942-.15-1.23-.45-.288-.305-.432-.723-.432-1.255v-3.438h-.624a.31.31 0 0 1-.21-.078c-.056-.052-.084-.13-.084-.234v-.588l.99-.162.312-1.68a.302.302 0 0 1 .108-.186.365.365 0 0 1 .222-.066h.768v1.938h1.62v1.056h-1.62v3.336c0 .192.048.342.144.45a.488.488 0 0 0 .384.162c.092 0 .168-.01.228-.03.064-.024.118-.048.162-.072.048-.024.09-.046.126-.066a.194.194 0 0 1 .108-.036.16.16 0 0 1 .108.036c.028.02.058.052.09.096l.444.72c-.216.18-.464.316-.744.408a2.77 2.77 0 0 1-.87.138ZM50.423 26.913h-.666c-.14 0-.25-.02-.33-.06-.08-.044-.14-.13-.18-.258l-.132-.438c-.156.14-.31.264-.462.372a2.804 2.804 0 0 1-.462.264c-.16.072-.33.126-.51.162-.18.036-.38.054-.6.054-.26 0-.5-.034-.72-.102a1.618 1.618 0 0 1-.57-.318 1.448 1.448 0 0 1-.366-.522 1.852 1.852 0 0 1-.132-.726c0-.232.06-.46.18-.684.124-.228.328-.432.612-.612.284-.184.662-.336 1.134-.456.472-.12 1.058-.188 1.758-.204v-.36c0-.412-.088-.716-.264-.912-.172-.2-.424-.3-.756-.3a1.837 1.837 0 0 0-1.02.276c-.116.068-.224.13-.324.186a.664.664 0 0 1-.33.084.429.429 0 0 1-.258-.078.614.614 0 0 1-.174-.192l-.27-.474c.708-.648 1.562-.972 2.562-.972.36 0 .68.06.96.18.284.116.524.28.72.492.196.208.344.458.444.75.104.292.156.612.156.96v3.888Zm-2.88-.924c.152 0 .292-.014.42-.042.128-.028.248-.07.36-.126.116-.056.226-.124.33-.204.108-.084.216-.182.324-.294v-1.038c-.432.02-.794.058-1.086.114-.288.052-.52.12-.696.204a.923.923 0 0 0-.378.294.664.664 0 0 0-.108.366c0 .26.076.446.228.558.156.112.358.168.606.168Z"/></svg></g><a id="title" href="https://ourworldindata.org/explorers/minerals?Mineral=Tin&amp;Metric=Production&amp;Type=Mine&amp;Share+of+global=false&amp;country=AUS~CHL~CHN~USA~CAN~ALB~DZA~ARG~ARM~AUT~AZE~BOL~OWID_WRL~BWA~BRA~BGR~COL~COG~CUB~CYP~OWID_CZS~COD~DOM~OWID_GDR~ZWE~ZMB~OWID_YGS~OWID_GFR~VNM~UZB~GBR~UGA~OWID_USS~TUR~TZA~TJK~TWN~SWE~ESP~KOR~ZAF~SVK~OWID_SRM~SRB~SAU~RUS~ROU~PRT~POL~PHL~PER~PNG~PAN~PAK~OMN~NOR~MKD~PRK~NIC~NZL~NAM~MMR~MOZ~MAR~MNG~MEX~MRT~MYS~LAO~KGZ~KEN~KAZ~JPN~ITA~ISR~IRL~IRN~IDN~IND~HUN~HND~HTI~GTM~GRC~DEU~GEO~FRA~FIN~ERI~ECU~VEN~ARE~UKR~CHE~SUR~LKA~SVN~QAT~NGA~NLD~MNE~ISL~GHA~EGY~HRV~CMR~BIH~BHR~AFG~OWID_KOS~MDG~NCL~SDN~Other~CZE~THA~TUN~CIV~GAB~RWA~NER~ETH~BDI~GRL~BLR~JOR~BEL" style="font-family:&#x27;Playfair Display&#x27;, Georgia, &#x27;Times New Roman&#x27;, &#x27;Liberation Serif&#x27;, serif" target="_blank" rel="noopener"><text font-size="24.75" font-weight="600" x="16.0" y="40.0" fill="#5b5b5b"><tspan x="16" y="40.0075">Tin production, 1905 to 2023</tspan></text></a><g id="subtitle" class="markdown-text-wrap"><text x="16.0" y="63.9" style="font-size:14.625px;line-height:1.2" fill="#5b5b5b"><tspan x="16" y="63.9">Based on mined, rather than <tspan class="dod-span" data-id="refined-production">refined<tspan style="font-feature-settings:&quot;sups&quot;">ยน</tspan></tspan>, production. Measured in tonnes.</tspan></text></g></g><g id="chart-area" style="pointer-events:none"><g id="line-chart" class="LineChart"><defs><clipPath id="boundsClip-105"><rect x="67.7" y="73.25" width="838" height="470.35"></rect></clipPath></defs><rect x="16" y="83.25" width="818" height="450.35" fill="none"></rect><g id="dual-axis" class="DualAxisView"><g id="horizontal-axis" class="HorizontalAxis"><g id="tick__1905"><line x1="77.7" y1="512.6" x2="77.7" y2="518.1" stroke="#999" stroke-width="1"></line><text x="77.7" y="531.6" fill="#5b5b5b" text-anchor="start" font-size="13.5">1905</text></g><g id="tick__2023"><line x1="615.4" y1="512.6" x2="615.4" y2="518.1" stroke="#999" stroke-width="1"></line><text x="615.4" y="531.6" fill="#5b5b5b" text-anchor="end" font-size="13.5">2023</text></g><g id="tick__1920"><line x1="146.1" y1="512.6" x2="146.1" y2="518.1" stroke="#999" stroke-width="1"></line><text x="146.1" y="531.6" fill="#5b5b5b" text-anchor="middle" font-size="13.5">1920</text></g><g id="tick__1940"><line x1="237.2" y1="512.6" x2="237.2" y2="518.1" stroke="#999" stroke-width="1"></line><text x="237.2" y="531.6" fill="#5b5b5b" text-anchor="middle" font-size="13.5">1940</text></g><g id="tick__1960"><line x1="328.3" y1="512.6" x2="328.3" y2="518.1" stroke="#999" stroke-width="1"></line><text x="328.3" y="531.6" fill="#5b5b5b" text-anchor="middle" font-size="13.5">1960</text></g><g id="tick__1980"><line x1="419.5" y1="512.6" x2="419.5" y2="518.1" stroke="#999" stroke-width="1"></line><text x="419.5" y="531.6" fill="#5b5b5b" text-anchor="middle" font-size="13.5">1980</text></g><g id="tick__2000"><line x1="510.6" y1="512.6" x2="510.6" y2="518.1" stroke="#999" stroke-width="1"></line><text x="510.6" y="531.6" fill="#5b5b5b" text-anchor="middle" font-size="13.5">2000</text></g></g><g id="vertical-axis" class="VerticalAxis"><g id="tick-labels"><text id="tick-label__0-t" x="72.70" y="513.1" dy=".32em" text-anchor="end" fill="#5b5b5b" font-size="13.5">0 t</text><text id="tick-label__50__002c000-t" x="72.70" y="451" dy=".32em" text-anchor="end" fill="#5b5b5b" font-size="13.5">50,000 t</text><text id="tick-label__100__002c000-t" x="72.70" y="388.8" dy=".32em" text-anchor="end" fill="#5b5b5b" font-size="13.5">100,000 t</text><text id="tick-label__150__002c000-t" x="72.70" y="326.7" dy=".32em" text-anchor="end" fill="#5b5b5b" font-size="13.5">150,000 t</text><text id="tick-label__200__002c000-t" x="72.70" y="264.5" dy=".32em" text-anchor="end" fill="#5b5b5b" font-size="13.5">200,000 t</text><text id="tick-label__250__002c000-t" x="72.70" y="202.4" dy=".32em" text-anchor="end" fill="#5b5b5b" font-size="13.5">250,000 t</text><text id="tick-label__300__002c000-t" x="72.70" y="140.2" dy=".32em" text-anchor="end" fill="#5b5b5b" font-size="13.5">300,000 t</text></g></g><g id="horizontal-grid-lines" class="AxisGridLines horizontalLines"><line id="grid-line__0" x1="77.70" y1="513.1" x2="615.40" y2="513.1" stroke="#999" stroke-width="1"></line><line id="grid-line__50000" x1="77.70" y1="451" x2="615.40" y2="451" stroke="#ddd" stroke-width="1" stroke-dasharray="3,2"></line><line id="grid-line__100000" x1="77.70" y1="388.8" x2="615.40" y2="388.8" stroke="#ddd" stroke-width="1" stroke-dasharray="3,2"></line><line id="grid-line__150000" x1="77.70" y1="326.7" x2="615.40" y2="326.7" stroke="#ddd" stroke-width="1" stroke-dasharray="3,2"></line><line id="grid-line__200000" x1="77.70" y1="264.5" x2="615.40" y2="264.5" stroke="#ddd" stroke-width="1" stroke-dasharray="3,2"></line><line id="grid-line__250000" x1="77.70" y1="202.4" x2="615.40" y2="202.4" stroke="#ddd" stroke-width="1" stroke-dasharray="3,2"></line><line id="grid-line__300000" x1="77.70" y1="140.2" x2="615.40" y2="140.2" stroke="#ddd" stroke-width="1" stroke-dasharray="3,2"></line></g></g><g clip-path="url(#boundsClip-105)"><g id="line-labels" class="LineLabels"><g id="mark__World" class="legendMark" style="cursor:default"><g id="connector" class="indicator"><path d="M619.4,152.6 H632.9 V152.6 H646.4" stroke="#999" stroke-width="0.5" fill="none"></path></g><rect id="background" x="615.4" y="145.85" width="70.235" height="13.5" fill="#fff" opacity="0"></rect><text id="label" font-size="13.50" font-weight="400" x="650.4" y="157.6" fill="#c15065"><tspan x="650.4" y="157.595">World</tspan></text></g><g id="mark__China" class="legendMark" style="cursor:default"><g id="connector" class="indicator"><path d="M619.4,428.6 H621.0875 V294.34999999999997 H646.4" stroke="#999" stroke-width="0.5" fill="none"></path></g><rect id="background" x="615.4" y="287.59999999999997" width="70.37" height="13.5" fill="#fff" opacity="0"></rect><text id="label" font-size="13.50" font-weight="400" x="650.4" y="299.3" fill="#cf0a66"><tspan x="650.4" y="299.34499999999997">China</tspan></text></g><g id="mark__Myanmar" class="legendMark" style="cursor:default"><g id="connector" class="indicator"><path d="M619.4,446 H622.775 V309.84999999999997 H646.4" stroke="#999" stroke-width="0.5" fill="none"></path></g><rect id="background" x="615.4" y="303.09999999999997" width="91.295" height="13.5" fill="#fff" opacity="0"></rect><text id="label" font-size="13.50" font-weight="400" x="650.4" y="314.8" fill="#008291"><tspan x="650.4" y="314.84499999999997">Myanmar</tspan></text></g><g id="mark__Indonesia" class="legendMark" style="cursor:default"><g id="connector" class="indicator"><path d="M619.4,448.5 H624.4625 V325.34999999999997 H646.4" stroke="#999" stroke-width="0.5" fill="none"></path></g><rect id="background" x="615.4" y="318.59999999999997" width="93.86000000000001" height="13.5" fill="#fff" opacity="0"></rect><text id="label" font-size="13.50" font-weight="400" x="650.4" y="330.3" fill="#18470f"><tspan x="650.4" y="330.34499999999997">Indonesia</tspan></text></g><g id="mark__Peru" class="legendMark" style="cursor:default"><g id="connector" class="indicator"><path d="M619.4,484.5 H626.15 V340.84999999999997 H646.4" stroke="#999" stroke-width="0.5" fill="none"></path></g><rect id="background" x="615.4" y="334.09999999999997" width="63.620000000000005" height="13.5" fill="#fff" opacity="0"></rect><text id="label" font-size="13.50" font-weight="400" x="650.4" y="345.8" fill="#be5915"><tspan x="650.4" y="345.84499999999997">Peru</tspan></text></g><g id="mark__Democratic-Republic-of-Congo" class="legendMark" style="cursor:default"><g id="connector" class="indicator"><path d="M619.4,489.5 H627.8375 V356.34999999999997 H646.4" stroke="#999" stroke-width="0.5" fill="none"></path></g><rect id="background" x="615.4" y="349.59999999999997" width="218.60000000000002" height="13.5" fill="#fff" opacity="0"></rect><text id="label" font-size="13.50" font-weight="400" x="650.4" y="361.3" fill="#8c4569"><tspan x="650.4" y="361.34499999999997">Democratic Republic of Congo</tspan></text></g><g id="mark__Bolivia" class="legendMark" style="cursor:default"><g id="connector" class="indicator"><path d="M619.4,490.7 H629.525 V371.84999999999997 H646.4" stroke="#999" stroke-width="0.5" fill="none"></path></g><rect id="background" x="615.4" y="365.09999999999997" width="74.825" height="13.5" fill="#fff" opacity="0"></rect><text id="label" font-size="13.50" font-weight="400" x="650.4" y="376.8" fill="#a2559c"><tspan x="650.4" y="376.84499999999997">Bolivia</tspan></text></g><g id="mark__Brazil" class="legendMark" style="cursor:default"><g id="connector" class="indicator"><path d="M619.4,490.7 H631.2125 V387.34999999999997 H646.4" stroke="#999" stroke-width="0.5" fill="none"></path></g><rect id="background" x="615.4" y="380.59999999999997" width="68.75" height="13.5" fill="#fff" opacity="0"></rect><text id="label" font-size="13.50" font-weight="400" x="650.4" y="392.3" fill="#578145"><tspan x="650.4" y="392.34499999999997">Brazil</tspan></text></g><g id="mark__Australia" class="legendMark" style="cursor:default"><g id="connector" class="indicator"><path d="M619.4,501.8 H632.9 V402.84999999999997 H646.4" stroke="#999" stroke-width="0.5" fill="none"></path></g><rect id="background" x="615.4" y="396.09999999999997" width="87.65" height="13.5" fill="#fff" opacity="0"></rect><text id="label" font-size="13.50" font-weight="400" x="650.4" y="407.8" fill="#2c8465"><tspan x="650.4" y="407.84499999999997">Australia</tspan></text></g><g id="mark__Nigeria" class="legendMark" style="cursor:default"><g id="connector" class="indicator"><path d="M619.4,503 H634.5875 V418.34999999999997 H646.4" stroke="#999" stroke-width="0.5" fill="none"></path></g><rect id="background" x="615.4" y="411.59999999999997" width="77.795" height="13.5" fill="#fff" opacity="0"></rect><text id="label" font-size="13.50" font-weight="400" x="650.4" y="423.3" fill="#be5915"><tspan x="650.4" y="423.34499999999997">Nigeria</tspan></text></g><g id="mark__Malaysia" class="legendMark" style="cursor:default"><g id="connector" class="indicator"><path d="M619.4,505.5 H636.275 V433.84999999999997 H646.4" stroke="#999" stroke-width="0.5" fill="none"></path></g><rect id="background" x="615.4" y="427.09999999999997" width="88.325" height="13.5" fill="#fff" opacity="0"></rect><text id="label" font-size="13.50" font-weight="400" x="650.4" y="438.8" fill="#00875e"><tspan x="650.4" y="438.84499999999997">Malaysia</tspan></text></g><g id="mark__Vietnam" class="legendMark" style="cursor:default"><g id="connector" class="indicator"><path d="M619.4,506.5 H637.9625 V449.34999999999997 H646.4" stroke="#999" stroke-width="0.5" fill="none"></path></g><rect id="background" x="615.4" y="442.59999999999997" width="84.68" height="13.5" fill="#fff" opacity="0"></rect><text id="label" font-size="13.50" font-weight="400" x="650.4" y="454.3" fill="#cf0a66"><tspan x="650.4" y="454.34499999999997">Vietnam</tspan></text></g><g id="mark__Rwanda" class="legendMark" style="cursor:default"><g id="connector" class="indicator"><path d="M619.4,508.4 H639.65 V464.84999999999997 H646.4" stroke="#999" stroke-width="0.5" fill="none"></path></g><rect id="background" x="615.4" y="458.09999999999997" width="84.68" height="13.5" fill="#fff" opacity="0"></rect><text id="label" font-size="13.50" font-weight="400" x="650.4" y="469.8" fill="#8c4569"><tspan x="650.4" y="469.84499999999997">Rwanda</tspan></text></g><g id="mark__Russia" class="legendMark" style="cursor:default"><g id="connector" class="indicator"><path d="M619.4,509.7 H641.3375 V480.34999999999997 H646.4" stroke="#999" stroke-width="0.5" fill="none"></path></g><rect id="background" x="615.4" y="473.59999999999997" width="76.31" height="13.5" fill="#fff" opacity="0"></rect><text id="label" font-size="13.50" font-weight="400" x="650.4" y="485.3" fill="#8c4569"><tspan x="650.4" y="485.34499999999997">Russia</tspan></text></g><g id="mark__Laos" class="legendMark" style="cursor:default"><g id="connector" class="indicator"><path d="M619.4,510.2 H643.025 V495.84999999999997 H646.4" stroke="#999" stroke-width="0.5" fill="none"></path></g><rect id="background" x="615.4" y="489.09999999999997" width="64.43" height="13.5" fill="#fff" opacity="0"></rect><text id="label" font-size="13.50" font-weight="400" x="650.4" y="500.8" fill="#b16214"><tspan x="650.4" y="500.84499999999997">Laos</tspan></text></g><g id="mark__Other" class="legendMark" style="cursor:default"><g id="connector" class="indicator"><path d="M619.4,511.5 H644.7125 V511.34999999999997 H646.4" stroke="#999" stroke-width="0.5" fill="none"></path></g><rect id="background" x="615.4" y="504.59999999999997" width="68.885" height="13.5" fill="#fff" opacity="0"></rect><text id="label" font-size="13.50" font-weight="400" x="650.4" y="516.3" fill="#b16214"><tspan x="650.4" y="516.3449999999999">Other</tspan></text></g><g id="mark__United-States" class="legendMark" style="cursor:default"><g id="connector" class="indicator"><path d="M619.4,513.1 H644.7125 V526.8499999999999 H646.4" stroke="#999" stroke-width="0.5" fill="none"></path></g><rect id="background" x="615.4" y="520.0999999999999" width="116.405" height="13.5" fill="#fff" opacity="0"></rect><text id="label" font-size="13.50" font-weight="400" x="650.4" y="531.8" fill="#6d3e91"><tspan x="650.4" y="531.8449999999999">United States</tspan></text></g></g><g id="lines" class="Lines"><rect x="78" y="89" width="538" height="424" fill="rgba(255,255,255,0)" opacity="0"></rect><g id="line__Vietnam"><path stroke-linecap="round" stroke-linejoin="round" stroke="#ddd" d="M601.7 506.4L606.3 506.4L610.8 505.8L615.4 506.5" fill="none" stroke-width="1"></path></g><g id="line__United-States"><path stroke-linecap="round" stroke-linejoin="round" stroke="#ddd" d="M601.7 513.1L606.3 513.1L610.8 513.1L615.4 513.1" fill="none" stroke-width="1"></path></g><g id="line__Rwanda"><path stroke-linecap="round" stroke-linejoin="round" stroke="#ddd" d="M601.7 510.9L606.3 510.6L610.8 509L615.4 508.4" fill="none" stroke-width="1"></path></g><g id="line__Russia"><path stroke-linecap="round" stroke-linejoin="round" stroke="#ddd" d="M601.7 510L606.3 509.4L610.8 508.5L615.4 509.7" fill="none" stroke-width="1"></path></g><g id="line__Peru"><path stroke-linecap="round" stroke-linejoin="round" stroke="#ddd" d="M601.7 487.5L606.3 479.5L610.8 478L615.4 484.5" fill="none" stroke-width="1"></path></g><g id="line__Other"><path stroke-linecap="round" stroke-linejoin="round" stroke="#ddd" d="M601.7 512.1L606.3 511.6L610.8 511.7L615.4 511.5" fill="none" stroke-width="1"></path></g><g id="line__Nigeria"><path stroke-linecap="round" stroke-linejoin="round" stroke="#ddd" d="M601.7 506.9L606.3 511.1L610.8 504.4L615.4 503" fill="none" stroke-width="1"></path></g><g id="line__Myanmar"><path stroke-linecap="round" stroke-linejoin="round" stroke="#ddd" d="M601.7 477.1L606.3 467.2L610.8 454.7L615.4 446" fill="none" stroke-width="1"></path></g><g id="line__Malaysia"><path stroke-linecap="round" stroke-linejoin="round" stroke="#ddd" d="M601.7 509.4L606.3 506.9L610.8 506.9L615.4 505.5" fill="none" stroke-width="1"></path></g><g id="line__Laos"><path stroke-linecap="round" stroke-linejoin="round" stroke="#ddd" d="M601.7 511.4L606.3 510.6L610.8 510L615.4 510.2" fill="none" stroke-width="1"></path></g><g id="line__Indonesia"><path stroke-linecap="round" stroke-linejoin="round" stroke="#ddd" d="M601.7 447.2L606.3 426.1L610.8 426.1L615.4 448.5" fill="none" stroke-width="1"></path></g><g id="line__Democratic-Republic-of-Congo"><path stroke-linecap="round" stroke-linejoin="round" stroke="#ddd" d="M601.7 491.6L606.3 492.3L610.8 490L615.4 489.5" fill="none" stroke-width="1"></path></g><g id="line__China"><path stroke-linecap="round" stroke-linejoin="round" stroke="#ddd" d="M601.7 408.7L606.3 401.2L610.8 424.8L615.4 428.6" fill="none" stroke-width="1"></path></g><g id="line__Brazil"><path stroke-linecap="round" stroke-linejoin="round" stroke="#ddd" d="M601.7 492.1L606.3 493.8L610.8 492L615.4 490.7" fill="none" stroke-width="1"></path></g><g id="line__Bolivia"><path stroke-linecap="round" stroke-linejoin="round" stroke="#ddd" d="M601.7 494.8L606.3 488.7L610.8 491.2L615.4 490.7" fill="none" stroke-width="1"></path></g><g id="line__Australia"><path stroke-linecap="round" stroke-linejoin="round" stroke="#ddd" d="M601.7 503L606.3 502.2L610.8 501.9L615.4 501.8" fill="none" stroke-width="1"></path></g><g id="line__World"><path stroke-linecap="round" stroke-linejoin="round" stroke="#ddd" d="M77.7 396.8L82.3 390.8L86.8 396.5L91.4 381.3L95.9 381.3L100.5 382.6L105 373.9L109.6 361.5L114.2 344.1L118.7 354L123.3 352.8L127.8 354L132.4 345.3L136.9 354L141.5 360.2L146.1 356.5L150.6 376.4L155.2 355.2L159.7 351.5L164.3 336.6L168.8 330.4L173.4 331.6L177.9 313L182.5 289.4L187.1 269.5L191.6 290.6L196.2 327.9L200.7 393.2L205.3 400.7L209.8 361.5L214.4 342.8L219 286.9L223.5 248.3L228.1 306.8L232.6 289.4L237.2 214.8L241.7 209.8L246.3 359L250.9 331.6L255.4 386.3L260 403.2L264.5 402L269.1 370.2L273.6 319.2L278.2 309.3L282.8 299.3L287.3 299.3L291.9 293.1L296.4 273.2L301 274.5L305.5 264.5L310.1 260.8L314.7 259.5L319.2 319.2L323.8 309.3L328.3 285.6L332.9 280.7L337.4 276.9L342 272L346.6 268.2L351.1 259.5L355.7 250.8L360.2 242.1L364.8 224.7L369.3 228.5L373.9 224.7L378.4 221L383 209.8L387.6 217.3L392.1 223.5L396.7 237.2L401.2 242.1L405.8 226L410.3 213.5L414.9 208.6L419.5 208.6L424 217.3L428.6 240.9L433.1 268.2L437.7 279.4L442.2 288.1L446.8 298.1L451.4 289.4L455.9 258.3L460.5 223.5L465 238.4L469.6 263.3L474.1 275.7L478.7 276.9L483.3 291.9L487.8 263.3L492.4 239.6L496.9 213.5L501.5 226L506 208.6L510.6 167.6L515.2 207.3L519.7 223.5L524.3 192.4L528.8 142.7L533.4 145.2L537.9 148.9L542.5 139L547 192.4L551.6 218.5L556.2 182.5L560.7 180L565.3 197.4L569.8 112.9L574.4 112.9L578.9 131.5L583.5 129L588.1 89.3L592.6 106.7L597.2 147.7L601.7 185L606.3 134L610.8 131.5L615.4 152.6" fill="none" stroke-width="1"></path></g><g id="line__Vietnam"><path id="outline" fill="none" stroke-linecap="butt" stroke-linejoin="round" stroke="#fff" stroke-width="2.5" d="M601.7 506.4L606.3 506.4L610.8 505.8L615.4 506.5"></path><g id="polyline"><polyline id="polyline" points="601.70,506.40 606.30,506.40 610.80,505.80 615.40,506.50" stroke-linejoin="round" stroke-width="1.5" stroke="#CF0A66" fill="none" stroke-linecap="butt"></polyline></g><g id="markers"><circle cx="601.7" cy="506.4" r="1.8" fill="#CF0A66"></circle><circle cx="606.3" cy="506.4" r="1.8" fill="#CF0A66"></circle><circle cx="610.8" cy="505.8" r="1.8" fill="#CF0A66"></circle><circle cx="615.4" cy="506.5" r="1.8" fill="#CF0A66"></circle></g></g><g id="line__United-States"><path id="outline" fill="none" stroke-linecap="butt" stroke-linejoin="round" stroke="#fff" stroke-width="2.5" d="M601.7 513.1L606.3 513.1L610.8 513.1L615.4 513.1"></path><g id="polyline"><polyline id="polyline" points="601.70,513.10 606.30,513.10 610.80,513.10 615.40,513.10" stroke-linejoin="round" stroke-width="1.5" stroke="#6D3E91" fill="none" stroke-linecap="butt"></polyline></g><g id="markers"><circle cx="601.7" cy="513.1" r="1.8" fill="#6D3E91"></circle><circle cx="606.3" cy="513.1" r="1.8" fill="#6D3E91"></circle><circle cx="610.8" cy="513.1" r="1.8" fill="#6D3E91"></circle><circle cx="615.4" cy="513.1" r="1.8" fill="#6D3E91"></circle></g></g><g id="line__Rwanda"><path id="outline" fill="none" stroke-linecap="butt" stroke-linejoin="round" stroke="#fff" stroke-width="2.5" d="M601.7 510.9L606.3 510.6L610.8 509L615.4 508.4"></path><g id="polyline"><polyline id="polyline" points="601.70,510.90 606.30,510.60 610.80,509.00 615.40,508.40" stroke-linejoin="round" stroke-width="1.5" stroke="#8C4569" fill="none" stroke-linecap="butt"></polyline></g><g id="markers"><circle cx="601.7" cy="510.9" r="1.8" fill="#8C4569"></circle><circle cx="606.3" cy="510.6" r="1.8" fill="#8C4569"></circle><circle cx="610.8" cy="509" r="1.8" fill="#8C4569"></circle><circle cx="615.4" cy="508.4" r="1.8" fill="#8C4569"></circle></g></g><g id="line__Russia"><path id="outline" fill="none" stroke-linecap="butt" stroke-linejoin="round" stroke="#fff" stroke-width="2.5" d="M601.7 510L606.3 509.4L610.8 508.5L615.4 509.7"></path><g id="polyline"><polyline id="polyline" points="601.70,510.00 606.30,509.40 610.80,508.50 615.40,509.70" stroke-linejoin="round" stroke-width="1.5" stroke="#8C4569" fill="none" stroke-linecap="butt"></polyline></g><g id="markers"><circle cx="601.7" cy="510" r="1.8" fill="#8C4569"></circle><circle cx="606.3" cy="509.4" r="1.8" fill="#8C4569"></circle><circle cx="610.8" cy="508.5" r="1.8" fill="#8C4569"></circle><circle cx="615.4" cy="509.7" r="1.8" fill="#8C4569"></circle></g></g><g id="line__Peru"><path id="outline" fill="none" stroke-linecap="butt" stroke-linejoin="round" stroke="#fff" stroke-width="2.5" d="M601.7 487.5L606.3 479.5L610.8 478L615.4 484.5"></path><g id="polyline"><polyline id="polyline" points="601.70,487.50 606.30,479.50 610.80,478.00 615.40,484.50" stroke-linejoin="round" stroke-width="1.5" stroke="#BE5915" fill="none" stroke-linecap="butt"></polyline></g><g id="markers"><circle cx="601.7" cy="487.5" r="1.8" fill="#BE5915"></circle><circle cx="606.3" cy="479.5" r="1.8" fill="#BE5915"></circle><circle cx="610.8" cy="478" r="1.8" fill="#BE5915"></circle><circle cx="615.4" cy="484.5" r="1.8" fill="#BE5915"></circle></g></g><g id="line__Other"><path id="outline" fill="none" stroke-linecap="butt" stroke-linejoin="round" stroke="#fff" stroke-width="2.5" d="M601.7 512.1L606.3 511.6L610.8 511.7L615.4 511.5"></path><g id="polyline"><polyline id="polyline" points="601.70,512.10 606.30,511.60 610.80,511.70 615.40,511.50" stroke-linejoin="round" stroke-width="1.5" stroke="#B16214" fill="none" stroke-linecap="butt"></polyline></g><g id="markers"><circle cx="601.7" cy="512.1" r="1.8" fill="#B16214"></circle><circle cx="606.3" cy="511.6" r="1.8" fill="#B16214"></circle><circle cx="610.8" cy="511.7" r="1.8" fill="#B16214"></circle><circle cx="615.4" cy="511.5" r="1.8" fill="#B16214"></circle></g></g><g id="line__Nigeria"><path id="outline" fill="none" stroke-linecap="butt" stroke-linejoin="round" stroke="#fff" stroke-width="2.5" d="M601.7 506.9L606.3 511.1L610.8 504.4L615.4 503"></path><g id="polyline"><polyline id="polyline" points="601.70,506.90 606.30,511.10 610.80,504.40 615.40,503.00" stroke-linejoin="round" stroke-width="1.5" stroke="#BE5915" fill="none" stroke-linecap="butt"></polyline></g><g id="markers"><circle cx="601.7" cy="506.9" r="1.8" fill="#BE5915"></circle><circle cx="606.3" cy="511.1" r="1.8" fill="#BE5915"></circle><circle cx="610.8" cy="504.4" r="1.8" fill="#BE5915"></circle><circle cx="615.4" cy="503" r="1.8" fill="#BE5915"></circle></g></g><g id="line__Myanmar"><path id="outline" fill="none" stroke-linecap="butt" stroke-linejoin="round" stroke="#fff" stroke-width="2.5" d="M601.7 477.1L606.3 467.2L610.8 454.7L615.4 446"></path><g id="polyline"><polyline id="polyline" points="601.70,477.10 606.30,467.20 610.80,454.70 615.40,446.00" stroke-linejoin="round" stroke-width="1.5" stroke="#008291" fill="none" stroke-linecap="butt"></polyline></g><g id="markers"><circle cx="601.7" cy="477.1" r="1.8" fill="#008291"></circle><circle cx="606.3" cy="467.2" r="1.8" fill="#008291"></circle><circle cx="610.8" cy="454.7" r="1.8" fill="#008291"></circle><circle cx="615.4" cy="446" r="1.8" fill="#008291"></circle></g></g><g id="line__Malaysia"><path id="outline" fill="none" stroke-linecap="butt" stroke-linejoin="round" stroke="#fff" stroke-width="2.5" d="M601.7 509.4L606.3 506.9L610.8 506.9L615.4 505.5"></path><g id="polyline"><polyline id="polyline" points="601.70,509.40 606.30,506.90 610.80,506.90 615.40,505.50" stroke-linejoin="round" stroke-width="1.5" stroke="#00875E" fill="none" stroke-linecap="butt"></polyline></g><g id="markers"><circle cx="601.7" cy="509.4" r="1.8" fill="#00875E"></circle><circle cx="606.3" cy="506.9" r="1.8" fill="#00875E"></circle><circle cx="610.8" cy="506.9" r="1.8" fill="#00875E"></circle><circle cx="615.4" cy="505.5" r="1.8" fill="#00875E"></circle></g></g><g id="line__Laos"><path id="outline" fill="none" stroke-linecap="butt" stroke-linejoin="round" stroke="#fff" stroke-width="2.5" d="M601.7 511.4L606.3 510.6L610.8 510L615.4 510.2"></path><g id="polyline"><polyline id="polyline" points="601.70,511.40 606.30,510.60 610.80,510.00 615.40,510.20" stroke-linejoin="round" stroke-width="1.5" stroke="#B16214" fill="none" stroke-linecap="butt"></polyline></g><g id="markers"><circle cx="601.7" cy="511.4" r="1.8" fill="#B16214"></circle><circle cx="606.3" cy="510.6" r="1.8" fill="#B16214"></circle><circle cx="610.8" cy="510" r="1.8" fill="#B16214"></circle><circle cx="615.4" cy="510.2" r="1.8" fill="#B16214"></circle></g></g><g id="line__Indonesia"><path id="outline" fill="none" stroke-linecap="butt" stroke-linejoin="round" stroke="#fff" stroke-width="2.5" d="M601.7 447.2L606.3 426.1L610.8 426.1L615.4 448.5"></path><g id="polyline"><polyline id="polyline" points="601.70,447.20 606.30,426.10 610.80,426.10 615.40,448.50" stroke-linejoin="round" stroke-width="1.5" stroke="#18470F" fill="none" stroke-linecap="butt"></polyline></g><g id="markers"><circle cx="601.7" cy="447.2" r="1.8" fill="#18470F"></circle><circle cx="606.3" cy="426.1" r="1.8" fill="#18470F"></circle><circle cx="610.8" cy="426.1" r="1.8" fill="#18470F"></circle><circle cx="615.4" cy="448.5" r="1.8" fill="#18470F"></circle></g></g><g id="line__Democratic-Republic-of-Congo"><path id="outline" fill="none" stroke-linecap="butt" stroke-linejoin="round" stroke="#fff" stroke-width="2.5" d="M601.7 491.6L606.3 492.3L610.8 490L615.4 489.5"></path><g id="polyline"><polyline id="polyline" points="601.70,491.60 606.30,492.30 610.80,490.00 615.40,489.50" stroke-linejoin="round" stroke-width="1.5" stroke="#8C4569" fill="none" stroke-linecap="butt"></polyline></g><g id="markers"><circle cx="601.7" cy="491.6" r="1.8" fill="#8C4569"></circle><circle cx="606.3" cy="492.3" r="1.8" fill="#8C4569"></circle><circle cx="610.8" cy="490" r="1.8" fill="#8C4569"></circle><circle cx="615.4" cy="489.5" r="1.8" fill="#8C4569"></circle></g></g><g id="line__China"><path id="outline" fill="none" stroke-linecap="butt" stroke-linejoin="round" stroke="#fff" stroke-width="2.5" d="M601.7 408.7L606.3 401.2L610.8 424.8L615.4 428.6"></path><g id="polyline"><polyline id="polyline" points="601.70,408.70 606.30,401.20 610.80,424.80 615.40,428.60" stroke-linejoin="round" stroke-width="1.5" stroke="#CF0A66" fill="none" stroke-linecap="butt"></polyline></g><g id="markers"><circle cx="601.7" cy="408.7" r="1.8" fill="#CF0A66"></circle><circle cx="606.3" cy="401.2" r="1.8" fill="#CF0A66"></circle><circle cx="610.8" cy="424.8" r="1.8" fill="#CF0A66"></circle><circle cx="615.4" cy="428.6" r="1.8" fill="#CF0A66"></circle></g></g><g id="line__Brazil"><path id="outline" fill="none" stroke-linecap="butt" stroke-linejoin="round" stroke="#fff" stroke-width="2.5" d="M601.7 492.1L606.3 493.8L610.8 492L615.4 490.7"></path><g id="polyline"><polyline id="polyline" points="601.70,492.10 606.30,493.80 610.80,492.00 615.40,490.70" stroke-linejoin="round" stroke-width="1.5" stroke="#578145" fill="none" stroke-linecap="butt"></polyline></g><g id="markers"><circle cx="601.7" cy="492.1" r="1.8" fill="#578145"></circle><circle cx="606.3" cy="493.8" r="1.8" fill="#578145"></circle><circle cx="610.8" cy="492" r="1.8" fill="#578145"></circle><circle cx="615.4" cy="490.7" r="1.8" fill="#578145"></circle></g></g><g id="line__Bolivia"><path id="outline" fill="none" stroke-linecap="butt" stroke-linejoin="round" stroke="#fff" stroke-width="2.5" d="M601.7 494.8L606.3 488.7L610.8 491.2L615.4 490.7"></path><g id="polyline"><polyline id="polyline" points="601.70,494.80 606.30,488.70 610.80,491.20 615.40,490.70" stroke-linejoin="round" stroke-width="1.5" stroke="#A2559C" fill="none" stroke-linecap="butt"></polyline></g><g id="markers"><circle cx="601.7" cy="494.8" r="1.8" fill="#A2559C"></circle><circle cx="606.3" cy="488.7" r="1.8" fill="#A2559C"></circle><circle cx="610.8" cy="491.2" r="1.8" fill="#A2559C"></circle><circle cx="615.4" cy="490.7" r="1.8" fill="#A2559C"></circle></g></g><g id="line__Australia"><path id="outline" fill="none" stroke-linecap="butt" stroke-linejoin="round" stroke="#fff" stroke-width="2.5" d="M601.7 503L606.3 502.2L610.8 501.9L615.4 501.8"></path><g id="polyline"><polyline id="polyline" points="601.70,503.00 606.30,502.20 610.80,501.90 615.40,501.80" stroke-linejoin="round" stroke-width="1.5" stroke="#2C8465" fill="none" stroke-linecap="butt"></polyline></g><g id="markers"><circle cx="601.7" cy="503" r="1.8" fill="#2C8465"></circle><circle cx="606.3" cy="502.2" r="1.8" fill="#2C8465"></circle><circle cx="610.8" cy="501.9" r="1.8" fill="#2C8465"></circle><circle cx="615.4" cy="501.8" r="1.8" fill="#2C8465"></circle></g></g><g id="line__World"><path id="outline" fill="none" stroke-linecap="butt" stroke-linejoin="round" stroke="#fff" stroke-width="2.5" d="M77.7 396.8L82.3 390.8L86.8 396.5L91.4 381.3L95.9 381.3L100.5 382.6L105 373.9L109.6 361.5L114.2 344.1L118.7 354L123.3 352.8L127.8 354L132.4 345.3L136.9 354L141.5 360.2L146.1 356.5L150.6 376.4L155.2 355.2L159.7 351.5L164.3 336.6L168.8 330.4L173.4 331.6L177.9 313L182.5 289.4L187.1 269.5L191.6 290.6L196.2 327.9L200.7 393.2L205.3 400.7L209.8 361.5L214.4 342.8L219 286.9L223.5 248.3L228.1 306.8L232.6 289.4L237.2 214.8L241.7 209.8L246.3 359L250.9 331.6L255.4 386.3L260 403.2L264.5 402L269.1 370.2L273.6 319.2L278.2 309.3L282.8 299.3L287.3 299.3L291.9 293.1L296.4 273.2L301 274.5L305.5 264.5L310.1 260.8L314.7 259.5L319.2 319.2L323.8 309.3L328.3 285.6L332.9 280.7L337.4 276.9L342 272L346.6 268.2L351.1 259.5L355.7 250.8L360.2 242.1L364.8 224.7L369.3 228.5L373.9 224.7L378.4 221L383 209.8L387.6 217.3L392.1 223.5L396.7 237.2L401.2 242.1L405.8 226L410.3 213.5L414.9 208.6L419.5 208.6L424 217.3L428.6 240.9L433.1 268.2L437.7 279.4L442.2 288.1L446.8 298.1L451.4 289.4L455.9 258.3L460.5 223.5L465 238.4L469.6 263.3L474.1 275.7L478.7 276.9L483.3 291.9L487.8 263.3L492.4 239.6L496.9 213.5L501.5 226L506 208.6L510.6 167.6L515.2 207.3L519.7 223.5L524.3 192.4L528.8 142.7L533.4 145.2L537.9 148.9L542.5 139L547 192.4L551.6 218.5L556.2 182.5L560.7 180L565.3 197.4L569.8 112.9L574.4 112.9L578.9 131.5L583.5 129L588.1 89.3L592.6 106.7L597.2 147.7L601.7 185L606.3 134L610.8 131.5L615.4 152.6"></path><g id="polyline"><polyline id="polyline" points="77.70,396.80 82.30,390.80 86.80,396.50 91.40,381.30 95.90,381.30 100.50,382.60 105.00,373.90 109.60,361.50 114.20,344.10 118.70,354.00 123.30,352.80 127.80,354.00 132.40,345.30 136.90,354.00 141.50,360.20 146.10,356.50 150.60,376.40 155.20,355.20 159.70,351.50 164.30,336.60 168.80,330.40 173.40,331.60 177.90,313.00 182.50,289.40 187.10,269.50 191.60,290.60 196.20,327.90 200.70,393.20 205.30,400.70 209.80,361.50 214.40,342.80 219.00,286.90 223.50,248.30 228.10,306.80 232.60,289.40 237.20,214.80 241.70,209.80 246.30,359.00 250.90,331.60 255.40,386.30 260.00,403.20 264.50,402.00 269.10,370.20 273.60,319.20 278.20,309.30 282.80,299.30 287.30,299.30 291.90,293.10 296.40,273.20 301.00,274.50 305.50,264.50 310.10,260.80 314.70,259.50 319.20,319.20 323.80,309.30 328.30,285.60 332.90,280.70 337.40,276.90 342.00,272.00 346.60,268.20 351.10,259.50 355.70,250.80 360.20,242.10 364.80,224.70 369.30,228.50 373.90,224.70 378.40,221.00 383.00,209.80 387.60,217.30 392.10,223.50 396.70,237.20 401.20,242.10 405.80,226.00 410.30,213.50 414.90,208.60 419.50,208.60 424.00,217.30 428.60,240.90 433.10,268.20 437.70,279.40 442.20,288.10 446.80,298.10 451.40,289.40 455.90,258.30 460.50,223.50 465.00,238.40 469.60,263.30 474.10,275.70 478.70,276.90 483.30,291.90 487.80,263.30 492.40,239.60 496.90,213.50 501.50,226.00 506.00,208.60 510.60,167.60 515.20,207.30 519.70,223.50 524.30,192.40 528.80,142.70 533.40,145.20 537.90,148.90 542.50,139.00 547.00,192.40 551.60,218.50 556.20,182.50 560.70,180.00 565.30,197.40 569.80,112.90 574.40,112.90 578.90,131.50 583.50,129.00 588.10,89.30 592.60,106.70 597.20,147.70 601.70,185.00 606.30,134.00 610.80,131.50 615.40,152.60" stroke-linejoin="round" stroke-width="1.5" stroke="#C15065" fill="none" stroke-linecap="butt"></polyline></g><g id="markers"><circle cx="77.7" cy="396.8" r="1.8" fill="#C15065"></circle><circle cx="82.3" cy="390.8" r="1.8" fill="#C15065"></circle><circle cx="86.8" cy="396.5" r="1.8" fill="#C15065"></circle><circle cx="91.4" cy="381.3" r="1.8" fill="#C15065"></circle><circle cx="95.9" cy="381.3" r="1.8" fill="#C15065"></circle><circle cx="100.5" cy="382.6" r="1.8" fill="#C15065"></circle><circle cx="105" cy="373.9" r="1.8" fill="#C15065"></circle><circle cx="109.6" cy="361.5" r="1.8" fill="#C15065"></circle><circle cx="114.2" cy="344.1" r="1.8" fill="#C15065"></circle><circle cx="118.7" cy="354" r="1.8" fill="#C15065"></circle><circle cx="123.3" cy="352.8" r="1.8" fill="#C15065"></circle><circle cx="127.8" cy="354" r="1.8" fill="#C15065"></circle><circle cx="132.4" cy="345.3" r="1.8" fill="#C15065"></circle><circle cx="136.9" cy="354" r="1.8" fill="#C15065"></circle><circle cx="141.5" cy="360.2" r="1.8" fill="#C15065"></circle><circle cx="146.1" cy="356.5" r="1.8" fill="#C15065"></circle><circle cx="150.6" cy="376.4" r="1.8" fill="#C15065"></circle><circle cx="155.2" cy="355.2" r="1.8" fill="#C15065"></circle><circle cx="159.7" cy="351.5" r="1.8" fill="#C15065"></circle><circle cx="164.3" cy="336.6" r="1.8" fill="#C15065"></circle><circle cx="168.8" cy="330.4" r="1.8" fill="#C15065"></circle><circle cx="173.4" cy="331.6" r="1.8" fill="#C15065"></circle><circle cx="177.9" cy="313" r="1.8" fill="#C15065"></circle><circle cx="182.5" cy="289.4" r="1.8" fill="#C15065"></circle><circle cx="187.1" cy="269.5" r="1.8" fill="#C15065"></circle><circle cx="191.6" cy="290.6" r="1.8" fill="#C15065"></circle><circle cx="196.2" cy="327.9" r="1.8" fill="#C15065"></circle><circle cx="200.7" cy="393.2" r="1.8" fill="#C15065"></circle><circle cx="205.3" cy="400.7" r="1.8" fill="#C15065"></circle><circle cx="209.8" cy="361.5" r="1.8" fill="#C15065"></circle><circle cx="214.4" cy="342.8" r="1.8" fill="#C15065"></circle><circle cx="219" cy="286.9" r="1.8" fill="#C15065"></circle><circle cx="223.5" cy="248.3" r="1.8" fill="#C15065"></circle><circle cx="228.1" cy="306.8" r="1.8" fill="#C15065"></circle><circle cx="232.6" cy="289.4" r="1.8" fill="#C15065"></circle><circle cx="237.2" cy="214.8" r="1.8" fill="#C15065"></circle><circle cx="241.7" cy="209.8" r="1.8" fill="#C15065"></circle><circle cx="246.3" cy="359" r="1.8" fill="#C15065"></circle><circle cx="250.9" cy="331.6" r="1.8" fill="#C15065"></circle><circle cx="255.4" cy="386.3" r="1.8" fill="#C15065"></circle><circle cx="260" cy="403.2" r="1.8" fill="#C15065"></circle><circle cx="264.5" cy="402" r="1.8" fill="#C15065"></circle><circle cx="269.1" cy="370.2" r="1.8" fill="#C15065"></circle><circle cx="273.6" cy="319.2" r="1.8" fill="#C15065"></circle><circle cx="278.2" cy="309.3" r="1.8" fill="#C15065"></circle><circle cx="282.8" cy="299.3" r="1.8" fill="#C15065"></circle><circle cx="287.3" cy="299.3" r="1.8" fill="#C15065"></circle><circle cx="291.9" cy="293.1" r="1.8" fill="#C15065"></circle><circle cx="296.4" cy="273.2" r="1.8" fill="#C15065"></circle><circle cx="301" cy="274.5" r="1.8" fill="#C15065"></circle><circle cx="305.5" cy="264.5" r="1.8" fill="#C15065"></circle><circle cx="310.1" cy="260.8" r="1.8" fill="#C15065"></circle><circle cx="314.7" cy="259.5" r="1.8" fill="#C15065"></circle><circle cx="319.2" cy="319.2" r="1.8" fill="#C15065"></circle><circle cx="323.8" cy="309.3" r="1.8" fill="#C15065"></circle><circle cx="328.3" cy="285.6" r="1.8" fill="#C15065"></circle><circle cx="332.9" cy="280.7" r="1.8" fill="#C15065"></circle><circle cx="337.4" cy="276.9" r="1.8" fill="#C15065"></circle><circle cx="342" cy="272" r="1.8" fill="#C15065"></circle><circle cx="346.6" cy="268.2" r="1.8" fill="#C15065"></circle><circle cx="351.1" cy="259.5" r="1.8" fill="#C15065"></circle><circle cx="355.7" cy="250.8" r="1.8" fill="#C15065"></circle><circle cx="360.2" cy="242.1" r="1.8" fill="#C15065"></circle><circle cx="364.8" cy="224.7" r="1.8" fill="#C15065"></circle><circle cx="369.3" cy="228.5" r="1.8" fill="#C15065"></circle><circle cx="373.9" cy="224.7" r="1.8" fill="#C15065"></circle><circle cx="378.4" cy="221" r="1.8" fill="#C15065"></circle><circle cx="383" cy="209.8" r="1.8" fill="#C15065"></circle><circle cx="387.6" cy="217.3" r="1.8" fill="#C15065"></circle><circle cx="392.1" cy="223.5" r="1.8" fill="#C15065"></circle><circle cx="396.7" cy="237.2" r="1.8" fill="#C15065"></circle><circle cx="401.2" cy="242.1" r="1.8" fill="#C15065"></circle><circle cx="405.8" cy="226" r="1.8" fill="#C15065"></circle><circle cx="410.3" cy="213.5" r="1.8" fill="#C15065"></circle><circle cx="414.9" cy="208.6" r="1.8" fill="#C15065"></circle><circle cx="419.5" cy="208.6" r="1.8" fill="#C15065"></circle><circle cx="424" cy="217.3" r="1.8" fill="#C15065"></circle><circle cx="428.6" cy="240.9" r="1.8" fill="#C15065"></circle><circle cx="433.1" cy="268.2" r="1.8" fill="#C15065"></circle><circle cx="437.7" cy="279.4" r="1.8" fill="#C15065"></circle><circle cx="442.2" cy="288.1" r="1.8" fill="#C15065"></circle><circle cx="446.8" cy="298.1" r="1.8" fill="#C15065"></circle><circle cx="451.4" cy="289.4" r="1.8" fill="#C15065"></circle><circle cx="455.9" cy="258.3" r="1.8" fill="#C15065"></circle><circle cx="460.5" cy="223.5" r="1.8" fill="#C15065"></circle><circle cx="465" cy="238.4" r="1.8" fill="#C15065"></circle><circle cx="469.6" cy="263.3" r="1.8" fill="#C15065"></circle><circle cx="474.1" cy="275.7" r="1.8" fill="#C15065"></circle><circle cx="478.7" cy="276.9" r="1.8" fill="#C15065"></circle><circle cx="483.3" cy="291.9" r="1.8" fill="#C15065"></circle><circle cx="487.8" cy="263.3" r="1.8" fill="#C15065"></circle><circle cx="492.4" cy="239.6" r="1.8" fill="#C15065"></circle><circle cx="496.9" cy="213.5" r="1.8" fill="#C15065"></circle><circle cx="501.5" cy="226" r="1.8" fill="#C15065"></circle><circle cx="506" cy="208.6" r="1.8" fill="#C15065"></circle><circle cx="510.6" cy="167.6" r="1.8" fill="#C15065"></circle><circle cx="515.2" cy="207.3" r="1.8" fill="#C15065"></circle><circle cx="519.7" cy="223.5" r="1.8" fill="#C15065"></circle><circle cx="524.3" cy="192.4" r="1.8" fill="#C15065"></circle><circle cx="528.8" cy="142.7" r="1.8" fill="#C15065"></circle><circle cx="533.4" cy="145.2" r="1.8" fill="#C15065"></circle><circle cx="537.9" cy="148.9" r="1.8" fill="#C15065"></circle><circle cx="542.5" cy="139" r="1.8" fill="#C15065"></circle><circle cx="547" cy="192.4" r="1.8" fill="#C15065"></circle><circle cx="551.6" cy="218.5" r="1.8" fill="#C15065"></circle><circle cx="556.2" cy="182.5" r="1.8" fill="#C15065"></circle><circle cx="560.7" cy="180" r="1.8" fill="#C15065"></circle><circle cx="565.3" cy="197.4" r="1.8" fill="#C15065"></circle><circle cx="569.8" cy="112.9" r="1.8" fill="#C15065"></circle><circle cx="574.4" cy="112.9" r="1.8" fill="#C15065"></circle><circle cx="578.9" cy="131.5" r="1.8" fill="#C15065"></circle><circle cx="583.5" cy="129" r="1.8" fill="#C15065"></circle><circle cx="588.1" cy="89.3" r="1.8" fill="#C15065"></circle><circle cx="592.6" cy="106.7" r="1.8" fill="#C15065"></circle><circle cx="597.2" cy="147.7" r="1.8" fill="#C15065"></circle><circle cx="601.7" cy="185" r="1.8" fill="#C15065"></circle><circle cx="606.3" cy="134" r="1.8" fill="#C15065"></circle><circle cx="610.8" cy="131.5" r="1.8" fill="#C15065"></circle><circle cx="615.4" cy="152.6" r="1.8" fill="#C15065"></circle></g></g></g></g></g></g><g id="footer" class="SourcesFooter" style="fill:#5b5b5b"><g id="sources" class="markdown-text-wrap"><text x="16.0" y="562.7" style="font-size:13.5px;line-height:1.2"><tspan x="16" y="562.7"><tspan style="font-weight:700">Data source:</tspan> USGS - Mineral Commodity Summaries (2024); USGS - Historical Statistics for Mineral and Material Commodities (2023)</tspan></text></g><text id="origin-url" font-size="13.50" x="16.0" y="580.9"><tspan x="16" y="580.8950000000001"><a target="_blank" style="fill: #5b5b5b;" href="https://creativecommons.org/licenses/by/4.0/">CC BY</a></tspan></text></g><line id="separator-line" x1="16" y1="600" x2="834" y2="600" stroke="#e7e7e7"></line><g id="details" transform="translate(15, 616)"><g class="markdown-text-wrap"><text x="0.0" y="12.0" style="font-size:12.375px;fill:#5b5b5b;line-height:1.2"><tspan x="0" y="12.0"><tspan style="font-weight:700">1.</tspan> <tspan style="font-weight:700">Refined production</tspan>: Refined production is the process of taking raw materials, such as metals extracted from ores, and purifying them to achieve</tspan><tspan x="0" y="26.9">a higher quality or more usable form. After metals are initially extracted from ore through processes like smelting, they often contain impurities or are</tspan><tspan x="0" y="41.7">not in the ideal form for manufacturing. Refining involves further processing these metals to remove impurities and adjust their composition to meet</tspan><tspan x="0" y="56.6">specific standards. Refined production is essential for transforming raw materials into high-quality metals that are crucial for industries and</tspan><tspan x="0" y="71.4">consumers, from manufacturing electronics to constructing buildings.</tspan></text></g></g></svg>