<svg xmlns="http://www.w3.org/2000/svg" version="1.1" style="font-family:Lato, &#x27;Helvetica Neue&#x27;, Helvetica, Arial, &#x27;Liberation Sans&#x27;, sans-serif;font-size:18px;background-color:white;text-rendering:geometricPrecision;-webkit-font-smoothing:antialiased" width="850" height="706.25" viewBox="0 0 850 706.25"><defs><style>@import url(https://ourworldindata.org/fonts.css)</style></defs><defs><pattern id="noDataPattern" patternUnits="userSpaceOnUse" width="4" height="4" patternTransform="rotate(-45 2 2)"><path d="M -1,2 l 6,0" stroke="#ccc" stroke-width="0.7"></path></pattern></defs><rect class="background-fill" fill="white" width="850" height="706.25"></rect><g id="header" class="HeaderView"><g id="logo" transform="translate(769, 16) scale(1)"><svg className="owidLogo" xmlns="http://www.w3.org/2000/svg" width="65" height="36" viewBox="0 0 65 36"  fill="none"><path fill="#002147" d="M0 0h64.8v36H0z"/><path fill="#CE261E" d="M0 33.3h64.8V36H0z"/><path fill="#fff" d="M13.796 10.575c0 .636-.106 1.226-.318 1.77a4.193 4.193 0 0 1-.894 1.404 4.084 4.084 0 0 1-1.386.93c-.54.22-1.138.33-1.794.33-.656 0-1.256-.11-1.8-.33a4.149 4.149 0 0 1-1.392-.93 4.193 4.193 0 0 1-.894-1.404A4.833 4.833 0 0 1 5 10.575c0-.636.106-1.224.318-1.764a4.18 4.18 0 0 1 .894-1.41 4.076 4.076 0 0 1 1.392-.924 4.684 4.684 0 0 1 1.8-.336c.656 0 1.254.112 1.794.336.54.224 1.002.534 1.386.93.384.392.682.86.894 1.404.212.54.318 1.128.318 1.764Zm-1.656 0c0-.476-.064-.902-.192-1.278a2.671 2.671 0 0 0-.54-.966 2.332 2.332 0 0 0-.864-.606 2.94 2.94 0 0 0-1.14-.21c-.424 0-.806.07-1.146.21-.34.14-.63.342-.87.606a2.742 2.742 0 0 0-.546.966 3.955 3.955 0 0 0-.192 1.278c0 .476.064.904.192 1.284.128.376.31.696.546.96.24.26.53.46.87.6.34.14.722.21 1.146.21.424 0 .804-.07 1.14-.21.34-.14.628-.34.864-.6.236-.264.416-.584.54-.96a4.01 4.01 0 0 0 .192-1.284ZM16.104 8.757v3.912c0 .376.086.668.258.876.176.204.438.306.786.306.256 0 .496-.056.72-.168a2.58 2.58 0 0 0 .636-.474V8.757h1.482v6.156h-.906c-.192 0-.318-.09-.378-.27l-.102-.492a4.65 4.65 0 0 1-.396.354 2.577 2.577 0 0 1-.438.27 2.35 2.35 0 0 1-.498.168 2.345 2.345 0 0 1-.57.066c-.336 0-.634-.056-.894-.168a1.821 1.821 0 0 1-.648-.486 2.157 2.157 0 0 1-.402-.738 3.233 3.233 0 0 1-.132-.948V8.757h1.482ZM21.328 14.913V8.757h.87c.152 0 .258.028.318.084.06.056.1.152.12.288l.09.744c.22-.38.478-.68.774-.9.296-.22.628-.33.996-.33.304 0 .556.07.756.21l-.192 1.11c-.012.072-.038.124-.078.156a.278.278 0 0 1-.162.042 1.01 1.01 0 0 1-.246-.042 1.646 1.646 0 0 0-.414-.042c-.308 0-.572.086-.792.258-.22.168-.406.416-.558.744v3.834h-1.482ZM27.347 6.237h1.356a.57.57 0 0 1 .348.102c.096.064.16.152.192.264l1.476 5.19c.036.128.068.268.096.42.032.148.062.306.09.474a5.968 5.968 0 0 1 .228-.894l1.704-5.19a.575.575 0 0 1 .186-.252.543.543 0 0 1 .348-.114h.474a.57.57 0 0 1 .348.102.497.497 0 0 1 .192.264l1.692 5.19c.088.256.164.54.228.852.028-.156.056-.306.084-.45.032-.144.064-.278.096-.402l1.476-5.19c.028-.1.09-.186.186-.258a.563.563 0 0 1 .348-.108h1.266l-2.694 8.676h-1.458l-1.896-5.928-.078-.246a9.504 9.504 0 0 1-.072-.282c-.024.1-.05.194-.078.282-.024.088-.048.17-.072.246l-1.914 5.928H30.04l-2.694-8.676ZM42.771 8.661c.46 0 .876.074 1.248.222.376.148.696.358.96.63s.468.604.612.996c.144.392.216.83.216 1.314 0 .488-.072.928-.216 1.32a2.85 2.85 0 0 1-.612 1.002 2.653 2.653 0 0 1-.96.636 3.35 3.35 0 0 1-1.248.222c-.46 0-.878-.074-1.254-.222a2.712 2.712 0 0 1-.966-.636 2.922 2.922 0 0 1-.618-1.002 3.807 3.807 0 0 1-.216-1.32c0-.484.072-.922.216-1.314.148-.392.354-.724.618-.996.268-.272.59-.482.966-.63a3.397 3.397 0 0 1 1.254-.222Zm0 5.202c.512 0 .89-.172 1.134-.516.248-.344.372-.848.372-1.512s-.124-1.17-.372-1.518c-.244-.348-.622-.522-1.134-.522-.52 0-.904.176-1.152.528-.248.348-.372.852-.372 1.512s.124 1.164.372 1.512c.248.344.632.516 1.152.516ZM46.723 14.913V8.757h.87c.152 0 .258.028.318.084.06.056.1.152.12.288l.09.744c.22-.38.478-.68.774-.9.296-.22.628-.33.996-.33.304 0 .556.07.756.21l-.192 1.11c-.012.072-.038.124-.078.156a.278.278 0 0 1-.162.042 1.01 1.01 0 0 1-.246-.042 1.646 1.646 0 0 0-.414-.042c-.308 0-.572.086-.792.258-.22.168-.406.416-.558.744v3.834h-1.482ZM52.96 5.997v8.916h-1.482V5.997h1.482ZM58.732 14.913c-.192 0-.318-.09-.378-.27l-.12-.594a3.68 3.68 0 0 1-.402.39c-.14.116-.292.216-.456.3-.16.084-.334.148-.522.192a2.372 2.372 0 0 1-.6.072c-.336 0-.644-.07-.924-.21a2.098 2.098 0 0 1-.726-.606 3.033 3.033 0 0 1-.468-.99 5.072 5.072 0 0 1-.162-1.344c0-.456.062-.88.186-1.272s.302-.732.534-1.02c.232-.288.51-.512.834-.672a2.384 2.384 0 0 1 1.092-.246 2.103 2.103 0 0 1 1.536.606V5.997h1.482v8.916h-.906Zm-1.974-1.086c.308 0 .57-.064.786-.192.216-.128.42-.31.612-.546v-2.76a1.452 1.452 0 0 0-.552-.432 1.597 1.597 0 0 0-.636-.126c-.224 0-.428.042-.612.126a1.21 1.21 0 0 0-.462.384c-.124.168-.22.384-.288.648-.068.26-.102.568-.102.924 0 .36.028.666.084.918.06.248.144.452.252.612.108.156.24.27.396.342.156.068.33.102.522.102ZM16.331 20.757v6.156H14.85v-6.156h1.481Zm.223-1.794a.844.844 0 0 1-.078.36.963.963 0 0 1-.21.294.995.995 0 0 1-.3.204.963.963 0 0 1-.372.072.948.948 0 0 1-.367-.072 1.018 1.018 0 0 1-.498-.498.963.963 0 0 1 0-.732.995.995 0 0 1 .205-.3.929.929 0 0 1 .293-.198.899.899 0 0 1 .738 0 .912.912 0 0 1 .3.198.943.943 0 0 1 .288.672ZM17.771 26.913v-6.156h.906c.192 0 .318.09.378.27l.102.486a2.934 2.934 0 0 1 .828-.618c.156-.076.322-.134.498-.174.176-.04.368-.06.576-.06.336 0 .634.058.894.174.26.112.476.272.648.48.176.204.308.45.396.738.092.284.138.598.138.942v3.918h-1.482v-3.918c0-.376-.088-.666-.264-.87-.172-.208-.432-.312-.78-.312-.256 0-.496.058-.72.174a2.58 2.58 0 0 0-.636.474v4.452h-1.482ZM34.22 22.575c0 .636-.106 1.22-.318 1.752-.212.532-.51.99-.894 1.374a4 4 0 0 1-1.386.894 4.87 4.87 0 0 1-1.794.318h-3.312v-8.676h3.312a4.79 4.79 0 0 1 1.794.324 4 4 0 0 1 1.386.894c.384.38.682.836.894 1.368.212.532.318 1.116.318 1.752Zm-1.65 0c0-.476-.064-.902-.192-1.278a2.68 2.68 0 0 0-.546-.96 2.332 2.332 0 0 0-.864-.606 2.94 2.94 0 0 0-1.14-.21h-1.686v6.108h1.686c.424 0 .804-.07 1.14-.21.34-.14.628-.34.864-.6a2.75 2.75 0 0 0 .546-.96 4.01 4.01 0 0 0 .192-1.284ZM39.98 26.913h-.665c-.14 0-.25-.02-.33-.06-.08-.044-.14-.13-.18-.258l-.132-.438c-.156.14-.31.264-.462.372a2.804 2.804 0 0 1-.462.264c-.16.072-.33.126-.51.162-.18.036-.38.054-.6.054-.26 0-.5-.034-.72-.102a1.618 1.618 0 0 1-.57-.318 1.448 1.448 0 0 1-.366-.522 1.852 1.852 0 0 1-.132-.726c0-.232.06-.46.18-.684.124-.228.328-.432.612-.612.284-.184.662-.336 1.134-.456.472-.12 1.058-.188 1.758-.204v-.36c0-.412-.088-.716-.264-.912-.172-.2-.424-.3-.756-.3a1.837 1.837 0 0 0-1.02.276c-.116.068-.224.13-.324.186a.664.664 0 0 1-.33.084.429.429 0 0 1-.258-.078.614.614 0 0 1-.174-.192l-.27-.474c.708-.648 1.562-.972 2.562-.972.36 0 .68.06.96.18.284.116.524.28.72.492.196.208.344.458.444.75.104.292.156.612.156.96v3.888Zm-2.88-.924c.153 0 .293-.014.42-.042.129-.028.249-.07.36-.126.117-.056.227-.124.33-.204.109-.084.217-.182.325-.294v-1.038c-.432.02-.794.058-1.086.114-.288.052-.52.12-.696.204a.923.923 0 0 0-.378.294.664.664 0 0 0-.108.366c0 .26.076.446.228.558.156.112.358.168.606.168ZM43.22 27.01c-.532 0-.942-.15-1.23-.45-.288-.305-.432-.723-.432-1.255v-3.438h-.624a.31.31 0 0 1-.21-.078c-.056-.052-.084-.13-.084-.234v-.588l.99-.162.312-1.68a.302.302 0 0 1 .108-.186.365.365 0 0 1 .222-.066h.768v1.938h1.62v1.056h-1.62v3.336c0 .192.048.342.144.45a.488.488 0 0 0 .384.162c.092 0 .168-.01.228-.03.064-.024.118-.048.162-.072.048-.024.09-.046.126-.066a.194.194 0 0 1 .108-.036.16.16 0 0 1 .108.036c.028.02.058.052.09.096l.444.72c-.216.18-.464.316-.744.408a2.77 2.77 0 0 1-.87.138ZM50.423 26.913h-.666c-.14 0-.25-.02-.33-.06-.08-.044-.14-.13-.18-.258l-.132-.438c-.156.14-.31.264-.462.372a2.804 2.804 0 0 1-.462.264c-.16.072-.33.126-.51.162-.18.036-.38.054-.6.054-.26 0-.5-.034-.72-.102a1.618 1.618 0 0 1-.57-.318 1.448 1.448 0 0 1-.366-.522 1.852 1.852 0 0 1-.132-.726c0-.232.06-.46.18-.684.124-.228.328-.432.612-.612.284-.184.662-.336 1.134-.456.472-.12 1.058-.188 1.758-.204v-.36c0-.412-.088-.716-.264-.912-.172-.2-.424-.3-.756-.3a1.837 1.837 0 0 0-1.02.276c-.116.068-.224.13-.324.186a.664.664 0 0 1-.33.084.429.429 0 0 1-.258-.078.614.614 0 0 1-.174-.192l-.27-.474c.708-.648 1.562-.972 2.562-.972.36 0 .68.06.96.18.284.116.524.28.72.492.196.208.344.458.444.75.104.292.156.612.156.96v3.888Zm-2.88-.924c.152 0 .292-.014.42-.042.128-.028.248-.07.36-.126.116-.056.226-.124.33-.204.108-.084.216-.182.324-.294v-1.038c-.432.02-.794.058-1.086.114-.288.052-.52.12-.696.204a.923.923 0 0 0-.378.294.664.664 0 0 0-.108.366c0 .26.076.446.228.558.156.112.358.168.606.168Z"/></svg></g><a id="title" href="https://ourworldindata.org/explorers/minerals?country=AUS~CHL~CHN~USA~CAN~ALB~DZA~ARG~ARM~AUT~AZE~BOL~OWID_WRL~BWA~BRA~BGR~COL~COG~CUB~CYP~OWID_CZS~COD~DOM~OWID_GDR~ZWE~ZMB~OWID_YGS~OWID_GFR~VNM~UZB~GBR~UGA~OWID_USS~TUR~TZA~TJK~TWN~SWE~ESP~KOR~ZAF~SVK~OWID_SRM~SRB~SAU~RUS~ROU~PRT~POL~PHL~PER~PNG~PAN~PAK~OMN~NOR~MKD~PRK~NIC~NZL~NAM~MMR~MOZ~MAR~MNG~MEX~MRT~MYS~LAO~KGZ~KEN~KAZ~JPN~ITA~ISR~IRL~IRN~IDN~IND~HUN~HND~HTI~GTM~GRC~DEU~GEO~FRA~FIN~ERI~ECU~VEN~ARE~UKR~CHE~SUR~LKA~SVN~QAT~NGA~NLD~MNE~ISL~GHA~EGY~HRV~CMR~BIH~BHR~AFG~OWID_KOS~MDG~NCL~SDN~Other~CZE~THA~TUN~CIV~GAB~RWA~NER~ETH&amp;Mineral=Platinum+group+metals&amp;Metric=Production&amp;Type=Mine%2C+platinum&amp;Share+of+global=false" style="font-family:&#x27;Playfair Display&#x27;, Georgia, &#x27;Times New Roman&#x27;, &#x27;Liberation Serif&#x27;, serif" target="_blank" rel="noopener"><text font-size="24.75" font-weight="600" x="16.0" y="40.0" fill="#5b5b5b"><tspan x="16" y="40.0075">Platinum group metals (platinum) production, 1970 to 2023</tspan></text></a><g id="subtitle" class="markdown-text-wrap"><text x="16.0" y="63.9" style="font-size:14.625px;line-height:1.2" fill="#5b5b5b"><tspan x="16" y="63.9">Based on mined, rather than <tspan class="dod-span" data-id="refined-production">refined<tspan style="font-feature-settings:&quot;sups&quot;">ยน</tspan></tspan>, production. Measured in tonnes.</tspan></text></g></g><g id="chart-area" style="pointer-events:none"><g id="line-chart" class="LineChart"><defs><clipPath id="boundsClip-87"><rect x="41.24" y="73.25" width="838" height="454.15"></rect></clipPath></defs><rect x="16" y="83.25" width="818" height="434.15" fill="none"></rect><g id="dual-axis" class="DualAxisView"><g id="horizontal-axis" class="HorizontalAxis"><g id="tick__1970"><line x1="51.2" y1="496.4" x2="51.2" y2="501.9" stroke="#999" stroke-width="1"></line><text x="51.24" y="515.4" fill="#5b5b5b" text-anchor="start" font-size="13.5">1970</text></g><g id="tick__2023"><line x1="712.5" y1="496.4" x2="712.5" y2="501.9" stroke="#999" stroke-width="1"></line><text x="712.465" y="515.4" fill="#5b5b5b" text-anchor="end" font-size="13.5">2023</text></g><g id="tick__1980"><line x1="176" y1="496.4" x2="176" y2="501.9" stroke="#999" stroke-width="1"></line><text x="176" y="515.4" fill="#5b5b5b" text-anchor="middle" font-size="13.5">1980</text></g><g id="tick__1990"><line x1="300.8" y1="496.4" x2="300.8" y2="501.9" stroke="#999" stroke-width="1"></line><text x="300.8" y="515.4" fill="#5b5b5b" text-anchor="middle" font-size="13.5">1990</text></g><g id="tick__2000"><line x1="425.5" y1="496.4" x2="425.5" y2="501.9" stroke="#999" stroke-width="1"></line><text x="425.5" y="515.4" fill="#5b5b5b" text-anchor="middle" font-size="13.5">2000</text></g><g id="tick__2010"><line x1="550.3" y1="496.4" x2="550.3" y2="501.9" stroke="#999" stroke-width="1"></line><text x="550.3" y="515.4" fill="#5b5b5b" text-anchor="middle" font-size="13.5">2010</text></g></g><g id="vertical-axis" class="VerticalAxis"><g id="tick-labels"><text id="tick-label__0-t" x="46.24" y="496.9" dy=".32em" text-anchor="end" fill="#5b5b5b" font-size="13.5">0 t</text><text id="tick-label__50-t" x="46.24" y="390.7" dy=".32em" text-anchor="end" fill="#5b5b5b" font-size="13.5">50 t</text><text id="tick-label__100-t" x="46.24" y="284.6" dy=".32em" text-anchor="end" fill="#5b5b5b" font-size="13.5">100 t</text><text id="tick-label__150-t" x="46.24" y="178.4" dy=".32em" text-anchor="end" fill="#5b5b5b" font-size="13.5">150 t</text></g></g><g id="horizontal-grid-lines" class="AxisGridLines horizontalLines"><line id="grid-line__0" x1="51.24" y1="496.9" x2="712.47" y2="496.9" stroke="#999" stroke-width="1"></line><line id="grid-line__50" x1="51.24" y1="390.7" x2="712.47" y2="390.7" stroke="#ddd" stroke-width="1" stroke-dasharray="3,2"></line><line id="grid-line__100" x1="51.24" y1="284.6" x2="712.47" y2="284.6" stroke="#ddd" stroke-width="1" stroke-dasharray="3,2"></line><line id="grid-line__150" x1="51.24" y1="178.4" x2="712.47" y2="178.4" stroke="#ddd" stroke-width="1" stroke-dasharray="3,2"></line></g></g><g clip-path="url(#boundsClip-87)"><g id="line-labels" class="LineLabels"><g id="mark__World" class="legendMark" style="cursor:default"><g id="connector" class="indicator"><path d="M716.465,114.7 H729.965 V114.7 H743.465" stroke="#999" stroke-width="0.5" fill="none"></path></g><rect id="background" x="712.465" y="107.95" width="70.235" height="13.5" fill="#fff" opacity="0"></rect><text id="label" font-size="13.50" font-weight="400" x="747.5" y="119.7" fill="#c15065"><tspan x="747.465" y="119.69500000000001">World</tspan></text></g><g id="mark__South-Africa" class="legendMark" style="cursor:default"><g id="connector" class="indicator"><path d="M716.465,242.1 H729.965 V242.1 H743.465" stroke="#999" stroke-width="0.5" fill="none"></path></g><rect id="background" x="712.465" y="235.35" width="108.845" height="13.5" fill="#fff" opacity="0"></rect><text id="label" font-size="13.50" font-weight="400" x="747.5" y="247.1" fill="#00847e"><tspan x="747.465" y="247.095">South Africa</tspan></text></g><g id="mark__USSR" class="legendMark" style="cursor:default"><g id="connector" class="indicator"><path d="M716.465,433.2 H718.0532352941177 V262.6500000000001 H743.465" stroke="#999" stroke-width="0.5" fill="none"></path></g><rect id="background" x="712.465" y="255.9000000000001" width="72.53" height="13.5" fill="#fff" opacity="0"></rect><text id="label" font-size="13.50" font-weight="400" x="747.5" y="267.6" fill="#996d39"><tspan x="747.465" y="267.6450000000001">USSR</tspan></text></g><g id="mark__Russia" class="legendMark" style="cursor:default"><g id="connector" class="indicator"><path d="M716.465,448.1 H719.6414705882354 V278.1500000000001 H743.465" stroke="#999" stroke-width="0.5" fill="none"></path></g><rect id="background" x="712.465" y="271.4000000000001" width="76.31" height="13.5" fill="#fff" opacity="0"></rect><text id="label" font-size="13.50" font-weight="400" x="747.5" y="283.1" fill="#8c4569"><tspan x="747.465" y="283.1450000000001">Russia</tspan></text></g><g id="mark__Zimbabwe" class="legendMark" style="cursor:default"><g id="connector" class="indicator"><path d="M716.465,456.6 H721.229705882353 V293.6500000000001 H743.465" stroke="#999" stroke-width="0.5" fill="none"></path></g><rect id="background" x="712.465" y="286.9000000000001" width="97.37" height="13.5" fill="#fff" opacity="0"></rect><text id="label" font-size="13.50" font-weight="400" x="747.5" y="298.6" fill="#c15065"><tspan x="747.465" y="298.6450000000001">Zimbabwe</tspan></text></g><g id="mark__Canada" class="legendMark" style="cursor:default"><g id="connector" class="indicator"><path d="M716.465,485.2 H722.8179411764706 V309.1500000000001 H743.465" stroke="#999" stroke-width="0.5" fill="none"></path></g><rect id="background" x="712.465" y="302.4000000000001" width="82.52000000000001" height="13.5" fill="#fff" opacity="0"></rect><text id="label" font-size="13.50" font-weight="400" x="747.5" y="314.1" fill="#18470f"><tspan x="747.465" y="314.1450000000001">Canada</tspan></text></g><g id="mark__United-States" class="legendMark" style="cursor:default"><g id="connector" class="indicator"><path d="M716.465,490.7 H724.4061764705883 V324.6500000000001 H743.465" stroke="#999" stroke-width="0.5" fill="none"></path></g><rect id="background" x="712.465" y="317.9000000000001" width="116.405" height="13.5" fill="#fff" opacity="0"></rect><text id="label" font-size="13.50" font-weight="400" x="747.5" y="329.6" fill="#6d3e91"><tspan x="747.465" y="329.6450000000001">United States</tspan></text></g><g id="mark__China" class="legendMark" style="cursor:default"><g id="connector" class="indicator"><path d="M716.465,491 H725.994411764706 V340.1500000000001 H743.465" stroke="#999" stroke-width="0.5" fill="none"></path></g><rect id="background" x="712.465" y="333.4000000000001" width="70.37" height="13.5" fill="#fff" opacity="0"></rect><text id="label" font-size="13.50" font-weight="400" x="747.5" y="345.1" fill="#cf0a66"><tspan x="747.465" y="345.1450000000001">China</tspan></text></g><g id="mark__East-Germany" class="legendMark" style="cursor:default"><g id="connector" class="indicator"><path d="M716.465,492.7 H727.5826470588236 V355.6500000000001 H743.465" stroke="#999" stroke-width="0.5" fill="none"></path></g><rect id="background" x="712.465" y="348.9000000000001" width="121.53500000000001" height="13.5" fill="#fff" opacity="0"></rect><text id="label" font-size="13.50" font-weight="400" x="747.5" y="360.6" fill="#d73c50"><tspan x="747.465" y="360.6450000000001">East Germany</tspan></text></g><g id="mark__Finland" class="legendMark" style="cursor:default"><g id="connector" class="indicator"><path d="M716.465,494.3 H729.1708823529412 V371.1500000000001 H743.465" stroke="#999" stroke-width="0.5" fill="none"></path></g><rect id="background" x="712.465" y="364.4000000000001" width="79.415" height="13.5" fill="#fff" opacity="0"></rect><text id="label" font-size="13.50" font-weight="400" x="747.5" y="376.1" fill="#970046"><tspan x="747.465" y="376.1450000000001">Finland</tspan></text></g><g id="mark__Japan" class="legendMark" style="cursor:default"><g id="connector" class="indicator"><path d="M716.465,494.8 H730.7591176470589 V386.6500000000001 H743.465" stroke="#999" stroke-width="0.5" fill="none"></path></g><rect id="background" x="712.465" y="379.9000000000001" width="71.99000000000001" height="13.5" fill="#fff" opacity="0"></rect><text id="label" font-size="13.50" font-weight="400" x="747.5" y="391.6" fill="#c15065"><tspan x="747.465" y="391.6450000000001">Japan</tspan></text></g><g id="mark__Colombia" class="legendMark" style="cursor:default"><g id="connector" class="indicator"><path d="M716.465,496.2 H732.3473529411765 V402.1500000000001 H743.465" stroke="#999" stroke-width="0.5" fill="none"></path></g><rect id="background" x="712.465" y="395.4000000000001" width="92.105" height="13.5" fill="#fff" opacity="0"></rect><text id="label" font-size="13.50" font-weight="400" x="747.5" y="407.1" fill="#00847e"><tspan x="747.465" y="407.1450000000001">Colombia</tspan></text></g><g id="mark__Australia" class="legendMark" style="cursor:default"><g id="connector" class="indicator"><path d="M716.465,496.7 H733.9355882352942 V417.6500000000001 H743.465" stroke="#999" stroke-width="0.5" fill="none"></path></g><rect id="background" x="712.465" y="410.9000000000001" width="87.65" height="13.5" fill="#fff" opacity="0"></rect><text id="label" font-size="13.50" font-weight="400" x="747.5" y="422.6" fill="#2c8465"><tspan x="747.465" y="422.6450000000001">Australia</tspan></text></g><g id="mark__Ethiopia" class="legendMark" style="cursor:default"><g id="connector" class="indicator"><path d="M716.465,496.8 H735.5238235294119 V433.1500000000001 H743.465" stroke="#999" stroke-width="0.5" fill="none"></path></g><rect id="background" x="712.465" y="426.4000000000001" width="84.005" height="13.5" fill="#fff" opacity="0"></rect><text id="label" font-size="13.50" font-weight="400" x="747.5" y="438.1" fill="#338711"><tspan x="747.465" y="438.1450000000001">Ethiopia</tspan></text></g><g id="mark__Botswana" class="legendMark" style="cursor:default"><g id="connector" class="indicator"><path d="M716.465,496.8 H737.1120588235294 V448.6500000000001 H743.465" stroke="#999" stroke-width="0.5" fill="none"></path></g><rect id="background" x="712.465" y="441.9000000000001" width="94.535" height="13.5" fill="#fff" opacity="0"></rect><text id="label" font-size="13.50" font-weight="400" x="747.5" y="453.6" fill="#008291"><tspan x="747.465" y="453.6450000000001">Botswana</tspan></text></g><g id="mark__Philippines" class="legendMark" style="cursor:default"><g id="connector" class="indicator"><path d="M716.465,496.9 H738.7002941176471 V464.1500000000001 H743.465" stroke="#999" stroke-width="0.5" fill="none"></path></g><rect id="background" x="712.465" y="457.4000000000001" width="100.47500000000001" height="13.5" fill="#fff" opacity="0"></rect><text id="label" font-size="13.50" font-weight="400" x="747.5" y="469.1" fill="#2c8465"><tspan x="747.465" y="469.1450000000001">Philippines</tspan></text></g><g id="mark__Yugoslavia" class="legendMark" style="cursor:default"><g id="connector" class="indicator"><path d="M716.465,496.9 H740.2885294117648 V479.6500000000001 H743.465" stroke="#999" stroke-width="0.5" fill="none"></path></g><rect id="background" x="712.465" y="472.9000000000001" width="101.28500000000001" height="13.5" fill="#fff" opacity="0"></rect><text id="label" font-size="13.50" font-weight="400" x="747.5" y="484.6" fill="#be5915"><tspan x="747.465" y="484.6450000000001">Yugoslavia</tspan></text></g><g id="mark__Poland" class="legendMark" style="cursor:default"><g id="connector" class="indicator"><path d="M716.465,496.9 H741.8767647058825 V495.1500000000001 H743.465" stroke="#999" stroke-width="0.5" fill="none"></path></g><rect id="background" x="712.465" y="488.4000000000001" width="77.255" height="13.5" fill="#fff" opacity="0"></rect><text id="label" font-size="13.50" font-weight="400" x="747.5" y="500.1" fill="#c15065"><tspan x="747.465" y="500.1450000000001">Poland</tspan></text></g><g id="mark__Serbia" class="legendMark" style="cursor:default"><g id="connector" class="indicator"><path d="M716.465,496.9 H741.8767647058825 V510.6500000000001 H743.465" stroke="#999" stroke-width="0.5" fill="none"></path></g><rect id="background" x="712.465" y="503.9000000000001" width="74.15" height="13.5" fill="#fff" opacity="0"></rect><text id="label" font-size="13.50" font-weight="400" x="747.5" y="515.6" fill="#00875e"><tspan x="747.465" y="515.6450000000001">Serbia</tspan></text></g></g><g id="lines" class="Lines"><rect x="51" y="89" width="661" height="408" fill="rgba(255,255,255,0)" opacity="0"></rect><g id="line__World"><path stroke-linecap="round" stroke-linejoin="round" stroke="#ddd" d="M675 144.5L687.5 89.3L700 127.5L712.5 114.7" fill="none" stroke-width="1"></path></g><g id="line__Serbia"><path stroke-linecap="round" stroke-linejoin="round" stroke="#ddd" d="M500.4 496.9L512.8 496.9L525.3 496.9L537.8 496.9L550.3 496.9L562.8 496.9L575.2 496.9L587.7 496.9L600.2 496.9L612.7 496.9L625.1 496.9L637.6 496.9L650.1 496.9L662.6 496.9L675 496.9L687.5 496.8L700 496.9" fill="none" stroke-width="1"></path></g><g id="line__Poland"><path stroke-linecap="round" stroke-linejoin="round" stroke="#ddd" d="M487.9 496.8L500.4 496.8L512.8 496.8L525.3 496.8L537.8 496.8L550.3 496.8L562.8 496.9L575.2 496.8L587.7 496.8L600.2 496.8L612.7 496.8L625.1 496.8L637.6 496.9L650.1 496.9L662.6 496.9L675 496.9L687.5 496.9L700 496.9" fill="none" stroke-width="1"></path></g><g id="line__Botswana"><path stroke-linecap="round" stroke-linejoin="round" stroke="#ddd" d="M438 496.5L450.5 496.3L462.9 495.8L475.4 495.8L487.9 496.3L500.4 496.3L512.8 495.8L525.3 495.6L537.8 495.3L550.3 495.8L562.8 496.1L575.2 496L587.7 496.4L600.2 496.6L612.7 496.8" fill="none" stroke-width="1"></path></g><g id="line__China"><path stroke-linecap="round" stroke-linejoin="round" stroke="#ddd" d="M425.5 496.1L438 495.4L450.5 495.2L462.9 495L475.4 494.4L487.9 494.4L500.4 494.6L512.8 494.1L525.3 493.9L537.8 493.9L550.3 493.9L562.8 493.5L575.2 493.9L587.7 493.5L600.2 493.5L612.7 492L625.1 490.7L637.6 491.6L650.1 491.6L662.6 491.6L675 491.6L687.5 485.6L700 491" fill="none" stroke-width="1"></path></g><g id="line__Russia"><path stroke-linecap="round" stroke-linejoin="round" stroke="#ddd" d="M325.7 447.4L338.2 451.9L350.7 430.2L363.1 412.4L375.6 416.4L388.1 437.5L400.6 411.1L413 461.2L425.5 424.3L438 411.1L450.5 432.1L462.9 427.5L475.4 440.8L487.9 438.1L500.4 436.2L512.8 436.4L525.3 443.8L537.8 445.1L550.3 440.6L562.8 440.6L575.2 444L587.7 443.8L600.2 450.2L612.7 452.7L625.1 453.4L637.6 450L650.1 446.4L662.6 450L675 448.1L687.5 452.3L700 454.4L712.5 448.1" fill="none" stroke-width="1"></path></g><g id="line__Canada"><path stroke-linecap="round" stroke-linejoin="round" stroke="#ddd" d="M250.9 485.8L263.3 487.7L275.8 484.6L288.3 487.4L300.8 486.2L313.2 487L325.7 486.7L338.2 486.3L350.7 484.8L363.1 483.5L375.6 485.4L388.1 487.1L400.6 485.2L413 485.4L425.5 484.2L438 479.7L450.5 476.7L462.9 481.6L475.4 477.6L487.9 480.1L500.4 478.9L512.8 479.7L525.3 478.9L537.8 488.4L550.3 489.5L562.8 479.3L575.2 479.5L587.7 476.3L600.2 471.4L612.7 471.6L625.1 472.9L637.6 476.1L650.1 479.5L662.6 480.4L675 482L687.5 484.2L700 485.4L712.5 485.2" fill="none" stroke-width="1"></path></g><g id="line__East-Germany"><path stroke-linecap="round" stroke-linejoin="round" stroke="#ddd" d="M238.4 492.3L250.9 492.7L263.3 492.7" fill="none" stroke-width="1"></path></g><g id="line__Finland"><path stroke-linecap="round" stroke-linejoin="round" stroke="#ddd" d="M213.4 496.8L225.9 496.8L238.4 496.8L250.9 496.7L263.3 496.8L275.8 496.8L288.3 496.8L300.8 496.7L313.2 496.8L525.3 496.9L537.8 496.9L550.3 496.9L562.8 496.9L575.2 496L587.7 494.9L600.2 494.6L612.7 494.8L625.1 494.4L637.6 493.9L650.1 493.6L662.6 494.9L675 494.2L687.5 493.8L700 494.3" fill="none" stroke-width="1"></path></g><g id="line__Zimbabwe"><path stroke-linecap="round" stroke-linejoin="round" stroke="#ddd" d="M151 496.9L163.5 496.9L176 496.7L188.5 496.7L201 496.8L213.4 496.8L225.9 496.8L238.4 496.9L250.9 496.8L263.3 496.9L275.8 496.8L288.3 496.8L300.8 496.9L313.2 496.9L325.7 496.9L338.2 496.9L350.7 496.9L363.1 496.9L375.6 496.9L388.1 496.2L400.6 491.1L413 496.1L425.5 495.8L438 495.8L450.5 492.5L462.9 492L475.4 487.5L487.9 486.6L500.4 486.3L512.8 486.1L525.3 485.2L537.8 482.4L550.3 478.6L562.8 473.9L575.2 474.6L587.7 469.2L600.2 470.4L612.7 470.2L625.1 464.8L637.6 466.6L650.1 465.7L662.6 467.5L675 465.1L687.5 465.7L700 460.8L712.5 456.6" fill="none" stroke-width="1"></path></g><g id="line__Yugoslavia"><path stroke-linecap="round" stroke-linejoin="round" stroke="#ddd" d="M126.1 496.8L138.6 496.9L151 496.9L163.5 496.9L176 496.9L188.5 496.9L201 496.9L213.4 496.9L225.9 496.9L238.4 496.9L250.9 496.8L263.3 496.9L275.8 496.9L288.3 496.9L300.8 496.9L313.2 496.9" fill="none" stroke-width="1"></path></g><g id="line__United-States"><path stroke-linecap="round" stroke-linejoin="round" stroke="#ddd" d="M51.2 496.4L63.7 496.2L76.2 496.7L88.7 496.5L101.1 496.6L113.6 496.5L126.1 496.7L213.4 496.5L225.9 495.9L238.4 495.9L250.9 495.8L263.3 494.7L275.8 493.7L288.3 493.3L300.8 492.5L313.2 493.2L325.7 493.4L338.2 492.5L350.7 492.7L363.1 493.5L375.6 493L388.1 491.4L400.6 490L413 490.7L425.5 490.3L438 488.9L450.5 487.6L462.9 488.1L475.4 488.3L487.9 488.6L500.4 487.8L512.8 488.7L525.3 489.3L537.8 488.8L550.3 489.6L562.8 489L575.2 489.1L587.7 489L600.2 489.1L612.7 489.1L625.1 488.6L637.6 488.4L650.1 488.1L662.6 488.1L675 488L687.5 488.4L700 490.5L712.5 490.7" fill="none" stroke-width="1"></path></g><g id="line__USSR"><path stroke-linecap="round" stroke-linejoin="round" stroke="#ddd" d="M51.2 351.7L63.7 345.1L76.2 341.7L88.7 335.1L101.1 331.7L213.4 437.5L225.9 435.3L238.4 433.2L250.9 432.6L263.3 430.9L275.8 429L288.3 429L300.8 431.1L313.2 433.2" fill="none" stroke-width="1"></path></g><g id="line__South-Africa"><path stroke-linecap="round" stroke-linejoin="round" stroke="#ddd" d="M51.2 397.7L63.7 414.3L76.2 404.5L88.7 341.1L101.1 310.2L113.6 325.4L126.1 318.8L375.6 96.4L388.1 250.9L400.6 249.6L413 239.4L425.5 253.9L438 221.4L450.5 212.8L462.9 181.9L475.4 171.5L487.9 138.6L500.4 139.9L512.8 144.8L525.3 186.6L537.8 197.9L550.3 183.1L562.8 182.7L575.2 223.9L587.7 206L600.2 297.3L612.7 201.5L625.1 214L637.6 218.2L650.1 205.9L662.6 214.5L675 259.1L687.5 195.4L700 233.6L712.5 242.1" fill="none" stroke-width="1"></path></g><g id="line__Philippines"><path stroke-linecap="round" stroke-linejoin="round" stroke="#ddd" d="M51.2 496.9L63.7 496.9L76.2 496.7L88.7 496.7L101.1 496.8L113.6 496.9" fill="none" stroke-width="1"></path></g><g id="line__Japan"><path stroke-linecap="round" stroke-linejoin="round" stroke="#ddd" d="M51.2 496.7L63.7 496.7L76.2 496.6L88.7 496.4L101.1 496.5L113.6 496.5L126.1 496.3L138.6 496.3L151 496.2L163.5 496.1L176 496.1L188.5 496.2L201 495.9L213.4 495.5L225.9 495.6L238.4 495.4L250.9 495.5L263.3 495.3L275.8 495.5L288.3 494.7L300.8 493.9L313.2 494.8" fill="none" stroke-width="1"></path></g><g id="line__Ethiopia"><path stroke-linecap="round" stroke-linejoin="round" stroke="#ddd" d="M51.2 496.9L63.7 496.9L76.2 496.9L88.7 496.9L101.1 496.9L487.9 496.9L500.4 496.9L512.8 496.9L525.3 496.9L537.8 496.9L550.3 496.9L562.8 496.9L600.2 496.9L612.7 496.9L625.1 496.9L637.6 496.9L650.1 496.9L662.6 496.9L675 496.9L687.5 496.9L700 496.8" fill="none" stroke-width="1"></path></g><g id="line__Colombia"><path stroke-linecap="round" stroke-linejoin="round" stroke="#ddd" d="M51.2 495.2L63.7 495.2L76.2 495.3L88.7 495.2L101.1 495.5L650.1 496.3L662.6 496.5L675 496L687.5 495.6L700 496.2" fill="none" stroke-width="1"></path></g><g id="line__Australia"><path stroke-linecap="round" stroke-linejoin="round" stroke="#ddd" d="M51.2 496.9L63.7 496.9L76.2 496.9L88.7 496.8L101.1 496.8L113.6 496.9L126.1 496.7L138.6 496.7L151 496.7L163.5 496.7L176 496.8L188.5 496.8L201 496.7L213.4 496.8L225.9 496.8L238.4 496.7L250.9 496.7L263.3 496.7L275.8 496.7L288.3 496.7L300.8 496.7L313.2 496.7L325.7 496.6L338.2 496.7L350.7 496.7L363.1 496.7L375.6 496.6L388.1 496.2L400.6 496.6L413 496.7L425.5 496.5L438 496.5L450.5 496.6L462.9 496.6L475.4 496.5L487.9 496.8L650.1 496.7L662.6 496.7L675 496.7L687.5 496.7L700 496.7" fill="none" stroke-width="1"></path></g><g id="line__World"><path id="outline" fill="none" stroke-linecap="butt" stroke-linejoin="round" stroke="#fff" stroke-width="2.5" d="M675 144.5L687.5 89.3L700 127.5L712.5 114.7"></path><g id="polyline"><polyline id="polyline" points="675.00,144.50 687.50,89.30 700.00,127.50 712.50,114.70" stroke-linejoin="round" stroke-width="1.5" stroke="#C15065" fill="none" stroke-linecap="butt"></polyline></g><g id="markers"><circle cx="675" cy="144.5" r="1.8" fill="#C15065"></circle><circle cx="687.5" cy="89.3" r="1.8" fill="#C15065"></circle><circle cx="700" cy="127.5" r="1.8" fill="#C15065"></circle><circle cx="712.5" cy="114.7" r="1.8" fill="#C15065"></circle></g></g><g id="line__Serbia"><path id="outline" fill="none" stroke-linecap="butt" stroke-linejoin="round" stroke="#fff" stroke-width="2.5" d="M500.4 496.9L512.8 496.9L525.3 496.9L537.8 496.9L550.3 496.9L562.8 496.9L575.2 496.9L587.7 496.9L600.2 496.9L612.7 496.9L625.1 496.9L637.6 496.9L650.1 496.9L662.6 496.9L675 496.9L687.5 496.8L700 496.9"></path><g id="polyline"><polyline id="polyline" points="500.40,496.90 512.80,496.90 525.30,496.90 537.80,496.90 550.30,496.90 562.80,496.90 575.20,496.90 587.70,496.90 600.20,496.90 612.70,496.90 625.10,496.90 637.60,496.90 650.10,496.90 662.60,496.90 675.00,496.90 687.50,496.80 700.00,496.90" stroke-linejoin="round" stroke-width="1.5" stroke="#00875E" fill="none" stroke-linecap="butt"></polyline></g><g id="markers"><circle cx="500.4" cy="496.9" r="1.8" fill="#00875E"></circle><circle cx="512.8" cy="496.9" r="1.8" fill="#00875E"></circle><circle cx="525.3" cy="496.9" r="1.8" fill="#00875E"></circle><circle cx="537.8" cy="496.9" r="1.8" fill="#00875E"></circle><circle cx="550.3" cy="496.9" r="1.8" fill="#00875E"></circle><circle cx="562.8" cy="496.9" r="1.8" fill="#00875E"></circle><circle cx="575.2" cy="496.9" r="1.8" fill="#00875E"></circle><circle cx="587.7" cy="496.9" r="1.8" fill="#00875E"></circle><circle cx="600.2" cy="496.9" r="1.8" fill="#00875E"></circle><circle cx="612.7" cy="496.9" r="1.8" fill="#00875E"></circle><circle cx="625.1" cy="496.9" r="1.8" fill="#00875E"></circle><circle cx="637.6" cy="496.9" r="1.8" fill="#00875E"></circle><circle cx="650.1" cy="496.9" r="1.8" fill="#00875E"></circle><circle cx="662.6" cy="496.9" r="1.8" fill="#00875E"></circle><circle cx="675" cy="496.9" r="1.8" fill="#00875E"></circle><circle cx="687.5" cy="496.8" r="1.8" fill="#00875E"></circle><circle cx="700" cy="496.9" r="1.8" fill="#00875E"></circle></g></g><g id="line__Poland"><path id="outline" fill="none" stroke-linecap="butt" stroke-linejoin="round" stroke="#fff" stroke-width="2.5" d="M487.9 496.8L500.4 496.8L512.8 496.8L525.3 496.8L537.8 496.8L550.3 496.8L562.8 496.9L575.2 496.8L587.7 496.8L600.2 496.8L612.7 496.8L625.1 496.8L637.6 496.9L650.1 496.9L662.6 496.9L675 496.9L687.5 496.9L700 496.9"></path><g id="polyline"><polyline id="polyline" points="487.90,496.80 500.40,496.80 512.80,496.80 525.30,496.80 537.80,496.80 550.30,496.80 562.80,496.90 575.20,496.80 587.70,496.80 600.20,496.80 612.70,496.80 625.10,496.80 637.60,496.90 650.10,496.90 662.60,496.90 675.00,496.90 687.50,496.90 700.00,496.90" stroke-linejoin="round" stroke-width="1.5" stroke="#C15065" fill="none" stroke-linecap="butt"></polyline></g><g id="markers"><circle cx="487.9" cy="496.8" r="1.8" fill="#C15065"></circle><circle cx="500.4" cy="496.8" r="1.8" fill="#C15065"></circle><circle cx="512.8" cy="496.8" r="1.8" fill="#C15065"></circle><circle cx="525.3" cy="496.8" r="1.8" fill="#C15065"></circle><circle cx="537.8" cy="496.8" r="1.8" fill="#C15065"></circle><circle cx="550.3" cy="496.8" r="1.8" fill="#C15065"></circle><circle cx="562.8" cy="496.9" r="1.8" fill="#C15065"></circle><circle cx="575.2" cy="496.8" r="1.8" fill="#C15065"></circle><circle cx="587.7" cy="496.8" r="1.8" fill="#C15065"></circle><circle cx="600.2" cy="496.8" r="1.8" fill="#C15065"></circle><circle cx="612.7" cy="496.8" r="1.8" fill="#C15065"></circle><circle cx="625.1" cy="496.8" r="1.8" fill="#C15065"></circle><circle cx="637.6" cy="496.9" r="1.8" fill="#C15065"></circle><circle cx="650.1" cy="496.9" r="1.8" fill="#C15065"></circle><circle cx="662.6" cy="496.9" r="1.8" fill="#C15065"></circle><circle cx="675" cy="496.9" r="1.8" fill="#C15065"></circle><circle cx="687.5" cy="496.9" r="1.8" fill="#C15065"></circle><circle cx="700" cy="496.9" r="1.8" fill="#C15065"></circle></g></g><g id="line__Botswana"><path id="outline" fill="none" stroke-linecap="butt" stroke-linejoin="round" stroke="#fff" stroke-width="2.5" d="M438 496.5L450.5 496.3L462.9 495.8L475.4 495.8L487.9 496.3L500.4 496.3L512.8 495.8L525.3 495.6L537.8 495.3L550.3 495.8L562.8 496.1L575.2 496L587.7 496.4L600.2 496.6L612.7 496.8"></path><g id="polyline"><polyline id="polyline" points="438.00,496.50 450.50,496.30 462.90,495.80 475.40,495.80 487.90,496.30 500.40,496.30 512.80,495.80 525.30,495.60 537.80,495.30 550.30,495.80 562.80,496.10 575.20,496.00 587.70,496.40 600.20,496.60 612.70,496.80" stroke-linejoin="round" stroke-width="1.5" stroke="#008291" fill="none" stroke-linecap="butt"></polyline></g><g id="markers"><circle cx="438" cy="496.5" r="1.8" fill="#008291"></circle><circle cx="450.5" cy="496.3" r="1.8" fill="#008291"></circle><circle cx="462.9" cy="495.8" r="1.8" fill="#008291"></circle><circle cx="475.4" cy="495.8" r="1.8" fill="#008291"></circle><circle cx="487.9" cy="496.3" r="1.8" fill="#008291"></circle><circle cx="500.4" cy="496.3" r="1.8" fill="#008291"></circle><circle cx="512.8" cy="495.8" r="1.8" fill="#008291"></circle><circle cx="525.3" cy="495.6" r="1.8" fill="#008291"></circle><circle cx="537.8" cy="495.3" r="1.8" fill="#008291"></circle><circle cx="550.3" cy="495.8" r="1.8" fill="#008291"></circle><circle cx="562.8" cy="496.1" r="1.8" fill="#008291"></circle><circle cx="575.2" cy="496" r="1.8" fill="#008291"></circle><circle cx="587.7" cy="496.4" r="1.8" fill="#008291"></circle><circle cx="600.2" cy="496.6" r="1.8" fill="#008291"></circle><circle cx="612.7" cy="496.8" r="1.8" fill="#008291"></circle></g></g><g id="line__China"><path id="outline" fill="none" stroke-linecap="butt" stroke-linejoin="round" stroke="#fff" stroke-width="2.5" d="M425.5 496.1L438 495.4L450.5 495.2L462.9 495L475.4 494.4L487.9 494.4L500.4 494.6L512.8 494.1L525.3 493.9L537.8 493.9L550.3 493.9L562.8 493.5L575.2 493.9L587.7 493.5L600.2 493.5L612.7 492L625.1 490.7L637.6 491.6L650.1 491.6L662.6 491.6L675 491.6L687.5 485.6L700 491"></path><g id="polyline"><polyline id="polyline" points="425.50,496.10 438.00,495.40 450.50,495.20 462.90,495.00 475.40,494.40 487.90,494.40 500.40,494.60 512.80,494.10 525.30,493.90 537.80,493.90 550.30,493.90 562.80,493.50 575.20,493.90 587.70,493.50 600.20,493.50 612.70,492.00 625.10,490.70 637.60,491.60 650.10,491.60 662.60,491.60 675.00,491.60 687.50,485.60 700.00,491.00" stroke-linejoin="round" stroke-width="1.5" stroke="#CF0A66" fill="none" stroke-linecap="butt"></polyline></g><g id="markers"><circle cx="425.5" cy="496.1" r="1.8" fill="#CF0A66"></circle><circle cx="438" cy="495.4" r="1.8" fill="#CF0A66"></circle><circle cx="450.5" cy="495.2" r="1.8" fill="#CF0A66"></circle><circle cx="462.9" cy="495" r="1.8" fill="#CF0A66"></circle><circle cx="475.4" cy="494.4" r="1.8" fill="#CF0A66"></circle><circle cx="487.9" cy="494.4" r="1.8" fill="#CF0A66"></circle><circle cx="500.4" cy="494.6" r="1.8" fill="#CF0A66"></circle><circle cx="512.8" cy="494.1" r="1.8" fill="#CF0A66"></circle><circle cx="525.3" cy="493.9" r="1.8" fill="#CF0A66"></circle><circle cx="537.8" cy="493.9" r="1.8" fill="#CF0A66"></circle><circle cx="550.3" cy="493.9" r="1.8" fill="#CF0A66"></circle><circle cx="562.8" cy="493.5" r="1.8" fill="#CF0A66"></circle><circle cx="575.2" cy="493.9" r="1.8" fill="#CF0A66"></circle><circle cx="587.7" cy="493.5" r="1.8" fill="#CF0A66"></circle><circle cx="600.2" cy="493.5" r="1.8" fill="#CF0A66"></circle><circle cx="612.7" cy="492" r="1.8" fill="#CF0A66"></circle><circle cx="625.1" cy="490.7" r="1.8" fill="#CF0A66"></circle><circle cx="637.6" cy="491.6" r="1.8" fill="#CF0A66"></circle><circle cx="650.1" cy="491.6" r="1.8" fill="#CF0A66"></circle><circle cx="662.6" cy="491.6" r="1.8" fill="#CF0A66"></circle><circle cx="675" cy="491.6" r="1.8" fill="#CF0A66"></circle><circle cx="687.5" cy="485.6" r="1.8" fill="#CF0A66"></circle><circle cx="700" cy="491" r="1.8" fill="#CF0A66"></circle></g></g><g id="line__Russia"><path id="outline" fill="none" stroke-linecap="butt" stroke-linejoin="round" stroke="#fff" stroke-width="2.5" d="M325.7 447.4L338.2 451.9L350.7 430.2L363.1 412.4L375.6 416.4L388.1 437.5L400.6 411.1L413 461.2L425.5 424.3L438 411.1L450.5 432.1L462.9 427.5L475.4 440.8L487.9 438.1L500.4 436.2L512.8 436.4L525.3 443.8L537.8 445.1L550.3 440.6L562.8 440.6L575.2 444L587.7 443.8L600.2 450.2L612.7 452.7L625.1 453.4L637.6 450L650.1 446.4L662.6 450L675 448.1L687.5 452.3L700 454.4L712.5 448.1"></path><g id="polyline"><polyline id="polyline" points="325.70,447.40 338.20,451.90 350.70,430.20 363.10,412.40 375.60,416.40 388.10,437.50 400.60,411.10 413.00,461.20 425.50,424.30 438.00,411.10 450.50,432.10 462.90,427.50 475.40,440.80 487.90,438.10 500.40,436.20 512.80,436.40 525.30,443.80 537.80,445.10 550.30,440.60 562.80,440.60 575.20,444.00 587.70,443.80 600.20,450.20 612.70,452.70 625.10,453.40 637.60,450.00 650.10,446.40 662.60,450.00 675.00,448.10 687.50,452.30 700.00,454.40 712.50,448.10" stroke-linejoin="round" stroke-width="1.5" stroke="#8C4569" fill="none" stroke-linecap="butt"></polyline></g><g id="markers"><circle cx="325.7" cy="447.4" r="1.8" fill="#8C4569"></circle><circle cx="338.2" cy="451.9" r="1.8" fill="#8C4569"></circle><circle cx="350.7" cy="430.2" r="1.8" fill="#8C4569"></circle><circle cx="363.1" cy="412.4" r="1.8" fill="#8C4569"></circle><circle cx="375.6" cy="416.4" r="1.8" fill="#8C4569"></circle><circle cx="388.1" cy="437.5" r="1.8" fill="#8C4569"></circle><circle cx="400.6" cy="411.1" r="1.8" fill="#8C4569"></circle><circle cx="413" cy="461.2" r="1.8" fill="#8C4569"></circle><circle cx="425.5" cy="424.3" r="1.8" fill="#8C4569"></circle><circle cx="438" cy="411.1" r="1.8" fill="#8C4569"></circle><circle cx="450.5" cy="432.1" r="1.8" fill="#8C4569"></circle><circle cx="462.9" cy="427.5" r="1.8" fill="#8C4569"></circle><circle cx="475.4" cy="440.8" r="1.8" fill="#8C4569"></circle><circle cx="487.9" cy="438.1" r="1.8" fill="#8C4569"></circle><circle cx="500.4" cy="436.2" r="1.8" fill="#8C4569"></circle><circle cx="512.8" cy="436.4" r="1.8" fill="#8C4569"></circle><circle cx="525.3" cy="443.8" r="1.8" fill="#8C4569"></circle><circle cx="537.8" cy="445.1" r="1.8" fill="#8C4569"></circle><circle cx="550.3" cy="440.6" r="1.8" fill="#8C4569"></circle><circle cx="562.8" cy="440.6" r="1.8" fill="#8C4569"></circle><circle cx="575.2" cy="444" r="1.8" fill="#8C4569"></circle><circle cx="587.7" cy="443.8" r="1.8" fill="#8C4569"></circle><circle cx="600.2" cy="450.2" r="1.8" fill="#8C4569"></circle><circle cx="612.7" cy="452.7" r="1.8" fill="#8C4569"></circle><circle cx="625.1" cy="453.4" r="1.8" fill="#8C4569"></circle><circle cx="637.6" cy="450" r="1.8" fill="#8C4569"></circle><circle cx="650.1" cy="446.4" r="1.8" fill="#8C4569"></circle><circle cx="662.6" cy="450" r="1.8" fill="#8C4569"></circle><circle cx="675" cy="448.1" r="1.8" fill="#8C4569"></circle><circle cx="687.5" cy="452.3" r="1.8" fill="#8C4569"></circle><circle cx="700" cy="454.4" r="1.8" fill="#8C4569"></circle><circle cx="712.5" cy="448.1" r="1.8" fill="#8C4569"></circle></g></g><g id="line__Canada"><path id="outline" fill="none" stroke-linecap="butt" stroke-linejoin="round" stroke="#fff" stroke-width="2.5" d="M250.9 485.8L263.3 487.7L275.8 484.6L288.3 487.4L300.8 486.2L313.2 487L325.7 486.7L338.2 486.3L350.7 484.8L363.1 483.5L375.6 485.4L388.1 487.1L400.6 485.2L413 485.4L425.5 484.2L438 479.7L450.5 476.7L462.9 481.6L475.4 477.6L487.9 480.1L500.4 478.9L512.8 479.7L525.3 478.9L537.8 488.4L550.3 489.5L562.8 479.3L575.2 479.5L587.7 476.3L600.2 471.4L612.7 471.6L625.1 472.9L637.6 476.1L650.1 479.5L662.6 480.4L675 482L687.5 484.2L700 485.4L712.5 485.2"></path><g id="polyline"><polyline id="polyline" points="250.90,485.80 263.30,487.70 275.80,484.60 288.30,487.40 300.80,486.20 313.20,487.00 325.70,486.70 338.20,486.30 350.70,484.80 363.10,483.50 375.60,485.40 388.10,487.10 400.60,485.20 413.00,485.40 425.50,484.20 438.00,479.70 450.50,476.70 462.90,481.60 475.40,477.60 487.90,480.10 500.40,478.90 512.80,479.70 525.30,478.90 537.80,488.40 550.30,489.50 562.80,479.30 575.20,479.50 587.70,476.30 600.20,471.40 612.70,471.60 625.10,472.90 637.60,476.10 650.10,479.50 662.60,480.40 675.00,482.00 687.50,484.20 700.00,485.40 712.50,485.20" stroke-linejoin="round" stroke-width="1.5" stroke="#18470F" fill="none" stroke-linecap="butt"></polyline></g><g id="markers"><circle cx="250.9" cy="485.8" r="1.8" fill="#18470F"></circle><circle cx="263.3" cy="487.7" r="1.8" fill="#18470F"></circle><circle cx="275.8" cy="484.6" r="1.8" fill="#18470F"></circle><circle cx="288.3" cy="487.4" r="1.8" fill="#18470F"></circle><circle cx="300.8" cy="486.2" r="1.8" fill="#18470F"></circle><circle cx="313.2" cy="487" r="1.8" fill="#18470F"></circle><circle cx="325.7" cy="486.7" r="1.8" fill="#18470F"></circle><circle cx="338.2" cy="486.3" r="1.8" fill="#18470F"></circle><circle cx="350.7" cy="484.8" r="1.8" fill="#18470F"></circle><circle cx="363.1" cy="483.5" r="1.8" fill="#18470F"></circle><circle cx="375.6" cy="485.4" r="1.8" fill="#18470F"></circle><circle cx="388.1" cy="487.1" r="1.8" fill="#18470F"></circle><circle cx="400.6" cy="485.2" r="1.8" fill="#18470F"></circle><circle cx="413" cy="485.4" r="1.8" fill="#18470F"></circle><circle cx="425.5" cy="484.2" r="1.8" fill="#18470F"></circle><circle cx="438" cy="479.7" r="1.8" fill="#18470F"></circle><circle cx="450.5" cy="476.7" r="1.8" fill="#18470F"></circle><circle cx="462.9" cy="481.6" r="1.8" fill="#18470F"></circle><circle cx="475.4" cy="477.6" r="1.8" fill="#18470F"></circle><circle cx="487.9" cy="480.1" r="1.8" fill="#18470F"></circle><circle cx="500.4" cy="478.9" r="1.8" fill="#18470F"></circle><circle cx="512.8" cy="479.7" r="1.8" fill="#18470F"></circle><circle cx="525.3" cy="478.9" r="1.8" fill="#18470F"></circle><circle cx="537.8" cy="488.4" r="1.8" fill="#18470F"></circle><circle cx="550.3" cy="489.5" r="1.8" fill="#18470F"></circle><circle cx="562.8" cy="479.3" r="1.8" fill="#18470F"></circle><circle cx="575.2" cy="479.5" r="1.8" fill="#18470F"></circle><circle cx="587.7" cy="476.3" r="1.8" fill="#18470F"></circle><circle cx="600.2" cy="471.4" r="1.8" fill="#18470F"></circle><circle cx="612.7" cy="471.6" r="1.8" fill="#18470F"></circle><circle cx="625.1" cy="472.9" r="1.8" fill="#18470F"></circle><circle cx="637.6" cy="476.1" r="1.8" fill="#18470F"></circle><circle cx="650.1" cy="479.5" r="1.8" fill="#18470F"></circle><circle cx="662.6" cy="480.4" r="1.8" fill="#18470F"></circle><circle cx="675" cy="482" r="1.8" fill="#18470F"></circle><circle cx="687.5" cy="484.2" r="1.8" fill="#18470F"></circle><circle cx="700" cy="485.4" r="1.8" fill="#18470F"></circle><circle cx="712.5" cy="485.2" r="1.8" fill="#18470F"></circle></g></g><g id="line__East-Germany"><path id="outline" fill="none" stroke-linecap="butt" stroke-linejoin="round" stroke="#fff" stroke-width="2.5" d="M238.4 492.3L250.9 492.7L263.3 492.7"></path><g id="polyline"><polyline id="polyline" points="238.40,492.30 250.90,492.70 263.30,492.70" stroke-linejoin="round" stroke-width="1.5" stroke="#D73C50" fill="none" stroke-linecap="butt"></polyline></g><g id="markers"><circle cx="238.4" cy="492.3" r="1.8" fill="#D73C50"></circle><circle cx="250.9" cy="492.7" r="1.8" fill="#D73C50"></circle><circle cx="263.3" cy="492.7" r="1.8" fill="#D73C50"></circle></g></g><g id="line__Finland"><path id="outline" fill="none" stroke-linecap="butt" stroke-linejoin="round" stroke="#fff" stroke-width="2.5" d="M213.4 496.8L225.9 496.8L238.4 496.8L250.9 496.7L263.3 496.8L275.8 496.8L288.3 496.8L300.8 496.7L313.2 496.8L525.3 496.9L537.8 496.9L550.3 496.9L562.8 496.9L575.2 496L587.7 494.9L600.2 494.6L612.7 494.8L625.1 494.4L637.6 493.9L650.1 493.6L662.6 494.9L675 494.2L687.5 493.8L700 494.3"></path><g id="polyline"><polyline id="polyline" points="213.40,496.80 225.90,496.80 238.40,496.80 250.90,496.70 263.30,496.80 275.80,496.80 288.30,496.80 300.80,496.70 313.20,496.80 525.30,496.90 537.80,496.90 550.30,496.90 562.80,496.90 575.20,496.00 587.70,494.90 600.20,494.60 612.70,494.80 625.10,494.40 637.60,493.90 650.10,493.60 662.60,494.90 675.00,494.20 687.50,493.80 700.00,494.30" stroke-linejoin="round" stroke-width="1.5" stroke="#970046" fill="none" stroke-linecap="butt"></polyline></g><g id="markers"><circle cx="213.4" cy="496.8" r="1.8" fill="#970046"></circle><circle cx="225.9" cy="496.8" r="1.8" fill="#970046"></circle><circle cx="238.4" cy="496.8" r="1.8" fill="#970046"></circle><circle cx="250.9" cy="496.7" r="1.8" fill="#970046"></circle><circle cx="263.3" cy="496.8" r="1.8" fill="#970046"></circle><circle cx="275.8" cy="496.8" r="1.8" fill="#970046"></circle><circle cx="288.3" cy="496.8" r="1.8" fill="#970046"></circle><circle cx="300.8" cy="496.7" r="1.8" fill="#970046"></circle><circle cx="313.2" cy="496.8" r="1.8" fill="#970046"></circle><circle cx="525.3" cy="496.9" r="1.8" fill="#970046"></circle><circle cx="537.8" cy="496.9" r="1.8" fill="#970046"></circle><circle cx="550.3" cy="496.9" r="1.8" fill="#970046"></circle><circle cx="562.8" cy="496.9" r="1.8" fill="#970046"></circle><circle cx="575.2" cy="496" r="1.8" fill="#970046"></circle><circle cx="587.7" cy="494.9" r="1.8" fill="#970046"></circle><circle cx="600.2" cy="494.6" r="1.8" fill="#970046"></circle><circle cx="612.7" cy="494.8" r="1.8" fill="#970046"></circle><circle cx="625.1" cy="494.4" r="1.8" fill="#970046"></circle><circle cx="637.6" cy="493.9" r="1.8" fill="#970046"></circle><circle cx="650.1" cy="493.6" r="1.8" fill="#970046"></circle><circle cx="662.6" cy="494.9" r="1.8" fill="#970046"></circle><circle cx="675" cy="494.2" r="1.8" fill="#970046"></circle><circle cx="687.5" cy="493.8" r="1.8" fill="#970046"></circle><circle cx="700" cy="494.3" r="1.8" fill="#970046"></circle></g></g><g id="line__Zimbabwe"><path id="outline" fill="none" stroke-linecap="butt" stroke-linejoin="round" stroke="#fff" stroke-width="2.5" d="M151 496.9L163.5 496.9L176 496.7L188.5 496.7L201 496.8L213.4 496.8L225.9 496.8L238.4 496.9L250.9 496.8L263.3 496.9L275.8 496.8L288.3 496.8L300.8 496.9L313.2 496.9L325.7 496.9L338.2 496.9L350.7 496.9L363.1 496.9L375.6 496.9L388.1 496.2L400.6 491.1L413 496.1L425.5 495.8L438 495.8L450.5 492.5L462.9 492L475.4 487.5L487.9 486.6L500.4 486.3L512.8 486.1L525.3 485.2L537.8 482.4L550.3 478.6L562.8 473.9L575.2 474.6L587.7 469.2L600.2 470.4L612.7 470.2L625.1 464.8L637.6 466.6L650.1 465.7L662.6 467.5L675 465.1L687.5 465.7L700 460.8L712.5 456.6"></path><g id="polyline"><polyline id="polyline" points="151.00,496.90 163.50,496.90 176.00,496.70 188.50,496.70 201.00,496.80 213.40,496.80 225.90,496.80 238.40,496.90 250.90,496.80 263.30,496.90 275.80,496.80 288.30,496.80 300.80,496.90 313.20,496.90 325.70,496.90 338.20,496.90 350.70,496.90 363.10,496.90 375.60,496.90 388.10,496.20 400.60,491.10 413.00,496.10 425.50,495.80 438.00,495.80 450.50,492.50 462.90,492.00 475.40,487.50 487.90,486.60 500.40,486.30 512.80,486.10 525.30,485.20 537.80,482.40 550.30,478.60 562.80,473.90 575.20,474.60 587.70,469.20 600.20,470.40 612.70,470.20 625.10,464.80 637.60,466.60 650.10,465.70 662.60,467.50 675.00,465.10 687.50,465.70 700.00,460.80 712.50,456.60" stroke-linejoin="round" stroke-width="1.5" stroke="#C15065" fill="none" stroke-linecap="butt"></polyline></g><g id="markers"><circle cx="151" cy="496.9" r="1.8" fill="#C15065"></circle><circle cx="163.5" cy="496.9" r="1.8" fill="#C15065"></circle><circle cx="176" cy="496.7" r="1.8" fill="#C15065"></circle><circle cx="188.5" cy="496.7" r="1.8" fill="#C15065"></circle><circle cx="201" cy="496.8" r="1.8" fill="#C15065"></circle><circle cx="213.4" cy="496.8" r="1.8" fill="#C15065"></circle><circle cx="225.9" cy="496.8" r="1.8" fill="#C15065"></circle><circle cx="238.4" cy="496.9" r="1.8" fill="#C15065"></circle><circle cx="250.9" cy="496.8" r="1.8" fill="#C15065"></circle><circle cx="263.3" cy="496.9" r="1.8" fill="#C15065"></circle><circle cx="275.8" cy="496.8" r="1.8" fill="#C15065"></circle><circle cx="288.3" cy="496.8" r="1.8" fill="#C15065"></circle><circle cx="300.8" cy="496.9" r="1.8" fill="#C15065"></circle><circle cx="313.2" cy="496.9" r="1.8" fill="#C15065"></circle><circle cx="325.7" cy="496.9" r="1.8" fill="#C15065"></circle><circle cx="338.2" cy="496.9" r="1.8" fill="#C15065"></circle><circle cx="350.7" cy="496.9" r="1.8" fill="#C15065"></circle><circle cx="363.1" cy="496.9" r="1.8" fill="#C15065"></circle><circle cx="375.6" cy="496.9" r="1.8" fill="#C15065"></circle><circle cx="388.1" cy="496.2" r="1.8" fill="#C15065"></circle><circle cx="400.6" cy="491.1" r="1.8" fill="#C15065"></circle><circle cx="413" cy="496.1" r="1.8" fill="#C15065"></circle><circle cx="425.5" cy="495.8" r="1.8" fill="#C15065"></circle><circle cx="438" cy="495.8" r="1.8" fill="#C15065"></circle><circle cx="450.5" cy="492.5" r="1.8" fill="#C15065"></circle><circle cx="462.9" cy="492" r="1.8" fill="#C15065"></circle><circle cx="475.4" cy="487.5" r="1.8" fill="#C15065"></circle><circle cx="487.9" cy="486.6" r="1.8" fill="#C15065"></circle><circle cx="500.4" cy="486.3" r="1.8" fill="#C15065"></circle><circle cx="512.8" cy="486.1" r="1.8" fill="#C15065"></circle><circle cx="525.3" cy="485.2" r="1.8" fill="#C15065"></circle><circle cx="537.8" cy="482.4" r="1.8" fill="#C15065"></circle><circle cx="550.3" cy="478.6" r="1.8" fill="#C15065"></circle><circle cx="562.8" cy="473.9" r="1.8" fill="#C15065"></circle><circle cx="575.2" cy="474.6" r="1.8" fill="#C15065"></circle><circle cx="587.7" cy="469.2" r="1.8" fill="#C15065"></circle><circle cx="600.2" cy="470.4" r="1.8" fill="#C15065"></circle><circle cx="612.7" cy="470.2" r="1.8" fill="#C15065"></circle><circle cx="625.1" cy="464.8" r="1.8" fill="#C15065"></circle><circle cx="637.6" cy="466.6" r="1.8" fill="#C15065"></circle><circle cx="650.1" cy="465.7" r="1.8" fill="#C15065"></circle><circle cx="662.6" cy="467.5" r="1.8" fill="#C15065"></circle><circle cx="675" cy="465.1" r="1.8" fill="#C15065"></circle><circle cx="687.5" cy="465.7" r="1.8" fill="#C15065"></circle><circle cx="700" cy="460.8" r="1.8" fill="#C15065"></circle><circle cx="712.5" cy="456.6" r="1.8" fill="#C15065"></circle></g></g><g id="line__Yugoslavia"><path id="outline" fill="none" stroke-linecap="butt" stroke-linejoin="round" stroke="#fff" stroke-width="2.5" d="M126.1 496.8L138.6 496.9L151 496.9L163.5 496.9L176 496.9L188.5 496.9L201 496.9L213.4 496.9L225.9 496.9L238.4 496.9L250.9 496.8L263.3 496.9L275.8 496.9L288.3 496.9L300.8 496.9L313.2 496.9"></path><g id="polyline"><polyline id="polyline" points="126.10,496.80 138.60,496.90 151.00,496.90 163.50,496.90 176.00,496.90 188.50,496.90 201.00,496.90 213.40,496.90 225.90,496.90 238.40,496.90 250.90,496.80 263.30,496.90 275.80,496.90 288.30,496.90 300.80,496.90 313.20,496.90" stroke-linejoin="round" stroke-width="1.5" stroke="#BE5915" fill="none" stroke-linecap="butt"></polyline></g><g id="markers"><circle cx="126.1" cy="496.8" r="1.8" fill="#BE5915"></circle><circle cx="138.6" cy="496.9" r="1.8" fill="#BE5915"></circle><circle cx="151" cy="496.9" r="1.8" fill="#BE5915"></circle><circle cx="163.5" cy="496.9" r="1.8" fill="#BE5915"></circle><circle cx="176" cy="496.9" r="1.8" fill="#BE5915"></circle><circle cx="188.5" cy="496.9" r="1.8" fill="#BE5915"></circle><circle cx="201" cy="496.9" r="1.8" fill="#BE5915"></circle><circle cx="213.4" cy="496.9" r="1.8" fill="#BE5915"></circle><circle cx="225.9" cy="496.9" r="1.8" fill="#BE5915"></circle><circle cx="238.4" cy="496.9" r="1.8" fill="#BE5915"></circle><circle cx="250.9" cy="496.8" r="1.8" fill="#BE5915"></circle><circle cx="263.3" cy="496.9" r="1.8" fill="#BE5915"></circle><circle cx="275.8" cy="496.9" r="1.8" fill="#BE5915"></circle><circle cx="288.3" cy="496.9" r="1.8" fill="#BE5915"></circle><circle cx="300.8" cy="496.9" r="1.8" fill="#BE5915"></circle><circle cx="313.2" cy="496.9" r="1.8" fill="#BE5915"></circle></g></g><g id="line__United-States"><path id="outline" fill="none" stroke-linecap="butt" stroke-linejoin="round" stroke="#fff" stroke-width="2.5" d="M51.2 496.4L63.7 496.2L76.2 496.7L88.7 496.5L101.1 496.6L113.6 496.5L126.1 496.7L213.4 496.5L225.9 495.9L238.4 495.9L250.9 495.8L263.3 494.7L275.8 493.7L288.3 493.3L300.8 492.5L313.2 493.2L325.7 493.4L338.2 492.5L350.7 492.7L363.1 493.5L375.6 493L388.1 491.4L400.6 490L413 490.7L425.5 490.3L438 488.9L450.5 487.6L462.9 488.1L475.4 488.3L487.9 488.6L500.4 487.8L512.8 488.7L525.3 489.3L537.8 488.8L550.3 489.6L562.8 489L575.2 489.1L587.7 489L600.2 489.1L612.7 489.1L625.1 488.6L637.6 488.4L650.1 488.1L662.6 488.1L675 488L687.5 488.4L700 490.5L712.5 490.7"></path><g id="polyline"><polyline id="polyline" points="51.20,496.40 63.70,496.20 76.20,496.70 88.70,496.50 101.10,496.60 113.60,496.50 126.10,496.70 213.40,496.50 225.90,495.90 238.40,495.90 250.90,495.80 263.30,494.70 275.80,493.70 288.30,493.30 300.80,492.50 313.20,493.20 325.70,493.40 338.20,492.50 350.70,492.70 363.10,493.50 375.60,493.00 388.10,491.40 400.60,490.00 413.00,490.70 425.50,490.30 438.00,488.90 450.50,487.60 462.90,488.10 475.40,488.30 487.90,488.60 500.40,487.80 512.80,488.70 525.30,489.30 537.80,488.80 550.30,489.60 562.80,489.00 575.20,489.10 587.70,489.00 600.20,489.10 612.70,489.10 625.10,488.60 637.60,488.40 650.10,488.10 662.60,488.10 675.00,488.00 687.50,488.40 700.00,490.50 712.50,490.70" stroke-linejoin="round" stroke-width="1.5" stroke="#6D3E91" fill="none" stroke-linecap="butt"></polyline></g><g id="markers"><circle cx="51.2" cy="496.4" r="1.8" fill="#6D3E91"></circle><circle cx="63.7" cy="496.2" r="1.8" fill="#6D3E91"></circle><circle cx="76.2" cy="496.7" r="1.8" fill="#6D3E91"></circle><circle cx="88.7" cy="496.5" r="1.8" fill="#6D3E91"></circle><circle cx="101.1" cy="496.6" r="1.8" fill="#6D3E91"></circle><circle cx="113.6" cy="496.5" r="1.8" fill="#6D3E91"></circle><circle cx="126.1" cy="496.7" r="1.8" fill="#6D3E91"></circle><circle cx="213.4" cy="496.5" r="1.8" fill="#6D3E91"></circle><circle cx="225.9" cy="495.9" r="1.8" fill="#6D3E91"></circle><circle cx="238.4" cy="495.9" r="1.8" fill="#6D3E91"></circle><circle cx="250.9" cy="495.8" r="1.8" fill="#6D3E91"></circle><circle cx="263.3" cy="494.7" r="1.8" fill="#6D3E91"></circle><circle cx="275.8" cy="493.7" r="1.8" fill="#6D3E91"></circle><circle cx="288.3" cy="493.3" r="1.8" fill="#6D3E91"></circle><circle cx="300.8" cy="492.5" r="1.8" fill="#6D3E91"></circle><circle cx="313.2" cy="493.2" r="1.8" fill="#6D3E91"></circle><circle cx="325.7" cy="493.4" r="1.8" fill="#6D3E91"></circle><circle cx="338.2" cy="492.5" r="1.8" fill="#6D3E91"></circle><circle cx="350.7" cy="492.7" r="1.8" fill="#6D3E91"></circle><circle cx="363.1" cy="493.5" r="1.8" fill="#6D3E91"></circle><circle cx="375.6" cy="493" r="1.8" fill="#6D3E91"></circle><circle cx="388.1" cy="491.4" r="1.8" fill="#6D3E91"></circle><circle cx="400.6" cy="490" r="1.8" fill="#6D3E91"></circle><circle cx="413" cy="490.7" r="1.8" fill="#6D3E91"></circle><circle cx="425.5" cy="490.3" r="1.8" fill="#6D3E91"></circle><circle cx="438" cy="488.9" r="1.8" fill="#6D3E91"></circle><circle cx="450.5" cy="487.6" r="1.8" fill="#6D3E91"></circle><circle cx="462.9" cy="488.1" r="1.8" fill="#6D3E91"></circle><circle cx="475.4" cy="488.3" r="1.8" fill="#6D3E91"></circle><circle cx="487.9" cy="488.6" r="1.8" fill="#6D3E91"></circle><circle cx="500.4" cy="487.8" r="1.8" fill="#6D3E91"></circle><circle cx="512.8" cy="488.7" r="1.8" fill="#6D3E91"></circle><circle cx="525.3" cy="489.3" r="1.8" fill="#6D3E91"></circle><circle cx="537.8" cy="488.8" r="1.8" fill="#6D3E91"></circle><circle cx="550.3" cy="489.6" r="1.8" fill="#6D3E91"></circle><circle cx="562.8" cy="489" r="1.8" fill="#6D3E91"></circle><circle cx="575.2" cy="489.1" r="1.8" fill="#6D3E91"></circle><circle cx="587.7" cy="489" r="1.8" fill="#6D3E91"></circle><circle cx="600.2" cy="489.1" r="1.8" fill="#6D3E91"></circle><circle cx="612.7" cy="489.1" r="1.8" fill="#6D3E91"></circle><circle cx="625.1" cy="488.6" r="1.8" fill="#6D3E91"></circle><circle cx="637.6" cy="488.4" r="1.8" fill="#6D3E91"></circle><circle cx="650.1" cy="488.1" r="1.8" fill="#6D3E91"></circle><circle cx="662.6" cy="488.1" r="1.8" fill="#6D3E91"></circle><circle cx="675" cy="488" r="1.8" fill="#6D3E91"></circle><circle cx="687.5" cy="488.4" r="1.8" fill="#6D3E91"></circle><circle cx="700" cy="490.5" r="1.8" fill="#6D3E91"></circle><circle cx="712.5" cy="490.7" r="1.8" fill="#6D3E91"></circle></g></g><g id="line__USSR"><path id="outline" fill="none" stroke-linecap="butt" stroke-linejoin="round" stroke="#fff" stroke-width="2.5" d="M51.2 351.7L63.7 345.1L76.2 341.7L88.7 335.1L101.1 331.7L213.4 437.5L225.9 435.3L238.4 433.2L250.9 432.6L263.3 430.9L275.8 429L288.3 429L300.8 431.1L313.2 433.2"></path><g id="polyline"><polyline id="polyline" points="51.20,351.70 63.70,345.10 76.20,341.70 88.70,335.10 101.10,331.70 213.40,437.50 225.90,435.30 238.40,433.20 250.90,432.60 263.30,430.90 275.80,429.00 288.30,429.00 300.80,431.10 313.20,433.20" stroke-linejoin="round" stroke-width="1.5" stroke="#996D39" fill="none" stroke-linecap="butt"></polyline></g><g id="markers"><circle cx="51.2" cy="351.7" r="1.8" fill="#996D39"></circle><circle cx="63.7" cy="345.1" r="1.8" fill="#996D39"></circle><circle cx="76.2" cy="341.7" r="1.8" fill="#996D39"></circle><circle cx="88.7" cy="335.1" r="1.8" fill="#996D39"></circle><circle cx="101.1" cy="331.7" r="1.8" fill="#996D39"></circle><circle cx="213.4" cy="437.5" r="1.8" fill="#996D39"></circle><circle cx="225.9" cy="435.3" r="1.8" fill="#996D39"></circle><circle cx="238.4" cy="433.2" r="1.8" fill="#996D39"></circle><circle cx="250.9" cy="432.6" r="1.8" fill="#996D39"></circle><circle cx="263.3" cy="430.9" r="1.8" fill="#996D39"></circle><circle cx="275.8" cy="429" r="1.8" fill="#996D39"></circle><circle cx="288.3" cy="429" r="1.8" fill="#996D39"></circle><circle cx="300.8" cy="431.1" r="1.8" fill="#996D39"></circle><circle cx="313.2" cy="433.2" r="1.8" fill="#996D39"></circle></g></g><g id="line__South-Africa"><path id="outline" fill="none" stroke-linecap="butt" stroke-linejoin="round" stroke="#fff" stroke-width="2.5" d="M51.2 397.7L63.7 414.3L76.2 404.5L88.7 341.1L101.1 310.2L113.6 325.4L126.1 318.8L375.6 96.4L388.1 250.9L400.6 249.6L413 239.4L425.5 253.9L438 221.4L450.5 212.8L462.9 181.9L475.4 171.5L487.9 138.6L500.4 139.9L512.8 144.8L525.3 186.6L537.8 197.9L550.3 183.1L562.8 182.7L575.2 223.9L587.7 206L600.2 297.3L612.7 201.5L625.1 214L637.6 218.2L650.1 205.9L662.6 214.5L675 259.1L687.5 195.4L700 233.6L712.5 242.1"></path><g id="polyline"><polyline id="polyline" points="51.20,397.70 63.70,414.30 76.20,404.50 88.70,341.10 101.10,310.20 113.60,325.40 126.10,318.80 375.60,96.40 388.10,250.90 400.60,249.60 413.00,239.40 425.50,253.90 438.00,221.40 450.50,212.80 462.90,181.90 475.40,171.50 487.90,138.60 500.40,139.90 512.80,144.80 525.30,186.60 537.80,197.90 550.30,183.10 562.80,182.70 575.20,223.90 587.70,206.00 600.20,297.30 612.70,201.50 625.10,214.00 637.60,218.20 650.10,205.90 662.60,214.50 675.00,259.10 687.50,195.40 700.00,233.60 712.50,242.10" stroke-linejoin="round" stroke-width="1.5" stroke="#00847E" fill="none" stroke-linecap="butt"></polyline></g><g id="markers"><circle cx="51.2" cy="397.7" r="1.8" fill="#00847E"></circle><circle cx="63.7" cy="414.3" r="1.8" fill="#00847E"></circle><circle cx="76.2" cy="404.5" r="1.8" fill="#00847E"></circle><circle cx="88.7" cy="341.1" r="1.8" fill="#00847E"></circle><circle cx="101.1" cy="310.2" r="1.8" fill="#00847E"></circle><circle cx="113.6" cy="325.4" r="1.8" fill="#00847E"></circle><circle cx="126.1" cy="318.8" r="1.8" fill="#00847E"></circle><circle cx="375.6" cy="96.4" r="1.8" fill="#00847E"></circle><circle cx="388.1" cy="250.9" r="1.8" fill="#00847E"></circle><circle cx="400.6" cy="249.6" r="1.8" fill="#00847E"></circle><circle cx="413" cy="239.4" r="1.8" fill="#00847E"></circle><circle cx="425.5" cy="253.9" r="1.8" fill="#00847E"></circle><circle cx="438" cy="221.4" r="1.8" fill="#00847E"></circle><circle cx="450.5" cy="212.8" r="1.8" fill="#00847E"></circle><circle cx="462.9" cy="181.9" r="1.8" fill="#00847E"></circle><circle cx="475.4" cy="171.5" r="1.8" fill="#00847E"></circle><circle cx="487.9" cy="138.6" r="1.8" fill="#00847E"></circle><circle cx="500.4" cy="139.9" r="1.8" fill="#00847E"></circle><circle cx="512.8" cy="144.8" r="1.8" fill="#00847E"></circle><circle cx="525.3" cy="186.6" r="1.8" fill="#00847E"></circle><circle cx="537.8" cy="197.9" r="1.8" fill="#00847E"></circle><circle cx="550.3" cy="183.1" r="1.8" fill="#00847E"></circle><circle cx="562.8" cy="182.7" r="1.8" fill="#00847E"></circle><circle cx="575.2" cy="223.9" r="1.8" fill="#00847E"></circle><circle cx="587.7" cy="206" r="1.8" fill="#00847E"></circle><circle cx="600.2" cy="297.3" r="1.8" fill="#00847E"></circle><circle cx="612.7" cy="201.5" r="1.8" fill="#00847E"></circle><circle cx="625.1" cy="214" r="1.8" fill="#00847E"></circle><circle cx="637.6" cy="218.2" r="1.8" fill="#00847E"></circle><circle cx="650.1" cy="205.9" r="1.8" fill="#00847E"></circle><circle cx="662.6" cy="214.5" r="1.8" fill="#00847E"></circle><circle cx="675" cy="259.1" r="1.8" fill="#00847E"></circle><circle cx="687.5" cy="195.4" r="1.8" fill="#00847E"></circle><circle cx="700" cy="233.6" r="1.8" fill="#00847E"></circle><circle cx="712.5" cy="242.1" r="1.8" fill="#00847E"></circle></g></g><g id="line__Philippines"><path id="outline" fill="none" stroke-linecap="butt" stroke-linejoin="round" stroke="#fff" stroke-width="2.5" d="M51.2 496.9L63.7 496.9L76.2 496.7L88.7 496.7L101.1 496.8L113.6 496.9"></path><g id="polyline"><polyline id="polyline" points="51.20,496.90 63.70,496.90 76.20,496.70 88.70,496.70 101.10,496.80 113.60,496.90" stroke-linejoin="round" stroke-width="1.5" stroke="#2C8465" fill="none" stroke-linecap="butt"></polyline></g><g id="markers"><circle cx="51.2" cy="496.9" r="1.8" fill="#2C8465"></circle><circle cx="63.7" cy="496.9" r="1.8" fill="#2C8465"></circle><circle cx="76.2" cy="496.7" r="1.8" fill="#2C8465"></circle><circle cx="88.7" cy="496.7" r="1.8" fill="#2C8465"></circle><circle cx="101.1" cy="496.8" r="1.8" fill="#2C8465"></circle><circle cx="113.6" cy="496.9" r="1.8" fill="#2C8465"></circle></g></g><g id="line__Japan"><path id="outline" fill="none" stroke-linecap="butt" stroke-linejoin="round" stroke="#fff" stroke-width="2.5" d="M51.2 496.7L63.7 496.7L76.2 496.6L88.7 496.4L101.1 496.5L113.6 496.5L126.1 496.3L138.6 496.3L151 496.2L163.5 496.1L176 496.1L188.5 496.2L201 495.9L213.4 495.5L225.9 495.6L238.4 495.4L250.9 495.5L263.3 495.3L275.8 495.5L288.3 494.7L300.8 493.9L313.2 494.8"></path><g id="polyline"><polyline id="polyline" points="51.20,496.70 63.70,496.70 76.20,496.60 88.70,496.40 101.10,496.50 113.60,496.50 126.10,496.30 138.60,496.30 151.00,496.20 163.50,496.10 176.00,496.10 188.50,496.20 201.00,495.90 213.40,495.50 225.90,495.60 238.40,495.40 250.90,495.50 263.30,495.30 275.80,495.50 288.30,494.70 300.80,493.90 313.20,494.80" stroke-linejoin="round" stroke-width="1.5" stroke="#C15065" fill="none" stroke-linecap="butt"></polyline></g><g id="markers"><circle cx="51.2" cy="496.7" r="1.8" fill="#C15065"></circle><circle cx="63.7" cy="496.7" r="1.8" fill="#C15065"></circle><circle cx="76.2" cy="496.6" r="1.8" fill="#C15065"></circle><circle cx="88.7" cy="496.4" r="1.8" fill="#C15065"></circle><circle cx="101.1" cy="496.5" r="1.8" fill="#C15065"></circle><circle cx="113.6" cy="496.5" r="1.8" fill="#C15065"></circle><circle cx="126.1" cy="496.3" r="1.8" fill="#C15065"></circle><circle cx="138.6" cy="496.3" r="1.8" fill="#C15065"></circle><circle cx="151" cy="496.2" r="1.8" fill="#C15065"></circle><circle cx="163.5" cy="496.1" r="1.8" fill="#C15065"></circle><circle cx="176" cy="496.1" r="1.8" fill="#C15065"></circle><circle cx="188.5" cy="496.2" r="1.8" fill="#C15065"></circle><circle cx="201" cy="495.9" r="1.8" fill="#C15065"></circle><circle cx="213.4" cy="495.5" r="1.8" fill="#C15065"></circle><circle cx="225.9" cy="495.6" r="1.8" fill="#C15065"></circle><circle cx="238.4" cy="495.4" r="1.8" fill="#C15065"></circle><circle cx="250.9" cy="495.5" r="1.8" fill="#C15065"></circle><circle cx="263.3" cy="495.3" r="1.8" fill="#C15065"></circle><circle cx="275.8" cy="495.5" r="1.8" fill="#C15065"></circle><circle cx="288.3" cy="494.7" r="1.8" fill="#C15065"></circle><circle cx="300.8" cy="493.9" r="1.8" fill="#C15065"></circle><circle cx="313.2" cy="494.8" r="1.8" fill="#C15065"></circle></g></g><g id="line__Ethiopia"><path id="outline" fill="none" stroke-linecap="butt" stroke-linejoin="round" stroke="#fff" stroke-width="2.5" d="M51.2 496.9L63.7 496.9L76.2 496.9L88.7 496.9L101.1 496.9L487.9 496.9L500.4 496.9L512.8 496.9L525.3 496.9L537.8 496.9L550.3 496.9L562.8 496.9L600.2 496.9L612.7 496.9L625.1 496.9L637.6 496.9L650.1 496.9L662.6 496.9L675 496.9L687.5 496.9L700 496.8"></path><g id="polyline"><polyline id="polyline" points="51.20,496.90 63.70,496.90 76.20,496.90 88.70,496.90 101.10,496.90 487.90,496.90 500.40,496.90 512.80,496.90 525.30,496.90 537.80,496.90 550.30,496.90 562.80,496.90 600.20,496.90 612.70,496.90 625.10,496.90 637.60,496.90 650.10,496.90 662.60,496.90 675.00,496.90 687.50,496.90 700.00,496.80" stroke-linejoin="round" stroke-width="1.5" stroke="#338711" fill="none" stroke-linecap="butt"></polyline></g><g id="markers"><circle cx="51.2" cy="496.9" r="1.8" fill="#338711"></circle><circle cx="63.7" cy="496.9" r="1.8" fill="#338711"></circle><circle cx="76.2" cy="496.9" r="1.8" fill="#338711"></circle><circle cx="88.7" cy="496.9" r="1.8" fill="#338711"></circle><circle cx="101.1" cy="496.9" r="1.8" fill="#338711"></circle><circle cx="487.9" cy="496.9" r="1.8" fill="#338711"></circle><circle cx="500.4" cy="496.9" r="1.8" fill="#338711"></circle><circle cx="512.8" cy="496.9" r="1.8" fill="#338711"></circle><circle cx="525.3" cy="496.9" r="1.8" fill="#338711"></circle><circle cx="537.8" cy="496.9" r="1.8" fill="#338711"></circle><circle cx="550.3" cy="496.9" r="1.8" fill="#338711"></circle><circle cx="562.8" cy="496.9" r="1.8" fill="#338711"></circle><circle cx="600.2" cy="496.9" r="1.8" fill="#338711"></circle><circle cx="612.7" cy="496.9" r="1.8" fill="#338711"></circle><circle cx="625.1" cy="496.9" r="1.8" fill="#338711"></circle><circle cx="637.6" cy="496.9" r="1.8" fill="#338711"></circle><circle cx="650.1" cy="496.9" r="1.8" fill="#338711"></circle><circle cx="662.6" cy="496.9" r="1.8" fill="#338711"></circle><circle cx="675" cy="496.9" r="1.8" fill="#338711"></circle><circle cx="687.5" cy="496.9" r="1.8" fill="#338711"></circle><circle cx="700" cy="496.8" r="1.8" fill="#338711"></circle></g></g><g id="line__Colombia"><path id="outline" fill="none" stroke-linecap="butt" stroke-linejoin="round" stroke="#fff" stroke-width="2.5" d="M51.2 495.2L63.7 495.2L76.2 495.3L88.7 495.2L101.1 495.5L650.1 496.3L662.6 496.5L675 496L687.5 495.6L700 496.2"></path><g id="polyline"><polyline id="polyline" points="51.20,495.20 63.70,495.20 76.20,495.30 88.70,495.20 101.10,495.50 650.10,496.30 662.60,496.50 675.00,496.00 687.50,495.60 700.00,496.20" stroke-linejoin="round" stroke-width="1.5" stroke="#00847E" fill="none" stroke-linecap="butt"></polyline></g><g id="markers"><circle cx="51.2" cy="495.2" r="1.8" fill="#00847E"></circle><circle cx="63.7" cy="495.2" r="1.8" fill="#00847E"></circle><circle cx="76.2" cy="495.3" r="1.8" fill="#00847E"></circle><circle cx="88.7" cy="495.2" r="1.8" fill="#00847E"></circle><circle cx="101.1" cy="495.5" r="1.8" fill="#00847E"></circle><circle cx="650.1" cy="496.3" r="1.8" fill="#00847E"></circle><circle cx="662.6" cy="496.5" r="1.8" fill="#00847E"></circle><circle cx="675" cy="496" r="1.8" fill="#00847E"></circle><circle cx="687.5" cy="495.6" r="1.8" fill="#00847E"></circle><circle cx="700" cy="496.2" r="1.8" fill="#00847E"></circle></g></g><g id="line__Australia"><path id="outline" fill="none" stroke-linecap="butt" stroke-linejoin="round" stroke="#fff" stroke-width="2.5" d="M51.2 496.9L63.7 496.9L76.2 496.9L88.7 496.8L101.1 496.8L113.6 496.9L126.1 496.7L138.6 496.7L151 496.7L163.5 496.7L176 496.8L188.5 496.8L201 496.7L213.4 496.8L225.9 496.8L238.4 496.7L250.9 496.7L263.3 496.7L275.8 496.7L288.3 496.7L300.8 496.7L313.2 496.7L325.7 496.6L338.2 496.7L350.7 496.7L363.1 496.7L375.6 496.6L388.1 496.2L400.6 496.6L413 496.7L425.5 496.5L438 496.5L450.5 496.6L462.9 496.6L475.4 496.5L487.9 496.8L650.1 496.7L662.6 496.7L675 496.7L687.5 496.7L700 496.7"></path><g id="polyline"><polyline id="polyline" points="51.20,496.90 63.70,496.90 76.20,496.90 88.70,496.80 101.10,496.80 113.60,496.90 126.10,496.70 138.60,496.70 151.00,496.70 163.50,496.70 176.00,496.80 188.50,496.80 201.00,496.70 213.40,496.80 225.90,496.80 238.40,496.70 250.90,496.70 263.30,496.70 275.80,496.70 288.30,496.70 300.80,496.70 313.20,496.70 325.70,496.60 338.20,496.70 350.70,496.70 363.10,496.70 375.60,496.60 388.10,496.20 400.60,496.60 413.00,496.70 425.50,496.50 438.00,496.50 450.50,496.60 462.90,496.60 475.40,496.50 487.90,496.80 650.10,496.70 662.60,496.70 675.00,496.70 687.50,496.70 700.00,496.70" stroke-linejoin="round" stroke-width="1.5" stroke="#2C8465" fill="none" stroke-linecap="butt"></polyline></g><g id="markers"><circle cx="51.2" cy="496.9" r="1.8" fill="#2C8465"></circle><circle cx="63.7" cy="496.9" r="1.8" fill="#2C8465"></circle><circle cx="76.2" cy="496.9" r="1.8" fill="#2C8465"></circle><circle cx="88.7" cy="496.8" r="1.8" fill="#2C8465"></circle><circle cx="101.1" cy="496.8" r="1.8" fill="#2C8465"></circle><circle cx="113.6" cy="496.9" r="1.8" fill="#2C8465"></circle><circle cx="126.1" cy="496.7" r="1.8" fill="#2C8465"></circle><circle cx="138.6" cy="496.7" r="1.8" fill="#2C8465"></circle><circle cx="151" cy="496.7" r="1.8" fill="#2C8465"></circle><circle cx="163.5" cy="496.7" r="1.8" fill="#2C8465"></circle><circle cx="176" cy="496.8" r="1.8" fill="#2C8465"></circle><circle cx="188.5" cy="496.8" r="1.8" fill="#2C8465"></circle><circle cx="201" cy="496.7" r="1.8" fill="#2C8465"></circle><circle cx="213.4" cy="496.8" r="1.8" fill="#2C8465"></circle><circle cx="225.9" cy="496.8" r="1.8" fill="#2C8465"></circle><circle cx="238.4" cy="496.7" r="1.8" fill="#2C8465"></circle><circle cx="250.9" cy="496.7" r="1.8" fill="#2C8465"></circle><circle cx="263.3" cy="496.7" r="1.8" fill="#2C8465"></circle><circle cx="275.8" cy="496.7" r="1.8" fill="#2C8465"></circle><circle cx="288.3" cy="496.7" r="1.8" fill="#2C8465"></circle><circle cx="300.8" cy="496.7" r="1.8" fill="#2C8465"></circle><circle cx="313.2" cy="496.7" r="1.8" fill="#2C8465"></circle><circle cx="325.7" cy="496.6" r="1.8" fill="#2C8465"></circle><circle cx="338.2" cy="496.7" r="1.8" fill="#2C8465"></circle><circle cx="350.7" cy="496.7" r="1.8" fill="#2C8465"></circle><circle cx="363.1" cy="496.7" r="1.8" fill="#2C8465"></circle><circle cx="375.6" cy="496.6" r="1.8" fill="#2C8465"></circle><circle cx="388.1" cy="496.2" r="1.8" fill="#2C8465"></circle><circle cx="400.6" cy="496.6" r="1.8" fill="#2C8465"></circle><circle cx="413" cy="496.7" r="1.8" fill="#2C8465"></circle><circle cx="425.5" cy="496.5" r="1.8" fill="#2C8465"></circle><circle cx="438" cy="496.5" r="1.8" fill="#2C8465"></circle><circle cx="450.5" cy="496.6" r="1.8" fill="#2C8465"></circle><circle cx="462.9" cy="496.6" r="1.8" fill="#2C8465"></circle><circle cx="475.4" cy="496.5" r="1.8" fill="#2C8465"></circle><circle cx="487.9" cy="496.8" r="1.8" fill="#2C8465"></circle><circle cx="650.1" cy="496.7" r="1.8" fill="#2C8465"></circle><circle cx="662.6" cy="496.7" r="1.8" fill="#2C8465"></circle><circle cx="675" cy="496.7" r="1.8" fill="#2C8465"></circle><circle cx="687.5" cy="496.7" r="1.8" fill="#2C8465"></circle><circle cx="700" cy="496.7" r="1.8" fill="#2C8465"></circle></g></g></g></g></g></g><g id="footer" class="SourcesFooter" style="fill:#5b5b5b"><g id="sources" class="markdown-text-wrap"><text x="16.0" y="546.5" style="font-size:13.5px;line-height:1.2"><tspan x="16" y="546.5"><tspan style="font-weight:700">Data source:</tspan> USGS - Mineral Commodity Summaries (2024); BGS - World Mineral Statistics (2023)</tspan></text></g><g id="note" class="markdown-text-wrap"><text x="16.0" y="564.7" style="font-size:13.5px;line-height:1.2"><tspan x="16" y="564.7"><tspan style="font-weight:700">Note:</tspan> Values are reported as tonnes of metal content. The sum of all countries may exceed World data on certain years (by up to 10%),</tspan><tspan x="16" y="580.9">due to discrepancies between data sources.</tspan></text></g><text id="origin-url" font-size="13.50" x="792.7" y="546.5"><tspan x="792.69" y="546.495"><a target="_blank" style="fill: #5b5b5b;" href="https://creativecommons.org/licenses/by/4.0/">CC BY</a></tspan></text></g><line id="separator-line" x1="16" y1="600" x2="834" y2="600" stroke="#e7e7e7"></line><g id="details" transform="translate(15, 616)"><g class="markdown-text-wrap"><text x="0.0" y="12.0" style="font-size:12.375px;fill:#5b5b5b;line-height:1.2"><tspan x="0" y="12.0"><tspan style="font-weight:700">1.</tspan> <tspan style="font-weight:700">Refined production</tspan>: Refined production is the process of taking raw materials, such as metals extracted from ores, and purifying them to achieve</tspan><tspan x="0" y="26.9">a higher quality or more usable form. After metals are initially extracted from ore through processes like smelting, they often contain impurities or are</tspan><tspan x="0" y="41.7">not in the ideal form for manufacturing. Refining involves further processing these metals to remove impurities and adjust their composition to meet</tspan><tspan x="0" y="56.6">specific standards. Refined production is essential for transforming raw materials into high-quality metals that are crucial for industries and</tspan><tspan x="0" y="71.4">consumers, from manufacturing electronics to constructing buildings.</tspan></text></g></g></svg>