<svg xmlns="http://www.w3.org/2000/svg" version="1.1" style="font-family:Lato, &#x27;Helvetica Neue&#x27;, Helvetica, Arial, &#x27;Liberation Sans&#x27;, sans-serif;font-size:18px;background-color:white;text-rendering:geometricPrecision;-webkit-font-smoothing:antialiased" width="850" height="661.7" viewBox="0 0 850 661.7"><defs><style>@import url(https://ourworldindata.org/fonts.css)</style></defs><defs><pattern id="noDataPattern" patternUnits="userSpaceOnUse" width="4" height="4" patternTransform="rotate(-45 2 2)"><path d="M -1,2 l 6,0" stroke="#ccc" stroke-width="0.7"></path></pattern></defs><rect class="background-fill" fill="white" width="850" height="661.7"></rect><g id="header" class="HeaderView"><g id="logo" transform="translate(769, 16) scale(1)"><svg className="owidLogo" xmlns="http://www.w3.org/2000/svg" width="65" height="36" viewBox="0 0 65 36"  fill="none"><path fill="#002147" d="M0 0h64.8v36H0z"/><path fill="#CE261E" d="M0 33.3h64.8V36H0z"/><path fill="#fff" d="M13.796 10.575c0 .636-.106 1.226-.318 1.77a4.193 4.193 0 0 1-.894 1.404 4.084 4.084 0 0 1-1.386.93c-.54.22-1.138.33-1.794.33-.656 0-1.256-.11-1.8-.33a4.149 4.149 0 0 1-1.392-.93 4.193 4.193 0 0 1-.894-1.404A4.833 4.833 0 0 1 5 10.575c0-.636.106-1.224.318-1.764a4.18 4.18 0 0 1 .894-1.41 4.076 4.076 0 0 1 1.392-.924 4.684 4.684 0 0 1 1.8-.336c.656 0 1.254.112 1.794.336.54.224 1.002.534 1.386.93.384.392.682.86.894 1.404.212.54.318 1.128.318 1.764Zm-1.656 0c0-.476-.064-.902-.192-1.278a2.671 2.671 0 0 0-.54-.966 2.332 2.332 0 0 0-.864-.606 2.94 2.94 0 0 0-1.14-.21c-.424 0-.806.07-1.146.21-.34.14-.63.342-.87.606a2.742 2.742 0 0 0-.546.966 3.955 3.955 0 0 0-.192 1.278c0 .476.064.904.192 1.284.128.376.31.696.546.96.24.26.53.46.87.6.34.14.722.21 1.146.21.424 0 .804-.07 1.14-.21.34-.14.628-.34.864-.6.236-.264.416-.584.54-.96a4.01 4.01 0 0 0 .192-1.284ZM16.104 8.757v3.912c0 .376.086.668.258.876.176.204.438.306.786.306.256 0 .496-.056.72-.168a2.58 2.58 0 0 0 .636-.474V8.757h1.482v6.156h-.906c-.192 0-.318-.09-.378-.27l-.102-.492a4.65 4.65 0 0 1-.396.354 2.577 2.577 0 0 1-.438.27 2.35 2.35 0 0 1-.498.168 2.345 2.345 0 0 1-.57.066c-.336 0-.634-.056-.894-.168a1.821 1.821 0 0 1-.648-.486 2.157 2.157 0 0 1-.402-.738 3.233 3.233 0 0 1-.132-.948V8.757h1.482ZM21.328 14.913V8.757h.87c.152 0 .258.028.318.084.06.056.1.152.12.288l.09.744c.22-.38.478-.68.774-.9.296-.22.628-.33.996-.33.304 0 .556.07.756.21l-.192 1.11c-.012.072-.038.124-.078.156a.278.278 0 0 1-.162.042 1.01 1.01 0 0 1-.246-.042 1.646 1.646 0 0 0-.414-.042c-.308 0-.572.086-.792.258-.22.168-.406.416-.558.744v3.834h-1.482ZM27.347 6.237h1.356a.57.57 0 0 1 .348.102c.096.064.16.152.192.264l1.476 5.19c.036.128.068.268.096.42.032.148.062.306.09.474a5.968 5.968 0 0 1 .228-.894l1.704-5.19a.575.575 0 0 1 .186-.252.543.543 0 0 1 .348-.114h.474a.57.57 0 0 1 .348.102.497.497 0 0 1 .192.264l1.692 5.19c.088.256.164.54.228.852.028-.156.056-.306.084-.45.032-.144.064-.278.096-.402l1.476-5.19c.028-.1.09-.186.186-.258a.563.563 0 0 1 .348-.108h1.266l-2.694 8.676h-1.458l-1.896-5.928-.078-.246a9.504 9.504 0 0 1-.072-.282c-.024.1-.05.194-.078.282-.024.088-.048.17-.072.246l-1.914 5.928H30.04l-2.694-8.676ZM42.771 8.661c.46 0 .876.074 1.248.222.376.148.696.358.96.63s.468.604.612.996c.144.392.216.83.216 1.314 0 .488-.072.928-.216 1.32a2.85 2.85 0 0 1-.612 1.002 2.653 2.653 0 0 1-.96.636 3.35 3.35 0 0 1-1.248.222c-.46 0-.878-.074-1.254-.222a2.712 2.712 0 0 1-.966-.636 2.922 2.922 0 0 1-.618-1.002 3.807 3.807 0 0 1-.216-1.32c0-.484.072-.922.216-1.314.148-.392.354-.724.618-.996.268-.272.59-.482.966-.63a3.397 3.397 0 0 1 1.254-.222Zm0 5.202c.512 0 .89-.172 1.134-.516.248-.344.372-.848.372-1.512s-.124-1.17-.372-1.518c-.244-.348-.622-.522-1.134-.522-.52 0-.904.176-1.152.528-.248.348-.372.852-.372 1.512s.124 1.164.372 1.512c.248.344.632.516 1.152.516ZM46.723 14.913V8.757h.87c.152 0 .258.028.318.084.06.056.1.152.12.288l.09.744c.22-.38.478-.68.774-.9.296-.22.628-.33.996-.33.304 0 .556.07.756.21l-.192 1.11c-.012.072-.038.124-.078.156a.278.278 0 0 1-.162.042 1.01 1.01 0 0 1-.246-.042 1.646 1.646 0 0 0-.414-.042c-.308 0-.572.086-.792.258-.22.168-.406.416-.558.744v3.834h-1.482ZM52.96 5.997v8.916h-1.482V5.997h1.482ZM58.732 14.913c-.192 0-.318-.09-.378-.27l-.12-.594a3.68 3.68 0 0 1-.402.39c-.14.116-.292.216-.456.3-.16.084-.334.148-.522.192a2.372 2.372 0 0 1-.6.072c-.336 0-.644-.07-.924-.21a2.098 2.098 0 0 1-.726-.606 3.033 3.033 0 0 1-.468-.99 5.072 5.072 0 0 1-.162-1.344c0-.456.062-.88.186-1.272s.302-.732.534-1.02c.232-.288.51-.512.834-.672a2.384 2.384 0 0 1 1.092-.246 2.103 2.103 0 0 1 1.536.606V5.997h1.482v8.916h-.906Zm-1.974-1.086c.308 0 .57-.064.786-.192.216-.128.42-.31.612-.546v-2.76a1.452 1.452 0 0 0-.552-.432 1.597 1.597 0 0 0-.636-.126c-.224 0-.428.042-.612.126a1.21 1.21 0 0 0-.462.384c-.124.168-.22.384-.288.648-.068.26-.102.568-.102.924 0 .36.028.666.084.918.06.248.144.452.252.612.108.156.24.27.396.342.156.068.33.102.522.102ZM16.331 20.757v6.156H14.85v-6.156h1.481Zm.223-1.794a.844.844 0 0 1-.078.36.963.963 0 0 1-.21.294.995.995 0 0 1-.3.204.963.963 0 0 1-.372.072.948.948 0 0 1-.367-.072 1.018 1.018 0 0 1-.498-.498.963.963 0 0 1 0-.732.995.995 0 0 1 .205-.3.929.929 0 0 1 .293-.198.899.899 0 0 1 .738 0 .912.912 0 0 1 .3.198.943.943 0 0 1 .288.672ZM17.771 26.913v-6.156h.906c.192 0 .318.09.378.27l.102.486a2.934 2.934 0 0 1 .828-.618c.156-.076.322-.134.498-.174.176-.04.368-.06.576-.06.336 0 .634.058.894.174.26.112.476.272.648.48.176.204.308.45.396.738.092.284.138.598.138.942v3.918h-1.482v-3.918c0-.376-.088-.666-.264-.87-.172-.208-.432-.312-.78-.312-.256 0-.496.058-.72.174a2.58 2.58 0 0 0-.636.474v4.452h-1.482ZM34.22 22.575c0 .636-.106 1.22-.318 1.752-.212.532-.51.99-.894 1.374a4 4 0 0 1-1.386.894 4.87 4.87 0 0 1-1.794.318h-3.312v-8.676h3.312a4.79 4.79 0 0 1 1.794.324 4 4 0 0 1 1.386.894c.384.38.682.836.894 1.368.212.532.318 1.116.318 1.752Zm-1.65 0c0-.476-.064-.902-.192-1.278a2.68 2.68 0 0 0-.546-.96 2.332 2.332 0 0 0-.864-.606 2.94 2.94 0 0 0-1.14-.21h-1.686v6.108h1.686c.424 0 .804-.07 1.14-.21.34-.14.628-.34.864-.6a2.75 2.75 0 0 0 .546-.96 4.01 4.01 0 0 0 .192-1.284ZM39.98 26.913h-.665c-.14 0-.25-.02-.33-.06-.08-.044-.14-.13-.18-.258l-.132-.438c-.156.14-.31.264-.462.372a2.804 2.804 0 0 1-.462.264c-.16.072-.33.126-.51.162-.18.036-.38.054-.6.054-.26 0-.5-.034-.72-.102a1.618 1.618 0 0 1-.57-.318 1.448 1.448 0 0 1-.366-.522 1.852 1.852 0 0 1-.132-.726c0-.232.06-.46.18-.684.124-.228.328-.432.612-.612.284-.184.662-.336 1.134-.456.472-.12 1.058-.188 1.758-.204v-.36c0-.412-.088-.716-.264-.912-.172-.2-.424-.3-.756-.3a1.837 1.837 0 0 0-1.02.276c-.116.068-.224.13-.324.186a.664.664 0 0 1-.33.084.429.429 0 0 1-.258-.078.614.614 0 0 1-.174-.192l-.27-.474c.708-.648 1.562-.972 2.562-.972.36 0 .68.06.96.18.284.116.524.28.72.492.196.208.344.458.444.75.104.292.156.612.156.96v3.888Zm-2.88-.924c.153 0 .293-.014.42-.042.129-.028.249-.07.36-.126.117-.056.227-.124.33-.204.109-.084.217-.182.325-.294v-1.038c-.432.02-.794.058-1.086.114-.288.052-.52.12-.696.204a.923.923 0 0 0-.378.294.664.664 0 0 0-.108.366c0 .26.076.446.228.558.156.112.358.168.606.168ZM43.22 27.01c-.532 0-.942-.15-1.23-.45-.288-.305-.432-.723-.432-1.255v-3.438h-.624a.31.31 0 0 1-.21-.078c-.056-.052-.084-.13-.084-.234v-.588l.99-.162.312-1.68a.302.302 0 0 1 .108-.186.365.365 0 0 1 .222-.066h.768v1.938h1.62v1.056h-1.62v3.336c0 .192.048.342.144.45a.488.488 0 0 0 .384.162c.092 0 .168-.01.228-.03.064-.024.118-.048.162-.072.048-.024.09-.046.126-.066a.194.194 0 0 1 .108-.036.16.16 0 0 1 .108.036c.028.02.058.052.09.096l.444.72c-.216.18-.464.316-.744.408a2.77 2.77 0 0 1-.87.138ZM50.423 26.913h-.666c-.14 0-.25-.02-.33-.06-.08-.044-.14-.13-.18-.258l-.132-.438c-.156.14-.31.264-.462.372a2.804 2.804 0 0 1-.462.264c-.16.072-.33.126-.51.162-.18.036-.38.054-.6.054-.26 0-.5-.034-.72-.102a1.618 1.618 0 0 1-.57-.318 1.448 1.448 0 0 1-.366-.522 1.852 1.852 0 0 1-.132-.726c0-.232.06-.46.18-.684.124-.228.328-.432.612-.612.284-.184.662-.336 1.134-.456.472-.12 1.058-.188 1.758-.204v-.36c0-.412-.088-.716-.264-.912-.172-.2-.424-.3-.756-.3a1.837 1.837 0 0 0-1.02.276c-.116.068-.224.13-.324.186a.664.664 0 0 1-.33.084.429.429 0 0 1-.258-.078.614.614 0 0 1-.174-.192l-.27-.474c.708-.648 1.562-.972 2.562-.972.36 0 .68.06.96.18.284.116.524.28.72.492.196.208.344.458.444.75.104.292.156.612.156.96v3.888Zm-2.88-.924c.152 0 .292-.014.42-.042.128-.028.248-.07.36-.126.116-.056.226-.124.33-.204.108-.084.216-.182.324-.294v-1.038c-.432.02-.794.058-1.086.114-.288.052-.52.12-.696.204a.923.923 0 0 0-.378.294.664.664 0 0 0-.108.366c0 .26.076.446.228.558.156.112.358.168.606.168Z"/></svg></g><a id="title" href="https://ourworldindata.org/explorers/minerals?Mineral=Tungsten&amp;Metric=Unit+value&amp;Type=Mine%2C+ilmenite&amp;Share+of+global=false&amp;country=AUS~CHL~CHN~USA~CAN~ALB~DZA~ARG~ARM~AUT~AZE~BOL~OWID_WRL~BWA~BRA~BGR~COL~COG~CUB~CYP~OWID_CZS~COD~DOM~OWID_GDR~ZWE~ZMB~OWID_YGS~OWID_GFR~VNM~UZB~GBR~UGA~OWID_USS~TUR~TZA~TJK~TWN~SWE~ESP~KOR~ZAF~SVK~OWID_SRM~SRB~SAU~RUS~ROU~PRT~POL~PHL~PER~PNG~PAN~PAK~OMN~NOR~MKD~PRK~NIC~NZL~NAM~MMR~MOZ~MAR~MNG~MEX~MRT~MYS~LAO~KGZ~KEN~KAZ~JPN~ITA~ISR~IRL~IRN~IDN~IND~HUN~HND~HTI~GTM~GRC~DEU~GEO~FRA~FIN~ERI~ECU~VEN~ARE~UKR~CHE~SUR~LKA~SVN~QAT~NGA~NLD~MNE~ISL~GHA~EGY~HRV~CMR~BIH~BHR~AFG~OWID_KOS~MDG~NCL~SDN~Other~CZE~THA~TUN~CIV~GAB~RWA~NER~ETH~BDI~GRL~BLR~JOR~BEL~SEN~SLE~SGP" style="font-family:&#x27;Playfair Display&#x27;, Georgia, &#x27;Times New Roman&#x27;, &#x27;Liberation Serif&#x27;, serif" target="_blank" rel="noopener"><text font-size="24.75" font-weight="600" x="16.0" y="40.0" fill="#5b5b5b"><tspan x="16" y="40.0075">Tungsten unit value, 1900 to 2019</tspan></text></a><g id="subtitle" class="markdown-text-wrap"><text x="16.0" y="63.9" style="font-size:14.625px;line-height:1.2" fill="#5b5b5b"><tspan x="16" y="63.9">Value of 1 tonne of <tspan class="dod-span" data-id="tungsten">tungsten<tspan style="font-feature-settings:&quot;sups&quot;">ยน</tspan></tspan>, in constant 1998 US$ per tonne.</tspan></text></g></g><g id="chart-area" style="pointer-events:none"><g id="line-chart" class="LineChart"><defs><clipPath id="boundsClip-111"><rect x="71.48" y="73.25" width="838" height="470.35"></rect></clipPath></defs><rect x="16" y="83.25" width="818" height="450.35" fill="none"></rect><g id="dual-axis" class="DualAxisView"><g id="horizontal-axis" class="HorizontalAxis"><g id="tick__1900"><line x1="81.5" y1="512.6" x2="81.5" y2="518.1" stroke="#999" stroke-width="1"></line><text x="81.48" y="531.6" fill="#5b5b5b" text-anchor="start" font-size="13.5">1900</text></g><g id="tick__2019"><line x1="763.8" y1="512.6" x2="763.8" y2="518.1" stroke="#999" stroke-width="1"></line><text x="763.765" y="531.6" fill="#5b5b5b" text-anchor="end" font-size="13.5">2019</text></g><g id="tick__1920"><line x1="196.1" y1="512.6" x2="196.1" y2="518.1" stroke="#999" stroke-width="1"></line><text x="196.1" y="531.6" fill="#5b5b5b" text-anchor="middle" font-size="13.5">1920</text></g><g id="tick__1940"><line x1="310.8" y1="512.6" x2="310.8" y2="518.1" stroke="#999" stroke-width="1"></line><text x="310.8" y="531.6" fill="#5b5b5b" text-anchor="middle" font-size="13.5">1940</text></g><g id="tick__1960"><line x1="425.5" y1="512.6" x2="425.5" y2="518.1" stroke="#999" stroke-width="1"></line><text x="425.5" y="531.6" fill="#5b5b5b" text-anchor="middle" font-size="13.5">1960</text></g><g id="tick__1980"><line x1="540.2" y1="512.6" x2="540.2" y2="518.1" stroke="#999" stroke-width="1"></line><text x="540.2" y="531.6" fill="#5b5b5b" text-anchor="middle" font-size="13.5">1980</text></g><g id="tick__2000"><line x1="654.8" y1="512.6" x2="654.8" y2="518.1" stroke="#999" stroke-width="1"></line><text x="654.8" y="531.6" fill="#5b5b5b" text-anchor="middle" font-size="13.5">2000</text></g></g><g id="vertical-axis" class="VerticalAxis"><g id="tick-labels"><text id="tick-label__0-__0024__002ft" x="76.48" y="513.1" dy=".32em" text-anchor="end" fill="#5b5b5b" font-size="13.5">0 $/t</text><text id="tick-label__10__002c000-__0024__002ft" x="76.48" y="453.1" dy=".32em" text-anchor="end" fill="#5b5b5b" font-size="13.5">10,000 $/t</text><text id="tick-label__20__002c000-__0024__002ft" x="76.48" y="393.2" dy=".32em" text-anchor="end" fill="#5b5b5b" font-size="13.5">20,000 $/t</text><text id="tick-label__30__002c000-__0024__002ft" x="76.48" y="333.2" dy=".32em" text-anchor="end" fill="#5b5b5b" font-size="13.5">30,000 $/t</text><text id="tick-label__40__002c000-__0024__002ft" x="76.48" y="273.3" dy=".32em" text-anchor="end" fill="#5b5b5b" font-size="13.5">40,000 $/t</text><text id="tick-label__50__002c000-__0024__002ft" x="76.48" y="213.3" dy=".32em" text-anchor="end" fill="#5b5b5b" font-size="13.5">50,000 $/t</text><text id="tick-label__60__002c000-__0024__002ft" x="76.48" y="153.4" dy=".32em" text-anchor="end" fill="#5b5b5b" font-size="13.5">60,000 $/t</text><text id="tick-label__70__002c000-__0024__002ft" x="76.48" y="93.4" dy=".32em" text-anchor="end" fill="#5b5b5b" font-size="13.5">70,000 $/t</text></g></g><g id="horizontal-grid-lines" class="AxisGridLines horizontalLines"><line id="grid-line__0" x1="81.48" y1="513.1" x2="763.76" y2="513.1" stroke="#999" stroke-width="1"></line><line id="grid-line__10000" x1="81.48" y1="453.1" x2="763.76" y2="453.1" stroke="#ddd" stroke-width="1" stroke-dasharray="3,2"></line><line id="grid-line__20000" x1="81.48" y1="393.2" x2="763.76" y2="393.2" stroke="#ddd" stroke-width="1" stroke-dasharray="3,2"></line><line id="grid-line__30000" x1="81.48" y1="333.2" x2="763.76" y2="333.2" stroke="#ddd" stroke-width="1" stroke-dasharray="3,2"></line><line id="grid-line__40000" x1="81.48" y1="273.3" x2="763.76" y2="273.3" stroke="#ddd" stroke-width="1" stroke-dasharray="3,2"></line><line id="grid-line__50000" x1="81.48" y1="213.3" x2="763.76" y2="213.3" stroke="#ddd" stroke-width="1" stroke-dasharray="3,2"></line><line id="grid-line__60000" x1="81.48" y1="153.4" x2="763.76" y2="153.4" stroke="#ddd" stroke-width="1" stroke-dasharray="3,2"></line><line id="grid-line__70000" x1="81.48" y1="93.4" x2="763.76" y2="93.4" stroke="#ddd" stroke-width="1" stroke-dasharray="3,2"></line></g></g><g clip-path="url(#boundsClip-111)"><g id="line-labels" class="LineLabels"><g id="mark__World" class="legendMark" style="cursor:default"><rect id="background" x="763.765" y="358.25" width="70.235" height="13.5" fill="#fff" opacity="0"></rect><text id="label" font-size="13.50" font-weight="400" x="767.8" y="370.0" fill="#c15065"><tspan x="767.765" y="369.995">World</tspan></text></g></g><g id="lines" class="Lines"><rect x="81" y="89" width="682" height="424" fill="rgba(255,255,255,0)" opacity="0"></rect><g id="line__World"><path stroke-linecap="round" stroke-linejoin="round" stroke="#ddd" d="M81.5 447.2L87.2 471.1L92.9 465.1L98.7 475.3L104.4 453.1L110.1 429.2L115.9 417.2L121.6 381.2L127.3 429.2L133.1 417.2L138.8 401L144.5 423.2L150.3 424.4L156 413.6L161.7 413.6L167.5 118.6L173.2 89.3L178.9 317.7L184.7 302.7L190.4 371.6L196.1 459.7L201.9 447.8L207.6 437.6L213.4 433.4L219.1 446L224.8 431L230.6 428L236.3 432.2L242 431L247.8 409.4L253.5 414.8L259.2 414.8L265 421.4L270.7 412.4L276.4 365.6L282.2 380.6L287.9 368L293.6 329.1L299.4 346.4L305.1 345.8L310.8 312.9L316.6 296.7L322.3 312.3L328 315.9L333.8 332.6L339.5 338L345.2 372.8L351 370.4L356.7 364.4L362.4 362.6L368.2 353.6L373.9 194.2L379.6 188.8L385.4 196.6L391.1 196.6L396.8 199.6L402.6 223.5L408.3 393.8L414 430.4L419.8 417.2L425.5 410.6L431.2 416L437 410L442.7 419L448.4 424.4L454.2 395L459.9 374L465.6 393.2L471.4 374L477.1 373.4L482.8 371L488.6 356L494.3 380.6L500 381.2L505.8 304.5L511.5 300.9L517.2 272.7L523 187.6L528.7 241.5L534.4 263.7L540.2 293.7L545.9 324.3L551.6 371L557.4 411.2L563.1 405.8L568.8 428.6L574.6 450.2L580.3 458.5L586 451.4L591.8 429.8L597.5 449.6L603.2 442.4L609 448.4L614.7 467L620.4 450.8L626.2 434L631.9 448.4L637.6 454.3L643.4 463.3L649.1 471.6L654.8 466.1L660.6 444.2L666.3 463.8L672 466.8L677.8 453.1L683.5 363.8L689.2 333.8L695 344L700.7 353.6L706.4 395.6L712.2 392L717.9 309.9L723.6 272.1L729.4 317.7L735.1 326.7L740.8 357.2L746.6 411.2L752.3 373.4L758 334.4L763.8 365" fill="none" stroke-width="1"></path></g><g id="line__World"><path id="outline" fill="none" stroke-linecap="butt" stroke-linejoin="round" stroke="#fff" stroke-width="2.5" d="M81.5 447.2L87.2 471.1L92.9 465.1L98.7 475.3L104.4 453.1L110.1 429.2L115.9 417.2L121.6 381.2L127.3 429.2L133.1 417.2L138.8 401L144.5 423.2L150.3 424.4L156 413.6L161.7 413.6L167.5 118.6L173.2 89.3L178.9 317.7L184.7 302.7L190.4 371.6L196.1 459.7L201.9 447.8L207.6 437.6L213.4 433.4L219.1 446L224.8 431L230.6 428L236.3 432.2L242 431L247.8 409.4L253.5 414.8L259.2 414.8L265 421.4L270.7 412.4L276.4 365.6L282.2 380.6L287.9 368L293.6 329.1L299.4 346.4L305.1 345.8L310.8 312.9L316.6 296.7L322.3 312.3L328 315.9L333.8 332.6L339.5 338L345.2 372.8L351 370.4L356.7 364.4L362.4 362.6L368.2 353.6L373.9 194.2L379.6 188.8L385.4 196.6L391.1 196.6L396.8 199.6L402.6 223.5L408.3 393.8L414 430.4L419.8 417.2L425.5 410.6L431.2 416L437 410L442.7 419L448.4 424.4L454.2 395L459.9 374L465.6 393.2L471.4 374L477.1 373.4L482.8 371L488.6 356L494.3 380.6L500 381.2L505.8 304.5L511.5 300.9L517.2 272.7L523 187.6L528.7 241.5L534.4 263.7L540.2 293.7L545.9 324.3L551.6 371L557.4 411.2L563.1 405.8L568.8 428.6L574.6 450.2L580.3 458.5L586 451.4L591.8 429.8L597.5 449.6L603.2 442.4L609 448.4L614.7 467L620.4 450.8L626.2 434L631.9 448.4L637.6 454.3L643.4 463.3L649.1 471.6L654.8 466.1L660.6 444.2L666.3 463.8L672 466.8L677.8 453.1L683.5 363.8L689.2 333.8L695 344L700.7 353.6L706.4 395.6L712.2 392L717.9 309.9L723.6 272.1L729.4 317.7L735.1 326.7L740.8 357.2L746.6 411.2L752.3 373.4L758 334.4L763.8 365"></path><g id="polyline"><polyline id="polyline" points="81.50,447.20 87.20,471.10 92.90,465.10 98.70,475.30 104.40,453.10 110.10,429.20 115.90,417.20 121.60,381.20 127.30,429.20 133.10,417.20 138.80,401.00 144.50,423.20 150.30,424.40 156.00,413.60 161.70,413.60 167.50,118.60 173.20,89.30 178.90,317.70 184.70,302.70 190.40,371.60 196.10,459.70 201.90,447.80 207.60,437.60 213.40,433.40 219.10,446.00 224.80,431.00 230.60,428.00 236.30,432.20 242.00,431.00 247.80,409.40 253.50,414.80 259.20,414.80 265.00,421.40 270.70,412.40 276.40,365.60 282.20,380.60 287.90,368.00 293.60,329.10 299.40,346.40 305.10,345.80 310.80,312.90 316.60,296.70 322.30,312.30 328.00,315.90 333.80,332.60 339.50,338.00 345.20,372.80 351.00,370.40 356.70,364.40 362.40,362.60 368.20,353.60 373.90,194.20 379.60,188.80 385.40,196.60 391.10,196.60 396.80,199.60 402.60,223.50 408.30,393.80 414.00,430.40 419.80,417.20 425.50,410.60 431.20,416.00 437.00,410.00 442.70,419.00 448.40,424.40 454.20,395.00 459.90,374.00 465.60,393.20 471.40,374.00 477.10,373.40 482.80,371.00 488.60,356.00 494.30,380.60 500.00,381.20 505.80,304.50 511.50,300.90 517.20,272.70 523.00,187.60 528.70,241.50 534.40,263.70 540.20,293.70 545.90,324.30 551.60,371.00 557.40,411.20 563.10,405.80 568.80,428.60 574.60,450.20 580.30,458.50 586.00,451.40 591.80,429.80 597.50,449.60 603.20,442.40 609.00,448.40 614.70,467.00 620.40,450.80 626.20,434.00 631.90,448.40 637.60,454.30 643.40,463.30 649.10,471.60 654.80,466.10 660.60,444.20 666.30,463.80 672.00,466.80 677.80,453.10 683.50,363.80 689.20,333.80 695.00,344.00 700.70,353.60 706.40,395.60 712.20,392.00 717.90,309.90 723.60,272.10 729.40,317.70 735.10,326.70 740.80,357.20 746.60,411.20 752.30,373.40 758.00,334.40 763.80,365.00" stroke-linejoin="round" stroke-width="1.5" stroke="#C15065" fill="none" stroke-linecap="butt"></polyline></g><g id="markers"><circle cx="81.5" cy="447.2" r="1.8" fill="#C15065"></circle><circle cx="87.2" cy="471.1" r="1.8" fill="#C15065"></circle><circle cx="92.9" cy="465.1" r="1.8" fill="#C15065"></circle><circle cx="98.7" cy="475.3" r="1.8" fill="#C15065"></circle><circle cx="104.4" cy="453.1" r="1.8" fill="#C15065"></circle><circle cx="110.1" cy="429.2" r="1.8" fill="#C15065"></circle><circle cx="115.9" cy="417.2" r="1.8" fill="#C15065"></circle><circle cx="121.6" cy="381.2" r="1.8" fill="#C15065"></circle><circle cx="127.3" cy="429.2" r="1.8" fill="#C15065"></circle><circle cx="133.1" cy="417.2" r="1.8" fill="#C15065"></circle><circle cx="138.8" cy="401" r="1.8" fill="#C15065"></circle><circle cx="144.5" cy="423.2" r="1.8" fill="#C15065"></circle><circle cx="150.3" cy="424.4" r="1.8" fill="#C15065"></circle><circle cx="156" cy="413.6" r="1.8" fill="#C15065"></circle><circle cx="161.7" cy="413.6" r="1.8" fill="#C15065"></circle><circle cx="167.5" cy="118.6" r="1.8" fill="#C15065"></circle><circle cx="173.2" cy="89.3" r="1.8" fill="#C15065"></circle><circle cx="178.9" cy="317.7" r="1.8" fill="#C15065"></circle><circle cx="184.7" cy="302.7" r="1.8" fill="#C15065"></circle><circle cx="190.4" cy="371.6" r="1.8" fill="#C15065"></circle><circle cx="196.1" cy="459.7" r="1.8" fill="#C15065"></circle><circle cx="201.9" cy="447.8" r="1.8" fill="#C15065"></circle><circle cx="207.6" cy="437.6" r="1.8" fill="#C15065"></circle><circle cx="213.4" cy="433.4" r="1.8" fill="#C15065"></circle><circle cx="219.1" cy="446" r="1.8" fill="#C15065"></circle><circle cx="224.8" cy="431" r="1.8" fill="#C15065"></circle><circle cx="230.6" cy="428" r="1.8" fill="#C15065"></circle><circle cx="236.3" cy="432.2" r="1.8" fill="#C15065"></circle><circle cx="242" cy="431" r="1.8" fill="#C15065"></circle><circle cx="247.8" cy="409.4" r="1.8" fill="#C15065"></circle><circle cx="253.5" cy="414.8" r="1.8" fill="#C15065"></circle><circle cx="259.2" cy="414.8" r="1.8" fill="#C15065"></circle><circle cx="265" cy="421.4" r="1.8" fill="#C15065"></circle><circle cx="270.7" cy="412.4" r="1.8" fill="#C15065"></circle><circle cx="276.4" cy="365.6" r="1.8" fill="#C15065"></circle><circle cx="282.2" cy="380.6" r="1.8" fill="#C15065"></circle><circle cx="287.9" cy="368" r="1.8" fill="#C15065"></circle><circle cx="293.6" cy="329.1" r="1.8" fill="#C15065"></circle><circle cx="299.4" cy="346.4" r="1.8" fill="#C15065"></circle><circle cx="305.1" cy="345.8" r="1.8" fill="#C15065"></circle><circle cx="310.8" cy="312.9" r="1.8" fill="#C15065"></circle><circle cx="316.6" cy="296.7" r="1.8" fill="#C15065"></circle><circle cx="322.3" cy="312.3" r="1.8" fill="#C15065"></circle><circle cx="328" cy="315.9" r="1.8" fill="#C15065"></circle><circle cx="333.8" cy="332.6" r="1.8" fill="#C15065"></circle><circle cx="339.5" cy="338" r="1.8" fill="#C15065"></circle><circle cx="345.2" cy="372.8" r="1.8" fill="#C15065"></circle><circle cx="351" cy="370.4" r="1.8" fill="#C15065"></circle><circle cx="356.7" cy="364.4" r="1.8" fill="#C15065"></circle><circle cx="362.4" cy="362.6" r="1.8" fill="#C15065"></circle><circle cx="368.2" cy="353.6" r="1.8" fill="#C15065"></circle><circle cx="373.9" cy="194.2" r="1.8" fill="#C15065"></circle><circle cx="379.6" cy="188.8" r="1.8" fill="#C15065"></circle><circle cx="385.4" cy="196.6" r="1.8" fill="#C15065"></circle><circle cx="391.1" cy="196.6" r="1.8" fill="#C15065"></circle><circle cx="396.8" cy="199.6" r="1.8" fill="#C15065"></circle><circle cx="402.6" cy="223.5" r="1.8" fill="#C15065"></circle><circle cx="408.3" cy="393.8" r="1.8" fill="#C15065"></circle><circle cx="414" cy="430.4" r="1.8" fill="#C15065"></circle><circle cx="419.8" cy="417.2" r="1.8" fill="#C15065"></circle><circle cx="425.5" cy="410.6" r="1.8" fill="#C15065"></circle><circle cx="431.2" cy="416" r="1.8" fill="#C15065"></circle><circle cx="437" cy="410" r="1.8" fill="#C15065"></circle><circle cx="442.7" cy="419" r="1.8" fill="#C15065"></circle><circle cx="448.4" cy="424.4" r="1.8" fill="#C15065"></circle><circle cx="454.2" cy="395" r="1.8" fill="#C15065"></circle><circle cx="459.9" cy="374" r="1.8" fill="#C15065"></circle><circle cx="465.6" cy="393.2" r="1.8" fill="#C15065"></circle><circle cx="471.4" cy="374" r="1.8" fill="#C15065"></circle><circle cx="477.1" cy="373.4" r="1.8" fill="#C15065"></circle><circle cx="482.8" cy="371" r="1.8" fill="#C15065"></circle><circle cx="488.6" cy="356" r="1.8" fill="#C15065"></circle><circle cx="494.3" cy="380.6" r="1.8" fill="#C15065"></circle><circle cx="500" cy="381.2" r="1.8" fill="#C15065"></circle><circle cx="505.8" cy="304.5" r="1.8" fill="#C15065"></circle><circle cx="511.5" cy="300.9" r="1.8" fill="#C15065"></circle><circle cx="517.2" cy="272.7" r="1.8" fill="#C15065"></circle><circle cx="523" cy="187.6" r="1.8" fill="#C15065"></circle><circle cx="528.7" cy="241.5" r="1.8" fill="#C15065"></circle><circle cx="534.4" cy="263.7" r="1.8" fill="#C15065"></circle><circle cx="540.2" cy="293.7" r="1.8" fill="#C15065"></circle><circle cx="545.9" cy="324.3" r="1.8" fill="#C15065"></circle><circle cx="551.6" cy="371" r="1.8" fill="#C15065"></circle><circle cx="557.4" cy="411.2" r="1.8" fill="#C15065"></circle><circle cx="563.1" cy="405.8" r="1.8" fill="#C15065"></circle><circle cx="568.8" cy="428.6" r="1.8" fill="#C15065"></circle><circle cx="574.6" cy="450.2" r="1.8" fill="#C15065"></circle><circle cx="580.3" cy="458.5" r="1.8" fill="#C15065"></circle><circle cx="586" cy="451.4" r="1.8" fill="#C15065"></circle><circle cx="591.8" cy="429.8" r="1.8" fill="#C15065"></circle><circle cx="597.5" cy="449.6" r="1.8" fill="#C15065"></circle><circle cx="603.2" cy="442.4" r="1.8" fill="#C15065"></circle><circle cx="609" cy="448.4" r="1.8" fill="#C15065"></circle><circle cx="614.7" cy="467" r="1.8" fill="#C15065"></circle><circle cx="620.4" cy="450.8" r="1.8" fill="#C15065"></circle><circle cx="626.2" cy="434" r="1.8" fill="#C15065"></circle><circle cx="631.9" cy="448.4" r="1.8" fill="#C15065"></circle><circle cx="637.6" cy="454.3" r="1.8" fill="#C15065"></circle><circle cx="643.4" cy="463.3" r="1.8" fill="#C15065"></circle><circle cx="649.1" cy="471.6" r="1.8" fill="#C15065"></circle><circle cx="654.8" cy="466.1" r="1.8" fill="#C15065"></circle><circle cx="660.6" cy="444.2" r="1.8" fill="#C15065"></circle><circle cx="666.3" cy="463.8" r="1.8" fill="#C15065"></circle><circle cx="672" cy="466.8" r="1.8" fill="#C15065"></circle><circle cx="677.8" cy="453.1" r="1.8" fill="#C15065"></circle><circle cx="683.5" cy="363.8" r="1.8" fill="#C15065"></circle><circle cx="689.2" cy="333.8" r="1.8" fill="#C15065"></circle><circle cx="695" cy="344" r="1.8" fill="#C15065"></circle><circle cx="700.7" cy="353.6" r="1.8" fill="#C15065"></circle><circle cx="706.4" cy="395.6" r="1.8" fill="#C15065"></circle><circle cx="712.2" cy="392" r="1.8" fill="#C15065"></circle><circle cx="717.9" cy="309.9" r="1.8" fill="#C15065"></circle><circle cx="723.6" cy="272.1" r="1.8" fill="#C15065"></circle><circle cx="729.4" cy="317.7" r="1.8" fill="#C15065"></circle><circle cx="735.1" cy="326.7" r="1.8" fill="#C15065"></circle><circle cx="740.8" cy="357.2" r="1.8" fill="#C15065"></circle><circle cx="746.6" cy="411.2" r="1.8" fill="#C15065"></circle><circle cx="752.3" cy="373.4" r="1.8" fill="#C15065"></circle><circle cx="758" cy="334.4" r="1.8" fill="#C15065"></circle><circle cx="763.8" cy="365" r="1.8" fill="#C15065"></circle></g></g></g></g></g></g><g id="footer" class="SourcesFooter" style="fill:#5b5b5b"><g id="sources" class="markdown-text-wrap"><text x="16.0" y="562.7" style="font-size:13.5px;line-height:1.2"><tspan x="16" y="562.7"><tspan style="font-weight:700">Data source:</tspan> USGS - Historical Statistics for Mineral and Material Commodities (2023)</tspan></text></g><g id="note" class="markdown-text-wrap"><text x="16.0" y="580.9" style="font-size:13.5px;line-height:1.2"><tspan x="16" y="580.9"><tspan style="font-weight:700">Note:</tspan> This data is adjusted for inflation.</tspan></text></g><text id="origin-url" font-size="13.50" x="792.7" y="562.7"><tspan x="792.69" y="562.695"><a target="_blank" style="fill: #5b5b5b;" href="https://creativecommons.org/licenses/by/4.0/">CC BY</a></tspan></text></g><line id="separator-line" x1="16" y1="600" x2="834" y2="600" stroke="#e7e7e7"></line><g id="details" transform="translate(15, 616)"><g class="markdown-text-wrap"><text x="0.0" y="12.0" style="font-size:12.375px;fill:#5b5b5b;line-height:1.2"><tspan x="0" y="12.0"><tspan style="font-weight:700">1.</tspan> <tspan style="font-weight:700">Tungsten</tspan>: Tungsten is a mineral that is used in consumer electronics, semiconductors, medical equipment, light bulbs, furnaces and other</tspan><tspan x="0" y="26.9">applications where low thermal expansion is useful.</tspan></text></g></g></svg>