<svg xmlns="http://www.w3.org/2000/svg" version="1.1" style="font-family:Lato, &#x27;Helvetica Neue&#x27;, Helvetica, Arial, &#x27;Liberation Sans&#x27;, sans-serif;font-size:18px;background-color:white;text-rendering:geometricPrecision;-webkit-font-smoothing:antialiased" width="850" height="743.95" viewBox="0 0 850 743.95"><defs><style>@import url(https://ourworldindata.org/fonts.css)</style></defs><defs><pattern id="noDataPattern" patternUnits="userSpaceOnUse" width="4" height="4" patternTransform="rotate(-45 2 2)"><path d="M -1,2 l 6,0" stroke="#ccc" stroke-width="0.7"></path></pattern></defs><rect class="background-fill" fill="white" width="850" height="743.95"></rect><g id="header" class="HeaderView"><g id="logo" transform="translate(769, 16) scale(1)"><svg className="owidLogo" xmlns="http://www.w3.org/2000/svg" width="65" height="36" viewBox="0 0 65 36"  fill="none"><path fill="#002147" d="M0 0h64.8v36H0z"/><path fill="#CE261E" d="M0 33.3h64.8V36H0z"/><path fill="#fff" d="M13.796 10.575c0 .636-.106 1.226-.318 1.77a4.193 4.193 0 0 1-.894 1.404 4.084 4.084 0 0 1-1.386.93c-.54.22-1.138.33-1.794.33-.656 0-1.256-.11-1.8-.33a4.149 4.149 0 0 1-1.392-.93 4.193 4.193 0 0 1-.894-1.404A4.833 4.833 0 0 1 5 10.575c0-.636.106-1.224.318-1.764a4.18 4.18 0 0 1 .894-1.41 4.076 4.076 0 0 1 1.392-.924 4.684 4.684 0 0 1 1.8-.336c.656 0 1.254.112 1.794.336.54.224 1.002.534 1.386.93.384.392.682.86.894 1.404.212.54.318 1.128.318 1.764Zm-1.656 0c0-.476-.064-.902-.192-1.278a2.671 2.671 0 0 0-.54-.966 2.332 2.332 0 0 0-.864-.606 2.94 2.94 0 0 0-1.14-.21c-.424 0-.806.07-1.146.21-.34.14-.63.342-.87.606a2.742 2.742 0 0 0-.546.966 3.955 3.955 0 0 0-.192 1.278c0 .476.064.904.192 1.284.128.376.31.696.546.96.24.26.53.46.87.6.34.14.722.21 1.146.21.424 0 .804-.07 1.14-.21.34-.14.628-.34.864-.6.236-.264.416-.584.54-.96a4.01 4.01 0 0 0 .192-1.284ZM16.104 8.757v3.912c0 .376.086.668.258.876.176.204.438.306.786.306.256 0 .496-.056.72-.168a2.58 2.58 0 0 0 .636-.474V8.757h1.482v6.156h-.906c-.192 0-.318-.09-.378-.27l-.102-.492a4.65 4.65 0 0 1-.396.354 2.577 2.577 0 0 1-.438.27 2.35 2.35 0 0 1-.498.168 2.345 2.345 0 0 1-.57.066c-.336 0-.634-.056-.894-.168a1.821 1.821 0 0 1-.648-.486 2.157 2.157 0 0 1-.402-.738 3.233 3.233 0 0 1-.132-.948V8.757h1.482ZM21.328 14.913V8.757h.87c.152 0 .258.028.318.084.06.056.1.152.12.288l.09.744c.22-.38.478-.68.774-.9.296-.22.628-.33.996-.33.304 0 .556.07.756.21l-.192 1.11c-.012.072-.038.124-.078.156a.278.278 0 0 1-.162.042 1.01 1.01 0 0 1-.246-.042 1.646 1.646 0 0 0-.414-.042c-.308 0-.572.086-.792.258-.22.168-.406.416-.558.744v3.834h-1.482ZM27.347 6.237h1.356a.57.57 0 0 1 .348.102c.096.064.16.152.192.264l1.476 5.19c.036.128.068.268.096.42.032.148.062.306.09.474a5.968 5.968 0 0 1 .228-.894l1.704-5.19a.575.575 0 0 1 .186-.252.543.543 0 0 1 .348-.114h.474a.57.57 0 0 1 .348.102.497.497 0 0 1 .192.264l1.692 5.19c.088.256.164.54.228.852.028-.156.056-.306.084-.45.032-.144.064-.278.096-.402l1.476-5.19c.028-.1.09-.186.186-.258a.563.563 0 0 1 .348-.108h1.266l-2.694 8.676h-1.458l-1.896-5.928-.078-.246a9.504 9.504 0 0 1-.072-.282c-.024.1-.05.194-.078.282-.024.088-.048.17-.072.246l-1.914 5.928H30.04l-2.694-8.676ZM42.771 8.661c.46 0 .876.074 1.248.222.376.148.696.358.96.63s.468.604.612.996c.144.392.216.83.216 1.314 0 .488-.072.928-.216 1.32a2.85 2.85 0 0 1-.612 1.002 2.653 2.653 0 0 1-.96.636 3.35 3.35 0 0 1-1.248.222c-.46 0-.878-.074-1.254-.222a2.712 2.712 0 0 1-.966-.636 2.922 2.922 0 0 1-.618-1.002 3.807 3.807 0 0 1-.216-1.32c0-.484.072-.922.216-1.314.148-.392.354-.724.618-.996.268-.272.59-.482.966-.63a3.397 3.397 0 0 1 1.254-.222Zm0 5.202c.512 0 .89-.172 1.134-.516.248-.344.372-.848.372-1.512s-.124-1.17-.372-1.518c-.244-.348-.622-.522-1.134-.522-.52 0-.904.176-1.152.528-.248.348-.372.852-.372 1.512s.124 1.164.372 1.512c.248.344.632.516 1.152.516ZM46.723 14.913V8.757h.87c.152 0 .258.028.318.084.06.056.1.152.12.288l.09.744c.22-.38.478-.68.774-.9.296-.22.628-.33.996-.33.304 0 .556.07.756.21l-.192 1.11c-.012.072-.038.124-.078.156a.278.278 0 0 1-.162.042 1.01 1.01 0 0 1-.246-.042 1.646 1.646 0 0 0-.414-.042c-.308 0-.572.086-.792.258-.22.168-.406.416-.558.744v3.834h-1.482ZM52.96 5.997v8.916h-1.482V5.997h1.482ZM58.732 14.913c-.192 0-.318-.09-.378-.27l-.12-.594a3.68 3.68 0 0 1-.402.39c-.14.116-.292.216-.456.3-.16.084-.334.148-.522.192a2.372 2.372 0 0 1-.6.072c-.336 0-.644-.07-.924-.21a2.098 2.098 0 0 1-.726-.606 3.033 3.033 0 0 1-.468-.99 5.072 5.072 0 0 1-.162-1.344c0-.456.062-.88.186-1.272s.302-.732.534-1.02c.232-.288.51-.512.834-.672a2.384 2.384 0 0 1 1.092-.246 2.103 2.103 0 0 1 1.536.606V5.997h1.482v8.916h-.906Zm-1.974-1.086c.308 0 .57-.064.786-.192.216-.128.42-.31.612-.546v-2.76a1.452 1.452 0 0 0-.552-.432 1.597 1.597 0 0 0-.636-.126c-.224 0-.428.042-.612.126a1.21 1.21 0 0 0-.462.384c-.124.168-.22.384-.288.648-.068.26-.102.568-.102.924 0 .36.028.666.084.918.06.248.144.452.252.612.108.156.24.27.396.342.156.068.33.102.522.102ZM16.331 20.757v6.156H14.85v-6.156h1.481Zm.223-1.794a.844.844 0 0 1-.078.36.963.963 0 0 1-.21.294.995.995 0 0 1-.3.204.963.963 0 0 1-.372.072.948.948 0 0 1-.367-.072 1.018 1.018 0 0 1-.498-.498.963.963 0 0 1 0-.732.995.995 0 0 1 .205-.3.929.929 0 0 1 .293-.198.899.899 0 0 1 .738 0 .912.912 0 0 1 .3.198.943.943 0 0 1 .288.672ZM17.771 26.913v-6.156h.906c.192 0 .318.09.378.27l.102.486a2.934 2.934 0 0 1 .828-.618c.156-.076.322-.134.498-.174.176-.04.368-.06.576-.06.336 0 .634.058.894.174.26.112.476.272.648.48.176.204.308.45.396.738.092.284.138.598.138.942v3.918h-1.482v-3.918c0-.376-.088-.666-.264-.87-.172-.208-.432-.312-.78-.312-.256 0-.496.058-.72.174a2.58 2.58 0 0 0-.636.474v4.452h-1.482ZM34.22 22.575c0 .636-.106 1.22-.318 1.752-.212.532-.51.99-.894 1.374a4 4 0 0 1-1.386.894 4.87 4.87 0 0 1-1.794.318h-3.312v-8.676h3.312a4.79 4.79 0 0 1 1.794.324 4 4 0 0 1 1.386.894c.384.38.682.836.894 1.368.212.532.318 1.116.318 1.752Zm-1.65 0c0-.476-.064-.902-.192-1.278a2.68 2.68 0 0 0-.546-.96 2.332 2.332 0 0 0-.864-.606 2.94 2.94 0 0 0-1.14-.21h-1.686v6.108h1.686c.424 0 .804-.07 1.14-.21.34-.14.628-.34.864-.6a2.75 2.75 0 0 0 .546-.96 4.01 4.01 0 0 0 .192-1.284ZM39.98 26.913h-.665c-.14 0-.25-.02-.33-.06-.08-.044-.14-.13-.18-.258l-.132-.438c-.156.14-.31.264-.462.372a2.804 2.804 0 0 1-.462.264c-.16.072-.33.126-.51.162-.18.036-.38.054-.6.054-.26 0-.5-.034-.72-.102a1.618 1.618 0 0 1-.57-.318 1.448 1.448 0 0 1-.366-.522 1.852 1.852 0 0 1-.132-.726c0-.232.06-.46.18-.684.124-.228.328-.432.612-.612.284-.184.662-.336 1.134-.456.472-.12 1.058-.188 1.758-.204v-.36c0-.412-.088-.716-.264-.912-.172-.2-.424-.3-.756-.3a1.837 1.837 0 0 0-1.02.276c-.116.068-.224.13-.324.186a.664.664 0 0 1-.33.084.429.429 0 0 1-.258-.078.614.614 0 0 1-.174-.192l-.27-.474c.708-.648 1.562-.972 2.562-.972.36 0 .68.06.96.18.284.116.524.28.72.492.196.208.344.458.444.75.104.292.156.612.156.96v3.888Zm-2.88-.924c.153 0 .293-.014.42-.042.129-.028.249-.07.36-.126.117-.056.227-.124.33-.204.109-.084.217-.182.325-.294v-1.038c-.432.02-.794.058-1.086.114-.288.052-.52.12-.696.204a.923.923 0 0 0-.378.294.664.664 0 0 0-.108.366c0 .26.076.446.228.558.156.112.358.168.606.168ZM43.22 27.01c-.532 0-.942-.15-1.23-.45-.288-.305-.432-.723-.432-1.255v-3.438h-.624a.31.31 0 0 1-.21-.078c-.056-.052-.084-.13-.084-.234v-.588l.99-.162.312-1.68a.302.302 0 0 1 .108-.186.365.365 0 0 1 .222-.066h.768v1.938h1.62v1.056h-1.62v3.336c0 .192.048.342.144.45a.488.488 0 0 0 .384.162c.092 0 .168-.01.228-.03.064-.024.118-.048.162-.072.048-.024.09-.046.126-.066a.194.194 0 0 1 .108-.036.16.16 0 0 1 .108.036c.028.02.058.052.09.096l.444.72c-.216.18-.464.316-.744.408a2.77 2.77 0 0 1-.87.138ZM50.423 26.913h-.666c-.14 0-.25-.02-.33-.06-.08-.044-.14-.13-.18-.258l-.132-.438c-.156.14-.31.264-.462.372a2.804 2.804 0 0 1-.462.264c-.16.072-.33.126-.51.162-.18.036-.38.054-.6.054-.26 0-.5-.034-.72-.102a1.618 1.618 0 0 1-.57-.318 1.448 1.448 0 0 1-.366-.522 1.852 1.852 0 0 1-.132-.726c0-.232.06-.46.18-.684.124-.228.328-.432.612-.612.284-.184.662-.336 1.134-.456.472-.12 1.058-.188 1.758-.204v-.36c0-.412-.088-.716-.264-.912-.172-.2-.424-.3-.756-.3a1.837 1.837 0 0 0-1.02.276c-.116.068-.224.13-.324.186a.664.664 0 0 1-.33.084.429.429 0 0 1-.258-.078.614.614 0 0 1-.174-.192l-.27-.474c.708-.648 1.562-.972 2.562-.972.36 0 .68.06.96.18.284.116.524.28.72.492.196.208.344.458.444.75.104.292.156.612.156.96v3.888Zm-2.88-.924c.152 0 .292-.014.42-.042.128-.028.248-.07.36-.126.116-.056.226-.124.33-.204.108-.084.216-.182.324-.294v-1.038c-.432.02-.794.058-1.086.114-.288.052-.52.12-.696.204a.923.923 0 0 0-.378.294.664.664 0 0 0-.108.366c0 .26.076.446.228.558.156.112.358.168.606.168Z"/></svg></g><a id="title" href="https://ourworldindata.org/explorers/minerals?Mineral=Tungsten&amp;Metric=Production&amp;Type=Mine%2C+ilmenite&amp;Share+of+global=false&amp;country=AUS~CHL~CHN~USA~CAN~ALB~DZA~ARG~ARM~AUT~AZE~BOL~OWID_WRL~BWA~BRA~BGR~COL~COG~CUB~CYP~OWID_CZS~COD~DOM~OWID_GDR~ZWE~ZMB~OWID_YGS~OWID_GFR~VNM~UZB~GBR~UGA~OWID_USS~TUR~TZA~TJK~TWN~SWE~ESP~KOR~ZAF~SVK~OWID_SRM~SRB~SAU~RUS~ROU~PRT~POL~PHL~PER~PNG~PAN~PAK~OMN~NOR~MKD~PRK~NIC~NZL~NAM~MMR~MOZ~MAR~MNG~MEX~MRT~MYS~LAO~KGZ~KEN~KAZ~JPN~ITA~ISR~IRL~IRN~IDN~IND~HUN~HND~HTI~GTM~GRC~DEU~GEO~FRA~FIN~ERI~ECU~VEN~ARE~UKR~CHE~SUR~LKA~SVN~QAT~NGA~NLD~MNE~ISL~GHA~EGY~HRV~CMR~BIH~BHR~AFG~OWID_KOS~MDG~NCL~SDN~Other~CZE~THA~TUN~CIV~GAB~RWA~NER~ETH~BDI~GRL~BLR~JOR~BEL~SEN~SLE~SGP" style="font-family:&#x27;Playfair Display&#x27;, Georgia, &#x27;Times New Roman&#x27;, &#x27;Liberation Serif&#x27;, serif" target="_blank" rel="noopener"><text font-size="24.75" font-weight="600" x="16.0" y="40.0" fill="#5b5b5b"><tspan x="16" y="40.0075">Tungsten production, 1905 to 2023</tspan></text></a><g id="subtitle" class="markdown-text-wrap"><text x="16.0" y="63.9" style="font-size:14.625px;line-height:1.2" fill="#5b5b5b"><tspan x="16" y="63.9">Production of <tspan class="dod-span" data-id="tungsten">tungsten<tspan style="font-feature-settings:&quot;sups&quot;">¹</tspan></tspan>, in tonnes. Based on mined, rather than <tspan class="dod-span" data-id="refined-production">refined<tspan style="font-feature-settings:&quot;sups&quot;">²</tspan></tspan>, production.</tspan></text></g></g><g id="chart-area" style="pointer-events:none"><g id="line-chart" class="LineChart"><defs><clipPath id="boundsClip-113"><rect x="60.14" y="73.25" width="838" height="435.95"></rect></clipPath></defs><rect x="16" y="83.25" width="818" height="415.95" fill="none"></rect><g id="dual-axis" class="DualAxisView"><g id="horizontal-axis" class="HorizontalAxis"><g id="tick__1905"><line x1="70.1" y1="478.2" x2="70.1" y2="483.7" stroke="#999" stroke-width="1"></line><text x="70.14" y="497.2" fill="#5b5b5b" text-anchor="start" font-size="13.5">1905</text></g><g id="tick__2023"><line x1="615.4" y1="478.2" x2="615.4" y2="483.7" stroke="#999" stroke-width="1"></line><text x="615.4" y="497.2" fill="#5b5b5b" text-anchor="end" font-size="13.5">2023</text></g><g id="tick__1920"><line x1="139.5" y1="478.2" x2="139.5" y2="483.7" stroke="#999" stroke-width="1"></line><text x="139.5" y="497.2" fill="#5b5b5b" text-anchor="middle" font-size="13.5">1920</text></g><g id="tick__1940"><line x1="231.9" y1="478.2" x2="231.9" y2="483.7" stroke="#999" stroke-width="1"></line><text x="231.9" y="497.2" fill="#5b5b5b" text-anchor="middle" font-size="13.5">1940</text></g><g id="tick__1960"><line x1="324.3" y1="478.2" x2="324.3" y2="483.7" stroke="#999" stroke-width="1"></line><text x="324.3" y="497.2" fill="#5b5b5b" text-anchor="middle" font-size="13.5">1960</text></g><g id="tick__1980"><line x1="416.7" y1="478.2" x2="416.7" y2="483.7" stroke="#999" stroke-width="1"></line><text x="416.7" y="497.2" fill="#5b5b5b" text-anchor="middle" font-size="13.5">1980</text></g><g id="tick__2000"><line x1="509.1" y1="478.2" x2="509.1" y2="483.7" stroke="#999" stroke-width="1"></line><text x="509.1" y="497.2" fill="#5b5b5b" text-anchor="middle" font-size="13.5">2000</text></g></g><g id="vertical-axis" class="VerticalAxis"><g id="tick-labels"><text id="tick-label__0-t" x="65.14" y="478.7" dy=".32em" text-anchor="end" fill="#5b5b5b" font-size="13.5">0 t</text><text id="tick-label__10__002c000-t" x="65.14" y="432.2" dy=".32em" text-anchor="end" fill="#5b5b5b" font-size="13.5">10,000 t</text><text id="tick-label__20__002c000-t" x="65.14" y="385.8" dy=".32em" text-anchor="end" fill="#5b5b5b" font-size="13.5">20,000 t</text><text id="tick-label__30__002c000-t" x="65.14" y="339.3" dy=".32em" text-anchor="end" fill="#5b5b5b" font-size="13.5">30,000 t</text><text id="tick-label__40__002c000-t" x="65.14" y="292.8" dy=".32em" text-anchor="end" fill="#5b5b5b" font-size="13.5">40,000 t</text><text id="tick-label__50__002c000-t" x="65.14" y="246.3" dy=".32em" text-anchor="end" fill="#5b5b5b" font-size="13.5">50,000 t</text><text id="tick-label__60__002c000-t" x="65.14" y="199.9" dy=".32em" text-anchor="end" fill="#5b5b5b" font-size="13.5">60,000 t</text><text id="tick-label__70__002c000-t" x="65.14" y="153.4" dy=".32em" text-anchor="end" fill="#5b5b5b" font-size="13.5">70,000 t</text><text id="tick-label__80__002c000-t" x="65.14" y="106.9" dy=".32em" text-anchor="end" fill="#5b5b5b" font-size="13.5">80,000 t</text></g></g><g id="horizontal-grid-lines" class="AxisGridLines horizontalLines"><line id="grid-line__0" x1="70.14" y1="478.7" x2="615.40" y2="478.7" stroke="#999" stroke-width="1"></line><line id="grid-line__10000" x1="70.14" y1="432.2" x2="615.40" y2="432.2" stroke="#ddd" stroke-width="1" stroke-dasharray="3,2"></line><line id="grid-line__20000" x1="70.14" y1="385.8" x2="615.40" y2="385.8" stroke="#ddd" stroke-width="1" stroke-dasharray="3,2"></line><line id="grid-line__30000" x1="70.14" y1="339.3" x2="615.40" y2="339.3" stroke="#ddd" stroke-width="1" stroke-dasharray="3,2"></line><line id="grid-line__40000" x1="70.14" y1="292.8" x2="615.40" y2="292.8" stroke="#ddd" stroke-width="1" stroke-dasharray="3,2"></line><line id="grid-line__50000" x1="70.14" y1="246.3" x2="615.40" y2="246.3" stroke="#ddd" stroke-width="1" stroke-dasharray="3,2"></line><line id="grid-line__60000" x1="70.14" y1="199.9" x2="615.40" y2="199.9" stroke="#ddd" stroke-width="1" stroke-dasharray="3,2"></line><line id="grid-line__70000" x1="70.14" y1="153.4" x2="615.40" y2="153.4" stroke="#ddd" stroke-width="1" stroke-dasharray="3,2"></line><line id="grid-line__80000" x1="70.14" y1="106.9" x2="615.40" y2="106.9" stroke="#ddd" stroke-width="1" stroke-dasharray="3,2"></line></g></g><g clip-path="url(#boundsClip-113)"><g id="line-labels" class="LineLabels"><g id="mark__World" class="legendMark" style="cursor:default"><g id="connector" class="indicator"><path d="M619.4,116.2 H620.4384615384615 V104.95 H646.4" stroke="#999" stroke-width="0.5" fill="none"></path></g><rect id="background" x="615.4" y="98.2" width="70.235" height="13.5" fill="#fff" opacity="0"></rect><text id="label" font-size="13.50" font-weight="400" x="650.4" y="109.9" fill="#c15065"><tspan x="650.4" y="109.94500000000001">World</tspan></text></g><g id="mark__China" class="legendMark" style="cursor:default"><g id="connector" class="indicator"><path d="M619.4,185.9 H621.4769230769231 V120.45 H646.4" stroke="#999" stroke-width="0.5" fill="none"></path></g><rect id="background" x="615.4" y="113.7" width="70.37" height="13.5" fill="#fff" opacity="0"></rect><text id="label" font-size="13.50" font-weight="400" x="650.4" y="125.4" fill="#cf0a66"><tspan x="650.4" y="125.44500000000001">China</tspan></text></g><g id="mark__USSR" class="legendMark" style="cursor:default"><g id="connector" class="indicator"><path d="M619.4,441.5 H622.5153846153846 V135.95 H646.4" stroke="#999" stroke-width="0.5" fill="none"></path></g><rect id="background" x="615.4" y="129.2" width="72.53" height="13.5" fill="#fff" opacity="0"></rect><text id="label" font-size="13.50" font-weight="400" x="650.4" y="140.9" fill="#996d39"><tspan x="650.4" y="140.945">USSR</tspan></text></g><g id="mark__Vietnam" class="legendMark" style="cursor:default"><g id="connector" class="indicator"><path d="M619.4,462.4 H623.5538461538462 V151.45 H646.4" stroke="#999" stroke-width="0.5" fill="none"></path></g><rect id="background" x="615.4" y="144.7" width="84.68" height="13.5" fill="#fff" opacity="0"></rect><text id="label" font-size="13.50" font-weight="400" x="650.4" y="156.4" fill="#cf0a66"><tspan x="650.4" y="156.445">Vietnam</tspan></text></g><g id="mark__Canada" class="legendMark" style="cursor:default"><g id="connector" class="indicator"><path d="M619.4,468.9 H624.5923076923077 V166.95 H646.4" stroke="#999" stroke-width="0.5" fill="none"></path></g><rect id="background" x="615.4" y="160.2" width="82.52000000000001" height="13.5" fill="#fff" opacity="0"></rect><text id="label" font-size="13.50" font-weight="400" x="650.4" y="171.9" fill="#18470f"><tspan x="650.4" y="171.945">Canada</tspan></text></g><g id="mark__Russia" class="legendMark" style="cursor:default"><g id="connector" class="indicator"><path d="M619.4,469.4 H625.6307692307693 V182.45 H646.4" stroke="#999" stroke-width="0.5" fill="none"></path></g><rect id="background" x="615.4" y="175.7" width="76.31" height="13.5" fill="#fff" opacity="0"></rect><text id="label" font-size="13.50" font-weight="400" x="650.4" y="187.4" fill="#8c4569"><tspan x="650.4" y="187.445">Russia</tspan></text></g><g id="mark__North-Korea" class="legendMark" style="cursor:default"><g id="connector" class="indicator"><path d="M619.4,470.8 H626.6692307692308 V197.95 H646.4" stroke="#999" stroke-width="0.5" fill="none"></path></g><rect id="background" x="615.4" y="191.2" width="108.03500000000001" height="13.5" fill="#fff" opacity="0"></rect><text id="label" font-size="13.50" font-weight="400" x="650.4" y="202.9" fill="#00295b"><tspan x="650.4" y="202.945">North Korea</tspan></text></g><g id="mark__Spain" class="legendMark" style="cursor:default"><g id="connector" class="indicator"><path d="M619.4,471.7 H627.7076923076922 V213.45 H646.4" stroke="#999" stroke-width="0.5" fill="none"></path></g><rect id="background" x="615.4" y="206.7" width="69.695" height="13.5" fill="#fff" opacity="0"></rect><text id="label" font-size="13.50" font-weight="400" x="650.4" y="218.4" fill="#578145"><tspan x="650.4" y="218.445">Spain</tspan></text></g><g id="mark__Bolivia" class="legendMark" style="cursor:default"><g id="connector" class="indicator"><path d="M619.4,471.7 H628.7461538461538 V228.95 H646.4" stroke="#999" stroke-width="0.5" fill="none"></path></g><rect id="background" x="615.4" y="222.2" width="74.825" height="13.5" fill="#fff" opacity="0"></rect><text id="label" font-size="13.50" font-weight="400" x="650.4" y="233.9" fill="#a2559c"><tspan x="650.4" y="233.945">Bolivia</tspan></text></g><g id="mark__Rwanda" class="legendMark" style="cursor:default"><g id="connector" class="indicator"><path d="M619.4,472.2 H629.7846153846153 V244.45 H646.4" stroke="#999" stroke-width="0.5" fill="none"></path></g><rect id="background" x="615.4" y="237.7" width="84.68" height="13.5" fill="#fff" opacity="0"></rect><text id="label" font-size="13.50" font-weight="400" x="650.4" y="249.4" fill="#8c4569"><tspan x="650.4" y="249.445">Rwanda</tspan></text></g><g id="mark__Zimbabwe" class="legendMark" style="cursor:default"><g id="connector" class="indicator"><path d="M619.4,474.1 H630.8230769230769 V259.95 H646.4" stroke="#999" stroke-width="0.5" fill="none"></path></g><rect id="background" x="615.4" y="253.2" width="97.37" height="13.5" fill="#fff" opacity="0"></rect><text id="label" font-size="13.50" font-weight="400" x="650.4" y="264.9" fill="#c15065"><tspan x="650.4" y="264.945">Zimbabwe</tspan></text></g><g id="mark__France" class="legendMark" style="cursor:default"><g id="connector" class="indicator"><path d="M619.4,474.1 H631.8615384615384 V275.45 H646.4" stroke="#999" stroke-width="0.5" fill="none"></path></g><rect id="background" x="615.4" y="268.7" width="77.12" height="13.5" fill="#fff" opacity="0"></rect><text id="label" font-size="13.50" font-weight="400" x="650.4" y="280.4" fill="#578145"><tspan x="650.4" y="280.445">France</tspan></text></g><g id="mark__Austria" class="legendMark" style="cursor:default"><g id="connector" class="indicator"><path d="M619.4,474.5 H632.9 V290.95 H646.4" stroke="#999" stroke-width="0.5" fill="none"></path></g><rect id="background" x="615.4" y="284.2" width="77.12" height="13.5" fill="#fff" opacity="0"></rect><text id="label" font-size="13.50" font-weight="400" x="650.4" y="295.9" fill="#9a5129"><tspan x="650.4" y="295.945">Austria</tspan></text></g><g id="mark__Australia" class="legendMark" style="cursor:default"><g id="connector" class="indicator"><path d="M619.4,475 H633.9384615384615 V306.45 H646.4" stroke="#999" stroke-width="0.5" fill="none"></path></g><rect id="background" x="615.4" y="299.7" width="87.65" height="13.5" fill="#fff" opacity="0"></rect><text id="label" font-size="13.50" font-weight="400" x="650.4" y="311.4" fill="#2c8465"><tspan x="650.4" y="311.445">Australia</tspan></text></g><g id="mark__Portugal" class="legendMark" style="cursor:default"><g id="connector" class="indicator"><path d="M619.4,476.4 H634.9769230769231 V321.95 H646.4" stroke="#999" stroke-width="0.5" fill="none"></path></g><rect id="background" x="615.4" y="315.2" width="85.49000000000001" height="13.5" fill="#fff" opacity="0"></rect><text id="label" font-size="13.50" font-weight="400" x="650.4" y="326.9" fill="#d73c50"><tspan x="650.4" y="326.945">Portugal</tspan></text></g><g id="mark__Brazil" class="legendMark" style="cursor:default"><g id="connector" class="indicator"><path d="M619.4,477.3 H636.0153846153846 V337.45 H646.4" stroke="#999" stroke-width="0.5" fill="none"></path></g><rect id="background" x="615.4" y="330.7" width="68.75" height="13.5" fill="#fff" opacity="0"></rect><text id="label" font-size="13.50" font-weight="400" x="650.4" y="342.4" fill="#578145"><tspan x="650.4" y="342.445">Brazil</tspan></text></g><g id="mark__Mongolia" class="legendMark" style="cursor:default"><g id="connector" class="indicator"><path d="M619.4,477.5 H637.0538461538462 V352.95 H646.4" stroke="#999" stroke-width="0.5" fill="none"></path></g><rect id="background" x="615.4" y="346.2" width="89.945" height="13.5" fill="#fff" opacity="0"></rect><text id="label" font-size="13.50" font-weight="400" x="650.4" y="357.9" fill="#00847e"><tspan x="650.4" y="357.945">Mongolia</tspan></text></g><g id="mark__South-Korea" class="legendMark" style="cursor:default"><g id="connector" class="indicator"><path d="M619.4,477.6 H638.0923076923077 V368.45 H646.4" stroke="#999" stroke-width="0.5" fill="none"></path></g><rect id="background" x="615.4" y="361.7" width="110.465" height="13.5" fill="#fff" opacity="0"></rect><text id="label" font-size="13.50" font-weight="400" x="650.4" y="373.4" fill="#970046"><tspan x="650.4" y="373.445">South Korea</tspan></text></g><g id="mark__Democratic-Republic-of-Congo" class="legendMark" style="cursor:default"><g id="connector" class="indicator"><path d="M619.4,478 H639.1307692307693 V383.95 H646.4" stroke="#999" stroke-width="0.5" fill="none"></path></g><rect id="background" x="615.4" y="377.2" width="218.60000000000002" height="13.5" fill="#fff" opacity="0"></rect><text id="label" font-size="13.50" font-weight="400" x="650.4" y="388.9" fill="#8c4569"><tspan x="650.4" y="388.945">Democratic Republic of Congo</tspan></text></g><g id="mark__Peru" class="legendMark" style="cursor:default"><g id="connector" class="indicator"><path d="M619.4,478.1 H640.1692307692308 V399.45 H646.4" stroke="#999" stroke-width="0.5" fill="none"></path></g><rect id="background" x="615.4" y="392.7" width="63.620000000000005" height="13.5" fill="#fff" opacity="0"></rect><text id="label" font-size="13.50" font-weight="400" x="650.4" y="404.4" fill="#be5915"><tspan x="650.4" y="404.445">Peru</tspan></text></g><g id="mark__Kyrgyzstan" class="legendMark" style="cursor:default"><g id="connector" class="indicator"><path d="M619.4,478.2 H641.2076923076922 V414.95 H646.4" stroke="#999" stroke-width="0.5" fill="none"></path></g><rect id="background" x="615.4" y="408.2" width="101.96000000000001" height="13.5" fill="#fff" opacity="0"></rect><text id="label" font-size="13.50" font-weight="400" x="650.4" y="419.9" fill="#8c4569"><tspan x="650.4" y="419.945">Kyrgyzstan</tspan></text></g><g id="mark__Kazakhstan" class="legendMark" style="cursor:default"><g id="connector" class="indicator"><path d="M619.4,478.2 H642.2461538461538 V430.45 H646.4" stroke="#999" stroke-width="0.5" fill="none"></path></g><rect id="background" x="615.4" y="423.7" width="105.875" height="13.5" fill="#fff" opacity="0"></rect><text id="label" font-size="13.50" font-weight="400" x="650.4" y="435.4" fill="#d73c50"><tspan x="650.4" y="435.445">Kazakhstan</tspan></text></g><g id="mark__Japan" class="legendMark" style="cursor:default"><g id="connector" class="indicator"><path d="M619.4,478.4 H643.2846153846153 V445.95 H646.4" stroke="#999" stroke-width="0.5" fill="none"></path></g><rect id="background" x="615.4" y="439.2" width="71.99000000000001" height="13.5" fill="#fff" opacity="0"></rect><text id="label" font-size="13.50" font-weight="400" x="650.4" y="450.9" fill="#c15065"><tspan x="650.4" y="450.945">Japan</tspan></text></g><g id="mark__Mexico" class="legendMark" style="cursor:default"><g id="connector" class="indicator"><path d="M619.4,478.5 H644.3230769230769 V461.45 H646.4" stroke="#999" stroke-width="0.5" fill="none"></path></g><rect id="background" x="615.4" y="454.7" width="77.795" height="13.5" fill="#fff" opacity="0"></rect><text id="label" font-size="13.50" font-weight="400" x="650.4" y="466.4" fill="#b13507"><tspan x="650.4" y="466.445">Mexico</tspan></text></g><g id="mark__Argentina" class="legendMark" style="cursor:default"><g id="connector" class="indicator"><path d="M619.4,478.6 H645.3615384615384 V476.95 H646.4" stroke="#999" stroke-width="0.5" fill="none"></path></g><rect id="background" x="615.4" y="470.2" width="93.05000000000001" height="13.5" fill="#fff" opacity="0"></rect><text id="label" font-size="13.50" font-weight="400" x="650.4" y="481.9" fill="#996d39"><tspan x="650.4" y="481.945">Argentina</tspan></text></g><g id="mark__Colombia" class="legendMark" style="cursor:default"><g id="connector" class="indicator"><path d="M619.4,478.7 H645.3615384615384 V492.45 H646.4" stroke="#999" stroke-width="0.5" fill="none"></path></g><rect id="background" x="615.4" y="485.7" width="92.105" height="13.5" fill="#fff" opacity="0"></rect><text id="label" font-size="13.50" font-weight="400" x="650.4" y="497.4" fill="#00847e"><tspan x="650.4" y="497.445">Colombia</tspan></text></g></g><g id="lines" class="Lines"><rect x="70" y="89" width="545" height="389" fill="rgba(255,255,255,0)" opacity="0"></rect><g id="line__Nigeria"><path stroke-linecap="round" stroke-linejoin="round" stroke="#ddd" d="M578.4 478.6L583.1 478.7L587.7 478.6L592.3 478.4L596.9 478.6L601.5 478.6L606.2 478.6L610.8 478.6" fill="none" stroke-width="1"></path></g><g id="line__Colombia"><path stroke-linecap="round" stroke-linejoin="round" stroke="#ddd" d="M564.6 478.7L569.2 478.7L573.8 478.7L578.4 478.7L583.1 478.7" fill="none" stroke-width="1"></path></g><g id="line__Vietnam"><path stroke-linecap="round" stroke-linejoin="round" stroke="#ddd" d="M476.8 478.7L481.4 478.6L486 478.5L490.6 478.1L495.3 477.7L499.9 478.7L555.3 478.7L559.9 478.7L564.6 478.7L569.2 478.7L573.8 463.5L578.4 459.8L583.1 455.3L587.7 454.6L592.3 458.5L596.9 456.3L601.5 457.8L606.2 456.4L610.8 460.1L615.4 462.4" fill="none" stroke-width="1"></path></g><g id="line__Kyrgyzstan"><path stroke-linecap="round" stroke-linejoin="round" stroke="#ddd" d="M476.8 478.2L481.4 478.2L486 478.2L490.6 478.2L495.3 478.2L499.9 478.2L504.5 478.2L509.1 478.2L513.7 478.2L518.4 478.2L523 478.2L527.6 478.2L532.2 478.2L536.8 478.2L541.5 478.2L546.1 478.2L550.7 478.2L555.3 478.2L559.9 478.2L564.6 478.2L569.2 478.2L573.8 478.2L578.4 478.2L583.1 478.2L587.7 478.2L592.3 478.2L596.9 478.2L601.5 478.2L606.2 478.2L610.8 478.2" fill="none" stroke-width="1"></path></g><g id="line__Burundi"><path stroke-linecap="round" stroke-linejoin="round" stroke="#ddd" d="M476.8 478.7L481.4 478.7L486 478.6L523 478.6L527.6 478.7L532.2 478.3L536.8 477.6L541.5 477.9L546.1 477.6L550.7 478.2L555.3 478.2L559.9 477.3L564.6 476.1L569.2 478.2L573.8 478.5L578.4 478.6L583.1 478.3L587.7 478L592.3 478.2L596.9 477.9L601.5 477.9L606.2 478.1L610.8 478.1" fill="none" stroke-width="1"></path></g><g id="line__Uzbekistan"><path stroke-linecap="round" stroke-linejoin="round" stroke="#ddd" d="M472.2 477.3L476.8 477.3L481.4 477.3L486 477.3L490.6 477.3L495.3 477.5L499.9 477.8L504.5 477.8L509.1 477.8L513.7 477.5L518.4 477.5L523 477.3L527.6 477.3L532.2 477.3L536.8 477.3L541.5 477.3L546.1 477.3L550.7 477.3L555.3 477.3L559.9 477.3L564.6 477.3L569.2 477.3L573.8 477.3L578.4 477.3L583.1 477.3L587.7 477.3L592.3 478.7L596.9 478.7L601.5 478.7L606.2 478.7L610.8 478.7" fill="none" stroke-width="1"></path></g><g id="line__Tajikistan"><path stroke-linecap="round" stroke-linejoin="round" stroke="#ddd" d="M472.2 477.8L476.8 478L481.4 478.2L486 478.4L490.6 478.5" fill="none" stroke-width="1"></path></g><g id="line__Russia"><path stroke-linecap="round" stroke-linejoin="round" stroke="#ddd" d="M472.2 440L476.8 447.8L481.4 462.9L486 457.5L490.6 457.8L495.3 457.8L499.9 464.8L504.5 462.4L509.1 462.4L513.7 462.4L518.4 462.9L523 460.6L527.6 465.7L532.2 465.2L536.8 456.4L541.5 448L546.1 449.4L550.7 452.2L555.3 452.7L559.9 463L564.6 462.7L569.2 464.8L573.8 466.3L578.4 466.6L583.1 464.4L587.7 468.6L592.3 466.3L596.9 465.6L601.5 467.5L606.2 468L610.8 469.4L615.4 469.4" fill="none" stroke-width="1"></path></g><g id="line__Kazakhstan"><path stroke-linecap="round" stroke-linejoin="round" stroke="#ddd" d="M472.2 477.8L476.8 478L481.4 478L486 477.2L490.6 478.3L536.8 478.5L541.5 478.2" fill="none" stroke-width="1"></path></g><g id="line__Mongolia"><path stroke-linecap="round" stroke-linejoin="round" stroke="#ddd" d="M421.3 474.1L425.9 471.7L430.6 471.7L435.2 471.7L439.8 471.7L444.4 471.7L449 474.1L453.7 474.1L458.3 474.1L462.9 476.4L467.5 477.3L472.2 478.7L476.8 478.7L481.4 478.6L486 478.4L490.6 478.6L495.3 478.5L499.9 478.5L504.5 478.6L509.1 478.5L513.7 478.4L518.4 478.5L523 478.6L527.6 478.5L532.2 478.5L536.8 478.1L541.5 477.9L546.1 478.2L550.7 478.6L555.3 478.6L559.9 478.6L564.6 478.5L578.4 473.9L583.1 475.4L587.7 475.6L592.3 476.2L596.9 476.5L601.5 478.5L606.2 478L610.8 477.5" fill="none" stroke-width="1"></path></g><g id="line__Zimbabwe"><path stroke-linecap="round" stroke-linejoin="round" stroke="#ddd" d="M402.8 478.1L407.5 478.1L412.1 478.2L416.7 478.3L421.3 478.4L425.9 478.5L430.6 478.6L435.2 478.4L439.8 478.6L444.4 478.7L564.6 478.7L569.2 478.7L573.8 478.7L578.4 477.8L583.1 472.9L587.7 474.1" fill="none" stroke-width="1"></path></g><g id="line__United-States"><path stroke-linecap="round" stroke-linejoin="round" stroke="#ddd" d="M402.8 466L407.5 464.2L412.1 464.7L416.7 465.9L421.3 461.9L425.9 471.6L430.6 474.1L435.2 473.1L439.8 474.1L444.4 475.1L449 478.5L453.7 477.1L458.3 476.8L462.9 476.8L467.5 477.8L472.2 478.5L476.8 478.5L481.4 478.5L564.6 478.7L601.5 478.7L606.2 478.7L610.8 478.7L615.4 478.7" fill="none" stroke-width="1"></path></g><g id="line__United-Kingdom"><path stroke-linecap="round" stroke-linejoin="round" stroke="#ddd" d="M402.8 478.3L407.5 478.4L412.1 478.4L416.7 478.5L421.3 478.5L449 478.7L453.7 478.6L458.3 478.6L462.9 478.5L467.5 478.7L559.9 478.7L564.6 478.7L569.2 478.7L573.8 478.7L578.4 477.8L583.1 474.4L587.7 472.3L592.3 472.9L596.9 478.7L601.5 478.7L606.2 478.7L610.8 478.7" fill="none" stroke-width="1"></path></g><g id="line__Uganda"><path stroke-linecap="round" stroke-linejoin="round" stroke="#ddd" d="M402.8 478.2L407.5 478.2L412.1 478.6L416.7 478.7L421.3 478.7L425.9 478.7L430.6 478.7L435.2 478.6L439.8 478.6L444.4 478.6L449 478.6L453.7 478.4L458.3 478.6L462.9 478.6L467.5 478.5L472.2 478.6L476.8 478.7L481.4 478.6L486 478.6L490.6 478.7L495.3 478.7L499.9 478.7L504.5 478.7L509.1 478.7L513.7 478.6L518.4 478.5L523 478.7L527.6 478.4L532.2 478.5L536.8 478.4L541.5 478.3L546.1 478.5L550.7 478.7L555.3 478.5L559.9 478.7L564.6 478.6L569.2 478.5L573.8 478.5L578.4 478.6L583.1 478.6L587.7 478.5L592.3 478L596.9 478.2L601.5 478.7L606.2 478.6L610.8 478.6" fill="none" stroke-width="1"></path></g><g id="line__USSR"><path stroke-linecap="round" stroke-linejoin="round" stroke="#ddd" d="M402.8 440.6L407.5 439.2L412.1 438.3L416.7 438.3L421.3 437.6L425.9 436.9L430.6 436.4L435.2 436.4L439.8 435.9L444.4 435.9L449 435.9L453.7 435.9L458.3 435.5L462.9 437.8L467.5 441.5" fill="none" stroke-width="1"></path></g><g id="line__Turkey"><path stroke-linecap="round" stroke-linejoin="round" stroke="#ddd" d="M402.8 478.7L407.5 478.7L412.1 477.7L416.7 477.7L421.3 477.4L425.9 476.8L430.6 477.3L435.2 476.9L439.8 476.6L444.4 476.5L449 476.9L453.7 476.9L458.3 477.1L462.9 477.1L467.5 478.7" fill="none" stroke-width="1"></path></g><g id="line__Thailand"><path stroke-linecap="round" stroke-linejoin="round" stroke="#ddd" d="M402.8 468.5L407.5 463.9L412.1 470.2L416.7 471.2L421.3 473.1L425.9 474.7L430.6 476.1L435.2 475.3L439.8 476L444.4 476.5L449 475.7L453.7 475.9L458.3 476.1L462.9 477.4L467.5 476.7L472.2 478.3L476.8 478.2L481.4 478.2L486 478.5L490.6 478.5L495.3 478.6L499.9 478.6L504.5 478.6L509.1 478.4L513.7 478.3L518.4 478.5L523 476.9L527.6 477.1L532.2 475.8L536.8 476.2L541.5 475.5L546.1 475.4L550.7 477.4L555.3 476.5L559.9 477.9L564.6 478.3L569.2 478L573.8 478.2L578.4 478.5L583.1 478.5L587.7 478.5L592.3 478.3L596.9 478.5L601.5 478.4L606.2 478.4L610.8 478.4" fill="none" stroke-width="1"></path></g><g id="line__Sweden"><path stroke-linecap="round" stroke-linejoin="round" stroke="#ddd" d="M402.8 477.8L407.5 476.9L412.1 476.8L416.7 477L421.3 476.9L425.9 476.7L430.6 476.6L435.2 476.4L439.8 476.8L444.4 477L449 477.1L453.7 477.1L458.3 478.3L462.9 478.3L467.5 478.7" fill="none" stroke-width="1"></path></g><g id="line__Spain"><path stroke-linecap="round" stroke-linejoin="round" stroke="#ddd" d="M402.8 477.3L407.5 477L412.1 476.9L416.7 476.6L421.3 476.7L425.9 476.2L430.6 476.3L435.2 476.1L439.8 476.6L444.4 476.4L449 478.3L453.7 478.3L458.3 478.4L462.9 478.5L467.5 478.5L527.6 478.7L532.2 478.7L536.8 478.7L541.5 478.7L546.1 477.8L550.7 477.4L555.3 477.3L559.9 477.1L564.6 476.9L569.2 476.4L573.8 474.9L578.4 474.8L583.1 475.5L587.7 476.1L592.3 474.7L596.9 476.8L601.5 476.4L606.2 476.8L610.8 475L615.4 471.7" fill="none" stroke-width="1"></path></g><g id="line__South-Korea"><path stroke-linecap="round" stroke-linejoin="round" stroke="#ddd" d="M402.8 466.5L407.5 466.2L412.1 466.1L416.7 466L421.3 466L425.9 467.4L430.6 467.2L435.2 466.1L439.8 466.7L444.4 467.3L449 467.7L453.7 469.3L458.3 470.8L462.9 472.4L467.5 475.1L472.2 477.6" fill="none" stroke-width="1"></path></g><g id="line__Rwanda"><path stroke-linecap="round" stroke-linejoin="round" stroke="#ddd" d="M402.8 476.9L407.5 477.1L412.1 477.1L416.7 477.2L421.3 477.5L425.9 477.4L430.6 477.8L435.2 476.5L439.8 477.3L444.4 478.6L449 478.3L453.7 478.5L458.3 478.2L462.9 478L467.5 477.6L472.2 477.6L476.8 477.9L481.4 478.7L486 478.5L490.6 478.2L495.3 478.3L499.9 478.6L504.5 478.4L509.1 478L513.7 478L518.4 478L523 478.3L527.6 478.1L532.2 476.6L536.8 471.5L541.5 472.1L546.1 473.9L550.7 476.2L555.3 475.8L559.9 475.9L564.6 473.8L569.2 473.1L573.8 472.3L578.4 472.8L583.1 474.1L587.7 474.4L592.3 473.9L596.9 472.6L601.5 474.7L606.2 472.5L610.8 472.2L615.4 472.2" fill="none" stroke-width="1"></path></g><g id="line__Portugal"><path stroke-linecap="round" stroke-linejoin="round" stroke="#ddd" d="M402.8 474L407.5 473.6L412.1 472.3L416.7 471.4L421.3 472.2L425.9 472.4L430.6 473.2L435.2 471.7L439.8 470.5L444.4 471L449 473.1L453.7 472.3L458.3 472.3L462.9 472.2L467.5 474.2L472.2 473.5L476.8 475.1L481.4 478.4L486 474.6L490.6 475.1L495.3 473.9L499.9 474.9L504.5 476.7L509.1 475.2L513.7 475.4L518.4 475.5L523 475.4L527.6 475.2L532.2 474.9L536.8 475.1L541.5 474.8L546.1 474.1L550.7 474.9L555.3 475L559.9 474.9L564.6 475.2L569.2 475.5L573.8 475.6L578.4 476.5L583.1 476.1L587.7 475.6L592.3 475.4L596.9 476.3L601.5 476.1L606.2 476.4L610.8 476.4L615.4 476.4" fill="none" stroke-width="1"></path></g><g id="line__Peru"><path stroke-linecap="round" stroke-linejoin="round" stroke="#ddd" d="M402.8 476.3L407.5 476L412.1 476.1L416.7 476L421.3 476.3L425.9 475.5L430.6 475.2L435.2 475.5L439.8 475.1L444.4 475.3L449 477.5L453.7 475.7L458.3 474.2L462.9 473.5L467.5 474.1L472.2 476.7L476.8 477.3L481.4 477.7L486 476L490.6 477.5L495.3 477.6L499.9 478.4L527.6 478.7L532.2 478.7L536.8 478.5L541.5 477L546.1 476.6L550.7 475.8L555.3 475.4L559.9 476.2L564.6 477L569.2 478.5L573.8 478.3L578.4 478.1" fill="none" stroke-width="1"></path></g><g id="line__North-Korea"><path stroke-linecap="round" stroke-linejoin="round" stroke="#ddd" d="M402.8 468.7L407.5 468.7L412.1 468.7L416.7 468.5L421.3 468.5L425.9 468.5L430.6 474.1L435.2 474.1L439.8 474.1L444.4 474.1L449 476.4L453.7 476.4L458.3 476.4L462.9 474.1L467.5 474.1L472.2 474.1L476.8 474.1L481.4 474.5L486 474.5L490.6 474.5L495.3 474.5L499.9 475L504.5 476.4L509.1 476.4L513.7 476.4L518.4 475.9L523 475.9L527.6 477.4L532.2 475.7L536.8 474.5L541.5 477.6L546.1 477.4L550.7 477.8L555.3 478.2L559.9 478.2L564.6 478.2L569.2 478.4L573.8 478.4L578.4 478.4L583.1 478.5L587.7 477.3L592.3 472.3L596.9 473.6L601.5 476.8L606.2 476.8L610.8 471.6L615.4 470.8" fill="none" stroke-width="1"></path></g><g id="line__New-Zealand"><path stroke-linecap="round" stroke-linejoin="round" stroke="#ddd" d="M402.8 478.7L407.5 478.7L412.1 478.7L416.7 478.7L421.3 478.7L425.9 478.7L430.6 478.7L435.2 478.7L439.8 478.7L444.4 478.7" fill="none" stroke-width="1"></path></g><g id="line__Namibia"><path stroke-linecap="round" stroke-linejoin="round" stroke="#ddd" d="M402.8 478.2L407.5 478.3L412.1 478.5L416.7 478.5" fill="none" stroke-width="1"></path></g><g id="line__Myanmar"><path stroke-linecap="round" stroke-linejoin="round" stroke="#ddd" d="M402.8 477.4L407.5 476.4L412.1 475.4L416.7 474.8L421.3 474.8L425.9 474.7L430.6 474.3L435.2 473.5L439.8 474.3L444.4 475.4L449 476.4L453.7 477.3L458.3 477.6L462.9 477.1L467.5 477.4L472.2 476.2L476.8 476.3L481.4 476.2L486 476.2L490.6 477.1L495.3 477.4L499.9 477.9L504.5 478.3L509.1 478.4L513.7 478.5L518.4 478.3L523 478.3L527.6 478.2L532.2 477.9L536.8 477.8L541.5 477.8L546.1 478.1L550.7 478.3L555.3 477.9L559.9 478L564.6 478.1L569.2 478L573.8 478L578.4 477.9L583.1 477.9L587.7 477.4L592.3 477.3L596.9 477.7L601.5 478.2L606.2 478.4L610.8 478.4" fill="none" stroke-width="1"></path></g><g id="line__Mexico"><path stroke-linecap="round" stroke-linejoin="round" stroke="#ddd" d="M402.8 477.8L407.5 477.6L412.1 477.5L416.7 477.5L421.3 477.5L425.9 477.8L430.6 477.8L435.2 477.4L439.8 477.4L444.4 477.3L449 477.7L453.7 477.7L458.3 477.9L462.9 477.8L467.5 477.8L472.2 477.9L476.8 478.7L481.4 478.7L486 477.4L490.6 477.8L495.3 477.9L499.9 478.1L573.8 478.7L578.4 478.7L583.1 478.7L587.7 478.7L592.3 478.5L596.9 478.6L601.5 478.6L606.2 478.5L610.8 478.5" fill="none" stroke-width="1"></path></g><g id="line__Malaysia"><path stroke-linecap="round" stroke-linejoin="round" stroke="#ddd" d="M402.8 478.3L407.5 478.4L412.1 478.5L416.7 478.5L421.3 478.5L425.9 478.5L430.6 478.5L435.2 478.6L439.8 478.6L444.4 478.7L509.1 478.7L513.7 477.5L606.2 478.7L610.8 478.6" fill="none" stroke-width="1"></path></g><g id="line__Japan"><path stroke-linecap="round" stroke-linejoin="round" stroke="#ddd" d="M402.8 475.1L407.5 475.2L412.1 473.9L416.7 475.4L421.3 476.2L425.9 474.7L430.6 474.9L435.2 475L439.8 476.5L444.4 476.5L449 477.7L453.7 477.6L458.3 477.5L462.9 477.7L467.5 477.6L472.2 477.3L476.8 478.4" fill="none" stroke-width="1"></path></g><g id="line__India"><path stroke-linecap="round" stroke-linejoin="round" stroke="#ddd" d="M402.8 478.6L407.5 478.6L412.1 478.6L416.7 478.6L421.3 478.6L425.9 478.6L430.6 478.6L435.2 478.6L439.8 478.6L444.4 478.6L449 478.6L453.7 478.6L458.3 478.6L462.9 478.7L467.5 478.6" fill="none" stroke-width="1"></path></g><g id="line__France"><path stroke-linecap="round" stroke-linejoin="round" stroke="#ddd" d="M402.8 475.7L407.5 475.9L412.1 476.4L416.7 476L421.3 476L425.9 475.3L430.6 475L435.2 475.2L439.8 475.3L444.4 474.1" fill="none" stroke-width="1"></path></g><g id="line__Democratic-Republic-of-Congo"><path stroke-linecap="round" stroke-linejoin="round" stroke="#ddd" d="M402.8 477.9L407.5 478L412.1 477.7L416.7 478.4L421.3 478.5L425.9 478.5L430.6 478.5L435.2 478.6L439.8 478.6L444.4 478.6L449 478.6L453.7 478.6L458.3 478.6L462.9 478.6L467.5 478.6L472.2 478.6L476.8 478.6L481.4 478.6L523 478.1L527.6 478.6L532.2 477.1L536.8 476.4L541.5 475.8L546.1 477L550.7 477.8L555.3 478.5L559.9 478.6L564.6 478.5L569.2 478.4L573.8 478.7L578.4 478.4L583.1 478.3L587.7 478L592.3 477.6L596.9 477.6L601.5 478.1L606.2 478.1L610.8 478" fill="none" stroke-width="1"></path></g><g id="line__Czechoslovakia"><path stroke-linecap="round" stroke-linejoin="round" stroke="#ddd" d="M402.8 478.3L407.5 478.3L412.1 478.3L416.7 478.3L421.3 478.5L425.9 478.5L430.6 478.5L435.2 478.5L439.8 478.5L444.4 478.5L449 478.5L453.7 478.5L458.3 478.5L462.9 478.6L467.5 478.6L472.2 478.6" fill="none" stroke-width="1"></path></g><g id="line__China"><path stroke-linecap="round" stroke-linejoin="round" stroke="#ddd" d="M402.8 436.9L407.5 422.9L412.1 418.3L416.7 409L421.3 416L425.9 418.3L430.6 418.3L435.2 413.6L439.8 399.7L444.4 390.4L449 385.8L453.7 362.5L458.3 337.6L462.9 328.3L467.5 330.2L472.2 360.6L476.8 372.3L481.4 353.2L486 351L490.6 354.8L495.3 362.4L499.9 367.9L504.5 384.8L509.1 369.7L513.7 351L518.4 311.7L523 310.5L527.6 200.1L532.2 240.8L536.8 269.6L541.5 288.2L546.1 246.3L550.7 249L555.3 240.4L559.9 191.5L564.6 190.6L569.2 177.1L573.8 174.9L578.4 169.4L583.1 181.5L587.7 165.1L592.3 176.9L596.9 128L601.5 172L606.2 148.7L610.8 172L615.4 185.9" fill="none" stroke-width="1"></path></g><g id="line__Canada"><path stroke-linecap="round" stroke-linejoin="round" stroke="#ddd" d="M402.8 470.3L407.5 468.1L412.1 466.7L416.7 463.9L421.3 469.4L425.9 467.5L430.6 473L435.2 463.2L439.8 463.8L444.4 469.6L499.9 478.7L504.5 478.7L509.1 478.7L513.7 478.7L518.4 468L523 461.7L527.6 478.7L532.2 476.5L536.8 466.8L541.5 466.2L546.1 465.7L550.7 467.1L555.3 477L559.9 467.7L564.6 467.1L569.2 465.9L573.8 466.2L578.4 468.9" fill="none" stroke-width="1"></path></g><g id="line__Brazil"><path stroke-linecap="round" stroke-linejoin="round" stroke="#ddd" d="M402.8 473.1L407.5 473.3L412.1 473.2L416.7 473.6L421.3 471.4L425.9 471.6L430.6 473.9L435.2 473.9L439.8 473.6L444.4 474.6L449 475L453.7 475.3L458.3 475.5L462.9 477.2L467.5 477.7L472.2 477.7L476.8 477.6L481.4 477.8L486 478.2L490.6 478.2L495.3 478.5L499.9 478.7L504.5 478.6L509.1 478.6L513.7 478.6L518.4 478.6L523 478.6L527.6 477.3L532.2 476.1L536.8 476.2L541.5 476.2L546.1 476.8L550.7 477.8L555.3 477.9L559.9 477.6L564.6 476.9L569.2 476.4L573.8 475.6L578.4 476.7L583.1 477.2L587.7 476.8L592.3 477.1L596.9 477.3L601.5 477.5L606.2 477.3L610.8 477.3" fill="none" stroke-width="1"></path></g><g id="line__Bolivia"><path stroke-linecap="round" stroke-linejoin="round" stroke="#ddd" d="M402.8 467.9L407.5 467L412.1 467.2L416.7 466.3L421.3 466L425.9 466.9L430.6 467.3L435.2 469.9L439.8 471.1L444.4 473.6L449 475.7L453.7 474.4L458.3 473.5L462.9 474L467.5 473.8L472.2 474.7L476.8 477.4L481.4 476.6L486 475.7L490.6 476L495.3 476.3L499.9 476.4L504.5 477.1L509.1 476.9L513.7 476.2L518.4 477L523 476.7L527.6 476.8L532.2 476.2L536.8 474.7L541.5 473.6L546.1 473.4L550.7 473.9L555.3 473.1L559.9 474.7L564.6 474.3L569.2 474.3L573.8 474.3L578.4 473.5L583.1 474.8L587.7 475.1L592.3 473.9L596.9 474.9L601.5 472.4L606.2 471.4L610.8 472.4L615.4 471.7" fill="none" stroke-width="1"></path></g><g id="line__Austria"><path stroke-linecap="round" stroke-linejoin="round" stroke="#ddd" d="M402.8 472.2L407.5 471.5L412.1 470.9L416.7 468.7L421.3 472.6L425.9 470.8L430.6 472.2L435.2 469.8L439.8 469.6L444.4 471.9L449 474.2L453.7 474.3L458.3 473.2L462.9 473.9L467.5 474.1L472.2 473.4L476.8 476.3L481.4 478.7L486 476.1L490.6 473.7L495.3 473.4L499.9 473.7L504.5 473L509.1 472.1L513.7 472.1L518.4 472.3L523 472.3L527.6 472.5L532.2 472.8L536.8 473.3L541.5 473.5L546.1 473.5L550.7 474.6L555.3 474.2L559.9 474.7L564.6 475.4L569.2 474.7L573.8 474.8L578.4 474.7L583.1 474.3L587.7 474.2L592.3 474.4L596.9 474.6L601.5 474.6L606.2 474.5L610.8 474.5L615.4 474.5" fill="none" stroke-width="1"></path></g><g id="line__Australia"><path stroke-linecap="round" stroke-linejoin="round" stroke="#ddd" d="M402.8 467.7L407.5 466.1L412.1 463.9L416.7 462.1L421.3 462.4L425.9 466.5L430.6 469.3L435.2 470.6L439.8 469.5L444.4 471.3L449 473.4L453.7 472.7L458.3 472.3L462.9 473.7L467.5 477.6L472.2 478L476.8 478.2L481.4 478.6L486 478.6L490.6 478.4L518.4 478.7L523 478.7L532.2 478.5L536.8 478.6L541.5 478.6L546.1 478.6L550.7 478.6L555.3 478.6L559.9 478.6L564.6 478.5L569.2 477.3L573.8 476.9L578.4 477.3L583.1 477.7L587.7 478.7L592.3 478.7L596.9 478.7L601.5 478.7L606.2 478.7L610.8 477.8L615.4 475" fill="none" stroke-width="1"></path></g><g id="line__Argentina"><path stroke-linecap="round" stroke-linejoin="round" stroke="#ddd" d="M402.8 478.4L407.5 478.2L412.1 478.4L416.7 478.5L421.3 478.6L425.9 478.6L430.6 478.5L435.2 478.5L439.8 478.6L444.4 478.6" fill="none" stroke-width="1"></path></g><g id="line__World"><path stroke-linecap="round" stroke-linejoin="round" stroke="#ddd" d="M70.1 470.8L74.8 469.9L79.4 466.6L84 470.3L88.6 467.1L93.2 463.4L97.9 463.8L102.5 459.2L107.1 460.6L111.7 462.4L116.3 454.5L121 432.2L125.6 421.5L130.2 408.1L134.8 446.2L139.5 453.1L144.1 468L148.7 464.8L153.3 463.4L157.9 465.2L162.6 455.9L167.2 451.7L171.8 458.3L176.4 453.1L181 443.8L185.7 442L190.3 449L194.9 463.8L199.5 451.3L204.1 442.5L208.8 429L213.4 423.9L218 392.7L222.6 396L227.2 385.3L231.9 382.5L236.5 367.6L241.1 366.7L245.7 345.8L250.4 370L255 428L259.6 436.7L264.2 415L268.8 396L273.5 405.3L278.1 393.7L282.7 363.4L287.3 326.7L291.9 318.8L296.6 321.6L301.2 312.8L305.8 312.3L310.4 343.5L315 366.2L319.7 356L324.3 333.7L328.9 325.3L333.5 333.2L338.1 352.8L342.8 348.1L347.4 353.2L352 345.8L356.6 346.2L361.3 334.6L365.9 327.7L370.5 328.1L375.1 314.2L379.7 299.8L384.4 302.6L389 304L393.6 300.7L398.2 302.1L402.8 287.7L407.5 264.5L412.1 252.8L416.7 237L421.3 244.9L425.9 260.3L430.6 288.6L435.2 264L439.8 262.1L444.4 276.5L449 281.2L453.7 242.1L458.3 241.7L462.9 237.5L467.5 254.7L472.2 279.3L476.8 319.3L481.4 320.7L486 299.8L490.6 317.4L495.3 324.4L499.9 306.7L504.5 303.5L509.1 274.2L513.7 242.6L518.4 260.3L523 259.3L527.6 170.6L532.2 202.2L536.8 215.7L541.5 229.6L546.1 191L550.7 194.3L555.3 160.8L559.9 135.3L564.6 117.6L569.2 109.7L573.8 97.2L578.4 89.7L583.1 114.3L587.7 100.4L592.3 96.7L596.9 89.3L601.5 114.3L606.2 89.3L610.8 107.8L615.4 116.2" fill="none" stroke-width="1"></path></g><g id="line__Nigeria"><path id="outline" fill="none" stroke-linecap="butt" stroke-linejoin="round" stroke="#fff" stroke-width="2.5" d="M578.4 478.6L583.1 478.7L587.7 478.6L592.3 478.4L596.9 478.6L601.5 478.6L606.2 478.6L610.8 478.6"></path><g id="polyline"><polyline id="polyline" points="578.40,478.60 583.10,478.70 587.70,478.60 592.30,478.40 596.90,478.60 601.50,478.60 606.20,478.60 610.80,478.60" stroke-linejoin="round" stroke-width="1.5" stroke="#BE5915" fill="none" stroke-linecap="butt"></polyline></g></g><g id="line__Colombia"><path id="outline" fill="none" stroke-linecap="butt" stroke-linejoin="round" stroke="#fff" stroke-width="2.5" d="M564.6 478.7L569.2 478.7L573.8 478.7L578.4 478.7L583.1 478.7"></path><g id="polyline"><polyline id="polyline" points="564.60,478.70 569.20,478.70 573.80,478.70 578.40,478.70 583.10,478.70" stroke-linejoin="round" stroke-width="1.5" stroke="#00847E" fill="none" stroke-linecap="butt"></polyline></g></g><g id="line__Vietnam"><path id="outline" fill="none" stroke-linecap="butt" stroke-linejoin="round" stroke="#fff" stroke-width="2.5" d="M476.8 478.7L481.4 478.6L486 478.5L490.6 478.1L495.3 477.7L499.9 478.7L555.3 478.7L559.9 478.7L564.6 478.7L569.2 478.7L573.8 463.5L578.4 459.8L583.1 455.3L587.7 454.6L592.3 458.5L596.9 456.3L601.5 457.8L606.2 456.4L610.8 460.1L615.4 462.4"></path><g id="polyline"><polyline id="polyline" points="476.80,478.70 481.40,478.60 486.00,478.50 490.60,478.10 495.30,477.70 499.90,478.70 555.30,478.70 559.90,478.70 564.60,478.70 569.20,478.70 573.80,463.50 578.40,459.80 583.10,455.30 587.70,454.60 592.30,458.50 596.90,456.30 601.50,457.80 606.20,456.40 610.80,460.10 615.40,462.40" stroke-linejoin="round" stroke-width="1.5" stroke="#CF0A66" fill="none" stroke-linecap="butt"></polyline></g></g><g id="line__Kyrgyzstan"><path id="outline" fill="none" stroke-linecap="butt" stroke-linejoin="round" stroke="#fff" stroke-width="2.5" d="M476.8 478.2L481.4 478.2L486 478.2L490.6 478.2L495.3 478.2L499.9 478.2L504.5 478.2L509.1 478.2L513.7 478.2L518.4 478.2L523 478.2L527.6 478.2L532.2 478.2L536.8 478.2L541.5 478.2L546.1 478.2L550.7 478.2L555.3 478.2L559.9 478.2L564.6 478.2L569.2 478.2L573.8 478.2L578.4 478.2L583.1 478.2L587.7 478.2L592.3 478.2L596.9 478.2L601.5 478.2L606.2 478.2L610.8 478.2"></path><g id="polyline"><polyline id="polyline" points="476.80,478.20 481.40,478.20 486.00,478.20 490.60,478.20 495.30,478.20 499.90,478.20 504.50,478.20 509.10,478.20 513.70,478.20 518.40,478.20 523.00,478.20 527.60,478.20 532.20,478.20 536.80,478.20 541.50,478.20 546.10,478.20 550.70,478.20 555.30,478.20 559.90,478.20 564.60,478.20 569.20,478.20 573.80,478.20 578.40,478.20 583.10,478.20 587.70,478.20 592.30,478.20 596.90,478.20 601.50,478.20 606.20,478.20 610.80,478.20" stroke-linejoin="round" stroke-width="1.5" stroke="#8C4569" fill="none" stroke-linecap="butt"></polyline></g></g><g id="line__Burundi"><path id="outline" fill="none" stroke-linecap="butt" stroke-linejoin="round" stroke="#fff" stroke-width="2.5" d="M476.8 478.7L481.4 478.7L486 478.6L523 478.6L527.6 478.7L532.2 478.3L536.8 477.6L541.5 477.9L546.1 477.6L550.7 478.2L555.3 478.2L559.9 477.3L564.6 476.1L569.2 478.2L573.8 478.5L578.4 478.6L583.1 478.3L587.7 478L592.3 478.2L596.9 477.9L601.5 477.9L606.2 478.1L610.8 478.1"></path><g id="polyline"><polyline id="polyline" points="476.80,478.70 481.40,478.70 486.00,478.60 523.00,478.60 527.60,478.70 532.20,478.30 536.80,477.60 541.50,477.90 546.10,477.60 550.70,478.20 555.30,478.20 559.90,477.30 564.60,476.10 569.20,478.20 573.80,478.50 578.40,478.60 583.10,478.30 587.70,478.00 592.30,478.20 596.90,477.90 601.50,477.90 606.20,478.10 610.80,478.10" stroke-linejoin="round" stroke-width="1.5" stroke="#D73C50" fill="none" stroke-linecap="butt"></polyline></g></g><g id="line__Uzbekistan"><path id="outline" fill="none" stroke-linecap="butt" stroke-linejoin="round" stroke="#fff" stroke-width="2.5" d="M472.2 477.3L476.8 477.3L481.4 477.3L486 477.3L490.6 477.3L495.3 477.5L499.9 477.8L504.5 477.8L509.1 477.8L513.7 477.5L518.4 477.5L523 477.3L527.6 477.3L532.2 477.3L536.8 477.3L541.5 477.3L546.1 477.3L550.7 477.3L555.3 477.3L559.9 477.3L564.6 477.3L569.2 477.3L573.8 477.3L578.4 477.3L583.1 477.3L587.7 477.3L592.3 478.7L596.9 478.7L601.5 478.7L606.2 478.7L610.8 478.7"></path><g id="polyline"><polyline id="polyline" points="472.20,477.30 476.80,477.30 481.40,477.30 486.00,477.30 490.60,477.30 495.30,477.50 499.90,477.80 504.50,477.80 509.10,477.80 513.70,477.50 518.40,477.50 523.00,477.30 527.60,477.30 532.20,477.30 536.80,477.30 541.50,477.30 546.10,477.30 550.70,477.30 555.30,477.30 559.90,477.30 564.60,477.30 569.20,477.30 573.80,477.30 578.40,477.30 583.10,477.30 587.70,477.30 592.30,478.70 596.90,478.70 601.50,478.70 606.20,478.70 610.80,478.70" stroke-linejoin="round" stroke-width="1.5" stroke="#18470F" fill="none" stroke-linecap="butt"></polyline></g></g><g id="line__Tajikistan"><path id="outline" fill="none" stroke-linecap="butt" stroke-linejoin="round" stroke="#fff" stroke-width="2.5" d="M472.2 477.8L476.8 478L481.4 478.2L486 478.4L490.6 478.5"></path><g id="polyline"><polyline id="polyline" points="472.20,477.80 476.80,478.00 481.40,478.20 486.00,478.40 490.60,478.50" stroke-linejoin="round" stroke-width="1.5" stroke="#C4523E" fill="none" stroke-linecap="butt"></polyline></g></g><g id="line__Russia"><path id="outline" fill="none" stroke-linecap="butt" stroke-linejoin="round" stroke="#fff" stroke-width="2.5" d="M472.2 440L476.8 447.8L481.4 462.9L486 457.5L490.6 457.8L495.3 457.8L499.9 464.8L504.5 462.4L509.1 462.4L513.7 462.4L518.4 462.9L523 460.6L527.6 465.7L532.2 465.2L536.8 456.4L541.5 448L546.1 449.4L550.7 452.2L555.3 452.7L559.9 463L564.6 462.7L569.2 464.8L573.8 466.3L578.4 466.6L583.1 464.4L587.7 468.6L592.3 466.3L596.9 465.6L601.5 467.5L606.2 468L610.8 469.4L615.4 469.4"></path><g id="polyline"><polyline id="polyline" points="472.20,440.00 476.80,447.80 481.40,462.90 486.00,457.50 490.60,457.80 495.30,457.80 499.90,464.80 504.50,462.40 509.10,462.40 513.70,462.40 518.40,462.90 523.00,460.60 527.60,465.70 532.20,465.20 536.80,456.40 541.50,448.00 546.10,449.40 550.70,452.20 555.30,452.70 559.90,463.00 564.60,462.70 569.20,464.80 573.80,466.30 578.40,466.60 583.10,464.40 587.70,468.60 592.30,466.30 596.90,465.60 601.50,467.50 606.20,468.00 610.80,469.40 615.40,469.40" stroke-linejoin="round" stroke-width="1.5" stroke="#8C4569" fill="none" stroke-linecap="butt"></polyline></g></g><g id="line__Kazakhstan"><path id="outline" fill="none" stroke-linecap="butt" stroke-linejoin="round" stroke="#fff" stroke-width="2.5" d="M472.2 477.8L476.8 478L481.4 478L486 477.2L490.6 478.3L536.8 478.5L541.5 478.2"></path><g id="polyline"><polyline id="polyline" points="472.20,477.80 476.80,478.00 481.40,478.00 486.00,477.20 490.60,478.30 536.80,478.50 541.50,478.20" stroke-linejoin="round" stroke-width="1.5" stroke="#D73C50" fill="none" stroke-linecap="butt"></polyline></g></g><g id="line__Mongolia"><path id="outline" fill="none" stroke-linecap="butt" stroke-linejoin="round" stroke="#fff" stroke-width="2.5" d="M421.3 474.1L425.9 471.7L430.6 471.7L435.2 471.7L439.8 471.7L444.4 471.7L449 474.1L453.7 474.1L458.3 474.1L462.9 476.4L467.5 477.3L472.2 478.7L476.8 478.7L481.4 478.6L486 478.4L490.6 478.6L495.3 478.5L499.9 478.5L504.5 478.6L509.1 478.5L513.7 478.4L518.4 478.5L523 478.6L527.6 478.5L532.2 478.5L536.8 478.1L541.5 477.9L546.1 478.2L550.7 478.6L555.3 478.6L559.9 478.6L564.6 478.5L578.4 473.9L583.1 475.4L587.7 475.6L592.3 476.2L596.9 476.5L601.5 478.5L606.2 478L610.8 477.5"></path><g id="polyline"><polyline id="polyline" points="421.30,474.10 425.90,471.70 430.60,471.70 435.20,471.70 439.80,471.70 444.40,471.70 449.00,474.10 453.70,474.10 458.30,474.10 462.90,476.40 467.50,477.30 472.20,478.70 476.80,478.70 481.40,478.60 486.00,478.40 490.60,478.60 495.30,478.50 499.90,478.50 504.50,478.60 509.10,478.50 513.70,478.40 518.40,478.50 523.00,478.60 527.60,478.50 532.20,478.50 536.80,478.10 541.50,477.90 546.10,478.20 550.70,478.60 555.30,478.60 559.90,478.60 564.60,478.50 578.40,473.90 583.10,475.40 587.70,475.60 592.30,476.20 596.90,476.50 601.50,478.50 606.20,478.00 610.80,477.50" stroke-linejoin="round" stroke-width="1.5" stroke="#00847E" fill="none" stroke-linecap="butt"></polyline></g></g><g id="line__Zimbabwe"><path id="outline" fill="none" stroke-linecap="butt" stroke-linejoin="round" stroke="#fff" stroke-width="2.5" d="M402.8 478.1L407.5 478.1L412.1 478.2L416.7 478.3L421.3 478.4L425.9 478.5L430.6 478.6L435.2 478.4L439.8 478.6L444.4 478.7L564.6 478.7L569.2 478.7L573.8 478.7L578.4 477.8L583.1 472.9L587.7 474.1"></path><g id="polyline"><polyline id="polyline" points="402.80,478.10 407.50,478.10 412.10,478.20 416.70,478.30 421.30,478.40 425.90,478.50 430.60,478.60 435.20,478.40 439.80,478.60 444.40,478.70 564.60,478.70 569.20,478.70 573.80,478.70 578.40,477.80 583.10,472.90 587.70,474.10" stroke-linejoin="round" stroke-width="1.5" stroke="#C15065" fill="none" stroke-linecap="butt"></polyline></g></g><g id="line__United-States"><path id="outline" fill="none" stroke-linecap="butt" stroke-linejoin="round" stroke="#fff" stroke-width="2.5" d="M402.8 466L407.5 464.2L412.1 464.7L416.7 465.9L421.3 461.9L425.9 471.6L430.6 474.1L435.2 473.1L439.8 474.1L444.4 475.1L449 478.5L453.7 477.1L458.3 476.8L462.9 476.8L467.5 477.8L472.2 478.5L476.8 478.5L481.4 478.5L564.6 478.7L601.5 478.7L606.2 478.7L610.8 478.7L615.4 478.7"></path><g id="polyline"><polyline id="polyline" points="402.80,466.00 407.50,464.20 412.10,464.70 416.70,465.90 421.30,461.90 425.90,471.60 430.60,474.10 435.20,473.10 439.80,474.10 444.40,475.10 449.00,478.50 453.70,477.10 458.30,476.80 462.90,476.80 467.50,477.80 472.20,478.50 476.80,478.50 481.40,478.50 564.60,478.70 601.50,478.70 606.20,478.70 610.80,478.70 615.40,478.70" stroke-linejoin="round" stroke-width="1.5" stroke="#6D3E91" fill="none" stroke-linecap="butt"></polyline></g></g><g id="line__United-Kingdom"><path id="outline" fill="none" stroke-linecap="butt" stroke-linejoin="round" stroke="#fff" stroke-width="2.5" d="M402.8 478.3L407.5 478.4L412.1 478.4L416.7 478.5L421.3 478.5L449 478.7L453.7 478.6L458.3 478.6L462.9 478.5L467.5 478.7L559.9 478.7L564.6 478.7L569.2 478.7L573.8 478.7L578.4 477.8L583.1 474.4L587.7 472.3L592.3 472.9L596.9 478.7L601.5 478.7L606.2 478.7L610.8 478.7"></path><g id="polyline"><polyline id="polyline" points="402.80,478.30 407.50,478.40 412.10,478.40 416.70,478.50 421.30,478.50 449.00,478.70 453.70,478.60 458.30,478.60 462.90,478.50 467.50,478.70 559.90,478.70 564.60,478.70 569.20,478.70 573.80,478.70 578.40,477.80 583.10,474.40 587.70,472.30 592.30,472.90 596.90,478.70 601.50,478.70 606.20,478.70 610.80,478.70" stroke-linejoin="round" stroke-width="1.5" stroke="#286BBB" fill="none" stroke-linecap="butt"></polyline></g></g><g id="line__Uganda"><path id="outline" fill="none" stroke-linecap="butt" stroke-linejoin="round" stroke="#fff" stroke-width="2.5" d="M402.8 478.2L407.5 478.2L412.1 478.6L416.7 478.7L421.3 478.7L425.9 478.7L430.6 478.7L435.2 478.6L439.8 478.6L444.4 478.6L449 478.6L453.7 478.4L458.3 478.6L462.9 478.6L467.5 478.5L472.2 478.6L476.8 478.7L481.4 478.6L486 478.6L490.6 478.7L495.3 478.7L499.9 478.7L504.5 478.7L509.1 478.7L513.7 478.6L518.4 478.5L523 478.7L527.6 478.4L532.2 478.5L536.8 478.4L541.5 478.3L546.1 478.5L550.7 478.7L555.3 478.5L559.9 478.7L564.6 478.6L569.2 478.5L573.8 478.5L578.4 478.6L583.1 478.6L587.7 478.5L592.3 478L596.9 478.2L601.5 478.7L606.2 478.6L610.8 478.6"></path><g id="polyline"><polyline id="polyline" points="402.80,478.20 407.50,478.20 412.10,478.60 416.70,478.70 421.30,478.70 425.90,478.70 430.60,478.70 435.20,478.60 439.80,478.60 444.40,478.60 449.00,478.60 453.70,478.40 458.30,478.60 462.90,478.60 467.50,478.50 472.20,478.60 476.80,478.70 481.40,478.60 486.00,478.60 490.60,478.70 495.30,478.70 499.90,478.70 504.50,478.70 509.10,478.70 513.70,478.60 518.40,478.50 523.00,478.70 527.60,478.40 532.20,478.50 536.80,478.40 541.50,478.30 546.10,478.50 550.70,478.70 555.30,478.50 559.90,478.70 564.60,478.60 569.20,478.50 573.80,478.50 578.40,478.60 583.10,478.60 587.70,478.50 592.30,478.00 596.90,478.20 601.50,478.70 606.20,478.60 610.80,478.60" stroke-linejoin="round" stroke-width="1.5" stroke="#883039" fill="none" stroke-linecap="butt"></polyline></g></g><g id="line__USSR"><path id="outline" fill="none" stroke-linecap="butt" stroke-linejoin="round" stroke="#fff" stroke-width="2.5" d="M402.8 440.6L407.5 439.2L412.1 438.3L416.7 438.3L421.3 437.6L425.9 436.9L430.6 436.4L435.2 436.4L439.8 435.9L444.4 435.9L449 435.9L453.7 435.9L458.3 435.5L462.9 437.8L467.5 441.5"></path><g id="polyline"><polyline id="polyline" points="402.80,440.60 407.50,439.20 412.10,438.30 416.70,438.30 421.30,437.60 425.90,436.90 430.60,436.40 435.20,436.40 439.80,435.90 444.40,435.90 449.00,435.90 453.70,435.90 458.30,435.50 462.90,437.80 467.50,441.50" stroke-linejoin="round" stroke-width="1.5" stroke="#996D39" fill="none" stroke-linecap="butt"></polyline></g></g><g id="line__Turkey"><path id="outline" fill="none" stroke-linecap="butt" stroke-linejoin="round" stroke="#fff" stroke-width="2.5" d="M402.8 478.7L407.5 478.7L412.1 477.7L416.7 477.7L421.3 477.4L425.9 476.8L430.6 477.3L435.2 476.9L439.8 476.6L444.4 476.5L449 476.9L453.7 476.9L458.3 477.1L462.9 477.1L467.5 478.7"></path><g id="polyline"><polyline id="polyline" points="402.80,478.70 407.50,478.70 412.10,477.70 416.70,477.70 421.30,477.40 425.90,476.80 430.60,477.30 435.20,476.90 439.80,476.60 444.40,476.50 449.00,476.90 453.70,476.90 458.30,477.10 462.90,477.10 467.50,478.70" stroke-linejoin="round" stroke-width="1.5" stroke="#00295B" fill="none" stroke-linecap="butt"></polyline></g></g><g id="line__Thailand"><path id="outline" fill="none" stroke-linecap="butt" stroke-linejoin="round" stroke="#fff" stroke-width="2.5" d="M402.8 468.5L407.5 463.9L412.1 470.2L416.7 471.2L421.3 473.1L425.9 474.7L430.6 476.1L435.2 475.3L439.8 476L444.4 476.5L449 475.7L453.7 475.9L458.3 476.1L462.9 477.4L467.5 476.7L472.2 478.3L476.8 478.2L481.4 478.2L486 478.5L490.6 478.5L495.3 478.6L499.9 478.6L504.5 478.6L509.1 478.4L513.7 478.3L518.4 478.5L523 476.9L527.6 477.1L532.2 475.8L536.8 476.2L541.5 475.5L546.1 475.4L550.7 477.4L555.3 476.5L559.9 477.9L564.6 478.3L569.2 478L573.8 478.2L578.4 478.5L583.1 478.5L587.7 478.5L592.3 478.3L596.9 478.5L601.5 478.4L606.2 478.4L610.8 478.4"></path><g id="polyline"><polyline id="polyline" points="402.80,468.50 407.50,463.90 412.10,470.20 416.70,471.20 421.30,473.10 425.90,474.70 430.60,476.10 435.20,475.30 439.80,476.00 444.40,476.50 449.00,475.70 453.70,475.90 458.30,476.10 462.90,477.40 467.50,476.70 472.20,478.30 476.80,478.20 481.40,478.20 486.00,478.50 490.60,478.50 495.30,478.60 499.90,478.60 504.50,478.60 509.10,478.40 513.70,478.30 518.40,478.50 523.00,476.90 527.60,477.10 532.20,475.80 536.80,476.20 541.50,475.50 546.10,475.40 550.70,477.40 555.30,476.50 559.90,477.90 564.60,478.30 569.20,478.00 573.80,478.20 578.40,478.50 583.10,478.50 587.70,478.50 592.30,478.30 596.90,478.50 601.50,478.40 606.20,478.40 610.80,478.40" stroke-linejoin="round" stroke-width="1.5" stroke="#B13507" fill="none" stroke-linecap="butt"></polyline></g></g><g id="line__Sweden"><path id="outline" fill="none" stroke-linecap="butt" stroke-linejoin="round" stroke="#fff" stroke-width="2.5" d="M402.8 477.8L407.5 476.9L412.1 476.8L416.7 477L421.3 476.9L425.9 476.7L430.6 476.6L435.2 476.4L439.8 476.8L444.4 477L449 477.1L453.7 477.1L458.3 478.3L462.9 478.3L467.5 478.7"></path><g id="polyline"><polyline id="polyline" points="402.80,477.80 407.50,476.90 412.10,476.80 416.70,477.00 421.30,476.90 425.90,476.70 430.60,476.60 435.20,476.40 439.80,476.80 444.40,477.00 449.00,477.10 453.70,477.10 458.30,478.30 462.90,478.30 467.50,478.70" stroke-linejoin="round" stroke-width="1.5" stroke="#008291" fill="none" stroke-linecap="butt"></polyline></g></g><g id="line__Spain"><path id="outline" fill="none" stroke-linecap="butt" stroke-linejoin="round" stroke="#fff" stroke-width="2.5" d="M402.8 477.3L407.5 477L412.1 476.9L416.7 476.6L421.3 476.7L425.9 476.2L430.6 476.3L435.2 476.1L439.8 476.6L444.4 476.4L449 478.3L453.7 478.3L458.3 478.4L462.9 478.5L467.5 478.5L527.6 478.7L532.2 478.7L536.8 478.7L541.5 478.7L546.1 477.8L550.7 477.4L555.3 477.3L559.9 477.1L564.6 476.9L569.2 476.4L573.8 474.9L578.4 474.8L583.1 475.5L587.7 476.1L592.3 474.7L596.9 476.8L601.5 476.4L606.2 476.8L610.8 475L615.4 471.7"></path><g id="polyline"><polyline id="polyline" points="402.80,477.30 407.50,477.00 412.10,476.90 416.70,476.60 421.30,476.70 425.90,476.20 430.60,476.30 435.20,476.10 439.80,476.60 444.40,476.40 449.00,478.30 453.70,478.30 458.30,478.40 462.90,478.50 467.50,478.50 527.60,478.70 532.20,478.70 536.80,478.70 541.50,478.70 546.10,477.80 550.70,477.40 555.30,477.30 559.90,477.10 564.60,476.90 569.20,476.40 573.80,474.90 578.40,474.80 583.10,475.50 587.70,476.10 592.30,474.70 596.90,476.80 601.50,476.40 606.20,476.80 610.80,475.00 615.40,471.70" stroke-linejoin="round" stroke-width="1.5" stroke="#578145" fill="none" stroke-linecap="butt"></polyline></g></g><g id="line__South-Korea"><path id="outline" fill="none" stroke-linecap="butt" stroke-linejoin="round" stroke="#fff" stroke-width="2.5" d="M402.8 466.5L407.5 466.2L412.1 466.1L416.7 466L421.3 466L425.9 467.4L430.6 467.2L435.2 466.1L439.8 466.7L444.4 467.3L449 467.7L453.7 469.3L458.3 470.8L462.9 472.4L467.5 475.1L472.2 477.6"></path><g id="polyline"><polyline id="polyline" points="402.80,466.50 407.50,466.20 412.10,466.10 416.70,466.00 421.30,466.00 425.90,467.40 430.60,467.20 435.20,466.10 439.80,466.70 444.40,467.30 449.00,467.70 453.70,469.30 458.30,470.80 462.90,472.40 467.50,475.10 472.20,477.60" stroke-linejoin="round" stroke-width="1.5" stroke="#970046" fill="none" stroke-linecap="butt"></polyline></g></g><g id="line__Rwanda"><path id="outline" fill="none" stroke-linecap="butt" stroke-linejoin="round" stroke="#fff" stroke-width="2.5" d="M402.8 476.9L407.5 477.1L412.1 477.1L416.7 477.2L421.3 477.5L425.9 477.4L430.6 477.8L435.2 476.5L439.8 477.3L444.4 478.6L449 478.3L453.7 478.5L458.3 478.2L462.9 478L467.5 477.6L472.2 477.6L476.8 477.9L481.4 478.7L486 478.5L490.6 478.2L495.3 478.3L499.9 478.6L504.5 478.4L509.1 478L513.7 478L518.4 478L523 478.3L527.6 478.1L532.2 476.6L536.8 471.5L541.5 472.1L546.1 473.9L550.7 476.2L555.3 475.8L559.9 475.9L564.6 473.8L569.2 473.1L573.8 472.3L578.4 472.8L583.1 474.1L587.7 474.4L592.3 473.9L596.9 472.6L601.5 474.7L606.2 472.5L610.8 472.2L615.4 472.2"></path><g id="polyline"><polyline id="polyline" points="402.80,476.90 407.50,477.10 412.10,477.10 416.70,477.20 421.30,477.50 425.90,477.40 430.60,477.80 435.20,476.50 439.80,477.30 444.40,478.60 449.00,478.30 453.70,478.50 458.30,478.20 462.90,478.00 467.50,477.60 472.20,477.60 476.80,477.90 481.40,478.70 486.00,478.50 490.60,478.20 495.30,478.30 499.90,478.60 504.50,478.40 509.10,478.00 513.70,478.00 518.40,478.00 523.00,478.30 527.60,478.10 532.20,476.60 536.80,471.50 541.50,472.10 546.10,473.90 550.70,476.20 555.30,475.80 559.90,475.90 564.60,473.80 569.20,473.10 573.80,472.30 578.40,472.80 583.10,474.10 587.70,474.40 592.30,473.90 596.90,472.60 601.50,474.70 606.20,472.50 610.80,472.20 615.40,472.20" stroke-linejoin="round" stroke-width="1.5" stroke="#8C4569" fill="none" stroke-linecap="butt"></polyline></g></g><g id="line__Portugal"><path id="outline" fill="none" stroke-linecap="butt" stroke-linejoin="round" stroke="#fff" stroke-width="2.5" d="M402.8 474L407.5 473.6L412.1 472.3L416.7 471.4L421.3 472.2L425.9 472.4L430.6 473.2L435.2 471.7L439.8 470.5L444.4 471L449 473.1L453.7 472.3L458.3 472.3L462.9 472.2L467.5 474.2L472.2 473.5L476.8 475.1L481.4 478.4L486 474.6L490.6 475.1L495.3 473.9L499.9 474.9L504.5 476.7L509.1 475.2L513.7 475.4L518.4 475.5L523 475.4L527.6 475.2L532.2 474.9L536.8 475.1L541.5 474.8L546.1 474.1L550.7 474.9L555.3 475L559.9 474.9L564.6 475.2L569.2 475.5L573.8 475.6L578.4 476.5L583.1 476.1L587.7 475.6L592.3 475.4L596.9 476.3L601.5 476.1L606.2 476.4L610.8 476.4L615.4 476.4"></path><g id="polyline"><polyline id="polyline" points="402.80,474.00 407.50,473.60 412.10,472.30 416.70,471.40 421.30,472.20 425.90,472.40 430.60,473.20 435.20,471.70 439.80,470.50 444.40,471.00 449.00,473.10 453.70,472.30 458.30,472.30 462.90,472.20 467.50,474.20 472.20,473.50 476.80,475.10 481.40,478.40 486.00,474.60 490.60,475.10 495.30,473.90 499.90,474.90 504.50,476.70 509.10,475.20 513.70,475.40 518.40,475.50 523.00,475.40 527.60,475.20 532.20,474.90 536.80,475.10 541.50,474.80 546.10,474.10 550.70,474.90 555.30,475.00 559.90,474.90 564.60,475.20 569.20,475.50 573.80,475.60 578.40,476.50 583.10,476.10 587.70,475.60 592.30,475.40 596.90,476.30 601.50,476.10 606.20,476.40 610.80,476.40 615.40,476.40" stroke-linejoin="round" stroke-width="1.5" stroke="#D73C50" fill="none" stroke-linecap="butt"></polyline></g></g><g id="line__Peru"><path id="outline" fill="none" stroke-linecap="butt" stroke-linejoin="round" stroke="#fff" stroke-width="2.5" d="M402.8 476.3L407.5 476L412.1 476.1L416.7 476L421.3 476.3L425.9 475.5L430.6 475.2L435.2 475.5L439.8 475.1L444.4 475.3L449 477.5L453.7 475.7L458.3 474.2L462.9 473.5L467.5 474.1L472.2 476.7L476.8 477.3L481.4 477.7L486 476L490.6 477.5L495.3 477.6L499.9 478.4L527.6 478.7L532.2 478.7L536.8 478.5L541.5 477L546.1 476.6L550.7 475.8L555.3 475.4L559.9 476.2L564.6 477L569.2 478.5L573.8 478.3L578.4 478.1"></path><g id="polyline"><polyline id="polyline" points="402.80,476.30 407.50,476.00 412.10,476.10 416.70,476.00 421.30,476.30 425.90,475.50 430.60,475.20 435.20,475.50 439.80,475.10 444.40,475.30 449.00,477.50 453.70,475.70 458.30,474.20 462.90,473.50 467.50,474.10 472.20,476.70 476.80,477.30 481.40,477.70 486.00,476.00 490.60,477.50 495.30,477.60 499.90,478.40 527.60,478.70 532.20,478.70 536.80,478.50 541.50,477.00 546.10,476.60 550.70,475.80 555.30,475.40 559.90,476.20 564.60,477.00 569.20,478.50 573.80,478.30 578.40,478.10" stroke-linejoin="round" stroke-width="1.5" stroke="#BE5915" fill="none" stroke-linecap="butt"></polyline></g></g><g id="line__North-Korea"><path id="outline" fill="none" stroke-linecap="butt" stroke-linejoin="round" stroke="#fff" stroke-width="2.5" d="M402.8 468.7L407.5 468.7L412.1 468.7L416.7 468.5L421.3 468.5L425.9 468.5L430.6 474.1L435.2 474.1L439.8 474.1L444.4 474.1L449 476.4L453.7 476.4L458.3 476.4L462.9 474.1L467.5 474.1L472.2 474.1L476.8 474.1L481.4 474.5L486 474.5L490.6 474.5L495.3 474.5L499.9 475L504.5 476.4L509.1 476.4L513.7 476.4L518.4 475.9L523 475.9L527.6 477.4L532.2 475.7L536.8 474.5L541.5 477.6L546.1 477.4L550.7 477.8L555.3 478.2L559.9 478.2L564.6 478.2L569.2 478.4L573.8 478.4L578.4 478.4L583.1 478.5L587.7 477.3L592.3 472.3L596.9 473.6L601.5 476.8L606.2 476.8L610.8 471.6L615.4 470.8"></path><g id="polyline"><polyline id="polyline" points="402.80,468.70 407.50,468.70 412.10,468.70 416.70,468.50 421.30,468.50 425.90,468.50 430.60,474.10 435.20,474.10 439.80,474.10 444.40,474.10 449.00,476.40 453.70,476.40 458.30,476.40 462.90,474.10 467.50,474.10 472.20,474.10 476.80,474.10 481.40,474.50 486.00,474.50 490.60,474.50 495.30,474.50 499.90,475.00 504.50,476.40 509.10,476.40 513.70,476.40 518.40,475.90 523.00,475.90 527.60,477.40 532.20,475.70 536.80,474.50 541.50,477.60 546.10,477.40 550.70,477.80 555.30,478.20 559.90,478.20 564.60,478.20 569.20,478.40 573.80,478.40 578.40,478.40 583.10,478.50 587.70,477.30 592.30,472.30 596.90,473.60 601.50,476.80 606.20,476.80 610.80,471.60 615.40,470.80" stroke-linejoin="round" stroke-width="1.5" stroke="#00295B" fill="none" stroke-linecap="butt"></polyline></g></g><g id="line__New-Zealand"><path id="outline" fill="none" stroke-linecap="butt" stroke-linejoin="round" stroke="#fff" stroke-width="2.5" d="M402.8 478.7L407.5 478.7L412.1 478.7L416.7 478.7L421.3 478.7L425.9 478.7L430.6 478.7L435.2 478.7L439.8 478.7L444.4 478.7"></path><g id="polyline"><polyline id="polyline" points="402.80,478.70 407.50,478.70 412.10,478.70 416.70,478.70 421.30,478.70 425.90,478.70 430.60,478.70 435.20,478.70 439.80,478.70 444.40,478.70" stroke-linejoin="round" stroke-width="1.5" stroke="#C4523E" fill="none" stroke-linecap="butt"></polyline></g></g><g id="line__Namibia"><path id="outline" fill="none" stroke-linecap="butt" stroke-linejoin="round" stroke="#fff" stroke-width="2.5" d="M402.8 478.2L407.5 478.3L412.1 478.5L416.7 478.5"></path><g id="polyline"><polyline id="polyline" points="402.80,478.20 407.50,478.30 412.10,478.50 416.70,478.50" stroke-linejoin="round" stroke-width="1.5" stroke="#A2559C" fill="none" stroke-linecap="butt"></polyline></g></g><g id="line__Myanmar"><path id="outline" fill="none" stroke-linecap="butt" stroke-linejoin="round" stroke="#fff" stroke-width="2.5" d="M402.8 477.4L407.5 476.4L412.1 475.4L416.7 474.8L421.3 474.8L425.9 474.7L430.6 474.3L435.2 473.5L439.8 474.3L444.4 475.4L449 476.4L453.7 477.3L458.3 477.6L462.9 477.1L467.5 477.4L472.2 476.2L476.8 476.3L481.4 476.2L486 476.2L490.6 477.1L495.3 477.4L499.9 477.9L504.5 478.3L509.1 478.4L513.7 478.5L518.4 478.3L523 478.3L527.6 478.2L532.2 477.9L536.8 477.8L541.5 477.8L546.1 478.1L550.7 478.3L555.3 477.9L559.9 478L564.6 478.1L569.2 478L573.8 478L578.4 477.9L583.1 477.9L587.7 477.4L592.3 477.3L596.9 477.7L601.5 478.2L606.2 478.4L610.8 478.4"></path><g id="polyline"><polyline id="polyline" points="402.80,477.40 407.50,476.40 412.10,475.40 416.70,474.80 421.30,474.80 425.90,474.70 430.60,474.30 435.20,473.50 439.80,474.30 444.40,475.40 449.00,476.40 453.70,477.30 458.30,477.60 462.90,477.10 467.50,477.40 472.20,476.20 476.80,476.30 481.40,476.20 486.00,476.20 490.60,477.10 495.30,477.40 499.90,477.90 504.50,478.30 509.10,478.40 513.70,478.50 518.40,478.30 523.00,478.30 527.60,478.20 532.20,477.90 536.80,477.80 541.50,477.80 546.10,478.10 550.70,478.30 555.30,477.90 559.90,478.00 564.60,478.10 569.20,478.00 573.80,478.00 578.40,477.90 583.10,477.90 587.70,477.40 592.30,477.30 596.90,477.70 601.50,478.20 606.20,478.40 610.80,478.40" stroke-linejoin="round" stroke-width="1.5" stroke="#008291" fill="none" stroke-linecap="butt"></polyline></g></g><g id="line__Mexico"><path id="outline" fill="none" stroke-linecap="butt" stroke-linejoin="round" stroke="#fff" stroke-width="2.5" d="M402.8 477.8L407.5 477.6L412.1 477.5L416.7 477.5L421.3 477.5L425.9 477.8L430.6 477.8L435.2 477.4L439.8 477.4L444.4 477.3L449 477.7L453.7 477.7L458.3 477.9L462.9 477.8L467.5 477.8L472.2 477.9L476.8 478.7L481.4 478.7L486 477.4L490.6 477.8L495.3 477.9L499.9 478.1L573.8 478.7L578.4 478.7L583.1 478.7L587.7 478.7L592.3 478.5L596.9 478.6L601.5 478.6L606.2 478.5L610.8 478.5"></path><g id="polyline"><polyline id="polyline" points="402.80,477.80 407.50,477.60 412.10,477.50 416.70,477.50 421.30,477.50 425.90,477.80 430.60,477.80 435.20,477.40 439.80,477.40 444.40,477.30 449.00,477.70 453.70,477.70 458.30,477.90 462.90,477.80 467.50,477.80 472.20,477.90 476.80,478.70 481.40,478.70 486.00,477.40 490.60,477.80 495.30,477.90 499.90,478.10 573.80,478.70 578.40,478.70 583.10,478.70 587.70,478.70 592.30,478.50 596.90,478.60 601.50,478.60 606.20,478.50 610.80,478.50" stroke-linejoin="round" stroke-width="1.5" stroke="#B13507" fill="none" stroke-linecap="butt"></polyline></g></g><g id="line__Malaysia"><path id="outline" fill="none" stroke-linecap="butt" stroke-linejoin="round" stroke="#fff" stroke-width="2.5" d="M402.8 478.3L407.5 478.4L412.1 478.5L416.7 478.5L421.3 478.5L425.9 478.5L430.6 478.5L435.2 478.6L439.8 478.6L444.4 478.7L509.1 478.7L513.7 477.5L606.2 478.7L610.8 478.6"></path><g id="polyline"><polyline id="polyline" points="402.80,478.30 407.50,478.40 412.10,478.50 416.70,478.50 421.30,478.50 425.90,478.50 430.60,478.50 435.20,478.60 439.80,478.60 444.40,478.70 509.10,478.70 513.70,477.50 606.20,478.70 610.80,478.60" stroke-linejoin="round" stroke-width="1.5" stroke="#00875E" fill="none" stroke-linecap="butt"></polyline></g></g><g id="line__Japan"><path id="outline" fill="none" stroke-linecap="butt" stroke-linejoin="round" stroke="#fff" stroke-width="2.5" d="M402.8 475.1L407.5 475.2L412.1 473.9L416.7 475.4L421.3 476.2L425.9 474.7L430.6 474.9L435.2 475L439.8 476.5L444.4 476.5L449 477.7L453.7 477.6L458.3 477.5L462.9 477.7L467.5 477.6L472.2 477.3L476.8 478.4"></path><g id="polyline"><polyline id="polyline" points="402.80,475.10 407.50,475.20 412.10,473.90 416.70,475.40 421.30,476.20 425.90,474.70 430.60,474.90 435.20,475.00 439.80,476.50 444.40,476.50 449.00,477.70 453.70,477.60 458.30,477.50 462.90,477.70 467.50,477.60 472.20,477.30 476.80,478.40" stroke-linejoin="round" stroke-width="1.5" stroke="#C15065" fill="none" stroke-linecap="butt"></polyline></g></g><g id="line__India"><path id="outline" fill="none" stroke-linecap="butt" stroke-linejoin="round" stroke="#fff" stroke-width="2.5" d="M402.8 478.6L407.5 478.6L412.1 478.6L416.7 478.6L421.3 478.6L425.9 478.6L430.6 478.6L435.2 478.6L439.8 478.6L444.4 478.6L449 478.6L453.7 478.6L458.3 478.6L462.9 478.7L467.5 478.6"></path><g id="polyline"><polyline id="polyline" points="402.80,478.60 407.50,478.60 412.10,478.60 416.70,478.60 421.30,478.60 425.90,478.60 430.60,478.60 435.20,478.60 439.80,478.60 444.40,478.60 449.00,478.60 453.70,478.60 458.30,478.60 462.90,478.70 467.50,478.60" stroke-linejoin="round" stroke-width="1.5" stroke="#286BBB" fill="none" stroke-linecap="butt"></polyline></g></g><g id="line__France"><path id="outline" fill="none" stroke-linecap="butt" stroke-linejoin="round" stroke="#fff" stroke-width="2.5" d="M402.8 475.7L407.5 475.9L412.1 476.4L416.7 476L421.3 476L425.9 475.3L430.6 475L435.2 475.2L439.8 475.3L444.4 474.1"></path><g id="polyline"><polyline id="polyline" points="402.80,475.70 407.50,475.90 412.10,476.40 416.70,476.00 421.30,476.00 425.90,475.30 430.60,475.00 435.20,475.20 439.80,475.30 444.40,474.10" stroke-linejoin="round" stroke-width="1.5" stroke="#578145" fill="none" stroke-linecap="butt"></polyline></g></g><g id="line__Democratic-Republic-of-Congo"><path id="outline" fill="none" stroke-linecap="butt" stroke-linejoin="round" stroke="#fff" stroke-width="2.5" d="M402.8 477.9L407.5 478L412.1 477.7L416.7 478.4L421.3 478.5L425.9 478.5L430.6 478.5L435.2 478.6L439.8 478.6L444.4 478.6L449 478.6L453.7 478.6L458.3 478.6L462.9 478.6L467.5 478.6L472.2 478.6L476.8 478.6L481.4 478.6L523 478.1L527.6 478.6L532.2 477.1L536.8 476.4L541.5 475.8L546.1 477L550.7 477.8L555.3 478.5L559.9 478.6L564.6 478.5L569.2 478.4L573.8 478.7L578.4 478.4L583.1 478.3L587.7 478L592.3 477.6L596.9 477.6L601.5 478.1L606.2 478.1L610.8 478"></path><g id="polyline"><polyline id="polyline" points="402.80,477.90 407.50,478.00 412.10,477.70 416.70,478.40 421.30,478.50 425.90,478.50 430.60,478.50 435.20,478.60 439.80,478.60 444.40,478.60 449.00,478.60 453.70,478.60 458.30,478.60 462.90,478.60 467.50,478.60 472.20,478.60 476.80,478.60 481.40,478.60 523.00,478.10 527.60,478.60 532.20,477.10 536.80,476.40 541.50,475.80 546.10,477.00 550.70,477.80 555.30,478.50 559.90,478.60 564.60,478.50 569.20,478.40 573.80,478.70 578.40,478.40 583.10,478.30 587.70,478.00 592.30,477.60 596.90,477.60 601.50,478.10 606.20,478.10 610.80,478.00" stroke-linejoin="round" stroke-width="1.5" stroke="#8C4569" fill="none" stroke-linecap="butt"></polyline></g></g><g id="line__Czechoslovakia"><path id="outline" fill="none" stroke-linecap="butt" stroke-linejoin="round" stroke="#fff" stroke-width="2.5" d="M402.8 478.3L407.5 478.3L412.1 478.3L416.7 478.3L421.3 478.5L425.9 478.5L430.6 478.5L435.2 478.5L439.8 478.5L444.4 478.5L449 478.5L453.7 478.5L458.3 478.5L462.9 478.6L467.5 478.6L472.2 478.6"></path><g id="polyline"><polyline id="polyline" points="402.80,478.30 407.50,478.30 412.10,478.30 416.70,478.30 421.30,478.50 425.90,478.50 430.60,478.50 435.20,478.50 439.80,478.50 444.40,478.50 449.00,478.50 453.70,478.50 458.30,478.50 462.90,478.60 467.50,478.60 472.20,478.60" stroke-linejoin="round" stroke-width="1.5" stroke="#B16214" fill="none" stroke-linecap="butt"></polyline></g></g><g id="line__China"><path id="outline" fill="none" stroke-linecap="butt" stroke-linejoin="round" stroke="#fff" stroke-width="2.5" d="M402.8 436.9L407.5 422.9L412.1 418.3L416.7 409L421.3 416L425.9 418.3L430.6 418.3L435.2 413.6L439.8 399.7L444.4 390.4L449 385.8L453.7 362.5L458.3 337.6L462.9 328.3L467.5 330.2L472.2 360.6L476.8 372.3L481.4 353.2L486 351L490.6 354.8L495.3 362.4L499.9 367.9L504.5 384.8L509.1 369.7L513.7 351L518.4 311.7L523 310.5L527.6 200.1L532.2 240.8L536.8 269.6L541.5 288.2L546.1 246.3L550.7 249L555.3 240.4L559.9 191.5L564.6 190.6L569.2 177.1L573.8 174.9L578.4 169.4L583.1 181.5L587.7 165.1L592.3 176.9L596.9 128L601.5 172L606.2 148.7L610.8 172L615.4 185.9"></path><g id="polyline"><polyline id="polyline" points="402.80,436.90 407.50,422.90 412.10,418.30 416.70,409.00 421.30,416.00 425.90,418.30 430.60,418.30 435.20,413.60 439.80,399.70 444.40,390.40 449.00,385.80 453.70,362.50 458.30,337.60 462.90,328.30 467.50,330.20 472.20,360.60 476.80,372.30 481.40,353.20 486.00,351.00 490.60,354.80 495.30,362.40 499.90,367.90 504.50,384.80 509.10,369.70 513.70,351.00 518.40,311.70 523.00,310.50 527.60,200.10 532.20,240.80 536.80,269.60 541.50,288.20 546.10,246.30 550.70,249.00 555.30,240.40 559.90,191.50 564.60,190.60 569.20,177.10 573.80,174.90 578.40,169.40 583.10,181.50 587.70,165.10 592.30,176.90 596.90,128.00 601.50,172.00 606.20,148.70 610.80,172.00 615.40,185.90" stroke-linejoin="round" stroke-width="1.5" stroke="#CF0A66" fill="none" stroke-linecap="butt"></polyline></g></g><g id="line__Canada"><path id="outline" fill="none" stroke-linecap="butt" stroke-linejoin="round" stroke="#fff" stroke-width="2.5" d="M402.8 470.3L407.5 468.1L412.1 466.7L416.7 463.9L421.3 469.4L425.9 467.5L430.6 473L435.2 463.2L439.8 463.8L444.4 469.6L499.9 478.7L504.5 478.7L509.1 478.7L513.7 478.7L518.4 468L523 461.7L527.6 478.7L532.2 476.5L536.8 466.8L541.5 466.2L546.1 465.7L550.7 467.1L555.3 477L559.9 467.7L564.6 467.1L569.2 465.9L573.8 466.2L578.4 468.9"></path><g id="polyline"><polyline id="polyline" points="402.80,470.30 407.50,468.10 412.10,466.70 416.70,463.90 421.30,469.40 425.90,467.50 430.60,473.00 435.20,463.20 439.80,463.80 444.40,469.60 499.90,478.70 504.50,478.70 509.10,478.70 513.70,478.70 518.40,468.00 523.00,461.70 527.60,478.70 532.20,476.50 536.80,466.80 541.50,466.20 546.10,465.70 550.70,467.10 555.30,477.00 559.90,467.70 564.60,467.10 569.20,465.90 573.80,466.20 578.40,468.90" stroke-linejoin="round" stroke-width="1.5" stroke="#18470F" fill="none" stroke-linecap="butt"></polyline></g></g><g id="line__Brazil"><path id="outline" fill="none" stroke-linecap="butt" stroke-linejoin="round" stroke="#fff" stroke-width="2.5" d="M402.8 473.1L407.5 473.3L412.1 473.2L416.7 473.6L421.3 471.4L425.9 471.6L430.6 473.9L435.2 473.9L439.8 473.6L444.4 474.6L449 475L453.7 475.3L458.3 475.5L462.9 477.2L467.5 477.7L472.2 477.7L476.8 477.6L481.4 477.8L486 478.2L490.6 478.2L495.3 478.5L499.9 478.7L504.5 478.6L509.1 478.6L513.7 478.6L518.4 478.6L523 478.6L527.6 477.3L532.2 476.1L536.8 476.2L541.5 476.2L546.1 476.8L550.7 477.8L555.3 477.9L559.9 477.6L564.6 476.9L569.2 476.4L573.8 475.6L578.4 476.7L583.1 477.2L587.7 476.8L592.3 477.1L596.9 477.3L601.5 477.5L606.2 477.3L610.8 477.3"></path><g id="polyline"><polyline id="polyline" points="402.80,473.10 407.50,473.30 412.10,473.20 416.70,473.60 421.30,471.40 425.90,471.60 430.60,473.90 435.20,473.90 439.80,473.60 444.40,474.60 449.00,475.00 453.70,475.30 458.30,475.50 462.90,477.20 467.50,477.70 472.20,477.70 476.80,477.60 481.40,477.80 486.00,478.20 490.60,478.20 495.30,478.50 499.90,478.70 504.50,478.60 509.10,478.60 513.70,478.60 518.40,478.60 523.00,478.60 527.60,477.30 532.20,476.10 536.80,476.20 541.50,476.20 546.10,476.80 550.70,477.80 555.30,477.90 559.90,477.60 564.60,476.90 569.20,476.40 573.80,475.60 578.40,476.70 583.10,477.20 587.70,476.80 592.30,477.10 596.90,477.30 601.50,477.50 606.20,477.30 610.80,477.30" stroke-linejoin="round" stroke-width="1.5" stroke="#578145" fill="none" stroke-linecap="butt"></polyline></g></g><g id="line__Bolivia"><path id="outline" fill="none" stroke-linecap="butt" stroke-linejoin="round" stroke="#fff" stroke-width="2.5" d="M402.8 467.9L407.5 467L412.1 467.2L416.7 466.3L421.3 466L425.9 466.9L430.6 467.3L435.2 469.9L439.8 471.1L444.4 473.6L449 475.7L453.7 474.4L458.3 473.5L462.9 474L467.5 473.8L472.2 474.7L476.8 477.4L481.4 476.6L486 475.7L490.6 476L495.3 476.3L499.9 476.4L504.5 477.1L509.1 476.9L513.7 476.2L518.4 477L523 476.7L527.6 476.8L532.2 476.2L536.8 474.7L541.5 473.6L546.1 473.4L550.7 473.9L555.3 473.1L559.9 474.7L564.6 474.3L569.2 474.3L573.8 474.3L578.4 473.5L583.1 474.8L587.7 475.1L592.3 473.9L596.9 474.9L601.5 472.4L606.2 471.4L610.8 472.4L615.4 471.7"></path><g id="polyline"><polyline id="polyline" points="402.80,467.90 407.50,467.00 412.10,467.20 416.70,466.30 421.30,466.00 425.90,466.90 430.60,467.30 435.20,469.90 439.80,471.10 444.40,473.60 449.00,475.70 453.70,474.40 458.30,473.50 462.90,474.00 467.50,473.80 472.20,474.70 476.80,477.40 481.40,476.60 486.00,475.70 490.60,476.00 495.30,476.30 499.90,476.40 504.50,477.10 509.10,476.90 513.70,476.20 518.40,477.00 523.00,476.70 527.60,476.80 532.20,476.20 536.80,474.70 541.50,473.60 546.10,473.40 550.70,473.90 555.30,473.10 559.90,474.70 564.60,474.30 569.20,474.30 573.80,474.30 578.40,473.50 583.10,474.80 587.70,475.10 592.30,473.90 596.90,474.90 601.50,472.40 606.20,471.40 610.80,472.40 615.40,471.70" stroke-linejoin="round" stroke-width="1.5" stroke="#A2559C" fill="none" stroke-linecap="butt"></polyline></g></g><g id="line__Austria"><path id="outline" fill="none" stroke-linecap="butt" stroke-linejoin="round" stroke="#fff" stroke-width="2.5" d="M402.8 472.2L407.5 471.5L412.1 470.9L416.7 468.7L421.3 472.6L425.9 470.8L430.6 472.2L435.2 469.8L439.8 469.6L444.4 471.9L449 474.2L453.7 474.3L458.3 473.2L462.9 473.9L467.5 474.1L472.2 473.4L476.8 476.3L481.4 478.7L486 476.1L490.6 473.7L495.3 473.4L499.9 473.7L504.5 473L509.1 472.1L513.7 472.1L518.4 472.3L523 472.3L527.6 472.5L532.2 472.8L536.8 473.3L541.5 473.5L546.1 473.5L550.7 474.6L555.3 474.2L559.9 474.7L564.6 475.4L569.2 474.7L573.8 474.8L578.4 474.7L583.1 474.3L587.7 474.2L592.3 474.4L596.9 474.6L601.5 474.6L606.2 474.5L610.8 474.5L615.4 474.5"></path><g id="polyline"><polyline id="polyline" points="402.80,472.20 407.50,471.50 412.10,470.90 416.70,468.70 421.30,472.60 425.90,470.80 430.60,472.20 435.20,469.80 439.80,469.60 444.40,471.90 449.00,474.20 453.70,474.30 458.30,473.20 462.90,473.90 467.50,474.10 472.20,473.40 476.80,476.30 481.40,478.70 486.00,476.10 490.60,473.70 495.30,473.40 499.90,473.70 504.50,473.00 509.10,472.10 513.70,472.10 518.40,472.30 523.00,472.30 527.60,472.50 532.20,472.80 536.80,473.30 541.50,473.50 546.10,473.50 550.70,474.60 555.30,474.20 559.90,474.70 564.60,475.40 569.20,474.70 573.80,474.80 578.40,474.70 583.10,474.30 587.70,474.20 592.30,474.40 596.90,474.60 601.50,474.60 606.20,474.50 610.80,474.50 615.40,474.50" stroke-linejoin="round" stroke-width="1.5" stroke="#9A5129" fill="none" stroke-linecap="butt"></polyline></g></g><g id="line__Australia"><path id="outline" fill="none" stroke-linecap="butt" stroke-linejoin="round" stroke="#fff" stroke-width="2.5" d="M402.8 467.7L407.5 466.1L412.1 463.9L416.7 462.1L421.3 462.4L425.9 466.5L430.6 469.3L435.2 470.6L439.8 469.5L444.4 471.3L449 473.4L453.7 472.7L458.3 472.3L462.9 473.7L467.5 477.6L472.2 478L476.8 478.2L481.4 478.6L486 478.6L490.6 478.4L518.4 478.7L523 478.7L532.2 478.5L536.8 478.6L541.5 478.6L546.1 478.6L550.7 478.6L555.3 478.6L559.9 478.6L564.6 478.5L569.2 477.3L573.8 476.9L578.4 477.3L583.1 477.7L587.7 478.7L592.3 478.7L596.9 478.7L601.5 478.7L606.2 478.7L610.8 477.8L615.4 475"></path><g id="polyline"><polyline id="polyline" points="402.80,467.70 407.50,466.10 412.10,463.90 416.70,462.10 421.30,462.40 425.90,466.50 430.60,469.30 435.20,470.60 439.80,469.50 444.40,471.30 449.00,473.40 453.70,472.70 458.30,472.30 462.90,473.70 467.50,477.60 472.20,478.00 476.80,478.20 481.40,478.60 486.00,478.60 490.60,478.40 518.40,478.70 523.00,478.70 532.20,478.50 536.80,478.60 541.50,478.60 546.10,478.60 550.70,478.60 555.30,478.60 559.90,478.60 564.60,478.50 569.20,477.30 573.80,476.90 578.40,477.30 583.10,477.70 587.70,478.70 592.30,478.70 596.90,478.70 601.50,478.70 606.20,478.70 610.80,477.80 615.40,475.00" stroke-linejoin="round" stroke-width="1.5" stroke="#2C8465" fill="none" stroke-linecap="butt"></polyline></g></g><g id="line__Argentina"><path id="outline" fill="none" stroke-linecap="butt" stroke-linejoin="round" stroke="#fff" stroke-width="2.5" d="M402.8 478.4L407.5 478.2L412.1 478.4L416.7 478.5L421.3 478.6L425.9 478.6L430.6 478.5L435.2 478.5L439.8 478.6L444.4 478.6"></path><g id="polyline"><polyline id="polyline" points="402.80,478.40 407.50,478.20 412.10,478.40 416.70,478.50 421.30,478.60 425.90,478.60 430.60,478.50 435.20,478.50 439.80,478.60 444.40,478.60" stroke-linejoin="round" stroke-width="1.5" stroke="#996D39" fill="none" stroke-linecap="butt"></polyline></g></g><g id="line__World"><path id="outline" fill="none" stroke-linecap="butt" stroke-linejoin="round" stroke="#fff" stroke-width="2.5" d="M70.1 470.8L74.8 469.9L79.4 466.6L84 470.3L88.6 467.1L93.2 463.4L97.9 463.8L102.5 459.2L107.1 460.6L111.7 462.4L116.3 454.5L121 432.2L125.6 421.5L130.2 408.1L134.8 446.2L139.5 453.1L144.1 468L148.7 464.8L153.3 463.4L157.9 465.2L162.6 455.9L167.2 451.7L171.8 458.3L176.4 453.1L181 443.8L185.7 442L190.3 449L194.9 463.8L199.5 451.3L204.1 442.5L208.8 429L213.4 423.9L218 392.7L222.6 396L227.2 385.3L231.9 382.5L236.5 367.6L241.1 366.7L245.7 345.8L250.4 370L255 428L259.6 436.7L264.2 415L268.8 396L273.5 405.3L278.1 393.7L282.7 363.4L287.3 326.7L291.9 318.8L296.6 321.6L301.2 312.8L305.8 312.3L310.4 343.5L315 366.2L319.7 356L324.3 333.7L328.9 325.3L333.5 333.2L338.1 352.8L342.8 348.1L347.4 353.2L352 345.8L356.6 346.2L361.3 334.6L365.9 327.7L370.5 328.1L375.1 314.2L379.7 299.8L384.4 302.6L389 304L393.6 300.7L398.2 302.1L402.8 287.7L407.5 264.5L412.1 252.8L416.7 237L421.3 244.9L425.9 260.3L430.6 288.6L435.2 264L439.8 262.1L444.4 276.5L449 281.2L453.7 242.1L458.3 241.7L462.9 237.5L467.5 254.7L472.2 279.3L476.8 319.3L481.4 320.7L486 299.8L490.6 317.4L495.3 324.4L499.9 306.7L504.5 303.5L509.1 274.2L513.7 242.6L518.4 260.3L523 259.3L527.6 170.6L532.2 202.2L536.8 215.7L541.5 229.6L546.1 191L550.7 194.3L555.3 160.8L559.9 135.3L564.6 117.6L569.2 109.7L573.8 97.2L578.4 89.7L583.1 114.3L587.7 100.4L592.3 96.7L596.9 89.3L601.5 114.3L606.2 89.3L610.8 107.8L615.4 116.2"></path><g id="polyline"><polyline id="polyline" points="70.10,470.80 74.80,469.90 79.40,466.60 84.00,470.30 88.60,467.10 93.20,463.40 97.90,463.80 102.50,459.20 107.10,460.60 111.70,462.40 116.30,454.50 121.00,432.20 125.60,421.50 130.20,408.10 134.80,446.20 139.50,453.10 144.10,468.00 148.70,464.80 153.30,463.40 157.90,465.20 162.60,455.90 167.20,451.70 171.80,458.30 176.40,453.10 181.00,443.80 185.70,442.00 190.30,449.00 194.90,463.80 199.50,451.30 204.10,442.50 208.80,429.00 213.40,423.90 218.00,392.70 222.60,396.00 227.20,385.30 231.90,382.50 236.50,367.60 241.10,366.70 245.70,345.80 250.40,370.00 255.00,428.00 259.60,436.70 264.20,415.00 268.80,396.00 273.50,405.30 278.10,393.70 282.70,363.40 287.30,326.70 291.90,318.80 296.60,321.60 301.20,312.80 305.80,312.30 310.40,343.50 315.00,366.20 319.70,356.00 324.30,333.70 328.90,325.30 333.50,333.20 338.10,352.80 342.80,348.10 347.40,353.20 352.00,345.80 356.60,346.20 361.30,334.60 365.90,327.70 370.50,328.10 375.10,314.20 379.70,299.80 384.40,302.60 389.00,304.00 393.60,300.70 398.20,302.10 402.80,287.70 407.50,264.50 412.10,252.80 416.70,237.00 421.30,244.90 425.90,260.30 430.60,288.60 435.20,264.00 439.80,262.10 444.40,276.50 449.00,281.20 453.70,242.10 458.30,241.70 462.90,237.50 467.50,254.70 472.20,279.30 476.80,319.30 481.40,320.70 486.00,299.80 490.60,317.40 495.30,324.40 499.90,306.70 504.50,303.50 509.10,274.20 513.70,242.60 518.40,260.30 523.00,259.30 527.60,170.60 532.20,202.20 536.80,215.70 541.50,229.60 546.10,191.00 550.70,194.30 555.30,160.80 559.90,135.30 564.60,117.60 569.20,109.70 573.80,97.20 578.40,89.70 583.10,114.30 587.70,100.40 592.30,96.70 596.90,89.30 601.50,114.30 606.20,89.30 610.80,107.80 615.40,116.20" stroke-linejoin="round" stroke-width="1.5" stroke="#C15065" fill="none" stroke-linecap="butt"></polyline></g></g></g></g></g></g><g id="footer" class="SourcesFooter" style="fill:#5b5b5b"><g id="sources" class="markdown-text-wrap"><text x="16.0" y="528.3" style="font-size:13.5px;line-height:1.2"><tspan x="16" y="528.3"><tspan style="font-weight:700">Data source:</tspan> USGS - Mineral Commodity Summaries (2024); USGS - Historical Statistics for Mineral and Material Commodities (2023);</tspan><tspan x="16" y="544.5">BGS - World Mineral Statistics (2023)</tspan></text></g><g id="note" class="markdown-text-wrap"><text x="16.0" y="562.7" style="font-size:13.5px;line-height:1.2"><tspan x="16" y="562.7"><tspan style="font-weight:700">Note:</tspan> The sum of all countries may exceed World data on certain years (by up to 10%), due to discrepancies between data sources.</tspan></text></g><text id="origin-url" font-size="13.50" x="16.0" y="580.9"><tspan x="16" y="580.8950000000001"><a target="_blank" style="fill: #5b5b5b;" href="https://creativecommons.org/licenses/by/4.0/">CC BY</a></tspan></text></g><line id="separator-line" x1="16" y1="600" x2="834" y2="600" stroke="#e7e7e7"></line><g id="details" transform="translate(15, 616)"><g class="markdown-text-wrap"><text x="0.0" y="12.0" style="font-size:12.375px;fill:#5b5b5b;line-height:1.2"><tspan x="0" y="12.0"><tspan style="font-weight:700">1.</tspan> <tspan style="font-weight:700">Tungsten</tspan>: Tungsten is a mineral that is used in consumer electronics, semiconductors, medical equipment, light bulbs, furnaces and other</tspan><tspan x="0" y="26.9">applications where low thermal expansion is useful.</tspan></text></g><g class="markdown-text-wrap"><text x="0.0" y="49.7" style="font-size:12.375px;fill:#5b5b5b;line-height:1.2"><tspan x="0" y="49.7"><tspan style="font-weight:700">2.</tspan> <tspan style="font-weight:700">Refined production</tspan>: Refined production is the process of taking raw materials, such as metals extracted from ores, and purifying them to achieve</tspan><tspan x="0" y="64.6">a higher quality or more usable form. After metals are initially extracted from ore through processes like smelting, they often contain impurities or are</tspan><tspan x="0" y="79.4">not in the ideal form for manufacturing. Refining involves further processing these metals to remove impurities and adjust their composition to meet</tspan><tspan x="0" y="94.3">specific standards. Refined production is essential for transforming raw materials into high-quality metals that are crucial for industries and</tspan><tspan x="0" y="109.1">consumers, from manufacturing electronics to constructing buildings.</tspan></text></g></g></svg>