<svg xmlns="http://www.w3.org/2000/svg" version="1.1" style="font-family:Lato, &#x27;Helvetica Neue&#x27;, Helvetica, Arial, &#x27;Liberation Sans&#x27;, sans-serif;font-size:18px;background-color:white;text-rendering:geometricPrecision;-webkit-font-smoothing:antialiased" width="850" height="706.25" viewBox="0 0 850 706.25"><defs><style>@import url(https://ourworldindata.org/fonts.css)</style></defs><defs><pattern id="noDataPattern" patternUnits="userSpaceOnUse" width="4" height="4" patternTransform="rotate(-45 2 2)"><path d="M -1,2 l 6,0" stroke="#ccc" stroke-width="0.7"></path></pattern></defs><rect class="background-fill" fill="white" width="850" height="706.25"></rect><g id="header" class="HeaderView"><g id="logo" transform="translate(769, 16) scale(1)"><svg className="owidLogo" xmlns="http://www.w3.org/2000/svg" width="65" height="36" viewBox="0 0 65 36"  fill="none"><path fill="#002147" d="M0 0h64.8v36H0z"/><path fill="#CE261E" d="M0 33.3h64.8V36H0z"/><path fill="#fff" d="M13.796 10.575c0 .636-.106 1.226-.318 1.77a4.193 4.193 0 0 1-.894 1.404 4.084 4.084 0 0 1-1.386.93c-.54.22-1.138.33-1.794.33-.656 0-1.256-.11-1.8-.33a4.149 4.149 0 0 1-1.392-.93 4.193 4.193 0 0 1-.894-1.404A4.833 4.833 0 0 1 5 10.575c0-.636.106-1.224.318-1.764a4.18 4.18 0 0 1 .894-1.41 4.076 4.076 0 0 1 1.392-.924 4.684 4.684 0 0 1 1.8-.336c.656 0 1.254.112 1.794.336.54.224 1.002.534 1.386.93.384.392.682.86.894 1.404.212.54.318 1.128.318 1.764Zm-1.656 0c0-.476-.064-.902-.192-1.278a2.671 2.671 0 0 0-.54-.966 2.332 2.332 0 0 0-.864-.606 2.94 2.94 0 0 0-1.14-.21c-.424 0-.806.07-1.146.21-.34.14-.63.342-.87.606a2.742 2.742 0 0 0-.546.966 3.955 3.955 0 0 0-.192 1.278c0 .476.064.904.192 1.284.128.376.31.696.546.96.24.26.53.46.87.6.34.14.722.21 1.146.21.424 0 .804-.07 1.14-.21.34-.14.628-.34.864-.6.236-.264.416-.584.54-.96a4.01 4.01 0 0 0 .192-1.284ZM16.104 8.757v3.912c0 .376.086.668.258.876.176.204.438.306.786.306.256 0 .496-.056.72-.168a2.58 2.58 0 0 0 .636-.474V8.757h1.482v6.156h-.906c-.192 0-.318-.09-.378-.27l-.102-.492a4.65 4.65 0 0 1-.396.354 2.577 2.577 0 0 1-.438.27 2.35 2.35 0 0 1-.498.168 2.345 2.345 0 0 1-.57.066c-.336 0-.634-.056-.894-.168a1.821 1.821 0 0 1-.648-.486 2.157 2.157 0 0 1-.402-.738 3.233 3.233 0 0 1-.132-.948V8.757h1.482ZM21.328 14.913V8.757h.87c.152 0 .258.028.318.084.06.056.1.152.12.288l.09.744c.22-.38.478-.68.774-.9.296-.22.628-.33.996-.33.304 0 .556.07.756.21l-.192 1.11c-.012.072-.038.124-.078.156a.278.278 0 0 1-.162.042 1.01 1.01 0 0 1-.246-.042 1.646 1.646 0 0 0-.414-.042c-.308 0-.572.086-.792.258-.22.168-.406.416-.558.744v3.834h-1.482ZM27.347 6.237h1.356a.57.57 0 0 1 .348.102c.096.064.16.152.192.264l1.476 5.19c.036.128.068.268.096.42.032.148.062.306.09.474a5.968 5.968 0 0 1 .228-.894l1.704-5.19a.575.575 0 0 1 .186-.252.543.543 0 0 1 .348-.114h.474a.57.57 0 0 1 .348.102.497.497 0 0 1 .192.264l1.692 5.19c.088.256.164.54.228.852.028-.156.056-.306.084-.45.032-.144.064-.278.096-.402l1.476-5.19c.028-.1.09-.186.186-.258a.563.563 0 0 1 .348-.108h1.266l-2.694 8.676h-1.458l-1.896-5.928-.078-.246a9.504 9.504 0 0 1-.072-.282c-.024.1-.05.194-.078.282-.024.088-.048.17-.072.246l-1.914 5.928H30.04l-2.694-8.676ZM42.771 8.661c.46 0 .876.074 1.248.222.376.148.696.358.96.63s.468.604.612.996c.144.392.216.83.216 1.314 0 .488-.072.928-.216 1.32a2.85 2.85 0 0 1-.612 1.002 2.653 2.653 0 0 1-.96.636 3.35 3.35 0 0 1-1.248.222c-.46 0-.878-.074-1.254-.222a2.712 2.712 0 0 1-.966-.636 2.922 2.922 0 0 1-.618-1.002 3.807 3.807 0 0 1-.216-1.32c0-.484.072-.922.216-1.314.148-.392.354-.724.618-.996.268-.272.59-.482.966-.63a3.397 3.397 0 0 1 1.254-.222Zm0 5.202c.512 0 .89-.172 1.134-.516.248-.344.372-.848.372-1.512s-.124-1.17-.372-1.518c-.244-.348-.622-.522-1.134-.522-.52 0-.904.176-1.152.528-.248.348-.372.852-.372 1.512s.124 1.164.372 1.512c.248.344.632.516 1.152.516ZM46.723 14.913V8.757h.87c.152 0 .258.028.318.084.06.056.1.152.12.288l.09.744c.22-.38.478-.68.774-.9.296-.22.628-.33.996-.33.304 0 .556.07.756.21l-.192 1.11c-.012.072-.038.124-.078.156a.278.278 0 0 1-.162.042 1.01 1.01 0 0 1-.246-.042 1.646 1.646 0 0 0-.414-.042c-.308 0-.572.086-.792.258-.22.168-.406.416-.558.744v3.834h-1.482ZM52.96 5.997v8.916h-1.482V5.997h1.482ZM58.732 14.913c-.192 0-.318-.09-.378-.27l-.12-.594a3.68 3.68 0 0 1-.402.39c-.14.116-.292.216-.456.3-.16.084-.334.148-.522.192a2.372 2.372 0 0 1-.6.072c-.336 0-.644-.07-.924-.21a2.098 2.098 0 0 1-.726-.606 3.033 3.033 0 0 1-.468-.99 5.072 5.072 0 0 1-.162-1.344c0-.456.062-.88.186-1.272s.302-.732.534-1.02c.232-.288.51-.512.834-.672a2.384 2.384 0 0 1 1.092-.246 2.103 2.103 0 0 1 1.536.606V5.997h1.482v8.916h-.906Zm-1.974-1.086c.308 0 .57-.064.786-.192.216-.128.42-.31.612-.546v-2.76a1.452 1.452 0 0 0-.552-.432 1.597 1.597 0 0 0-.636-.126c-.224 0-.428.042-.612.126a1.21 1.21 0 0 0-.462.384c-.124.168-.22.384-.288.648-.068.26-.102.568-.102.924 0 .36.028.666.084.918.06.248.144.452.252.612.108.156.24.27.396.342.156.068.33.102.522.102ZM16.331 20.757v6.156H14.85v-6.156h1.481Zm.223-1.794a.844.844 0 0 1-.078.36.963.963 0 0 1-.21.294.995.995 0 0 1-.3.204.963.963 0 0 1-.372.072.948.948 0 0 1-.367-.072 1.018 1.018 0 0 1-.498-.498.963.963 0 0 1 0-.732.995.995 0 0 1 .205-.3.929.929 0 0 1 .293-.198.899.899 0 0 1 .738 0 .912.912 0 0 1 .3.198.943.943 0 0 1 .288.672ZM17.771 26.913v-6.156h.906c.192 0 .318.09.378.27l.102.486a2.934 2.934 0 0 1 .828-.618c.156-.076.322-.134.498-.174.176-.04.368-.06.576-.06.336 0 .634.058.894.174.26.112.476.272.648.48.176.204.308.45.396.738.092.284.138.598.138.942v3.918h-1.482v-3.918c0-.376-.088-.666-.264-.87-.172-.208-.432-.312-.78-.312-.256 0-.496.058-.72.174a2.58 2.58 0 0 0-.636.474v4.452h-1.482ZM34.22 22.575c0 .636-.106 1.22-.318 1.752-.212.532-.51.99-.894 1.374a4 4 0 0 1-1.386.894 4.87 4.87 0 0 1-1.794.318h-3.312v-8.676h3.312a4.79 4.79 0 0 1 1.794.324 4 4 0 0 1 1.386.894c.384.38.682.836.894 1.368.212.532.318 1.116.318 1.752Zm-1.65 0c0-.476-.064-.902-.192-1.278a2.68 2.68 0 0 0-.546-.96 2.332 2.332 0 0 0-.864-.606 2.94 2.94 0 0 0-1.14-.21h-1.686v6.108h1.686c.424 0 .804-.07 1.14-.21.34-.14.628-.34.864-.6a2.75 2.75 0 0 0 .546-.96 4.01 4.01 0 0 0 .192-1.284ZM39.98 26.913h-.665c-.14 0-.25-.02-.33-.06-.08-.044-.14-.13-.18-.258l-.132-.438c-.156.14-.31.264-.462.372a2.804 2.804 0 0 1-.462.264c-.16.072-.33.126-.51.162-.18.036-.38.054-.6.054-.26 0-.5-.034-.72-.102a1.618 1.618 0 0 1-.57-.318 1.448 1.448 0 0 1-.366-.522 1.852 1.852 0 0 1-.132-.726c0-.232.06-.46.18-.684.124-.228.328-.432.612-.612.284-.184.662-.336 1.134-.456.472-.12 1.058-.188 1.758-.204v-.36c0-.412-.088-.716-.264-.912-.172-.2-.424-.3-.756-.3a1.837 1.837 0 0 0-1.02.276c-.116.068-.224.13-.324.186a.664.664 0 0 1-.33.084.429.429 0 0 1-.258-.078.614.614 0 0 1-.174-.192l-.27-.474c.708-.648 1.562-.972 2.562-.972.36 0 .68.06.96.18.284.116.524.28.72.492.196.208.344.458.444.75.104.292.156.612.156.96v3.888Zm-2.88-.924c.153 0 .293-.014.42-.042.129-.028.249-.07.36-.126.117-.056.227-.124.33-.204.109-.084.217-.182.325-.294v-1.038c-.432.02-.794.058-1.086.114-.288.052-.52.12-.696.204a.923.923 0 0 0-.378.294.664.664 0 0 0-.108.366c0 .26.076.446.228.558.156.112.358.168.606.168ZM43.22 27.01c-.532 0-.942-.15-1.23-.45-.288-.305-.432-.723-.432-1.255v-3.438h-.624a.31.31 0 0 1-.21-.078c-.056-.052-.084-.13-.084-.234v-.588l.99-.162.312-1.68a.302.302 0 0 1 .108-.186.365.365 0 0 1 .222-.066h.768v1.938h1.62v1.056h-1.62v3.336c0 .192.048.342.144.45a.488.488 0 0 0 .384.162c.092 0 .168-.01.228-.03.064-.024.118-.048.162-.072.048-.024.09-.046.126-.066a.194.194 0 0 1 .108-.036.16.16 0 0 1 .108.036c.028.02.058.052.09.096l.444.72c-.216.18-.464.316-.744.408a2.77 2.77 0 0 1-.87.138ZM50.423 26.913h-.666c-.14 0-.25-.02-.33-.06-.08-.044-.14-.13-.18-.258l-.132-.438c-.156.14-.31.264-.462.372a2.804 2.804 0 0 1-.462.264c-.16.072-.33.126-.51.162-.18.036-.38.054-.6.054-.26 0-.5-.034-.72-.102a1.618 1.618 0 0 1-.57-.318 1.448 1.448 0 0 1-.366-.522 1.852 1.852 0 0 1-.132-.726c0-.232.06-.46.18-.684.124-.228.328-.432.612-.612.284-.184.662-.336 1.134-.456.472-.12 1.058-.188 1.758-.204v-.36c0-.412-.088-.716-.264-.912-.172-.2-.424-.3-.756-.3a1.837 1.837 0 0 0-1.02.276c-.116.068-.224.13-.324.186a.664.664 0 0 1-.33.084.429.429 0 0 1-.258-.078.614.614 0 0 1-.174-.192l-.27-.474c.708-.648 1.562-.972 2.562-.972.36 0 .68.06.96.18.284.116.524.28.72.492.196.208.344.458.444.75.104.292.156.612.156.96v3.888Zm-2.88-.924c.152 0 .292-.014.42-.042.128-.028.248-.07.36-.126.116-.056.226-.124.33-.204.108-.084.216-.182.324-.294v-1.038c-.432.02-.794.058-1.086.114-.288.052-.52.12-.696.204a.923.923 0 0 0-.378.294.664.664 0 0 0-.108.366c0 .26.076.446.228.558.156.112.358.168.606.168Z"/></svg></g><a id="title" href="https://ourworldindata.org/explorers/minerals?country=AUS~CHL~CHN~USA~CAN~ALB~DZA~ARG~ARM~AUT~AZE~BOL~OWID_WRL~BWA~BRA~BGR~COL~COG~CUB~CYP~OWID_CZS~COD~DOM~OWID_GDR~ZWE~ZMB~OWID_YGS~OWID_GFR~VNM~UZB~GBR~UGA~OWID_USS~TUR~TZA~TJK~TWN~SWE~ESP~KOR~ZAF~SVK~OWID_SRM~SRB~SAU~RUS~ROU~PRT~POL~PHL~PER~PNG~PAN~PAK~OMN~NOR~MKD~PRK~NIC~NZL~NAM~MMR~MOZ~MAR~MNG~MEX~MRT~MYS~LAO~KGZ~KEN~KAZ~JPN~ITA~ISR~IRL~IRN~IDN~IND~HUN~HND~HTI~GTM~GRC~DEU~GEO~FRA~FIN~ERI~ECU~VEN~ARE~UKR~CHE~SUR~LKA~SVN~QAT~NGA~NLD~MNE~ISL~GHA~EGY~HRV~CMR~BIH~BHR~AFG~OWID_KOS~MDG~NCL~SDN~Other~CZE~THA~TUN~CIV~GAB~RWA~NER~ETH~BDI~GRL~BLR~JOR~BEL~SEN~SLE~SGP~MWI&amp;Mineral=Uranium&amp;Metric=Production&amp;Type=Mine%2C+ilmenite&amp;Share+of+global=false" style="font-family:&#x27;Playfair Display&#x27;, Georgia, &#x27;Times New Roman&#x27;, &#x27;Liberation Serif&#x27;, serif" target="_blank" rel="noopener"><text font-size="24.75" font-weight="600" x="16.0" y="40.0" fill="#5b5b5b"><tspan x="16" y="40.0075">Uranium production, 1970 to 2022</tspan></text></a><g id="subtitle" class="markdown-text-wrap"><text x="16.0" y="63.9" style="font-size:14.625px;line-height:1.2" fill="#5b5b5b"><tspan x="16" y="63.9">Based on mined, rather than <tspan class="dod-span" data-id="refined-production">refined<tspan style="font-feature-settings:&quot;sups&quot;">ยน</tspan></tspan>, production. Measured in tonnes.</tspan></text></g></g><g id="chart-area" style="pointer-events:none"><g id="line-chart" class="LineChart"><defs><clipPath id="boundsClip-116"><rect x="60.14" y="73.25" width="838" height="470.35"></rect></clipPath></defs><rect x="16" y="83.25" width="818" height="450.35" fill="none"></rect><g id="dual-axis" class="DualAxisView"><g id="horizontal-axis" class="HorizontalAxis"><g id="tick__1970"><line x1="70.1" y1="512.6" x2="70.1" y2="518.1" stroke="#999" stroke-width="1"></line><text x="70.14" y="531.6" fill="#5b5b5b" text-anchor="start" font-size="13.5">1970</text></g><g id="tick__2022"><line x1="704.2" y1="512.6" x2="704.2" y2="518.1" stroke="#999" stroke-width="1"></line><text x="704.23" y="531.6" fill="#5b5b5b" text-anchor="end" font-size="13.5">2022</text></g><g id="tick__1980"><line x1="192.1" y1="512.6" x2="192.1" y2="518.1" stroke="#999" stroke-width="1"></line><text x="192.1" y="531.6" fill="#5b5b5b" text-anchor="middle" font-size="13.5">1980</text></g><g id="tick__1990"><line x1="314" y1="512.6" x2="314" y2="518.1" stroke="#999" stroke-width="1"></line><text x="314" y="531.6" fill="#5b5b5b" text-anchor="middle" font-size="13.5">1990</text></g><g id="tick__2000"><line x1="436" y1="512.6" x2="436" y2="518.1" stroke="#999" stroke-width="1"></line><text x="436" y="531.6" fill="#5b5b5b" text-anchor="middle" font-size="13.5">2000</text></g><g id="tick__2010"><line x1="557.9" y1="512.6" x2="557.9" y2="518.1" stroke="#999" stroke-width="1"></line><text x="557.9" y="531.6" fill="#5b5b5b" text-anchor="middle" font-size="13.5">2010</text></g></g><g id="vertical-axis" class="VerticalAxis"><g id="tick-labels"><text id="tick-label__0-t" x="65.14" y="513.1" dy=".32em" text-anchor="end" fill="#5b5b5b" font-size="13.5">0 t</text><text id="tick-label__10__002c000-t" x="65.14" y="445.8" dy=".32em" text-anchor="end" fill="#5b5b5b" font-size="13.5">10,000 t</text><text id="tick-label__20__002c000-t" x="65.14" y="378.4" dy=".32em" text-anchor="end" fill="#5b5b5b" font-size="13.5">20,000 t</text><text id="tick-label__30__002c000-t" x="65.14" y="311.1" dy=".32em" text-anchor="end" fill="#5b5b5b" font-size="13.5">30,000 t</text><text id="tick-label__40__002c000-t" x="65.14" y="243.8" dy=".32em" text-anchor="end" fill="#5b5b5b" font-size="13.5">40,000 t</text><text id="tick-label__50__002c000-t" x="65.14" y="176.4" dy=".32em" text-anchor="end" fill="#5b5b5b" font-size="13.5">50,000 t</text><text id="tick-label__60__002c000-t" x="65.14" y="109.1" dy=".32em" text-anchor="end" fill="#5b5b5b" font-size="13.5">60,000 t</text></g></g><g id="horizontal-grid-lines" class="AxisGridLines horizontalLines"><line id="grid-line__0" x1="70.14" y1="513.1" x2="704.23" y2="513.1" stroke="#999" stroke-width="1"></line><line id="grid-line__10000" x1="70.14" y1="445.8" x2="704.23" y2="445.8" stroke="#ddd" stroke-width="1" stroke-dasharray="3,2"></line><line id="grid-line__20000" x1="70.14" y1="378.4" x2="704.23" y2="378.4" stroke="#ddd" stroke-width="1" stroke-dasharray="3,2"></line><line id="grid-line__30000" x1="70.14" y1="311.1" x2="704.23" y2="311.1" stroke="#ddd" stroke-width="1" stroke-dasharray="3,2"></line><line id="grid-line__40000" x1="70.14" y1="243.8" x2="704.23" y2="243.8" stroke="#ddd" stroke-width="1" stroke-dasharray="3,2"></line><line id="grid-line__50000" x1="70.14" y1="176.4" x2="704.23" y2="176.4" stroke="#ddd" stroke-width="1" stroke-dasharray="3,2"></line><line id="grid-line__60000" x1="70.14" y1="109.1" x2="704.23" y2="109.1" stroke="#ddd" stroke-width="1" stroke-dasharray="3,2"></line></g></g><g clip-path="url(#boundsClip-116)"><g id="line-labels" class="LineLabels"><g id="mark__World" class="legendMark" style="cursor:default"><g id="connector" class="indicator"><path d="M708.23,193.9 H709.1610344827586 V92.85000000000002 H735.23" stroke="#999" stroke-width="0.5" fill="none"></path></g><rect id="background" x="704.23" y="86.10000000000002" width="70.235" height="13.5" fill="#fff" opacity="0"></rect><text id="label" font-size="13.50" font-weight="400" x="739.2" y="97.8" fill="#c15065"><tspan x="739.23" y="97.84500000000003">World</tspan></text></g><g id="mark__Kazakhstan" class="legendMark" style="cursor:default"><g id="connector" class="indicator"><path d="M708.23,370.2 H710.0920689655172 V108.35000000000002 H735.23" stroke="#999" stroke-width="0.5" fill="none"></path></g><rect id="background" x="704.23" y="101.60000000000002" width="105.875" height="13.5" fill="#fff" opacity="0"></rect><text id="label" font-size="13.50" font-weight="400" x="739.2" y="113.3" fill="#d73c50"><tspan x="739.23" y="113.34500000000003">Kazakhstan</tspan></text></g><g id="mark__USSR" class="legendMark" style="cursor:default"><g id="connector" class="indicator"><path d="M708.23,442.4 H711.0231034482758 V123.85000000000002 H735.23" stroke="#999" stroke-width="0.5" fill="none"></path></g><rect id="background" x="704.23" y="117.10000000000002" width="72.53" height="13.5" fill="#fff" opacity="0"></rect><text id="label" font-size="13.50" font-weight="400" x="739.2" y="128.8" fill="#996d39"><tspan x="739.23" y="128.84500000000003">USSR</tspan></text></g><g id="mark__Namibia" class="legendMark" style="cursor:default"><g id="connector" class="indicator"><path d="M708.23,475.3 H711.9541379310344 V139.35000000000002 H735.23" stroke="#999" stroke-width="0.5" fill="none"></path></g><rect id="background" x="704.23" y="132.60000000000002" width="84.545" height="13.5" fill="#fff" opacity="0"></rect><text id="label" font-size="13.50" font-weight="400" x="739.2" y="144.3" fill="#a2559c"><tspan x="739.23" y="144.34500000000003">Namibia</tspan></text></g><g id="mark__Canada" class="legendMark" style="cursor:default"><g id="connector" class="indicator"><path d="M708.23,477.9 H712.8851724137932 V154.85000000000002 H735.23" stroke="#999" stroke-width="0.5" fill="none"></path></g><rect id="background" x="704.23" y="148.10000000000002" width="82.52000000000001" height="13.5" fill="#fff" opacity="0"></rect><text id="label" font-size="13.50" font-weight="400" x="739.2" y="159.8" fill="#18470f"><tspan x="739.23" y="159.84500000000003">Canada</tspan></text></g><g id="mark__Australia" class="legendMark" style="cursor:default"><g id="connector" class="indicator"><path d="M708.23,482.7 H713.8162068965518 V170.35000000000002 H735.23" stroke="#999" stroke-width="0.5" fill="none"></path></g><rect id="background" x="704.23" y="163.60000000000002" width="87.65" height="13.5" fill="#fff" opacity="0"></rect><text id="label" font-size="13.50" font-weight="400" x="739.2" y="175.3" fill="#2c8465"><tspan x="739.23" y="175.34500000000003">Australia</tspan></text></g><g id="mark__Uzbekistan" class="legendMark" style="cursor:default"><g id="connector" class="indicator"><path d="M708.23,489.5 H714.7472413793104 V185.85000000000002 H735.23" stroke="#999" stroke-width="0.5" fill="none"></path></g><rect id="background" x="704.23" y="179.10000000000002" width="101.96000000000001" height="13.5" fill="#fff" opacity="0"></rect><text id="label" font-size="13.50" font-weight="400" x="739.2" y="190.8" fill="#18470f"><tspan x="739.23" y="190.84500000000003">Uzbekistan</tspan></text></g><g id="mark__Russia" class="legendMark" style="cursor:default"><g id="connector" class="indicator"><path d="M708.23,496.2 H715.678275862069 V201.35000000000002 H735.23" stroke="#999" stroke-width="0.5" fill="none"></path></g><rect id="background" x="704.23" y="194.60000000000002" width="76.31" height="13.5" fill="#fff" opacity="0"></rect><text id="label" font-size="13.50" font-weight="400" x="739.2" y="206.3" fill="#8c4569"><tspan x="739.23" y="206.34500000000003">Russia</tspan></text></g><g id="mark__Niger" class="legendMark" style="cursor:default"><g id="connector" class="indicator"><path d="M708.23,499.5 H716.6093103448276 V216.85000000000002 H735.23" stroke="#999" stroke-width="0.5" fill="none"></path></g><rect id="background" x="704.23" y="210.10000000000002" width="67.265" height="13.5" fill="#fff" opacity="0"></rect><text id="label" font-size="13.50" font-weight="400" x="739.2" y="221.8" fill="#6d3e91"><tspan x="739.23" y="221.84500000000003">Niger</tspan></text></g><g id="mark__China" class="legendMark" style="cursor:default"><g id="connector" class="indicator"><path d="M708.23,501.7 H717.5403448275862 V232.35000000000002 H735.23" stroke="#999" stroke-width="0.5" fill="none"></path></g><rect id="background" x="704.23" y="225.60000000000002" width="70.37" height="13.5" fill="#fff" opacity="0"></rect><text id="label" font-size="13.50" font-weight="400" x="739.2" y="237.3" fill="#cf0a66"><tspan x="739.23" y="237.34500000000003">China</tspan></text></g><g id="mark__Czechoslovakia" class="legendMark" style="cursor:default"><g id="connector" class="indicator"><path d="M708.23,502.7 H718.4713793103448 V247.85000000000002 H735.23" stroke="#999" stroke-width="0.5" fill="none"></path></g><rect id="background" x="704.23" y="241.10000000000002" width="129.77" height="13.5" fill="#fff" opacity="0"></rect><text id="label" font-size="13.50" font-weight="400" x="739.2" y="252.8" fill="#b16214"><tspan x="739.23" y="252.84500000000003">Czechoslovakia</tspan></text></g><g id="mark__India" class="legendMark" style="cursor:default"><g id="connector" class="indicator"><path d="M708.23,509.1 H719.4024137931035 V263.35 H735.23" stroke="#999" stroke-width="0.5" fill="none"></path></g><rect id="background" x="704.23" y="256.6" width="64.43" height="13.5" fill="#fff" opacity="0"></rect><text id="label" font-size="13.50" font-weight="400" x="739.2" y="268.3" fill="#286bbb"><tspan x="739.23" y="268.345">India</tspan></text></g><g id="mark__Malawi" class="legendMark" style="cursor:default"><g id="connector" class="indicator"><path d="M708.23,510.6 H720.3334482758621 V278.85 H735.23" stroke="#999" stroke-width="0.5" fill="none"></path></g><rect id="background" x="704.23" y="272.1" width="76.985" height="13.5" fill="#fff" opacity="0"></rect><text id="label" font-size="13.50" font-weight="400" x="739.2" y="283.8" fill="#cf0a66"><tspan x="739.23" y="283.845">Malawi</tspan></text></g><g id="mark__Gabon" class="legendMark" style="cursor:default"><g id="connector" class="indicator"><path d="M708.23,511.1 H721.2644827586207 V294.35 H735.23" stroke="#999" stroke-width="0.5" fill="none"></path></g><rect id="background" x="704.23" y="287.6" width="75.77000000000001" height="13.5" fill="#fff" opacity="0"></rect><text id="label" font-size="13.50" font-weight="400" x="739.2" y="299.3" fill="#be5915"><tspan x="739.23" y="299.345">Gabon</tspan></text></g><g id="mark__Hungary" class="legendMark" style="cursor:default"><g id="connector" class="indicator"><path d="M708.23,511.6 H722.1955172413793 V309.85 H735.23" stroke="#999" stroke-width="0.5" fill="none"></path></g><rect id="background" x="704.23" y="303.1" width="86.165" height="13.5" fill="#fff" opacity="0"></rect><text id="label" font-size="13.50" font-weight="400" x="739.2" y="314.8" fill="#883039"><tspan x="739.23" y="314.845">Hungary</tspan></text></g><g id="mark__South-Africa" class="legendMark" style="cursor:default"><g id="connector" class="indicator"><path d="M708.23,511.8 H723.1265517241379 V325.35 H735.23" stroke="#999" stroke-width="0.5" fill="none"></path></g><rect id="background" x="704.23" y="318.6" width="108.845" height="13.5" fill="#fff" opacity="0"></rect><text id="label" font-size="13.50" font-weight="400" x="739.2" y="330.3" fill="#00847e"><tspan x="739.23" y="330.345">South Africa</tspan></text></g><g id="mark__Ukraine" class="legendMark" style="cursor:default"><g id="connector" class="indicator"><path d="M708.23,512.4 H724.0575862068965 V340.85 H735.23" stroke="#999" stroke-width="0.5" fill="none"></path></g><rect id="background" x="704.23" y="334.1" width="81.575" height="13.5" fill="#fff" opacity="0"></rect><text id="label" font-size="13.50" font-weight="400" x="739.2" y="345.8" fill="#b16214"><tspan x="739.23" y="345.845">Ukraine</tspan></text></g><g id="mark__United-States" class="legendMark" style="cursor:default"><g id="connector" class="indicator"><path d="M708.23,512.6 H724.9886206896551 V356.35 H735.23" stroke="#999" stroke-width="0.5" fill="none"></path></g><rect id="background" x="704.23" y="349.6" width="116.405" height="13.5" fill="#fff" opacity="0"></rect><text id="label" font-size="13.50" font-weight="400" x="739.2" y="361.3" fill="#6d3e91"><tspan x="739.23" y="361.345">United States</tspan></text></g><g id="mark__Belgium" class="legendMark" style="cursor:default"><g id="connector" class="indicator"><path d="M708.23,512.7 H725.9196551724137 V371.85 H735.23" stroke="#999" stroke-width="0.5" fill="none"></path></g><rect id="background" x="704.23" y="365.1" width="83.87" height="13.5" fill="#fff" opacity="0"></rect><text id="label" font-size="13.50" font-weight="400" x="739.2" y="376.8" fill="#c15065"><tspan x="739.23" y="376.845">Belgium</tspan></text></g><g id="mark__Pakistan" class="legendMark" style="cursor:default"><g id="connector" class="indicator"><path d="M708.23,512.8 H726.8506896551725 V387.35 H735.23" stroke="#999" stroke-width="0.5" fill="none"></path></g><rect id="background" x="704.23" y="380.6" width="86.975" height="13.5" fill="#fff" opacity="0"></rect><text id="label" font-size="13.50" font-weight="400" x="739.2" y="392.3" fill="#18470f"><tspan x="739.23" y="392.345">Pakistan</tspan></text></g><g id="mark__Brazil" class="legendMark" style="cursor:default"><g id="connector" class="indicator"><path d="M708.23,512.8 H727.7817241379311 V402.85 H735.23" stroke="#999" stroke-width="0.5" fill="none"></path></g><rect id="background" x="704.23" y="396.1" width="68.75" height="13.5" fill="#fff" opacity="0"></rect><text id="label" font-size="13.50" font-weight="400" x="739.2" y="407.8" fill="#578145"><tspan x="739.23" y="407.845">Brazil</tspan></text></g><g id="mark__Iran" class="legendMark" style="cursor:default"><g id="connector" class="indicator"><path d="M708.23,513 H728.7127586206897 V418.35 H735.23" stroke="#999" stroke-width="0.5" fill="none"></path></g><rect id="background" x="704.23" y="411.6" width="58.355000000000004" height="13.5" fill="#fff" opacity="0"></rect><text id="label" font-size="13.50" font-weight="400" x="739.2" y="423.3" fill="#cf0a66"><tspan x="739.23" y="423.345">Iran</tspan></text></g><g id="mark__Czechia" class="legendMark" style="cursor:default"><g id="connector" class="indicator"><path d="M708.23,513 H729.6437931034483 V433.85 H735.23" stroke="#999" stroke-width="0.5" fill="none"></path></g><rect id="background" x="704.23" y="427.1" width="83.87" height="13.5" fill="#fff" opacity="0"></rect><text id="label" font-size="13.50" font-weight="400" x="739.2" y="438.8" fill="#00875e"><tspan x="739.23" y="438.845">Czechia</tspan></text></g><g id="mark__West-Germany" class="legendMark" style="cursor:default"><g id="connector" class="indicator"><path d="M708.23,513 H730.5748275862069 V449.35 H735.23" stroke="#999" stroke-width="0.5" fill="none"></path></g><rect id="background" x="704.23" y="442.6" width="125.18" height="13.5" fill="#fff" opacity="0"></rect><text id="label" font-size="13.50" font-weight="400" x="739.2" y="454.3" fill="#6d3e91"><tspan x="739.23" y="454.345">West Germany</tspan></text></g><g id="mark__France" class="legendMark" style="cursor:default"><g id="connector" class="indicator"><path d="M708.23,513 H731.5058620689655 V464.85 H735.23" stroke="#999" stroke-width="0.5" fill="none"></path></g><rect id="background" x="704.23" y="458.1" width="77.12" height="13.5" fill="#fff" opacity="0"></rect><text id="label" font-size="13.50" font-weight="400" x="739.2" y="469.8" fill="#578145"><tspan x="739.23" y="469.845">France</tspan></text></g><g id="mark__Argentina" class="legendMark" style="cursor:default"><g id="connector" class="indicator"><path d="M708.23,513 H732.4368965517241 V480.35 H735.23" stroke="#999" stroke-width="0.5" fill="none"></path></g><rect id="background" x="704.23" y="473.6" width="93.05000000000001" height="13.5" fill="#fff" opacity="0"></rect><text id="label" font-size="13.50" font-weight="400" x="739.2" y="485.3" fill="#996d39"><tspan x="739.23" y="485.345">Argentina</tspan></text></g><g id="mark__Spain" class="legendMark" style="cursor:default"><g id="connector" class="indicator"><path d="M708.23,513.1 H733.3679310344828 V495.85 H735.23" stroke="#999" stroke-width="0.5" fill="none"></path></g><rect id="background" x="704.23" y="489.1" width="69.695" height="13.5" fill="#fff" opacity="0"></rect><text id="label" font-size="13.50" font-weight="400" x="739.2" y="500.8" fill="#578145"><tspan x="739.23" y="500.845">Spain</tspan></text></g><g id="mark__Portugal" class="legendMark" style="cursor:default"><g id="connector" class="indicator"><path d="M708.23,513.1 H734.2989655172414 V511.35 H735.23" stroke="#999" stroke-width="0.5" fill="none"></path></g><rect id="background" x="704.23" y="504.6" width="85.49000000000001" height="13.5" fill="#fff" opacity="0"></rect><text id="label" font-size="13.50" font-weight="400" x="739.2" y="516.3" fill="#d73c50"><tspan x="739.23" y="516.345">Portugal</tspan></text></g><g id="mark__Romania" class="legendMark" style="cursor:default"><g id="connector" class="indicator"><path d="M708.23,513.1 H734.2989655172414 V526.85 H735.23" stroke="#999" stroke-width="0.5" fill="none"></path></g><rect id="background" x="704.23" y="520.1" width="89.135" height="13.5" fill="#fff" opacity="0"></rect><text id="label" font-size="13.50" font-weight="400" x="739.2" y="531.8" fill="#338711"><tspan x="739.23" y="531.845">Romania</tspan></text></g></g><g id="lines" class="Lines"><rect x="70" y="89" width="634" height="424" fill="rgba(255,255,255,0)" opacity="0"></rect><g id="line__Iran"><path stroke-linecap="round" stroke-linejoin="round" stroke="#ddd" d="M618.9 512.8L631.1 513.1L643.3 512.8L655.5 512.6L667.6 512.6L679.8 512.6L692 513L704.2 513" fill="none" stroke-width="1"></path></g><g id="line__Malawi"><path stroke-linecap="round" stroke-linejoin="round" stroke="#ddd" d="M509.1 513.1L521.3 513.1L533.5 513.1L545.7 512.5L557.9 508.6L570.1 507.8L582.3 505.7L594.5 505.5L606.7 510.6" fill="none" stroke-width="1"></path></g><g id="line__Romania"><path stroke-linecap="round" stroke-linejoin="round" stroke="#ddd" d="M350.6 512.3L362.8 512.3L375 512.4L387.2 512.4L399.4 512.4L411.6 512.4L423.8 512.4L436 512.8L448.2 512.5L460.3 512.5L472.5 512.5L484.7 512.5L496.9 512.5L509.1 512.5L521.3 512.6L533.5 512.6L545.7 512.6L557.9 512.6L570.1 512.6L582.3 512.5L594.5 512.6L606.7 512.6L618.9 512.6L631.1 512.8L643.3 513.1" fill="none" stroke-width="1"></path></g><g id="line__Pakistan"><path stroke-linecap="round" stroke-linejoin="round" stroke="#ddd" d="M350.6 512.9L362.8 512.9L375 512.9L387.2 512.9L399.4 512.9L411.6 512.9L423.8 512.9L436 512.9L448.2 512.8L460.3 512.8L472.5 512.8L484.7 512.8L496.9 512.8L509.1 512.8L521.3 512.8L533.5 512.8L545.7 512.8L557.9 512.8L570.1 512.8L582.3 512.8L594.5 512.8L606.7 512.8L618.9 512.8L631.1 512.8L643.3 512.8L655.5 512.8L667.6 512.8L679.8 512.8L692 512.8L704.2 512.8" fill="none" stroke-width="1"></path></g><g id="line__Uzbekistan"><path stroke-linecap="round" stroke-linejoin="round" stroke="#ddd" d="M338.4 495.1L350.6 495.6L362.8 499.5L375 501L387.2 503.3L399.4 501.2L411.6 499.6L423.8 498.8L436 497.3L448.2 499.9L460.3 500.6L472.5 501.2L484.7 499.4L496.9 495.4L509.1 497.8L521.3 497.5L533.5 497.4L545.7 496.7L557.9 496.9L570.1 492.9L582.3 492.9L594.5 496.9L606.7 496.9L618.9 497L631.1 490.7L643.3 490.2L655.5 489.9L667.6 489.5L679.8 489.5L692 489.5L704.2 489.5" fill="none" stroke-width="1"></path></g><g id="line__Ukraine"><path stroke-linecap="round" stroke-linejoin="round" stroke="#ddd" d="M338.4 509.7L350.6 509.7L362.8 509.7L375 509.7L387.2 509.7L399.4 509.7L411.6 509.7L423.8 509.7L436 509.7L448.2 508.1L460.3 507.7L472.5 507.7L484.7 507.7L496.9 507.7L509.1 507.7L521.3 507.4L533.5 507.7L545.7 507.4L557.9 507.4L570.1 507.1L582.3 506.6L594.5 506.9L606.7 506.9L618.9 505L631.1 507.7L643.3 508.3L655.5 507.8L667.6 507.7L679.8 508.1L692 510L704.2 512.4" fill="none" stroke-width="1"></path></g><g id="line__Russia"><path stroke-linecap="round" stroke-linejoin="round" stroke="#ddd" d="M338.4 495.3L350.6 496.9L362.8 493.1L375 498L387.2 499.6L399.4 499.6L411.6 499.6L423.8 499.6L436 499.6L448.2 496.3L460.3 493.6L472.5 491.9L484.7 491L496.9 490L509.1 491.1L521.3 490.1L533.5 489.4L545.7 489.1L557.9 489.1L570.1 492.9L582.3 493.8L594.5 492L606.7 493L618.9 492.5L631.1 492.9L643.3 493.5L655.5 493.5L667.6 493.5L679.8 493.9L692 495.4L704.2 496.2" fill="none" stroke-width="1"></path></g><g id="line__Kazakhstan"><path stroke-linecap="round" stroke-linejoin="round" stroke="#ddd" d="M338.4 494.2L350.6 494.9L362.8 498L375 502.1L387.2 505L399.4 506.4L411.6 505.9L423.8 503.9L436 501.3L448.2 499.3L460.3 494.2L472.5 490.9L484.7 488.1L496.9 483.8L509.1 477.6L521.3 468.4L533.5 455.7L545.7 419.5L557.9 393.2L570.1 382.1L582.3 369.6L594.5 361.2L606.7 357.4L618.9 354.1L631.1 347.6L643.3 356.1L655.5 367L667.6 359.5L679.8 382L692 366.2L704.2 370.2" fill="none" stroke-width="1"></path></g><g id="line__Czechia"><path stroke-linecap="round" stroke-linejoin="round" stroke="#ddd" d="M338.4 513.1L350.6 506.2L362.8 509.5L375 509L387.2 509.1L399.4 508.9L411.6 509L423.8 509L436 509.7L448.2 509.8L460.3 509.9L472.5 510L484.7 510.2L496.9 510.3L509.1 510.5L521.3 510.9L533.5 511.1L545.7 511.2L557.9 511.4L570.1 511.4L582.3 511.6L594.5 511.5L606.7 512L618.9 512.2L631.1 512.2L643.3 512.7L655.5 512.9L667.6 512.9L679.8 512.9L692 512.9L704.2 513" fill="none" stroke-width="1"></path></g><g id="line__Hungary"><path stroke-linecap="round" stroke-linejoin="round" stroke="#ddd" d="M326.2 510.3L338.4 510.2L350.6 510.5L362.8 510.3L375 511.6L387.2 511.6L399.4 511.6" fill="none" stroke-width="1"></path></g><g id="line__Germany"><path stroke-linecap="round" stroke-linejoin="round" stroke="#ddd" d="M326.2 505L338.4 511.5L350.6 512.3L399.4 512.9L411.6 512.9L423.8 512.9L436 512.9L448.2 512.9L460.3 511.6L472.5 512.4L484.7 512.6L496.9 512.6L509.1 512.7L521.3 512.8L533.5 513.1L545.7 513.1L557.9 513L570.1 512.7L582.3 512.8L594.5 512.9L606.7 512.9L618.9 513.1L631.1 512.8L643.3 512.9L655.5 513.1L667.6 512.9L679.8 513L692 513.1L704.2 513.1" fill="none" stroke-width="1"></path></g><g id="line__USSR"><path stroke-linecap="round" stroke-linejoin="round" stroke="#ddd" d="M314 442.4L326.2 442.4" fill="none" stroke-width="1"></path></g><g id="line__Czechoslovakia"><path stroke-linecap="round" stroke-linejoin="round" stroke="#ddd" d="M314 498.7L326.2 501.1L338.4 502.7" fill="none" stroke-width="1"></path></g><g id="line__China"><path stroke-linecap="round" stroke-linejoin="round" stroke="#ddd" d="M289.6 510.8L301.8 507.7L314 507.7L326.2 507.7L338.4 506.7L350.6 507.8L362.8 507.8L375 509.7L387.2 509.7L399.4 509.7L411.6 509.7L423.8 509.7L436 509.7L448.2 508.6L460.3 508.2L472.5 508.1L484.7 508.1L496.9 508.1L509.1 508.1L521.3 508.3L533.5 507.9L545.7 508.1L557.9 507.5L570.1 507.1L582.3 503L594.5 503L606.7 503L618.9 502.2L631.1 502.2L643.3 501.7L655.5 500.4L667.6 500.4L679.8 500.4L692 502.3L704.2 501.7" fill="none" stroke-width="1"></path></g><g id="line__Yugoslavia"><path stroke-linecap="round" stroke-linejoin="round" stroke="#ddd" d="M204.3 513.1L216.5 513.1L228.7 513.1L240.9 512.8L253.1 512.9L265.2 512.6L277.4 512.6L289.6 512.6L301.8 512.5L314 512.7L326.2 513.1" fill="none" stroke-width="1"></path></g><g id="line__Brazil"><path stroke-linecap="round" stroke-linejoin="round" stroke="#ddd" d="M204.3 513.1L216.5 511.5L228.7 511.8L240.9 512.3L253.1 512.6L265.2 512.9L277.4 512.4L289.6 513L301.8 512.9L314 513.1L326.2 513.1L338.4 513.1L350.6 512.8L362.8 512.8L375 512.3L423.8 513.1L436 512.8L448.2 512.7L460.3 511.3L472.5 511L484.7 511.1L496.9 512.4L509.1 511.8L521.3 511.1L533.5 510.9L545.7 510.8L557.9 512.1L570.1 511.3L582.3 510.9L594.5 511.8L606.7 512.7L618.9 512.8L631.1 512.8L643.3 513.1L655.5 513.1L667.6 513.1L679.8 513L692 512.9L704.2 512.8" fill="none" stroke-width="1"></path></g><g id="line__Belgium"><path stroke-linecap="round" stroke-linejoin="round" stroke="#ddd" d="M192.1 513L204.3 512.8L216.5 512.8L228.7 512.8L240.9 512.8L253.1 512.8L265.2 512.8L277.4 512.7" fill="none" stroke-width="1"></path></g><g id="line__India"><path stroke-linecap="round" stroke-linejoin="round" stroke="#ddd" d="M179.9 512.1L192.1 512.4L204.3 512.4L216.5 512.4L228.7 512.4L240.9 512.4L253.1 512.3L265.2 512.3L277.4 512.2L289.6 512.3L301.8 511.7L314 511.7L326.2 511.8L338.4 511.6L350.6 511.1L362.8 511.8L375 511.8L387.2 511.8L399.4 511.8L411.6 511.8L423.8 511.8L436 511.8L448.2 511.6L460.3 511.6L472.5 511.6L484.7 511.6L496.9 511.6L509.1 511.6L521.3 511.3L533.5 511.3L545.7 511.1L557.9 510.4L570.1 510.4L582.3 510.5L594.5 510.5L606.7 510.5L618.9 510.5L631.1 510.5L643.3 510.3L655.5 510.3L667.6 511L679.8 510.4L692 509L704.2 509.1" fill="none" stroke-width="1"></path></g><g id="line__Australia"><path stroke-linecap="round" stroke-linejoin="round" stroke="#ddd" d="M143.3 510.7L155.5 510.7L167.7 509.6L179.9 508.3L192.1 502.6L204.3 493.4L216.5 483.3L228.7 491.5L240.9 484L253.1 491.5L265.2 485.1L277.4 487.6L289.6 489.3L301.8 487.5L314 489.3L326.2 487.7L338.4 497.4L350.6 497.9L362.8 498.2L375 488.1L387.2 479.6L399.4 476.1L411.6 480.1L423.8 472.7L436 462L448.2 461.6L460.3 465L472.5 461.7L484.7 452.4L496.9 449L509.1 461.9L521.3 455.2L533.5 456.1L545.7 459.6L557.9 472.9L570.1 473L582.3 465.9L594.5 470.1L606.7 478.8L618.9 475L631.1 471.1L643.3 474.6L655.5 468.9L667.6 469L679.8 471.6L692 487.6L704.2 482.7" fill="none" stroke-width="1"></path></g><g id="line__West-Germany"><path stroke-linecap="round" stroke-linejoin="round" stroke="#ddd" d="M131.1 512.7L143.3 512.8L155.5 513L167.7 512.8L179.9 512.9L192.1 512.8L204.3 512.9L216.5 512.9L228.7 512.8L240.9 512.9L253.1 512.9L265.2 513" fill="none" stroke-width="1"></path></g><g id="line__Namibia"><path stroke-linecap="round" stroke-linejoin="round" stroke="#ddd" d="M131.1 513.1L143.3 509.1L155.5 497.3L167.7 495L179.9 487.3L192.1 485.9L204.3 486.4L216.5 487.7L228.7 488.1L240.9 487.5L253.1 490.2L265.2 489.5L277.4 489.3L289.6 489.5L301.8 491.6L314 490.7L326.2 496.6L338.4 502.8L350.6 502.9L362.8 501.5L375 500.9L387.2 498.1L399.4 495.4L411.6 496.1L423.8 496.7L436 496.5L448.2 499.4L460.3 492.5L472.5 496.8L484.7 491.8L496.9 491.9L509.1 492.4L521.3 493.7L533.5 483.7L545.7 481.9L557.9 482.8L570.1 491.1L582.3 482.8L594.5 484L606.7 490.8L618.9 493.2L631.1 488.5L643.3 482.6L655.5 473.5L667.6 475.2L679.8 484.8L692 474.4L704.2 475.3" fill="none" stroke-width="1"></path></g><g id="line__World"><path stroke-linecap="round" stroke-linejoin="round" stroke="#ddd" d="M70.1 391.5L82.3 387.2L94.5 381.1L106.7 379.6L118.9 384.8L131.1 375.9L143.3 353.4L155.5 324.1L167.7 279.8L179.9 247.3L192.1 217L204.3 217.6L216.5 235.2L228.7 268.1L240.9 257.9L253.1 279.2L265.2 262.3L277.4 266.3L289.6 265.5L301.8 274.8L314 230.6L326.2 240.8L338.4 272.1L350.6 295.8L362.8 302.6L375 293.4L387.2 279.7L399.4 274.6L411.6 288.2L423.8 306.3L436 280.5L448.2 270.3L460.3 263.5L472.5 269.5L484.7 240.9L496.9 230.1L509.1 247.4L521.3 234.5L533.5 217.8L545.7 172.6L557.9 153.2L570.1 151.4L582.3 114.1L594.5 114L606.7 134.8L618.9 106.7L631.1 89.3L643.3 108.5L655.5 144.4L667.6 146L679.8 199.3L692 194.3L704.2 193.9" fill="none" stroke-width="1"></path></g><g id="line__United-States"><path stroke-linecap="round" stroke-linejoin="round" stroke="#ddd" d="M70.1 446.9L82.3 446.2L94.5 446.3L106.7 444.5L118.9 453.4L131.1 453.2L143.3 447.5L155.5 436.6L167.7 417.2L179.9 416.1L192.1 400L204.3 413.4L216.5 443.7L228.7 457.9L240.9 474.7L253.1 484.1L265.2 478.1L277.4 479.4L289.6 479.1L301.8 477.4L314 490L326.2 492.5L338.4 498.5L350.6 505.1L362.8 504.4L375 497.5L387.2 496.8L399.4 498.5L411.6 500.9L423.8 501.2L436 502.9L448.2 506.3L460.3 507L472.5 507.9L484.7 507.2L496.9 506.1L509.1 502.5L521.3 501.3L533.5 503L545.7 503.5L557.9 502.1L570.1 502.8L582.3 502.4L594.5 501L606.7 500.4L618.9 504.4L631.1 505.5L643.3 506.8L655.5 509.2L667.6 512.7L679.8 513.1L692 513L704.2 512.6" fill="none" stroke-width="1"></path></g><g id="line__Spain"><path stroke-linecap="round" stroke-linejoin="round" stroke="#ddd" d="M70.1 512.6L82.3 512.3L94.5 512.3L106.7 512.6L118.9 512.7L131.1 512.1L143.3 511.8L155.5 512L167.7 512.1L179.9 512L192.1 512L204.3 512.1L216.5 512.1L228.7 511.9L240.9 511.8L253.1 511.7L265.2 511.7L277.4 511.6L289.6 511.6L301.8 511.6L314 512L326.2 511.8L338.4 511.8L350.6 511.9L362.8 511.4L375 511.4L387.2 511.4L399.4 511.4L411.6 511.4L423.8 511.4L436 511.4L448.2 513.1L460.3 513.1" fill="none" stroke-width="1"></path></g><g id="line__South-Africa"><path stroke-linecap="round" stroke-linejoin="round" stroke="#ddd" d="M70.1 491.8L82.3 491.6L94.5 492.4L106.7 495.4L118.9 494.8L131.1 496.3L143.3 494.3L155.5 490.4L167.7 486.3L179.9 480.9L192.1 471.4L204.3 471.8L216.5 474.1L228.7 472.4L240.9 474.5L253.1 480.3L265.2 481.9L277.4 486.4L289.6 486.9L301.8 493.4L314 496.7L326.2 501.5L338.4 501.8L350.6 501.6L362.8 502.2L375 503.4L387.2 503.4L399.4 505.5L411.6 506.6L423.8 506.9L436 507.3L448.2 507L460.3 507.4L472.5 508L484.7 508L496.9 508.6L509.1 509.5L521.3 509.6L533.5 509.4L545.7 509.5L557.9 509.2L570.1 509.4L582.3 510L594.5 509.5L606.7 509.3L618.9 510.1L631.1 510.5L643.3 510.7L655.5 511.8L667.6 512L679.8 512.3L692 512.1L704.2 511.8" fill="none" stroke-width="1"></path></g><g id="line__Portugal"><path stroke-linecap="round" stroke-linejoin="round" stroke="#ddd" d="M70.1 512.6L82.3 512.6L94.5 512.6L106.7 512.6L118.9 512.5L131.1 512.3L143.3 512.5L155.5 512.5L167.7 512.5L179.9 512.4L192.1 512.6L204.3 512.5L216.5 512.4L228.7 512.5L240.9 512.4L253.1 512.4L265.2 512.4L277.4 512.3L289.6 512.1L301.8 512.2L314 512.4L326.2 512.9L338.4 512.9L350.6 512.9L362.8 512.9L375 513L387.2 513L399.4 513L411.6 513L423.8 513L436 513L448.2 513.1L460.3 513.1" fill="none" stroke-width="1"></path></g><g id="line__Niger"><path stroke-linecap="round" stroke-linejoin="round" stroke="#ddd" d="M70.1 512.8L82.3 510.2L94.5 508.1L106.7 506.7L118.9 505.6L131.1 504.3L143.3 503.3L155.5 503.4L167.7 499.2L179.9 488.8L192.1 485.3L204.3 483.7L216.5 484.4L228.7 490L240.9 491.1L253.1 491.7L265.2 492.1L277.4 493.1L289.6 493.2L301.8 493L314 494L326.2 493.1L338.4 493.1L350.6 493.5L362.8 493.1L375 493.1L387.2 490.7L399.4 489.6L411.6 488.1L423.8 493.5L436 493.6L448.2 493.4L460.3 492.4L472.5 491.9L484.7 491.1L496.9 492.3L509.1 490L521.3 491.9L533.5 492.9L545.7 491.3L557.9 484.8L570.1 485.1L582.3 480.6L594.5 484.3L606.7 485.1L618.9 485.4L631.1 489.7L643.3 489.6L655.5 493.5L667.6 493.8L679.8 493L692 497.7L704.2 499.5" fill="none" stroke-width="1"></path></g><g id="line__Gabon"><path stroke-linecap="round" stroke-linejoin="round" stroke="#ddd" d="M70.1 510.6L82.3 510.1L94.5 510.1L106.7 508.7L118.9 507.9L131.1 506.8L143.3 506.6L155.5 507L167.7 506.2L179.9 505.7L192.1 506.1L204.3 506.2L216.5 506.6L228.7 506.3L240.9 506.9L253.1 506.8L265.2 506.9L277.4 507.8L289.6 506.8L301.8 507.1L314 508.3L326.2 508.5L338.4 509.1L350.6 509.7L362.8 509.1L375 508.9L387.2 509.3L399.4 509.9L411.6 508.2L423.8 511.1" fill="none" stroke-width="1"></path></g><g id="line__France"><path stroke-linecap="round" stroke-linejoin="round" stroke="#ddd" d="M70.1 504.4L82.3 504.5L94.5 503.5L106.7 502.5L118.9 501.5L131.1 501.5L143.3 500.5L155.5 499.3L167.7 493.5L179.9 490.7L192.1 493.9L204.3 495.9L216.5 493.8L228.7 492L240.9 492.1L253.1 491.2L265.2 491.3L277.4 490.4L289.6 490.4L301.8 490.7L314 493.3L326.2 496.4L338.4 493.7L350.6 501.6L362.8 506.2L375 506.5L387.2 506.8L399.4 508.1L411.6 509.7L423.8 510.2L436 511L448.2 511.8L460.3 513" fill="none" stroke-width="1"></path></g><g id="line__Canada"><path stroke-linecap="round" stroke-linejoin="round" stroke="#ddd" d="M70.1 491.8L82.3 491.8L94.5 487.8L106.7 488.4L118.9 488.3L131.1 481.6L143.3 476.5L155.5 474.1L167.7 467.3L179.9 469.1L192.1 467.7L204.3 462.6L216.5 461.6L228.7 467.2L240.9 443.9L253.1 439.9L265.2 434.2L277.4 429.4L289.6 429.2L301.8 436.2L314 454L326.2 458.2L338.4 450.5L350.6 451.5L362.8 448.2L375 442.7L387.2 434.4L399.4 432.2L411.6 439.5L423.8 457.8L436 441.2L448.2 429L460.3 434.9L472.5 442.7L484.7 435L496.9 434.8L509.1 446.7L521.3 449.3L533.5 452.5L545.7 444.6L557.9 449L570.1 451.5L582.3 452.5L594.5 450.3L606.7 451.8L618.9 423.4L631.1 418.6L643.3 429.4L655.5 463.8L667.6 466.8L679.8 485.6L692 482L704.2 477.9" fill="none" stroke-width="1"></path></g><g id="line__Argentina"><path stroke-linecap="round" stroke-linejoin="round" stroke="#ddd" d="M70.1 512.8L82.3 512.8L94.5 512.8L106.7 512.8L118.9 512.9L131.1 512.9L143.3 511.9L155.5 511.9L167.7 512.1L179.9 508.1L192.1 511.5L204.3 511.8L216.5 509.2L228.7 511.9L240.9 512.2L253.1 512.3L265.2 511.9L277.4 512.5L289.6 512.1L301.8 512.7L314 513L326.2 513L338.4 512.3L350.6 512.3L362.8 512.6L375 512.7L387.2 512.9L399.4 512.9L411.6 513L423.8 513" fill="none" stroke-width="1"></path></g><g id="line__Iran"><path id="outline" fill="none" stroke-linecap="butt" stroke-linejoin="round" stroke="#fff" stroke-width="2.5" d="M618.9 512.8L631.1 513.1L643.3 512.8L655.5 512.6L667.6 512.6L679.8 512.6L692 513L704.2 513"></path><g id="polyline"><polyline id="polyline" points="618.90,512.80 631.10,513.10 643.30,512.80 655.50,512.60 667.60,512.60 679.80,512.60 692.00,513.00 704.20,513.00" stroke-linejoin="round" stroke-width="1.5" stroke="#CF0A66" fill="none" stroke-linecap="butt"></polyline></g></g><g id="line__Malawi"><path id="outline" fill="none" stroke-linecap="butt" stroke-linejoin="round" stroke="#fff" stroke-width="2.5" d="M509.1 513.1L521.3 513.1L533.5 513.1L545.7 512.5L557.9 508.6L570.1 507.8L582.3 505.7L594.5 505.5L606.7 510.6"></path><g id="polyline"><polyline id="polyline" points="509.10,513.10 521.30,513.10 533.50,513.10 545.70,512.50 557.90,508.60 570.10,507.80 582.30,505.70 594.50,505.50 606.70,510.60" stroke-linejoin="round" stroke-width="1.5" stroke="#CF0A66" fill="none" stroke-linecap="butt"></polyline></g></g><g id="line__Romania"><path id="outline" fill="none" stroke-linecap="butt" stroke-linejoin="round" stroke="#fff" stroke-width="2.5" d="M350.6 512.3L362.8 512.3L375 512.4L387.2 512.4L399.4 512.4L411.6 512.4L423.8 512.4L436 512.8L448.2 512.5L460.3 512.5L472.5 512.5L484.7 512.5L496.9 512.5L509.1 512.5L521.3 512.6L533.5 512.6L545.7 512.6L557.9 512.6L570.1 512.6L582.3 512.5L594.5 512.6L606.7 512.6L618.9 512.6L631.1 512.8L643.3 513.1"></path><g id="polyline"><polyline id="polyline" points="350.60,512.30 362.80,512.30 375.00,512.40 387.20,512.40 399.40,512.40 411.60,512.40 423.80,512.40 436.00,512.80 448.20,512.50 460.30,512.50 472.50,512.50 484.70,512.50 496.90,512.50 509.10,512.50 521.30,512.60 533.50,512.60 545.70,512.60 557.90,512.60 570.10,512.60 582.30,512.50 594.50,512.60 606.70,512.60 618.90,512.60 631.10,512.80 643.30,513.10" stroke-linejoin="round" stroke-width="1.5" stroke="#338711" fill="none" stroke-linecap="butt"></polyline></g></g><g id="line__Pakistan"><path id="outline" fill="none" stroke-linecap="butt" stroke-linejoin="round" stroke="#fff" stroke-width="2.5" d="M350.6 512.9L362.8 512.9L375 512.9L387.2 512.9L399.4 512.9L411.6 512.9L423.8 512.9L436 512.9L448.2 512.8L460.3 512.8L472.5 512.8L484.7 512.8L496.9 512.8L509.1 512.8L521.3 512.8L533.5 512.8L545.7 512.8L557.9 512.8L570.1 512.8L582.3 512.8L594.5 512.8L606.7 512.8L618.9 512.8L631.1 512.8L643.3 512.8L655.5 512.8L667.6 512.8L679.8 512.8L692 512.8L704.2 512.8"></path><g id="polyline"><polyline id="polyline" points="350.60,512.90 362.80,512.90 375.00,512.90 387.20,512.90 399.40,512.90 411.60,512.90 423.80,512.90 436.00,512.90 448.20,512.80 460.30,512.80 472.50,512.80 484.70,512.80 496.90,512.80 509.10,512.80 521.30,512.80 533.50,512.80 545.70,512.80 557.90,512.80 570.10,512.80 582.30,512.80 594.50,512.80 606.70,512.80 618.90,512.80 631.10,512.80 643.30,512.80 655.50,512.80 667.60,512.80 679.80,512.80 692.00,512.80 704.20,512.80" stroke-linejoin="round" stroke-width="1.5" stroke="#18470F" fill="none" stroke-linecap="butt"></polyline></g></g><g id="line__Uzbekistan"><path id="outline" fill="none" stroke-linecap="butt" stroke-linejoin="round" stroke="#fff" stroke-width="2.5" d="M338.4 495.1L350.6 495.6L362.8 499.5L375 501L387.2 503.3L399.4 501.2L411.6 499.6L423.8 498.8L436 497.3L448.2 499.9L460.3 500.6L472.5 501.2L484.7 499.4L496.9 495.4L509.1 497.8L521.3 497.5L533.5 497.4L545.7 496.7L557.9 496.9L570.1 492.9L582.3 492.9L594.5 496.9L606.7 496.9L618.9 497L631.1 490.7L643.3 490.2L655.5 489.9L667.6 489.5L679.8 489.5L692 489.5L704.2 489.5"></path><g id="polyline"><polyline id="polyline" points="338.40,495.10 350.60,495.60 362.80,499.50 375.00,501.00 387.20,503.30 399.40,501.20 411.60,499.60 423.80,498.80 436.00,497.30 448.20,499.90 460.30,500.60 472.50,501.20 484.70,499.40 496.90,495.40 509.10,497.80 521.30,497.50 533.50,497.40 545.70,496.70 557.90,496.90 570.10,492.90 582.30,492.90 594.50,496.90 606.70,496.90 618.90,497.00 631.10,490.70 643.30,490.20 655.50,489.90 667.60,489.50 679.80,489.50 692.00,489.50 704.20,489.50" stroke-linejoin="round" stroke-width="1.5" stroke="#18470F" fill="none" stroke-linecap="butt"></polyline></g></g><g id="line__Ukraine"><path id="outline" fill="none" stroke-linecap="butt" stroke-linejoin="round" stroke="#fff" stroke-width="2.5" d="M338.4 509.7L350.6 509.7L362.8 509.7L375 509.7L387.2 509.7L399.4 509.7L411.6 509.7L423.8 509.7L436 509.7L448.2 508.1L460.3 507.7L472.5 507.7L484.7 507.7L496.9 507.7L509.1 507.7L521.3 507.4L533.5 507.7L545.7 507.4L557.9 507.4L570.1 507.1L582.3 506.6L594.5 506.9L606.7 506.9L618.9 505L631.1 507.7L643.3 508.3L655.5 507.8L667.6 507.7L679.8 508.1L692 510L704.2 512.4"></path><g id="polyline"><polyline id="polyline" points="338.40,509.70 350.60,509.70 362.80,509.70 375.00,509.70 387.20,509.70 399.40,509.70 411.60,509.70 423.80,509.70 436.00,509.70 448.20,508.10 460.30,507.70 472.50,507.70 484.70,507.70 496.90,507.70 509.10,507.70 521.30,507.40 533.50,507.70 545.70,507.40 557.90,507.40 570.10,507.10 582.30,506.60 594.50,506.90 606.70,506.90 618.90,505.00 631.10,507.70 643.30,508.30 655.50,507.80 667.60,507.70 679.80,508.10 692.00,510.00 704.20,512.40" stroke-linejoin="round" stroke-width="1.5" stroke="#B16214" fill="none" stroke-linecap="butt"></polyline></g></g><g id="line__Russia"><path id="outline" fill="none" stroke-linecap="butt" stroke-linejoin="round" stroke="#fff" stroke-width="2.5" d="M338.4 495.3L350.6 496.9L362.8 493.1L375 498L387.2 499.6L399.4 499.6L411.6 499.6L423.8 499.6L436 499.6L448.2 496.3L460.3 493.6L472.5 491.9L484.7 491L496.9 490L509.1 491.1L521.3 490.1L533.5 489.4L545.7 489.1L557.9 489.1L570.1 492.9L582.3 493.8L594.5 492L606.7 493L618.9 492.5L631.1 492.9L643.3 493.5L655.5 493.5L667.6 493.5L679.8 493.9L692 495.4L704.2 496.2"></path><g id="polyline"><polyline id="polyline" points="338.40,495.30 350.60,496.90 362.80,493.10 375.00,498.00 387.20,499.60 399.40,499.60 411.60,499.60 423.80,499.60 436.00,499.60 448.20,496.30 460.30,493.60 472.50,491.90 484.70,491.00 496.90,490.00 509.10,491.10 521.30,490.10 533.50,489.40 545.70,489.10 557.90,489.10 570.10,492.90 582.30,493.80 594.50,492.00 606.70,493.00 618.90,492.50 631.10,492.90 643.30,493.50 655.50,493.50 667.60,493.50 679.80,493.90 692.00,495.40 704.20,496.20" stroke-linejoin="round" stroke-width="1.5" stroke="#8C4569" fill="none" stroke-linecap="butt"></polyline></g></g><g id="line__Kazakhstan"><path id="outline" fill="none" stroke-linecap="butt" stroke-linejoin="round" stroke="#fff" stroke-width="2.5" d="M338.4 494.2L350.6 494.9L362.8 498L375 502.1L387.2 505L399.4 506.4L411.6 505.9L423.8 503.9L436 501.3L448.2 499.3L460.3 494.2L472.5 490.9L484.7 488.1L496.9 483.8L509.1 477.6L521.3 468.4L533.5 455.7L545.7 419.5L557.9 393.2L570.1 382.1L582.3 369.6L594.5 361.2L606.7 357.4L618.9 354.1L631.1 347.6L643.3 356.1L655.5 367L667.6 359.5L679.8 382L692 366.2L704.2 370.2"></path><g id="polyline"><polyline id="polyline" points="338.40,494.20 350.60,494.90 362.80,498.00 375.00,502.10 387.20,505.00 399.40,506.40 411.60,505.90 423.80,503.90 436.00,501.30 448.20,499.30 460.30,494.20 472.50,490.90 484.70,488.10 496.90,483.80 509.10,477.60 521.30,468.40 533.50,455.70 545.70,419.50 557.90,393.20 570.10,382.10 582.30,369.60 594.50,361.20 606.70,357.40 618.90,354.10 631.10,347.60 643.30,356.10 655.50,367.00 667.60,359.50 679.80,382.00 692.00,366.20 704.20,370.20" stroke-linejoin="round" stroke-width="1.5" stroke="#D73C50" fill="none" stroke-linecap="butt"></polyline></g></g><g id="line__Czechia"><path id="outline" fill="none" stroke-linecap="butt" stroke-linejoin="round" stroke="#fff" stroke-width="2.5" d="M338.4 513.1L350.6 506.2L362.8 509.5L375 509L387.2 509.1L399.4 508.9L411.6 509L423.8 509L436 509.7L448.2 509.8L460.3 509.9L472.5 510L484.7 510.2L496.9 510.3L509.1 510.5L521.3 510.9L533.5 511.1L545.7 511.2L557.9 511.4L570.1 511.4L582.3 511.6L594.5 511.5L606.7 512L618.9 512.2L631.1 512.2L643.3 512.7L655.5 512.9L667.6 512.9L679.8 512.9L692 512.9L704.2 513"></path><g id="polyline"><polyline id="polyline" points="338.40,513.10 350.60,506.20 362.80,509.50 375.00,509.00 387.20,509.10 399.40,508.90 411.60,509.00 423.80,509.00 436.00,509.70 448.20,509.80 460.30,509.90 472.50,510.00 484.70,510.20 496.90,510.30 509.10,510.50 521.30,510.90 533.50,511.10 545.70,511.20 557.90,511.40 570.10,511.40 582.30,511.60 594.50,511.50 606.70,512.00 618.90,512.20 631.10,512.20 643.30,512.70 655.50,512.90 667.60,512.90 679.80,512.90 692.00,512.90 704.20,513.00" stroke-linejoin="round" stroke-width="1.5" stroke="#00875E" fill="none" stroke-linecap="butt"></polyline></g></g><g id="line__Hungary"><path id="outline" fill="none" stroke-linecap="butt" stroke-linejoin="round" stroke="#fff" stroke-width="2.5" d="M326.2 510.3L338.4 510.2L350.6 510.5L362.8 510.3L375 511.6L387.2 511.6L399.4 511.6"></path><g id="polyline"><polyline id="polyline" points="326.20,510.30 338.40,510.20 350.60,510.50 362.80,510.30 375.00,511.60 387.20,511.60 399.40,511.60" stroke-linejoin="round" stroke-width="1.5" stroke="#883039" fill="none" stroke-linecap="butt"></polyline></g></g><g id="line__Germany"><path id="outline" fill="none" stroke-linecap="butt" stroke-linejoin="round" stroke="#fff" stroke-width="2.5" d="M326.2 505L338.4 511.5L350.6 512.3L399.4 512.9L411.6 512.9L423.8 512.9L436 512.9L448.2 512.9L460.3 511.6L472.5 512.4L484.7 512.6L496.9 512.6L509.1 512.7L521.3 512.8L533.5 513.1L545.7 513.1L557.9 513L570.1 512.7L582.3 512.8L594.5 512.9L606.7 512.9L618.9 513.1L631.1 512.8L643.3 512.9L655.5 513.1L667.6 512.9L679.8 513L692 513.1L704.2 513.1"></path><g id="polyline"><polyline id="polyline" points="326.20,505.00 338.40,511.50 350.60,512.30 399.40,512.90 411.60,512.90 423.80,512.90 436.00,512.90 448.20,512.90 460.30,511.60 472.50,512.40 484.70,512.60 496.90,512.60 509.10,512.70 521.30,512.80 533.50,513.10 545.70,513.10 557.90,513.00 570.10,512.70 582.30,512.80 594.50,512.90 606.70,512.90 618.90,513.10 631.10,512.80 643.30,512.90 655.50,513.10 667.60,512.90 679.80,513.00 692.00,513.10 704.20,513.10" stroke-linejoin="round" stroke-width="1.5" stroke="#A2559C" fill="none" stroke-linecap="butt"></polyline></g></g><g id="line__USSR"><path id="outline" fill="none" stroke-linecap="butt" stroke-linejoin="round" stroke="#fff" stroke-width="2.5" d="M314 442.4L326.2 442.4"></path><g id="polyline"><polyline id="polyline" points="314.00,442.40 326.20,442.40" stroke-linejoin="round" stroke-width="1.5" stroke="#996D39" fill="none" stroke-linecap="butt"></polyline></g></g><g id="line__Czechoslovakia"><path id="outline" fill="none" stroke-linecap="butt" stroke-linejoin="round" stroke="#fff" stroke-width="2.5" d="M314 498.7L326.2 501.1L338.4 502.7"></path><g id="polyline"><polyline id="polyline" points="314.00,498.70 326.20,501.10 338.40,502.70" stroke-linejoin="round" stroke-width="1.5" stroke="#B16214" fill="none" stroke-linecap="butt"></polyline></g></g><g id="line__China"><path id="outline" fill="none" stroke-linecap="butt" stroke-linejoin="round" stroke="#fff" stroke-width="2.5" d="M289.6 510.8L301.8 507.7L314 507.7L326.2 507.7L338.4 506.7L350.6 507.8L362.8 507.8L375 509.7L387.2 509.7L399.4 509.7L411.6 509.7L423.8 509.7L436 509.7L448.2 508.6L460.3 508.2L472.5 508.1L484.7 508.1L496.9 508.1L509.1 508.1L521.3 508.3L533.5 507.9L545.7 508.1L557.9 507.5L570.1 507.1L582.3 503L594.5 503L606.7 503L618.9 502.2L631.1 502.2L643.3 501.7L655.5 500.4L667.6 500.4L679.8 500.4L692 502.3L704.2 501.7"></path><g id="polyline"><polyline id="polyline" points="289.60,510.80 301.80,507.70 314.00,507.70 326.20,507.70 338.40,506.70 350.60,507.80 362.80,507.80 375.00,509.70 387.20,509.70 399.40,509.70 411.60,509.70 423.80,509.70 436.00,509.70 448.20,508.60 460.30,508.20 472.50,508.10 484.70,508.10 496.90,508.10 509.10,508.10 521.30,508.30 533.50,507.90 545.70,508.10 557.90,507.50 570.10,507.10 582.30,503.00 594.50,503.00 606.70,503.00 618.90,502.20 631.10,502.20 643.30,501.70 655.50,500.40 667.60,500.40 679.80,500.40 692.00,502.30 704.20,501.70" stroke-linejoin="round" stroke-width="1.5" stroke="#CF0A66" fill="none" stroke-linecap="butt"></polyline></g></g><g id="line__Yugoslavia"><path id="outline" fill="none" stroke-linecap="butt" stroke-linejoin="round" stroke="#fff" stroke-width="2.5" d="M204.3 513.1L216.5 513.1L228.7 513.1L240.9 512.8L253.1 512.9L265.2 512.6L277.4 512.6L289.6 512.6L301.8 512.5L314 512.7L326.2 513.1"></path><g id="polyline"><polyline id="polyline" points="204.30,513.10 216.50,513.10 228.70,513.10 240.90,512.80 253.10,512.90 265.20,512.60 277.40,512.60 289.60,512.60 301.80,512.50 314.00,512.70 326.20,513.10" stroke-linejoin="round" stroke-width="1.5" stroke="#BE5915" fill="none" stroke-linecap="butt"></polyline></g></g><g id="line__Brazil"><path id="outline" fill="none" stroke-linecap="butt" stroke-linejoin="round" stroke="#fff" stroke-width="2.5" d="M204.3 513.1L216.5 511.5L228.7 511.8L240.9 512.3L253.1 512.6L265.2 512.9L277.4 512.4L289.6 513L301.8 512.9L314 513.1L326.2 513.1L338.4 513.1L350.6 512.8L362.8 512.8L375 512.3L423.8 513.1L436 512.8L448.2 512.7L460.3 511.3L472.5 511L484.7 511.1L496.9 512.4L509.1 511.8L521.3 511.1L533.5 510.9L545.7 510.8L557.9 512.1L570.1 511.3L582.3 510.9L594.5 511.8L606.7 512.7L618.9 512.8L631.1 512.8L643.3 513.1L655.5 513.1L667.6 513.1L679.8 513L692 512.9L704.2 512.8"></path><g id="polyline"><polyline id="polyline" points="204.30,513.10 216.50,511.50 228.70,511.80 240.90,512.30 253.10,512.60 265.20,512.90 277.40,512.40 289.60,513.00 301.80,512.90 314.00,513.10 326.20,513.10 338.40,513.10 350.60,512.80 362.80,512.80 375.00,512.30 423.80,513.10 436.00,512.80 448.20,512.70 460.30,511.30 472.50,511.00 484.70,511.10 496.90,512.40 509.10,511.80 521.30,511.10 533.50,510.90 545.70,510.80 557.90,512.10 570.10,511.30 582.30,510.90 594.50,511.80 606.70,512.70 618.90,512.80 631.10,512.80 643.30,513.10 655.50,513.10 667.60,513.10 679.80,513.00 692.00,512.90 704.20,512.80" stroke-linejoin="round" stroke-width="1.5" stroke="#578145" fill="none" stroke-linecap="butt"></polyline></g></g><g id="line__Belgium"><path id="outline" fill="none" stroke-linecap="butt" stroke-linejoin="round" stroke="#fff" stroke-width="2.5" d="M192.1 513L204.3 512.8L216.5 512.8L228.7 512.8L240.9 512.8L253.1 512.8L265.2 512.8L277.4 512.7"></path><g id="polyline"><polyline id="polyline" points="192.10,513.00 204.30,512.80 216.50,512.80 228.70,512.80 240.90,512.80 253.10,512.80 265.20,512.80 277.40,512.70" stroke-linejoin="round" stroke-width="1.5" stroke="#C15065" fill="none" stroke-linecap="butt"></polyline></g></g><g id="line__India"><path id="outline" fill="none" stroke-linecap="butt" stroke-linejoin="round" stroke="#fff" stroke-width="2.5" d="M179.9 512.1L192.1 512.4L204.3 512.4L216.5 512.4L228.7 512.4L240.9 512.4L253.1 512.3L265.2 512.3L277.4 512.2L289.6 512.3L301.8 511.7L314 511.7L326.2 511.8L338.4 511.6L350.6 511.1L362.8 511.8L375 511.8L387.2 511.8L399.4 511.8L411.6 511.8L423.8 511.8L436 511.8L448.2 511.6L460.3 511.6L472.5 511.6L484.7 511.6L496.9 511.6L509.1 511.6L521.3 511.3L533.5 511.3L545.7 511.1L557.9 510.4L570.1 510.4L582.3 510.5L594.5 510.5L606.7 510.5L618.9 510.5L631.1 510.5L643.3 510.3L655.5 510.3L667.6 511L679.8 510.4L692 509L704.2 509.1"></path><g id="polyline"><polyline id="polyline" points="179.90,512.10 192.10,512.40 204.30,512.40 216.50,512.40 228.70,512.40 240.90,512.40 253.10,512.30 265.20,512.30 277.40,512.20 289.60,512.30 301.80,511.70 314.00,511.70 326.20,511.80 338.40,511.60 350.60,511.10 362.80,511.80 375.00,511.80 387.20,511.80 399.40,511.80 411.60,511.80 423.80,511.80 436.00,511.80 448.20,511.60 460.30,511.60 472.50,511.60 484.70,511.60 496.90,511.60 509.10,511.60 521.30,511.30 533.50,511.30 545.70,511.10 557.90,510.40 570.10,510.40 582.30,510.50 594.50,510.50 606.70,510.50 618.90,510.50 631.10,510.50 643.30,510.30 655.50,510.30 667.60,511.00 679.80,510.40 692.00,509.00 704.20,509.10" stroke-linejoin="round" stroke-width="1.5" stroke="#286BBB" fill="none" stroke-linecap="butt"></polyline></g></g><g id="line__Australia"><path id="outline" fill="none" stroke-linecap="butt" stroke-linejoin="round" stroke="#fff" stroke-width="2.5" d="M143.3 510.7L155.5 510.7L167.7 509.6L179.9 508.3L192.1 502.6L204.3 493.4L216.5 483.3L228.7 491.5L240.9 484L253.1 491.5L265.2 485.1L277.4 487.6L289.6 489.3L301.8 487.5L314 489.3L326.2 487.7L338.4 497.4L350.6 497.9L362.8 498.2L375 488.1L387.2 479.6L399.4 476.1L411.6 480.1L423.8 472.7L436 462L448.2 461.6L460.3 465L472.5 461.7L484.7 452.4L496.9 449L509.1 461.9L521.3 455.2L533.5 456.1L545.7 459.6L557.9 472.9L570.1 473L582.3 465.9L594.5 470.1L606.7 478.8L618.9 475L631.1 471.1L643.3 474.6L655.5 468.9L667.6 469L679.8 471.6L692 487.6L704.2 482.7"></path><g id="polyline"><polyline id="polyline" points="143.30,510.70 155.50,510.70 167.70,509.60 179.90,508.30 192.10,502.60 204.30,493.40 216.50,483.30 228.70,491.50 240.90,484.00 253.10,491.50 265.20,485.10 277.40,487.60 289.60,489.30 301.80,487.50 314.00,489.30 326.20,487.70 338.40,497.40 350.60,497.90 362.80,498.20 375.00,488.10 387.20,479.60 399.40,476.10 411.60,480.10 423.80,472.70 436.00,462.00 448.20,461.60 460.30,465.00 472.50,461.70 484.70,452.40 496.90,449.00 509.10,461.90 521.30,455.20 533.50,456.10 545.70,459.60 557.90,472.90 570.10,473.00 582.30,465.90 594.50,470.10 606.70,478.80 618.90,475.00 631.10,471.10 643.30,474.60 655.50,468.90 667.60,469.00 679.80,471.60 692.00,487.60 704.20,482.70" stroke-linejoin="round" stroke-width="1.5" stroke="#2C8465" fill="none" stroke-linecap="butt"></polyline></g></g><g id="line__West-Germany"><path id="outline" fill="none" stroke-linecap="butt" stroke-linejoin="round" stroke="#fff" stroke-width="2.5" d="M131.1 512.7L143.3 512.8L155.5 513L167.7 512.8L179.9 512.9L192.1 512.8L204.3 512.9L216.5 512.9L228.7 512.8L240.9 512.9L253.1 512.9L265.2 513"></path><g id="polyline"><polyline id="polyline" points="131.10,512.70 143.30,512.80 155.50,513.00 167.70,512.80 179.90,512.90 192.10,512.80 204.30,512.90 216.50,512.90 228.70,512.80 240.90,512.90 253.10,512.90 265.20,513.00" stroke-linejoin="round" stroke-width="1.5" stroke="#6D3E91" fill="none" stroke-linecap="butt"></polyline></g></g><g id="line__Namibia"><path id="outline" fill="none" stroke-linecap="butt" stroke-linejoin="round" stroke="#fff" stroke-width="2.5" d="M131.1 513.1L143.3 509.1L155.5 497.3L167.7 495L179.9 487.3L192.1 485.9L204.3 486.4L216.5 487.7L228.7 488.1L240.9 487.5L253.1 490.2L265.2 489.5L277.4 489.3L289.6 489.5L301.8 491.6L314 490.7L326.2 496.6L338.4 502.8L350.6 502.9L362.8 501.5L375 500.9L387.2 498.1L399.4 495.4L411.6 496.1L423.8 496.7L436 496.5L448.2 499.4L460.3 492.5L472.5 496.8L484.7 491.8L496.9 491.9L509.1 492.4L521.3 493.7L533.5 483.7L545.7 481.9L557.9 482.8L570.1 491.1L582.3 482.8L594.5 484L606.7 490.8L618.9 493.2L631.1 488.5L643.3 482.6L655.5 473.5L667.6 475.2L679.8 484.8L692 474.4L704.2 475.3"></path><g id="polyline"><polyline id="polyline" points="131.10,513.10 143.30,509.10 155.50,497.30 167.70,495.00 179.90,487.30 192.10,485.90 204.30,486.40 216.50,487.70 228.70,488.10 240.90,487.50 253.10,490.20 265.20,489.50 277.40,489.30 289.60,489.50 301.80,491.60 314.00,490.70 326.20,496.60 338.40,502.80 350.60,502.90 362.80,501.50 375.00,500.90 387.20,498.10 399.40,495.40 411.60,496.10 423.80,496.70 436.00,496.50 448.20,499.40 460.30,492.50 472.50,496.80 484.70,491.80 496.90,491.90 509.10,492.40 521.30,493.70 533.50,483.70 545.70,481.90 557.90,482.80 570.10,491.10 582.30,482.80 594.50,484.00 606.70,490.80 618.90,493.20 631.10,488.50 643.30,482.60 655.50,473.50 667.60,475.20 679.80,484.80 692.00,474.40 704.20,475.30" stroke-linejoin="round" stroke-width="1.5" stroke="#A2559C" fill="none" stroke-linecap="butt"></polyline></g></g><g id="line__World"><path id="outline" fill="none" stroke-linecap="butt" stroke-linejoin="round" stroke="#fff" stroke-width="2.5" d="M70.1 391.5L82.3 387.2L94.5 381.1L106.7 379.6L118.9 384.8L131.1 375.9L143.3 353.4L155.5 324.1L167.7 279.8L179.9 247.3L192.1 217L204.3 217.6L216.5 235.2L228.7 268.1L240.9 257.9L253.1 279.2L265.2 262.3L277.4 266.3L289.6 265.5L301.8 274.8L314 230.6L326.2 240.8L338.4 272.1L350.6 295.8L362.8 302.6L375 293.4L387.2 279.7L399.4 274.6L411.6 288.2L423.8 306.3L436 280.5L448.2 270.3L460.3 263.5L472.5 269.5L484.7 240.9L496.9 230.1L509.1 247.4L521.3 234.5L533.5 217.8L545.7 172.6L557.9 153.2L570.1 151.4L582.3 114.1L594.5 114L606.7 134.8L618.9 106.7L631.1 89.3L643.3 108.5L655.5 144.4L667.6 146L679.8 199.3L692 194.3L704.2 193.9"></path><g id="polyline"><polyline id="polyline" points="70.10,391.50 82.30,387.20 94.50,381.10 106.70,379.60 118.90,384.80 131.10,375.90 143.30,353.40 155.50,324.10 167.70,279.80 179.90,247.30 192.10,217.00 204.30,217.60 216.50,235.20 228.70,268.10 240.90,257.90 253.10,279.20 265.20,262.30 277.40,266.30 289.60,265.50 301.80,274.80 314.00,230.60 326.20,240.80 338.40,272.10 350.60,295.80 362.80,302.60 375.00,293.40 387.20,279.70 399.40,274.60 411.60,288.20 423.80,306.30 436.00,280.50 448.20,270.30 460.30,263.50 472.50,269.50 484.70,240.90 496.90,230.10 509.10,247.40 521.30,234.50 533.50,217.80 545.70,172.60 557.90,153.20 570.10,151.40 582.30,114.10 594.50,114.00 606.70,134.80 618.90,106.70 631.10,89.30 643.30,108.50 655.50,144.40 667.60,146.00 679.80,199.30 692.00,194.30 704.20,193.90" stroke-linejoin="round" stroke-width="1.5" stroke="#C15065" fill="none" stroke-linecap="butt"></polyline></g></g><g id="line__United-States"><path id="outline" fill="none" stroke-linecap="butt" stroke-linejoin="round" stroke="#fff" stroke-width="2.5" d="M70.1 446.9L82.3 446.2L94.5 446.3L106.7 444.5L118.9 453.4L131.1 453.2L143.3 447.5L155.5 436.6L167.7 417.2L179.9 416.1L192.1 400L204.3 413.4L216.5 443.7L228.7 457.9L240.9 474.7L253.1 484.1L265.2 478.1L277.4 479.4L289.6 479.1L301.8 477.4L314 490L326.2 492.5L338.4 498.5L350.6 505.1L362.8 504.4L375 497.5L387.2 496.8L399.4 498.5L411.6 500.9L423.8 501.2L436 502.9L448.2 506.3L460.3 507L472.5 507.9L484.7 507.2L496.9 506.1L509.1 502.5L521.3 501.3L533.5 503L545.7 503.5L557.9 502.1L570.1 502.8L582.3 502.4L594.5 501L606.7 500.4L618.9 504.4L631.1 505.5L643.3 506.8L655.5 509.2L667.6 512.7L679.8 513.1L692 513L704.2 512.6"></path><g id="polyline"><polyline id="polyline" points="70.10,446.90 82.30,446.20 94.50,446.30 106.70,444.50 118.90,453.40 131.10,453.20 143.30,447.50 155.50,436.60 167.70,417.20 179.90,416.10 192.10,400.00 204.30,413.40 216.50,443.70 228.70,457.90 240.90,474.70 253.10,484.10 265.20,478.10 277.40,479.40 289.60,479.10 301.80,477.40 314.00,490.00 326.20,492.50 338.40,498.50 350.60,505.10 362.80,504.40 375.00,497.50 387.20,496.80 399.40,498.50 411.60,500.90 423.80,501.20 436.00,502.90 448.20,506.30 460.30,507.00 472.50,507.90 484.70,507.20 496.90,506.10 509.10,502.50 521.30,501.30 533.50,503.00 545.70,503.50 557.90,502.10 570.10,502.80 582.30,502.40 594.50,501.00 606.70,500.40 618.90,504.40 631.10,505.50 643.30,506.80 655.50,509.20 667.60,512.70 679.80,513.10 692.00,513.00 704.20,512.60" stroke-linejoin="round" stroke-width="1.5" stroke="#6D3E91" fill="none" stroke-linecap="butt"></polyline></g></g><g id="line__Spain"><path id="outline" fill="none" stroke-linecap="butt" stroke-linejoin="round" stroke="#fff" stroke-width="2.5" d="M70.1 512.6L82.3 512.3L94.5 512.3L106.7 512.6L118.9 512.7L131.1 512.1L143.3 511.8L155.5 512L167.7 512.1L179.9 512L192.1 512L204.3 512.1L216.5 512.1L228.7 511.9L240.9 511.8L253.1 511.7L265.2 511.7L277.4 511.6L289.6 511.6L301.8 511.6L314 512L326.2 511.8L338.4 511.8L350.6 511.9L362.8 511.4L375 511.4L387.2 511.4L399.4 511.4L411.6 511.4L423.8 511.4L436 511.4L448.2 513.1L460.3 513.1"></path><g id="polyline"><polyline id="polyline" points="70.10,512.60 82.30,512.30 94.50,512.30 106.70,512.60 118.90,512.70 131.10,512.10 143.30,511.80 155.50,512.00 167.70,512.10 179.90,512.00 192.10,512.00 204.30,512.10 216.50,512.10 228.70,511.90 240.90,511.80 253.10,511.70 265.20,511.70 277.40,511.60 289.60,511.60 301.80,511.60 314.00,512.00 326.20,511.80 338.40,511.80 350.60,511.90 362.80,511.40 375.00,511.40 387.20,511.40 399.40,511.40 411.60,511.40 423.80,511.40 436.00,511.40 448.20,513.10 460.30,513.10" stroke-linejoin="round" stroke-width="1.5" stroke="#578145" fill="none" stroke-linecap="butt"></polyline></g></g><g id="line__South-Africa"><path id="outline" fill="none" stroke-linecap="butt" stroke-linejoin="round" stroke="#fff" stroke-width="2.5" d="M70.1 491.8L82.3 491.6L94.5 492.4L106.7 495.4L118.9 494.8L131.1 496.3L143.3 494.3L155.5 490.4L167.7 486.3L179.9 480.9L192.1 471.4L204.3 471.8L216.5 474.1L228.7 472.4L240.9 474.5L253.1 480.3L265.2 481.9L277.4 486.4L289.6 486.9L301.8 493.4L314 496.7L326.2 501.5L338.4 501.8L350.6 501.6L362.8 502.2L375 503.4L387.2 503.4L399.4 505.5L411.6 506.6L423.8 506.9L436 507.3L448.2 507L460.3 507.4L472.5 508L484.7 508L496.9 508.6L509.1 509.5L521.3 509.6L533.5 509.4L545.7 509.5L557.9 509.2L570.1 509.4L582.3 510L594.5 509.5L606.7 509.3L618.9 510.1L631.1 510.5L643.3 510.7L655.5 511.8L667.6 512L679.8 512.3L692 512.1L704.2 511.8"></path><g id="polyline"><polyline id="polyline" points="70.10,491.80 82.30,491.60 94.50,492.40 106.70,495.40 118.90,494.80 131.10,496.30 143.30,494.30 155.50,490.40 167.70,486.30 179.90,480.90 192.10,471.40 204.30,471.80 216.50,474.10 228.70,472.40 240.90,474.50 253.10,480.30 265.20,481.90 277.40,486.40 289.60,486.90 301.80,493.40 314.00,496.70 326.20,501.50 338.40,501.80 350.60,501.60 362.80,502.20 375.00,503.40 387.20,503.40 399.40,505.50 411.60,506.60 423.80,506.90 436.00,507.30 448.20,507.00 460.30,507.40 472.50,508.00 484.70,508.00 496.90,508.60 509.10,509.50 521.30,509.60 533.50,509.40 545.70,509.50 557.90,509.20 570.10,509.40 582.30,510.00 594.50,509.50 606.70,509.30 618.90,510.10 631.10,510.50 643.30,510.70 655.50,511.80 667.60,512.00 679.80,512.30 692.00,512.10 704.20,511.80" stroke-linejoin="round" stroke-width="1.5" stroke="#00847E" fill="none" stroke-linecap="butt"></polyline></g></g><g id="line__Portugal"><path id="outline" fill="none" stroke-linecap="butt" stroke-linejoin="round" stroke="#fff" stroke-width="2.5" d="M70.1 512.6L82.3 512.6L94.5 512.6L106.7 512.6L118.9 512.5L131.1 512.3L143.3 512.5L155.5 512.5L167.7 512.5L179.9 512.4L192.1 512.6L204.3 512.5L216.5 512.4L228.7 512.5L240.9 512.4L253.1 512.4L265.2 512.4L277.4 512.3L289.6 512.1L301.8 512.2L314 512.4L326.2 512.9L338.4 512.9L350.6 512.9L362.8 512.9L375 513L387.2 513L399.4 513L411.6 513L423.8 513L436 513L448.2 513.1L460.3 513.1"></path><g id="polyline"><polyline id="polyline" points="70.10,512.60 82.30,512.60 94.50,512.60 106.70,512.60 118.90,512.50 131.10,512.30 143.30,512.50 155.50,512.50 167.70,512.50 179.90,512.40 192.10,512.60 204.30,512.50 216.50,512.40 228.70,512.50 240.90,512.40 253.10,512.40 265.20,512.40 277.40,512.30 289.60,512.10 301.80,512.20 314.00,512.40 326.20,512.90 338.40,512.90 350.60,512.90 362.80,512.90 375.00,513.00 387.20,513.00 399.40,513.00 411.60,513.00 423.80,513.00 436.00,513.00 448.20,513.10 460.30,513.10" stroke-linejoin="round" stroke-width="1.5" stroke="#D73C50" fill="none" stroke-linecap="butt"></polyline></g></g><g id="line__Niger"><path id="outline" fill="none" stroke-linecap="butt" stroke-linejoin="round" stroke="#fff" stroke-width="2.5" d="M70.1 512.8L82.3 510.2L94.5 508.1L106.7 506.7L118.9 505.6L131.1 504.3L143.3 503.3L155.5 503.4L167.7 499.2L179.9 488.8L192.1 485.3L204.3 483.7L216.5 484.4L228.7 490L240.9 491.1L253.1 491.7L265.2 492.1L277.4 493.1L289.6 493.2L301.8 493L314 494L326.2 493.1L338.4 493.1L350.6 493.5L362.8 493.1L375 493.1L387.2 490.7L399.4 489.6L411.6 488.1L423.8 493.5L436 493.6L448.2 493.4L460.3 492.4L472.5 491.9L484.7 491.1L496.9 492.3L509.1 490L521.3 491.9L533.5 492.9L545.7 491.3L557.9 484.8L570.1 485.1L582.3 480.6L594.5 484.3L606.7 485.1L618.9 485.4L631.1 489.7L643.3 489.6L655.5 493.5L667.6 493.8L679.8 493L692 497.7L704.2 499.5"></path><g id="polyline"><polyline id="polyline" points="70.10,512.80 82.30,510.20 94.50,508.10 106.70,506.70 118.90,505.60 131.10,504.30 143.30,503.30 155.50,503.40 167.70,499.20 179.90,488.80 192.10,485.30 204.30,483.70 216.50,484.40 228.70,490.00 240.90,491.10 253.10,491.70 265.20,492.10 277.40,493.10 289.60,493.20 301.80,493.00 314.00,494.00 326.20,493.10 338.40,493.10 350.60,493.50 362.80,493.10 375.00,493.10 387.20,490.70 399.40,489.60 411.60,488.10 423.80,493.50 436.00,493.60 448.20,493.40 460.30,492.40 472.50,491.90 484.70,491.10 496.90,492.30 509.10,490.00 521.30,491.90 533.50,492.90 545.70,491.30 557.90,484.80 570.10,485.10 582.30,480.60 594.50,484.30 606.70,485.10 618.90,485.40 631.10,489.70 643.30,489.60 655.50,493.50 667.60,493.80 679.80,493.00 692.00,497.70 704.20,499.50" stroke-linejoin="round" stroke-width="1.5" stroke="#6D3E91" fill="none" stroke-linecap="butt"></polyline></g></g><g id="line__Gabon"><path id="outline" fill="none" stroke-linecap="butt" stroke-linejoin="round" stroke="#fff" stroke-width="2.5" d="M70.1 510.6L82.3 510.1L94.5 510.1L106.7 508.7L118.9 507.9L131.1 506.8L143.3 506.6L155.5 507L167.7 506.2L179.9 505.7L192.1 506.1L204.3 506.2L216.5 506.6L228.7 506.3L240.9 506.9L253.1 506.8L265.2 506.9L277.4 507.8L289.6 506.8L301.8 507.1L314 508.3L326.2 508.5L338.4 509.1L350.6 509.7L362.8 509.1L375 508.9L387.2 509.3L399.4 509.9L411.6 508.2L423.8 511.1"></path><g id="polyline"><polyline id="polyline" points="70.10,510.60 82.30,510.10 94.50,510.10 106.70,508.70 118.90,507.90 131.10,506.80 143.30,506.60 155.50,507.00 167.70,506.20 179.90,505.70 192.10,506.10 204.30,506.20 216.50,506.60 228.70,506.30 240.90,506.90 253.10,506.80 265.20,506.90 277.40,507.80 289.60,506.80 301.80,507.10 314.00,508.30 326.20,508.50 338.40,509.10 350.60,509.70 362.80,509.10 375.00,508.90 387.20,509.30 399.40,509.90 411.60,508.20 423.80,511.10" stroke-linejoin="round" stroke-width="1.5" stroke="#BE5915" fill="none" stroke-linecap="butt"></polyline></g></g><g id="line__France"><path id="outline" fill="none" stroke-linecap="butt" stroke-linejoin="round" stroke="#fff" stroke-width="2.5" d="M70.1 504.4L82.3 504.5L94.5 503.5L106.7 502.5L118.9 501.5L131.1 501.5L143.3 500.5L155.5 499.3L167.7 493.5L179.9 490.7L192.1 493.9L204.3 495.9L216.5 493.8L228.7 492L240.9 492.1L253.1 491.2L265.2 491.3L277.4 490.4L289.6 490.4L301.8 490.7L314 493.3L326.2 496.4L338.4 493.7L350.6 501.6L362.8 506.2L375 506.5L387.2 506.8L399.4 508.1L411.6 509.7L423.8 510.2L436 511L448.2 511.8L460.3 513"></path><g id="polyline"><polyline id="polyline" points="70.10,504.40 82.30,504.50 94.50,503.50 106.70,502.50 118.90,501.50 131.10,501.50 143.30,500.50 155.50,499.30 167.70,493.50 179.90,490.70 192.10,493.90 204.30,495.90 216.50,493.80 228.70,492.00 240.90,492.10 253.10,491.20 265.20,491.30 277.40,490.40 289.60,490.40 301.80,490.70 314.00,493.30 326.20,496.40 338.40,493.70 350.60,501.60 362.80,506.20 375.00,506.50 387.20,506.80 399.40,508.10 411.60,509.70 423.80,510.20 436.00,511.00 448.20,511.80 460.30,513.00" stroke-linejoin="round" stroke-width="1.5" stroke="#578145" fill="none" stroke-linecap="butt"></polyline></g></g><g id="line__Canada"><path id="outline" fill="none" stroke-linecap="butt" stroke-linejoin="round" stroke="#fff" stroke-width="2.5" d="M70.1 491.8L82.3 491.8L94.5 487.8L106.7 488.4L118.9 488.3L131.1 481.6L143.3 476.5L155.5 474.1L167.7 467.3L179.9 469.1L192.1 467.7L204.3 462.6L216.5 461.6L228.7 467.2L240.9 443.9L253.1 439.9L265.2 434.2L277.4 429.4L289.6 429.2L301.8 436.2L314 454L326.2 458.2L338.4 450.5L350.6 451.5L362.8 448.2L375 442.7L387.2 434.4L399.4 432.2L411.6 439.5L423.8 457.8L436 441.2L448.2 429L460.3 434.9L472.5 442.7L484.7 435L496.9 434.8L509.1 446.7L521.3 449.3L533.5 452.5L545.7 444.6L557.9 449L570.1 451.5L582.3 452.5L594.5 450.3L606.7 451.8L618.9 423.4L631.1 418.6L643.3 429.4L655.5 463.8L667.6 466.8L679.8 485.6L692 482L704.2 477.9"></path><g id="polyline"><polyline id="polyline" points="70.10,491.80 82.30,491.80 94.50,487.80 106.70,488.40 118.90,488.30 131.10,481.60 143.30,476.50 155.50,474.10 167.70,467.30 179.90,469.10 192.10,467.70 204.30,462.60 216.50,461.60 228.70,467.20 240.90,443.90 253.10,439.90 265.20,434.20 277.40,429.40 289.60,429.20 301.80,436.20 314.00,454.00 326.20,458.20 338.40,450.50 350.60,451.50 362.80,448.20 375.00,442.70 387.20,434.40 399.40,432.20 411.60,439.50 423.80,457.80 436.00,441.20 448.20,429.00 460.30,434.90 472.50,442.70 484.70,435.00 496.90,434.80 509.10,446.70 521.30,449.30 533.50,452.50 545.70,444.60 557.90,449.00 570.10,451.50 582.30,452.50 594.50,450.30 606.70,451.80 618.90,423.40 631.10,418.60 643.30,429.40 655.50,463.80 667.60,466.80 679.80,485.60 692.00,482.00 704.20,477.90" stroke-linejoin="round" stroke-width="1.5" stroke="#18470F" fill="none" stroke-linecap="butt"></polyline></g></g><g id="line__Argentina"><path id="outline" fill="none" stroke-linecap="butt" stroke-linejoin="round" stroke="#fff" stroke-width="2.5" d="M70.1 512.8L82.3 512.8L94.5 512.8L106.7 512.8L118.9 512.9L131.1 512.9L143.3 511.9L155.5 511.9L167.7 512.1L179.9 508.1L192.1 511.5L204.3 511.8L216.5 509.2L228.7 511.9L240.9 512.2L253.1 512.3L265.2 511.9L277.4 512.5L289.6 512.1L301.8 512.7L314 513L326.2 513L338.4 512.3L350.6 512.3L362.8 512.6L375 512.7L387.2 512.9L399.4 512.9L411.6 513L423.8 513"></path><g id="polyline"><polyline id="polyline" points="70.10,512.80 82.30,512.80 94.50,512.80 106.70,512.80 118.90,512.90 131.10,512.90 143.30,511.90 155.50,511.90 167.70,512.10 179.90,508.10 192.10,511.50 204.30,511.80 216.50,509.20 228.70,511.90 240.90,512.20 253.10,512.30 265.20,511.90 277.40,512.50 289.60,512.10 301.80,512.70 314.00,513.00 326.20,513.00 338.40,512.30 350.60,512.30 362.80,512.60 375.00,512.70 387.20,512.90 399.40,512.90 411.60,513.00 423.80,513.00" stroke-linejoin="round" stroke-width="1.5" stroke="#996D39" fill="none" stroke-linecap="butt"></polyline></g></g></g></g></g></g><g id="footer" class="SourcesFooter" style="fill:#5b5b5b"><g id="sources" class="markdown-text-wrap"><text x="16.0" y="562.7" style="font-size:13.5px;line-height:1.2"><tspan x="16" y="562.7"><tspan style="font-weight:700">Data source:</tspan> BGS - World Mineral Statistics (2023)</tspan></text></g><g id="note" class="markdown-text-wrap"><text x="16.0" y="580.9" style="font-size:13.5px;line-height:1.2"><tspan x="16" y="580.9"><tspan style="font-weight:700">Note:</tspan> Values are reported as tonnes of metal content.</tspan></text></g><text id="origin-url" font-size="13.50" x="792.7" y="562.7"><tspan x="792.69" y="562.695"><a target="_blank" style="fill: #5b5b5b;" href="https://creativecommons.org/licenses/by/4.0/">CC BY</a></tspan></text></g><line id="separator-line" x1="16" y1="600" x2="834" y2="600" stroke="#e7e7e7"></line><g id="details" transform="translate(15, 616)"><g class="markdown-text-wrap"><text x="0.0" y="12.0" style="font-size:12.375px;fill:#5b5b5b;line-height:1.2"><tspan x="0" y="12.0"><tspan style="font-weight:700">1.</tspan> <tspan style="font-weight:700">Refined production</tspan>: Refined production is the process of taking raw materials, such as metals extracted from ores, and purifying them to achieve</tspan><tspan x="0" y="26.9">a higher quality or more usable form. After metals are initially extracted from ore through processes like smelting, they often contain impurities or are</tspan><tspan x="0" y="41.7">not in the ideal form for manufacturing. Refining involves further processing these metals to remove impurities and adjust their composition to meet</tspan><tspan x="0" y="56.6">specific standards. Refined production is essential for transforming raw materials into high-quality metals that are crucial for industries and</tspan><tspan x="0" y="71.4">consumers, from manufacturing electronics to constructing buildings.</tspan></text></g></g></svg>