<svg xmlns="http://www.w3.org/2000/svg" version="1.1" style="font-family:Lato, &#x27;Helvetica Neue&#x27;, Helvetica, Arial, &#x27;Liberation Sans&#x27;, sans-serif;font-size:18px;background-color:white;text-rendering:geometricPrecision;-webkit-font-smoothing:antialiased" width="850" height="758.8" viewBox="0 0 850 758.8"><defs><style>@import url(https://ourworldindata.org/fonts.css)</style></defs><defs><pattern id="noDataPattern" patternUnits="userSpaceOnUse" width="4" height="4" patternTransform="rotate(-45 2 2)"><path d="M -1,2 l 6,0" stroke="#ccc" stroke-width="0.7"></path></pattern></defs><rect class="background-fill" fill="white" width="850" height="758.8"></rect><g id="header" class="HeaderView"><g id="logo" transform="translate(769, 16) scale(1)"><svg className="owidLogo" xmlns="http://www.w3.org/2000/svg" width="65" height="36" viewBox="0 0 65 36"  fill="none"><path fill="#002147" d="M0 0h64.8v36H0z"/><path fill="#CE261E" d="M0 33.3h64.8V36H0z"/><path fill="#fff" d="M13.796 10.575c0 .636-.106 1.226-.318 1.77a4.193 4.193 0 0 1-.894 1.404 4.084 4.084 0 0 1-1.386.93c-.54.22-1.138.33-1.794.33-.656 0-1.256-.11-1.8-.33a4.149 4.149 0 0 1-1.392-.93 4.193 4.193 0 0 1-.894-1.404A4.833 4.833 0 0 1 5 10.575c0-.636.106-1.224.318-1.764a4.18 4.18 0 0 1 .894-1.41 4.076 4.076 0 0 1 1.392-.924 4.684 4.684 0 0 1 1.8-.336c.656 0 1.254.112 1.794.336.54.224 1.002.534 1.386.93.384.392.682.86.894 1.404.212.54.318 1.128.318 1.764Zm-1.656 0c0-.476-.064-.902-.192-1.278a2.671 2.671 0 0 0-.54-.966 2.332 2.332 0 0 0-.864-.606 2.94 2.94 0 0 0-1.14-.21c-.424 0-.806.07-1.146.21-.34.14-.63.342-.87.606a2.742 2.742 0 0 0-.546.966 3.955 3.955 0 0 0-.192 1.278c0 .476.064.904.192 1.284.128.376.31.696.546.96.24.26.53.46.87.6.34.14.722.21 1.146.21.424 0 .804-.07 1.14-.21.34-.14.628-.34.864-.6.236-.264.416-.584.54-.96a4.01 4.01 0 0 0 .192-1.284ZM16.104 8.757v3.912c0 .376.086.668.258.876.176.204.438.306.786.306.256 0 .496-.056.72-.168a2.58 2.58 0 0 0 .636-.474V8.757h1.482v6.156h-.906c-.192 0-.318-.09-.378-.27l-.102-.492a4.65 4.65 0 0 1-.396.354 2.577 2.577 0 0 1-.438.27 2.35 2.35 0 0 1-.498.168 2.345 2.345 0 0 1-.57.066c-.336 0-.634-.056-.894-.168a1.821 1.821 0 0 1-.648-.486 2.157 2.157 0 0 1-.402-.738 3.233 3.233 0 0 1-.132-.948V8.757h1.482ZM21.328 14.913V8.757h.87c.152 0 .258.028.318.084.06.056.1.152.12.288l.09.744c.22-.38.478-.68.774-.9.296-.22.628-.33.996-.33.304 0 .556.07.756.21l-.192 1.11c-.012.072-.038.124-.078.156a.278.278 0 0 1-.162.042 1.01 1.01 0 0 1-.246-.042 1.646 1.646 0 0 0-.414-.042c-.308 0-.572.086-.792.258-.22.168-.406.416-.558.744v3.834h-1.482ZM27.347 6.237h1.356a.57.57 0 0 1 .348.102c.096.064.16.152.192.264l1.476 5.19c.036.128.068.268.096.42.032.148.062.306.09.474a5.968 5.968 0 0 1 .228-.894l1.704-5.19a.575.575 0 0 1 .186-.252.543.543 0 0 1 .348-.114h.474a.57.57 0 0 1 .348.102.497.497 0 0 1 .192.264l1.692 5.19c.088.256.164.54.228.852.028-.156.056-.306.084-.45.032-.144.064-.278.096-.402l1.476-5.19c.028-.1.09-.186.186-.258a.563.563 0 0 1 .348-.108h1.266l-2.694 8.676h-1.458l-1.896-5.928-.078-.246a9.504 9.504 0 0 1-.072-.282c-.024.1-.05.194-.078.282-.024.088-.048.17-.072.246l-1.914 5.928H30.04l-2.694-8.676ZM42.771 8.661c.46 0 .876.074 1.248.222.376.148.696.358.96.63s.468.604.612.996c.144.392.216.83.216 1.314 0 .488-.072.928-.216 1.32a2.85 2.85 0 0 1-.612 1.002 2.653 2.653 0 0 1-.96.636 3.35 3.35 0 0 1-1.248.222c-.46 0-.878-.074-1.254-.222a2.712 2.712 0 0 1-.966-.636 2.922 2.922 0 0 1-.618-1.002 3.807 3.807 0 0 1-.216-1.32c0-.484.072-.922.216-1.314.148-.392.354-.724.618-.996.268-.272.59-.482.966-.63a3.397 3.397 0 0 1 1.254-.222Zm0 5.202c.512 0 .89-.172 1.134-.516.248-.344.372-.848.372-1.512s-.124-1.17-.372-1.518c-.244-.348-.622-.522-1.134-.522-.52 0-.904.176-1.152.528-.248.348-.372.852-.372 1.512s.124 1.164.372 1.512c.248.344.632.516 1.152.516ZM46.723 14.913V8.757h.87c.152 0 .258.028.318.084.06.056.1.152.12.288l.09.744c.22-.38.478-.68.774-.9.296-.22.628-.33.996-.33.304 0 .556.07.756.21l-.192 1.11c-.012.072-.038.124-.078.156a.278.278 0 0 1-.162.042 1.01 1.01 0 0 1-.246-.042 1.646 1.646 0 0 0-.414-.042c-.308 0-.572.086-.792.258-.22.168-.406.416-.558.744v3.834h-1.482ZM52.96 5.997v8.916h-1.482V5.997h1.482ZM58.732 14.913c-.192 0-.318-.09-.378-.27l-.12-.594a3.68 3.68 0 0 1-.402.39c-.14.116-.292.216-.456.3-.16.084-.334.148-.522.192a2.372 2.372 0 0 1-.6.072c-.336 0-.644-.07-.924-.21a2.098 2.098 0 0 1-.726-.606 3.033 3.033 0 0 1-.468-.99 5.072 5.072 0 0 1-.162-1.344c0-.456.062-.88.186-1.272s.302-.732.534-1.02c.232-.288.51-.512.834-.672a2.384 2.384 0 0 1 1.092-.246 2.103 2.103 0 0 1 1.536.606V5.997h1.482v8.916h-.906Zm-1.974-1.086c.308 0 .57-.064.786-.192.216-.128.42-.31.612-.546v-2.76a1.452 1.452 0 0 0-.552-.432 1.597 1.597 0 0 0-.636-.126c-.224 0-.428.042-.612.126a1.21 1.21 0 0 0-.462.384c-.124.168-.22.384-.288.648-.068.26-.102.568-.102.924 0 .36.028.666.084.918.06.248.144.452.252.612.108.156.24.27.396.342.156.068.33.102.522.102ZM16.331 20.757v6.156H14.85v-6.156h1.481Zm.223-1.794a.844.844 0 0 1-.078.36.963.963 0 0 1-.21.294.995.995 0 0 1-.3.204.963.963 0 0 1-.372.072.948.948 0 0 1-.367-.072 1.018 1.018 0 0 1-.498-.498.963.963 0 0 1 0-.732.995.995 0 0 1 .205-.3.929.929 0 0 1 .293-.198.899.899 0 0 1 .738 0 .912.912 0 0 1 .3.198.943.943 0 0 1 .288.672ZM17.771 26.913v-6.156h.906c.192 0 .318.09.378.27l.102.486a2.934 2.934 0 0 1 .828-.618c.156-.076.322-.134.498-.174.176-.04.368-.06.576-.06.336 0 .634.058.894.174.26.112.476.272.648.48.176.204.308.45.396.738.092.284.138.598.138.942v3.918h-1.482v-3.918c0-.376-.088-.666-.264-.87-.172-.208-.432-.312-.78-.312-.256 0-.496.058-.72.174a2.58 2.58 0 0 0-.636.474v4.452h-1.482ZM34.22 22.575c0 .636-.106 1.22-.318 1.752-.212.532-.51.99-.894 1.374a4 4 0 0 1-1.386.894 4.87 4.87 0 0 1-1.794.318h-3.312v-8.676h3.312a4.79 4.79 0 0 1 1.794.324 4 4 0 0 1 1.386.894c.384.38.682.836.894 1.368.212.532.318 1.116.318 1.752Zm-1.65 0c0-.476-.064-.902-.192-1.278a2.68 2.68 0 0 0-.546-.96 2.332 2.332 0 0 0-.864-.606 2.94 2.94 0 0 0-1.14-.21h-1.686v6.108h1.686c.424 0 .804-.07 1.14-.21.34-.14.628-.34.864-.6a2.75 2.75 0 0 0 .546-.96 4.01 4.01 0 0 0 .192-1.284ZM39.98 26.913h-.665c-.14 0-.25-.02-.33-.06-.08-.044-.14-.13-.18-.258l-.132-.438c-.156.14-.31.264-.462.372a2.804 2.804 0 0 1-.462.264c-.16.072-.33.126-.51.162-.18.036-.38.054-.6.054-.26 0-.5-.034-.72-.102a1.618 1.618 0 0 1-.57-.318 1.448 1.448 0 0 1-.366-.522 1.852 1.852 0 0 1-.132-.726c0-.232.06-.46.18-.684.124-.228.328-.432.612-.612.284-.184.662-.336 1.134-.456.472-.12 1.058-.188 1.758-.204v-.36c0-.412-.088-.716-.264-.912-.172-.2-.424-.3-.756-.3a1.837 1.837 0 0 0-1.02.276c-.116.068-.224.13-.324.186a.664.664 0 0 1-.33.084.429.429 0 0 1-.258-.078.614.614 0 0 1-.174-.192l-.27-.474c.708-.648 1.562-.972 2.562-.972.36 0 .68.06.96.18.284.116.524.28.72.492.196.208.344.458.444.75.104.292.156.612.156.96v3.888Zm-2.88-.924c.153 0 .293-.014.42-.042.129-.028.249-.07.36-.126.117-.056.227-.124.33-.204.109-.084.217-.182.325-.294v-1.038c-.432.02-.794.058-1.086.114-.288.052-.52.12-.696.204a.923.923 0 0 0-.378.294.664.664 0 0 0-.108.366c0 .26.076.446.228.558.156.112.358.168.606.168ZM43.22 27.01c-.532 0-.942-.15-1.23-.45-.288-.305-.432-.723-.432-1.255v-3.438h-.624a.31.31 0 0 1-.21-.078c-.056-.052-.084-.13-.084-.234v-.588l.99-.162.312-1.68a.302.302 0 0 1 .108-.186.365.365 0 0 1 .222-.066h.768v1.938h1.62v1.056h-1.62v3.336c0 .192.048.342.144.45a.488.488 0 0 0 .384.162c.092 0 .168-.01.228-.03.064-.024.118-.048.162-.072.048-.024.09-.046.126-.066a.194.194 0 0 1 .108-.036.16.16 0 0 1 .108.036c.028.02.058.052.09.096l.444.72c-.216.18-.464.316-.744.408a2.77 2.77 0 0 1-.87.138ZM50.423 26.913h-.666c-.14 0-.25-.02-.33-.06-.08-.044-.14-.13-.18-.258l-.132-.438c-.156.14-.31.264-.462.372a2.804 2.804 0 0 1-.462.264c-.16.072-.33.126-.51.162-.18.036-.38.054-.6.054-.26 0-.5-.034-.72-.102a1.618 1.618 0 0 1-.57-.318 1.448 1.448 0 0 1-.366-.522 1.852 1.852 0 0 1-.132-.726c0-.232.06-.46.18-.684.124-.228.328-.432.612-.612.284-.184.662-.336 1.134-.456.472-.12 1.058-.188 1.758-.204v-.36c0-.412-.088-.716-.264-.912-.172-.2-.424-.3-.756-.3a1.837 1.837 0 0 0-1.02.276c-.116.068-.224.13-.324.186a.664.664 0 0 1-.33.084.429.429 0 0 1-.258-.078.614.614 0 0 1-.174-.192l-.27-.474c.708-.648 1.562-.972 2.562-.972.36 0 .68.06.96.18.284.116.524.28.72.492.196.208.344.458.444.75.104.292.156.612.156.96v3.888Zm-2.88-.924c.152 0 .292-.014.42-.042.128-.028.248-.07.36-.126.116-.056.226-.124.33-.204.108-.084.216-.182.324-.294v-1.038c-.432.02-.794.058-1.086.114-.288.052-.52.12-.696.204a.923.923 0 0 0-.378.294.664.664 0 0 0-.108.366c0 .26.076.446.228.558.156.112.358.168.606.168Z"/></svg></g><a id="title" href="https://ourworldindata.org/explorers/minerals?Mineral=Molybdenum&amp;Metric=Production&amp;Type=Mine%2C+iron+content&amp;Share+of+global=false&amp;country=AUS~CHL~CHN~USA~CAN~ALB~DZA~ARG~ARM~AUT~AZE~BOL~OWID_WRL~BWA~BRA~BGR~COL~COG~CUB~CYP~OWID_CZS~COD~DOM~OWID_GDR~ZWE~ZMB~OWID_YGS~OWID_GFR~VNM~UZB~GBR~UGA~OWID_USS~TUR~TZA~TJK~TWN~SWE~ESP~KOR~ZAF~SVK~OWID_SRM~SRB~SAU~RUS~ROU~PRT~POL~PHL~PER~PNG~PAN~PAK~OMN~NOR~MKD~PRK~NIC~NZL~NAM~MMR~MOZ~MAR~MNG~MEX~MRT~MYS~LAO~KGZ~KEN~KAZ~JPN~ITA~ISR~IRL~IRN~IDN~IND~HUN~HND~HTI~GTM~GRC~DEU~GEO~FRA~FIN~ERI~ECU~VEN~ARE~UKR~CHE~SUR~LKA~SVN~QAT~NGA~NLD~MNE~ISL~GHA~EGY~HRV~CMR~BIH~BHR~AFG~OWID_KOS~MDG~NCL~SDN~Other~CZE~THA~TUN~CIV~GAB" style="font-family:&#x27;Playfair Display&#x27;, Georgia, &#x27;Times New Roman&#x27;, &#x27;Liberation Serif&#x27;, serif" target="_blank" rel="noopener"><text font-size="24.75" font-weight="600" x="16.0" y="40.0" fill="#5b5b5b"><tspan x="16" y="40.0075">Molybdenum production, 1900 to 2023</tspan></text></a><g id="subtitle" class="markdown-text-wrap"><text x="16.0" y="63.9" style="font-size:14.625px;line-height:1.2" fill="#5b5b5b"><tspan x="16" y="63.9">Production of <tspan class="dod-span" data-id="molybdenum">molybdenum<tspan style="font-feature-settings:&quot;sups&quot;">¹</tspan></tspan>, in tonnes. Based on mined, rather than <tspan class="dod-span" data-id="refined-production">refined<tspan style="font-feature-settings:&quot;sups&quot;">²</tspan></tspan>, production.</tspan></text></g></g><g id="chart-area" style="pointer-events:none"><g id="line-chart" class="LineChart"><defs><clipPath id="boundsClip-72"><rect x="67.7" y="73.25" width="838" height="435.95"></rect></clipPath></defs><rect x="16" y="83.25" width="818" height="415.95" fill="none"></rect><g id="dual-axis" class="DualAxisView"><g id="horizontal-axis" class="HorizontalAxis"><g id="tick__1900"><line x1="77.7" y1="478.2" x2="77.7" y2="483.7" stroke="#999" stroke-width="1"></line><text x="77.7" y="497.2" fill="#5b5b5b" text-anchor="start" font-size="13.5">1900</text></g><g id="tick__2023"><line x1="717.6" y1="478.2" x2="717.6" y2="483.7" stroke="#999" stroke-width="1"></line><text x="717.595" y="497.2" fill="#5b5b5b" text-anchor="end" font-size="13.5">2023</text></g><g id="tick__1920"><line x1="181.7" y1="478.2" x2="181.7" y2="483.7" stroke="#999" stroke-width="1"></line><text x="181.7" y="497.2" fill="#5b5b5b" text-anchor="middle" font-size="13.5">1920</text></g><g id="tick__1940"><line x1="285.8" y1="478.2" x2="285.8" y2="483.7" stroke="#999" stroke-width="1"></line><text x="285.8" y="497.2" fill="#5b5b5b" text-anchor="middle" font-size="13.5">1940</text></g><g id="tick__1960"><line x1="389.8" y1="478.2" x2="389.8" y2="483.7" stroke="#999" stroke-width="1"></line><text x="389.8" y="497.2" fill="#5b5b5b" text-anchor="middle" font-size="13.5">1960</text></g><g id="tick__1980"><line x1="493.9" y1="478.2" x2="493.9" y2="483.7" stroke="#999" stroke-width="1"></line><text x="493.9" y="497.2" fill="#5b5b5b" text-anchor="middle" font-size="13.5">1980</text></g><g id="tick__2000"><line x1="597.9" y1="478.2" x2="597.9" y2="483.7" stroke="#999" stroke-width="1"></line><text x="597.9" y="497.2" fill="#5b5b5b" text-anchor="middle" font-size="13.5">2000</text></g></g><g id="vertical-axis" class="VerticalAxis"><g id="tick-labels"><text id="tick-label__0-t" x="72.70" y="478.7" dy=".32em" text-anchor="end" fill="#5b5b5b" font-size="13.5">0 t</text><text id="tick-label__50__002c000-t" x="72.70" y="414.9" dy=".32em" text-anchor="end" fill="#5b5b5b" font-size="13.5">50,000 t</text><text id="tick-label__100__002c000-t" x="72.70" y="351" dy=".32em" text-anchor="end" fill="#5b5b5b" font-size="13.5">100,000 t</text><text id="tick-label__150__002c000-t" x="72.70" y="287.2" dy=".32em" text-anchor="end" fill="#5b5b5b" font-size="13.5">150,000 t</text><text id="tick-label__200__002c000-t" x="72.70" y="223.3" dy=".32em" text-anchor="end" fill="#5b5b5b" font-size="13.5">200,000 t</text><text id="tick-label__250__002c000-t" x="72.70" y="159.5" dy=".32em" text-anchor="end" fill="#5b5b5b" font-size="13.5">250,000 t</text><text id="tick-label__300__002c000-t" x="72.70" y="95.6" dy=".32em" text-anchor="end" fill="#5b5b5b" font-size="13.5">300,000 t</text></g></g><g id="horizontal-grid-lines" class="AxisGridLines horizontalLines"><line id="grid-line__0" x1="77.70" y1="478.7" x2="717.60" y2="478.7" stroke="#999" stroke-width="1"></line><line id="grid-line__50000" x1="77.70" y1="414.9" x2="717.60" y2="414.9" stroke="#ddd" stroke-width="1" stroke-dasharray="3,2"></line><line id="grid-line__100000" x1="77.70" y1="351" x2="717.60" y2="351" stroke="#ddd" stroke-width="1" stroke-dasharray="3,2"></line><line id="grid-line__150000" x1="77.70" y1="287.2" x2="717.60" y2="287.2" stroke="#ddd" stroke-width="1" stroke-dasharray="3,2"></line><line id="grid-line__200000" x1="77.70" y1="223.3" x2="717.60" y2="223.3" stroke="#ddd" stroke-width="1" stroke-dasharray="3,2"></line><line id="grid-line__250000" x1="77.70" y1="159.5" x2="717.60" y2="159.5" stroke="#ddd" stroke-width="1" stroke-dasharray="3,2"></line><line id="grid-line__300000" x1="77.70" y1="95.6" x2="717.60" y2="95.6" stroke="#ddd" stroke-width="1" stroke-dasharray="3,2"></line></g></g><g clip-path="url(#boundsClip-72)"><g id="line-labels" class="LineLabels"><g id="mark__World" class="legendMark" style="cursor:default"><g id="connector" class="indicator"><path d="M721.595,146.7 H722.6334615384616 V104.94999999999993 H748.595" stroke="#999" stroke-width="0.5" fill="none"></path></g><rect id="background" x="717.595" y="98.19999999999993" width="70.235" height="13.5" fill="#fff" opacity="0"></rect><text id="label" font-size="13.50" font-weight="400" x="752.6" y="109.9" fill="#c15065"><tspan x="752.595" y="109.94499999999994">World</tspan></text></g><g id="mark__China" class="legendMark" style="cursor:default"><g id="connector" class="indicator"><path d="M721.595,338.2 H723.6719230769231 V120.44999999999993 H748.595" stroke="#999" stroke-width="0.5" fill="none"></path></g><rect id="background" x="717.595" y="113.69999999999993" width="70.37" height="13.5" fill="#fff" opacity="0"></rect><text id="label" font-size="13.50" font-weight="400" x="752.6" y="125.4" fill="#cf0a66"><tspan x="752.595" y="125.44499999999994">China</tspan></text></g><g id="mark__Chile" class="legendMark" style="cursor:default"><g id="connector" class="indicator"><path d="M721.595,420 H724.7103846153847 V135.94999999999993 H748.595" stroke="#999" stroke-width="0.5" fill="none"></path></g><rect id="background" x="717.595" y="129.19999999999993" width="65.78" height="13.5" fill="#fff" opacity="0"></rect><text id="label" font-size="13.50" font-weight="400" x="752.6" y="140.9" fill="#be5915"><tspan x="752.595" y="140.94499999999994">Chile</tspan></text></g><g id="mark__Peru" class="legendMark" style="cursor:default"><g id="connector" class="indicator"><path d="M721.595,431.5 H725.7488461538462 V151.44999999999993 H748.595" stroke="#999" stroke-width="0.5" fill="none"></path></g><rect id="background" x="717.595" y="144.69999999999993" width="63.620000000000005" height="13.5" fill="#fff" opacity="0"></rect><text id="label" font-size="13.50" font-weight="400" x="752.6" y="156.4" fill="#be5915"><tspan x="752.595" y="156.44499999999994">Peru</tspan></text></g><g id="mark__United-States" class="legendMark" style="cursor:default"><g id="connector" class="indicator"><path d="M721.595,435.3 H726.7873076923078 V166.94999999999993 H748.595" stroke="#999" stroke-width="0.5" fill="none"></path></g><rect id="background" x="717.595" y="160.19999999999993" width="116.405" height="13.5" fill="#fff" opacity="0"></rect><text id="label" font-size="13.50" font-weight="400" x="752.6" y="171.9" fill="#6d3e91"><tspan x="752.595" y="171.94499999999994">United States</tspan></text></g><g id="mark__USSR" class="legendMark" style="cursor:default"><g id="connector" class="indicator"><path d="M721.595,458.3 H727.8257692307693 V182.44999999999993 H748.595" stroke="#999" stroke-width="0.5" fill="none"></path></g><rect id="background" x="717.595" y="175.69999999999993" width="72.53" height="13.5" fill="#fff" opacity="0"></rect><text id="label" font-size="13.50" font-weight="400" x="752.6" y="187.4" fill="#996d39"><tspan x="752.595" y="187.44499999999994">USSR</tspan></text></g><g id="mark__Mexico" class="legendMark" style="cursor:default"><g id="connector" class="indicator"><path d="M721.595,459.5 H728.8642307692309 V197.94999999999993 H748.595" stroke="#999" stroke-width="0.5" fill="none"></path></g><rect id="background" x="717.595" y="191.19999999999993" width="77.795" height="13.5" fill="#fff" opacity="0"></rect><text id="label" font-size="13.50" font-weight="400" x="752.6" y="202.9" fill="#b13507"><tspan x="752.595" y="202.94499999999994">Mexico</tspan></text></g><g id="mark__Armenia" class="legendMark" style="cursor:default"><g id="connector" class="indicator"><path d="M721.595,468.7 H729.9026923076923 V213.44999999999993 H748.595" stroke="#999" stroke-width="0.5" fill="none"></path></g><rect id="background" x="717.595" y="206.69999999999993" width="85.355" height="13.5" fill="#fff" opacity="0"></rect><text id="label" font-size="13.50" font-weight="400" x="752.6" y="218.4" fill="#00295b"><tspan x="752.595" y="218.44499999999994">Armenia</tspan></text></g><g id="mark__Iran" class="legendMark" style="cursor:default"><g id="connector" class="indicator"><path d="M721.595,474 H730.9411538461538 V228.94999999999993 H748.595" stroke="#999" stroke-width="0.5" fill="none"></path></g><rect id="background" x="717.595" y="222.19999999999993" width="58.355000000000004" height="13.5" fill="#fff" opacity="0"></rect><text id="label" font-size="13.50" font-weight="400" x="752.6" y="233.9" fill="#cf0a66"><tspan x="752.595" y="233.94499999999994">Iran</tspan></text></g><g id="mark__Mongolia" class="legendMark" style="cursor:default"><g id="connector" class="indicator"><path d="M721.595,474.7 H731.9796153846154 V244.44999999999993 H748.595" stroke="#999" stroke-width="0.5" fill="none"></path></g><rect id="background" x="717.595" y="237.69999999999993" width="89.945" height="13.5" fill="#fff" opacity="0"></rect><text id="label" font-size="13.50" font-weight="400" x="752.6" y="249.4" fill="#00847e"><tspan x="752.595" y="249.44499999999994">Mongolia</tspan></text></g><g id="mark__Kazakhstan" class="legendMark" style="cursor:default"><g id="connector" class="indicator"><path d="M721.595,475.3 H733.0180769230769 V259.94999999999993 H748.595" stroke="#999" stroke-width="0.5" fill="none"></path></g><rect id="background" x="717.595" y="253.19999999999993" width="105.875" height="13.5" fill="#fff" opacity="0"></rect><text id="label" font-size="13.50" font-weight="400" x="752.6" y="264.9" fill="#d73c50"><tspan x="752.595" y="264.94499999999994">Kazakhstan</tspan></text></g><g id="mark__Russia" class="legendMark" style="cursor:default"><g id="connector" class="indicator"><path d="M721.595,476.5 H734.0565384615385 V275.44999999999993 H748.595" stroke="#999" stroke-width="0.5" fill="none"></path></g><rect id="background" x="717.595" y="268.69999999999993" width="76.31" height="13.5" fill="#fff" opacity="0"></rect><text id="label" font-size="13.50" font-weight="400" x="752.6" y="280.4" fill="#8c4569"><tspan x="752.595" y="280.44499999999994">Russia</tspan></text></g><g id="mark__Uzbekistan" class="legendMark" style="cursor:default"><g id="connector" class="indicator"><path d="M721.595,476.5 H735.095 V290.94999999999993 H748.595" stroke="#999" stroke-width="0.5" fill="none"></path></g><rect id="background" x="717.595" y="284.19999999999993" width="101.96000000000001" height="13.5" fill="#fff" opacity="0"></rect><text id="label" font-size="13.50" font-weight="400" x="752.6" y="295.9" fill="#18470f"><tspan x="752.595" y="295.94499999999994">Uzbekistan</tspan></text></g><g id="mark__Poland" class="legendMark" style="cursor:default"><g id="connector" class="indicator"><path d="M721.595,477.1 H736.1334615384616 V306.44999999999993 H748.595" stroke="#999" stroke-width="0.5" fill="none"></path></g><rect id="background" x="717.595" y="299.69999999999993" width="77.255" height="13.5" fill="#fff" opacity="0"></rect><text id="label" font-size="13.50" font-weight="400" x="752.6" y="311.4" fill="#c15065"><tspan x="752.595" y="311.44499999999994">Poland</tspan></text></g><g id="mark__Canada" class="legendMark" style="cursor:default"><g id="connector" class="indicator"><path d="M721.595,477.4 H737.1719230769231 V321.94999999999993 H748.595" stroke="#999" stroke-width="0.5" fill="none"></path></g><rect id="background" x="717.595" y="315.19999999999993" width="82.52000000000001" height="13.5" fill="#fff" opacity="0"></rect><text id="label" font-size="13.50" font-weight="400" x="752.6" y="326.9" fill="#18470f"><tspan x="752.595" y="326.94499999999994">Canada</tspan></text></g><g id="mark__Japan" class="legendMark" style="cursor:default"><g id="connector" class="indicator"><path d="M721.595,477.8 H738.2103846153847 V337.44999999999993 H748.595" stroke="#999" stroke-width="0.5" fill="none"></path></g><rect id="background" x="717.595" y="330.69999999999993" width="71.99000000000001" height="13.5" fill="#fff" opacity="0"></rect><text id="label" font-size="13.50" font-weight="400" x="752.6" y="342.4" fill="#c15065"><tspan x="752.595" y="342.44499999999994">Japan</tspan></text></g><g id="mark__North-Korea" class="legendMark" style="cursor:default"><g id="connector" class="indicator"><path d="M721.595,477.8 H739.2488461538462 V352.94999999999993 H748.595" stroke="#999" stroke-width="0.5" fill="none"></path></g><rect id="background" x="717.595" y="346.19999999999993" width="108.03500000000001" height="13.5" fill="#fff" opacity="0"></rect><text id="label" font-size="13.50" font-weight="400" x="752.6" y="357.9" fill="#00295b"><tspan x="752.595" y="357.94499999999994">North Korea</tspan></text></g><g id="mark__Australia" class="legendMark" style="cursor:default"><g id="connector" class="indicator"><path d="M721.595,478.1 H740.2873076923078 V368.44999999999993 H748.595" stroke="#999" stroke-width="0.5" fill="none"></path></g><rect id="background" x="717.595" y="361.69999999999993" width="87.65" height="13.5" fill="#fff" opacity="0"></rect><text id="label" font-size="13.50" font-weight="400" x="752.6" y="373.4" fill="#2c8465"><tspan x="752.595" y="373.44499999999994">Australia</tspan></text></g><g id="mark__Bulgaria" class="legendMark" style="cursor:default"><g id="connector" class="indicator"><path d="M721.595,478.2 H741.3257692307693 V383.94999999999993 H748.595" stroke="#999" stroke-width="0.5" fill="none"></path></g><rect id="background" x="717.595" y="377.19999999999993" width="84.68" height="13.5" fill="#fff" opacity="0"></rect><text id="label" font-size="13.50" font-weight="400" x="752.6" y="388.9" fill="#970046"><tspan x="752.595" y="388.94499999999994">Bulgaria</tspan></text></g><g id="mark__South-Korea" class="legendMark" style="cursor:default"><g id="connector" class="indicator"><path d="M721.595,478.2 H742.3642307692309 V399.44999999999993 H748.595" stroke="#999" stroke-width="0.5" fill="none"></path></g><rect id="background" x="717.595" y="392.69999999999993" width="110.465" height="13.5" fill="#fff" opacity="0"></rect><text id="label" font-size="13.50" font-weight="400" x="752.6" y="404.4" fill="#970046"><tspan x="752.595" y="404.44499999999994">South Korea</tspan></text></g><g id="mark__Brazil" class="legendMark" style="cursor:default"><g id="connector" class="indicator"><path d="M721.595,478.4 H743.4026923076923 V414.94999999999993 H748.595" stroke="#999" stroke-width="0.5" fill="none"></path></g><rect id="background" x="717.595" y="408.19999999999993" width="68.75" height="13.5" fill="#fff" opacity="0"></rect><text id="label" font-size="13.50" font-weight="400" x="752.6" y="419.9" fill="#578145"><tspan x="752.595" y="419.94499999999994">Brazil</tspan></text></g><g id="mark__Philippines" class="legendMark" style="cursor:default"><g id="connector" class="indicator"><path d="M721.595,478.7 H744.4411538461538 V430.44999999999993 H748.595" stroke="#999" stroke-width="0.5" fill="none"></path></g><rect id="background" x="717.595" y="423.69999999999993" width="100.47500000000001" height="13.5" fill="#fff" opacity="0"></rect><text id="label" font-size="13.50" font-weight="400" x="752.6" y="435.4" fill="#2c8465"><tspan x="752.595" y="435.44499999999994">Philippines</tspan></text></g><g id="mark__Turkey" class="legendMark" style="cursor:default"><g id="connector" class="indicator"><path d="M721.595,478.7 H745.4796153846154 V445.94999999999993 H748.595" stroke="#999" stroke-width="0.5" fill="none"></path></g><rect id="background" x="717.595" y="439.19999999999993" width="76.31" height="13.5" fill="#fff" opacity="0"></rect><text id="label" font-size="13.50" font-weight="400" x="752.6" y="450.9" fill="#00295b"><tspan x="752.595" y="450.94499999999994">Turkey</tspan></text></g><g id="mark__Kyrgyzstan" class="legendMark" style="cursor:default"><g id="connector" class="indicator"><path d="M721.595,478.7 H746.5180769230769 V461.44999999999993 H748.595" stroke="#999" stroke-width="0.5" fill="none"></path></g><rect id="background" x="717.595" y="454.69999999999993" width="101.96000000000001" height="13.5" fill="#fff" opacity="0"></rect><text id="label" font-size="13.50" font-weight="400" x="752.6" y="466.4" fill="#8c4569"><tspan x="752.595" y="466.44499999999994">Kyrgyzstan</tspan></text></g><g id="mark__Argentina" class="legendMark" style="cursor:default"><g id="connector" class="indicator"><path d="M721.595,478.7 H747.5565384615385 V476.94999999999993 H748.595" stroke="#999" stroke-width="0.5" fill="none"></path></g><rect id="background" x="717.595" y="470.19999999999993" width="93.05000000000001" height="13.5" fill="#fff" opacity="0"></rect><text id="label" font-size="13.50" font-weight="400" x="752.6" y="481.9" fill="#996d39"><tspan x="752.595" y="481.94499999999994">Argentina</tspan></text></g><g id="mark__Norway" class="legendMark" style="cursor:default"><g id="connector" class="indicator"><path d="M721.595,478.7 H747.5565384615385 V492.44999999999993 H748.595" stroke="#999" stroke-width="0.5" fill="none"></path></g><rect id="background" x="717.595" y="485.69999999999993" width="80.765" height="13.5" fill="#fff" opacity="0"></rect><text id="label" font-size="13.50" font-weight="400" x="752.6" y="497.4" fill="#883039"><tspan x="752.595" y="497.44499999999994">Norway</tspan></text></g></g><g id="lines" class="Lines"><rect x="78" y="89" width="640" height="389" fill="rgba(255,255,255,0)" opacity="0"></rect><g id="line__North-Korea"><path stroke-linecap="round" stroke-linejoin="round" stroke="#ddd" d="M712.4 477.8L717.6 477.8" fill="none" stroke-width="1"></path></g><g id="line__Australia"><path stroke-linecap="round" stroke-linejoin="round" stroke="#ddd" d="M712.4 478.3L717.6 478.1" fill="none" stroke-width="1"></path></g><g id="line__Poland"><path stroke-linecap="round" stroke-linejoin="round" stroke="#ddd" d="M665.6 477L670.8 477L676 477L681.2 477L686.4 477.1L691.6 477.2L696.8 477.1L702 477.2L707.2 477.1L712.4 477.1" fill="none" stroke-width="1"></path></g><g id="line__Norway"><path stroke-linecap="round" stroke-linejoin="round" stroke="#ddd" d="M660.4 478.7L665.6 478.7L670.8 478.7L676 478.7L681.2 478.7L686.4 478.7L691.6 478.7L696.8 478.7L702 478.7L707.2 478.7L712.4 478.7" fill="none" stroke-width="1"></path></g><g id="line__Brazil"><path stroke-linecap="round" stroke-linejoin="round" stroke="#ddd" d="M639.6 477.7L644.8 478.4L650 478.3L655.2 478.4L660.4 478.5L665.6 478.4L670.8 478.4L676 478.4L681.2 478.4L686.4 478.4L691.6 478.4L696.8 478.4L702 478.4L707.2 478.4L712.4 478.4" fill="none" stroke-width="1"></path></g><g id="line__Argentina"><path stroke-linecap="round" stroke-linejoin="round" stroke="#ddd" d="M618.7 478.7L624 478.7L629.2 478.7L634.4 478.7L639.6 478.4L644.8 477.2L650 478.1L655.2 476.5L660.4 472.5L665.6 473.8L670.8 476.3L676 476.5L681.2 476.1L686.4 477L691.6 477.8L702 478.7L707.2 478.7L712.4 478.7L717.6 478.7" fill="none" stroke-width="1"></path></g><g id="line__Kyrgyzstan"><path stroke-linecap="round" stroke-linejoin="round" stroke="#ddd" d="M587.5 478.5L592.7 478.4L597.9 478.4L603.1 478.4L608.3 478.4L613.5 478.4L618.7 478.4L624 478.4L629.2 478.4L686.4 478.7L691.6 478.7L696.8 478.7L702 478.7L707.2 478.7L712.4 478.7" fill="none" stroke-width="1"></path></g><g id="line__Uzbekistan"><path stroke-linecap="round" stroke-linejoin="round" stroke="#ddd" d="M566.7 478.1L571.9 478.2L577.1 478.1L582.3 478.1L587.5 478.1L592.7 478.1L597.9 478.3L603.1 478L608.3 478.1L613.5 478.1L618.7 478.1L624 478L629.2 477.9L655.2 478L660.4 478L665.6 478.1L670.8 478.1L676 478L681.2 477.9L686.4 477.8L691.6 477.8L696.8 477.8L702 478.4L707.2 476.7L712.4 476.5L717.6 476.5" fill="none" stroke-width="1"></path></g><g id="line__Russia"><path stroke-linecap="round" stroke-linejoin="round" stroke="#ddd" d="M556.3 471L561.5 471.4L566.7 473.2L571.9 473.1L577.1 472.6L582.3 472.6L587.5 472.6L592.7 472.6L597.9 474L603.1 472.6L608.3 472.6L613.5 472.6L618.7 472.6L624 472.6L629.2 472.6L634.4 474L639.6 473.5L644.8 472.9L650 473L655.2 472.5L660.4 472.5L665.6 474.1L670.8 474.7L676 474.5L681.2 474.4L686.4 474.6L691.6 475.8L696.8 476.2L702 475.3L707.2 476.5L712.4 476.5L717.6 476.5" fill="none" stroke-width="1"></path></g><g id="line__Kazakhstan"><path stroke-linecap="round" stroke-linejoin="round" stroke="#ddd" d="M556.3 477.8L561.5 477.9L566.7 478.4L571.9 478.5L577.1 478.6L582.3 478.6L587.5 478.6L592.7 478.5L597.9 478.4L603.1 478.6L608.3 478.6L613.5 478.6L629.2 478.2L634.4 478.1L639.6 478.2L676 478.7L681.2 478.7L686.4 478.7L691.6 478.5L696.8 478.4L702 478.2L707.2 478.2L712.4 475.3" fill="none" stroke-width="1"></path></g><g id="line__Armenia"><path stroke-linecap="round" stroke-linejoin="round" stroke="#ddd" d="M556.3 477.4L561.5 478.1L566.7 478.1L571.9 476.8L577.1 476.4L582.3 476.4L587.5 475.4L592.7 475.2L597.9 474.8L603.1 474.9L608.3 475L613.5 475.2L618.7 474.9L624 474.8L629.2 473.5L634.4 473.1L639.6 473L644.8 473.1L650 473.1L655.2 472.5L660.4 471.7L665.6 471.1L670.8 471L676 471.9L681.2 471.8L686.4 471.2L691.6 471.5L696.8 469.3L702 467.6L707.2 468.8L712.4 468.7L717.6 468.7" fill="none" stroke-width="1"></path></g><g id="line__Iran"><path stroke-linecap="round" stroke-linejoin="round" stroke="#ddd" d="M514.7 478.1L519.9 478.1L525.1 477.6L530.3 477.6L535.5 477.2L540.7 477L545.9 478.1L551.1 478.2L556.3 477.7L561.5 477.2L566.7 476.8L571.9 477.7L577.1 477.2L582.3 476.7L587.5 475.6L592.7 475.4L597.9 476.1L603.1 475.4L608.3 475.7L613.5 475.8L618.7 476.3L624 475.5L629.2 474.1L634.4 474.6L639.6 474.1L644.8 473.7L650 474L655.2 474.4L660.4 474.2L665.6 474.3L670.8 473.6L676 470.1L681.2 469.8L686.4 468.8L691.6 468.9L696.8 467.6L702 476.9L707.2 474.7L712.4 474L717.6 474" fill="none" stroke-width="1"></path></g><g id="line__Mongolia"><path stroke-linecap="round" stroke-linejoin="round" stroke="#ddd" d="M488.7 478.4L493.9 478.1L499.1 477.9L504.3 477.7L509.5 477.5L514.7 477.4L519.9 477.4L525.1 476.8L530.3 476.8L535.5 476.7L540.7 476.7L545.9 476.1L551.1 476.5L556.3 476.8L561.5 476.7L566.7 476.1L571.9 476.4L577.1 475.9L582.3 476.2L587.5 476.3L592.7 476.2L597.9 477L603.1 476.9L608.3 476.7L613.5 476.4L618.7 477.3L624 477.2L629.2 476.9L634.4 476.2L639.6 476.3L644.8 475.6L650 475.9L655.2 476.2L660.4 476.3L665.6 476.4L670.8 476.1L676 475.4L681.2 475.6L686.4 475.2L691.6 475.4L696.8 475.5L702 475L707.2 474.9L712.4 474.9L717.6 474.7" fill="none" stroke-width="1"></path></g><g id="line__USSR"><path stroke-linecap="round" stroke-linejoin="round" stroke="#ddd" d="M478.3 466.3L483.5 466.1L488.7 465.7L493.9 465.4L499.1 465L504.3 464.7L509.5 464.5L514.7 464.4L519.9 464.3L525.1 464.1L530.3 464L535.5 457L540.7 457L545.9 457L551.1 458.3" fill="none" stroke-width="1"></path></g><g id="line__Turkey"><path stroke-linecap="round" stroke-linejoin="round" stroke="#ddd" d="M478.3 478.7L483.5 478.7L488.7 478.6L493.9 478.6L499.1 478.6L504.3 478.6L509.5 478.6L514.7 478.6L519.9 478.6L525.1 478.6L535.5 478.6L540.7 478.6L545.9 478.6L551.1 478.6L556.3 478.6L561.5 478.6L650 478.7L655.2 478.7L660.4 478.7L665.6 478.7L670.8 478.7L676 478.7L702 478.7L707.2 478.7L712.4 478.7L717.6 478.7" fill="none" stroke-width="1"></path></g><g id="line__South-Korea"><path stroke-linecap="round" stroke-linejoin="round" stroke="#ddd" d="M478.3 478.6L483.5 478.4L488.7 478.5L493.9 478.3L499.1 478.1L504.3 478.2L509.5 478.5L514.7 478.5L519.9 478.3L525.1 478.3L530.3 478.3L535.5 478.5L540.7 478.5L545.9 478.6L551.1 478.5L702 478.2L707.2 478.2L712.4 478.2L717.6 478.2" fill="none" stroke-width="1"></path></g><g id="line__Philippines"><path stroke-linecap="round" stroke-linejoin="round" stroke="#ddd" d="M478.3 478.7L483.5 478.6L488.7 478.5L493.9 478.6L499.1 478.6L504.3 478.6L509.5 478.6L514.7 478.7L519.9 478.7L525.1 478.7" fill="none" stroke-width="1"></path></g><g id="line__Peru"><path stroke-linecap="round" stroke-linejoin="round" stroke="#ddd" d="M478.3 478.1L483.5 477.8L488.7 477.2L493.9 475.6L499.1 474.8L504.3 475L509.5 475.3L514.7 474.8L519.9 473.8L525.1 474.2L530.3 474.4L535.5 475.7L540.7 474.9L545.9 475.5L551.1 474.8L556.3 474.6L561.5 475L566.7 475.2L571.9 474.1L577.1 473.6L582.3 473.3L587.5 473.2L592.7 471.7L597.9 469.5L603.1 466.6L608.3 467.7L613.5 466.5L618.7 460.5L624 456.6L629.2 456.7L634.4 457.3L639.6 457.3L644.8 463L650 457L655.2 454.3L660.4 457.3L665.6 455.5L670.8 457L676 453L681.2 445.8L686.4 442.8L691.6 442.9L696.8 439.8L702 437.6L707.2 435.2L712.4 438.4L717.6 431.5" fill="none" stroke-width="1"></path></g><g id="line__Mexico"><path stroke-linecap="round" stroke-linejoin="round" stroke="#ddd" d="M478.3 478.7L483.5 478.7L488.7 478.6L493.9 478.6L499.1 478.1L504.3 472.1L509.5 471.2L514.7 473.5L519.9 473.9L525.1 474.4L530.3 473.1L535.5 473L540.7 473.4L545.9 476.1L551.1 476.5L556.3 476.8L561.5 476.5L566.7 475.4L571.9 473.7L577.1 473.3L582.3 472.5L587.5 471.1L592.7 468.5L597.9 469.9L603.1 471.7L608.3 474.3L613.5 474.2L618.7 473.9L624 473.3L629.2 475.5L634.4 470.4L639.6 468.7L644.8 465.7L650 464.8L655.2 464.9L660.4 464.2L665.6 462.7L670.8 460.4L676 464.2L681.2 463.5L686.4 460.8L691.6 452.8L696.8 451L702 457.5L707.2 457.9L712.4 458.9L717.6 459.5" fill="none" stroke-width="1"></path></g><g id="line__Japan"><path stroke-linecap="round" stroke-linejoin="round" stroke="#ddd" d="M478.3 478.5L483.5 478.6L488.7 478.6L493.9 478.6L499.1 478.6L504.3 478.6L509.5 478.6L514.7 478.5L519.9 478.6L525.1 478.6L530.3 478.6L535.5 478.6L540.7 478.6L545.9 478.6L551.1 478.6L566.7 477.9L571.9 477.8" fill="none" stroke-width="1"></path></g><g id="line__China"><path stroke-linecap="round" stroke-linejoin="round" stroke="#ddd" d="M478.3 476.8L483.5 476.1L488.7 476.1L493.9 476.1L499.1 476.1L504.3 476.1L509.5 476.1L514.7 476.1L519.9 476.1L525.1 476.1L530.3 463.4L535.5 460.3L540.7 458.7L545.9 459.8L551.1 461.8L556.3 453.7L561.5 455.3L566.7 451.4L571.9 436.6L577.1 440.9L582.3 436.2L587.5 440.4L592.7 440.7L597.9 442L603.1 442.7L608.3 440L613.5 437.6L618.7 429.6L624 440.4L629.2 422.6L634.4 392.3L639.6 375.3L644.8 363.4L650 355.3L655.2 346.8L660.4 324.4L665.6 322.6L670.8 314.6L676 306L681.2 313.5L686.4 329.2L691.6 334L696.8 345.3L702 325.5L707.2 357L712.4 343.4L717.6 338.2" fill="none" stroke-width="1"></path></g><g id="line__Chile"><path stroke-linecap="round" stroke-linejoin="round" stroke="#ddd" d="M478.3 464.7L483.5 461.9L488.7 461.4L493.9 461.2L499.1 459.1L504.3 453.1L509.5 459.2L514.7 457.2L519.9 455.2L525.1 457.5L530.3 457.1L535.5 458.9L540.7 457.6L545.9 461L551.1 460.3L556.3 459.8L561.5 459.7L566.7 458.2L571.9 455.9L577.1 456.5L582.3 451.5L587.5 446.4L592.7 443.9L597.9 435.7L603.1 435.9L608.3 441.1L613.5 436.1L618.7 425.2L624 417.6L629.2 423.6L634.4 421.5L639.6 435.7L644.8 434.3L650 431.4L655.2 426.7L660.4 434.3L665.6 429.6L670.8 416.3L676 411.8L681.2 407.4L686.4 399L691.6 401.8L696.8 410.3L702 402.9L707.2 415.6L712.4 420.5L717.6 420" fill="none" stroke-width="1"></path></g><g id="line__Canada"><path stroke-linecap="round" stroke-linejoin="round" stroke="#ddd" d="M478.3 457.5L483.5 460.9L488.7 464.4L493.9 463.5L499.1 462.3L504.3 460.9L509.5 465.7L514.7 463.9L519.9 469.8L525.1 464.3L530.3 462.7L535.5 462.7L540.7 460.7L545.9 463.4L551.1 464.2L556.3 466.7L561.5 466.3L566.7 467L571.9 466.5L577.1 468.4L582.3 468.2L587.5 467.9L592.7 471.1L597.9 469.2L603.1 468.2L608.3 468.4L613.5 467.1L618.7 466.5L624 468.6L629.2 468.8L634.4 470.2L639.6 467.7L644.8 467.6L650 467.7L655.2 467.6L660.4 467.3L665.6 467.3L670.8 467.6L676 476.2L681.2 475L686.4 472.4L691.6 472.3L696.8 473.6L702 475.5L707.2 476.9L712.4 477.5L717.6 477.4" fill="none" stroke-width="1"></path></g><g id="line__Bulgaria"><path stroke-linecap="round" stroke-linejoin="round" stroke="#ddd" d="M478.3 478.5L483.5 478.5L488.7 478.5L493.9 478.5L499.1 478.5L504.3 478.5L509.5 478.5L514.7 478.5L519.9 478.5L525.1 478.5L530.3 478.4L535.5 478.4L540.7 478.5L545.9 478.4L551.1 478.4L556.3 478.4L561.5 478.4L566.7 478.4L571.9 478.2L577.1 478.2L582.3 478.2" fill="none" stroke-width="1"></path></g><g id="line__World"><path stroke-linecap="round" stroke-linejoin="round" stroke="#ddd" d="M77.7 478.7L82.9 478.7L88.1 478.6L93.3 478.5L98.5 478.6L103.7 478.6L108.9 478.6L114.1 478.6L119.3 478.5L124.5 478.6L129.7 478.6L134.9 478.6L140.1 478.5L145.3 478.6L150.5 478.5L155.7 478.4L160.9 478.1L166.1 477.9L171.3 477.7L176.5 478.2L181.7 478.5L187 478.6L192.2 478.6L197.4 478.5L202.6 478.4L207.8 477.8L213 477.7L218.2 477.1L223.4 476.5L228.6 476.1L233.8 476.3L239 476.7L244.2 477L249.4 474.9L254.6 472.1L259.8 470.4L265 467.2L270.2 459.8L275.4 457.8L280.6 458.8L285.8 456.5L291 452.8L296.2 441.7L301.4 438.4L306.6 451.2L311.8 457.9L317 464.9L322.2 460.8L327.4 461.3L332.6 464.1L337.8 460.2L343 452.8L348.2 449.8L353.4 442.4L358.6 440.8L363.8 435.3L369 438L374.2 434.5L379.4 445.2L384.6 437.3L389.8 427.1L395 435.8L400.2 444.4L405.5 435.3L410.7 433.6L415.9 421.6L421.1 406.3L426.3 396.6L431.5 394.8L436.7 386.4L441.9 373.6L447.1 379.6L452.3 377.4L457.5 374.4L462.7 371.2L467.9 374.3L473.1 365.4L478.3 357.3L483.5 351L488.7 345.9L493.9 337L499.1 339.5L504.3 357.4L509.5 397.2L514.7 353.9L519.9 353.1L525.1 359.7L530.3 351.6L535.5 334.4L540.7 305L545.9 316.5L551.1 331.9L556.3 333.1L561.5 352L566.7 340.8L571.9 305L577.1 316.5L582.3 302.5L587.5 306.3L592.7 314L597.9 306.3L603.1 310.2L608.3 322.9L613.5 311.4L618.7 275.7L624 241.2L629.2 241.2L634.4 208L639.6 196.5L644.8 196.5L650 164.6L655.2 141.6L660.4 131.4L665.6 119.9L670.8 89.3L676 109.7L681.2 122.4L686.4 114.8L691.6 122.4L696.8 122.4L702 98.2L707.2 153.1L712.4 155.6L717.6 146.7" fill="none" stroke-width="1"></path></g><g id="line__United-States"><path stroke-linecap="round" stroke-linejoin="round" stroke="#ddd" d="M77.7 478.7L82.9 478.7L88.1 478.7L93.3 478.6L98.5 478.7L103.7 478.7L108.9 478.7L114.1 478.7L119.3 478.7L124.5 478.7L129.7 478.7L134.9 478.7L140.1 478.7L145.3 478.7L150.5 478.7L155.7 478.6L160.9 478.6L166.1 478.5L171.3 478.2L176.5 478.5L181.7 478.7L187 478.7L192.2 478.7L197.4 478.7L202.6 478.5L207.8 478L213 477.9L218.2 477.4L223.4 476.8L228.6 476.4L233.8 476.5L239 476.9L244.2 477.3L249.4 475.4L254.6 473.3L259.8 472L265 468.7L270.2 461.7L275.4 459.4L280.6 461.1L285.8 458.8L291 455.3L296.2 445.8L301.4 442.9L306.6 456.4L311.8 460.8L317 468.2L322.2 463L327.4 463.2L332.6 465.7L337.8 462.2L343 456.2L348.2 453.7L353.4 445.5L358.6 444.7L363.8 442.9L369 445.4L374.2 443.5L379.4 454.9L384.6 449.2L389.8 439.1L395 440.1L400.2 449.1L405.5 441L410.7 440.6L415.9 433.9L421.1 426.2L426.3 426.5L431.5 424.6L436.7 420.9L441.9 414.2L447.1 415.2L452.3 413.7L457.5 411.5L462.7 413.8L467.9 417.3L473.1 413.1L478.3 407.8L483.5 402.3L488.7 395.3L493.9 391.4L499.1 397.6L504.3 429.8L509.5 459.3L514.7 418.7L519.9 415.9L525.1 424.3L530.3 435.2L535.5 423.7L540.7 398.1L545.9 400L551.1 410.5L556.3 415.2L561.5 431.7L566.7 418.9L571.9 400.9L577.1 407.2L582.3 402L587.5 410.6L592.7 424.6L597.9 426.5L603.1 430.7L608.3 437.5L613.5 435.9L618.7 425.7L624 404.6L629.2 402.3L634.4 405.9L639.6 407.3L644.8 417.7L650 402.9L655.2 397.4L660.4 401.6L665.6 400.8L670.8 391.6L676 418.2L681.2 432.5L686.4 426.7L691.6 425.8L696.8 423L702 413.5L707.2 426.2L712.4 434.5L717.6 435.3" fill="none" stroke-width="1"></path></g><g id="line__North-Korea"><path id="outline" fill="none" stroke-linecap="butt" stroke-linejoin="round" stroke="#fff" stroke-width="2.5" d="M712.4 477.8L717.6 477.8"></path><g id="polyline"><polyline id="polyline" points="712.40,477.80 717.60,477.80" stroke-linejoin="round" stroke-width="1.5" stroke="#00295B" fill="none" stroke-linecap="butt"></polyline></g></g><g id="line__Australia"><path id="outline" fill="none" stroke-linecap="butt" stroke-linejoin="round" stroke="#fff" stroke-width="2.5" d="M712.4 478.3L717.6 478.1"></path><g id="polyline"><polyline id="polyline" points="712.40,478.30 717.60,478.10" stroke-linejoin="round" stroke-width="1.5" stroke="#2C8465" fill="none" stroke-linecap="butt"></polyline></g></g><g id="line__Poland"><path id="outline" fill="none" stroke-linecap="butt" stroke-linejoin="round" stroke="#fff" stroke-width="2.5" d="M665.6 477L670.8 477L676 477L681.2 477L686.4 477.1L691.6 477.2L696.8 477.1L702 477.2L707.2 477.1L712.4 477.1"></path><g id="polyline"><polyline id="polyline" points="665.60,477.00 670.80,477.00 676.00,477.00 681.20,477.00 686.40,477.10 691.60,477.20 696.80,477.10 702.00,477.20 707.20,477.10 712.40,477.10" stroke-linejoin="round" stroke-width="1.5" stroke="#C15065" fill="none" stroke-linecap="butt"></polyline></g></g><g id="line__Norway"><path id="outline" fill="none" stroke-linecap="butt" stroke-linejoin="round" stroke="#fff" stroke-width="2.5" d="M660.4 478.7L665.6 478.7L670.8 478.7L676 478.7L681.2 478.7L686.4 478.7L691.6 478.7L696.8 478.7L702 478.7L707.2 478.7L712.4 478.7"></path><g id="polyline"><polyline id="polyline" points="660.40,478.70 665.60,478.70 670.80,478.70 676.00,478.70 681.20,478.70 686.40,478.70 691.60,478.70 696.80,478.70 702.00,478.70 707.20,478.70 712.40,478.70" stroke-linejoin="round" stroke-width="1.5" stroke="#883039" fill="none" stroke-linecap="butt"></polyline></g></g><g id="line__Brazil"><path id="outline" fill="none" stroke-linecap="butt" stroke-linejoin="round" stroke="#fff" stroke-width="2.5" d="M639.6 477.7L644.8 478.4L650 478.3L655.2 478.4L660.4 478.5L665.6 478.4L670.8 478.4L676 478.4L681.2 478.4L686.4 478.4L691.6 478.4L696.8 478.4L702 478.4L707.2 478.4L712.4 478.4"></path><g id="polyline"><polyline id="polyline" points="639.60,477.70 644.80,478.40 650.00,478.30 655.20,478.40 660.40,478.50 665.60,478.40 670.80,478.40 676.00,478.40 681.20,478.40 686.40,478.40 691.60,478.40 696.80,478.40 702.00,478.40 707.20,478.40 712.40,478.40" stroke-linejoin="round" stroke-width="1.5" stroke="#578145" fill="none" stroke-linecap="butt"></polyline></g></g><g id="line__Argentina"><path id="outline" fill="none" stroke-linecap="butt" stroke-linejoin="round" stroke="#fff" stroke-width="2.5" d="M618.7 478.7L624 478.7L629.2 478.7L634.4 478.7L639.6 478.4L644.8 477.2L650 478.1L655.2 476.5L660.4 472.5L665.6 473.8L670.8 476.3L676 476.5L681.2 476.1L686.4 477L691.6 477.8L702 478.7L707.2 478.7L712.4 478.7L717.6 478.7"></path><g id="polyline"><polyline id="polyline" points="618.70,478.70 624.00,478.70 629.20,478.70 634.40,478.70 639.60,478.40 644.80,477.20 650.00,478.10 655.20,476.50 660.40,472.50 665.60,473.80 670.80,476.30 676.00,476.50 681.20,476.10 686.40,477.00 691.60,477.80 702.00,478.70 707.20,478.70 712.40,478.70 717.60,478.70" stroke-linejoin="round" stroke-width="1.5" stroke="#996D39" fill="none" stroke-linecap="butt"></polyline></g></g><g id="line__Kyrgyzstan"><path id="outline" fill="none" stroke-linecap="butt" stroke-linejoin="round" stroke="#fff" stroke-width="2.5" d="M587.5 478.5L592.7 478.4L597.9 478.4L603.1 478.4L608.3 478.4L613.5 478.4L618.7 478.4L624 478.4L629.2 478.4L686.4 478.7L691.6 478.7L696.8 478.7L702 478.7L707.2 478.7L712.4 478.7"></path><g id="polyline"><polyline id="polyline" points="587.50,478.50 592.70,478.40 597.90,478.40 603.10,478.40 608.30,478.40 613.50,478.40 618.70,478.40 624.00,478.40 629.20,478.40 686.40,478.70 691.60,478.70 696.80,478.70 702.00,478.70 707.20,478.70 712.40,478.70" stroke-linejoin="round" stroke-width="1.5" stroke="#8C4569" fill="none" stroke-linecap="butt"></polyline></g></g><g id="line__Uzbekistan"><path id="outline" fill="none" stroke-linecap="butt" stroke-linejoin="round" stroke="#fff" stroke-width="2.5" d="M566.7 478.1L571.9 478.2L577.1 478.1L582.3 478.1L587.5 478.1L592.7 478.1L597.9 478.3L603.1 478L608.3 478.1L613.5 478.1L618.7 478.1L624 478L629.2 477.9L655.2 478L660.4 478L665.6 478.1L670.8 478.1L676 478L681.2 477.9L686.4 477.8L691.6 477.8L696.8 477.8L702 478.4L707.2 476.7L712.4 476.5L717.6 476.5"></path><g id="polyline"><polyline id="polyline" points="566.70,478.10 571.90,478.20 577.10,478.10 582.30,478.10 587.50,478.10 592.70,478.10 597.90,478.30 603.10,478.00 608.30,478.10 613.50,478.10 618.70,478.10 624.00,478.00 629.20,477.90 655.20,478.00 660.40,478.00 665.60,478.10 670.80,478.10 676.00,478.00 681.20,477.90 686.40,477.80 691.60,477.80 696.80,477.80 702.00,478.40 707.20,476.70 712.40,476.50 717.60,476.50" stroke-linejoin="round" stroke-width="1.5" stroke="#18470F" fill="none" stroke-linecap="butt"></polyline></g></g><g id="line__Russia"><path id="outline" fill="none" stroke-linecap="butt" stroke-linejoin="round" stroke="#fff" stroke-width="2.5" d="M556.3 471L561.5 471.4L566.7 473.2L571.9 473.1L577.1 472.6L582.3 472.6L587.5 472.6L592.7 472.6L597.9 474L603.1 472.6L608.3 472.6L613.5 472.6L618.7 472.6L624 472.6L629.2 472.6L634.4 474L639.6 473.5L644.8 472.9L650 473L655.2 472.5L660.4 472.5L665.6 474.1L670.8 474.7L676 474.5L681.2 474.4L686.4 474.6L691.6 475.8L696.8 476.2L702 475.3L707.2 476.5L712.4 476.5L717.6 476.5"></path><g id="polyline"><polyline id="polyline" points="556.30,471.00 561.50,471.40 566.70,473.20 571.90,473.10 577.10,472.60 582.30,472.60 587.50,472.60 592.70,472.60 597.90,474.00 603.10,472.60 608.30,472.60 613.50,472.60 618.70,472.60 624.00,472.60 629.20,472.60 634.40,474.00 639.60,473.50 644.80,472.90 650.00,473.00 655.20,472.50 660.40,472.50 665.60,474.10 670.80,474.70 676.00,474.50 681.20,474.40 686.40,474.60 691.60,475.80 696.80,476.20 702.00,475.30 707.20,476.50 712.40,476.50 717.60,476.50" stroke-linejoin="round" stroke-width="1.5" stroke="#8C4569" fill="none" stroke-linecap="butt"></polyline></g></g><g id="line__Kazakhstan"><path id="outline" fill="none" stroke-linecap="butt" stroke-linejoin="round" stroke="#fff" stroke-width="2.5" d="M556.3 477.8L561.5 477.9L566.7 478.4L571.9 478.5L577.1 478.6L582.3 478.6L587.5 478.6L592.7 478.5L597.9 478.4L603.1 478.6L608.3 478.6L613.5 478.6L629.2 478.2L634.4 478.1L639.6 478.2L676 478.7L681.2 478.7L686.4 478.7L691.6 478.5L696.8 478.4L702 478.2L707.2 478.2L712.4 475.3"></path><g id="polyline"><polyline id="polyline" points="556.30,477.80 561.50,477.90 566.70,478.40 571.90,478.50 577.10,478.60 582.30,478.60 587.50,478.60 592.70,478.50 597.90,478.40 603.10,478.60 608.30,478.60 613.50,478.60 629.20,478.20 634.40,478.10 639.60,478.20 676.00,478.70 681.20,478.70 686.40,478.70 691.60,478.50 696.80,478.40 702.00,478.20 707.20,478.20 712.40,475.30" stroke-linejoin="round" stroke-width="1.5" stroke="#D73C50" fill="none" stroke-linecap="butt"></polyline></g></g><g id="line__Armenia"><path id="outline" fill="none" stroke-linecap="butt" stroke-linejoin="round" stroke="#fff" stroke-width="2.5" d="M556.3 477.4L561.5 478.1L566.7 478.1L571.9 476.8L577.1 476.4L582.3 476.4L587.5 475.4L592.7 475.2L597.9 474.8L603.1 474.9L608.3 475L613.5 475.2L618.7 474.9L624 474.8L629.2 473.5L634.4 473.1L639.6 473L644.8 473.1L650 473.1L655.2 472.5L660.4 471.7L665.6 471.1L670.8 471L676 471.9L681.2 471.8L686.4 471.2L691.6 471.5L696.8 469.3L702 467.6L707.2 468.8L712.4 468.7L717.6 468.7"></path><g id="polyline"><polyline id="polyline" points="556.30,477.40 561.50,478.10 566.70,478.10 571.90,476.80 577.10,476.40 582.30,476.40 587.50,475.40 592.70,475.20 597.90,474.80 603.10,474.90 608.30,475.00 613.50,475.20 618.70,474.90 624.00,474.80 629.20,473.50 634.40,473.10 639.60,473.00 644.80,473.10 650.00,473.10 655.20,472.50 660.40,471.70 665.60,471.10 670.80,471.00 676.00,471.90 681.20,471.80 686.40,471.20 691.60,471.50 696.80,469.30 702.00,467.60 707.20,468.80 712.40,468.70 717.60,468.70" stroke-linejoin="round" stroke-width="1.5" stroke="#00295B" fill="none" stroke-linecap="butt"></polyline></g></g><g id="line__Iran"><path id="outline" fill="none" stroke-linecap="butt" stroke-linejoin="round" stroke="#fff" stroke-width="2.5" d="M514.7 478.1L519.9 478.1L525.1 477.6L530.3 477.6L535.5 477.2L540.7 477L545.9 478.1L551.1 478.2L556.3 477.7L561.5 477.2L566.7 476.8L571.9 477.7L577.1 477.2L582.3 476.7L587.5 475.6L592.7 475.4L597.9 476.1L603.1 475.4L608.3 475.7L613.5 475.8L618.7 476.3L624 475.5L629.2 474.1L634.4 474.6L639.6 474.1L644.8 473.7L650 474L655.2 474.4L660.4 474.2L665.6 474.3L670.8 473.6L676 470.1L681.2 469.8L686.4 468.8L691.6 468.9L696.8 467.6L702 476.9L707.2 474.7L712.4 474L717.6 474"></path><g id="polyline"><polyline id="polyline" points="514.70,478.10 519.90,478.10 525.10,477.60 530.30,477.60 535.50,477.20 540.70,477.00 545.90,478.10 551.10,478.20 556.30,477.70 561.50,477.20 566.70,476.80 571.90,477.70 577.10,477.20 582.30,476.70 587.50,475.60 592.70,475.40 597.90,476.10 603.10,475.40 608.30,475.70 613.50,475.80 618.70,476.30 624.00,475.50 629.20,474.10 634.40,474.60 639.60,474.10 644.80,473.70 650.00,474.00 655.20,474.40 660.40,474.20 665.60,474.30 670.80,473.60 676.00,470.10 681.20,469.80 686.40,468.80 691.60,468.90 696.80,467.60 702.00,476.90 707.20,474.70 712.40,474.00 717.60,474.00" stroke-linejoin="round" stroke-width="1.5" stroke="#CF0A66" fill="none" stroke-linecap="butt"></polyline></g></g><g id="line__Mongolia"><path id="outline" fill="none" stroke-linecap="butt" stroke-linejoin="round" stroke="#fff" stroke-width="2.5" d="M488.7 478.4L493.9 478.1L499.1 477.9L504.3 477.7L509.5 477.5L514.7 477.4L519.9 477.4L525.1 476.8L530.3 476.8L535.5 476.7L540.7 476.7L545.9 476.1L551.1 476.5L556.3 476.8L561.5 476.7L566.7 476.1L571.9 476.4L577.1 475.9L582.3 476.2L587.5 476.3L592.7 476.2L597.9 477L603.1 476.9L608.3 476.7L613.5 476.4L618.7 477.3L624 477.2L629.2 476.9L634.4 476.2L639.6 476.3L644.8 475.6L650 475.9L655.2 476.2L660.4 476.3L665.6 476.4L670.8 476.1L676 475.4L681.2 475.6L686.4 475.2L691.6 475.4L696.8 475.5L702 475L707.2 474.9L712.4 474.9L717.6 474.7"></path><g id="polyline"><polyline id="polyline" points="488.70,478.40 493.90,478.10 499.10,477.90 504.30,477.70 509.50,477.50 514.70,477.40 519.90,477.40 525.10,476.80 530.30,476.80 535.50,476.70 540.70,476.70 545.90,476.10 551.10,476.50 556.30,476.80 561.50,476.70 566.70,476.10 571.90,476.40 577.10,475.90 582.30,476.20 587.50,476.30 592.70,476.20 597.90,477.00 603.10,476.90 608.30,476.70 613.50,476.40 618.70,477.30 624.00,477.20 629.20,476.90 634.40,476.20 639.60,476.30 644.80,475.60 650.00,475.90 655.20,476.20 660.40,476.30 665.60,476.40 670.80,476.10 676.00,475.40 681.20,475.60 686.40,475.20 691.60,475.40 696.80,475.50 702.00,475.00 707.20,474.90 712.40,474.90 717.60,474.70" stroke-linejoin="round" stroke-width="1.5" stroke="#00847E" fill="none" stroke-linecap="butt"></polyline></g></g><g id="line__USSR"><path id="outline" fill="none" stroke-linecap="butt" stroke-linejoin="round" stroke="#fff" stroke-width="2.5" d="M478.3 466.3L483.5 466.1L488.7 465.7L493.9 465.4L499.1 465L504.3 464.7L509.5 464.5L514.7 464.4L519.9 464.3L525.1 464.1L530.3 464L535.5 457L540.7 457L545.9 457L551.1 458.3"></path><g id="polyline"><polyline id="polyline" points="478.30,466.30 483.50,466.10 488.70,465.70 493.90,465.40 499.10,465.00 504.30,464.70 509.50,464.50 514.70,464.40 519.90,464.30 525.10,464.10 530.30,464.00 535.50,457.00 540.70,457.00 545.90,457.00 551.10,458.30" stroke-linejoin="round" stroke-width="1.5" stroke="#996D39" fill="none" stroke-linecap="butt"></polyline></g></g><g id="line__Turkey"><path id="outline" fill="none" stroke-linecap="butt" stroke-linejoin="round" stroke="#fff" stroke-width="2.5" d="M478.3 478.7L483.5 478.7L488.7 478.6L493.9 478.6L499.1 478.6L504.3 478.6L509.5 478.6L514.7 478.6L519.9 478.6L525.1 478.6L535.5 478.6L540.7 478.6L545.9 478.6L551.1 478.6L556.3 478.6L561.5 478.6L650 478.7L655.2 478.7L660.4 478.7L665.6 478.7L670.8 478.7L676 478.7L702 478.7L707.2 478.7L712.4 478.7L717.6 478.7"></path><g id="polyline"><polyline id="polyline" points="478.30,478.70 483.50,478.70 488.70,478.60 493.90,478.60 499.10,478.60 504.30,478.60 509.50,478.60 514.70,478.60 519.90,478.60 525.10,478.60 535.50,478.60 540.70,478.60 545.90,478.60 551.10,478.60 556.30,478.60 561.50,478.60 650.00,478.70 655.20,478.70 660.40,478.70 665.60,478.70 670.80,478.70 676.00,478.70 702.00,478.70 707.20,478.70 712.40,478.70 717.60,478.70" stroke-linejoin="round" stroke-width="1.5" stroke="#00295B" fill="none" stroke-linecap="butt"></polyline></g></g><g id="line__South-Korea"><path id="outline" fill="none" stroke-linecap="butt" stroke-linejoin="round" stroke="#fff" stroke-width="2.5" d="M478.3 478.6L483.5 478.4L488.7 478.5L493.9 478.3L499.1 478.1L504.3 478.2L509.5 478.5L514.7 478.5L519.9 478.3L525.1 478.3L530.3 478.3L535.5 478.5L540.7 478.5L545.9 478.6L551.1 478.5L702 478.2L707.2 478.2L712.4 478.2L717.6 478.2"></path><g id="polyline"><polyline id="polyline" points="478.30,478.60 483.50,478.40 488.70,478.50 493.90,478.30 499.10,478.10 504.30,478.20 509.50,478.50 514.70,478.50 519.90,478.30 525.10,478.30 530.30,478.30 535.50,478.50 540.70,478.50 545.90,478.60 551.10,478.50 702.00,478.20 707.20,478.20 712.40,478.20 717.60,478.20" stroke-linejoin="round" stroke-width="1.5" stroke="#970046" fill="none" stroke-linecap="butt"></polyline></g></g><g id="line__Philippines"><path id="outline" fill="none" stroke-linecap="butt" stroke-linejoin="round" stroke="#fff" stroke-width="2.5" d="M478.3 478.7L483.5 478.6L488.7 478.5L493.9 478.6L499.1 478.6L504.3 478.6L509.5 478.6L514.7 478.7L519.9 478.7L525.1 478.7"></path><g id="polyline"><polyline id="polyline" points="478.30,478.70 483.50,478.60 488.70,478.50 493.90,478.60 499.10,478.60 504.30,478.60 509.50,478.60 514.70,478.70 519.90,478.70 525.10,478.70" stroke-linejoin="round" stroke-width="1.5" stroke="#2C8465" fill="none" stroke-linecap="butt"></polyline></g></g><g id="line__Peru"><path id="outline" fill="none" stroke-linecap="butt" stroke-linejoin="round" stroke="#fff" stroke-width="2.5" d="M478.3 478.1L483.5 477.8L488.7 477.2L493.9 475.6L499.1 474.8L504.3 475L509.5 475.3L514.7 474.8L519.9 473.8L525.1 474.2L530.3 474.4L535.5 475.7L540.7 474.9L545.9 475.5L551.1 474.8L556.3 474.6L561.5 475L566.7 475.2L571.9 474.1L577.1 473.6L582.3 473.3L587.5 473.2L592.7 471.7L597.9 469.5L603.1 466.6L608.3 467.7L613.5 466.5L618.7 460.5L624 456.6L629.2 456.7L634.4 457.3L639.6 457.3L644.8 463L650 457L655.2 454.3L660.4 457.3L665.6 455.5L670.8 457L676 453L681.2 445.8L686.4 442.8L691.6 442.9L696.8 439.8L702 437.6L707.2 435.2L712.4 438.4L717.6 431.5"></path><g id="polyline"><polyline id="polyline" points="478.30,478.10 483.50,477.80 488.70,477.20 493.90,475.60 499.10,474.80 504.30,475.00 509.50,475.30 514.70,474.80 519.90,473.80 525.10,474.20 530.30,474.40 535.50,475.70 540.70,474.90 545.90,475.50 551.10,474.80 556.30,474.60 561.50,475.00 566.70,475.20 571.90,474.10 577.10,473.60 582.30,473.30 587.50,473.20 592.70,471.70 597.90,469.50 603.10,466.60 608.30,467.70 613.50,466.50 618.70,460.50 624.00,456.60 629.20,456.70 634.40,457.30 639.60,457.30 644.80,463.00 650.00,457.00 655.20,454.30 660.40,457.30 665.60,455.50 670.80,457.00 676.00,453.00 681.20,445.80 686.40,442.80 691.60,442.90 696.80,439.80 702.00,437.60 707.20,435.20 712.40,438.40 717.60,431.50" stroke-linejoin="round" stroke-width="1.5" stroke="#BE5915" fill="none" stroke-linecap="butt"></polyline></g></g><g id="line__Mexico"><path id="outline" fill="none" stroke-linecap="butt" stroke-linejoin="round" stroke="#fff" stroke-width="2.5" d="M478.3 478.7L483.5 478.7L488.7 478.6L493.9 478.6L499.1 478.1L504.3 472.1L509.5 471.2L514.7 473.5L519.9 473.9L525.1 474.4L530.3 473.1L535.5 473L540.7 473.4L545.9 476.1L551.1 476.5L556.3 476.8L561.5 476.5L566.7 475.4L571.9 473.7L577.1 473.3L582.3 472.5L587.5 471.1L592.7 468.5L597.9 469.9L603.1 471.7L608.3 474.3L613.5 474.2L618.7 473.9L624 473.3L629.2 475.5L634.4 470.4L639.6 468.7L644.8 465.7L650 464.8L655.2 464.9L660.4 464.2L665.6 462.7L670.8 460.4L676 464.2L681.2 463.5L686.4 460.8L691.6 452.8L696.8 451L702 457.5L707.2 457.9L712.4 458.9L717.6 459.5"></path><g id="polyline"><polyline id="polyline" points="478.30,478.70 483.50,478.70 488.70,478.60 493.90,478.60 499.10,478.10 504.30,472.10 509.50,471.20 514.70,473.50 519.90,473.90 525.10,474.40 530.30,473.10 535.50,473.00 540.70,473.40 545.90,476.10 551.10,476.50 556.30,476.80 561.50,476.50 566.70,475.40 571.90,473.70 577.10,473.30 582.30,472.50 587.50,471.10 592.70,468.50 597.90,469.90 603.10,471.70 608.30,474.30 613.50,474.20 618.70,473.90 624.00,473.30 629.20,475.50 634.40,470.40 639.60,468.70 644.80,465.70 650.00,464.80 655.20,464.90 660.40,464.20 665.60,462.70 670.80,460.40 676.00,464.20 681.20,463.50 686.40,460.80 691.60,452.80 696.80,451.00 702.00,457.50 707.20,457.90 712.40,458.90 717.60,459.50" stroke-linejoin="round" stroke-width="1.5" stroke="#B13507" fill="none" stroke-linecap="butt"></polyline></g></g><g id="line__Japan"><path id="outline" fill="none" stroke-linecap="butt" stroke-linejoin="round" stroke="#fff" stroke-width="2.5" d="M478.3 478.5L483.5 478.6L488.7 478.6L493.9 478.6L499.1 478.6L504.3 478.6L509.5 478.6L514.7 478.5L519.9 478.6L525.1 478.6L530.3 478.6L535.5 478.6L540.7 478.6L545.9 478.6L551.1 478.6L566.7 477.9L571.9 477.8"></path><g id="polyline"><polyline id="polyline" points="478.30,478.50 483.50,478.60 488.70,478.60 493.90,478.60 499.10,478.60 504.30,478.60 509.50,478.60 514.70,478.50 519.90,478.60 525.10,478.60 530.30,478.60 535.50,478.60 540.70,478.60 545.90,478.60 551.10,478.60 566.70,477.90 571.90,477.80" stroke-linejoin="round" stroke-width="1.5" stroke="#C15065" fill="none" stroke-linecap="butt"></polyline></g></g><g id="line__China"><path id="outline" fill="none" stroke-linecap="butt" stroke-linejoin="round" stroke="#fff" stroke-width="2.5" d="M478.3 476.8L483.5 476.1L488.7 476.1L493.9 476.1L499.1 476.1L504.3 476.1L509.5 476.1L514.7 476.1L519.9 476.1L525.1 476.1L530.3 463.4L535.5 460.3L540.7 458.7L545.9 459.8L551.1 461.8L556.3 453.7L561.5 455.3L566.7 451.4L571.9 436.6L577.1 440.9L582.3 436.2L587.5 440.4L592.7 440.7L597.9 442L603.1 442.7L608.3 440L613.5 437.6L618.7 429.6L624 440.4L629.2 422.6L634.4 392.3L639.6 375.3L644.8 363.4L650 355.3L655.2 346.8L660.4 324.4L665.6 322.6L670.8 314.6L676 306L681.2 313.5L686.4 329.2L691.6 334L696.8 345.3L702 325.5L707.2 357L712.4 343.4L717.6 338.2"></path><g id="polyline"><polyline id="polyline" points="478.30,476.80 483.50,476.10 488.70,476.10 493.90,476.10 499.10,476.10 504.30,476.10 509.50,476.10 514.70,476.10 519.90,476.10 525.10,476.10 530.30,463.40 535.50,460.30 540.70,458.70 545.90,459.80 551.10,461.80 556.30,453.70 561.50,455.30 566.70,451.40 571.90,436.60 577.10,440.90 582.30,436.20 587.50,440.40 592.70,440.70 597.90,442.00 603.10,442.70 608.30,440.00 613.50,437.60 618.70,429.60 624.00,440.40 629.20,422.60 634.40,392.30 639.60,375.30 644.80,363.40 650.00,355.30 655.20,346.80 660.40,324.40 665.60,322.60 670.80,314.60 676.00,306.00 681.20,313.50 686.40,329.20 691.60,334.00 696.80,345.30 702.00,325.50 707.20,357.00 712.40,343.40 717.60,338.20" stroke-linejoin="round" stroke-width="1.5" stroke="#CF0A66" fill="none" stroke-linecap="butt"></polyline></g></g><g id="line__Chile"><path id="outline" fill="none" stroke-linecap="butt" stroke-linejoin="round" stroke="#fff" stroke-width="2.5" d="M478.3 464.7L483.5 461.9L488.7 461.4L493.9 461.2L499.1 459.1L504.3 453.1L509.5 459.2L514.7 457.2L519.9 455.2L525.1 457.5L530.3 457.1L535.5 458.9L540.7 457.6L545.9 461L551.1 460.3L556.3 459.8L561.5 459.7L566.7 458.2L571.9 455.9L577.1 456.5L582.3 451.5L587.5 446.4L592.7 443.9L597.9 435.7L603.1 435.9L608.3 441.1L613.5 436.1L618.7 425.2L624 417.6L629.2 423.6L634.4 421.5L639.6 435.7L644.8 434.3L650 431.4L655.2 426.7L660.4 434.3L665.6 429.6L670.8 416.3L676 411.8L681.2 407.4L686.4 399L691.6 401.8L696.8 410.3L702 402.9L707.2 415.6L712.4 420.5L717.6 420"></path><g id="polyline"><polyline id="polyline" points="478.30,464.70 483.50,461.90 488.70,461.40 493.90,461.20 499.10,459.10 504.30,453.10 509.50,459.20 514.70,457.20 519.90,455.20 525.10,457.50 530.30,457.10 535.50,458.90 540.70,457.60 545.90,461.00 551.10,460.30 556.30,459.80 561.50,459.70 566.70,458.20 571.90,455.90 577.10,456.50 582.30,451.50 587.50,446.40 592.70,443.90 597.90,435.70 603.10,435.90 608.30,441.10 613.50,436.10 618.70,425.20 624.00,417.60 629.20,423.60 634.40,421.50 639.60,435.70 644.80,434.30 650.00,431.40 655.20,426.70 660.40,434.30 665.60,429.60 670.80,416.30 676.00,411.80 681.20,407.40 686.40,399.00 691.60,401.80 696.80,410.30 702.00,402.90 707.20,415.60 712.40,420.50 717.60,420.00" stroke-linejoin="round" stroke-width="1.5" stroke="#BE5915" fill="none" stroke-linecap="butt"></polyline></g></g><g id="line__Canada"><path id="outline" fill="none" stroke-linecap="butt" stroke-linejoin="round" stroke="#fff" stroke-width="2.5" d="M478.3 457.5L483.5 460.9L488.7 464.4L493.9 463.5L499.1 462.3L504.3 460.9L509.5 465.7L514.7 463.9L519.9 469.8L525.1 464.3L530.3 462.7L535.5 462.7L540.7 460.7L545.9 463.4L551.1 464.2L556.3 466.7L561.5 466.3L566.7 467L571.9 466.5L577.1 468.4L582.3 468.2L587.5 467.9L592.7 471.1L597.9 469.2L603.1 468.2L608.3 468.4L613.5 467.1L618.7 466.5L624 468.6L629.2 468.8L634.4 470.2L639.6 467.7L644.8 467.6L650 467.7L655.2 467.6L660.4 467.3L665.6 467.3L670.8 467.6L676 476.2L681.2 475L686.4 472.4L691.6 472.3L696.8 473.6L702 475.5L707.2 476.9L712.4 477.5L717.6 477.4"></path><g id="polyline"><polyline id="polyline" points="478.30,457.50 483.50,460.90 488.70,464.40 493.90,463.50 499.10,462.30 504.30,460.90 509.50,465.70 514.70,463.90 519.90,469.80 525.10,464.30 530.30,462.70 535.50,462.70 540.70,460.70 545.90,463.40 551.10,464.20 556.30,466.70 561.50,466.30 566.70,467.00 571.90,466.50 577.10,468.40 582.30,468.20 587.50,467.90 592.70,471.10 597.90,469.20 603.10,468.20 608.30,468.40 613.50,467.10 618.70,466.50 624.00,468.60 629.20,468.80 634.40,470.20 639.60,467.70 644.80,467.60 650.00,467.70 655.20,467.60 660.40,467.30 665.60,467.30 670.80,467.60 676.00,476.20 681.20,475.00 686.40,472.40 691.60,472.30 696.80,473.60 702.00,475.50 707.20,476.90 712.40,477.50 717.60,477.40" stroke-linejoin="round" stroke-width="1.5" stroke="#18470F" fill="none" stroke-linecap="butt"></polyline></g></g><g id="line__Bulgaria"><path id="outline" fill="none" stroke-linecap="butt" stroke-linejoin="round" stroke="#fff" stroke-width="2.5" d="M478.3 478.5L483.5 478.5L488.7 478.5L493.9 478.5L499.1 478.5L504.3 478.5L509.5 478.5L514.7 478.5L519.9 478.5L525.1 478.5L530.3 478.4L535.5 478.4L540.7 478.5L545.9 478.4L551.1 478.4L556.3 478.4L561.5 478.4L566.7 478.4L571.9 478.2L577.1 478.2L582.3 478.2"></path><g id="polyline"><polyline id="polyline" points="478.30,478.50 483.50,478.50 488.70,478.50 493.90,478.50 499.10,478.50 504.30,478.50 509.50,478.50 514.70,478.50 519.90,478.50 525.10,478.50 530.30,478.40 535.50,478.40 540.70,478.50 545.90,478.40 551.10,478.40 556.30,478.40 561.50,478.40 566.70,478.40 571.90,478.20 577.10,478.20 582.30,478.20" stroke-linejoin="round" stroke-width="1.5" stroke="#970046" fill="none" stroke-linecap="butt"></polyline></g></g><g id="line__World"><path id="outline" fill="none" stroke-linecap="butt" stroke-linejoin="round" stroke="#fff" stroke-width="2.5" d="M77.7 478.7L82.9 478.7L88.1 478.6L93.3 478.5L98.5 478.6L103.7 478.6L108.9 478.6L114.1 478.6L119.3 478.5L124.5 478.6L129.7 478.6L134.9 478.6L140.1 478.5L145.3 478.6L150.5 478.5L155.7 478.4L160.9 478.1L166.1 477.9L171.3 477.7L176.5 478.2L181.7 478.5L187 478.6L192.2 478.6L197.4 478.5L202.6 478.4L207.8 477.8L213 477.7L218.2 477.1L223.4 476.5L228.6 476.1L233.8 476.3L239 476.7L244.2 477L249.4 474.9L254.6 472.1L259.8 470.4L265 467.2L270.2 459.8L275.4 457.8L280.6 458.8L285.8 456.5L291 452.8L296.2 441.7L301.4 438.4L306.6 451.2L311.8 457.9L317 464.9L322.2 460.8L327.4 461.3L332.6 464.1L337.8 460.2L343 452.8L348.2 449.8L353.4 442.4L358.6 440.8L363.8 435.3L369 438L374.2 434.5L379.4 445.2L384.6 437.3L389.8 427.1L395 435.8L400.2 444.4L405.5 435.3L410.7 433.6L415.9 421.6L421.1 406.3L426.3 396.6L431.5 394.8L436.7 386.4L441.9 373.6L447.1 379.6L452.3 377.4L457.5 374.4L462.7 371.2L467.9 374.3L473.1 365.4L478.3 357.3L483.5 351L488.7 345.9L493.9 337L499.1 339.5L504.3 357.4L509.5 397.2L514.7 353.9L519.9 353.1L525.1 359.7L530.3 351.6L535.5 334.4L540.7 305L545.9 316.5L551.1 331.9L556.3 333.1L561.5 352L566.7 340.8L571.9 305L577.1 316.5L582.3 302.5L587.5 306.3L592.7 314L597.9 306.3L603.1 310.2L608.3 322.9L613.5 311.4L618.7 275.7L624 241.2L629.2 241.2L634.4 208L639.6 196.5L644.8 196.5L650 164.6L655.2 141.6L660.4 131.4L665.6 119.9L670.8 89.3L676 109.7L681.2 122.4L686.4 114.8L691.6 122.4L696.8 122.4L702 98.2L707.2 153.1L712.4 155.6L717.6 146.7"></path><g id="polyline"><polyline id="polyline" points="77.70,478.70 82.90,478.70 88.10,478.60 93.30,478.50 98.50,478.60 103.70,478.60 108.90,478.60 114.10,478.60 119.30,478.50 124.50,478.60 129.70,478.60 134.90,478.60 140.10,478.50 145.30,478.60 150.50,478.50 155.70,478.40 160.90,478.10 166.10,477.90 171.30,477.70 176.50,478.20 181.70,478.50 187.00,478.60 192.20,478.60 197.40,478.50 202.60,478.40 207.80,477.80 213.00,477.70 218.20,477.10 223.40,476.50 228.60,476.10 233.80,476.30 239.00,476.70 244.20,477.00 249.40,474.90 254.60,472.10 259.80,470.40 265.00,467.20 270.20,459.80 275.40,457.80 280.60,458.80 285.80,456.50 291.00,452.80 296.20,441.70 301.40,438.40 306.60,451.20 311.80,457.90 317.00,464.90 322.20,460.80 327.40,461.30 332.60,464.10 337.80,460.20 343.00,452.80 348.20,449.80 353.40,442.40 358.60,440.80 363.80,435.30 369.00,438.00 374.20,434.50 379.40,445.20 384.60,437.30 389.80,427.10 395.00,435.80 400.20,444.40 405.50,435.30 410.70,433.60 415.90,421.60 421.10,406.30 426.30,396.60 431.50,394.80 436.70,386.40 441.90,373.60 447.10,379.60 452.30,377.40 457.50,374.40 462.70,371.20 467.90,374.30 473.10,365.40 478.30,357.30 483.50,351.00 488.70,345.90 493.90,337.00 499.10,339.50 504.30,357.40 509.50,397.20 514.70,353.90 519.90,353.10 525.10,359.70 530.30,351.60 535.50,334.40 540.70,305.00 545.90,316.50 551.10,331.90 556.30,333.10 561.50,352.00 566.70,340.80 571.90,305.00 577.10,316.50 582.30,302.50 587.50,306.30 592.70,314.00 597.90,306.30 603.10,310.20 608.30,322.90 613.50,311.40 618.70,275.70 624.00,241.20 629.20,241.20 634.40,208.00 639.60,196.50 644.80,196.50 650.00,164.60 655.20,141.60 660.40,131.40 665.60,119.90 670.80,89.30 676.00,109.70 681.20,122.40 686.40,114.80 691.60,122.40 696.80,122.40 702.00,98.20 707.20,153.10 712.40,155.60 717.60,146.70" stroke-linejoin="round" stroke-width="1.5" stroke="#C15065" fill="none" stroke-linecap="butt"></polyline></g></g><g id="line__United-States"><path id="outline" fill="none" stroke-linecap="butt" stroke-linejoin="round" stroke="#fff" stroke-width="2.5" d="M77.7 478.7L82.9 478.7L88.1 478.7L93.3 478.6L98.5 478.7L103.7 478.7L108.9 478.7L114.1 478.7L119.3 478.7L124.5 478.7L129.7 478.7L134.9 478.7L140.1 478.7L145.3 478.7L150.5 478.7L155.7 478.6L160.9 478.6L166.1 478.5L171.3 478.2L176.5 478.5L181.7 478.7L187 478.7L192.2 478.7L197.4 478.7L202.6 478.5L207.8 478L213 477.9L218.2 477.4L223.4 476.8L228.6 476.4L233.8 476.5L239 476.9L244.2 477.3L249.4 475.4L254.6 473.3L259.8 472L265 468.7L270.2 461.7L275.4 459.4L280.6 461.1L285.8 458.8L291 455.3L296.2 445.8L301.4 442.9L306.6 456.4L311.8 460.8L317 468.2L322.2 463L327.4 463.2L332.6 465.7L337.8 462.2L343 456.2L348.2 453.7L353.4 445.5L358.6 444.7L363.8 442.9L369 445.4L374.2 443.5L379.4 454.9L384.6 449.2L389.8 439.1L395 440.1L400.2 449.1L405.5 441L410.7 440.6L415.9 433.9L421.1 426.2L426.3 426.5L431.5 424.6L436.7 420.9L441.9 414.2L447.1 415.2L452.3 413.7L457.5 411.5L462.7 413.8L467.9 417.3L473.1 413.1L478.3 407.8L483.5 402.3L488.7 395.3L493.9 391.4L499.1 397.6L504.3 429.8L509.5 459.3L514.7 418.7L519.9 415.9L525.1 424.3L530.3 435.2L535.5 423.7L540.7 398.1L545.9 400L551.1 410.5L556.3 415.2L561.5 431.7L566.7 418.9L571.9 400.9L577.1 407.2L582.3 402L587.5 410.6L592.7 424.6L597.9 426.5L603.1 430.7L608.3 437.5L613.5 435.9L618.7 425.7L624 404.6L629.2 402.3L634.4 405.9L639.6 407.3L644.8 417.7L650 402.9L655.2 397.4L660.4 401.6L665.6 400.8L670.8 391.6L676 418.2L681.2 432.5L686.4 426.7L691.6 425.8L696.8 423L702 413.5L707.2 426.2L712.4 434.5L717.6 435.3"></path><g id="polyline"><polyline id="polyline" points="77.70,478.70 82.90,478.70 88.10,478.70 93.30,478.60 98.50,478.70 103.70,478.70 108.90,478.70 114.10,478.70 119.30,478.70 124.50,478.70 129.70,478.70 134.90,478.70 140.10,478.70 145.30,478.70 150.50,478.70 155.70,478.60 160.90,478.60 166.10,478.50 171.30,478.20 176.50,478.50 181.70,478.70 187.00,478.70 192.20,478.70 197.40,478.70 202.60,478.50 207.80,478.00 213.00,477.90 218.20,477.40 223.40,476.80 228.60,476.40 233.80,476.50 239.00,476.90 244.20,477.30 249.40,475.40 254.60,473.30 259.80,472.00 265.00,468.70 270.20,461.70 275.40,459.40 280.60,461.10 285.80,458.80 291.00,455.30 296.20,445.80 301.40,442.90 306.60,456.40 311.80,460.80 317.00,468.20 322.20,463.00 327.40,463.20 332.60,465.70 337.80,462.20 343.00,456.20 348.20,453.70 353.40,445.50 358.60,444.70 363.80,442.90 369.00,445.40 374.20,443.50 379.40,454.90 384.60,449.20 389.80,439.10 395.00,440.10 400.20,449.10 405.50,441.00 410.70,440.60 415.90,433.90 421.10,426.20 426.30,426.50 431.50,424.60 436.70,420.90 441.90,414.20 447.10,415.20 452.30,413.70 457.50,411.50 462.70,413.80 467.90,417.30 473.10,413.10 478.30,407.80 483.50,402.30 488.70,395.30 493.90,391.40 499.10,397.60 504.30,429.80 509.50,459.30 514.70,418.70 519.90,415.90 525.10,424.30 530.30,435.20 535.50,423.70 540.70,398.10 545.90,400.00 551.10,410.50 556.30,415.20 561.50,431.70 566.70,418.90 571.90,400.90 577.10,407.20 582.30,402.00 587.50,410.60 592.70,424.60 597.90,426.50 603.10,430.70 608.30,437.50 613.50,435.90 618.70,425.70 624.00,404.60 629.20,402.30 634.40,405.90 639.60,407.30 644.80,417.70 650.00,402.90 655.20,397.40 660.40,401.60 665.60,400.80 670.80,391.60 676.00,418.20 681.20,432.50 686.40,426.70 691.60,425.80 696.80,423.00 702.00,413.50 707.20,426.20 712.40,434.50 717.60,435.30" stroke-linejoin="round" stroke-width="1.5" stroke="#6D3E91" fill="none" stroke-linecap="butt"></polyline></g></g></g></g></g></g><g id="footer" class="SourcesFooter" style="fill:#5b5b5b"><g id="sources" class="markdown-text-wrap"><text x="16.0" y="528.3" style="font-size:13.5px;line-height:1.2"><tspan x="16" y="528.3"><tspan style="font-weight:700">Data source:</tspan> USGS - Mineral Commodity Summaries (2024); USGS - Historical Statistics for Mineral and Material Commodities (2023);</tspan><tspan x="16" y="544.5">BGS - World Mineral Statistics (2023)</tspan></text></g><g id="note" class="markdown-text-wrap"><text x="16.0" y="562.7" style="font-size:13.5px;line-height:1.2"><tspan x="16" y="562.7"><tspan style="font-weight:700">Note:</tspan> The sum of all countries may exceed World data on certain years (by up to 10%), due to discrepancies between data sources.</tspan></text></g><text id="origin-url" font-size="13.50" x="16.0" y="580.9"><tspan x="16" y="580.8950000000001"><a target="_blank" style="fill: #5b5b5b;" href="https://creativecommons.org/licenses/by/4.0/">CC BY</a></tspan></text></g><line id="separator-line" x1="16" y1="600" x2="834" y2="600" stroke="#e7e7e7"></line><g id="details" transform="translate(15, 616)"><g class="markdown-text-wrap"><text x="0.0" y="12.0" style="font-size:12.375px;fill:#5b5b5b;line-height:1.2"><tspan x="0" y="12.0"><tspan style="font-weight:700">1.</tspan> <tspan style="font-weight:700">Molybdenum</tspan>: Molybdenum has a very high electrical conductivity but expands very little when exposed to heat. It is used in alloys, particularly</tspan><tspan x="0" y="26.9">with steel, for applications such as electric motors, and filaments in light bulbs, and in aircraft. In clean energy, it’s mostly used in solar and wind</tspan><tspan x="0" y="41.7">power generation.</tspan></text></g><g class="markdown-text-wrap"><text x="0.0" y="64.6" style="font-size:12.375px;fill:#5b5b5b;line-height:1.2"><tspan x="0" y="64.6"><tspan style="font-weight:700">2.</tspan> <tspan style="font-weight:700">Refined production</tspan>: Refined production is the process of taking raw materials, such as metals extracted from ores, and purifying them to achieve</tspan><tspan x="0" y="79.4">a higher quality or more usable form. After metals are initially extracted from ore through processes like smelting, they often contain impurities or are</tspan><tspan x="0" y="94.3">not in the ideal form for manufacturing. Refining involves further processing these metals to remove impurities and adjust their composition to meet</tspan><tspan x="0" y="109.1">specific standards. Refined production is essential for transforming raw materials into high-quality metals that are crucial for industries and</tspan><tspan x="0" y="124.0">consumers, from manufacturing electronics to constructing buildings.</tspan></text></g></g></svg>