<svg xmlns="http://www.w3.org/2000/svg" version="1.1" style="font-family:Lato, &#x27;Helvetica Neue&#x27;, Helvetica, Arial, &#x27;Liberation Sans&#x27;, sans-serif;font-size:18px;background-color:white;text-rendering:geometricPrecision;-webkit-font-smoothing:antialiased" width="850" height="676.55" viewBox="0 0 850 676.55"><defs><style>@import url(https://ourworldindata.org/fonts.css)</style></defs><defs><pattern id="noDataPattern" patternUnits="userSpaceOnUse" width="4" height="4" patternTransform="rotate(-45 2 2)"><path d="M -1,2 l 6,0" stroke="#ccc" stroke-width="0.7"></path></pattern></defs><rect class="background-fill" fill="white" width="850" height="676.55"></rect><g id="header" class="HeaderView"><g id="logo" transform="translate(769, 16) scale(1)"><svg className="owidLogo" xmlns="http://www.w3.org/2000/svg" width="65" height="36" viewBox="0 0 65 36"  fill="none"><path fill="#002147" d="M0 0h64.8v36H0z"/><path fill="#CE261E" d="M0 33.3h64.8V36H0z"/><path fill="#fff" d="M13.796 10.575c0 .636-.106 1.226-.318 1.77a4.193 4.193 0 0 1-.894 1.404 4.084 4.084 0 0 1-1.386.93c-.54.22-1.138.33-1.794.33-.656 0-1.256-.11-1.8-.33a4.149 4.149 0 0 1-1.392-.93 4.193 4.193 0 0 1-.894-1.404A4.833 4.833 0 0 1 5 10.575c0-.636.106-1.224.318-1.764a4.18 4.18 0 0 1 .894-1.41 4.076 4.076 0 0 1 1.392-.924 4.684 4.684 0 0 1 1.8-.336c.656 0 1.254.112 1.794.336.54.224 1.002.534 1.386.93.384.392.682.86.894 1.404.212.54.318 1.128.318 1.764Zm-1.656 0c0-.476-.064-.902-.192-1.278a2.671 2.671 0 0 0-.54-.966 2.332 2.332 0 0 0-.864-.606 2.94 2.94 0 0 0-1.14-.21c-.424 0-.806.07-1.146.21-.34.14-.63.342-.87.606a2.742 2.742 0 0 0-.546.966 3.955 3.955 0 0 0-.192 1.278c0 .476.064.904.192 1.284.128.376.31.696.546.96.24.26.53.46.87.6.34.14.722.21 1.146.21.424 0 .804-.07 1.14-.21.34-.14.628-.34.864-.6.236-.264.416-.584.54-.96a4.01 4.01 0 0 0 .192-1.284ZM16.104 8.757v3.912c0 .376.086.668.258.876.176.204.438.306.786.306.256 0 .496-.056.72-.168a2.58 2.58 0 0 0 .636-.474V8.757h1.482v6.156h-.906c-.192 0-.318-.09-.378-.27l-.102-.492a4.65 4.65 0 0 1-.396.354 2.577 2.577 0 0 1-.438.27 2.35 2.35 0 0 1-.498.168 2.345 2.345 0 0 1-.57.066c-.336 0-.634-.056-.894-.168a1.821 1.821 0 0 1-.648-.486 2.157 2.157 0 0 1-.402-.738 3.233 3.233 0 0 1-.132-.948V8.757h1.482ZM21.328 14.913V8.757h.87c.152 0 .258.028.318.084.06.056.1.152.12.288l.09.744c.22-.38.478-.68.774-.9.296-.22.628-.33.996-.33.304 0 .556.07.756.21l-.192 1.11c-.012.072-.038.124-.078.156a.278.278 0 0 1-.162.042 1.01 1.01 0 0 1-.246-.042 1.646 1.646 0 0 0-.414-.042c-.308 0-.572.086-.792.258-.22.168-.406.416-.558.744v3.834h-1.482ZM27.347 6.237h1.356a.57.57 0 0 1 .348.102c.096.064.16.152.192.264l1.476 5.19c.036.128.068.268.096.42.032.148.062.306.09.474a5.968 5.968 0 0 1 .228-.894l1.704-5.19a.575.575 0 0 1 .186-.252.543.543 0 0 1 .348-.114h.474a.57.57 0 0 1 .348.102.497.497 0 0 1 .192.264l1.692 5.19c.088.256.164.54.228.852.028-.156.056-.306.084-.45.032-.144.064-.278.096-.402l1.476-5.19c.028-.1.09-.186.186-.258a.563.563 0 0 1 .348-.108h1.266l-2.694 8.676h-1.458l-1.896-5.928-.078-.246a9.504 9.504 0 0 1-.072-.282c-.024.1-.05.194-.078.282-.024.088-.048.17-.072.246l-1.914 5.928H30.04l-2.694-8.676ZM42.771 8.661c.46 0 .876.074 1.248.222.376.148.696.358.96.63s.468.604.612.996c.144.392.216.83.216 1.314 0 .488-.072.928-.216 1.32a2.85 2.85 0 0 1-.612 1.002 2.653 2.653 0 0 1-.96.636 3.35 3.35 0 0 1-1.248.222c-.46 0-.878-.074-1.254-.222a2.712 2.712 0 0 1-.966-.636 2.922 2.922 0 0 1-.618-1.002 3.807 3.807 0 0 1-.216-1.32c0-.484.072-.922.216-1.314.148-.392.354-.724.618-.996.268-.272.59-.482.966-.63a3.397 3.397 0 0 1 1.254-.222Zm0 5.202c.512 0 .89-.172 1.134-.516.248-.344.372-.848.372-1.512s-.124-1.17-.372-1.518c-.244-.348-.622-.522-1.134-.522-.52 0-.904.176-1.152.528-.248.348-.372.852-.372 1.512s.124 1.164.372 1.512c.248.344.632.516 1.152.516ZM46.723 14.913V8.757h.87c.152 0 .258.028.318.084.06.056.1.152.12.288l.09.744c.22-.38.478-.68.774-.9.296-.22.628-.33.996-.33.304 0 .556.07.756.21l-.192 1.11c-.012.072-.038.124-.078.156a.278.278 0 0 1-.162.042 1.01 1.01 0 0 1-.246-.042 1.646 1.646 0 0 0-.414-.042c-.308 0-.572.086-.792.258-.22.168-.406.416-.558.744v3.834h-1.482ZM52.96 5.997v8.916h-1.482V5.997h1.482ZM58.732 14.913c-.192 0-.318-.09-.378-.27l-.12-.594a3.68 3.68 0 0 1-.402.39c-.14.116-.292.216-.456.3-.16.084-.334.148-.522.192a2.372 2.372 0 0 1-.6.072c-.336 0-.644-.07-.924-.21a2.098 2.098 0 0 1-.726-.606 3.033 3.033 0 0 1-.468-.99 5.072 5.072 0 0 1-.162-1.344c0-.456.062-.88.186-1.272s.302-.732.534-1.02c.232-.288.51-.512.834-.672a2.384 2.384 0 0 1 1.092-.246 2.103 2.103 0 0 1 1.536.606V5.997h1.482v8.916h-.906Zm-1.974-1.086c.308 0 .57-.064.786-.192.216-.128.42-.31.612-.546v-2.76a1.452 1.452 0 0 0-.552-.432 1.597 1.597 0 0 0-.636-.126c-.224 0-.428.042-.612.126a1.21 1.21 0 0 0-.462.384c-.124.168-.22.384-.288.648-.068.26-.102.568-.102.924 0 .36.028.666.084.918.06.248.144.452.252.612.108.156.24.27.396.342.156.068.33.102.522.102ZM16.331 20.757v6.156H14.85v-6.156h1.481Zm.223-1.794a.844.844 0 0 1-.078.36.963.963 0 0 1-.21.294.995.995 0 0 1-.3.204.963.963 0 0 1-.372.072.948.948 0 0 1-.367-.072 1.018 1.018 0 0 1-.498-.498.963.963 0 0 1 0-.732.995.995 0 0 1 .205-.3.929.929 0 0 1 .293-.198.899.899 0 0 1 .738 0 .912.912 0 0 1 .3.198.943.943 0 0 1 .288.672ZM17.771 26.913v-6.156h.906c.192 0 .318.09.378.27l.102.486a2.934 2.934 0 0 1 .828-.618c.156-.076.322-.134.498-.174.176-.04.368-.06.576-.06.336 0 .634.058.894.174.26.112.476.272.648.48.176.204.308.45.396.738.092.284.138.598.138.942v3.918h-1.482v-3.918c0-.376-.088-.666-.264-.87-.172-.208-.432-.312-.78-.312-.256 0-.496.058-.72.174a2.58 2.58 0 0 0-.636.474v4.452h-1.482ZM34.22 22.575c0 .636-.106 1.22-.318 1.752-.212.532-.51.99-.894 1.374a4 4 0 0 1-1.386.894 4.87 4.87 0 0 1-1.794.318h-3.312v-8.676h3.312a4.79 4.79 0 0 1 1.794.324 4 4 0 0 1 1.386.894c.384.38.682.836.894 1.368.212.532.318 1.116.318 1.752Zm-1.65 0c0-.476-.064-.902-.192-1.278a2.68 2.68 0 0 0-.546-.96 2.332 2.332 0 0 0-.864-.606 2.94 2.94 0 0 0-1.14-.21h-1.686v6.108h1.686c.424 0 .804-.07 1.14-.21.34-.14.628-.34.864-.6a2.75 2.75 0 0 0 .546-.96 4.01 4.01 0 0 0 .192-1.284ZM39.98 26.913h-.665c-.14 0-.25-.02-.33-.06-.08-.044-.14-.13-.18-.258l-.132-.438c-.156.14-.31.264-.462.372a2.804 2.804 0 0 1-.462.264c-.16.072-.33.126-.51.162-.18.036-.38.054-.6.054-.26 0-.5-.034-.72-.102a1.618 1.618 0 0 1-.57-.318 1.448 1.448 0 0 1-.366-.522 1.852 1.852 0 0 1-.132-.726c0-.232.06-.46.18-.684.124-.228.328-.432.612-.612.284-.184.662-.336 1.134-.456.472-.12 1.058-.188 1.758-.204v-.36c0-.412-.088-.716-.264-.912-.172-.2-.424-.3-.756-.3a1.837 1.837 0 0 0-1.02.276c-.116.068-.224.13-.324.186a.664.664 0 0 1-.33.084.429.429 0 0 1-.258-.078.614.614 0 0 1-.174-.192l-.27-.474c.708-.648 1.562-.972 2.562-.972.36 0 .68.06.96.18.284.116.524.28.72.492.196.208.344.458.444.75.104.292.156.612.156.96v3.888Zm-2.88-.924c.153 0 .293-.014.42-.042.129-.028.249-.07.36-.126.117-.056.227-.124.33-.204.109-.084.217-.182.325-.294v-1.038c-.432.02-.794.058-1.086.114-.288.052-.52.12-.696.204a.923.923 0 0 0-.378.294.664.664 0 0 0-.108.366c0 .26.076.446.228.558.156.112.358.168.606.168ZM43.22 27.01c-.532 0-.942-.15-1.23-.45-.288-.305-.432-.723-.432-1.255v-3.438h-.624a.31.31 0 0 1-.21-.078c-.056-.052-.084-.13-.084-.234v-.588l.99-.162.312-1.68a.302.302 0 0 1 .108-.186.365.365 0 0 1 .222-.066h.768v1.938h1.62v1.056h-1.62v3.336c0 .192.048.342.144.45a.488.488 0 0 0 .384.162c.092 0 .168-.01.228-.03.064-.024.118-.048.162-.072.048-.024.09-.046.126-.066a.194.194 0 0 1 .108-.036.16.16 0 0 1 .108.036c.028.02.058.052.09.096l.444.72c-.216.18-.464.316-.744.408a2.77 2.77 0 0 1-.87.138ZM50.423 26.913h-.666c-.14 0-.25-.02-.33-.06-.08-.044-.14-.13-.18-.258l-.132-.438c-.156.14-.31.264-.462.372a2.804 2.804 0 0 1-.462.264c-.16.072-.33.126-.51.162-.18.036-.38.054-.6.054-.26 0-.5-.034-.72-.102a1.618 1.618 0 0 1-.57-.318 1.448 1.448 0 0 1-.366-.522 1.852 1.852 0 0 1-.132-.726c0-.232.06-.46.18-.684.124-.228.328-.432.612-.612.284-.184.662-.336 1.134-.456.472-.12 1.058-.188 1.758-.204v-.36c0-.412-.088-.716-.264-.912-.172-.2-.424-.3-.756-.3a1.837 1.837 0 0 0-1.02.276c-.116.068-.224.13-.324.186a.664.664 0 0 1-.33.084.429.429 0 0 1-.258-.078.614.614 0 0 1-.174-.192l-.27-.474c.708-.648 1.562-.972 2.562-.972.36 0 .68.06.96.18.284.116.524.28.72.492.196.208.344.458.444.75.104.292.156.612.156.96v3.888Zm-2.88-.924c.152 0 .292-.014.42-.042.128-.028.248-.07.36-.126.116-.056.226-.124.33-.204.108-.084.216-.182.324-.294v-1.038c-.432.02-.794.058-1.086.114-.288.052-.52.12-.696.204a.923.923 0 0 0-.378.294.664.664 0 0 0-.108.366c0 .26.076.446.228.558.156.112.358.168.606.168Z"/></svg></g><a id="title" href="https://ourworldindata.org/explorers/minerals?Mineral=Molybdenum&amp;Metric=Unit+value&amp;Type=Mine%2C+iron+content&amp;Share+of+global=false&amp;country=AUS~CHL~CHN~USA~CAN~ALB~DZA~ARG~ARM~AUT~AZE~BOL~OWID_WRL~BWA~BRA~BGR~COL~COG~CUB~CYP~OWID_CZS~COD~DOM~OWID_GDR~ZWE~ZMB~OWID_YGS~OWID_GFR~VNM~UZB~GBR~UGA~OWID_USS~TUR~TZA~TJK~TWN~SWE~ESP~KOR~ZAF~SVK~OWID_SRM~SRB~SAU~RUS~ROU~PRT~POL~PHL~PER~PNG~PAN~PAK~OMN~NOR~MKD~PRK~NIC~NZL~NAM~MMR~MOZ~MAR~MNG~MEX~MRT~MYS~LAO~KGZ~KEN~KAZ~JPN~ITA~ISR~IRL~IRN~IDN~IND~HUN~HND~HTI~GTM~GRC~DEU~GEO~FRA~FIN~ERI~ECU~VEN~ARE~UKR~CHE~SUR~LKA~SVN~QAT~NGA~NLD~MNE~ISL~GHA~EGY~HRV~CMR~BIH~BHR~AFG~OWID_KOS~MDG~NCL~SDN~Other~CZE~THA~TUN~CIV~GAB" style="font-family:&#x27;Playfair Display&#x27;, Georgia, &#x27;Times New Roman&#x27;, &#x27;Liberation Serif&#x27;, serif" target="_blank" rel="noopener"><text font-size="24.75" font-weight="600" x="16.0" y="40.0" fill="#5b5b5b"><tspan x="16" y="40.0075">Molybdenum unit value, 1912 to 2022</tspan></text></a><g id="subtitle" class="markdown-text-wrap"><text x="16.0" y="63.9" style="font-size:14.625px;line-height:1.2" fill="#5b5b5b"><tspan x="16" y="63.9">Value of 1 tonne of <tspan class="dod-span" data-id="molybdenum">molybdenum<tspan style="font-feature-settings:&quot;sups&quot;">¹</tspan></tspan>, in constant 1998 US$ per tonne.</tspan></text></g></g><g id="chart-area" style="pointer-events:none"><g id="line-chart" class="LineChart"><defs><clipPath id="boundsClip-70"><rect x="79.04" y="73.25" width="838" height="470.35"></rect></clipPath></defs><rect x="16" y="83.25" width="818" height="450.35" fill="none"></rect><g id="dual-axis" class="DualAxisView"><g id="horizontal-axis" class="HorizontalAxis"><g id="tick__1912"><line x1="89" y1="512.6" x2="89" y2="518.1" stroke="#999" stroke-width="1"></line><text x="89.04" y="531.6" fill="#5b5b5b" text-anchor="start" font-size="13.5">1912</text></g><g id="tick__2022"><line x1="763.8" y1="512.6" x2="763.8" y2="518.1" stroke="#999" stroke-width="1"></line><text x="763.765" y="531.6" fill="#5b5b5b" text-anchor="end" font-size="13.5">2022</text></g><g id="tick__1940"><line x1="260.8" y1="512.6" x2="260.8" y2="518.1" stroke="#999" stroke-width="1"></line><text x="260.8" y="531.6" fill="#5b5b5b" text-anchor="middle" font-size="13.5">1940</text></g><g id="tick__1960"><line x1="383.5" y1="512.6" x2="383.5" y2="518.1" stroke="#999" stroke-width="1"></line><text x="383.5" y="531.6" fill="#5b5b5b" text-anchor="middle" font-size="13.5">1960</text></g><g id="tick__1980"><line x1="506.1" y1="512.6" x2="506.1" y2="518.1" stroke="#999" stroke-width="1"></line><text x="506.1" y="531.6" fill="#5b5b5b" text-anchor="middle" font-size="13.5">1980</text></g><g id="tick__2000"><line x1="628.8" y1="512.6" x2="628.8" y2="518.1" stroke="#999" stroke-width="1"></line><text x="628.8" y="531.6" fill="#5b5b5b" text-anchor="middle" font-size="13.5">2000</text></g></g><g id="vertical-axis" class="VerticalAxis"><g id="tick-labels"><text id="tick-label__0-__0024__002ft" x="84.04" y="513.1" dy=".32em" text-anchor="end" fill="#5b5b5b" font-size="13.5">0 $/t</text><text id="tick-label__20__002c000-__0024__002ft" x="84.04" y="438.7" dy=".32em" text-anchor="end" fill="#5b5b5b" font-size="13.5">20,000 $/t</text><text id="tick-label__40__002c000-__0024__002ft" x="84.04" y="364.4" dy=".32em" text-anchor="end" fill="#5b5b5b" font-size="13.5">40,000 $/t</text><text id="tick-label__60__002c000-__0024__002ft" x="84.04" y="290" dy=".32em" text-anchor="end" fill="#5b5b5b" font-size="13.5">60,000 $/t</text><text id="tick-label__80__002c000-__0024__002ft" x="84.04" y="215.7" dy=".32em" text-anchor="end" fill="#5b5b5b" font-size="13.5">80,000 $/t</text><text id="tick-label__100__002c000-__0024__002ft" x="84.04" y="141.3" dy=".32em" text-anchor="end" fill="#5b5b5b" font-size="13.5">100,000 $/t</text></g></g><g id="horizontal-grid-lines" class="AxisGridLines horizontalLines"><line id="grid-line__0" x1="89.04" y1="513.1" x2="763.76" y2="513.1" stroke="#999" stroke-width="1"></line><line id="grid-line__20000" x1="89.04" y1="438.7" x2="763.76" y2="438.7" stroke="#ddd" stroke-width="1" stroke-dasharray="3,2"></line><line id="grid-line__40000" x1="89.04" y1="364.4" x2="763.76" y2="364.4" stroke="#ddd" stroke-width="1" stroke-dasharray="3,2"></line><line id="grid-line__60000" x1="89.04" y1="290" x2="763.76" y2="290" stroke="#ddd" stroke-width="1" stroke-dasharray="3,2"></line><line id="grid-line__80000" x1="89.04" y1="215.7" x2="763.76" y2="215.7" stroke="#ddd" stroke-width="1" stroke-dasharray="3,2"></line><line id="grid-line__100000" x1="89.04" y1="141.3" x2="763.76" y2="141.3" stroke="#ddd" stroke-width="1" stroke-dasharray="3,2"></line></g></g><g clip-path="url(#boundsClip-70)"><g id="line-labels" class="LineLabels"><g id="mark__World" class="legendMark" style="cursor:default"><rect id="background" x="763.765" y="420.85" width="70.235" height="13.5" fill="#fff" opacity="0"></rect><text id="label" font-size="13.50" font-weight="400" x="767.8" y="432.6" fill="#c15065"><tspan x="767.765" y="432.595">World</tspan></text></g></g><g id="lines" class="Lines"><rect x="89" y="89" width="675" height="424" fill="rgba(255,255,255,0)" opacity="0"></rect><g id="line__World"><path stroke-linecap="round" stroke-linejoin="round" stroke="#ddd" d="M89 484.8L95.2 472.2L101.3 377.8L107.4 379.3L113.6 388.9L119.7 363.6L125.8 381.5L132 422.8L138.1 479.2L144.2 459.9L150.4 495.4L156.5 452.9L162.6 441.7L168.8 482.1L174.9 459.6L181 454L187.2 433.9L193.3 473.3L199.4 468.1L205.6 475.5L211.7 463.3L217.9 434.7L224 442.1L230.1 443.9L236.3 448.4L242.4 448.8L248.5 445.4L254.7 446.9L260.8 446.2L266.9 450.6L273.1 454L279.2 455.5L285.3 453.2L291.5 455.1L297.6 457.3L303.7 463.7L309.9 466.3L316 459.6L322.1 459.2L328.3 459.2L334.4 459.6L340.5 458.1L346.7 455.8L352.8 454.7L358.9 452.5L365.1 451.8L371.2 451.4L377.3 450.3L383.5 451L389.6 447.7L395.7 446.9L401.9 447.7L408 444.3L414.1 442.8L420.3 445.4L426.4 445.4L432.5 446.2L438.7 447.3L444.8 452.1L450.9 452.9L457.1 456.2L463.2 460.3L469.3 455.5L475.5 442.8L481.6 436.9L487.7 406L493.9 325L500 89.3L506.1 361L512.3 419L518.4 456.6L524.5 464L530.7 467.4L536.8 472.9L542.9 478.2L549.1 479L555.2 474.1L561.3 476.8L567.5 484L573.6 489.8L579.7 492.1L585.9 491.5L592 470.3L598.2 443.9L604.3 480.9L610.4 477.3L616.6 485.2L622.7 491.8L628.8 493.3L635 495.3L641.1 485.2L647.2 474.4L653.4 395.2L659.5 295.6L665.6 348.8L671.8 317.9L677.9 335.8L684 440.2L690.2 416.4L696.3 420.5L702.4 439.1L708.6 453.6L714.7 446.9L720.8 474.4L727 476.7L733.1 468.5L739.2 447.7L745.4 450.3L751.5 466.6L757.6 433.9L763.8 427.6" fill="none" stroke-width="1"></path></g><g id="line__World"><path id="outline" fill="none" stroke-linecap="butt" stroke-linejoin="round" stroke="#fff" stroke-width="2.5" d="M89 484.8L95.2 472.2L101.3 377.8L107.4 379.3L113.6 388.9L119.7 363.6L125.8 381.5L132 422.8L138.1 479.2L144.2 459.9L150.4 495.4L156.5 452.9L162.6 441.7L168.8 482.1L174.9 459.6L181 454L187.2 433.9L193.3 473.3L199.4 468.1L205.6 475.5L211.7 463.3L217.9 434.7L224 442.1L230.1 443.9L236.3 448.4L242.4 448.8L248.5 445.4L254.7 446.9L260.8 446.2L266.9 450.6L273.1 454L279.2 455.5L285.3 453.2L291.5 455.1L297.6 457.3L303.7 463.7L309.9 466.3L316 459.6L322.1 459.2L328.3 459.2L334.4 459.6L340.5 458.1L346.7 455.8L352.8 454.7L358.9 452.5L365.1 451.8L371.2 451.4L377.3 450.3L383.5 451L389.6 447.7L395.7 446.9L401.9 447.7L408 444.3L414.1 442.8L420.3 445.4L426.4 445.4L432.5 446.2L438.7 447.3L444.8 452.1L450.9 452.9L457.1 456.2L463.2 460.3L469.3 455.5L475.5 442.8L481.6 436.9L487.7 406L493.9 325L500 89.3L506.1 361L512.3 419L518.4 456.6L524.5 464L530.7 467.4L536.8 472.9L542.9 478.2L549.1 479L555.2 474.1L561.3 476.8L567.5 484L573.6 489.8L579.7 492.1L585.9 491.5L592 470.3L598.2 443.9L604.3 480.9L610.4 477.3L616.6 485.2L622.7 491.8L628.8 493.3L635 495.3L641.1 485.2L647.2 474.4L653.4 395.2L659.5 295.6L665.6 348.8L671.8 317.9L677.9 335.8L684 440.2L690.2 416.4L696.3 420.5L702.4 439.1L708.6 453.6L714.7 446.9L720.8 474.4L727 476.7L733.1 468.5L739.2 447.7L745.4 450.3L751.5 466.6L757.6 433.9L763.8 427.6"></path><g id="polyline"><polyline id="polyline" points="89.00,484.80 95.20,472.20 101.30,377.80 107.40,379.30 113.60,388.90 119.70,363.60 125.80,381.50 132.00,422.80 138.10,479.20 144.20,459.90 150.40,495.40 156.50,452.90 162.60,441.70 168.80,482.10 174.90,459.60 181.00,454.00 187.20,433.90 193.30,473.30 199.40,468.10 205.60,475.50 211.70,463.30 217.90,434.70 224.00,442.10 230.10,443.90 236.30,448.40 242.40,448.80 248.50,445.40 254.70,446.90 260.80,446.20 266.90,450.60 273.10,454.00 279.20,455.50 285.30,453.20 291.50,455.10 297.60,457.30 303.70,463.70 309.90,466.30 316.00,459.60 322.10,459.20 328.30,459.20 334.40,459.60 340.50,458.10 346.70,455.80 352.80,454.70 358.90,452.50 365.10,451.80 371.20,451.40 377.30,450.30 383.50,451.00 389.60,447.70 395.70,446.90 401.90,447.70 408.00,444.30 414.10,442.80 420.30,445.40 426.40,445.40 432.50,446.20 438.70,447.30 444.80,452.10 450.90,452.90 457.10,456.20 463.20,460.30 469.30,455.50 475.50,442.80 481.60,436.90 487.70,406.00 493.90,325.00 500.00,89.30 506.10,361.00 512.30,419.00 518.40,456.60 524.50,464.00 530.70,467.40 536.80,472.90 542.90,478.20 549.10,479.00 555.20,474.10 561.30,476.80 567.50,484.00 573.60,489.80 579.70,492.10 585.90,491.50 592.00,470.30 598.20,443.90 604.30,480.90 610.40,477.30 616.60,485.20 622.70,491.80 628.80,493.30 635.00,495.30 641.10,485.20 647.20,474.40 653.40,395.20 659.50,295.60 665.60,348.80 671.80,317.90 677.90,335.80 684.00,440.20 690.20,416.40 696.30,420.50 702.40,439.10 708.60,453.60 714.70,446.90 720.80,474.40 727.00,476.70 733.10,468.50 739.20,447.70 745.40,450.30 751.50,466.60 757.60,433.90 763.80,427.60" stroke-linejoin="round" stroke-width="1.5" stroke="#C15065" fill="none" stroke-linecap="butt"></polyline></g><g id="markers"><circle cx="89" cy="484.8" r="1.8" fill="#C15065"></circle><circle cx="95.2" cy="472.2" r="1.8" fill="#C15065"></circle><circle cx="101.3" cy="377.8" r="1.8" fill="#C15065"></circle><circle cx="107.4" cy="379.3" r="1.8" fill="#C15065"></circle><circle cx="113.6" cy="388.9" r="1.8" fill="#C15065"></circle><circle cx="119.7" cy="363.6" r="1.8" fill="#C15065"></circle><circle cx="125.8" cy="381.5" r="1.8" fill="#C15065"></circle><circle cx="132" cy="422.8" r="1.8" fill="#C15065"></circle><circle cx="138.1" cy="479.2" r="1.8" fill="#C15065"></circle><circle cx="144.2" cy="459.9" r="1.8" fill="#C15065"></circle><circle cx="150.4" cy="495.4" r="1.8" fill="#C15065"></circle><circle cx="156.5" cy="452.9" r="1.8" fill="#C15065"></circle><circle cx="162.6" cy="441.7" r="1.8" fill="#C15065"></circle><circle cx="168.8" cy="482.1" r="1.8" fill="#C15065"></circle><circle cx="174.9" cy="459.6" r="1.8" fill="#C15065"></circle><circle cx="181" cy="454" r="1.8" fill="#C15065"></circle><circle cx="187.2" cy="433.9" r="1.8" fill="#C15065"></circle><circle cx="193.3" cy="473.3" r="1.8" fill="#C15065"></circle><circle cx="199.4" cy="468.1" r="1.8" fill="#C15065"></circle><circle cx="205.6" cy="475.5" r="1.8" fill="#C15065"></circle><circle cx="211.7" cy="463.3" r="1.8" fill="#C15065"></circle><circle cx="217.9" cy="434.7" r="1.8" fill="#C15065"></circle><circle cx="224" cy="442.1" r="1.8" fill="#C15065"></circle><circle cx="230.1" cy="443.9" r="1.8" fill="#C15065"></circle><circle cx="236.3" cy="448.4" r="1.8" fill="#C15065"></circle><circle cx="242.4" cy="448.8" r="1.8" fill="#C15065"></circle><circle cx="248.5" cy="445.4" r="1.8" fill="#C15065"></circle><circle cx="254.7" cy="446.9" r="1.8" fill="#C15065"></circle><circle cx="260.8" cy="446.2" r="1.8" fill="#C15065"></circle><circle cx="266.9" cy="450.6" r="1.8" fill="#C15065"></circle><circle cx="273.1" cy="454" r="1.8" fill="#C15065"></circle><circle cx="279.2" cy="455.5" r="1.8" fill="#C15065"></circle><circle cx="285.3" cy="453.2" r="1.8" fill="#C15065"></circle><circle cx="291.5" cy="455.1" r="1.8" fill="#C15065"></circle><circle cx="297.6" cy="457.3" r="1.8" fill="#C15065"></circle><circle cx="303.7" cy="463.7" r="1.8" fill="#C15065"></circle><circle cx="309.9" cy="466.3" r="1.8" fill="#C15065"></circle><circle cx="316" cy="459.6" r="1.8" fill="#C15065"></circle><circle cx="322.1" cy="459.2" r="1.8" fill="#C15065"></circle><circle cx="328.3" cy="459.2" r="1.8" fill="#C15065"></circle><circle cx="334.4" cy="459.6" r="1.8" fill="#C15065"></circle><circle cx="340.5" cy="458.1" r="1.8" fill="#C15065"></circle><circle cx="346.7" cy="455.8" r="1.8" fill="#C15065"></circle><circle cx="352.8" cy="454.7" r="1.8" fill="#C15065"></circle><circle cx="358.9" cy="452.5" r="1.8" fill="#C15065"></circle><circle cx="365.1" cy="451.8" r="1.8" fill="#C15065"></circle><circle cx="371.2" cy="451.4" r="1.8" fill="#C15065"></circle><circle cx="377.3" cy="450.3" r="1.8" fill="#C15065"></circle><circle cx="383.5" cy="451" r="1.8" fill="#C15065"></circle><circle cx="389.6" cy="447.7" r="1.8" fill="#C15065"></circle><circle cx="395.7" cy="446.9" r="1.8" fill="#C15065"></circle><circle cx="401.9" cy="447.7" r="1.8" fill="#C15065"></circle><circle cx="408" cy="444.3" r="1.8" fill="#C15065"></circle><circle cx="414.1" cy="442.8" r="1.8" fill="#C15065"></circle><circle cx="420.3" cy="445.4" r="1.8" fill="#C15065"></circle><circle cx="426.4" cy="445.4" r="1.8" fill="#C15065"></circle><circle cx="432.5" cy="446.2" r="1.8" fill="#C15065"></circle><circle cx="438.7" cy="447.3" r="1.8" fill="#C15065"></circle><circle cx="444.8" cy="452.1" r="1.8" fill="#C15065"></circle><circle cx="450.9" cy="452.9" r="1.8" fill="#C15065"></circle><circle cx="457.1" cy="456.2" r="1.8" fill="#C15065"></circle><circle cx="463.2" cy="460.3" r="1.8" fill="#C15065"></circle><circle cx="469.3" cy="455.5" r="1.8" fill="#C15065"></circle><circle cx="475.5" cy="442.8" r="1.8" fill="#C15065"></circle><circle cx="481.6" cy="436.9" r="1.8" fill="#C15065"></circle><circle cx="487.7" cy="406" r="1.8" fill="#C15065"></circle><circle cx="493.9" cy="325" r="1.8" fill="#C15065"></circle><circle cx="500" cy="89.3" r="1.8" fill="#C15065"></circle><circle cx="506.1" cy="361" r="1.8" fill="#C15065"></circle><circle cx="512.3" cy="419" r="1.8" fill="#C15065"></circle><circle cx="518.4" cy="456.6" r="1.8" fill="#C15065"></circle><circle cx="524.5" cy="464" r="1.8" fill="#C15065"></circle><circle cx="530.7" cy="467.4" r="1.8" fill="#C15065"></circle><circle cx="536.8" cy="472.9" r="1.8" fill="#C15065"></circle><circle cx="542.9" cy="478.2" r="1.8" fill="#C15065"></circle><circle cx="549.1" cy="479" r="1.8" fill="#C15065"></circle><circle cx="555.2" cy="474.1" r="1.8" fill="#C15065"></circle><circle cx="561.3" cy="476.8" r="1.8" fill="#C15065"></circle><circle cx="567.5" cy="484" r="1.8" fill="#C15065"></circle><circle cx="573.6" cy="489.8" r="1.8" fill="#C15065"></circle><circle cx="579.7" cy="492.1" r="1.8" fill="#C15065"></circle><circle cx="585.9" cy="491.5" r="1.8" fill="#C15065"></circle><circle cx="592" cy="470.3" r="1.8" fill="#C15065"></circle><circle cx="598.2" cy="443.9" r="1.8" fill="#C15065"></circle><circle cx="604.3" cy="480.9" r="1.8" fill="#C15065"></circle><circle cx="610.4" cy="477.3" r="1.8" fill="#C15065"></circle><circle cx="616.6" cy="485.2" r="1.8" fill="#C15065"></circle><circle cx="622.7" cy="491.8" r="1.8" fill="#C15065"></circle><circle cx="628.8" cy="493.3" r="1.8" fill="#C15065"></circle><circle cx="635" cy="495.3" r="1.8" fill="#C15065"></circle><circle cx="641.1" cy="485.2" r="1.8" fill="#C15065"></circle><circle cx="647.2" cy="474.4" r="1.8" fill="#C15065"></circle><circle cx="653.4" cy="395.2" r="1.8" fill="#C15065"></circle><circle cx="659.5" cy="295.6" r="1.8" fill="#C15065"></circle><circle cx="665.6" cy="348.8" r="1.8" fill="#C15065"></circle><circle cx="671.8" cy="317.9" r="1.8" fill="#C15065"></circle><circle cx="677.9" cy="335.8" r="1.8" fill="#C15065"></circle><circle cx="684" cy="440.2" r="1.8" fill="#C15065"></circle><circle cx="690.2" cy="416.4" r="1.8" fill="#C15065"></circle><circle cx="696.3" cy="420.5" r="1.8" fill="#C15065"></circle><circle cx="702.4" cy="439.1" r="1.8" fill="#C15065"></circle><circle cx="708.6" cy="453.6" r="1.8" fill="#C15065"></circle><circle cx="714.7" cy="446.9" r="1.8" fill="#C15065"></circle><circle cx="720.8" cy="474.4" r="1.8" fill="#C15065"></circle><circle cx="727" cy="476.7" r="1.8" fill="#C15065"></circle><circle cx="733.1" cy="468.5" r="1.8" fill="#C15065"></circle><circle cx="739.2" cy="447.7" r="1.8" fill="#C15065"></circle><circle cx="745.4" cy="450.3" r="1.8" fill="#C15065"></circle><circle cx="751.5" cy="466.6" r="1.8" fill="#C15065"></circle><circle cx="757.6" cy="433.9" r="1.8" fill="#C15065"></circle><circle cx="763.8" cy="427.6" r="1.8" fill="#C15065"></circle></g></g></g></g></g></g><g id="footer" class="SourcesFooter" style="fill:#5b5b5b"><g id="sources" class="markdown-text-wrap"><text x="16.0" y="562.7" style="font-size:13.5px;line-height:1.2"><tspan x="16" y="562.7"><tspan style="font-weight:700">Data source:</tspan> USGS - Historical Statistics for Mineral and Material Commodities (2023)</tspan></text></g><g id="note" class="markdown-text-wrap"><text x="16.0" y="580.9" style="font-size:13.5px;line-height:1.2"><tspan x="16" y="580.9"><tspan style="font-weight:700">Note:</tspan> This data is adjusted for inflation.</tspan></text></g><text id="origin-url" font-size="13.50" x="792.7" y="562.7"><tspan x="792.69" y="562.695"><a target="_blank" style="fill: #5b5b5b;" href="https://creativecommons.org/licenses/by/4.0/">CC BY</a></tspan></text></g><line id="separator-line" x1="16" y1="600" x2="834" y2="600" stroke="#e7e7e7"></line><g id="details" transform="translate(15, 616)"><g class="markdown-text-wrap"><text x="0.0" y="12.0" style="font-size:12.375px;fill:#5b5b5b;line-height:1.2"><tspan x="0" y="12.0"><tspan style="font-weight:700">1.</tspan> <tspan style="font-weight:700">Molybdenum</tspan>: Molybdenum has a very high electrical conductivity but expands very little when exposed to heat. It is used in alloys, particularly</tspan><tspan x="0" y="26.9">with steel, for applications such as electric motors, and filaments in light bulbs, and in aircraft. In clean energy, it’s mostly used in solar and wind</tspan><tspan x="0" y="41.7">power generation.</tspan></text></g></g></svg>